<svg width="4" height="14" viewBox="0 0 4 14" fill="none" xmlns="http://www.w3.org/2000/svg">
<path d="M2 2.92C2.26522 2.92 2.51957 2.81886 2.70711 2.63882C2.89464 2.45879 3 2.21461 3 1.96C3 1.70539 2.89464 1.46121 2.70711 1.28118C2.51957 1.10114 2.26522 1 2 1C1.73478 1 1.48043 1.10114 1.29289 1.28118C1.10536 1.46121 1 1.70539 1 1.96C1 2.21461 1.10536 2.45879 1.29289 2.63882C1.48043 2.81886 1.73478 2.92 2 2.92ZM2 7.96C2.26522 7.96 2.51957 7.85886 2.70711 7.67882C2.89464 7.49879 3 7.25461 3 7C3 6.74539 2.89464 6.50121 2.70711 6.32118C2.51957 6.14114 2.26522 6.04 2 6.04C1.73478 6.04 1.48043 6.14114 1.29289 6.32118C1.10536 6.50121 1 6.74539 1 7C1 7.25461 1.10536 7.49879 1.29289 7.67882C1.48043 7.85886 1.73478 7.96 2 7.96ZM2 13C2.26522 13 2.51957 12.8989 2.70711 12.7188C2.89464 12.5388 3 12.2946 3 12.04C3 11.7854 2.89464 11.5412 2.70711 11.3612C2.51957 11.1811 2.26522 11.08 2 11.08C1.73478 11.08 1.48043 11.1811 1.29289 11.3612C1.10536 11.5412 1 11.7854 1 12.04C1 12.2946 1.10536 12.5388 1.29289 12.7188C1.48043 12.8989 1.73478 13 2 13Z" stroke="#20364D" stroke-width="1.5" stroke-linecap="round" stroke-linejoin="round"/>
</svg>
