<svg width="20" height="20" viewBox="0 0 20 20" fill="none" xmlns="http://www.w3.org/2000/svg">
<path d="M3.5 0C1.56 0 0 1.56 0 3.5V16.5C0 18.44 1.56 20 3.5 20H14L20 14V3.5C20 1.56 18.44 0 16.5 0H3.5ZM3.75 2H16.25C16.7141 2 17.1592 2.18437 17.4874 2.51256C17.8156 2.84075 18 3.28587 18 3.75V13H16.5C14.56 13 13 14.56 13 16.5V18H3.75C3.28587 18 2.84075 17.8156 2.51256 17.4874C2.18437 17.1592 2 16.7141 2 16.25V3.75C2 3.28587 2.18437 2.84075 2.51256 2.51256C2.84075 2.18437 3.28587 2 3.75 2ZM12.44 4.77C12.28 4.77 12.12 4.79 11.97 4.83C11.03 5.09 10.5 6.05 10.74 7C10.79 7.15 10.86 7.3 10.95 7.44L14.18 6.56C14.18 6.39 14.16 6.22 14.12 6.05C13.91 5.3 13.22 4.77 12.44 4.77ZM6.17 6.5C6 6.5 5.85 6.5 5.7 6.55C4.77 6.81 4.22 7.77 4.47 8.7C4.5 8.86 4.59 9 4.68 9.16L7.91 8.28C7.91 8.11 7.89 7.94 7.85 7.78C7.75217 7.41021 7.53386 7.08359 7.2296 6.85177C6.92534 6.61995 6.55249 6.49617 6.17 6.5ZM14.72 9.26L5.59 11.77C6.23867 12.5199 7.08574 13.0716 8.03388 13.3617C8.98202 13.6518 9.99277 13.6686 10.95 13.41C11.9052 13.1431 12.7658 12.6121 13.4327 11.878C14.0996 11.1438 14.5458 10.2364 14.72 9.26Z" fill="#9AB8D5"/>
</svg>
