<svg width="16" height="16" viewBox="0 0 16 16" fill="none" xmlns="http://www.w3.org/2000/svg">
<path d="M6.39556 2.13224C6.23323 2.27058 6.15205 2.33975 6.06536 2.39786C5.86663 2.53106 5.64343 2.62351 5.40872 2.66985C5.30633 2.69007 5.20001 2.69855 4.98737 2.71551C4.45312 2.75815 4.18599 2.77947 3.96313 2.85819C3.44766 3.04025 3.04221 3.44571 2.86014 3.96117C2.78142 4.18403 2.76011 4.45116 2.71747 4.98541C2.70051 5.19805 2.69202 5.30437 2.6718 5.40677C2.62546 5.64148 2.53301 5.86467 2.39981 6.06341C2.34171 6.1501 2.27253 6.23128 2.13417 6.39363C1.78655 6.80156 1.61272 7.0055 1.5108 7.21877C1.27505 7.71203 1.27505 8.28537 1.5108 8.77863C1.61273 8.9919 1.78654 9.19583 2.13417 9.60377C2.27249 9.7661 2.34171 9.8473 2.39981 9.93397C2.53301 10.1327 2.62546 10.3559 2.6718 10.5906C2.69202 10.693 2.7005 10.7994 2.71747 11.012C2.7601 11.5462 2.78142 11.8134 2.86014 12.0362C3.04221 12.5517 3.44766 12.9572 3.96313 13.1392C4.18598 13.2179 4.4531 13.2392 4.98732 13.2819C5.19995 13.2988 5.30633 13.3074 5.40872 13.3276C5.64343 13.3739 5.86663 13.4664 6.06536 13.5996C6.15206 13.6576 6.23323 13.7268 6.39559 13.8652C6.80352 14.2128 7.00745 14.3866 7.22072 14.4886C7.71399 14.7243 8.28732 14.7243 8.78059 14.4886C8.99385 14.3866 9.19779 14.2128 9.60572 13.8652C9.76805 13.7268 9.84925 13.6576 9.93592 13.5996C10.1347 13.4664 10.3579 13.3739 10.5926 13.3276C10.695 13.3074 10.8013 13.2988 11.0139 13.2819C11.5481 13.2392 11.8153 13.2179 12.0382 13.1392C12.5537 12.9572 12.9591 12.5517 13.1412 12.0362C13.2199 11.8134 13.2412 11.5462 13.2839 11.012C13.3008 10.7994 13.3093 10.693 13.3295 10.5906C13.3759 10.3559 13.4683 10.1327 13.6015 9.93397C13.6596 9.8473 13.7288 9.7661 13.8671 9.60377C14.2148 9.19583 14.3886 8.9919 14.4905 8.77863C14.7263 8.28537 14.7263 7.71203 14.4905 7.21877C14.3886 7.0055 14.2148 6.80157 13.8671 6.39363C13.7288 6.23128 13.6596 6.15011 13.6015 6.06341C13.4683 5.86467 13.3759 5.64148 13.3295 5.40677C13.3093 5.30437 13.3008 5.19805 13.2839 4.98542C13.2412 4.4512 13.2199 4.18403 13.1412 3.96117C12.9591 3.44571 12.5537 3.04025 12.0382 2.85819C11.8153 2.77947 11.5482 2.75815 11.0139 2.71552C10.8013 2.69855 10.695 2.69007 10.5926 2.66985C10.3579 2.62351 10.1347 2.53106 9.93592 2.39786C9.84925 2.33975 9.76805 2.27057 9.60572 2.13221C9.19779 1.78459 8.99385 1.61077 8.78059 1.50885C8.28732 1.27309 7.71399 1.27309 7.22072 1.50885C7.00745 1.61077 6.80349 1.78461 6.39556 2.13224Z" fill="#3A9A76"/>
<path d="M10.168 5.63477C10.4263 5.46425 10.7773 5.49258 11.0049 5.71973L11.0908 5.82422C11.2372 6.04576 11.2371 6.33605 11.0908 6.55762L11.0049 6.66211L7.3877 10.2793C7.16017 10.5065 6.80912 10.5348 6.55078 10.3643L6.44629 10.2793L4.99902 8.83203C4.73937 8.5721 4.73942 8.15062 4.99902 7.89062L5.10352 7.80469C5.36196 7.634 5.71386 7.6631 5.94141 7.89062L6.91699 8.86621L10.0635 5.71973L10.168 5.63477Z" fill="white" stroke="white" stroke-width="0.246513"/>
</svg>
