<svg width="20" height="20" viewBox="0 0 20 20" fill="none" xmlns="http://www.w3.org/2000/svg">
<path d="M10.0007 0.833008C4.94065 0.833008 0.833984 4.93967 0.833984 9.99967C0.833984 15.0597 4.94065 19.1663 10.0007 19.1663C15.0607 19.1663 19.1673 15.0597 19.1673 9.99967C19.1673 4.93967 15.0607 0.833008 10.0007 0.833008ZM2.66732 9.99967C2.66732 5.94801 5.94898 2.66634 10.0007 2.66634C11.6965 2.66634 13.2548 3.24384 14.4923 4.21551L4.21648 14.4913C3.20964 13.211 2.66386 11.6285 2.66732 9.99967ZM10.0007 17.333C8.30482 17.333 6.74648 16.7555 5.50898 15.7838L15.7848 5.50801C16.7917 6.7884 17.3374 8.37084 17.334 9.99967C17.334 14.0513 14.0523 17.333 10.0007 17.333Z" fill="#F8FCFF"/>
</svg>
