<svg width="27" height="27" viewBox="0 0 27 27" fill="none" xmlns="http://www.w3.org/2000/svg">
<path d="M4.75391 15.8175C5.44879 15.5549 5.80725 15.705 8.59991 15.6619C9.23022 15.6619 9.80482 15.9045 10.2357 16.3008C10.6667 15.9045 11.2413 15.6619 11.8716 15.6619H14.8649C15.4952 15.6619 16.0697 15.9045 16.5007 16.3008C16.9317 15.9044 17.5062 15.6619 18.1365 15.6619C20.9339 15.7051 21.2896 15.5557 21.9825 15.8175V10.7021H4.75391V15.8175Z" fill="#315D80"/>
<path d="M23.5458 14.0967V18.8998H21.9795V18.0819C21.9795 17.6117 21.597 17.2292 21.1268 17.2292H18.1335C17.6634 17.2292 17.2808 17.6117 17.2808 18.0819V18.8998H15.7146V18.0819C15.7146 17.6117 15.3321 17.2292 14.8619 17.2292H11.8686C11.3984 17.2292 11.0159 17.6117 11.0159 18.0819V18.8998H9.44964V18.0819C9.44964 17.6117 9.06711 17.2292 8.59693 17.2292H5.60364C5.13345 17.2292 4.75092 17.6117 4.75092 18.0819V18.8998H3.18468V14.0967H0V23.5985H1.61845V26.731H3.9678L4.75092 23.5985H21.9763L22.7594 26.731H25.1088V23.5985H26.7305C26.7305 21.2342 26.7305 16.0163 26.7305 14.0967H23.5458Z" fill="#315D80"/>
<path d="M23.5461 6.65651C23.5461 4.98257 22.3726 3.57849 20.8052 3.22128V0H19.239V3.22128C17.6716 3.57849 16.498 4.98257 16.498 6.65651V7.83119H23.5461V6.65651Z" fill="#315D80"/>
<path d="M8.95117 0H13.1539V3.13347H8.95117V0Z" fill="#315D80"/>
<path d="M3.18359 0H7.38633V3.13347H3.18359V0Z" fill="#315D80"/>
<path d="M3.18359 4.7002H7.38633V7.83168H3.18359V4.7002Z" fill="#315D80"/>
<path d="M8.95117 4.7002H13.1539V7.83168H8.95117V4.7002Z" fill="#315D80"/>
</svg>
