<svg width="30" height="30" viewBox="0 0 30 30" fill="none" xmlns="http://www.w3.org/2000/svg">
<circle cx="15" cy="15" r="12" fill="white"/>
<circle cx="15" cy="15" r="13.5" stroke="#8AA4BB" stroke-opacity="0.16" stroke-width="3"/>
<g clip-path="url(#clip0_7158_2923)">
<g clip-path="url(#clip1_7158_2923)">
<path d="M15.0007 21.25C18.4524 21.25 21.2507 18.4518 21.2507 15C21.2507 11.5482 18.4524 8.75 15.0007 8.75C11.5489 8.75 8.75067 11.5482 8.75067 15C8.75067 18.4518 11.5489 21.25 15.0007 21.25Z" fill="#8AA4BB"/>
<path fill-rule="evenodd" clip-rule="evenodd" d="M15.0007 8.75C18.4525 8.75 21.2507 11.5482 21.2507 15C21.2507 18.4518 18.4525 21.25 15.0007 21.25V8.75Z" fill="#8AA4BB"/>
<path d="M18.4853 18.4861C20.4106 16.5608 20.4106 13.4392 18.4853 11.5139C16.56 9.58861 13.4385 9.58861 11.5132 11.5139C9.58787 13.4392 9.58787 16.5608 11.5132 18.4861C13.4385 20.4114 16.56 20.4114 18.4853 18.4861Z" fill="white"/>
<path fill-rule="evenodd" clip-rule="evenodd" d="M17.6689 12.9412C17.9306 13.2029 17.9306 13.631 17.6689 13.8926L14.5473 17.0142C14.3611 17.2004 14.1218 17.2817 13.8608 17.2473C13.5997 17.2129 13.3896 17.0726 13.2579 16.8445L12.2257 15.0566C12.0406 14.7362 12.1515 14.3227 12.4719 14.1376C12.7924 13.9526 13.2059 14.0634 13.3909 14.3839L14.0805 15.5782L16.7175 12.9412C16.9791 12.6796 17.4072 12.6796 17.6689 12.9412H17.6689Z" fill="#8AA4BB"/>
</g>
</g>
<defs>
<clipPath id="clip0_7158_2923">
<rect width="13.3333" height="13.3333" fill="white" transform="translate(8.33398 8.33337)"/>
</clipPath>
<clipPath id="clip1_7158_2923">
<rect width="13.3333" height="13.3333" fill="white" transform="translate(8.33398 8.33337)"/>
</clipPath>
</defs>
</svg>
