<svg width="65" height="65" viewBox="0 0 65 65" fill="none" xmlns="http://www.w3.org/2000/svg">
<rect width="65" height="65" rx="32.5" fill="#EDF2FA"/>
<path d="M32.9991 23.1434L30.2278 25.9147C29.7198 26.4228 29.7198 27.2542 30.2278 27.7623C30.7359 28.2704 31.5673 28.2704 32.0754 27.7623L34.8467 24.991C36.3709 23.4668 38.8651 23.4668 40.3893 24.991C41.9135 26.5152 41.9135 29.0094 40.3893 30.5336L37.618 33.3049C37.1099 33.813 37.1099 34.6444 37.618 35.1525C38.1261 35.6605 38.9575 35.6605 39.4655 35.1525L42.2369 32.3811C44.7865 29.8315 44.7865 25.693 42.2369 23.1434C39.6872 20.5938 35.5487 20.5938 32.9991 23.1434ZM29.3041 36.0762C29.8121 36.5843 30.6435 36.5843 31.1516 36.0762L36.6942 30.5336C37.2023 30.0255 37.2023 29.1941 36.6942 28.6861C36.1862 28.178 35.3548 28.178 34.8467 28.6861L29.3041 34.2287C28.796 34.7368 28.796 35.5682 29.3041 36.0762ZM33.9229 37L31.1516 39.7713C29.6274 41.2955 27.1332 41.2955 25.609 39.7713C24.0848 38.2471 24.0848 35.7529 25.609 34.2287L28.3803 31.4574C28.8884 30.9493 28.8884 30.1179 28.3803 29.6098C27.8722 29.1018 27.0408 29.1018 26.5327 29.6098L23.7614 32.3811C21.2118 34.9308 21.2118 39.0692 23.7614 41.6189C26.311 44.1685 30.4495 44.1685 32.9991 41.6189L35.7705 38.8475C36.2785 38.3395 36.2785 37.5081 35.7705 37C35.2624 36.4919 34.431 36.4919 33.9229 37Z" fill="#315D80"/>
</svg>
