<svg width="12" height="12" viewBox="0 0 12 12" fill="none" xmlns="http://www.w3.org/2000/svg">
<path fill-rule="evenodd" clip-rule="evenodd" d="M8.21887 0.89063C7.93089 0.753401 7.61592 0.682172 7.29691 0.682172H2.71453C1.65887 0.682172 0.760501 1.45103 0.597386 2.494L0.0609865 5.9254C-0.101528 6.96512 0.7023 7.90447 1.7547 7.90447H4.56931V9.92529C4.56931 10.6947 5.19301 11.3184 5.96238 11.3184C6.46664 11.3184 6.93153 11.0459 7.17789 10.6059L8.95846 7.42581C9.06592 7.2339 9.12235 7.01762 9.12235 6.79768V2.13272C9.12235 1.63703 8.83733 1.1854 8.38981 0.972144L8.21887 0.89063ZM11.105 7.26875C11.3315 7.26875 11.5487 7.17877 11.7088 7.01861C11.869 6.85845 11.959 6.64123 11.959 6.41473L11.959 2.03252C11.959 1.80597 11.869 1.58877 11.7088 1.42857C11.5487 1.26846 11.3315 1.17846 11.105 1.17846L10.6793 1.17863C10.4427 1.17872 10.2509 1.37063 10.2509 1.6072V6.84036C10.2509 6.95406 10.2961 7.0631 10.3765 7.14347C10.457 7.22385 10.566 7.26898 10.6797 7.26893L11.105 7.26875Z" fill="white"/>
</svg>
