<svg width="20" height="20" viewBox="0 0 20 20" fill="none" xmlns="http://www.w3.org/2000/svg">
<g clip-path="url(#clip0_7858_8092)">
<path d="M17.5943 0.323867C17.4948 0.125313 17.2922 0 17.0702 0H2.96863C2.7466 0 2.505 0.125313 2.40543 0.323867L1.39551 2.38281H18.6043L17.5943 0.323867Z" fill="#6B5E7A"/>
<path d="M19.4141 3.55469H0.585938C0.262344 3.55469 0 3.81703 0 4.14062V5.3125C0 5.63609 0.262344 5.89844 0.585938 5.89844H19.4141C19.7377 5.89844 20 5.63609 20 5.3125V4.14062C20 3.81703 19.7377 3.55469 19.4141 3.55469Z" fill="#6B5E7A"/>
<path d="M8.24219 16.8047C7.62078 17.5812 7.07031 18.4532 7.07031 18.8269C7.07031 19.4729 7.59617 19.9988 8.24219 19.9988C8.8882 19.9988 9.41406 19.4729 9.41406 18.8269C9.41406 18.4641 8.86477 17.5852 8.24219 16.8047Z" fill="#EA4B62"/>
<path d="M10 9.41406C7.08754 9.41406 4.72656 11.8141 4.72656 14.7266V20H6.22437C6.02254 19.6539 5.89844 19.2569 5.89844 18.8281C5.89844 17.6906 7.48746 15.8618 7.80617 15.507C8.0282 15.2598 8.45621 15.2598 8.6782 15.507C8.76684 15.6057 8.95699 15.8251 9.18066 16.1052C9.87695 15.1558 10.7242 14.3435 10.769 14.3014C10.9945 14.0874 11.3493 14.0874 11.5747 14.3014C11.997 14.7014 14.1016 16.7705 14.1016 18.2422C14.1016 18.9042 13.8725 19.5088 13.5007 20H15.3125V14.7266C15.3125 11.8141 12.9125 9.41406 10 9.41406Z" fill="#6B5E7A"/>
<path d="M11.1737 15.5566C10.8152 15.9334 10.2964 16.5247 9.90625 17.1193C10.2761 17.7013 10.5855 18.3298 10.5855 18.8285C10.5855 19.2573 10.4614 19.6543 10.2596 20.0004H11.1714C12.1407 20.0004 12.9293 19.2119 12.9293 18.2426C12.9293 17.6269 12.0034 16.4241 11.1737 15.5566Z" fill="#EA4B62"/>
<path d="M19.4141 17.6562H16.4844V20H19.4141C19.7377 20 20 19.7377 20 19.4141V18.2422C20 17.9186 19.7377 17.6562 19.4141 17.6562Z" fill="#6B5E7A"/>
<path d="M0.585938 17.6562C0.262344 17.6562 0 17.9186 0 18.2422V19.4141C0 19.7377 0.262344 20 0.585938 20H3.55469V17.6562H0.585938Z" fill="#6B5E7A"/>
<path d="M1.17188 7.07031V16.4844H3.55469V14.7266C3.55469 11.1726 6.44605 8.24219 10 8.24219C13.5539 8.24219 16.4844 11.1726 16.4844 14.7266V16.4844H18.8281V7.07031H1.17188Z" fill="#6B5E7A"/>
</g>
<defs>
<clipPath id="clip0_7858_8092">
<rect width="20" height="20" fill="white"/>
</clipPath>
</defs>
</svg>
