<svg width="20" height="20" viewBox="0 0 20 20" fill="none" xmlns="http://www.w3.org/2000/svg">
<path fill-rule="evenodd" clip-rule="evenodd" d="M0.00272083 15.4916C0.00166845 15.4737 0.000616074 15.4558 0.000616074 15.4379V2.93158C0.000616074 2.15368 0.31009 1.40842 0.859563 0.858947C1.41009 0.308421 2.15535 0 2.93325 0H3.38483C5.00377 0 6.31641 1.31263 6.31641 2.93158V14.3853C6.31641 14.4137 6.31535 14.4411 6.3122 14.4684C6.31535 14.5221 6.31641 14.5768 6.31641 14.6316C6.31641 15.5611 5.56272 16.3158 4.6322 16.3158C4.24483 16.3158 3.93114 16.0011 3.93114 15.6137C3.93114 15.2263 4.24483 14.9116 4.6322 14.9116C4.78799 14.9116 4.91325 14.7863 4.91325 14.6316C4.91325 13.9337 4.34798 13.3684 3.65009 13.3684C2.41009 13.3684 1.40483 14.3737 1.40483 15.6137C1.40483 17.2611 2.73956 18.5958 4.38693 18.5958C4.7743 18.5958 5.08904 18.9105 5.08904 19.2979C5.08904 19.6853 4.7743 20 4.38693 20C1.96483 20 0.000616074 18.0358 0.000616074 15.6137C0.000616074 15.5726 0.00166845 15.5326 0.00272083 15.4916Z" fill="#F1D15B"/>
<path fill-rule="evenodd" clip-rule="evenodd" d="M7.72335 3.83203H17.9026C19.0653 3.83203 20.0089 4.77411 20.0089 5.93674V17.8642C20.0089 19.0268 19.0653 19.9689 17.9026 19.9689H6.37456C6.45251 19.7491 6.49517 19.5132 6.49517 19.2673C6.49517 18.5511 6.13627 17.9187 5.58984 17.5384C6.82832 17.1365 7.72335 15.9739 7.72335 14.6015C7.72335 14.5538 7.72262 14.5062 7.72114 14.4585C7.72262 14.4247 7.72335 14.3901 7.72335 14.3563V3.83203Z" fill="#F2727F"/>
</svg>
