<svg width="15" height="20" viewBox="0 0 15 20" fill="none" xmlns="http://www.w3.org/2000/svg">
<path d="M14.4797 1.32222L9.48042 0.00981819C9.37301 -0.013005 9.26114 0.00316234 9.17744 0.0667339C9.08714 0.12384 9.03315 0.232262 9.03298 0.33458V1.30884H3.39257C3.19878 1.30884 3.04026 1.4595 3.04026 1.64364V4.67021C1.39669 5.28172 1.84156 7.63029 3.62865 7.64322C5.70212 7.59091 5.79949 4.75525 3.74484 4.56642C3.74487 4.56642 3.74487 1.97844 3.74487 1.97844H9.03298V18.0186H6.09475L5.92213 15.0255C5.90802 14.7711 5.79177 14.5367 5.59799 14.366L4.23456 13.1674L4.53404 10.9812L5.31968 11.6173C5.33026 11.6273 5.34434 11.634 5.35492 11.6407L7.03188 12.4442C7.86267 12.8265 8.49371 11.6646 7.68011 11.2456C7.68014 11.2457 6.34138 10.5761 6.34138 10.5761C6.12361 10.4598 5.94368 10.3362 5.827 10.1107C5.827 10.1107 7.52159 9.73571 7.52159 9.73571C8.36701 9.54635 8.13318 8.33173 7.26792 8.44675C7.26794 8.44675 4.82293 8.7849 4.82293 8.7849C4.40812 8.3707 3.96488 8.0613 3.41018 8.03495C2.66776 7.99077 1.99879 8.52354 1.91641 9.23352C1.73634 10.7491 1.32282 14.2131 1.14485 15.6951L0.0597354 18.1425C-0.276034 18.9254 0.892476 19.4917 1.35624 18.7552C1.35623 18.7552 2.79011 16.3915 2.79011 16.3915C2.86411 16.271 2.90638 16.1371 2.92047 15.9931L3.03321 14.5602L4.21343 15.4675L4.6362 18.4874C4.70987 19.151 5.75933 19.3053 6.04191 18.6882C6.04191 18.6882 9.03299 18.6882 9.03299 18.6882V19.6658C9.03266 19.8197 9.15521 19.9678 9.31485 19.9939C9.3667 20.0036 9.42776 20.0012 9.48043 19.9906C9.48043 19.9906 14.4797 18.6782 14.4797 18.6782C14.6312 18.638 14.7368 18.5041 14.7368 18.3534V1.64699C14.7368 1.49632 14.6311 1.36241 14.4797 1.32222ZM4.42482 10.489C4.43186 10.489 4.43891 10.4924 4.44596 10.4957C4.43612 10.4879 4.42984 10.4948 4.42482 10.489ZM11.1187 10.037C11.1124 10.4764 10.4228 10.4776 10.414 10.037V8.64429C10.4226 8.20446 11.1123 8.20421 11.1187 8.6443C11.1187 8.64429 11.1187 10.037 11.1187 10.037Z" fill="#F2727F"/>
</svg>
