<svg width="21" height="20" viewBox="0 0 21 20" fill="none" xmlns="http://www.w3.org/2000/svg">
<path d="M0.312523 0.454956H8.39238L9.7927 6.48107L8.04112 8.15649C9.07054 9.68997 10.4334 10.9932 12.0368 11.9775L13.7884 10.303L20.0884 11.6425V19.371H19.1467C15.5215 19.3764 11.9724 18.3764 8.92915 16.4922C6.68529 15.1031 4.7744 13.2753 3.32222 11.129C1.35231 8.21807 0.306881 4.82329 0.312523 1.35572V0.454956ZM2.22137 2.25648C2.37975 5.06685 3.30474 7.78855 4.90429 10.1508C6.21173 12.0829 7.93196 13.7283 9.95185 14.9789C12.4214 16.5089 15.2669 17.3937 18.205 17.5452V13.0873L14.3882 12.2766L12.341 14.2358L11.7166 13.8962C9.34607 12.6075 7.38349 10.7302 6.03623 8.46275L5.6812 7.86554L7.72942 5.90728L6.88188 2.25648H2.22137Z" fill="#315D80"/>
</svg>
