<svg width="24" height="20" viewBox="0 0 24 20" fill="none" xmlns="http://www.w3.org/2000/svg">
<path d="M0 2.21371C0 1.6266 0.243831 1.06353 0.677852 0.648381C1.11187 0.233229 1.70053 0 2.31433 0H20.829C21.4428 0 22.0315 0.233229 22.4655 0.648381C22.8995 1.06353 23.1433 1.6266 23.1433 2.21371V14.3891C23.1433 14.9762 22.8995 15.5393 22.4655 15.9544C22.0315 16.3696 21.4428 16.6028 20.829 16.6028H15.5222L12.3898 19.5991C12.1728 19.8066 11.8785 19.9232 11.5717 19.9232C11.2648 19.9232 10.9706 19.8066 10.7535 19.5991L7.6211 16.6028H2.31433C1.70053 16.6028 1.11187 16.3696 0.677852 15.9544C0.243831 15.5393 0 14.9762 0 14.3891V2.21371ZM20.829 2.21371H2.31433V14.3891H8.10017C8.40704 14.3892 8.70132 14.5058 8.91828 14.7134L11.5717 17.2514L14.225 14.7134C14.442 14.5058 14.7363 14.3892 15.0432 14.3891H20.829V2.21371Z" fill="#315D80"/>
<path d="M13.3072 8.30066C13.3072 8.741 13.1243 9.1633 12.7988 9.47466C12.4733 9.78602 12.0318 9.96095 11.5714 9.96095C11.1111 9.96095 10.6696 9.78602 10.3441 9.47466C10.0186 9.1633 9.8357 8.741 9.8357 8.30066C9.8357 7.86033 10.0186 7.43803 10.3441 7.12667C10.6696 6.8153 11.1111 6.64038 11.5714 6.64038C12.0318 6.64038 12.4733 6.8153 12.7988 7.12667C13.1243 7.43803 13.3072 7.86033 13.3072 8.30066ZM17.9359 8.30066C17.9359 8.741 17.753 9.1633 17.4275 9.47466C17.102 9.78602 16.6605 9.96095 16.2001 9.96095C15.7398 9.96095 15.2983 9.78602 14.9728 9.47466C14.6472 9.1633 14.4644 8.741 14.4644 8.30066C14.4644 7.86033 14.6472 7.43803 14.9728 7.12667C15.2983 6.8153 15.7398 6.64038 16.2001 6.64038C16.6605 6.64038 17.102 6.8153 17.4275 7.12667C17.753 7.43803 17.9359 7.86033 17.9359 8.30066ZM8.67853 8.30066C8.67853 8.741 8.49566 9.1633 8.17014 9.47466C7.84463 9.78602 7.40313 9.96095 6.94278 9.96095C6.48243 9.96095 6.04094 9.78602 5.71542 9.47466C5.3899 9.1633 5.20703 8.741 5.20703 8.30066C5.20703 7.86033 5.3899 7.43803 5.71542 7.12667C6.04094 6.8153 6.48243 6.64038 6.94278 6.64038C7.40313 6.64038 7.84463 6.8153 8.17014 7.12667C8.49566 7.43803 8.67853 7.86033 8.67853 8.30066Z" fill="#315D80"/>
</svg>
