<svg width="30" height="30" viewBox="0 0 30 30" fill="none" xmlns="http://www.w3.org/2000/svg">
<circle cx="15" cy="15" r="12" fill="#F2727F"/>
<circle cx="15" cy="15" r="13.5" stroke="#F2727F" stroke-opacity="0.16" stroke-width="3"/>
<g clip-path="url(#clip0_6764_43418)">
<path d="M21.6673 11.3888V15.0155C21.2157 14.4799 20.6468 14.0483 20.0007 13.7555V13.3333H10.0007V19.9999H13.7562C14.049 20.646 14.4807 21.2149 15.0162 21.6666H8.33398V11.3888C8.33398 10.3166 9.20621 9.44436 10.2784 9.44436H11.6673V8.33325H13.334V9.44436H16.6673V8.33325H18.334V9.44436H19.7229C20.7951 9.44436 21.6673 10.3166 21.6673 11.3888ZM21.6673 18.0555C21.6673 20.0499 20.0507 21.6666 18.0562 21.6666C16.0618 21.6666 14.4451 20.0499 14.4451 18.0555C14.4451 16.061 16.0618 14.4444 18.0562 14.4444C20.0507 14.4444 21.6673 16.061 21.6673 18.0555ZM19.9473 18.7683L18.8895 17.7105V16.111H17.2229V18.4005L18.769 19.9466L19.9473 18.7683Z" fill="white"/>
</g>
<defs>
<clipPath id="clip0_6764_43418">
<rect width="13.3333" height="13.3333" fill="white" transform="translate(8.33398 8.33325)"/>
</clipPath>
</defs>
</svg>
