<svg width="23" height="23" viewBox="0 0 23 23" fill="none" xmlns="http://www.w3.org/2000/svg">
<path d="M11.4999 10.084C10.509 10.084 9.70312 10.8899 9.70312 11.8808V12.5995C9.70312 13.5929 10.5113 14.3963 11.4999 14.3963C12.4909 14.3963 13.2967 13.5904 13.2967 12.5995V11.8808C13.2967 10.8899 12.4909 10.084 11.4999 10.084Z" fill="#695F7E"/>
<path d="M22.731 9.52358L11.9502 0.853993C11.6869 0.642419 11.3123 0.642419 11.0491 0.853993L0.268253 9.52358C-0.0407972 9.77243 -0.0902093 10.2248 0.158648 10.5343C0.407506 10.8433 0.859851 10.8927 1.16935 10.6439C8.02834 5.12832 -8.59157 18.493 11.4996 2.33636C13.1117 3.63271 21.1575 10.1031 21.8299 10.6439C21.9629 10.7508 22.1219 10.8025 22.28 10.8025C22.9546 10.8025 23.2605 9.95 22.731 9.52358Z" fill="#695F7E"/>
<path d="M11.3592 4.29353C10.278 5.16296 3.43698 10.6646 2.59927 11.3383C2.54626 11.3809 2.51562 11.4451 2.51562 11.5131V21.5831C2.51562 21.9801 2.83739 22.3018 3.23435 22.3018H19.765C20.1619 22.3018 20.4837 21.9801 20.4837 21.5831V11.5131C20.4837 11.4451 20.4525 11.3805 20.3995 11.3379C18.9071 10.1374 19.825 10.8756 11.6406 4.29394C11.5584 4.22781 11.4414 4.22741 11.3592 4.29353ZM14.8437 20.8643C14.7299 20.8643 14.634 20.7792 14.6207 20.6661L14.3503 18.3776C14.1796 16.9307 12.9551 15.8391 11.4997 15.8333C9.99487 15.8333 8.784 16.954 8.62386 18.3969L8.37204 20.6645C8.35942 20.7783 8.26324 20.8643 8.14883 20.8643H7.15435C7.02048 20.8643 6.91636 20.748 6.93114 20.6149L7.195 18.2383C7.34054 16.9299 8.05747 15.8137 9.08137 15.1269C9.19664 15.0496 9.21366 14.8888 9.11974 14.7867C8.58972 14.2105 8.26549 13.4418 8.26549 12.599V11.9216C8.26549 10.1411 9.68726 8.66359 11.4677 8.64625C13.2656 8.62873 14.734 10.0863 14.734 11.8804V12.5991C14.734 13.4468 14.4061 14.2196 13.8706 14.797C13.7762 14.8988 13.7928 15.0597 13.9077 15.1375C14.9162 15.82 15.6259 16.9208 15.7779 18.2092L16.0618 20.6135C16.0776 20.7471 15.9732 20.8644 15.8388 20.8644H14.8437V20.8643Z" fill="#695F7E"/>
</svg>
