<svg width="12" height="11" viewBox="0 0 12 11" fill="none" xmlns="http://www.w3.org/2000/svg">
<path fill-rule="evenodd" clip-rule="evenodd" d="M3.74012 0.208455C4.02809 0.0712261 4.34306 -2.86102e-06 4.66208 -2.86102e-06H9.24446C10.3001 -2.86102e-06 11.1985 0.768855 11.3616 1.81183L11.898 5.24323C12.0605 6.28294 11.2567 7.2223 10.2043 7.2223H7.38968V9.24312C7.38968 10.0125 6.76598 10.6362 5.9966 10.6362C5.49235 10.6362 5.02745 10.3637 4.7811 9.9237L3.00052 6.74364C2.89306 6.55172 2.83664 6.33545 2.83664 6.11551V1.45054C2.83664 0.954855 3.12165 0.503226 3.56918 0.289969L3.74012 0.208455ZM0.854021 6.58657C0.62752 6.58657 0.410297 6.4966 0.250137 6.33643C0.0899775 6.17628 0 5.95905 0 5.73255L4.27876e-07 1.35034C4.27876e-07 1.1238 0.0899775 0.906597 0.250137 0.746397C0.410296 0.586283 0.627519 0.496284 0.854021 0.496284L1.27965 0.496455C1.51628 0.496541 1.70804 0.688456 1.70804 0.925027V6.15818C1.70804 6.27188 1.66286 6.38092 1.58245 6.46129C1.50203 6.54168 1.39298 6.58681 1.27928 6.58675L0.854021 6.58657Z" fill="#F2727F"/>
</svg>
