<svg width="19" height="22" viewBox="0 0 19 22" fill="none" xmlns="http://www.w3.org/2000/svg">
<path d="M10.0857 13.7622V15.5622C10.0857 15.9672 9.75844 16.2372 9.4039 16.2372C9.27662 16.2372 9.01299 16.2372 8.72208 16.2372V13.0872C9.01299 13.0872 9.27662 13.0872 9.4039 13.0872C9.75844 13.0872 10.0857 13.3572 10.0857 13.7622ZM4.83117 13.0242H4.18572V14.3472H4.83117C5.2039 14.3472 5.52208 14.0412 5.52208 13.6902C5.52208 13.3392 5.2039 13.0332 4.83117 13.0332V13.0242ZM13.9494 0.730219V4.69922H17.9584L13.9494 0.730219ZM18.4948 6.49922V21.7992H0.312988V2.89922C0.312988 1.40522 1.53117 0.199219 3.04026 0.199219H12.1312V6.49922H18.4948ZM6.65844 13.6812C6.65844 12.7002 5.84026 11.8992 4.83117 11.8992H3.04026V17.3622H4.17662V15.4722H4.83117C5.84026 15.4722 6.65844 14.6712 6.65844 13.6812ZM11.2221 13.7442C11.2221 12.7632 10.413 11.9622 9.4039 11.9622C9.15844 11.9622 8.93117 11.9622 8.72208 11.9622H7.58572V17.3622H8.72208C8.93117 17.3622 9.15844 17.3622 9.4039 17.3622C10.413 17.3622 11.2221 16.5612 11.2221 15.5802V13.7532V13.7442ZM15.7675 11.8992H12.1312V17.3622H13.2675V15.4722H14.8584V14.3472H13.2766V13.0242H15.7766V11.8992H15.7675Z" fill="#315D80"/>
</svg>
