<svg width="16" height="17" viewBox="0 0 16 17" fill="none" xmlns="http://www.w3.org/2000/svg">
<path d="M4.00267 9.3517C3.88479 9.3517 3.77175 9.39648 3.6884 9.47618C3.60505 9.55588 3.55822 9.66398 3.55822 9.7767V12.3267C3.55822 12.4394 3.60505 12.5475 3.6884 12.6272C3.77175 12.7069 3.88479 12.7517 4.00267 12.7517C4.12054 12.7517 4.23359 12.7069 4.31694 12.6272C4.40029 12.5475 4.44711 12.4394 4.44711 12.3267V11.9017H4.88889C5.24251 11.9017 5.58165 11.7674 5.8317 11.5283C6.08175 11.2892 6.22222 10.9649 6.22222 10.6267C6.22222 10.2885 6.08175 9.96425 5.8317 9.72514C5.58165 9.48603 5.24251 9.3517 4.88889 9.3517H4.00267ZM4.88889 11.0517H4.44711V10.2017H4.88889C5.00676 10.2017 5.11981 10.2465 5.20316 10.3262C5.28651 10.4059 5.33333 10.514 5.33333 10.6267C5.33333 10.7394 5.28651 10.8475 5.20316 10.9272C5.11981 11.0069 5.00676 11.0517 4.88889 11.0517ZM10.6649 9.7767C10.6649 9.66398 10.7117 9.55588 10.7951 9.47618C10.8784 9.39648 10.9915 9.3517 11.1093 9.3517H12.4471C12.565 9.3517 12.678 9.39648 12.7614 9.47618C12.8447 9.55588 12.8916 9.66398 12.8916 9.7767C12.8916 9.88942 12.8447 9.99752 12.7614 10.0772C12.678 10.1569 12.565 10.2017 12.4471 10.2017H11.5529L11.552 11.0534H12.4471C12.565 11.0534 12.678 11.0982 12.7614 11.1779C12.8447 11.2576 12.8916 11.3657 12.8916 11.4784C12.8916 11.5911 12.8447 11.6992 12.7614 11.7789C12.678 11.8586 12.565 11.9034 12.4471 11.9034H11.552L11.5538 12.3258C11.5539 12.3817 11.5425 12.4369 11.5203 12.4886C11.4981 12.5402 11.4654 12.5871 11.4242 12.6266C11.341 12.7065 11.2281 12.7515 11.1102 12.7517C10.9923 12.7519 10.8792 12.7074 10.7957 12.6278C10.7122 12.5483 10.6651 12.4403 10.6649 12.3276L10.6622 11.4792V11.4776L10.6649 9.7767ZM7.55556 9.3517H7.99822C8.46972 9.3517 8.9219 9.53081 9.2553 9.84962C9.5887 10.1684 9.776 10.6008 9.776 11.0517C9.776 11.5026 9.5887 11.935 9.2553 12.2538C8.9219 12.5726 8.46972 12.7517 7.99822 12.7517H7.55556C7.43768 12.7517 7.32464 12.7069 7.24129 12.6272C7.15794 12.5475 7.11111 12.4394 7.11111 12.3267V9.7767C7.11111 9.66398 7.15794 9.55588 7.24129 9.47618C7.32464 9.39648 7.43768 9.3517 7.55556 9.3517ZM8 11.9017C8.23575 11.9017 8.46184 11.8121 8.62854 11.6527C8.79524 11.4933 8.88889 11.2771 8.88889 11.0517C8.88889 10.8263 8.79524 10.6101 8.62854 10.4507C8.46184 10.2913 8.23575 10.2017 8 10.2017V11.9017ZM8 5.1V0H2.66667C2.19517 0 1.74299 0.179107 1.40959 0.497918C1.07619 0.81673 0.888889 1.24913 0.888889 1.7V7.3678C0.363556 7.60665 0 8.1192 0 8.7125V13.3875C0 13.9808 0.363556 14.4925 0.888889 14.7322V15.3C0.888889 15.7509 1.07619 16.1833 1.40959 16.5021C1.74299 16.8209 2.19517 17 2.66667 17H13.3333C13.8048 17 14.257 16.8209 14.5904 16.5021C14.9238 16.1833 15.1111 15.7509 15.1111 15.3V14.7322C15.6364 14.4934 16 13.9808 16 13.3875V8.7125C16 8.1192 15.6364 7.6075 15.1111 7.3678V6.8H9.77778C9.30628 6.8 8.8541 6.62089 8.5207 6.30208C8.1873 5.98327 8 5.55087 8 5.1ZM1.55556 8.5H14.4444C14.5034 8.5 14.5599 8.52239 14.6016 8.56224C14.6433 8.60209 14.6667 8.65614 14.6667 8.7125V13.3875C14.6667 13.4439 14.6433 13.4979 14.6016 13.5378C14.5599 13.5776 14.5034 13.6 14.4444 13.6H1.55556C1.49662 13.6 1.4401 13.5776 1.39842 13.5378C1.35675 13.4979 1.33333 13.4439 1.33333 13.3875V8.7125C1.33333 8.65614 1.35675 8.60209 1.39842 8.56224C1.4401 8.52239 1.49662 8.5 1.55556 8.5ZM9.33333 5.1V0.425L14.6667 5.525H9.77778C9.6599 5.525 9.54686 5.48022 9.46351 5.40052C9.38016 5.32082 9.33333 5.21272 9.33333 5.1Z" fill="#92A3B4"/>
</svg>
