<svg width="10" height="11" viewBox="0 0 10 11" fill="none" xmlns="http://www.w3.org/2000/svg">
<path d="M0.4 5.05371C0.4 2.5132 2.45949 0.453711 5 0.453711C7.54051 0.453711 9.6 2.5132 9.6 5.05371C9.6 7.59422 7.54051 9.65371 5 9.65371C2.45949 9.65371 0.4 7.59422 0.4 5.05371Z" stroke="#C9D7E5" stroke-width="0.8"/>
<path d="M6.03906 5.92871C6.00781 6.02767 5.99089 6.18132 5.98828 6.38965H4.93359C4.94922 5.94954 4.99089 5.64616 5.05859 5.47949C5.1263 5.31022 5.30078 5.11621 5.58203 4.89746L5.86719 4.6748C5.96094 4.60449 6.03646 4.52767 6.09375 4.44434C6.19792 4.30111 6.25 4.14355 6.25 3.97168C6.25 3.77376 6.19141 3.59408 6.07422 3.43262C5.95964 3.26855 5.7487 3.18652 5.44141 3.18652C5.13932 3.18652 4.92448 3.28678 4.79688 3.4873C4.67188 3.68783 4.60938 3.89616 4.60938 4.1123H3.48047C3.51172 3.37012 3.77083 2.84408 4.25781 2.53418C4.5651 2.33626 4.94271 2.2373 5.39062 2.2373C5.97917 2.2373 6.46745 2.37793 6.85547 2.65918C7.24609 2.94043 7.44141 3.3571 7.44141 3.90918C7.44141 4.24772 7.35677 4.53288 7.1875 4.76465C7.08854 4.90527 6.89844 5.08496 6.61719 5.30371L6.33984 5.51855C6.1888 5.63574 6.08854 5.77246 6.03906 5.92871ZM6.07031 8.05371H4.90625V6.9248H6.07031V8.05371Z" fill="#C9D7E5"/>
</svg>
