<svg width="30" height="30" viewBox="0 0 30 30" fill="none" xmlns="http://www.w3.org/2000/svg">
<circle cx="15" cy="15" r="12" fill="white"/>
<circle cx="15" cy="15" r="13.5" stroke="#F8B195" stroke-opacity="0.16" stroke-width="3"/>
<g clip-path="url(#clip0_7158_2946)">
<path d="M22 10.2083V14.0163C21.5257 13.454 20.9284 13.0008 20.25 12.6933V12.25H9.75V19.25H13.6933C14.0008 19.9284 14.454 20.5257 15.0163 21H8V10.2083C8 9.0825 8.91583 8.16667 10.0417 8.16667H11.5V7H13.25V8.16667H16.75V7H18.5V8.16667H19.9583C21.0842 8.16667 22 9.0825 22 10.2083ZM22 17.2083C22 19.3025 20.3025 21 18.2083 21C16.1142 21 14.4167 19.3025 14.4167 17.2083C14.4167 15.1142 16.1142 13.4167 18.2083 13.4167C20.3025 13.4167 22 15.1142 22 17.2083ZM20.194 17.9567L19.0833 16.8461V15.1667H17.3333V17.5706L18.9567 19.194L20.194 17.9567Z" fill="#F8B195"/>
</g>
<defs>
<clipPath id="clip0_7158_2946">
<rect width="14" height="14" fill="white" transform="translate(8 7)"/>
</clipPath>
</defs>
</svg>
