<svg width="224" height="90" viewBox="0 0 224 90" fill="none" xmlns="http://www.w3.org/2000/svg">
<path d="M224 75C224 83.0081 217.508 89.5 209.5 89.5L14.5 89.5C6.49187 89.5 5.67537e-07 83.0081 1.26763e-06 75L-2.51232e-05 27.7957C-2.44231e-05 19.7876 6.49186 13.2957 14.5 13.2957L167.042 13.2957C172.866 13.2957 178.74 11.648 182.817 7.48895C182.908 7.39674 182.997 7.30465 183.086 7.21268C191.302 -1.31191 193.623 -1.37768 201.491 7.46897C202.511 8.61539 203.656 9.75998 204.944 10.8824C206.852 12.5438 209.36 13.2957 211.89 13.2957C218.578 13.2957 224 18.7177 224 25.4061L224 27.7957L224 75Z" fill="white"/>
</svg>
