<svg width="65" height="65" viewBox="0 0 65 65" fill="none" xmlns="http://www.w3.org/2000/svg">
<rect width="65" height="65" rx="32.5" fill="#EDF2FA"/>
<path d="M44.5153 31.2341L35.8486 22.5674C35.6971 22.416 35.5041 22.3128 35.294 22.271C35.0839 22.2293 34.8661 22.2507 34.6681 22.3327C34.4702 22.4147 34.301 22.5535 34.182 22.7316C34.063 22.9097 33.9994 23.1191 33.9993 23.3333V27.1738C31.04 27.4476 28.2893 28.8159 26.2857 31.011C24.282 33.206 23.1696 36.0697 23.166 39.0417V40.6667C23.1662 40.8916 23.2363 41.1108 23.3667 41.294C23.4971 41.4772 23.6813 41.6153 23.8937 41.6892C24.1061 41.763 24.3363 41.7689 24.5522 41.706C24.7681 41.6431 24.9591 41.5147 25.0987 41.3383C26.1602 40.0764 27.4625 39.0386 28.9295 38.2854C30.3965 37.5323 31.9988 37.079 33.6429 36.9519C33.6971 36.9454 33.8325 36.9346 33.9993 36.9238V40.6667C33.9994 40.8809 34.063 41.0903 34.182 41.2684C34.301 41.4465 34.4702 41.5854 34.6681 41.6673C34.8661 41.7493 35.0839 41.7708 35.294 41.729C35.5041 41.6872 35.6971 41.5841 35.8486 41.4326L44.5153 32.7659C44.7184 32.5628 44.8325 32.2873 44.8325 32C44.8325 31.7128 44.7184 31.4373 44.5153 31.2341ZM36.166 38.0515V35.7917C36.166 35.5044 36.0519 35.2288 35.8487 35.0256C35.6456 34.8225 35.37 34.7083 35.0827 34.7083C34.8064 34.7083 33.6787 34.7625 33.3905 34.8004C30.4707 35.0691 27.6914 36.1785 25.389 37.9941C25.6504 35.6047 26.7839 33.3957 28.5724 31.79C30.361 30.1843 32.6791 29.2948 35.0827 29.2917C35.37 29.2917 35.6456 29.1775 35.8487 28.9744C36.0519 28.7712 36.166 28.4957 36.166 28.2083V25.9485L42.2175 32L36.166 38.0515Z" fill="#315D80"/>
</svg>
