<svg width="20" height="20" viewBox="0 0 20 20" fill="none" xmlns="http://www.w3.org/2000/svg">
<path d="M10 15.8262C13.2172 15.8262 15.8252 13.2181 15.8252 10.001C15.8252 6.78381 13.2172 4.17578 10 4.17578C6.78283 4.17578 4.1748 6.78381 4.1748 10.001C4.1748 13.2181 6.78283 15.8262 10 15.8262Z" fill="#F1D15B"/>
<path d="M9.41406 0H10.5859V3.13977H9.41406V0Z" fill="#EA4B62"/>
<path d="M1.04688 5.50781L1.63281 4.49297L4.35185 6.06285L3.76591 7.0777L1.04688 5.50781Z" fill="#EA4B62"/>
<path d="M1.04688 14.4922L3.76591 12.9223L4.35185 13.9371L1.63281 15.507L1.04688 14.4922Z" fill="#EA4B62"/>
<path d="M9.41406 16.8594H10.5859V19.9991H9.41406V16.8594Z" fill="#EA4B62"/>
<path d="M15.6475 13.9375L16.2334 12.9227L18.9524 14.4925L18.3665 15.5074L15.6475 13.9375Z" fill="#EA4B62"/>
<path d="M15.6475 6.0625L18.3665 4.49262L18.9524 5.50746L16.2334 7.07734L15.6475 6.0625Z" fill="#EA4B62"/>
<path d="M4.58301 1.78906L5.59785 1.20312L6.60137 2.94121L5.58652 3.52715L4.58301 1.78906Z" fill="#EA4B62"/>
<path d="M0.180664 9.41406H2.1877V10.5859H0.180664V9.41406Z" fill="#EA4B62"/>
<path d="M4.58203 18.2109L5.58555 16.4728L6.60039 17.0588L5.59687 18.7969L4.58203 18.2109Z" fill="#EA4B62"/>
<path d="M13.3984 17.0586L14.4133 16.4727L15.4168 18.2107L14.402 18.7967L13.3984 17.0586Z" fill="#EA4B62"/>
<path d="M17.8115 9.41406H19.8186V10.5859H17.8115V9.41406Z" fill="#EA4B62"/>
<path d="M13.3984 2.94141L14.402 1.20332L15.4168 1.78925L14.4133 3.52734L13.3984 2.94141Z" fill="#EA4B62"/>
</svg>
