<svg width="21" height="22" viewBox="0 0 21 22" fill="none" xmlns="http://www.w3.org/2000/svg">
<path d="M8.39722 2.85594C8.18416 3.03751 8.07762 3.1283 7.96384 3.20456C7.703 3.37939 7.41006 3.50073 7.102 3.56155C6.96761 3.58809 6.82806 3.59922 6.54898 3.62148C5.84777 3.67744 5.49716 3.70542 5.20466 3.80874C4.52811 4.04771 3.99595 4.57986 3.75698 5.25641C3.65366 5.54892 3.62569 5.89952 3.56974 6.60073C3.54747 6.87981 3.53633 7.01936 3.50979 7.15375C3.44897 7.46182 3.32763 7.75476 3.15281 8.01559C3.07654 8.12938 2.98574 8.23593 2.80415 8.44901C2.34789 8.98442 2.11975 9.25209 1.98598 9.53201C1.67655 10.1794 1.67655 10.9319 1.98598 11.5793C2.11975 11.8592 2.34788 12.1269 2.80414 12.6623C2.9857 12.8754 3.07655 12.982 3.15281 13.0957C3.32763 13.3565 3.44897 13.6495 3.50979 13.9576C3.53633 14.092 3.54746 14.2315 3.56973 14.5106C3.62568 15.2118 3.65366 15.5624 3.75698 15.8549C3.99595 16.5315 4.52811 17.0637 5.20466 17.3026C5.49715 17.4059 5.84774 17.4339 6.54891 17.4899C6.82799 17.5121 6.96761 17.5233 7.102 17.5498C7.41006 17.6106 7.703 17.732 7.96384 17.9068C8.07763 17.983 8.18417 18.0738 8.39726 18.2554C8.93267 18.7117 9.20033 18.9398 9.48025 19.0736C10.1277 19.383 10.8802 19.383 11.5276 19.0736C11.8075 18.9398 12.0751 18.7117 12.6106 18.2554C12.8236 18.0738 12.9302 17.983 13.0439 17.9068C13.3048 17.732 13.5977 17.6106 13.9058 17.5498C14.0402 17.5233 14.1798 17.5121 14.4588 17.4899C15.16 17.4339 15.5107 17.4059 15.8032 17.3026C16.4797 17.0637 17.0119 16.5315 17.2509 15.8549C17.3541 15.5624 17.3821 15.2118 17.4381 14.5107C17.4603 14.2316 17.4715 14.092 17.498 13.9576C17.5589 13.6495 17.6802 13.3565 17.855 13.0957C17.9313 12.982 18.0221 12.8754 18.2036 12.6623C18.66 12.1269 18.8881 11.8592 19.0219 11.5793C19.3313 10.9319 19.3313 10.1794 19.0219 9.53201C18.8881 9.25209 18.66 8.98443 18.2036 8.44902C18.0221 8.23593 17.9313 8.12939 17.855 8.01559C17.6802 7.75476 17.5589 7.46182 17.498 7.15375C17.4715 7.01936 17.4603 6.87982 17.4381 6.60074C17.3821 5.89957 17.3541 5.54891 17.2509 5.25641C17.0119 4.57986 16.4797 4.04771 15.8032 3.80874C15.5107 3.70542 15.16 3.67745 14.4588 3.62149C14.1798 3.59922 14.0402 3.58809 13.9058 3.56155C13.5977 3.50073 13.3048 3.37939 13.0439 3.20456C12.9302 3.1283 12.8236 3.0375 12.6106 2.8559C12.0751 2.39964 11.8075 2.17151 11.5276 2.03773C10.8802 1.72831 10.1277 1.72831 9.48025 2.03773C9.20033 2.1715 8.93264 2.39968 8.39722 2.85594Z" fill="#9BB997"/>
<path d="M14.4312 8.7905L14.4312 8.79049C14.7678 8.45381 14.7678 7.90795 14.4312 7.57127L14.4312 7.57126C14.0945 7.23459 13.5486 7.23457 13.2119 7.57127L9.07399 11.7092L7.78464 10.4197L7.78463 10.4197C7.44795 10.0831 6.90208 10.0831 6.56541 10.4197L6.56539 10.4197C6.22874 10.7565 6.22871 11.3023 6.5654 11.639C6.5654 11.639 6.5654 11.639 6.56541 11.639L8.4644 13.538L8.46441 13.538C8.8011 13.8746 9.34696 13.8747 9.68362 13.538L14.4312 8.7905Z" fill="white" stroke="white" stroke-width="0.3"/>
</svg>
