<svg width="79" height="21" viewBox="0 0 79 21" fill="none" xmlns="http://www.w3.org/2000/svg">
<path d="M29.0312 4.48438H31.5312L27.6016 16H25.3281L21.4375 4.48438H24.0078L26.5078 13.2266L29.0312 4.48438ZM35.2656 9.09375C34.75 9.09375 34.349 9.25521 34.0625 9.57812C33.7812 9.90104 33.6042 10.3385 33.5312 10.8906H36.9922C36.9557 10.3021 36.776 9.85677 36.4531 9.55469C36.1354 9.2474 35.7396 9.09375 35.2656 9.09375ZM35.2656 7.25781C35.974 7.25781 36.612 7.39062 37.1797 7.65625C37.7474 7.92188 38.2161 8.34115 38.5859 8.91406C38.9193 9.41927 39.1354 10.0052 39.2344 10.6719C39.2917 11.0625 39.3151 11.625 39.3047 12.3594H33.4766C33.5078 13.2135 33.776 13.8125 34.2812 14.1562C34.5885 14.3698 34.9583 14.4766 35.3906 14.4766C35.849 14.4766 36.2214 14.3464 36.5078 14.0859C36.6641 13.9453 36.8021 13.75 36.9219 13.5H39.1953C39.138 14.0052 38.875 14.5182 38.4062 15.0391C37.6771 15.8672 36.6562 16.2812 35.3438 16.2812C34.2604 16.2812 33.3047 15.9323 32.4766 15.2344C31.6484 14.5365 31.2344 13.401 31.2344 11.8281C31.2344 10.3542 31.6068 9.22396 32.3516 8.4375C33.1016 7.65104 34.0729 7.25781 35.2656 7.25781ZM45.4375 7.28125C45.4792 7.28125 45.513 7.28385 45.5391 7.28906C45.5703 7.28906 45.6354 7.29167 45.7344 7.29688V9.57812C45.5938 9.5625 45.4688 9.55208 45.3594 9.54688C45.25 9.54167 45.1615 9.53906 45.0938 9.53906C44.1979 9.53906 43.5964 9.83073 43.2891 10.4141C43.1172 10.7422 43.0312 11.2474 43.0312 11.9297V16H40.7891V7.48438H42.9141V8.96875C43.2578 8.40104 43.5573 8.01302 43.8125 7.80469C44.2292 7.45573 44.7708 7.28125 45.4375 7.28125ZM49.3359 6.46875H47.0781V4.41406H49.3359V6.46875ZM47.0781 7.48438H49.3359V16H47.0781V7.48438ZM56.9219 4.41406H59.1016V6.44531H56.9219V4.41406ZM56.9219 7.52344H59.1406V16H56.9219V7.52344ZM54.6953 4.36719C54.8307 4.36719 54.9688 4.3724 55.1094 4.38281C55.25 4.39323 55.3958 4.40365 55.5469 4.41406V6.22656C55.4427 6.22135 55.3411 6.21875 55.2422 6.21875C55.1432 6.21354 55.0234 6.21094 54.8828 6.21094C54.5339 6.21094 54.3203 6.30729 54.2422 6.5C54.1641 6.69271 54.1302 6.99479 54.1406 7.40625V7.5625H55.6016V9.13281H54.1406V16H51.9219V9.13281H50.6797V7.5625H51.8984V7.01562C51.8984 6.10938 52.099 5.4349 52.5 4.99219C52.8594 4.57552 53.5911 4.36719 54.6953 4.36719ZM64.6406 9.09375C64.125 9.09375 63.724 9.25521 63.4375 9.57812C63.1562 9.90104 62.9792 10.3385 62.9062 10.8906H66.3672C66.3307 10.3021 66.151 9.85677 65.8281 9.55469C65.5104 9.2474 65.1146 9.09375 64.6406 9.09375ZM64.6406 7.25781C65.349 7.25781 65.987 7.39062 66.5547 7.65625C67.1224 7.92188 67.5911 8.34115 67.9609 8.91406C68.2943 9.41927 68.5104 10.0052 68.6094 10.6719C68.6667 11.0625 68.6901 11.625 68.6797 12.3594H62.8516C62.8828 13.2135 63.151 13.8125 63.6562 14.1562C63.9635 14.3698 64.3333 14.4766 64.7656 14.4766C65.224 14.4766 65.5964 14.3464 65.8828 14.0859C66.0391 13.9453 66.1771 13.75 66.2969 13.5H68.5703C68.513 14.0052 68.25 14.5182 67.7812 15.0391C67.0521 15.8672 66.0312 16.2812 64.7188 16.2812C63.6354 16.2812 62.6797 15.9323 61.8516 15.2344C61.0234 14.5365 60.6094 13.401 60.6094 11.8281C60.6094 10.3542 60.9818 9.22396 61.7266 8.4375C62.4766 7.65104 63.4479 7.25781 64.6406 7.25781ZM73.3281 7.28125C73.8438 7.28125 74.3021 7.39583 74.7031 7.625C75.1042 7.84896 75.4297 8.16146 75.6797 8.5625V4.5H77.9375V16H75.7734V14.8203C75.4557 15.3255 75.0938 15.6927 74.6875 15.9219C74.2812 16.151 73.776 16.2656 73.1719 16.2656C72.1771 16.2656 71.3385 15.8646 70.6562 15.0625C69.9792 14.2552 69.6406 13.2214 69.6406 11.9609C69.6406 10.5078 69.974 9.36458 70.6406 8.53125C71.3125 7.69792 72.2083 7.28125 73.3281 7.28125ZM73.8125 14.3906C74.4427 14.3906 74.9219 14.1562 75.25 13.6875C75.5781 13.2188 75.7422 12.612 75.7422 11.8672C75.7422 10.8255 75.4792 10.0807 74.9531 9.63281C74.6302 9.36198 74.2552 9.22656 73.8281 9.22656C73.1771 9.22656 72.6979 9.47396 72.3906 9.96875C72.0885 10.4583 71.9375 11.0677 71.9375 11.7969C71.9375 12.5833 72.0911 13.2135 72.3984 13.6875C72.7109 14.1562 73.1823 14.3906 73.8125 14.3906Z" fill="#9BB997"/>
<path d="M8.39722 2.80223C8.18416 2.9838 8.07762 3.07459 7.96384 3.15085C7.703 3.32568 7.41006 3.44701 7.102 3.50784C6.96761 3.53437 6.82806 3.5455 6.54898 3.56777C5.84777 3.62373 5.49716 3.65171 5.20466 3.75503C4.52811 3.99399 3.99595 4.52615 3.75698 5.2027C3.65366 5.49521 3.62569 5.84581 3.56974 6.54702C3.54747 6.8261 3.53633 6.96565 3.50979 7.10004C3.44897 7.4081 3.32763 7.70105 3.15281 7.96188C3.07654 8.07567 2.98574 8.18222 2.80415 8.3953C2.34789 8.93071 2.11975 9.19838 1.98598 9.47829C1.67655 10.1257 1.67655 10.8782 1.98598 11.5256C2.11975 11.8055 2.34788 12.0732 2.80414 12.6086C2.9857 12.8217 3.07655 12.9282 3.15281 13.042C3.32763 13.3028 3.44897 13.5958 3.50979 13.9039C3.53633 14.0383 3.54746 14.1778 3.56973 14.4569C3.62568 15.1581 3.65366 15.5087 3.75698 15.8012C3.99595 16.4778 4.52811 17.0099 5.20466 17.2489C5.49715 17.3522 5.84774 17.3802 6.54891 17.4362C6.82799 17.4584 6.96761 17.4696 7.102 17.4961C7.41006 17.5569 7.703 17.6783 7.96384 17.8531C8.07763 17.9293 8.18417 18.0201 8.39726 18.2017C8.93267 18.658 9.20033 18.8861 9.48025 19.0199C10.1277 19.3293 10.8802 19.3293 11.5276 19.0199C11.8075 18.8861 12.0751 18.658 12.6106 18.2017C12.8236 18.0201 12.9302 17.9293 13.0439 17.8531C13.3048 17.6783 13.5977 17.5569 13.9058 17.4961C14.0402 17.4696 14.1798 17.4584 14.4588 17.4362C15.16 17.3802 15.5107 17.3522 15.8032 17.2489C16.4797 17.0099 17.0119 16.4778 17.2509 15.8012C17.3541 15.5087 17.3821 15.1581 17.4381 14.457C17.4603 14.1779 17.4715 14.0383 17.498 13.9039C17.5589 13.5958 17.6802 13.3028 17.855 13.042C17.9313 12.9282 18.0221 12.8217 18.2036 12.6086C18.66 12.0732 18.8881 11.8055 19.0219 11.5256C19.3313 10.8782 19.3313 10.1257 19.0219 9.47829C18.8881 9.19838 18.66 8.93072 18.2036 8.39531C18.0221 8.18222 17.9313 8.07568 17.855 7.96188C17.6802 7.70105 17.5589 7.4081 17.498 7.10004C17.4715 6.96565 17.4603 6.82611 17.4381 6.54703C17.3821 5.84586 17.3541 5.4952 17.2509 5.2027C17.0119 4.52615 16.4797 3.99399 15.8032 3.75503C15.5107 3.65171 15.16 3.62374 14.4588 3.56778C14.1798 3.54551 14.0402 3.53437 13.9058 3.50784C13.5977 3.44701 13.3048 3.32568 13.0439 3.15085C12.9302 3.07459 12.8236 2.98379 12.6106 2.80219C12.0751 2.34593 11.8075 2.1178 11.5276 1.98402C10.8802 1.6746 10.1277 1.6746 9.48025 1.98402C9.20033 2.11779 8.93264 2.34597 8.39722 2.80223Z" fill="#9BB997"/>
<path d="M14.4312 8.73679L14.4312 8.73678C14.7678 8.4001 14.7678 7.85424 14.4312 7.51756L14.4312 7.51755C14.0945 7.18088 13.5486 7.18086 13.2119 7.51756L9.07399 11.6555L7.78464 10.366L7.78463 10.366C7.44795 10.0294 6.90208 10.0294 6.56541 10.366L6.56539 10.366C6.22874 10.7028 6.22871 11.2486 6.5654 11.5853C6.5654 11.5853 6.5654 11.5853 6.56541 11.5853L8.4644 13.4843L8.46441 13.4843C8.8011 13.8209 9.34696 13.821 9.68362 13.4843L14.4312 8.73679Z" fill="white" stroke="white" stroke-width="0.3"/>
</svg>
