<svg width="17" height="10" viewBox="0 0 17 10" fill="none" xmlns="http://www.w3.org/2000/svg">
<path d="M16.6005 0.958334C16.4713 0.885194 16.3247 0.846688 16.1755 0.846688C16.0263 0.846688 15.8797 0.885194 15.7505 0.958334L12.75 2.40833C12.7258 1.76131 12.4465 1.14873 11.9709 0.699533C11.4952 0.250337 10.8604 -0.000434812 10.2 5.65964e-07H2.55C1.8737 5.65964e-07 1.2251 0.263393 0.746878 0.732234C0.26866 1.20107 0 1.83696 0 2.5V7.5C0 8.16304 0.26866 8.79893 0.746878 9.26777C1.2251 9.73661 1.8737 10 2.55 10H10.2C10.8604 10.0004 11.4952 9.74966 11.9709 9.30047C12.4465 8.85127 12.7258 8.23869 12.75 7.59167L15.776 9.075C15.8919 9.13323 16.0198 9.1646 16.15 9.16667C16.3091 9.16717 16.4652 9.12386 16.6005 9.04167C16.723 8.96661 16.824 8.86218 16.8939 8.73825C16.9638 8.61431 17.0003 8.47495 17 8.33333V1.66667C17.0003 1.52505 16.9638 1.38569 16.8939 1.26175C16.824 1.13782 16.723 1.03339 16.6005 0.958334ZM11.05 7.5C11.05 7.72101 10.9604 7.93298 10.801 8.08926C10.6416 8.24554 10.4254 8.33333 10.2 8.33333H2.55C2.32457 8.33333 2.10837 8.24554 1.94896 8.08926C1.78955 7.93298 1.7 7.72101 1.7 7.5V2.5C1.7 2.27899 1.78955 2.06703 1.94896 1.91074C2.10837 1.75446 2.32457 1.66667 2.55 1.66667H10.2C10.4254 1.66667 10.6416 1.75446 10.801 1.91074C10.9604 2.06703 11.05 2.27899 11.05 2.5V7.5ZM15.3 6.98333L12.75 5.73333V4.26667L15.3 3.01667V6.98333Z" fill="#F7FBFF"/>
</svg>
