<svg width="20" height="20" viewBox="0 0 20 20" fill="none" xmlns="http://www.w3.org/2000/svg">
<g clip-path="url(#clip0_7858_8081)">
<path d="M15.6679 3.35938C15.6679 3.14363 15.493 2.96875 15.2772 2.96875H10.5859V9.22598H15.6679V3.35938Z" fill="#4D7EA5"/>
<path d="M9.41395 2.96875H4.72266C4.50691 2.96875 4.33203 3.14363 4.33203 3.35938V6.61309L6.21207 4.7325C6.44086 4.50363 6.81188 4.50359 7.0407 4.73238C7.26957 4.96117 7.26961 5.33219 7.04082 5.56102L4.33203 8.27059V9.22598H9.41395V2.96875ZM8.22957 7.5725L7.72852 8.07375C7.6141 8.1882 7.4641 8.24543 7.31414 8.24543C7.16422 8.24543 7.0143 8.18824 6.89988 8.07387C6.67102 7.84512 6.67094 7.4741 6.89973 7.24523L7.40078 6.74398C7.62949 6.51512 8.00055 6.51504 8.22941 6.74383C8.45828 6.97266 8.45836 7.34367 8.22957 7.5725Z" fill="#4D7EA5"/>
<path d="M9.41395 10.3965H4.33203V14.8959H9.41395V10.3965Z" fill="#4D7EA5"/>
<path d="M15.6679 10.3965H10.5859V14.8959H15.6679V10.3965Z" fill="#4D7EA5"/>
<path d="M3.16074 2.96738C3.16074 2.32016 3.68543 1.79551 4.33262 1.79551H15.6683C16.3155 1.79551 16.8402 2.32016 16.8402 2.96738V14.8959H18.5995V0.777344C18.5995 0.345859 18.2498 -0.00390625 17.8183 -0.00390625H2.18262C1.75113 -0.00390625 1.40137 0.345859 1.40137 0.777344V14.8959H3.16074V2.96738Z" fill="#4D7EA5"/>
<path d="M19.4141 16H0.585938C0.262344 16 0 16.2623 0 16.5859V16.608C0 18.4388 1.48949 19.9283 3.32031 19.9283H16.6797C18.5105 19.9283 20 18.4388 20 16.608V16.5859C20 16.2623 19.7377 16 19.4141 16Z" fill="#FFB6A3"/>
</g>
<defs>
<clipPath id="clip0_7858_8081">
<rect width="20" height="20" fill="white" transform="translate(0 -0.00390625)"/>
</clipPath>
</defs>
</svg>
