<svg width="14" height="17" viewBox="0 0 14 17" fill="none" xmlns="http://www.w3.org/2000/svg">
<path d="M6.72211 0.390625C8.46556 0.390625 10.1376 1.10322 11.3704 2.37164C12.6032 3.64006 13.2958 5.36041 13.2958 7.15422C13.2958 10.0123 11.3439 13.127 7.49073 16.5317C7.27648 16.7211 7.00331 16.8251 6.72085 16.8248C6.4384 16.8246 6.16541 16.7201 5.95148 16.5303L5.69662 16.3028C2.01401 12.9869 0.148438 9.94846 0.148438 7.15422C0.148438 5.36041 0.84102 3.64006 2.07382 2.37164C3.30663 1.10322 4.97867 0.390625 6.72211 0.390625ZM6.72211 4.55284C6.05156 4.55284 5.40847 4.82691 4.93431 5.31477C4.46016 5.80262 4.19378 6.46429 4.19378 7.15422C4.19378 7.84415 4.46016 8.50583 4.93431 8.99368C5.40847 9.48153 6.05156 9.75561 6.72211 9.75561C7.39267 9.75561 8.03576 9.48153 8.50992 8.99368C8.98407 8.50583 9.25045 7.84415 9.25045 7.15422C9.25045 6.46429 8.98407 5.80262 8.50992 5.31477C8.03576 4.82691 7.39267 4.55284 6.72211 4.55284Z" fill="#315D80"/>
</svg>
