<svg width="13" height="14" viewBox="0 0 13 14" fill="none" xmlns="http://www.w3.org/2000/svg">
<path fill-rule="evenodd" clip-rule="evenodd" d="M8.36536 12.5263C8.36547 12.8981 8.23194 13.2562 7.99153 13.5288C7.75112 13.8014 7.4216 13.9684 7.06903 13.9963L6.96393 14H5.5625C5.20893 14.0001 4.86839 13.8597 4.60914 13.6069C4.34989 13.3541 4.19109 13.0076 4.16457 12.6368L4.16107 12.5263H8.36536ZM6.26321 7.02997e-10C7.535 -2.20648e-05 8.75707 0.519395 9.67165 1.44869C10.5862 2.37798 11.1218 3.64449 11.1654 4.98105L11.1682 5.15789V7.93137L12.4449 10.6164C12.5006 10.7336 12.5285 10.8632 12.5262 10.9942C12.5238 11.1251 12.4914 11.2535 12.4315 11.3684C12.3716 11.4833 12.2862 11.5812 12.1825 11.6538C12.0788 11.7263 11.9599 11.7714 11.836 11.7851L11.7554 11.7895H0.771014C0.646402 11.7895 0.523638 11.7578 0.413243 11.697C0.302849 11.6362 0.208115 11.5482 0.137159 11.4405C0.0662037 11.3328 0.0211423 11.2085 0.00583651 11.0785C-0.00946928 10.9485 0.00543697 10.8164 0.0492778 10.6938L0.0815107 10.6164L1.35821 7.93137V5.15789C1.35821 3.78994 1.87499 2.47801 2.79485 1.51071C3.71472 0.543419 4.96233 7.02998e-10 6.26321 7.02997e-10ZM6.26321 1.47368C5.36037 1.47374 4.49239 1.84029 3.8403 2.49691C3.1882 3.15352 2.80233 4.0495 2.76314 4.998L2.75964 5.15789V7.93137C2.75965 8.11411 2.72733 8.29526 2.66434 8.46558L2.61179 8.59084L1.79195 10.3158H10.7352L9.91534 8.59011C9.83756 8.42673 9.78933 8.24959 9.77309 8.06768L9.76678 7.93137V5.15789C9.76678 4.18078 9.39766 3.24369 8.74061 2.55276C8.08356 1.86184 7.19242 1.47368 6.26321 1.47368Z" fill="white"/>
</svg>
