<svg width="65" height="20" viewBox="0 0 65 20" fill="none" xmlns="http://www.w3.org/2000/svg">
<path d="M52.2661 2.62889C52.066 2.7994 51.9659 2.88466 51.8591 2.95628C51.6141 3.12046 51.339 3.2344 51.0497 3.29152C50.9235 3.31644 50.7925 3.3269 50.5304 3.34781C49.8719 3.40036 49.5426 3.42663 49.2679 3.52366C48.6326 3.74807 48.1328 4.24782 47.9084 4.88316C47.8114 5.15785 47.7851 5.4871 47.7326 6.14561C47.7117 6.40769 47.7012 6.53874 47.6763 6.66495C47.6192 6.95425 47.5052 7.22935 47.341 7.4743C47.2694 7.58116 47.1842 7.68122 47.0136 7.88132C46.5852 8.38412 46.3709 8.63549 46.2453 8.89836C45.9547 9.50634 45.9547 10.213 46.2453 10.821C46.3709 11.0839 46.5851 11.3352 47.0136 11.838C47.1841 12.0381 47.2694 12.1382 47.341 12.245C47.5052 12.49 47.6192 12.7651 47.6763 13.0544C47.7012 13.1806 47.7117 13.3117 47.7326 13.5737C47.7851 14.2322 47.8114 14.5615 47.9084 14.8362C48.1328 15.4715 48.6326 15.9713 49.2679 16.1957C49.5426 16.2927 49.8719 16.319 50.5303 16.3716C50.7924 16.3924 50.9235 16.4029 51.0497 16.4278C51.339 16.485 51.6141 16.5989 51.8591 16.7631C51.9659 16.8347 52.066 16.92 52.2661 17.0905C52.7689 17.519 53.0203 17.7332 53.2831 17.8589C53.8911 18.1494 54.5978 18.1494 55.2058 17.8589C55.4686 17.7332 55.72 17.519 56.2228 17.0905C56.4229 16.92 56.523 16.8347 56.6298 16.7631C56.8747 16.5989 57.1498 16.485 57.4392 16.4278C57.5654 16.4029 57.6964 16.3924 57.9585 16.3716C58.6169 16.319 58.9463 16.2927 59.221 16.1957C59.8563 15.9713 60.3561 15.4715 60.5805 14.8362C60.6774 14.5615 60.7037 14.2322 60.7563 13.5738C60.7772 13.3118 60.7877 13.1806 60.8126 13.0544C60.8697 12.7651 60.9837 12.49 61.1479 12.245C61.2194 12.1382 61.3047 12.0381 61.4752 11.838C61.9038 11.3352 62.118 11.0839 62.2436 10.821C62.5342 10.213 62.5342 9.50634 62.2436 8.89836C62.118 8.63549 61.9038 8.38413 61.4752 7.88133C61.3047 7.68122 61.2194 7.58116 61.1479 7.4743C60.9837 7.22935 60.8697 6.95425 60.8126 6.66495C60.7877 6.53874 60.7772 6.4077 60.7563 6.14561C60.7037 5.48715 60.6774 5.15785 60.5805 4.88316C60.3561 4.24782 59.8563 3.74807 59.221 3.52366C58.9463 3.42663 58.617 3.40036 57.9585 3.34782C57.6964 3.3269 57.5654 3.31644 57.4392 3.29152C57.1498 3.2344 56.8747 3.12046 56.6298 2.95628C56.523 2.88466 56.4229 2.79939 56.2228 2.62885C55.72 2.20038 55.4686 1.98615 55.2058 1.86051C54.5978 1.56993 53.8911 1.56993 53.2831 1.86051C53.0203 1.98614 52.7689 2.20041 52.2661 2.62889Z" fill="#9BB997"/>
<path d="M57.9276 8.19071L57.9276 8.19071C58.2369 7.88141 58.2369 7.37994 57.9276 7.07064L57.9276 7.07063C57.6182 6.76134 57.1168 6.76132 56.8075 7.07064L52.9091 10.969L51.6858 9.74563L51.6858 9.74562C51.3765 9.43635 50.8751 9.43635 50.5658 9.74562L50.5657 9.74563C50.2565 10.055 50.2564 10.5564 50.5657 10.8657C50.5657 10.8657 50.5658 10.8657 50.5658 10.8657L52.3491 12.6491L52.3491 12.6491C52.6584 12.9583 53.1599 12.9584 53.4692 12.6491L57.9276 8.19071Z" fill="white" stroke="white" stroke-width="0.246513"/>
<path d="M2.42578 6.21289L4.89844 13.543L7.3418 6.21289H8.64844L5.50781 14.8203H4.27148L1.13672 6.21289H2.42578ZM11.5664 8.4043C12.0117 8.4043 12.4434 8.50977 12.8613 8.7207C13.2793 8.92773 13.5977 9.19727 13.8164 9.5293C14.0273 9.8457 14.168 10.2148 14.2383 10.6367C14.3008 10.9258 14.332 11.3867 14.332 12.0195H9.73242C9.75195 12.6562 9.90234 13.168 10.1836 13.5547C10.4648 13.9375 10.9004 14.1289 11.4902 14.1289C12.041 14.1289 12.4805 13.9473 12.8086 13.584C12.9961 13.373 13.1289 13.1289 13.207 12.8516H14.2441C14.2168 13.082 14.125 13.3398 13.9688 13.625C13.8164 13.9062 13.6445 14.1367 13.4531 14.3164C13.1328 14.6289 12.7363 14.8398 12.2637 14.9492C12.0098 15.0117 11.7227 15.043 11.4023 15.043C10.6211 15.043 9.95898 14.7598 9.41602 14.1934C8.87305 13.623 8.60156 12.8262 8.60156 11.8027C8.60156 10.7949 8.875 9.97656 9.42188 9.34766C9.96875 8.71875 10.6836 8.4043 11.5664 8.4043ZM13.248 11.1816C13.2051 10.7246 13.1055 10.3594 12.9492 10.0859C12.6602 9.57812 12.1777 9.32422 11.502 9.32422C11.0176 9.32422 10.6113 9.5 10.2832 9.85156C9.95508 10.1992 9.78125 10.6426 9.76172 11.1816H13.248ZM15.6621 8.54492H16.6641V9.62891C16.7461 9.41797 16.9473 9.16211 17.2676 8.86133C17.5879 8.55664 17.957 8.4043 18.375 8.4043C18.3945 8.4043 18.4277 8.40625 18.4746 8.41016C18.5215 8.41406 18.6016 8.42188 18.7148 8.43359V9.54688C18.6523 9.53516 18.5938 9.52734 18.5391 9.52344C18.4883 9.51953 18.4316 9.51758 18.3691 9.51758C17.8379 9.51758 17.4297 9.68945 17.1445 10.0332C16.8594 10.373 16.7168 10.7656 16.7168 11.2109V14.8203H15.6621V8.54492ZM19.6289 8.57422H20.7012V14.8203H19.6289V8.57422ZM19.6289 6.21289H20.7012V7.4082H19.6289V6.21289ZM22.5645 7.58984C22.5801 7.15234 22.6562 6.83203 22.793 6.62891C23.0391 6.26953 23.5137 6.08984 24.2168 6.08984C24.2832 6.08984 24.3516 6.0918 24.4219 6.0957C24.4922 6.09961 24.5723 6.10547 24.6621 6.11328V7.07422C24.5527 7.06641 24.4727 7.0625 24.4219 7.0625C24.375 7.05859 24.3301 7.05664 24.2871 7.05664C23.9668 7.05664 23.7754 7.14062 23.7129 7.30859C23.6504 7.47266 23.6191 7.89453 23.6191 8.57422H24.6621V9.40625H23.6074V14.8203H22.5645V9.40625H21.6914V8.57422H22.5645V7.58984ZM25.6758 7.4082V6.21289H26.7305V7.4082H25.6758ZM25.6758 8.57422H26.7305V14.8203H25.6758V8.57422ZM30.9141 8.4043C31.3594 8.4043 31.791 8.50977 32.209 8.7207C32.627 8.92773 32.9453 9.19727 33.1641 9.5293C33.375 9.8457 33.5156 10.2148 33.5859 10.6367C33.6484 10.9258 33.6797 11.3867 33.6797 12.0195H29.0801C29.0996 12.6562 29.25 13.168 29.5312 13.5547C29.8125 13.9375 30.248 14.1289 30.8379 14.1289C31.3887 14.1289 31.8281 13.9473 32.1562 13.584C32.3438 13.373 32.4766 13.1289 32.5547 12.8516H33.5918C33.5645 13.082 33.4727 13.3398 33.3164 13.625C33.1641 13.9062 32.9922 14.1367 32.8008 14.3164C32.4805 14.6289 32.084 14.8398 31.6113 14.9492C31.3574 15.0117 31.0703 15.043 30.75 15.043C29.9688 15.043 29.3066 14.7598 28.7637 14.1934C28.2207 13.623 27.9492 12.8262 27.9492 11.8027C27.9492 10.7949 28.2227 9.97656 28.7695 9.34766C29.3164 8.71875 30.0312 8.4043 30.9141 8.4043ZM32.5957 11.1816C32.5527 10.7246 32.4531 10.3594 32.2969 10.0859C32.0078 9.57812 31.5254 9.32422 30.8496 9.32422C30.3652 9.32422 29.959 9.5 29.6309 9.85156C29.3027 10.1992 29.1289 10.6426 29.1094 11.1816H32.5957ZM35.6484 11.7559C35.6484 12.4277 35.791 12.9902 36.0762 13.4434C36.3613 13.8965 36.8184 14.123 37.4473 14.123C37.9355 14.123 38.3359 13.9141 38.6484 13.4961C38.9648 13.0742 39.123 12.4707 39.123 11.6855C39.123 10.8926 38.9609 10.3066 38.6367 9.92773C38.3125 9.54492 37.9121 9.35352 37.4355 9.35352C36.9043 9.35352 36.4727 9.55664 36.1406 9.96289C35.8125 10.3691 35.6484 10.9668 35.6484 11.7559ZM37.2363 8.43359C37.7168 8.43359 38.1191 8.53516 38.4434 8.73828C38.6309 8.85547 38.8438 9.06055 39.082 9.35352V6.18359H40.0957V14.8203H39.1465V13.9473C38.9004 14.334 38.6094 14.6133 38.2734 14.7852C37.9375 14.957 37.5527 15.043 37.1191 15.043C36.4199 15.043 35.8145 14.75 35.3027 14.1641C34.791 13.5742 34.5352 12.791 34.5352 11.8145C34.5352 10.9004 34.7676 10.1094 35.2324 9.44141C35.7012 8.76953 36.3691 8.43359 37.2363 8.43359Z" fill="#9BB997"/>
</svg>
