<svg width="16" height="15" viewBox="0 0 16 15" fill="none" xmlns="http://www.w3.org/2000/svg">
<path d="M13.9205 2.07953C13.5784 1.73729 13.1722 1.4658 12.7252 1.28057C12.2782 1.09534 11.799 1 11.3151 1C10.8312 1 10.3521 1.09534 9.90504 1.28057C9.45801 1.4658 9.05185 1.73729 8.70976 2.07953L7.99982 2.78947L7.28988 2.07953C6.5989 1.38855 5.66172 1.00036 4.68453 1.00036C3.70733 1.00036 2.77016 1.38855 2.07917 2.07953C1.38819 2.77051 1 3.70769 1 4.68488C1 5.66208 1.38819 6.59925 2.07917 7.29024L2.78911 8.00018L7.99982 13.2109L13.2105 8.00018L13.9205 7.29024C14.2627 6.94815 14.5342 6.54199 14.7194 6.09496C14.9047 5.64792 15 5.16877 15 4.68488C15 4.20099 14.9047 3.72184 14.7194 3.27481C14.5342 2.82777 14.2627 2.42161 13.9205 2.07953Z" stroke="white" stroke-width="2" stroke-linecap="round" stroke-linejoin="round"/>
</svg>
