<svg width="17" height="11" viewBox="0 0 17 11" fill="none" xmlns="http://www.w3.org/2000/svg">
<path d="M-9.3124e-05 10.8955L0.00999143 6.24104C0.0107478 5.89196 0.0869846 5.57537 0.238702 5.29126C0.390419 5.00715 0.590143 4.75547 0.837875 4.53621L0.842581 2.36415C0.843982 1.7177 1.08556 1.16874 1.56732 0.717274C2.04907 0.265803 2.63336 0.0408111 3.32018 0.0422992L6.61693 0.0494421C6.93287 0.0501267 7.22808 0.105844 7.50257 0.216593C7.77706 0.327343 8.03085 0.47968 8.26396 0.673603C8.49789 0.480175 8.75235 0.328939 9.02731 0.219897C9.30228 0.110855 9.59773 0.0564177 9.91367 0.0565851L13.2104 0.063728C13.8972 0.0652161 14.4805 0.292737 14.9603 0.746292C15.4401 1.19985 15.6793 1.74985 15.6779 2.39629L15.6732 4.56835C15.92 4.78868 16.1186 5.04123 16.2691 5.32599C16.4196 5.61076 16.4945 5.92768 16.4937 6.27676L16.4836 10.9312L14.8353 10.9276L14.8386 9.37613L1.65164 9.34756L1.64828 10.899L-9.3124e-05 10.8955ZM9.08108 3.93348L14.0262 3.94419L14.0296 2.39272C14.03 2.17293 13.9513 1.98839 13.7934 1.83911C13.6355 1.68982 13.44 1.61519 13.2071 1.6152L9.91031 1.60806C9.67679 1.60755 9.48075 1.6816 9.32218 1.8302C9.16362 1.97879 9.08437 2.16273 9.08444 2.38201L9.08108 3.93348ZM2.48759 3.91919L7.43271 3.92991L7.43607 2.37844C7.43655 2.15864 7.35782 1.97411 7.1999 1.82482C7.04198 1.67554 6.84654 1.6009 6.61357 1.60091L3.31682 1.59377C3.0833 1.59327 2.88726 1.66731 2.72869 1.81591C2.57013 1.96451 2.49088 2.14845 2.49095 2.36772L2.48759 3.91919ZM1.655 7.79609L14.842 7.82466L14.8453 6.27319C14.8458 6.0534 14.7671 5.86886 14.6092 5.71957C14.4513 5.57029 14.2558 5.49565 14.0228 5.49567L2.48423 5.47067C2.25071 5.47016 2.05467 5.54421 1.8961 5.6928C1.73754 5.8414 1.65829 6.02534 1.65836 6.24462L1.655 7.79609Z" fill="#5285B7"/>
</svg>
