<svg width="13" height="11" viewBox="0 0 13 11" fill="none" xmlns="http://www.w3.org/2000/svg">
<path d="M11.1806 9.22975H12.2987V10.3254H0V9.22975H1.11806V1.01265C1.11806 0.867363 1.17696 0.728026 1.2818 0.625293C1.38664 0.522559 1.52883 0.464844 1.67709 0.464844H7.26741C7.41567 0.464844 7.55787 0.522559 7.6627 0.625293C7.76754 0.728026 7.82644 0.867363 7.82644 1.01265V9.22975H10.0626V4.84729H8.9445V3.75168H10.6216C10.7699 3.75168 10.9121 3.8094 11.0169 3.91213C11.1217 4.01486 11.1806 4.1542 11.1806 4.29949V9.22975ZM2.23613 1.56046V9.22975H6.70838V1.56046H2.23613ZM3.35419 4.84729H5.59031V5.94291H3.35419V4.84729ZM3.35419 2.65607H5.59031V3.75168H3.35419V2.65607Z" fill="#A7BBCE"/>
</svg>
