<svg width="24" height="22" viewBox="0 0 24 22" fill="none" xmlns="http://www.w3.org/2000/svg">
<path d="M20.5802 11.3807L11.7829 20.3641L2.98564 11.3807C2.40538 10.7985 1.94831 10.0988 1.64323 9.3255C1.33815 8.55224 1.19165 7.72223 1.21297 6.88773C1.23429 6.05323 1.42296 5.23232 1.76711 4.47669C2.11125 3.72106 2.60341 3.04709 3.21259 2.49721C3.82178 1.94733 4.53479 1.53346 5.30673 1.28165C6.07867 1.02985 6.89281 0.945567 7.6979 1.03412C8.50298 1.12266 9.28156 1.38212 9.98461 1.79616C10.6877 2.21019 11.3 2.76983 11.7829 3.43983C12.268 2.7747 12.881 2.21995 13.5836 1.81031C14.2861 1.40067 15.0631 1.14495 15.866 1.05917C16.6688 0.973391 17.4801 1.05939 18.2492 1.31178C19.0184 1.56417 19.7287 1.97753 20.3357 2.52597C20.9427 3.07442 21.4335 3.74615 21.7771 4.49913C22.1208 5.25211 22.31 6.07012 22.333 6.90197C22.3559 7.73382 22.2121 8.5616 21.9105 9.3335C21.6089 10.1054 21.156 10.8048 20.5802 11.388" fill="#20364D"/>
<path d="M20.5802 11.3807L11.7829 20.3641L2.98564 11.3807C2.40538 10.7985 1.94831 10.0988 1.64323 9.3255C1.33815 8.55224 1.19165 7.72223 1.21297 6.88773C1.23429 6.05323 1.42296 5.23232 1.76711 4.47669C2.11125 3.72106 2.60341 3.04709 3.21259 2.49721C3.82178 1.94733 4.53479 1.53346 5.30673 1.28165C6.07867 1.02985 6.89281 0.945567 7.6979 1.03412C8.50298 1.12266 9.28156 1.38212 9.98461 1.79616C10.6877 2.21019 11.3 2.76983 11.7829 3.43983C12.268 2.7747 12.881 2.21995 13.5836 1.81031C14.2861 1.40067 15.0631 1.14495 15.866 1.05917C16.6688 0.973391 17.4801 1.05939 18.2492 1.31178C19.0184 1.56417 19.7287 1.97753 20.3357 2.52597C20.9427 3.07442 21.4335 3.74615 21.7771 4.49913C22.1208 5.25211 22.31 6.07012 22.333 6.90197C22.3559 7.73382 22.2121 8.5616 21.9105 9.3335C21.6089 10.1054 21.156 10.8048 20.5802 11.388" stroke="#365B81" stroke-width="1.8" stroke-linecap="round" stroke-linejoin="round"/>
</svg>
