<svg width="20" height="22" viewBox="0 0 20 22" fill="none" xmlns="http://www.w3.org/2000/svg">
<path d="M3.29458 20.3638C2.02734 20.3638 1 19.3096 1 18.0079V8.53916C1 7.82378 1.31735 7.14606 1.8606 6.69963L8.17203 1.51666C8.57528 1.18273 9.08244 1 9.60601 1C10.1296 1 10.6367 1.18273 11.04 1.51666L17.3503 6.69963C17.8947 7.14606 18.212 7.82378 18.212 8.53916V18.0079C18.212 19.3096 17.1847 20.3638 15.9174 20.3638H3.29458Z" stroke="#A7BBCE" stroke-width="1.8" stroke-linecap="round" stroke-linejoin="round"/>
<path d="M6.91797 20.365V14.4484C6.91797 13.8778 7.14464 13.3305 7.54813 12.927C7.95161 12.5236 8.49886 12.2969 9.06947 12.2969H10.1452C10.7158 12.2969 11.2631 12.5236 11.6666 12.927C12.07 13.3305 12.2967 13.8778 12.2967 14.4484V20.365" stroke="#A7BBCE" stroke-width="1.8" stroke-linecap="round" stroke-linejoin="round"/>
</svg>
