<svg width="12" height="13" viewBox="0 0 12 13" fill="none" xmlns="http://www.w3.org/2000/svg">
<path d="M5.73939 12.1475C4.21721 12.1475 2.75737 11.5415 1.68103 10.4628C0.604684 9.38407 0 7.92104 0 6.39552C0 4.87001 0.604684 3.40697 1.68103 2.32827C2.75737 1.24956 4.21721 0.643555 5.73939 0.643555C7.26157 0.643555 8.72141 1.24956 9.79775 2.32827C10.8741 3.40697 11.4788 4.87001 11.4788 6.39552C11.4788 7.92104 10.8741 9.38407 9.79775 10.4628C8.72141 11.5415 7.26157 12.1475 5.73939 12.1475ZM5.73939 10.9971C6.95714 10.9971 8.125 10.5123 8.98608 9.64933C9.84716 8.78636 10.3309 7.61593 10.3309 6.39552C10.3309 5.17511 9.84716 4.00468 8.98608 3.14172C8.125 2.27876 6.95714 1.79395 5.73939 1.79395C4.52165 1.79395 3.35378 2.27876 2.4927 3.14172C1.63163 4.00468 1.14788 5.17511 1.14788 6.39552C1.14788 7.61593 1.63163 8.78636 2.4927 9.64933C3.35378 10.5123 4.52165 10.9971 5.73939 10.9971ZM5.16545 6.63135V2.94434H6.31333V6.15969L8.58039 8.43172L7.77113 9.24275L5.16545 6.63135Z" fill="#A7BBCE"/>
</svg>
