<svg width="15" height="13" viewBox="0 0 15 13" fill="none" xmlns="http://www.w3.org/2000/svg">
<path d="M14.25 7.8V8.45C14.25 9.6915 13.4475 10.7705 12.2625 11.3165L12.75 13H11.25L10.875 11.7H4.125L3.75 13H2.25L2.7375 11.3165C2.13689 11.0404 1.63448 10.6276 1.28429 10.1225C0.934108 9.61747 0.749389 9.03923 0.75 8.45V7.8H0V6.5H13.5V1.95C13.5 1.77761 13.421 1.61228 13.2803 1.49038C13.1397 1.36848 12.9489 1.3 12.75 1.3C12.375 1.3 12.09 1.521 12 1.8135C12.4725 2.1645 12.75 2.6845 12.75 3.25H8.25C8.25 2.73283 8.48705 2.23684 8.90901 1.87114C9.33097 1.50545 9.90326 1.3 10.5 1.3H10.6275C10.935 0.546 11.7675 0 12.75 0C13.3467 0 13.919 0.205446 14.341 0.571142C14.7629 0.936838 15 1.43283 15 1.95V7.8H14.25ZM12.75 7.8H2.25V8.45C2.25 8.96717 2.48705 9.46316 2.90901 9.82886C3.33097 10.1946 3.90326 10.4 4.5 10.4H10.5C11.0967 10.4 11.669 10.1946 12.091 9.82886C12.5129 9.46316 12.75 8.96717 12.75 8.45V7.8Z" fill="#5285B7"/>
</svg>
