<svg width="14" height="10" viewBox="0 0 14 10" fill="none" xmlns="http://www.w3.org/2000/svg">
<path d="M-1.11399e-05 9.81255L0.00836417 5.94701C0.00899232 5.6571 0.0723076 5.39416 0.19831 5.15821C0.324312 4.92225 0.490185 4.71323 0.695929 4.53113L0.699837 2.72722C0.701001 2.19034 0.901633 1.73442 1.30174 1.35947C1.70184 0.984523 2.1871 0.797665 2.75751 0.798901L5.49548 0.804833C5.75787 0.805402 6.00305 0.851675 6.23102 0.943654C6.45898 1.03563 6.66976 1.16215 6.86335 1.3232C7.05764 1.16256 7.26897 1.03696 7.49733 0.946398C7.72569 0.855837 7.97107 0.810627 8.23346 0.810766L10.9714 0.816698C11.5418 0.817934 12.0263 1.00689 12.4248 1.38357C12.8232 1.76025 13.0219 2.21703 13.0207 2.75391L13.0168 4.55783C13.2218 4.74081 13.3867 4.95055 13.5117 5.18705C13.6367 5.42355 13.6989 5.68676 13.6982 5.97668L13.6899 9.84221L12.3209 9.83924L12.3237 8.55073L1.37177 8.527L1.36898 9.81551L-1.11399e-05 9.81255ZM7.54198 4.03056L11.6489 4.03946L11.6517 2.75095C11.6521 2.56841 11.5868 2.41515 11.4556 2.29117C11.3244 2.16718 11.1621 2.1052 10.9686 2.10521L8.23067 2.09928C8.03673 2.09886 7.87391 2.16035 7.74222 2.28377C7.61053 2.40718 7.54471 2.55994 7.54478 2.74205L7.54198 4.03056ZM2.06603 4.0187L6.173 4.02759L6.17579 2.73908C6.17618 2.55654 6.1108 2.40328 5.97965 2.2793C5.84849 2.15532 5.68617 2.09333 5.49269 2.09334L2.75471 2.08741C2.56077 2.08699 2.39796 2.14849 2.26627 2.2719C2.13458 2.39531 2.06876 2.54807 2.06883 2.73018L2.06603 4.0187ZM1.37456 7.23849L12.3265 7.26222L12.3293 5.97371C12.3296 5.79117 12.2643 5.63791 12.1331 5.51393C12.002 5.38995 11.8396 5.32796 11.6462 5.32797L2.06324 5.30721C1.8693 5.30679 1.70649 5.36828 1.5748 5.4917C1.4431 5.61511 1.37729 5.76787 1.37735 5.94998L1.37456 7.23849Z" fill="#A7BBCE"/>
</svg>
