<svg width="12" height="11" viewBox="0 0 12 11" fill="none" xmlns="http://www.w3.org/2000/svg">
<path d="M11.4 6.6V7.15C11.4 8.2005 10.758 9.1135 9.81 9.5755L10.2 11H9L8.7 9.9H3.3L3 11H1.8L2.19 9.5755C1.70951 9.34186 1.30758 8.99258 1.02744 8.56522C0.747286 8.13786 0.599511 7.64858 0.6 7.15V6.6H0V5.5H10.8V1.65C10.8 1.50413 10.7368 1.36424 10.6243 1.26109C10.5117 1.15795 10.3591 1.1 10.2 1.1C9.9 1.1 9.672 1.287 9.6 1.5345C9.978 1.8315 10.2 2.2715 10.2 2.75H6.6C6.6 2.31239 6.78964 1.89271 7.12721 1.58327C7.46477 1.27384 7.92261 1.1 8.4 1.1H8.502C8.748 0.462 9.414 0 10.2 0C10.6774 0 11.1352 0.173839 11.4728 0.483274C11.8104 0.792709 12 1.21239 12 1.65V6.6H11.4ZM10.2 6.6H1.8V7.15C1.8 7.58761 1.98964 8.00729 2.32721 8.31673C2.66477 8.62616 3.12261 8.8 3.6 8.8H8.4C8.87739 8.8 9.33523 8.62616 9.67279 8.31673C10.0104 8.00729 10.2 7.58761 10.2 7.15V6.6Z" fill="#A7BBCE"/>
</svg>
