<svg width="20" height="20" viewBox="0 0 20 20" fill="none" xmlns="http://www.w3.org/2000/svg">
<path d="M15.9502 0H17.8193C18.8162 0 19.9377 0.866689 19.9377 2.00005V4.40011H0V2.00005C0 0.866689 0.685358 0 1.61994 0H3.4891V2.00005C3.4891 2.40006 3.80062 2.66674 4.11215 2.66674C4.42368 2.66674 4.7352 2.40006 4.7352 2.00005V0H14.7041V2.00005C14.7041 2.40006 15.0156 2.66674 15.3271 2.66674C15.6386 2.66674 15.9502 2.40006 15.9502 2.00005V0Z" fill="#5A7C96"/>
<path d="M0 5.79688V17.9972C0 19.1972 0.685358 19.9972 1.68224 19.9972H17.8816C18.8785 19.9972 20 19.1306 20 17.9972V5.79688H0ZM5.54517 16.9972H4.04984C3.80062 16.9972 3.5514 16.7972 3.5514 16.4638V14.7971C3.5514 14.5304 3.73832 14.2638 4.04984 14.2638H5.60748C5.8567 14.2638 6.10592 14.4638 6.10592 14.7971V16.4638C6.04361 16.7972 5.8567 16.9972 5.54517 16.9972ZM5.54517 10.997H4.04984C3.80062 10.997 3.5514 10.797 3.5514 10.4637V8.79695C3.5514 8.53028 3.73832 8.26361 4.04984 8.26361H5.60748C5.8567 8.26361 6.10592 8.46361 6.10592 8.79695V10.4637C6.04361 10.797 5.8567 10.997 5.54517 10.997ZM10.5296 16.9972H8.97196C8.72274 16.9972 8.47352 16.7972 8.47352 16.4638V14.7971C8.47352 14.5304 8.66044 14.2638 8.97196 14.2638H10.5296C10.7788 14.2638 11.028 14.4638 11.028 14.7971V16.4638C11.028 16.7972 10.8411 16.9972 10.5296 16.9972ZM10.5296 10.997H8.97196C8.72274 10.997 8.47352 10.797 8.47352 10.4637V8.79695C8.47352 8.53028 8.66044 8.26361 8.97196 8.26361H10.5296C10.7788 8.26361 11.028 8.46361 11.028 8.79695V10.4637C11.028 10.797 10.8411 10.997 10.5296 10.997ZM15.514 16.9972H13.9564C13.7072 16.9972 13.4579 16.7972 13.4579 16.4638V14.7971C13.4579 14.5304 13.6449 14.2638 13.9564 14.2638H15.514C15.7632 14.2638 16.0125 14.4638 16.0125 14.7971V16.4638C16.0125 16.7972 15.8255 16.9972 15.514 16.9972ZM15.514 10.997H13.9564C13.7072 10.997 13.4579 10.797 13.4579 10.4637V8.79695C13.4579 8.53028 13.6449 8.26361 13.9564 8.26361H15.514C15.7632 8.26361 16.0125 8.46361 16.0125 8.79695V10.4637C16.0125 10.797 15.8255 10.997 15.514 10.997Z" fill="#365B81"/>
</svg>
