<svg width="20" height="20" viewBox="0 0 20 20" fill="none" xmlns="http://www.w3.org/2000/svg">
<path d="M10 19V15.7256C9.7651 15.5944 9.56062 15.415 9.4 15.1992C9.24209 14.9892 9.12717 14.7501 9.0618 14.4957C8.99644 14.2412 8.98192 13.9763 9.01907 13.7162C9.05623 13.4561 9.14433 13.2059 9.27834 12.9799C9.41234 12.7539 9.58961 12.5566 9.8 12.3992L13.8 9.4002C14.112 9.15978 14.4902 9.02085 14.8836 9.00216C15.277 8.98348 15.6667 9.08593 16 9.2957V1C16 0.734784 15.8946 0.48043 15.7071 0.292893C15.5196 0.105357 15.2652 0 15 0H1C0.734784 0 0.48043 0.105357 0.292893 0.292893C0.105357 0.48043 1.80232e-07 0.734784 1.80232e-07 1V19C-7.86972e-05 19.1313 0.0257333 19.2614 0.0759601 19.3828C0.126187 19.5041 0.199843 19.6144 0.292717 19.7073C0.385592 19.8002 0.495862 19.8738 0.617223 19.924C0.738585 19.9743 0.868656 20.0001 1 20H10.2783C10.0981 19.6974 10.002 19.3522 10 19ZM4 4H12C12.2652 4 12.5196 4.10536 12.7071 4.29289C12.8946 4.48043 13 4.73478 13 5C13 5.26522 12.8946 5.51957 12.7071 5.70711C12.5196 5.89464 12.2652 6 12 6H4C3.73478 6 3.48043 5.89464 3.29289 5.70711C3.10536 5.51957 3 5.26522 3 5C3 4.73478 3.10536 4.48043 3.29289 4.29289C3.48043 4.10536 3.73478 4 4 4ZM4 8H10C10.2652 8 10.5196 8.10536 10.7071 8.29289C10.8946 8.48043 11 8.73478 11 9C11 9.26522 10.8946 9.51957 10.7071 9.70711C10.5196 9.89464 10.2652 10 10 10H4C3.73478 10 3.48043 9.89464 3.29289 9.70711C3.10536 9.51957 3 9.26522 3 9C3 8.73478 3.10536 8.48043 3.29289 8.29289C3.48043 8.10536 3.73478 8 4 8ZM7.707 13.707L5.707 15.707C5.51947 15.8945 5.26514 15.9998 4.99995 15.9998C4.73476 15.9998 4.48043 15.8945 4.2929 15.707L3.2929 14.707C3.11008 14.5185 3.00873 14.2657 3.01073 14.0031C3.01274 13.7405 3.11794 13.4893 3.30362 13.3036C3.4893 13.118 3.74056 13.0128 4.00313 13.0108C4.26571 13.0088 4.51853 13.1102 4.707 13.293L5 13.5859L6.293 12.2929C6.48148 12.1101 6.73431 12.0087 6.99689 12.0107C7.25946 12.0127 7.51071 12.1179 7.69638 12.3036C7.88204 12.4893 7.98723 12.7406 7.98922 13.0031C7.9912 13.2657 7.88983 13.5185 7.707 13.707Z" fill="#20364D"/>
<path d="M19.6 13.2L15.6002 10.2C15.4272 10.0702 15.2168 10 15.0006 10C14.7844 10 14.574 10.0702 14.401 10.2L10.4012 13.2C10.2959 13.2786 10.2071 13.3772 10.14 13.4901C10.0729 13.6031 10.0288 13.7282 10.0101 13.8583C9.99146 13.9883 9.99866 14.1208 10.0313 14.2481C10.064 14.3754 10.1214 14.495 10.2004 14.6C10.2942 14.7222 10.4156 14.8206 10.5546 14.8872C10.6936 14.9537 10.8463 14.9865 11.0004 14.983V19C11.0003 19.1313 11.0261 19.2614 11.0763 19.3828C11.1265 19.5041 11.2002 19.6144 11.2931 19.7073C11.3859 19.8002 11.4962 19.8738 11.6176 19.924C11.7389 19.9743 11.869 20.0001 12.0003 20H18.0001C18.1314 20.0001 18.2615 19.9743 18.3828 19.924C18.5042 19.8738 18.6145 19.8002 18.7073 19.7073C18.8002 19.6144 18.8739 19.5041 18.9241 19.3828C18.9743 19.2614 19.0001 19.1313 19 19V15C19.2099 15 19.4145 14.9339 19.5847 14.8112C19.755 14.6885 19.8823 14.5153 19.9487 14.3162C20.0151 14.1171 20.0171 13.9021 19.9545 13.7018C19.8919 13.5015 19.7679 13.3259 19.6 13.2ZM17.0001 18H13.0003V14C12.9941 13.9261 12.9794 13.8531 12.9565 13.7826L15.0002 12.25L17.0439 13.7826C17.021 13.8531 17.0063 13.9261 17.0001 14V18Z" fill="#365B81"/>
</svg>
