<svg width="20" height="20" viewBox="0 0 20 20" fill="none" xmlns="http://www.w3.org/2000/svg">
<path d="M0 2.2986C0 1.21503 5.96046e-08 0.67325 0.29289 0.336619C0.58579 6.85037e-08 1.05719 0 2 0H18C18.9428 0 19.4142 6.85037e-08 19.7071 0.336619C20 0.67325 20 1.21503 20 2.2986C20 3.38218 20 3.92396 19.7071 4.26059C19.4142 4.59721 18.9428 4.59721 18 4.59721H2C1.05719 4.59721 0.58579 4.59721 0.29289 4.26059C5.96046e-08 3.92396 0 3.38218 0 2.2986Z" fill="#365B81"/>
<path d="M18.0689 5.63401C18.2101 5.63407 18.3551 5.63413 18.5 5.63184V10.8058C18.5 15.1402 18.5 17.3073 17.3284 18.6537C16.1569 20.0002 14.2712 20.0002 10.5 20.0002H9.5C5.72876 20.0002 3.84315 20.0002 2.67157 18.6537C1.5 17.3073 1.5 15.1402 1.5 10.8058V5.63184C1.64488 5.63413 1.78999 5.63407 1.93114 5.63401L9.25 5.63399V13.1567L7.55748 10.9953C7.28038 10.6416 6.80617 10.6128 6.49828 10.9313C6.1904 11.2498 6.16544 11.7948 6.44254 12.1486L9.4425 15.9796C9.5848 16.1613 9.7874 16.265 10 16.265C10.2126 16.265 10.4152 16.1613 10.5575 15.9796L13.5575 12.1486C13.8346 11.7948 13.8096 11.2498 13.5017 10.9313C13.1938 10.6128 12.7196 10.6416 12.4425 10.9953L10.75 13.1567V5.63399L18.0689 5.63401Z" fill="#20364D"/>
</svg>
