<svg width="20" height="20" viewBox="0 0 20 20" fill="none" xmlns="http://www.w3.org/2000/svg">
<path d="M10.2564 16.1515V14.8696H7.94872C7.5282 14.8696 7.17949 14.5209 7.17949 14.1005V12.8186H4.87179C4.45128 12.8186 4.10256 12.4699 4.10256 12.0495V10.7676H0V16.0079C0 18.2025 1.72308 19.9972 3.84615 19.9972H13.3333V16.9206H11.0256C10.6051 16.9206 10.2564 16.572 10.2564 16.1515Z" fill="#20364D"/>
<path d="M18.5333 5.85822L12.3795 0.853737C10.9846 -0.284579 9.02564 -0.284579 7.63077 0.853737L1.47692 5.85822C0.54359 6.6171 0 7.76567 0 8.99628V9.23215H4.8718C5.29231 9.23215 5.64103 9.58082 5.64103 10.0013V11.2832H7.94872C8.36923 11.2832 8.71795 11.6318 8.71795 12.0523V13.3342H11.0256C11.4462 13.3342 11.7949 13.6829 11.7949 14.1033V15.3852H14.1026C14.5231 15.3852 14.8718 15.7339 14.8718 16.1543V20H16.1538C18.2769 20 20 18.2054 20 16.0108V8.99628C20 7.76567 19.4667 6.6171 18.5333 5.85822Z" fill="#365B81"/>
</svg>
