<svg width="20" height="20" viewBox="0 0 20 20" fill="none" xmlns="http://www.w3.org/2000/svg">
<path d="M10.5859 3.61426V7.6566C10.5859 7.98047 10.3239 8.24254 10 8.24254C9.67613 8.24254 9.41406 7.98047 9.41406 7.6566V3.61426C7.43164 3.90164 5.89844 5.59586 5.89844 7.6566C5.89844 9.91797 7.73863 11.7582 10 11.7582C12.2614 11.7582 14.1016 9.91797 14.1016 7.6566C14.1016 5.59586 12.5684 3.90164 10.5859 3.61426ZM10 10.5863C8.38465 10.5863 7.07031 9.27195 7.07031 7.6566C7.07031 6.87441 7.37531 6.13856 7.92918 5.58523C8.15805 5.3575 8.52941 5.35691 8.75832 5.58582C8.98664 5.81527 8.98664 6.18605 8.75773 6.41496C8.42531 6.7468 8.24219 7.18738 8.24219 7.6566C8.24219 8.6259 9.0307 9.41441 10 9.41441C10.9693 9.41441 11.7578 8.6259 11.7578 7.6566C11.7578 7.18738 11.5747 6.7468 11.2423 6.41492C11.0134 6.18605 11.0134 5.81523 11.2417 5.58578C11.4705 5.35691 11.8419 5.35746 12.0708 5.5852C12.6247 6.13855 12.9297 6.87441 12.9297 7.6566C12.9297 9.27195 11.6154 10.5863 10 10.5863Z" fill="#9BB997"/>
<path d="M13.5156 15.2734H12.3438C12.0205 15.2734 11.7578 15.5361 11.7578 15.8594C11.7578 16.1827 12.0205 16.4453 12.3438 16.4453H13.5156C13.8389 16.4453 14.1016 16.1827 14.1016 15.8594C14.1016 15.5361 13.8389 15.2734 13.5156 15.2734Z" fill="#9BB997"/>
<path d="M7.65625 15.2734H6.48438C6.16109 15.2734 5.89844 15.5361 5.89844 15.8594C5.89844 16.1827 6.16109 16.4453 6.48438 16.4453H7.65625C7.97953 16.4453 8.24219 16.1827 8.24219 15.8594C8.24219 15.5361 7.97953 15.2734 7.65625 15.2734Z" fill="#9BB997"/>
<path d="M14.6875 0H5.3125C3.69715 0 2.38281 1.3534 2.38281 2.96875V17.0312C2.38281 18.6466 3.69715 20 5.3125 20H14.6875C16.3029 20 17.6172 18.6466 17.6172 17.0312V2.96875C17.6172 1.3534 16.3029 0 14.6875 0ZM7.65625 17.6172H6.48438C5.51508 17.6172 4.72656 16.8287 4.72656 15.8594C4.72656 14.8901 5.51508 14.1016 6.48438 14.1016H7.65625C8.62555 14.1016 9.41406 14.8901 9.41406 15.8594C9.41406 16.8287 8.62555 17.6172 7.65625 17.6172ZM13.5156 17.6172H12.3438C11.3745 17.6172 10.5859 16.8287 10.5859 15.8594C10.5859 14.8901 11.3745 14.1016 12.3438 14.1016H13.5156C14.4849 14.1016 15.2734 14.8901 15.2734 15.8594C15.2734 16.8287 14.4849 17.6172 13.5156 17.6172ZM10 12.9297C7.09207 12.9297 4.72656 10.5642 4.72656 7.65625C4.72656 4.74832 7.09207 2.38281 10 2.38281C12.9079 2.38281 15.2734 4.74832 15.2734 7.65625C15.2734 10.5642 12.9079 12.9297 10 12.9297Z" fill="#3E6B8E"/>
</svg>
