<svg width="20" height="20" viewBox="0 0 20 20" fill="none" xmlns="http://www.w3.org/2000/svg">
<path d="M9.99691 3.49609L1.5332 9.71914V20H9.41461V15.5558C8.09637 15.2841 7.10215 14.1145 7.10215 12.717V9.81859H7.98066V8.01371H9.15254V9.81859H10.8486V8.01371H12.0204V9.81859H12.8989V12.717C12.8989 14.1145 11.9047 15.2841 10.5865 15.5558V20H18.4679V9.83801L9.99691 3.49609ZM4.51391 18.4306L3.52633 17.7998L4.33656 16.5313H2.89414L4.57723 13.4216L5.60785 13.9794L4.8609 15.3594H6.47559L4.51391 18.4306ZM15.1185 18.4306L14.1309 17.7998L14.9412 16.5313H13.4987L15.1818 13.4216L16.2124 13.9794L15.4655 15.3594H17.0802L15.1185 18.4306Z" fill="#EA4B62"/>
<path d="M0 7.4582V8.66617H0.986562L10.0036 2.03625L18.8358 8.66617H20V7.56402L9.99758 0L0 7.4582Z" fill="#6B5E7A"/>
<path d="M17.737 1.18945H15.832V2.94266L17.737 4.3832V1.18945Z" fill="#6B5E7A"/>
<path d="M9.99996 14.4432C10.952 14.4432 11.7264 13.6688 11.7264 12.7168V10.9902H8.27344V12.7168C8.27344 13.6688 9.04797 14.4432 9.99996 14.4432Z" fill="#EA4B62"/>
</svg>
