<svg width="20" height="20" viewBox="0 0 20 20" fill="none" xmlns="http://www.w3.org/2000/svg">
<path d="M10.0012 13.1846C8.97734 14.1414 7.67578 15.6893 7.67578 16.6881C7.67578 16.9805 7.73051 17.2601 7.82945 17.518C7.9491 17.0524 8.25211 16.5354 8.7352 15.9751C9.17133 15.4692 10.0012 14.7648 10.0012 14.7648C10.0012 14.7648 10.8311 15.4692 11.2672 15.9751C11.7503 16.5354 12.0533 17.0524 12.173 17.518C12.2719 17.2601 12.3266 16.9805 12.3266 16.6881C12.3266 15.6893 11.0251 14.1415 10.0012 13.1846Z" fill="#EA4B62"/>
<path d="M19.3006 18.8281H17.683V10.4678H2.31879V18.8281H0.701172V20H8.87727C7.49836 19.5309 6.50359 18.2234 6.50359 16.6879C6.50359 15.7872 7.04117 14.707 8.10141 13.4771C8.85066 12.608 10.0009 11.6312 10.0009 11.6312C10.0009 11.6312 11.1511 12.608 11.9004 13.4771C12.9606 14.707 13.4982 15.7872 13.4982 16.6879C13.4982 18.2234 12.5034 19.5309 11.1245 20H19.3006V18.8281Z" fill="#6B5E7A"/>
<path d="M14.5209 7.2959H5.47938L2.89648 9.29543H17.1038L14.5209 7.2959Z" fill="#6B5E7A"/>
<path d="M7.94922 3.94629H12.0533V6.12457H7.94922V3.94629Z" fill="#6B5E7A"/>
<path d="M11.0603 17.9546C11.0603 17.5446 10.5162 16.8469 10.0018 16.3311C9.48754 16.8468 8.94336 17.5446 8.94336 17.9546C8.94336 18.5382 9.4182 19.013 10.0018 19.013C10.0201 19.013 10.0381 19.0121 10.0562 19.0117C10.6147 18.9832 11.0603 18.52 11.0603 17.9546Z" fill="#EA4B62"/>
<path d="M6.93527 2.14441H8.85426C9.1632 2.14441 9.41453 2.39578 9.41453 2.70469V2.95289H10.5864V2.70469C10.5864 1.74957 9.80937 0.972539 8.85426 0.972539H6.93527C6.62633 0.972539 6.375 0.721172 6.375 0.412266V0H5.20312V0.412305C5.20312 1.36742 5.98016 2.14441 6.93527 2.14441Z" fill="#6B5E7A"/>
</svg>
