<svg width="20" height="20" viewBox="0 0 20 20" fill="none" xmlns="http://www.w3.org/2000/svg">
<path d="M11.2227 18.3164V18.6312C11.2227 19.386 11.8367 20 12.5915 20C13.3463 20 13.9604 19.386 13.9604 18.6312V18.3164H11.2227Z" fill="#4D7EA5"/>
<path d="M1.41797 18.3164V18.6312C1.41797 19.386 2.03203 20 2.78684 20C3.5416 20 4.15566 19.386 4.15566 18.6312V18.3164H1.41797Z" fill="#4D7EA5"/>
<path d="M19.4201 1.42102V0.585938C19.4201 0.262344 19.1578 0 18.8342 0C18.5106 0 18.2482 0.262344 18.2482 0.585938V1.42074H17.0764V0.585938C17.0764 0.262344 16.814 0 16.4904 0C16.1668 0 15.9045 0.262344 15.9045 0.585938V1.42074C15.5809 1.42074 15.3186 1.68309 15.3186 2.00668V2.84313C15.3186 3.93023 16.0636 4.84652 17.0698 5.10852V14.9853H15.3784V6.76242C15.3784 6.43883 15.1161 6.17648 14.7925 6.17648H0.585938C0.262344 6.17648 0 6.43883 0 6.76242V16.5586C0 16.8821 0.262344 17.1445 0.585938 17.1445H14.7925C15.1161 17.1445 15.3785 16.8821 15.3785 16.5586V16.1572H17.6558C17.9794 16.1572 18.2417 15.8948 18.2417 15.5713V5.11039C19.2515 4.85086 20 3.93277 20 2.84309V2.00668C20 1.68512 19.7409 1.42434 19.4201 1.42102ZM4.53602 12.0382H2.89797C2.57438 12.0382 2.31203 11.7759 2.31203 11.4523C2.31203 11.1287 2.57438 10.8664 2.89797 10.8664H4.53602C4.85961 10.8664 5.12195 11.1287 5.12195 11.4523C5.12195 11.7759 4.85961 12.0382 4.53602 12.0382ZM4.53602 9.69449H2.89797C2.57438 9.69449 2.31203 9.43215 2.31203 9.10856C2.31203 8.78496 2.57438 8.52262 2.89797 8.52262H4.53602C4.85961 8.52262 5.12195 8.78496 5.12195 9.10856C5.12195 9.43215 4.85961 9.69449 4.53602 9.69449ZM8.50824 12.0382H6.8702C6.5466 12.0382 6.28426 11.7759 6.28426 11.4523C6.28426 11.1287 6.5466 10.8664 6.8702 10.8664H8.50824C8.83184 10.8664 9.09418 11.1287 9.09418 11.4523C9.09418 11.7759 8.83184 12.0382 8.50824 12.0382ZM8.50824 9.69449H6.8702C6.5466 9.69449 6.28426 9.43215 6.28426 9.10856C6.28426 8.78496 6.5466 8.52262 6.8702 8.52262H8.50824C8.83184 8.52262 9.09418 8.78496 9.09418 9.10856C9.09418 9.43215 8.83184 9.69449 8.50824 9.69449ZM12.4805 12.0382H10.8424C10.5188 12.0382 10.2565 11.7759 10.2565 11.4523C10.2565 11.1287 10.5188 10.8664 10.8424 10.8664H12.4805C12.8041 10.8664 13.0664 11.1287 13.0664 11.4523C13.0664 11.7759 12.8041 12.0382 12.4805 12.0382ZM12.4805 9.69449H10.8424C10.5188 9.69449 10.2565 9.43215 10.2565 9.10856C10.2565 8.78496 10.5188 8.52262 10.8424 8.52262H12.4805C12.8041 8.52262 13.0664 8.78496 13.0664 9.10856C13.0664 9.43215 12.8041 9.69449 12.4805 9.69449Z" fill="#4D7EA5"/>
</svg>
