<svg width="20" height="20" viewBox="0 0 20 20" fill="none" xmlns="http://www.w3.org/2000/svg">
<path d="M7.05469 7.0602H12.9432V3.52539H7.05469V7.0602ZM8.82231 4.70691H11.1756C11.4995 4.70691 11.7617 4.96949 11.7617 5.29301C11.7617 5.61652 11.4995 5.8791 11.1756 5.8791H8.82231C8.4984 5.8791 8.23621 5.61656 8.23621 5.29301C8.23621 4.96949 8.4984 4.70691 8.82231 4.70691Z" fill="#EA4B62"/>
<path d="M9.41016 11.1763C9.41016 11.5053 9.67809 11.7675 10.0009 11.7675C10.3255 11.7675 10.5913 11.5033 10.5913 11.1763C10.5909 10.8504 10.3264 10.5859 10.0009 10.5859C9.67508 10.5859 9.41055 10.8504 9.41016 11.1763Z" fill="#C06A87"/>
<path d="M9.99918 9.41391C10.7654 9.41391 11.4195 9.90582 11.6613 10.5904H16.4687V2.93039C16.4687 1.31437 15.1543 0 13.5383 0H6.45969C4.84367 0 3.5293 1.31437 3.5293 2.93039V10.5904H8.33668C8.57852 9.90582 9.23258 9.41391 9.99918 9.41391ZM5.88258 7.64629V2.93937C5.88258 2.61586 6.14516 2.35328 6.46867 2.35328H13.5293C13.8528 2.35328 14.1154 2.61582 14.1154 2.93937V7.64633C14.1154 7.97023 13.8528 8.23242 13.5293 8.23242H6.46867C6.14516 8.23238 5.88258 7.9702 5.88258 7.64629Z" fill="#EA4B62"/>
<path d="M19.4139 18.828H12.9398V17.6468H13.53C13.8537 17.6468 14.1161 17.3844 14.1161 17.0607V15.2359C15.4566 14.9671 16.4695 13.7813 16.4695 12.3628V11.7627H11.6625C11.4207 12.4476 10.7666 12.9399 10 12.9399C9.23301 12.9399 8.57895 12.4476 8.33711 11.7627H3.53012V12.3628C3.53012 13.7813 4.54297 14.9671 5.88352 15.2359V17.0607C5.88352 17.3843 6.1459 17.6468 6.46961 17.6468H7.06027V18.828H0.586094C0.262383 18.828 0 19.0904 0 19.4141C0 19.7378 0.262383 20.0002 0.586094 20.0002H7.64633C7.97 20.0002 8.23242 19.7378 8.23242 19.4141V17.6467H8.82309C9.14676 17.6467 9.40918 17.3843 9.40918 17.0606V15.2932H10.5905V17.0606C10.5905 17.3843 10.8529 17.6467 11.1766 17.6467H11.7677V19.4141C11.7677 19.7378 12.03 20.0002 12.3538 20.0002H19.414C19.7377 20.0002 20.0001 19.7378 20.0001 19.4141C20 19.0904 19.7376 18.828 19.4139 18.828Z" fill="#C06A87"/>
</svg>
