<svg width="24" height="25" viewBox="0 0 24 25" fill="none" xmlns="http://www.w3.org/2000/svg">
<path d="M4 3.60547H20C20.2652 3.60547 20.5196 3.71083 20.7071 3.89836C20.8946 4.0859 21 4.34025 21 4.60547V11.6055H3V4.60547C3 4.34025 3.10536 4.0859 3.29289 3.89836C3.48043 3.71083 3.73478 3.60547 4 3.60547ZM7 6.60547V8.60547H10V6.60547H7Z" fill="#3E6B8E"/>
<path d="M3 12.6055H21V19.6055C21 19.8707 20.8946 20.1251 20.7071 20.3126C20.5196 20.5001 20.2652 20.6055 20 20.6055H4C3.73478 20.6055 3.48043 20.5001 3.29289 20.3126C3.10536 20.1251 3 19.8707 3 19.6055V12.6055ZM7 15.6055V17.6055H10V15.6055H7Z" fill="#4D7EA5"/>
</svg>
