<svg width="20" height="19" viewBox="0 0 20 19" fill="none" xmlns="http://www.w3.org/2000/svg">
<path d="M15.5431 0.0683594H4.48599C2.48599 0.0683594 0.857422 1.69693 0.857422 3.69693V14.7541C0.857422 16.7255 2.48599 18.3541 4.48599 18.3541H15.5431C17.5431 18.3541 19.1431 16.7255 19.1431 14.7255V3.69693C19.1431 1.69693 17.5146 0.0683594 15.5431 0.0683594ZM17.686 14.7255C17.686 15.9255 16.7146 16.8969 15.5146 16.8969H4.48599C3.28599 16.8969 2.31456 15.9255 2.31456 14.7255V3.69693C2.31456 2.49693 3.28599 1.5255 4.48599 1.5255H15.5431C16.7431 1.5255 17.7146 2.49693 17.7146 3.69693V14.7255H17.686Z" fill="#F1D15B"/>
<path d="M8.54364 7.49707C8.11507 7.49707 7.80078 7.83993 7.80078 8.23993C7.80078 8.63993 8.14364 8.98278 8.54364 8.98278C8.94364 8.98278 9.2865 8.63993 9.2865 8.23993C9.31507 7.83993 8.97221 7.49707 8.54364 7.49707Z" fill="#F1D15B"/>
<path d="M16.0579 7.69718C16.4579 7.69718 16.7722 7.3829 16.7722 6.9829C16.7722 6.5829 16.4579 6.26861 16.0579 6.26861H15.8865V4.7829C15.8865 3.84004 15.1151 3.04004 14.1436 3.04004H5.54364C4.57221 3.04004 3.80078 3.81147 3.80078 4.7829V13.6972C3.80078 14.64 4.57221 15.44 5.54364 15.44H14.1436C15.0865 15.44 15.8865 14.6686 15.8865 13.6972V12.2115H16.0579C16.4579 12.2115 16.7722 11.8972 16.7722 11.4972C16.7722 11.0972 16.4579 10.7829 16.0579 10.7829H15.8865V7.69718H16.0579ZM9.2865 10.3258V11.6686C9.2865 12.0686 8.97221 12.3829 8.57221 12.3829C8.17221 12.3829 7.85792 12.0686 7.85792 11.6686V10.3258C7.00078 10.04 6.37221 9.21147 6.37221 8.24004C6.37221 7.04004 7.37221 6.04004 8.57221 6.04004C9.77221 6.04004 10.7722 7.04004 10.7722 8.24004C10.7436 9.21147 10.1436 10.0115 9.2865 10.3258Z" fill="#6B5E7A"/>
</svg>
