<svg width="20" height="20" viewBox="0 0 20 20" fill="none" xmlns="http://www.w3.org/2000/svg">
<path d="M6.5625 0.9375H0.9375V9.0625H6.5625V0.9375ZM2.8125 5.25V6.25C2.8125 6.4375 2.6875 6.5625 2.5 6.5625C2.3125 6.5625 2.1875 6.4375 2.1875 6.25V5.25C1.8125 5.125 1.5625 4.78125 1.5625 4.375C1.5625 3.84375 1.96875 3.4375 2.5 3.4375C3.03125 3.4375 3.4375 3.84375 3.4375 4.375C3.4375 4.78125 3.1875 5.125 2.8125 5.25Z" fill="#6B5E7A"/>
<path d="M2.5 4.6875C2.67259 4.6875 2.8125 4.54759 2.8125 4.375C2.8125 4.20241 2.67259 4.0625 2.5 4.0625C2.32741 4.0625 2.1875 4.20241 2.1875 4.375C2.1875 4.54759 2.32741 4.6875 2.5 4.6875Z" fill="#4D7EA5"/>
<path d="M6.875 18.4375H0.9375V19.0625H19.0625V18.4375H13.125H6.875Z" fill="#4D7EA5"/>
<path d="M2.5 13.4375C2.67259 13.4375 2.8125 13.2976 2.8125 13.125C2.8125 12.9524 2.67259 12.8125 2.5 12.8125C2.32741 12.8125 2.1875 12.9524 2.1875 13.125C2.1875 13.2976 2.32741 13.4375 2.5 13.4375Z" fill="#4D7EA5"/>
<path d="M0.9375 9.6875V17.8125H6.5625V9.6875H0.9375ZM2.8125 14V15C2.8125 15.1875 2.6875 15.3125 2.5 15.3125C2.3125 15.3125 2.1875 15.1875 2.1875 15V14C1.8125 13.875 1.5625 13.5312 1.5625 13.125C1.5625 12.5938 1.96875 12.1875 2.5 12.1875C3.03125 12.1875 3.4375 12.5938 3.4375 13.125C3.4375 13.5312 3.1875 13.875 2.8125 14Z" fill="#4D7EA5"/>
<path d="M8.75 4.6875C8.92259 4.6875 9.0625 4.54759 9.0625 4.375C9.0625 4.20241 8.92259 4.0625 8.75 4.0625C8.57741 4.0625 8.4375 4.20241 8.4375 4.375C8.4375 4.54759 8.57741 4.6875 8.75 4.6875Z" fill="#4D7EA5"/>
<path d="M7.1875 0.9375V9.0625H12.8125V0.9375H7.1875ZM9.0625 5.25V6.25C9.0625 6.4375 8.9375 6.5625 8.75 6.5625C8.5625 6.5625 8.4375 6.4375 8.4375 6.25V5.25C8.0625 5.125 7.8125 4.78125 7.8125 4.375C7.8125 3.84375 8.21875 3.4375 8.75 3.4375C9.28125 3.4375 9.6875 3.84375 9.6875 4.375C9.6875 4.78125 9.4375 5.125 9.0625 5.25Z" fill="#4D7EA5"/>
<path d="M8.75 13.4375C8.92259 13.4375 9.0625 13.2976 9.0625 13.125C9.0625 12.9524 8.92259 12.8125 8.75 12.8125C8.57741 12.8125 8.4375 12.9524 8.4375 13.125C8.4375 13.2976 8.57741 13.4375 8.75 13.4375Z" fill="#6B5E7A"/>
<path d="M7.1875 9.6875V17.8125H12.8125V9.6875H7.1875ZM9.0625 14V15C9.0625 15.1875 8.9375 15.3125 8.75 15.3125C8.5625 15.3125 8.4375 15.1875 8.4375 15V14C8.0625 13.875 7.8125 13.5312 7.8125 13.125C7.8125 12.5938 8.21875 12.1875 8.75 12.1875C9.28125 12.1875 9.6875 12.5938 9.6875 13.125C9.6875 13.5312 9.4375 13.875 9.0625 14Z" fill="#6B5E7A"/>
<path d="M15 4.6875C15.1726 4.6875 15.3125 4.54759 15.3125 4.375C15.3125 4.20241 15.1726 4.0625 15 4.0625C14.8274 4.0625 14.6875 4.20241 14.6875 4.375C14.6875 4.54759 14.8274 4.6875 15 4.6875Z" fill="#6B5E7A"/>
<path d="M13.4375 0.9375V9.0625H19.0625V0.9375H13.4375ZM15.3125 5.25V6.25C15.3125 6.4375 15.1875 6.5625 15 6.5625C14.8125 6.5625 14.6875 6.4375 14.6875 6.25V5.25C14.3125 5.125 14.0625 4.78125 14.0625 4.375C14.0625 3.84375 14.4688 3.4375 15 3.4375C15.5312 3.4375 15.9375 3.84375 15.9375 4.375C15.9375 4.78125 15.6875 5.125 15.3125 5.25Z" fill="#6B5E7A"/>
<path d="M15 13.4375C15.1726 13.4375 15.3125 13.2976 15.3125 13.125C15.3125 12.9524 15.1726 12.8125 15 12.8125C14.8274 12.8125 14.6875 12.9524 14.6875 13.125C14.6875 13.2976 14.8274 13.4375 15 13.4375Z" fill="#4D7EA5"/>
<path d="M13.4375 9.6875V17.8125H19.0625V9.6875H13.4375ZM15.3125 14V15C15.3125 15.1875 15.1875 15.3125 15 15.3125C14.8125 15.3125 14.6875 15.1875 14.6875 15V14C14.3125 13.875 14.0625 13.5312 14.0625 13.125C14.0625 12.5938 14.4688 12.1875 15 12.1875C15.5312 12.1875 15.9375 12.5938 15.9375 13.125C15.9375 13.5312 15.6875 13.875 15.3125 14Z" fill="#4D7EA5"/>
</svg>
