<svg width="20" height="20" viewBox="0 0 20 20" fill="none" xmlns="http://www.w3.org/2000/svg">
<g clip-path="url(#clip0_3974_26747)">
<path d="M13.7748 5.09766H6.2254L4.07422 9.13651H15.926L13.7748 5.09766Z" fill="#EA4B61"/>
<path d="M11.5598 0.939026C11.2513 0.359802 10.6537 0 10.0002 0C9.34665 0 8.74911 0.359802 8.44058 0.939026L6.85352 3.91876H13.1469L11.5598 0.939026Z" fill="#EA4B61"/>
<path d="M18.8989 14.6736L16.5539 10.3154H3.44602L1.14012 14.6736C0.910929 15.1036 0.923289 15.6102 1.17292 16.0285C1.4221 16.4463 1.86018 16.6956 2.3448 16.6956H5.24656C5.24305 16.619 5.24122 16.5421 5.24122 16.4646C5.24122 13.8185 7.37745 11.6735 10.0126 11.6735C12.6478 11.6735 14.7841 13.8185 14.7841 16.4646C14.7841 16.5421 14.7822 16.6191 14.7787 16.6956H17.6942C18.1788 16.6956 18.6169 16.4463 18.8661 16.0286C19.1157 15.6102 19.1281 15.1036 18.8989 14.6736Z" fill="#EA4B61"/>
<path d="M10.0342 12.9102C8.08456 12.9102 6.50391 14.4972 6.50391 16.4551C6.50391 18.4128 8.08456 19.9998 10.0342 19.9998C11.9839 19.9998 13.5645 18.4128 13.5645 16.4551C13.5645 14.4972 11.9839 12.9102 10.0342 12.9102ZM11.6809 16.8771C11.5729 16.9638 11.4436 17.0059 11.3152 17.0059C11.1427 17.0059 10.9718 16.9299 10.856 16.7841L10.6212 16.4886V17.9745C10.6212 18.3 10.3584 18.564 10.0342 18.564C9.71008 18.564 9.44717 18.3 9.44717 17.9745V16.4459L9.16336 16.7915C8.95706 17.0427 8.58704 17.0782 8.33694 16.8712C8.08685 16.664 8.0513 16.2926 8.2576 16.0414L9.38248 14.6718C9.54437 14.4748 9.7821 14.3645 10.0377 14.3648C10.2922 14.3669 10.5292 14.4827 10.688 14.6825L11.7737 16.0487C11.9759 16.3033 11.9344 16.6742 11.6809 16.8771Z" fill="#9BB997"/>
</g>
<defs>
<clipPath id="clip0_3974_26747">
<rect width="20" height="20" fill="white"/>
</clipPath>
</defs>
</svg>
