<svg width="20" height="21" viewBox="0 0 20 21" fill="none" xmlns="http://www.w3.org/2000/svg">
<path d="M12.5 13.168H1.5625C0.69957 13.168 0 13.8675 0 14.7305V14.9258H2.14844C2.47203 14.9258 2.73438 15.1881 2.73438 15.5117C2.73438 15.8353 2.47203 16.0977 2.14844 16.0977H0V17.2695C0 17.5931 0.262344 17.8555 0.585938 17.8555H13.4766C13.8002 17.8555 14.0625 17.5931 14.0625 17.2695V16.0977H11.9141C11.5905 16.0977 11.3281 15.8353 11.3281 15.5117C11.3281 15.1881 11.5905 14.9258 11.9141 14.9258H14.0625V14.7305C14.0625 13.8675 13.3629 13.168 12.5 13.168ZM8.78906 16.0977H5.27344C4.94984 16.0977 4.6875 15.8353 4.6875 15.5117C4.6875 15.1881 4.94984 14.9258 5.27344 14.9258H8.78906C9.11266 14.9258 9.375 15.1881 9.375 15.5117C9.375 15.8353 9.11266 16.0977 8.78906 16.0977Z" fill="#695F7E"/>
<path d="M2.62074 9.6209L1.9082 11.9961H12.1551L11.4425 9.6209C11.1678 8.70512 10.3408 8.08984 9.38473 8.08984H4.67856C3.72246 8.08984 2.89551 8.70512 2.62074 9.6209Z" fill="#695F7E"/>
<path d="M17.8516 19.2227H16.875V9.76953H15.7031V19.2227H14.7266C14.403 19.2227 14.1406 19.485 14.1406 19.8086C14.1406 20.1322 14.403 20.3945 14.7266 20.3945H17.8516C18.1752 20.3945 18.4375 20.1322 18.4375 19.8086C18.4375 19.485 18.1752 19.2227 17.8516 19.2227Z" fill="#695F7E"/>
<path d="M16.4679 3.12891H15.8809C15.8815 3.35355 15.8821 3.61344 15.8821 3.73039C15.8821 3.86789 15.8832 4.11871 15.8843 4.33402C16.0929 4.33293 16.3335 4.33184 16.4679 4.33184C16.8045 4.33184 17.0889 4.05641 17.0889 3.73039C17.0889 3.40438 16.8045 3.12891 16.4679 3.12891Z" fill="#EA4B61"/>
<path d="M18.6328 0.394531H13.9453C13.1914 0.394531 12.5781 1.00785 12.5781 1.76172V7.23047C12.5781 7.98434 13.1914 8.59766 13.9453 8.59766H18.6328C19.3867 8.59766 20 7.98434 20 7.23047V1.76172C20 1.00785 19.3867 0.394531 18.6328 0.394531ZM16.468 5.11312C16.3331 5.11312 16.0892 5.11422 15.8798 5.11535V6.25391C15.8798 6.46961 15.7048 6.64453 15.4891 6.64453C15.2734 6.64453 15.0985 6.46961 15.0985 6.25391V2.73828H15.0986C15.0986 2.63492 15.1395 2.53574 15.2125 2.4625C15.2858 2.38895 15.3854 2.34766 15.4891 2.34766H16.468C17.2412 2.34766 17.8702 2.96797 17.8702 3.73039C17.8702 4.49281 17.2412 5.11312 16.468 5.11312Z" fill="#EA4B61"/>
<path d="M2.53906 20.3945C1.89184 20.3945 1.36719 19.8699 1.36719 19.2227V19.0273H3.71094V19.2227C3.71094 19.8699 3.18629 20.3945 2.53906 20.3945Z" fill="#EA4B61"/>
<path d="M11.5234 20.3945C10.8762 20.3945 10.3516 19.8699 10.3516 19.2227V19.0273H12.6953V19.2227C12.6953 19.8699 12.1707 20.3945 11.5234 20.3945Z" fill="#EA4B61"/>
</svg>
