<svg width="20" height="20" viewBox="0 0 20 20" fill="none" xmlns="http://www.w3.org/2000/svg">
<g clip-path="url(#clip0_3974_25835)">
<path d="M19.0423 2.58301V0.208008H15.459V2.58301H14.709V9.08301H15.959V10.333H16.584V17.2497C16.584 17.958 16.0007 18.5413 15.2507 18.5413H7.62565C6.87565 18.5413 6.29232 17.958 6.29232 17.2497V16.8747H7.66732V15.2497H9.45899C10.3757 15.2497 11.084 14.5413 11.084 13.6247V10.208H0.208984V13.6247C0.208984 14.4997 0.958984 15.2497 1.83398 15.2497H3.62565V16.8747H5.00065V17.2497C5.00065 18.6663 6.16732 19.833 7.58398 19.833H15.2507C16.6673 19.833 17.834 18.6663 17.834 17.2497V10.333H18.459V9.08301H19.709V2.58301H19.0423ZM18.1673 2.58301H16.2923V1.04134H18.1673V2.58301Z" fill="#4D7EA5"/>
<path d="M11.1257 5.79134H10.3757V1.91634H8.08398V5.79134H7.45898V4.29134H6.83398V0.208008H4.45898V4.29134H3.83398V5.79134H3.20898V1.91634H0.958984V5.79134H0.208984V9.33301H11.1257V5.79134ZM2.37565 5.79134H1.79232V2.74967H2.37565V5.79134ZM6.00065 4.29134H5.33398V1.04134H6.00065V4.29134ZM9.54232 5.79134H8.95898V2.74967H9.54232V5.79134Z" fill="#EA4B62"/>
</g>
<defs>
<clipPath id="clip0_3974_25835">
<rect width="20" height="20" fill="white"/>
</clipPath>
</defs>
</svg>
