<svg width="20" height="20" viewBox="0 0 20 20" fill="none" xmlns="http://www.w3.org/2000/svg">
<g clip-path="url(#clip0_3974_26760)">
<path d="M15.2734 18.8672H4.72656V20H15.2734V18.8672Z" fill="#F2727F"/>
<path d="M15.2734 16.5234H4.72656V17.6953H15.2734V16.5234Z" fill="#F2727F"/>
<path d="M15.2734 11.8359H4.72656V13.0078H15.2734V11.8359Z" fill="#F2727F"/>
<path d="M15.2734 14.1797H4.72656V15.3516H15.2734V14.1797Z" fill="#F2727F"/>
<path d="M19.8284 3.68734L16.3127 0.171641C16.2028 0.0617578 16.0538 0 15.8983 0H4.10168C3.94625 0 3.79723 0.0617578 3.68734 0.171641L0.171641 3.68734C0.0617188 3.79723 0 3.94625 0 4.10164V7.69547C0 8.01906 0.262344 8.28141 0.585938 8.28141H19.4141C19.7377 8.28141 20 8.01906 20 7.69547V4.10164C20 3.94625 19.9383 3.79723 19.8284 3.68734ZM13.4757 5.89844H12.9288C12.1722 5.89844 11.5287 5.40695 11.2996 4.72664H8.70035C8.47129 5.40691 7.82781 5.89844 7.07125 5.89844H6.52434C6.20074 5.89844 5.9384 5.63609 5.9384 5.3125C5.9384 4.98891 6.20074 4.72656 6.52434 4.72656H7.07125C7.13266 4.72656 7.19394 4.71625 7.25187 4.69594C7.62844 4.56387 7.74203 4.03875 7.48328 3.7425C7.38004 3.62426 7.22824 3.55492 7.07121 3.55492C7.06594 3.55492 6.52449 3.55492 6.52449 3.55492C6.2009 3.55492 5.93855 3.29258 5.93855 2.96898C5.93855 2.64539 6.2009 2.38305 6.52449 2.38305H7.07125C7.82777 2.38305 8.47125 2.87453 8.70031 3.55484H11.2996C11.5287 2.87457 12.1721 2.38305 12.9287 2.38305H13.4755C13.7991 2.38305 14.0614 2.64539 14.0614 2.96898C14.0614 3.29258 13.7991 3.55492 13.4755 3.55492H12.9287C12.8621 3.55492 12.7956 3.56707 12.7334 3.59094C12.3627 3.73309 12.2605 4.25969 12.5255 4.54883C12.6285 4.66121 12.7762 4.7266 12.9287 4.7266C12.9289 4.7266 13.4756 4.7266 13.4756 4.7266C13.7992 4.7266 14.0616 4.98895 14.0616 5.31254C14.0616 5.63613 13.7993 5.89844 13.4757 5.89844Z" fill="#6B5E7A"/>
<path d="M1.21094 19.4139C1.21094 19.7375 1.47328 19.9998 1.79688 19.9998H3.55469V11.2498C3.55469 10.9263 3.81703 10.6639 4.14062 10.6639H15.8594C16.183 10.6639 16.4453 10.9263 16.4453 11.2498V19.9998H18.2031C18.5267 19.9998 18.7891 19.7375 18.7891 19.4139V9.45312H1.21094V19.4139Z" fill="#F2727F"/>
</g>
<defs>
<clipPath id="clip0_3974_26760">
<rect width="20" height="20" fill="white"/>
</clipPath>
</defs>
</svg>
