<svg width="18" height="20" viewBox="0 0 18 20" fill="none" xmlns="http://www.w3.org/2000/svg">
<path fill-rule="evenodd" clip-rule="evenodd" d="M7.9718 7.2813C8.1742 7.5169 8.5862 7.6365 9.1954 7.6365C9.3902 7.6365 9.5482 7.7949 9.5482 7.9901C9.5482 8.1849 9.3898 8.3429 9.1954 8.3429C8.3602 8.3429 7.7846 8.1461 7.4366 7.7417C7.107 7.3601 7.0002 6.8229 7.107 6.1001C7.1358 5.9073 7.329 5.7769 7.5082 5.8037C7.7018 5.8317 7.8354 6.0117 7.8058 6.2049C7.7306 6.7121 7.7846 7.0641 7.9718 7.2813ZM3.8162 9.5381V7.0749C3.8162 6.2553 3.1498 5.5877 2.3298 5.5877C1.509 5.5885 0.841797 6.2549 0.841797 7.0741V12.4429C0.841797 12.5017 0.856197 12.5585 0.883397 12.6093L2.8134 16.2217L2.6242 16.9257H7.1098L7.4862 15.5213C7.5078 15.4373 7.4994 15.3397 7.4566 15.2641L5.0454 10.7505C4.9174 10.5113 4.7014 10.3357 4.4422 10.2573C4.1834 10.1793 3.9062 10.2045 3.667 10.3317C3.4302 10.4577 3.2514 10.6781 3.173 10.9345C3.0938 11.1941 3.1206 11.4729 3.2482 11.7121L4.3294 13.7353C4.421 13.9073 4.3558 14.1209 4.1838 14.2133C4.0118 14.3033 3.7982 14.2405 3.7062 14.0681L2.625 12.0449C2.409 11.6401 2.363 11.1673 2.497 10.7285C2.6298 10.2925 2.9326 9.9221 3.3354 9.7077C3.4882 9.6269 3.6502 9.5705 3.8162 9.5381ZM7.171 17.6301L1.5338 17.6293C1.3386 17.6293 1.1802 17.7885 1.1802 17.9833V19.6457C1.1802 19.8409 1.3378 19.9997 1.5338 19.9997L7.1702 20.0001C7.365 20.0001 7.5238 19.8413 7.5238 19.6465L7.5246 17.9833C7.5246 17.7881 7.3658 17.6301 7.171 17.6301ZM10.4742 17.9833L10.475 19.6465C10.475 19.8413 10.6338 20.0001 10.829 20.0001L16.4654 19.9993C16.6614 19.9993 16.819 19.8409 16.819 19.6453V17.9829C16.819 17.7881 16.6606 17.6289 16.4654 17.6289L10.8282 17.6301C10.633 17.6301 10.4742 17.7881 10.4742 17.9833ZM10.8882 16.9257H15.3738L15.1846 16.2217L17.1146 12.6093C17.1418 12.5585 17.1566 12.5017 17.1566 12.4429V7.0741C17.1566 6.2549 16.4894 5.5885 15.6686 5.5877C14.8486 5.5877 14.1822 6.2549 14.1822 7.0749V9.5381C14.3482 9.5701 14.5102 9.6269 14.6626 9.7077C15.0654 9.9221 15.3682 10.2921 15.501 10.7285C15.635 11.1673 15.589 11.6401 15.373 12.0449L14.2918 14.0681C14.2002 14.2409 13.9862 14.3037 13.8146 14.2133C13.6426 14.1209 13.5774 13.9073 13.669 13.7353L14.7502 11.7121C14.8778 11.4729 14.9042 11.1941 14.8254 10.9345C14.747 10.6781 14.5682 10.4577 14.3314 10.3317C14.0922 10.2045 13.815 10.1793 13.5562 10.2573C13.2966 10.3357 13.0806 10.5113 12.9526 10.7505L10.5414 15.2641C10.4986 15.3397 10.4902 15.4373 10.5118 15.5213L10.8882 16.9257ZM12.163 7.3333C12.2578 6.6373 12.1334 5.7829 11.7926 4.7941C11.2246 3.1465 10.2738 1.5797 9.2902 0.1449C9.1582 -0.0483 8.8398 -0.0483 8.7082 0.1449C7.7254 1.5769 6.773 3.1501 6.2058 4.7941C5.865 5.7829 5.7402 6.6373 5.835 7.3333C5.9626 8.2645 6.4814 8.9421 7.3366 9.2909C8.259 9.6689 9.7382 9.6693 10.6602 9.2909C11.5154 8.9421 12.0342 8.2649 12.163 7.3333Z" fill="#FFB6A3"/>
<path d="M11.7926 4.7941C12.1334 5.7829 12.2578 6.6373 12.163 7.3333C12.0342 8.2649 11.5154 8.9421 10.6602 9.2909C9.7382 9.6693 8.259 9.6689 7.3366 9.2909C6.4814 8.9421 5.9626 8.2645 5.835 7.3333C5.7402 6.6373 5.865 5.7829 6.2058 4.7941C6.773 3.1501 7.7254 1.5769 8.7082 0.1449C8.8398 -0.0483 9.1582 -0.0483 9.2902 0.1449C10.2738 1.5797 11.2246 3.1465 11.7926 4.7941Z" fill="#4D7EA5"/>
</svg>
