<svg width="20" height="20" viewBox="0 0 20 20" fill="none" xmlns="http://www.w3.org/2000/svg">
<g clip-path="url(#clip0_3972_23672)">
<path d="M19.2575 15.0016C19.1235 15.0016 18.9888 14.9559 18.8786 14.8624L13.7904 10.5428L8.70332 14.8623C8.45664 15.0718 8.08683 15.0416 7.87742 14.795C7.66797 14.5483 7.69812 14.1785 7.9448 13.9691L13.4111 9.32754C13.6298 9.14184 13.9508 9.1418 14.1696 9.32754L19.6371 13.9691C19.8837 14.1785 19.914 14.5482 19.7046 14.795C19.5887 14.9315 19.4236 15.0016 19.2575 15.0016ZM10.0218 7.80859C10.0218 6.5102 8.96336 5.45387 7.66234 5.45387C6.36133 5.45387 5.30391 6.5102 5.30391 7.80859C5.30391 9.10699 6.36191 10.1643 7.66234 10.1643C8.96277 10.1643 10.0218 9.10754 10.0218 7.80859ZM8.19543 19.2734C8.07937 19.3876 7.96555 19.4999 7.85492 19.6098C7.8016 19.6627 7.73191 19.6892 7.66223 19.6892C7.59254 19.6892 7.52281 19.6627 7.46945 19.6097C7.27207 19.4136 7.06531 19.2103 6.85156 19.0002C5.49777 17.6697 3.81293 16.0139 2.48742 14.143C0.918828 11.9289 0.15625 9.85691 0.15625 7.80852C0.15625 3.67414 3.52344 0.310547 7.66226 0.310547C11.8011 0.310547 15.1695 3.67414 15.1695 7.80855C15.1695 8.07266 15.1563 8.33879 15.1303 8.6059L14.928 8.43418C14.6107 8.16477 14.2066 8.01641 13.7904 8.01641C13.3741 8.01641 12.97 8.16477 12.6526 8.4343L7.18625 13.0759C6.44746 13.7032 6.35684 14.8147 6.98414 15.5535C7.29074 15.9146 7.72672 16.134 8.19543 16.1683V19.2734ZM7.66234 11.3362C9.60957 11.3362 11.1937 9.75371 11.1937 7.80859C11.1937 5.86348 9.60953 4.28199 7.66234 4.28199C5.71516 4.28199 4.13203 5.86402 4.13203 7.80859C4.13203 9.75316 5.71574 11.3362 7.66234 11.3362ZM13.2615 19.6891H14.3193V16.1918H13.2615V19.6891ZM18.1203 15.7558L13.7905 12.0801L9.46187 15.7556C9.43121 15.7816 9.39953 15.8061 9.36734 15.8299V19.4157C9.36734 19.5667 9.48977 19.6891 9.64078 19.6891H12.0896V15.6058C12.0896 15.2822 12.352 15.0199 12.6755 15.0199H14.9052C15.2288 15.0199 15.4911 15.2822 15.4911 15.6058V19.6891H17.9411C18.0921 19.6891 18.2146 19.5667 18.2146 19.4157V15.8298C18.1825 15.8062 18.1509 15.7818 18.1203 15.7558Z" fill="#F2727F"/>
<path d="M14.3192 19.6907H13.2615V16.1934H14.3192V19.6907Z" fill="#F2727F"/>
<path d="M24.3192 29.6907H23.2615V26.1934H24.3192V29.6907Z" fill="#F2727F"/>
<path d="M14.3192 19.6923H13.2615V16.195H14.3192V19.6923Z" fill="#315D80"/>
<path d="M18.8787 14.8636C18.9889 14.9571 19.1236 15.0028 19.2576 15.0028C19.4237 15.0028 19.5887 14.9327 19.7046 14.7962C19.914 14.5494 19.8838 14.1797 19.6371 13.9703L14.1696 9.32874C13.9509 9.143 13.6299 9.14304 13.4111 9.32874L7.94485 13.9703C7.69817 14.1797 7.66802 14.5495 7.87747 14.7962C8.08688 15.0428 8.45669 15.073 8.70337 14.8635L13.7904 10.544L18.8787 14.8636Z" fill="#315D80"/>
<path d="M10.0212 7.75412C10.0215 7.76652 10.0217 7.77895 10.0218 7.79141C10.0219 7.79794 10.0219 7.80447 10.0219 7.81102C10.0219 9.10996 8.96283 10.1668 7.6624 10.1668C6.39378 10.1668 5.35591 9.16051 5.30589 7.90586C5.3046 7.87399 5.30396 7.84197 5.30396 7.8098C5.30396 6.51141 6.36138 5.45508 7.66239 5.45508C8.94476 5.45508 9.99149 6.48134 10.0212 7.75412Z" fill="#315D80"/>
</g>
<defs>
<clipPath id="clip0_3972_23672">
<rect width="20" height="20" fill="white"/>
</clipPath>
</defs>
</svg>
