<svg width="20" height="20" viewBox="0 0 20 20" fill="none" xmlns="http://www.w3.org/2000/svg">
<g clip-path="url(#clip0_3972_23894)">
<path d="M11.2799 9.67102C11.4087 9.44082 11.5756 9.2348 11.772 9.06129L11.6156 8.77051H10.1289L11.2799 9.67102Z" fill="#6B5E7A"/>
<path d="M6.68891 11.3692C6.59152 11.3692 6.49285 11.3441 6.40281 11.2912C6.13301 11.1329 6.04262 10.7859 6.20094 10.5161L6.73117 9.61238C6.7173 9.61191 6.70344 9.61133 6.68945 9.61133C6.03254 9.61133 5.49805 10.1458 5.49805 10.8027C5.49805 11.4597 6.03254 11.9941 6.68945 11.9941C7.34637 11.9941 7.88086 11.4597 7.88086 10.8027C7.88086 10.577 7.81773 10.3657 7.70824 10.1856L7.17797 11.0894C7.0725 11.2691 6.88324 11.3692 6.68891 11.3692Z" fill="#6B5E7A"/>
<path d="M13.3561 9.61328L13.8093 10.4563C13.9575 10.7318 13.8542 11.0752 13.5787 11.2234C13.4934 11.2693 13.4016 11.291 13.311 11.291C13.1092 11.291 12.9139 11.1829 12.8117 10.9927L12.3395 10.1146C12.2009 10.3093 12.1191 10.547 12.1191 10.8035C12.1191 11.4605 12.6536 11.9949 13.3105 11.9949C13.9675 11.9949 14.502 11.4605 14.502 10.8035C14.5019 10.1619 13.992 9.63734 13.3561 9.61328Z" fill="#6B5E7A"/>
<path d="M10 3.51562C6.42449 3.51562 3.51562 6.42449 3.51562 10C3.51562 13.5755 6.42449 16.4844 10 16.4844C13.5755 16.4844 16.4844 13.5755 16.4844 10C16.4844 6.42449 13.5755 3.51562 10 3.51562ZM13.3098 13.1273C12.0542 13.1273 11.0287 12.1263 10.9876 10.8805L8.46121 8.90379L8.31863 9.1468C8.74766 9.56871 9.01438 10.1552 9.01438 10.803C9.01438 12.0846 7.97176 13.1273 6.69016 13.1273C5.40856 13.1273 4.36594 12.0846 4.36594 10.803C4.36594 9.52145 5.40856 8.47883 6.69016 8.47883C6.91648 8.47883 7.13516 8.51195 7.34215 8.57258L7.73824 7.89754L7.78 6.40754C7.78859 6.10102 8.03957 5.85699 8.34617 5.85699H9.60473C9.91754 5.85699 10.1711 6.11059 10.1711 6.4234C10.1711 6.73621 9.91754 6.9898 9.60473 6.9898H8.89695L8.87879 7.63812H11.0074L10.9 7.43844C10.8056 7.26289 10.8104 7.05066 10.9127 6.87961C11.0149 6.70855 11.1995 6.60379 11.3988 6.60379H12.7792C13.092 6.60379 13.3456 6.85738 13.3456 7.1702C13.3456 7.48301 13.092 7.7366 12.7792 7.7366H12.3465L12.7789 8.54074C12.9496 8.5007 13.1271 8.47883 13.3098 8.47883C14.5914 8.47883 15.6341 9.52145 15.6341 10.803C15.6341 12.0846 14.5914 13.1273 13.3098 13.1273Z" fill="#6B5E7A"/>
<path d="M17.0711 2.92891C15.1823 1.0402 12.6711 0 10 0C7.32891 0 4.8177 1.0402 2.92891 2.92891C1.0402 4.8177 0 7.32891 0 10C0 12.6711 1.0402 15.1823 2.92891 17.0711C4.8177 18.9598 7.32891 20 10 20C12.6711 20 15.1823 18.9598 17.0711 17.0711C18.9598 15.1823 20 12.6711 20 10C20 7.32891 18.9598 4.8177 17.0711 2.92891ZM10 17.6562C5.77832 17.6562 2.34375 14.2217 2.34375 10C2.34375 5.77832 5.77832 2.34375 10 2.34375C14.2217 2.34375 17.6562 5.77832 17.6562 10C17.6562 14.2217 14.2217 17.6562 10 17.6562Z" fill="#315D80"/>
</g>
<defs>
<clipPath id="clip0_3972_23894">
<rect width="20" height="20" fill="white"/>
</clipPath>
</defs>
</svg>
