<svg width="19" height="20" viewBox="0 0 19 20" fill="none" xmlns="http://www.w3.org/2000/svg">
<path d="M17.3086 1.5625H13.8711V2.1875H17.3086C17.4742 2.18799 17.6329 2.25399 17.75 2.3711C17.8671 2.4882 17.9331 2.64689 17.9336 2.8125C17.9324 2.97789 17.8662 3.13616 17.7492 3.25312C17.6323 3.37007 17.474 3.4363 17.3086 3.4375H16.6836C16.6007 3.4375 16.5212 3.47042 16.4626 3.52903C16.404 3.58763 16.3711 3.66712 16.3711 3.75C16.3711 3.83288 16.404 3.91237 16.4626 3.97097C16.5212 4.02958 16.6007 4.0625 16.6836 4.0625H17.3086C17.6401 4.0625 17.9581 3.9308 18.1925 3.69638C18.4269 3.46196 18.5586 3.14402 18.5586 2.8125C18.5586 2.48098 18.4269 2.16304 18.1925 1.92862C17.9581 1.6942 17.6401 1.5625 17.3086 1.5625Z" fill="#EA4B62"/>
<path d="M17.1211 8.00293L16.7523 9.44355C16.6192 9.95897 16.4339 10.4595 16.1992 10.9373H16.3711C16.7182 10.9371 17.0553 10.8215 17.3294 10.6085C17.6035 10.3956 17.7989 10.0975 17.8849 9.76118C17.9708 9.42491 17.9424 9.06959 17.8041 8.75124C17.6658 8.43289 17.4255 8.16962 17.1211 8.00293Z" fill="#6B5E7A"/>
<path d="M1.24608 8.00293C0.941639 8.16962 0.70133 8.43289 0.563036 8.75124C0.424743 9.06959 0.396332 9.42491 0.482282 9.76118C0.568232 10.0975 0.763654 10.3956 1.03774 10.6085C1.31183 10.8215 1.64899 10.9371 1.99608 10.9373H2.16796C1.93332 10.4595 1.74799 9.95897 1.61483 9.44355L1.24608 8.00293Z" fill="#6B5E7A"/>
<path d="M5.08646 14.1465L3.66053 19.6082C3.64846 19.6544 3.64715 19.7027 3.65669 19.7496C3.66624 19.7964 3.68638 19.8403 3.71558 19.8781C3.74478 19.9159 3.78226 19.9466 3.82514 19.9676C3.86801 19.9887 3.91514 19.9996 3.96291 19.9996H4.56685C4.63601 19.9996 4.70321 19.9767 4.75793 19.9344C4.81265 19.8921 4.8518 19.8328 4.86924 19.7659L6.18646 14.7121C5.80448 14.555 5.4365 14.3657 5.08646 14.1465Z" fill="#6B5E7A"/>
<path d="M13.2797 14.1465C12.9297 14.3657 12.5617 14.555 12.1797 14.7121L13.4969 19.7659C13.5144 19.8328 13.5535 19.8921 13.6082 19.9344C13.6629 19.9767 13.7301 19.9996 13.7993 19.9996H14.4032C14.451 19.9996 14.4981 19.9887 14.541 19.9676C14.5839 19.9465 14.6214 19.9159 14.6506 19.8781C14.6798 19.8403 14.6999 19.7964 14.7094 19.7495C14.719 19.7027 14.7177 19.6544 14.7056 19.6082L13.2797 14.1465Z" fill="#6B5E7A"/>
<path d="M2.2207 9.28711C2.56703 10.623 3.28931 11.8316 4.30185 12.7693C5.31439 13.7071 6.57468 14.3347 7.9332 14.5777V14.3746C7.9332 14.0431 8.0649 13.7251 8.29932 13.4907C8.53374 13.2563 8.85168 13.1246 9.1832 13.1246C9.51472 13.1246 9.83267 13.2563 10.0671 13.4907C10.3015 13.7251 10.4332 14.0431 10.4332 14.3746V14.5777C11.7917 14.3347 13.052 13.7071 14.0646 12.7693C15.0771 11.8316 15.7994 10.623 16.1457 9.28711C14.8895 10.484 12.3395 11.2496 9.1832 11.2496C6.02695 11.2496 3.47695 10.484 2.2207 9.28711ZM10.7457 12.1184C10.7488 12.1592 10.7438 12.2002 10.731 12.2392C10.7183 12.2781 10.698 12.3141 10.6713 12.3451C10.6446 12.3762 10.612 12.4017 10.5754 12.4201C10.5389 12.4386 10.499 12.4497 10.4582 12.4527C10.0395 12.484 9.61133 12.4996 9.1832 12.4996C8.75508 12.4996 8.32695 12.484 7.9082 12.4527C7.86736 12.4497 7.82753 12.4386 7.79097 12.4201C7.75441 12.4017 7.72185 12.3762 7.69515 12.3451C7.66845 12.3141 7.64813 12.2781 7.63536 12.2392C7.62258 12.2002 7.6176 12.1592 7.6207 12.1184C7.62745 12.0353 7.66665 11.9582 7.72982 11.9038C7.79299 11.8494 7.87504 11.8221 7.9582 11.8277C8.77367 11.8902 9.59273 11.8902 10.4082 11.8277C10.4914 11.8221 10.5734 11.8494 10.6366 11.9038C10.6998 11.9582 10.739 12.0353 10.7457 12.1184Z" fill="#6B5E7A"/>
<path d="M3.78984 9.58437L5.23984 4.875C3.27422 5.425 1.99609 6.38437 1.99609 7.5C1.99609 8.30937 2.66797 9.0375 3.78984 9.58437Z" fill="#EA4B62"/>
<path d="M4.36719 9.8375C5.08881 10.1087 5.83654 10.3045 6.59844 10.4219L7.72031 4.4375C7.12497 4.48787 6.53324 4.57449 5.94844 4.69687L4.36719 9.8375Z" fill="#EA4B62"/>
<path d="M7.21875 10.5094C7.87106 10.5871 8.52745 10.6257 9.18438 10.625C9.8413 10.6257 10.4977 10.5871 11.15 10.5094L10.0031 4.39375C9.73438 4.38125 9.4625 4.375 9.18438 4.375C8.90625 4.375 8.63437 4.38125 8.36563 4.39375L7.21875 10.5094Z" fill="#EA4B62"/>
<path d="M10.6484 4.4375L11.7672 10.4219C12.5291 10.3045 13.2768 10.1087 13.9984 9.8375L12.4141 4.69687C11.8314 4.57448 11.2417 4.48786 10.6484 4.4375Z" fill="#EA4B62"/>
<path d="M16.3707 7.5C16.3707 6.38437 15.0926 5.425 13.127 4.875L14.5738 9.58437C15.6988 9.0375 16.3707 8.30937 16.3707 7.5Z" fill="#EA4B62"/>
<path d="M9.18359 13.75C9.01783 13.75 8.85886 13.8158 8.74165 13.9331C8.62444 14.0503 8.55859 14.2092 8.55859 14.375V19.6875C8.55859 19.7704 8.59152 19.8499 8.65012 19.9085C8.70873 19.9671 8.78821 20 8.87109 20H9.49609C9.57897 20 9.65846 19.9671 9.71706 19.9085C9.77567 19.8499 9.80859 19.7704 9.80859 19.6875V14.375C9.80859 14.2092 9.74275 14.0503 9.62554 13.9331C9.50833 13.8158 9.34935 13.75 9.18359 13.75Z" fill="#6B5E7A"/>
<path d="M6.16211 17.2879L7.93398 17.6816V17.041L6.32148 16.6816L6.16211 17.2879Z" fill="#6B5E7A"/>
<path d="M10.4336 17.041V17.6816L12.2055 17.2879L12.0461 16.6816L10.4336 17.041Z" fill="#6B5E7A"/>
<path d="M5.74609 3.75C5.96681 3.74944 6.18573 3.71031 6.39297 3.63437C6.37764 3.56989 6.3703 3.50377 6.37109 3.4375V0.3125C6.3703 0.246226 6.37764 0.180107 6.39297 0.115625C6.10962 0.011189 5.80523 -0.0232187 5.50572 0.0153318C5.20621 0.0538824 4.92045 0.164249 4.67279 0.337032C4.42512 0.509816 4.22288 0.739897 4.08329 1.00768C3.94371 1.27546 3.87091 1.57302 3.87109 1.875C3.87149 2.37216 4.06916 2.84884 4.4207 3.20039C4.77225 3.55194 5.24893 3.74961 5.74609 3.75Z" fill="#EA4B62"/>
<path d="M9.47461 3.63437C9.89208 3.78854 10.3509 3.78854 10.7684 3.63437C10.753 3.56989 10.7457 3.50377 10.7465 3.4375V0.312499C10.7457 0.246226 10.753 0.180106 10.7684 0.115624C10.3509 -0.0385413 9.89208 -0.0385413 9.47461 0.115624C9.48993 0.180106 9.49728 0.246226 9.49648 0.312499V3.4375C9.49728 3.50377 9.48993 3.56989 9.47461 3.63437Z" fill="#EA4B62"/>
<path d="M8.55859 0H7.30859C7.136 0 6.99609 0.139911 6.99609 0.3125V3.4375C6.99609 3.61009 7.136 3.75 7.30859 3.75H8.55859C8.73118 3.75 8.87109 3.61009 8.87109 3.4375V0.3125C8.87109 0.139911 8.73118 0 8.55859 0Z" fill="#EA4B62"/>
<path d="M12.9336 0H11.6836C11.511 0 11.3711 0.139911 11.3711 0.3125V3.4375C11.3711 3.61009 11.511 3.75 11.6836 3.75H12.9336C13.1062 3.75 13.2461 3.61009 13.2461 3.4375V0.3125C13.2461 0.139911 13.1062 0 12.9336 0Z" fill="#EA4B62"/>
<path d="M3.24609 2.1875H3.26484C3.23984 1.97992 3.23984 1.77008 3.26484 1.5625H3.24609C3.16321 1.5625 3.08373 1.59542 3.02512 1.65403C2.96652 1.71263 2.93359 1.79212 2.93359 1.875C2.93359 1.95788 2.96652 2.03737 3.02512 2.09597C3.08373 2.15458 3.16321 2.1875 3.24609 2.1875Z" fill="#EA4B62"/>
</svg>
