<svg width="20" height="20" viewBox="0 0 20 20" fill="none" xmlns="http://www.w3.org/2000/svg">
<path d="M19.4004 17.5L17.4004 9.5C17.2004 8.6 16.4004 8 15.5004 8H14.0004V6.5C14.0004 6.2 13.8004 6 13.5004 6H11.5004C11.2004 6 11.0004 6.2 11.0004 6.5V8H9.00045V6.5C9.00045 6.2 8.80045 6 8.50045 6H6.50045C6.20045 6 6.00045 6.2 6.00045 6.5V8H4.60045C3.60045 8 2.80045 8.6 2.60045 9.5L0.600447 17.5C0.300447 18.8 1.30045 20 2.60045 20H17.5004C18.7004 20 19.7004 18.8 19.4004 17.5ZM10.0004 18C7.80045 18 6.00045 16.2 6.00045 14C6.00045 11.8 7.80045 10 10.0004 10C12.2004 10 14.0004 11.8 14.0004 14C14.0004 16.2 12.2004 18 10.0004 18Z" fill="#6B5E7A"/>
<path d="M10 16C11.1046 16 12 15.1046 12 14C12 12.8954 11.1046 12 10 12C8.89543 12 8 12.8954 8 14C8 15.1046 8.89543 16 10 16Z" fill="#6B5E7A"/>
<path d="M10 0C4.5 0 0 1.8 0 4.1V6C0 6.6 0.5 7 1 7H3.8C4.6 7 5.1 6.2 4.7 5.5C4.4 4.8 4.9 4 5.7 4H14.4C15.2 4 15.7 4.8 15.3 5.5C14.9 6.2 15.4 7 16.2 7H19C19.6 7 20 6.5 20 6V4.1C20 1.8 15.5 0 10 0Z" fill="#EA4B62"/>
</svg>
