<svg width="20" height="20" viewBox="0 0 20 20" fill="none" xmlns="http://www.w3.org/2000/svg">
<path d="M0.585938 1.17188H1.17676V3.72559C1.17676 4.04918 1.4391 4.31152 1.7627 4.31152C2.08629 4.31152 2.34863 4.04918 2.34863 3.72559V1.17188H3.53027V2.93945C3.53027 3.26305 3.79262 3.52539 4.11621 3.52539C4.4398 3.52539 4.70215 3.26305 4.70215 2.93945V1.17188H5.88379V1.7627C5.88379 2.08629 6.14613 2.34863 6.46973 2.34863C6.79332 2.34863 7.05566 2.08629 7.05566 1.7627V1.17188H8.2373V2.93945C8.2373 3.26305 8.49965 3.52539 8.82324 3.52539C9.14684 3.52539 9.40918 3.26305 9.40918 2.93945V1.17188H10.5908V1.7627C10.5908 2.08629 10.8532 2.34863 11.1768 2.34863C11.5004 2.34863 11.7627 2.08629 11.7627 1.7627V1.17188H12.9443V2.93945C12.9443 3.26305 13.2067 3.52539 13.5303 3.52539C13.8539 3.52539 14.1162 3.26305 14.1162 2.93945V1.17188H15.2979V4.11621C15.2979 4.4398 15.5602 4.70215 15.8838 4.70215C16.2074 4.70215 16.4697 4.4398 16.4697 4.11621V1.17188H17.6514V2.93945C17.6514 3.26305 17.9137 3.52539 18.2373 3.52539C18.5609 3.52539 18.8232 3.26305 18.8232 2.93945V1.17188H19.4141C19.7377 1.17188 20 0.909531 20 0.585938C20 0.262344 19.7377 0 19.4141 0H0.585938C0.262344 0 0 0.262344 0 0.585938C0 0.909531 0.262344 1.17188 0.585938 1.17188Z" fill="#315D80"/>
<path d="M18.8228 5.29297C18.8085 4.97551 18.5653 4.70703 18.2368 4.70703C17.9303 4.70703 17.6367 4.97652 17.6509 5.29297C17.6651 5.61043 17.9083 5.87891 18.2368 5.87891C18.5433 5.87891 18.8369 5.60941 18.8228 5.29297Z" fill="#315D80"/>
<path d="M11.7622 4.11621C11.748 3.79875 11.5048 3.53027 11.1763 3.53027C10.8698 3.53027 10.5762 3.79977 10.5903 4.11621C10.6046 4.43367 10.8478 4.70215 11.1763 4.70215C11.4828 4.70215 11.7764 4.43266 11.7622 4.11621Z" fill="#315D80"/>
<path d="M7.05518 4.11621C7.04096 3.79875 6.79772 3.53027 6.46924 3.53027C6.16276 3.53027 5.86913 3.79977 5.88331 4.11621C5.89752 4.43367 6.14077 4.70215 6.46924 4.70215C6.77573 4.70215 7.06936 4.43266 7.05518 4.11621Z" fill="#315D80"/>
<path d="M1.76221 5.36426C1.45573 5.36426 1.1621 5.63375 1.17627 5.9502C1.19049 6.26766 1.43374 6.53613 1.76221 6.53613C2.0687 6.53613 2.36233 6.26664 2.34815 5.9502C2.33393 5.63273 2.09069 5.36426 1.76221 5.36426Z" fill="#315D80"/>
<path d="M1.34766 18.4727V18.5557C1.34766 19.3523 1.99574 20.0004 2.79234 20.0004H5.12059C5.91723 20.0004 6.56527 19.3523 6.56527 18.5557V18.4751H1.44379C1.41156 18.4751 1.37965 18.4738 1.34766 18.4727Z" fill="#6B5E7A"/>
<path d="M13.4336 18.4751V18.5557C13.4336 19.3523 14.0817 20.0004 14.8783 20.0004H17.2065C18.0032 20.0004 18.6512 19.3523 18.6512 18.5557V18.4727C18.6193 18.4738 18.5873 18.4751 18.5551 18.4751H13.4336Z" fill="#6B5E7A"/>
<path d="M17.546 9.5643C17.6979 9.5643 17.8476 9.57383 17.9947 9.59207L16.7799 6.6018C16.4689 5.83637 15.7342 5.3418 14.908 5.3418H4.75285C3.87937 5.3418 3.10836 5.8991 2.83437 6.72856L1.88281 9.6093C2.06867 9.5798 2.25914 9.5643 2.4532 9.5643H17.546Z" fill="#6B5E7A"/>
<path d="M14.7823 12.1518V10.7363H5.21766V12.1518C5.21766 13.5047 4.11695 14.6054 2.76402 14.6054H0V15.8579C0 16.6545 0.648125 17.3026 1.44473 17.3026H18.5552C19.3519 17.3026 20 16.6545 20 15.8579V14.6054H17.2359C15.883 14.6054 14.7823 13.5047 14.7823 12.1518ZM12.6711 14.6054H7.27672C6.95312 14.6054 6.69078 14.343 6.69078 14.0195C6.69078 13.6959 6.95312 13.4335 7.27672 13.4335H12.6711C12.9947 13.4335 13.257 13.6959 13.257 14.0195C13.257 14.343 12.9947 14.6054 12.6711 14.6054Z" fill="#6B5E7A"/>
<path d="M17.5473 10.7363H15.9551V12.1518C15.9551 12.8585 16.5301 13.4335 17.2368 13.4335H20.0009V13.19C20.0009 11.837 18.9002 10.7363 17.5473 10.7363Z" fill="#6B5E7A"/>
<path d="M4.04578 12.1518V10.7363H2.45359C1.1007 10.7363 0 11.837 0 13.19V13.4335H2.76406C3.47082 13.4335 4.04578 12.8585 4.04578 12.1518Z" fill="#6B5E7A"/>
</svg>
