<svg width="20" height="20" viewBox="0 0 20 20" fill="none" xmlns="http://www.w3.org/2000/svg">
<path d="M10.9375 10.3125H11.5625V10.9375H10.9375V10.3125Z" fill="#C06A87"/>
<path d="M10.9375 7.8125H11.5625V8.4375H10.9375V7.8125Z" fill="#C06A87"/>
<path d="M13.75 15.9375H16.5625V17.8125H13.75V15.9375Z" fill="#C06A87"/>
<path d="M8.4375 7.8125H9.0625V8.4375H8.4375V7.8125Z" fill="#C06A87"/>
<path d="M8.4375 10.3125H9.0625V10.9375H8.4375V10.3125Z" fill="#C06A87"/>
<path d="M8.4375 12.8125H9.0625V13.4375H8.4375V12.8125Z" fill="#C06A87"/>
<path d="M13.75 6.25V15.3125H16.875C16.9579 15.3125 17.0374 15.3454 17.096 15.404C17.1546 15.4626 17.1875 15.5421 17.1875 15.625V17.8125H17.8125V4.6875H10.9375V5.9375H13.4375C13.5204 5.9375 13.5999 5.97042 13.6585 6.02903C13.7171 6.08763 13.75 6.16712 13.75 6.25ZM14.6875 5.625C14.6875 5.54212 14.7204 5.46263 14.779 5.40403C14.8376 5.34542 14.9171 5.3125 15 5.3125H16.25C16.3329 5.3125 16.4124 5.34542 16.471 5.40403C16.5296 5.46263 16.5625 5.54212 16.5625 5.625V6.875C16.5625 6.95788 16.5296 7.03737 16.471 7.09597C16.4124 7.15458 16.3329 7.1875 16.25 7.1875H15C14.9171 7.1875 14.8376 7.15458 14.779 7.09597C14.7204 7.03737 14.6875 6.95788 14.6875 6.875V5.625ZM14.6875 8.125C14.6875 8.04212 14.7204 7.96263 14.779 7.90403C14.8376 7.84542 14.9171 7.8125 15 7.8125H16.25C16.3329 7.8125 16.4124 7.84542 16.471 7.90403C16.5296 7.96263 16.5625 8.04212 16.5625 8.125V9.375C16.5625 9.45788 16.5296 9.53737 16.471 9.59597C16.4124 9.65458 16.3329 9.6875 16.25 9.6875H15C14.9171 9.6875 14.8376 9.65458 14.779 9.59597C14.7204 9.53737 14.6875 9.45788 14.6875 9.375V8.125ZM14.6875 10.625C14.6875 10.5421 14.7204 10.4626 14.779 10.404C14.8376 10.3454 14.9171 10.3125 15 10.3125H16.25C16.3329 10.3125 16.4124 10.3454 16.471 10.404C16.5296 10.4626 16.5625 10.5421 16.5625 10.625V11.875C16.5625 11.9579 16.5296 12.0374 16.471 12.096C16.4124 12.1546 16.3329 12.1875 16.25 12.1875H15C14.9171 12.1875 14.8376 12.1546 14.779 12.096C14.7204 12.0374 14.6875 11.9579 14.6875 11.875V10.625ZM14.6875 13.125C14.6875 13.0421 14.7204 12.9626 14.779 12.904C14.8376 12.8454 14.9171 12.8125 15 12.8125H16.25C16.3329 12.8125 16.4124 12.8454 16.471 12.904C16.5296 12.9626 16.5625 13.0421 16.5625 13.125V14.375C16.5625 14.4579 16.5296 14.5374 16.471 14.596C16.4124 14.6546 16.3329 14.6875 16.25 14.6875H15C14.9171 14.6875 14.8376 14.6546 14.779 14.596C14.7204 14.5374 14.6875 14.4579 14.6875 14.375V13.125Z" fill="#C06A87"/>
<path d="M15.3125 5.9375H15.9375V6.5625H15.3125V5.9375Z" fill="#C06A87"/>
<path d="M10.9375 12.8125H11.5625V13.4375H10.9375V12.8125Z" fill="#C06A87"/>
<path d="M17.1875 1.06543L11.5625 3.03449V4.06262H17.1875V1.06543Z" fill="#C06A87"/>
<path d="M15.3125 8.4375H15.9375V9.0625H15.3125V8.4375Z" fill="#C06A87"/>
<path d="M15.3125 13.4375H15.9375V14.0625H15.3125V13.4375Z" fill="#C06A87"/>
<path d="M15.3125 10.9375H15.9375V11.5625H15.3125V10.9375Z" fill="#C06A87"/>
<path d="M4.0625 10.3125H4.6875V10.9375H4.0625V10.3125Z" fill="#C06A87"/>
<path d="M3.4375 15.3125H6.25V17.8125H3.4375V15.3125Z" fill="#C06A87"/>
<path d="M4.0625 5.3125H4.6875V5.9375H4.0625V5.3125Z" fill="#C06A87"/>
<path d="M4.0625 12.8125H4.6875V13.4375H4.0625V12.8125Z" fill="#C06A87"/>
<path d="M2.8125 15C2.8125 14.9171 2.84542 14.8376 2.90403 14.779C2.96263 14.7204 3.04212 14.6875 3.125 14.6875H6.25V6.25C6.25 6.16712 6.28292 6.08763 6.34153 6.02903C6.40013 5.97042 6.47962 5.9375 6.5625 5.9375H9.0625V4.0625H2.1875V17.8125H2.8125V15ZM3.4375 5C3.4375 4.91712 3.47042 4.83763 3.52903 4.77903C3.58763 4.72042 3.66712 4.6875 3.75 4.6875H5C5.08288 4.6875 5.16237 4.72042 5.22097 4.77903C5.27958 4.83763 5.3125 4.91712 5.3125 5V6.25C5.3125 6.33288 5.27958 6.41237 5.22097 6.47097C5.16237 6.52958 5.08288 6.5625 5 6.5625H3.75C3.66712 6.5625 3.58763 6.52958 3.52903 6.47097C3.47042 6.41237 3.4375 6.33288 3.4375 6.25V5ZM3.4375 7.5C3.4375 7.41712 3.47042 7.33763 3.52903 7.27903C3.58763 7.22042 3.66712 7.1875 3.75 7.1875H5C5.08288 7.1875 5.16237 7.22042 5.22097 7.27903C5.27958 7.33763 5.3125 7.41712 5.3125 7.5V8.75C5.3125 8.83288 5.27958 8.91237 5.22097 8.97097C5.16237 9.02958 5.08288 9.0625 5 9.0625H3.75C3.66712 9.0625 3.58763 9.02958 3.52903 8.97097C3.47042 8.91237 3.4375 8.83288 3.4375 8.75V7.5ZM3.4375 10C3.4375 9.91712 3.47042 9.83763 3.52903 9.77903C3.58763 9.72042 3.66712 9.6875 3.75 9.6875H5C5.08288 9.6875 5.16237 9.72042 5.22097 9.77903C5.27958 9.83763 5.3125 9.91712 5.3125 10V11.25C5.3125 11.3329 5.27958 11.4124 5.22097 11.471C5.16237 11.5296 5.08288 11.5625 5 11.5625H3.75C3.66712 11.5625 3.58763 11.5296 3.52903 11.471C3.47042 11.4124 3.4375 11.3329 3.4375 11.25V10ZM3.4375 12.5C3.4375 12.4171 3.47042 12.3376 3.52903 12.279C3.58763 12.2204 3.66712 12.1875 3.75 12.1875H5C5.08288 12.1875 5.16237 12.2204 5.22097 12.279C5.27958 12.3376 5.3125 12.4171 5.3125 12.5V13.75C5.3125 13.8329 5.27958 13.9124 5.22097 13.971C5.16237 14.0296 5.08288 14.0625 5 14.0625H3.75C3.66712 14.0625 3.58763 14.0296 3.52903 13.971C3.47042 13.9124 3.4375 13.8329 3.4375 13.75V12.5Z" fill="#C06A87"/>
<path d="M2.8125 2.5H8.4375V3.4375H2.8125V2.5Z" fill="#C06A87"/>
<path d="M0.9375 18.4375H19.0625V19.0625H0.9375V18.4375Z" fill="#4D7EA5"/>
<path d="M13.125 17.8125V6.5625H6.875V17.8125H8.125V15C8.125 14.9171 8.15792 14.8376 8.21653 14.779C8.27513 14.7204 8.35462 14.6875 8.4375 14.6875H11.5625C11.6454 14.6875 11.7249 14.7204 11.7835 14.779C11.8421 14.8376 11.875 14.9171 11.875 15V17.8125H13.125ZM10.3125 7.5C10.3125 7.41712 10.3454 7.33763 10.404 7.27903C10.4626 7.22042 10.5421 7.1875 10.625 7.1875H11.875C11.9579 7.1875 12.0374 7.22042 12.096 7.27903C12.1546 7.33763 12.1875 7.41712 12.1875 7.5V8.75C12.1875 8.83288 12.1546 8.91237 12.096 8.97097C12.0374 9.02958 11.9579 9.0625 11.875 9.0625H10.625C10.5421 9.0625 10.4626 9.02958 10.404 8.97097C10.3454 8.91237 10.3125 8.83288 10.3125 8.75V7.5ZM10.3125 10C10.3125 9.91712 10.3454 9.83763 10.404 9.77903C10.4626 9.72042 10.5421 9.6875 10.625 9.6875H11.875C11.9579 9.6875 12.0374 9.72042 12.096 9.77903C12.1546 9.83763 12.1875 9.91712 12.1875 10V11.25C12.1875 11.3329 12.1546 11.4124 12.096 11.471C12.0374 11.5296 11.9579 11.5625 11.875 11.5625H10.625C10.5421 11.5625 10.4626 11.5296 10.404 11.471C10.3454 11.4124 10.3125 11.3329 10.3125 11.25V10ZM9.6875 13.75C9.6875 13.8329 9.65458 13.9124 9.59597 13.971C9.53737 14.0296 9.45788 14.0625 9.375 14.0625H8.125C8.04212 14.0625 7.96263 14.0296 7.90403 13.971C7.84542 13.9124 7.8125 13.8329 7.8125 13.75V12.5C7.8125 12.4171 7.84542 12.3376 7.90403 12.279C7.96263 12.2204 8.04212 12.1875 8.125 12.1875H9.375C9.45788 12.1875 9.53737 12.2204 9.59597 12.279C9.65458 12.3376 9.6875 12.4171 9.6875 12.5V13.75ZM9.6875 11.25C9.6875 11.3329 9.65458 11.4124 9.59597 11.471C9.53737 11.5296 9.45788 11.5625 9.375 11.5625H8.125C8.04212 11.5625 7.96263 11.5296 7.90403 11.471C7.84542 11.4124 7.8125 11.3329 7.8125 11.25V10C7.8125 9.91712 7.84542 9.83763 7.90403 9.77903C7.96263 9.72042 8.04212 9.6875 8.125 9.6875H9.375C9.45788 9.6875 9.53737 9.72042 9.59597 9.77903C9.65458 9.83763 9.6875 9.91712 9.6875 10V11.25ZM9.6875 8.75C9.6875 8.83288 9.65458 8.91237 9.59597 8.97097C9.53737 9.02958 9.45788 9.0625 9.375 9.0625H8.125C8.04212 9.0625 7.96263 9.02958 7.90403 8.97097C7.84542 8.91237 7.8125 8.83288 7.8125 8.75V7.5C7.8125 7.41712 7.84542 7.33763 7.90403 7.27903C7.96263 7.22042 8.04212 7.1875 8.125 7.1875H9.375C9.45788 7.1875 9.53737 7.22042 9.59597 7.27903C9.65458 7.33763 9.6875 7.41712 9.6875 7.5V8.75ZM10.625 14.0625C10.5421 14.0625 10.4626 14.0296 10.404 13.971C10.3454 13.9124 10.3125 13.8329 10.3125 13.75V12.5C10.3125 12.4171 10.3454 12.3376 10.404 12.279C10.4626 12.2204 10.5421 12.1875 10.625 12.1875H11.875C11.9579 12.1875 12.0374 12.2204 12.096 12.279C12.1546 12.3376 12.1875 12.4171 12.1875 12.5V13.75C12.1875 13.8329 12.1546 13.9124 12.096 13.971C12.0374 14.0296 11.9579 14.0625 11.875 14.0625H10.625Z" fill="#4D7EA5"/>
<path d="M4.0625 7.8125H4.6875V8.4375H4.0625V7.8125Z" fill="#C06A87"/>
<path d="M8.75 15.3125H11.25V17.8125H8.75V15.3125Z" fill="#4D7EA5"/>
</svg>
