<svg width="20" height="20" viewBox="0 0 20 20" fill="none" xmlns="http://www.w3.org/2000/svg">
<path d="M1.2448 0C0.557305 0 0 0.557305 0 1.2448V20H2.48961V1.2448C2.48961 0.557305 1.9323 0 1.2448 0Z" fill="#6B5E7A"/>
<path d="M11.2644 1.17973L11.2454 1.19207L11.2265 1.20441C9.17449 2.54242 6.0382 2.74203 3.66211 1.80387V6.6468C4.5648 6.99031 5.59969 7.17367 6.68219 7.17367C8.28621 7.17367 9.78613 6.77168 10.9057 6.04168L10.9456 6.0157C12.2527 5.16336 13.98 4.69379 15.8086 4.69379C17.3392 4.69379 18.7986 5.02297 20.0006 5.6302V1.17973C17.5882 -0.393242 13.6768 -0.393242 11.2644 1.17973Z" fill="#EA4B62"/>
<path d="M11.5852 6.99723L11.5461 7.02266C10.2381 7.87555 8.51082 8.34512 6.68219 8.34512C5.62043 8.34512 4.59316 8.18641 3.66211 7.88668V10.0992C4.5648 10.4427 5.59969 10.6261 6.68219 10.6261C8.28621 10.6261 9.78613 10.2241 10.9057 9.49406L10.9456 9.46805C12.2527 8.61574 13.98 8.14613 15.8086 8.14613C17.3392 8.14613 18.7986 8.47531 20.0006 9.08258V6.97715C18.8845 6.26 17.3977 5.86523 15.8086 5.86523C14.2046 5.86523 12.7047 6.26723 11.5852 6.99723Z" fill="#EA4B62"/>
<path d="M11.5852 10.4503L11.5461 10.4757C10.2381 11.3287 8.51082 11.7982 6.68219 11.7982C5.62043 11.7982 4.59316 11.6395 3.66211 11.3398V13.7748C6.03816 14.7129 9.17449 14.5133 11.2265 13.1754L11.2454 13.163L11.2644 13.1507C13.6768 11.5777 17.5882 11.5777 20.0006 13.1507V10.4303C18.8845 9.71313 17.3978 9.31836 15.8087 9.31836C14.2046 9.31836 12.7047 9.72035 11.5852 10.4503Z" fill="#EA4B62"/>
</svg>
