<svg width="20" height="20" viewBox="0 0 20 20" fill="none" xmlns="http://www.w3.org/2000/svg">
<path d="M17.6523 12.9395H20.0008V14.8926H17.6523V12.9395Z" fill="#6B5E7A"/>
<path d="M17.6523 9.80469H20.0008V11.7578H17.6523V9.80469Z" fill="#6B5E7A"/>
<path d="M10.5859 5.87891V19.9997H16.4697V5.87891H10.5859ZM13.9421 13.1583C13.8277 13.2727 13.6778 13.3299 13.5279 13.3299C13.3779 13.3299 13.2279 13.2727 13.1136 13.1583L11.9317 11.9764C11.7029 11.7477 11.7029 11.3766 11.9317 11.1478C12.1605 10.919 12.5315 10.919 12.7604 11.1478L13.5279 11.9153L14.2954 11.1478C14.5241 10.919 14.8952 10.919 15.124 11.1478C15.3528 11.3766 15.3528 11.7476 15.124 11.9764L13.9421 13.1583Z" fill="#C06A87"/>
<path d="M9.41113 5.87891H3.52734V19.9997H9.41113V5.87891ZM7.65109 13.3299C7.50113 13.3299 7.35117 13.2727 7.2368 13.1583L6.46926 12.3908L5.70176 13.1583C5.47297 13.3871 5.10195 13.3871 4.87312 13.1583C4.6443 12.9295 4.6443 12.5585 4.87312 12.3296L6.05496 11.1478C6.28375 10.919 6.65477 10.919 6.88359 11.1478L8.06543 12.3296C8.29426 12.5584 8.29426 12.9295 8.06543 13.1583C7.95102 13.2727 7.80105 13.3299 7.65109 13.3299Z" fill="#C06A87"/>
<path d="M17.6406 19.9998H19.4131C19.7367 19.9998 19.999 19.7375 19.999 19.4139V16.0645H17.6406V19.9998Z" fill="#6B5E7A"/>
<path d="M2.94207 4.70734H17.0557C17.3793 4.70734 17.6416 4.96969 17.6416 5.29328V8.63281H20V0.585938C20 0.262344 19.7377 0 19.4141 0H0.585938C0.262344 0 0 0.262344 0 0.585938V19.4141C0 19.7377 0.262344 20 0.585938 20H2.35613V5.29328C2.35613 4.96969 2.61848 4.70734 2.94207 4.70734ZM7.31082 1.76773H12.6892C13.0128 1.76773 13.2752 2.03008 13.2752 2.35367C13.2752 2.67727 13.0128 2.93961 12.6892 2.93961H7.31082C6.98723 2.93961 6.72488 2.67727 6.72488 2.35367C6.72488 2.03008 6.98723 1.76773 7.31082 1.76773Z" fill="#6B5E7A"/>
</svg>
