<svg width="18" height="20" viewBox="0 0 18 20" fill="none" xmlns="http://www.w3.org/2000/svg">
<path d="M10.9344 0H0.390625C0.307745 0 0.228259 0.032924 0.169654 0.0915291C0.111049 0.150134 0.078125 0.22962 0.078125 0.3125V19.6875C0.078125 19.7704 0.111049 19.8499 0.169654 19.9085C0.228259 19.9671 0.307745 20 0.390625 20H10.9344C11.0173 20 11.0967 19.9671 11.1553 19.9085C11.214 19.8499 11.2469 19.7704 11.2469 19.6875V0.3125C11.2469 0.22962 11.214 0.150134 11.1553 0.0915291C11.0967 0.032924 11.0173 0 10.9344 0ZM2.61562 5.76875H4.72187C4.80476 5.76875 4.88424 5.80167 4.94285 5.86028C5.00145 5.91888 5.03437 5.99837 5.03437 6.08125V8.19062C5.03437 8.27351 5.00145 8.35299 4.94285 8.4116C4.88424 8.4702 4.80476 8.50312 4.72187 8.50312H2.61562C2.53274 8.50312 2.45326 8.4702 2.39465 8.4116C2.33605 8.35299 2.30312 8.27351 2.30312 8.19062V6.07188C2.30556 5.99063 2.33956 5.91353 2.3979 5.85694C2.45625 5.80035 2.53434 5.76871 2.61562 5.76875ZM2.30312 4.25V2.14375C2.30312 2.06087 2.33605 1.98138 2.39465 1.92278C2.45326 1.86417 2.53274 1.83125 2.61562 1.83125H4.72187C4.80476 1.83125 4.88424 1.86417 4.94285 1.92278C5.00145 1.98138 5.03437 2.06087 5.03437 2.14375V4.25C5.03437 4.33288 5.00145 4.41237 4.94285 4.47097C4.88424 4.52958 4.80476 4.5625 4.72187 4.5625H2.61562C2.53438 4.56006 2.45728 4.52606 2.40069 4.46772C2.3441 4.40938 2.31246 4.33128 2.3125 4.25H2.30312ZM2.61562 9.69688H4.72187C4.80476 9.69688 4.88424 9.7298 4.94285 9.7884C5.00145 9.84701 5.03437 9.92649 5.03437 10.0094V12.1187C5.03437 12.2016 5.00145 12.2811 4.94285 12.3397C4.88424 12.3983 4.80476 12.4312 4.72187 12.4312H2.61562C2.53274 12.4312 2.45326 12.3983 2.39465 12.3397C2.33605 12.2811 2.30312 12.2016 2.30312 12.1187V10C2.30312 9.91712 2.33605 9.83763 2.39465 9.77903C2.45326 9.72042 2.53274 9.6875 2.61562 9.6875V9.69688ZM2.61562 13.625H4.72187C4.80476 13.625 4.88424 13.6579 4.94285 13.7165C5.00145 13.7751 5.03437 13.8546 5.03437 13.9375V16.0469C5.03437 16.1298 5.00145 16.2092 4.94285 16.2678C4.88424 16.3265 4.80476 16.3594 4.72187 16.3594H2.61562C2.53274 16.3594 2.45326 16.3265 2.39465 16.2678C2.33605 16.2092 2.30312 16.1298 2.30312 16.0469V13.9281C2.30556 13.8469 2.33956 13.7698 2.3979 13.7132C2.45625 13.6566 2.53434 13.625 2.61562 13.625ZM6.60312 9.6875H8.7125C8.79538 9.6875 8.87487 9.72042 8.93347 9.77903C8.99208 9.83763 9.025 9.91712 9.025 10V12.1094C9.025 12.1923 8.99208 12.2717 8.93347 12.3303C8.87487 12.389 8.79538 12.4219 8.7125 12.4219H6.60312C6.52024 12.4219 6.44076 12.389 6.38215 12.3303C6.32355 12.2717 6.29062 12.1923 6.29062 12.1094V10C6.29062 9.91712 6.32355 9.83763 6.38215 9.77903C6.44076 9.72042 6.52024 9.6875 6.60312 9.6875ZM6.29062 8.17188V6.07188C6.29062 5.989 6.32355 5.90951 6.38215 5.8509C6.44076 5.7923 6.52024 5.75938 6.60312 5.75938H8.7125C8.79538 5.75938 8.87487 5.7923 8.93347 5.8509C8.99208 5.90951 9.025 5.989 9.025 6.07188V8.18125C9.025 8.26413 8.99208 8.34362 8.93347 8.40222C8.87487 8.46083 8.79538 8.49375 8.7125 8.49375H6.60312C6.52188 8.49131 6.44478 8.45731 6.38819 8.39897C6.3316 8.34063 6.29996 8.26253 6.3 8.18125L6.29062 8.17188ZM6.60312 13.6156H8.7125C8.79538 13.6156 8.87487 13.6485 8.93347 13.7072C8.99208 13.7658 9.025 13.8452 9.025 13.9281V16.0375C9.025 16.1204 8.99208 16.1999 8.93347 16.2585C8.87487 16.3171 8.79538 16.35 8.7125 16.35H6.60312C6.52024 16.35 6.44076 16.3171 6.38215 16.2585C6.32355 16.1999 6.29062 16.1204 6.29062 16.0375V13.9281C6.29306 13.8469 6.32706 13.7698 6.3854 13.7132C6.44375 13.6566 6.52184 13.625 6.60312 13.625V13.6156ZM9.01562 4.24062C9.01562 4.3235 8.9827 4.40299 8.9241 4.4616C8.86549 4.5202 8.78601 4.55312 8.70312 4.55312H6.60312C6.52024 4.55312 6.44076 4.5202 6.38215 4.4616C6.32355 4.40299 6.29062 4.3235 6.29062 4.24062V2.14375C6.29062 2.06087 6.32355 1.98138 6.38215 1.92278C6.44076 1.86417 6.52024 1.83125 6.60312 1.83125H8.7125C8.79538 1.83125 8.87487 1.86417 8.93347 1.92278C8.99208 1.98138 9.025 2.06087 9.025 2.14375L9.01562 4.24062Z" fill="#6B5E7A"/>
<path d="M2.91797 2.44727H4.41797V3.95039H2.91797V2.44727Z" fill="#6B5E7A"/>
<path d="M2.91797 6.375H4.41797V7.87812H2.91797V6.375Z" fill="#6B5E7A"/>
<path d="M2.91797 10.3027H4.41797V11.8059H2.91797V10.3027Z" fill="#6B5E7A"/>
<path d="M2.91797 14.2314H4.41797V15.7346H2.91797V14.2314Z" fill="#6B5E7A"/>
<path d="M6.90625 2.44727H8.40938V3.95039H6.90625V2.44727Z" fill="#6B5E7A"/>
<path d="M6.90625 6.375H8.40938V7.87812H6.90625V6.375Z" fill="#6B5E7A"/>
<path d="M6.90625 10.3027H8.40938V11.8059H6.90625V10.3027Z" fill="#6B5E7A"/>
<path d="M6.90625 14.2314H8.40938V15.7346H6.90625V14.2314Z" fill="#6B5E7A"/>
<path d="M17.8212 10.0624L15.3618 7.65304C15.3499 7.64646 15.3384 7.63916 15.3274 7.63116C15.3081 7.61545 15.2871 7.60184 15.2649 7.59054C15.1907 7.56097 15.1079 7.56097 15.0337 7.59054C15.0101 7.60107 14.988 7.61473 14.968 7.63116L14.9368 7.65304L12.4774 10.0624C12.4229 10.1204 12.3926 10.1969 12.3926 10.2765C12.3926 10.356 12.4229 10.4326 12.4774 10.4905C12.5052 10.5196 12.5387 10.5426 12.5758 10.5582C12.6129 10.5738 12.6528 10.5816 12.693 10.5812C12.772 10.5809 12.8479 10.5507 12.9055 10.4968L14.8524 8.59054V19.6874C14.8693 19.755 14.9084 19.815 14.9633 19.8578C15.0182 19.9007 15.0859 19.9239 15.1555 19.9239C15.2252 19.9239 15.2929 19.9007 15.3478 19.8578C15.4027 19.815 15.4417 19.755 15.4587 19.6874V8.59054L17.4024 10.4968C17.4627 10.5328 17.5333 10.5475 17.6029 10.5385C17.6725 10.5294 17.737 10.4973 17.7861 10.4471C17.8352 10.3969 17.8659 10.3317 17.8734 10.2619C17.8809 10.1921 17.8647 10.1219 17.8274 10.0624H17.8212Z" fill="#EA4B62"/>
</svg>
