<svg width="18" height="18" viewBox="0 0 18 18" fill="none" xmlns="http://www.w3.org/2000/svg">
<path d="M14.7836 3.375L17.1874 0.25H0.8125L3.21626 3.375H14.7836Z" fill="#3E6B8E"/>
<path d="M3.375 14.625H5.25V15.25H3.375V14.625Z" fill="#3E6B8E"/>
<path d="M15.25 3.79395V6.81264C15.25 6.98521 15.1101 7.12514 14.9375 7.12514C14.7649 7.12514 14.625 6.98521 14.625 6.81264V4.00014H3.375V6.81264C3.375 6.98521 3.23512 7.12514 3.0625 7.12514C2.88992 7.12514 2.75 6.98521 2.75 6.81264V3.79395L0.25 0.543945V17.1251C0.25 17.4703 0.529822 17.7501 0.875 17.7501H17.125C17.4702 17.7501 17.75 17.4703 17.75 17.1251V0.543945L15.25 3.79395ZM9 8.37514C9 8.02995 9.27985 7.75014 9.625 7.75014H13.375C13.7202 7.75014 14 8.02995 14 8.37514V9.00014H9V8.37514ZM5.25 13.6876C5.59519 13.6876 5.875 13.9674 5.875 14.3126V16.8126C5.875 16.9852 5.73512 17.1251 5.5625 17.1251C5.38992 17.1251 5.25 16.9852 5.25 16.8126V15.8751H3.375V16.8126C3.375 16.9852 3.23512 17.1251 3.0625 17.1251C2.88992 17.1251 2.75 16.9852 2.75 16.8126V14.3126C2.75 13.9674 3.02985 13.6876 3.375 13.6876H4V10.8751H2.125L3.21787 8.14301C3.31278 7.90574 3.54258 7.75014 3.79816 7.75014H4.82687C5.08242 7.75014 5.31226 7.90574 5.40717 8.14301L6.5 10.8751H4.625V13.6876H5.25ZM15.25 16.8126C15.25 16.9852 15.1101 17.1251 14.9375 17.1251C14.7649 17.1251 14.625 16.9852 14.625 16.8126V15.2501H8.375V16.8126C8.375 16.9852 8.23512 17.1251 8.0625 17.1251C7.88992 17.1251 7.75 16.9852 7.75 16.8126V14.6251H15.25V16.8126ZM7.75 14.0001L9 9.62514H14L15.25 14.0001H7.75Z" fill="#3E6B8E"/>
</svg>
