<svg width="18" height="20" viewBox="0 0 18 20" fill="none" xmlns="http://www.w3.org/2000/svg">
<path d="M4 11.875V16.875H1.1875V11.875H4ZM1.1875 11.25H4.3125C4.39538 11.25 4.47487 11.2829 4.53347 11.3415C4.59208 11.4001 4.625 11.4796 4.625 11.5625V17.1875C4.625 17.2704 4.59208 17.3499 4.53347 17.4085C4.47487 17.4671 4.39538 17.5 4.3125 17.5H1.1875V18.4375C1.1875 18.6861 1.28627 18.9246 1.46209 19.1004C1.6379 19.2762 1.87636 19.375 2.125 19.375H5.25V11.5625C5.25 11.4796 5.28292 11.4001 5.34153 11.3415C5.40013 11.2829 5.47962 11.25 5.5625 11.25H12.4375C12.5204 11.25 12.5999 11.2829 12.6585 11.3415C12.7171 11.4001 12.75 11.4796 12.75 11.5625V19.375H15.875C16.1236 19.375 16.3621 19.2762 16.5379 19.1004C16.7137 18.9246 16.8125 18.6861 16.8125 18.4375V17.5H13.6875C13.6046 17.5 13.5251 17.4671 13.4665 17.4085C13.4079 17.3499 13.375 17.2704 13.375 17.1875V11.5625C13.375 11.4796 13.4079 11.4001 13.4665 11.3415C13.5251 11.2829 13.6046 11.25 13.6875 11.25H16.8125V10H1.1875V11.25ZM14 16.875H16.8125V11.875H14V16.875ZM9.3125 19.375H12.125V11.875H9.3125V19.375ZM5.875 19.375H8.6875V11.875H5.875V19.375ZM17.75 8.4375V9.0625C17.75 9.14538 17.7171 9.22487 17.6585 9.28347C17.5999 9.34208 17.5204 9.375 17.4375 9.375H0.5625C0.47962 9.375 0.400134 9.34208 0.341529 9.28347C0.282924 9.22487 0.25 9.14538 0.25 9.0625V8.4375C0.25 8.35462 0.282924 8.27513 0.341529 8.21653C0.400134 8.15792 0.47962 8.125 0.5625 8.125H4.9375V7.5H4C3.75136 7.5 3.5129 7.40123 3.33709 7.22541C3.16127 7.0496 3.0625 6.81114 3.0625 6.5625V1.5625C3.0625 1.31386 3.16127 1.0754 3.33709 0.899587C3.5129 0.723772 3.75136 0.625 4 0.625H14C14.2486 0.625 14.4871 0.723772 14.6629 0.899587C14.8387 1.0754 14.9375 1.31386 14.9375 1.5625V6.5625C14.9375 6.81114 14.8387 7.0496 14.6629 7.22541C14.4871 7.40123 14.2486 7.5 14 7.5H13.0625V8.125H17.4375C17.5204 8.125 17.5999 8.15792 17.6585 8.21653C17.7171 8.27513 17.75 8.35462 17.75 8.4375ZM5.25 5.625H5.6201C5.6843 5.80727 5.80335 5.9652 5.96089 6.0771C6.11843 6.18901 6.30676 6.2494 6.5 6.25H6.8125C7.06106 6.24973 7.29936 6.15087 7.47511 5.97511C7.65087 5.79936 7.74973 5.56106 7.75 5.3125V5H10.25V5.3125C10.2503 5.56106 10.3491 5.79936 10.5249 5.97511C10.7006 6.15087 10.9389 6.24973 11.1875 6.25H11.5C11.6932 6.24941 11.8816 6.18901 12.0391 6.0771C12.1967 5.9652 12.3157 5.80727 12.3799 5.625H12.75C12.9986 5.62473 13.2369 5.52587 13.4126 5.35011C13.5884 5.17436 13.6872 4.93606 13.6875 4.6875V3.4375C13.6872 3.18894 13.5884 2.95064 13.4126 2.77489C13.2369 2.59913 12.9986 2.50027 12.75 2.5H12.3799C12.3157 2.31773 12.1967 2.1598 12.0391 2.0479C11.8816 1.93599 11.6932 1.87559 11.5 1.875H11.1875C10.9389 1.87527 10.7006 1.97413 10.5249 2.14989C10.3491 2.32564 10.2503 2.56394 10.25 2.8125V3.125H7.75V2.8125C7.74973 2.56394 7.65087 2.32564 7.47511 2.14989C7.29936 1.97413 7.06106 1.87527 6.8125 1.875H6.5C6.30675 1.87559 6.11843 1.93599 5.96088 2.0479C5.80333 2.1598 5.68429 2.31773 5.62008 2.5H5.25C5.00144 2.50027 4.76314 2.59913 4.58739 2.77489C4.41163 2.95064 4.31277 3.18894 4.3125 3.4375V4.6875C4.31277 4.93606 4.41163 5.17436 4.58739 5.35011C4.76314 5.52587 5.00144 5.62473 5.25 5.625ZM5.5625 8.125H12.4375V7.5H5.5625V8.125ZM6.5 5.625H6.8125C6.89535 5.62489 6.97477 5.59193 7.03335 5.53335C7.09193 5.47477 7.12489 5.39535 7.125 5.3125V2.8125C7.12489 2.72965 7.09193 2.65023 7.03335 2.59165C6.97477 2.53307 6.89535 2.50011 6.8125 2.5H6.5C6.41715 2.50011 6.33773 2.53307 6.27915 2.59165C6.22057 2.65023 6.18761 2.72965 6.1875 2.8125V5.3125C6.18761 5.39535 6.22057 5.47477 6.27915 5.53335C6.33773 5.59193 6.41715 5.62489 6.5 5.625ZM11.1875 5.625H11.5C11.5828 5.62489 11.6623 5.59193 11.7209 5.53335C11.7794 5.47477 11.8124 5.39535 11.8125 5.3125V2.8125C11.8124 2.72965 11.7794 2.65023 11.7209 2.59165C11.6623 2.53307 11.5828 2.50011 11.5 2.5H11.1875C11.1047 2.50011 11.0252 2.53307 10.9666 2.59165C10.9081 2.65023 10.8751 2.72965 10.875 2.8125V5.3125C10.8751 5.39535 10.9081 5.47477 10.9666 5.53335C11.0252 5.59193 11.1047 5.62489 11.1875 5.625ZM5.5625 5V3.125H5.25C5.16715 3.12511 5.08773 3.15807 5.02915 3.21665C4.97057 3.27523 4.93761 3.35465 4.9375 3.4375V4.6875C4.93761 4.77035 4.97057 4.84977 5.02915 4.90835C5.08773 4.96693 5.16715 4.99989 5.25 5H5.5625ZM10.25 3.75H7.75V4.375H10.25V3.75ZM13.0625 4.6875V3.4375C13.0624 3.35465 13.0294 3.27523 12.9709 3.21665C12.9123 3.15807 12.8328 3.12511 12.75 3.125H12.4375V5H12.75C12.8328 4.99989 12.9123 4.96693 12.9709 4.90835C13.0294 4.84977 13.0624 4.77035 13.0625 4.6875Z" fill="#3E6B8E"/>
<path d="M4 16.875V11.875H1.1875V16.875H4Z" fill="#F2727F"/>
<path d="M4.3125 11.25H1.1875V10H16.8125V11.25H13.6875C13.6046 11.25 13.5251 11.2829 13.4665 11.3415C13.4079 11.4001 13.375 11.4796 13.375 11.5625V17.1875C13.375 17.2704 13.4079 17.3499 13.4665 17.4085C13.5251 17.4671 13.6046 17.5 13.6875 17.5H16.8125V18.4375C16.8125 18.6861 16.7137 18.9246 16.5379 19.1004C16.3621 19.2762 16.1236 19.375 15.875 19.375H12.75V11.5625C12.75 11.4796 12.7171 11.4001 12.6585 11.3415C12.5999 11.2829 12.5204 11.25 12.4375 11.25H5.5625C5.47962 11.25 5.40013 11.2829 5.34153 11.3415C5.28292 11.4001 5.25 11.4796 5.25 11.5625V19.375H2.125C1.87636 19.375 1.6379 19.2762 1.46209 19.1004C1.28627 18.9246 1.1875 18.6861 1.1875 18.4375V17.5H4.3125C4.39538 17.5 4.47487 17.4671 4.53347 17.4085C4.59208 17.3499 4.625 17.2704 4.625 17.1875V11.5625C4.625 11.4796 4.59208 11.4001 4.53347 11.3415C4.47487 11.2829 4.39538 11.25 4.3125 11.25Z" fill="#F2727F"/>
<path d="M16.8125 16.875H14V11.875H16.8125V16.875Z" fill="#F2727F"/>
<path d="M12.125 19.375H9.3125V11.875H12.125V19.375Z" fill="#F2727F"/>
<path d="M8.6875 19.375H5.875V11.875H8.6875V19.375Z" fill="#F2727F"/>
</svg>
