<svg width="20" height="20" viewBox="0 0 20 20" fill="none" xmlns="http://www.w3.org/2000/svg">
<g clip-path="url(#clip0_3972_23905)">
<path d="M13.5156 18.2422H15.8594V20H13.5156V18.2422Z" fill="#6B5E7A"/>
<path d="M0 18.2422H2.34375V20H0V18.2422Z" fill="#6B5E7A"/>
<path d="M15.8594 17.0703V9.41406C15.8594 8.76678 15.3348 8.24219 14.6875 8.24219C14.0402 8.24219 13.5156 8.76678 13.5156 9.41406V14.7266H2.34375V9.41406C2.34375 8.76678 1.81915 8.24219 1.17188 8.24219C0.524597 8.24219 0 8.76678 0 9.41406V17.0703H15.8594Z" fill="#6B5E7A"/>
<path d="M17.0508 8.24219H18.2227V20H17.0508V8.24219Z" fill="#EA4B62"/>
<path d="M15.2734 0H20V7.07031H15.2734V0Z" fill="#EA4B62"/>
<path d="M3.51562 10.3543C3.86063 10.1543 4.26071 10.0391 4.6875 10.0391L11.1728 10.0488C11.5991 10.0488 11.9989 10.1636 12.3438 10.3627V3.98438H3.51562V10.3543Z" fill="#6B5E7A"/>
<path d="M12.3438 12.3828C12.3438 11.7421 11.8181 11.2207 11.1719 11.2207L4.68658 11.2109C4.04129 11.2109 3.51562 11.7366 3.51562 12.3828V13.5547H12.3438V12.3828Z" fill="#6B5E7A"/>
</g>
<defs>
<clipPath id="clip0_3972_23905">
<rect width="20" height="20" fill="white"/>
</clipPath>
</defs>
</svg>
