<svg width="20" height="20" viewBox="0 0 20 20" fill="none" xmlns="http://www.w3.org/2000/svg">
<g clip-path="url(#clip0_3972_24923)">
<path d="M9.99875 6.82824C9.14184 6.82824 8.86465 5.70832 8.86465 5.16598C8.86465 4.54062 9.3734 4.03188 9.99875 4.03188C10.6241 4.03188 11.134 4.54062 11.134 5.16598C11.134 5.85621 10.7818 6.82824 9.99875 6.82824ZM7.49723 8.90461V9.44586H12.5014V8.90461C12.5014 8.28328 11.9407 7.77781 11.2515 7.77781H8.74719C8.05793 7.77781 7.49723 8.28328 7.49723 8.90461ZM16.6191 7.02477C16.6191 7.66305 16.9505 8.98105 17.9752 8.98105C18.9105 8.98105 19.3313 7.83707 19.3313 7.02477C19.3313 6.27699 18.723 5.66867 17.9752 5.66867C17.2274 5.66867 16.6191 6.27703 16.6191 7.02477ZM4.40617 6.75883C4.40617 7.00219 4.3809 7.24813 4.33309 7.48805H7.15828C7.48461 7.16223 7.92148 6.93602 8.41207 6.86457C8.40004 6.84617 8.38766 6.82832 8.37598 6.80941C8.09074 6.34633 7.92715 5.7473 7.92715 5.16598C7.92715 4.02371 8.85648 3.09438 9.99875 3.09438C11.141 3.09438 12.0715 4.02371 12.0715 5.16598C12.0715 5.76543 11.9068 6.38246 11.5896 6.86508C12.0789 6.93703 12.5147 7.16293 12.8404 7.48805H15.712C15.6921 7.33406 15.6815 7.17887 15.6815 7.02477C15.6815 6.01199 16.3415 5.15105 17.2539 4.84801V0.3125H2.5423V4.47133C3.60473 4.68953 4.40617 5.6323 4.40617 6.75883ZM13.7546 12.3015H14.6312L13.9421 10.3834H6.05656L5.41512 12.1685H6.38559C7.16871 12.1685 7.80578 12.8051 7.80578 13.5875C7.80578 14.3699 7.16867 15.0065 6.38559 15.0065H4.3966L3.37543 17.8504H16.6233L15.6357 15.0992H13.7546C12.9836 15.0992 12.3563 14.4719 12.3563 13.7009C12.3563 12.93 12.9836 12.3015 13.7546 12.3015ZM18.7217 9.85398C17.9143 9.85398 17.5441 10.2707 17.3953 10.519L15.9062 13.0107C15.8216 13.1523 15.6688 13.239 15.5038 13.239H13.7546C13.5005 13.239 13.2938 13.4462 13.2938 13.701C13.2938 13.9557 13.5005 14.1617 13.7546 14.1617H15.8368C15.9444 14.1617 16.134 14.1482 16.1952 14.0579L17.5827 12.0164C17.7282 11.8023 18.0197 11.7467 18.2338 11.8922C18.4479 12.0377 18.5036 12.3292 18.358 12.5434L16.9711 14.5841C16.8897 14.7044 16.7639 14.8365 16.5735 14.9369L16.8741 15.7744H19.6863V10.8186C19.6863 10.2867 19.2536 9.85398 18.7217 9.85398ZM17.7308 18.1608C17.7468 18.2052 17.7549 18.2511 17.757 18.297C17.7575 18.3008 17.7575 18.305 17.7578 18.3091H18.8876C19.328 18.3091 19.6863 17.9508 19.6863 17.5105V16.7118H17.2106L17.7308 18.1608ZM3.17781 19.6875H16.8209V18.788H3.17781V19.6875ZM0.3125 17.4824C0.3125 17.9382 0.683359 18.3091 1.13918 18.3091H2.24113C2.24223 18.2591 2.25055 18.2091 2.26789 18.1608L2.80832 16.6557H0.3125V17.4824ZM3.10672 14.4849L1.68953 12.3994C1.54398 12.1853 1.59961 11.8937 1.81375 11.7482C2.02789 11.6027 2.31941 11.6583 2.46492 11.8725L3.88238 13.9584C3.94773 14.0547 4.14594 14.069 4.25828 14.069H6.38566C6.6518 14.069 6.86836 13.853 6.86836 13.5875C6.86836 13.322 6.6518 13.1061 6.38566 13.1061H4.59863C4.43371 13.1061 4.28094 13.0194 4.19629 12.8779L2.6727 10.3296C2.52004 10.0739 2.14004 9.64543 1.30875 9.64543C0.759453 9.64543 0.3125 10.0923 0.3125 10.6417V15.7182H3.145L3.46801 14.8187C3.29844 14.7205 3.1832 14.5977 3.10672 14.4849ZM2.0723 8.76879C3.12734 8.76879 3.46867 7.41461 3.46867 6.75883C3.46867 5.9882 2.84227 5.36125 2.0723 5.36125C1.30234 5.36125 0.674766 5.9882 0.674766 6.75883C0.674766 7.59344 1.10836 8.76879 2.0723 8.76879Z" fill="#4D7EA5"/>
<path d="M17.9752 8.9797C16.9505 8.9797 16.6191 7.66169 16.6191 7.02341C16.6191 6.27568 17.2274 5.66732 17.9752 5.66732C18.723 5.66732 19.3313 6.27564 19.3313 7.02341C19.3313 7.83572 18.9105 8.9797 17.9752 8.9797Z" fill="#EA4B61"/>
<path d="M8.86465 5.1673C8.86465 5.70965 9.14183 6.82957 9.99875 6.82957C10.7818 6.82957 11.134 5.85754 11.134 5.1673C11.134 4.54195 10.6241 4.0332 9.99875 4.0332C9.37339 4.0332 8.86465 4.54195 8.86465 5.1673Z" fill="#EA4B61"/>
<path d="M3.46867 6.75883C3.46867 7.41461 3.12734 8.76879 2.0723 8.76879C1.10836 8.76879 0.674766 7.59344 0.674766 6.75883C0.674766 5.9882 1.30234 5.36125 2.0723 5.36125C2.84227 5.36125 3.46867 5.9882 3.46867 6.75883Z" fill="#EA4B61"/>
</g>
<defs>
<clipPath id="clip0_3972_24923">
<rect width="20" height="20" fill="white"/>
</clipPath>
</defs>
</svg>
