<svg width="20" height="20" viewBox="0 0 20 20" fill="none" xmlns="http://www.w3.org/2000/svg">
<path d="M19.9999 18.8477V19.9979H2.52344L3.66875 18.8477H19.9999Z" fill="#3E6B8E"/>
<path d="M3.90625e-05 17.5439L0 15.3418H0.603906C1.22043 15.3436 1.62172 15.453 1.94781 15.5888L3.90625e-05 17.5439Z" fill="#3E6B8E"/>
<path d="M4.83594 17.6763L7.15051 15.3517C7.8766 15.399 8.29645 15.6079 8.67195 15.7948C9.0418 15.979 9.33391 16.1244 9.98125 16.1244C9.98789 16.1244 9.99395 16.1242 10.0005 16.1241V16.1243L10.0007 16.1241C10.0072 16.1242 10.0133 16.1244 10.0199 16.1244C10.6673 16.1244 10.9594 15.979 11.3292 15.7948C11.7557 15.5825 12.2391 15.3418 13.1636 15.3418C14.0882 15.3418 14.5716 15.5825 14.9981 15.7948C15.368 15.979 15.6601 16.1244 16.3075 16.1244C16.9548 16.1244 17.247 15.979 17.6169 15.7948C18.041 15.5837 18.4822 15.3445 19.3964 15.3418H20.0004V17.6764L4.83594 17.6763Z" fill="#3E6B8E"/>
<path d="M10.5291 8.63656L5.64098 3.74871C5.41215 3.51992 5.41215 3.14898 5.64094 2.92016L6.19594 2.3652C6.42875 2.13238 6.67262 1.91723 6.92543 1.71875L18.2812 13.074C18.0828 13.3268 17.8676 13.5706 17.6348 13.8034L17.0798 14.3584C16.9699 14.4683 16.8209 14.53 16.6655 14.53C16.5101 14.53 16.361 14.4683 16.2512 14.3584L11.3578 9.46523L0.870352 19.9982L0.00941406 20.0004H0.00105469L0 19.2049L10.5291 8.63656Z" fill="#F2727F"/>
<path d="M7.91797 1.05282C11.0042 -0.700852 15.0069 -0.263859 17.6357 2.36485C20.2645 4.99356 20.7015 8.99606 18.9478 12.0822L7.91797 1.05282Z" fill="#F2727F"/>
<path d="M3.98707 11.2496C5.45449 11.2496 6.64406 10.0571 6.64406 8.58621C6.64406 7.11528 5.45449 5.92285 3.98707 5.92285C2.51965 5.92285 1.33008 7.11528 1.33008 8.58621C1.33008 10.0571 2.51965 11.2496 3.98707 11.2496Z" fill="#F2727F"/>
</svg>
