<svg width="20" height="20" viewBox="0 0 20 20" fill="none" xmlns="http://www.w3.org/2000/svg">
<g clip-path="url(#clip0_3972_24093)">
<path d="M18.5157 14.0001H10.5157V6H12.9957C12.7974 3.13165 10.9766 0 10.0156 0C9.05469 0 7.23407 3.13165 7.03577 6H9.51575V14.0001H1.51569C1.38312 13.9999 1.25586 14.0526 1.16211 14.1464C1.06818 14.2401 1.01562 14.3674 1.01562 14.4999V15.5001C1.01562 15.6326 1.06818 15.7599 1.16211 15.8536C1.25586 15.9474 1.38312 16.0001 1.51569 15.9999H3.87573L3.03088 19.379C2.99353 19.5282 3.02704 19.6864 3.12189 19.8076C3.21655 19.929 3.36176 19.9999 3.51575 20.0001H4.51569C4.74512 20.0001 4.94525 19.8437 5.00073 19.621L5.90582 15.9999H14.1256L15.0309 19.621C15.0864 19.8437 15.2863 19.9999 15.5157 20.0001H16.5157C16.6697 20.0001 16.8151 19.9292 16.9097 19.8078C17.0044 19.6864 17.0381 19.5282 17.0007 19.379L16.1559 15.9999H18.5157C18.6483 16.0001 18.7756 15.9474 18.8693 15.8536C18.9631 15.7599 19.0158 15.6326 19.0156 15.5001V14.4999C19.0158 14.3674 18.9631 14.2401 18.8693 14.1464C18.7756 14.0526 18.6483 13.9999 18.5157 14.0001Z" fill="#4D7EA5"/>
<path d="M17.5151 6.0003C17.6758 6.00049 17.8269 5.92322 17.9208 5.79266C18.015 5.66229 18.0404 5.49457 17.9893 5.34204C17.1077 2.69745 14.7511 0.792053 11.8672 0.207031C12.9788 1.61346 13.8638 3.99786 13.9951 6.0003H17.5151Z" fill="#4D7EA5"/>
<path d="M2.51543 6.0003H6.03544C6.16691 3.99786 7.05205 1.61346 8.1635 0.207031C5.27977 0.792053 2.92302 2.69745 2.04155 5.34204C1.99046 5.49457 2.01573 5.66229 2.10985 5.79266C2.20378 5.92322 2.35466 6.00049 2.51543 6.0003Z" fill="#4D7EA5"/>
<path d="M3.02235 9.58209L3.52241 12.5821C3.56233 12.8232 3.77107 13.0001 4.01552 12.9999H7.01552C7.26014 13.0001 7.4687 12.8232 7.5088 12.5821L8.00868 9.58209C8.03285 9.43707 7.99202 9.28894 7.89698 9.1767C7.80195 9.06464 7.66243 9 7.51558 9H3.51564C3.3686 9 3.22908 9.06464 3.13423 9.1767C3.0392 9.28894 2.99836 9.43707 3.02235 9.58209Z" fill="#9BB997"/>
<path d="M12.5156 9C12.3686 9 12.2291 9.06464 12.1342 9.1767C12.0392 9.28894 11.9984 9.43707 12.0224 9.58209L12.5224 12.5821C12.5623 12.8232 12.7711 13.0001 13.0155 12.9999H16.0155C16.2601 13.0001 16.4687 12.8232 16.5088 12.5821L17.0087 9.58209C17.0328 9.43707 16.992 9.28894 16.897 9.1767C16.802 9.06464 16.6624 9 16.5156 9H12.5156Z" fill="#9BB997"/>
</g>
<defs>
<clipPath id="clip0_3972_24093">
<rect width="20" height="20" fill="white"/>
</clipPath>
</defs>
</svg>
