<svg width="20" height="20" viewBox="0 0 20 20" fill="none" xmlns="http://www.w3.org/2000/svg">
<path d="M2.9398 5.86593C3.91404 5.86593 4.70382 5.07615 4.70382 4.10191C4.70382 3.12767 3.91404 2.33789 2.9398 2.33789C1.96556 2.33789 1.17578 3.12767 1.17578 4.10191C1.17578 5.07615 1.96556 5.86593 2.9398 5.86593Z" fill="#F1D15B"/>
<path d="M1.17578 15.8617C1.17578 17.2815 2.18746 18.4694 3.5278 18.7426V19.9777H4.70382V18.8017H15.2879V19.9777H16.4639V18.7426C17.8043 18.4694 18.816 17.2815 18.816 15.8617V14.0977H1.17578V15.8617Z" fill="#4D7EA5"/>
<path d="M12.75 9.39367V9.503L13.338 10.0909L13.926 9.50292V9.39367C13.926 9.06944 13.6623 8.80566 13.338 8.80566C13.0138 8.80566 12.75 9.06944 12.75 9.39367Z" fill="#F1D15B"/>
<path d="M19.6777 4.00319C19.7063 3.93012 19.7337 3.8565 19.7585 3.78198C20.4553 1.69138 19.4321 0.226306 19.3823 0.0214844C17.934 0.336499 17.1522 0.393143 16.1719 0.809491C17.5832 1.54873 18.7657 2.69695 19.6777 4.00319Z" fill="#F1D15B"/>
<path d="M6.99799 4.00319C7.91003 2.69699 9.09262 1.54869 10.5038 0.809491C9.52101 0.392085 8.73798 0.335715 7.29336 0.0214844C7.2673 0.132186 6.14765 1.8325 6.99799 4.00319Z" fill="#F1D15B"/>
<path d="M6.91712 6.54775L6.86914 6.65912V6.78041C6.86914 8.27923 7.20003 9.19417 7.73284 9.98178H11.5732V9.39378C11.5732 8.4211 12.3645 7.62976 13.3372 7.62976C14.3099 7.62976 15.1012 8.4211 15.1012 9.39378V9.98178H18.9416C19.4744 9.19421 19.8053 8.27923 19.8053 6.78041V6.65912L19.7572 6.54775C18.633 3.93853 16.1558 1.2793 13.3372 1.2793C10.5186 1.2793 8.04127 3.93853 6.91712 6.54775ZM14.5132 5.27774H15.6892V6.45375H14.5132V5.27774ZM10.9852 5.27774H12.1612V6.45375H10.9852V5.27774Z" fill="#F1D15B"/>
<path d="M5.69477 6.96551C4.75384 6.80349 3.81695 7.21482 3.30347 8.02584C3.26595 8.08507 3.20131 8.11757 3.12973 8.11306C1.79594 8.02607 0.642739 8.83493 0.197266 9.98198H6.36858C5.9304 9.12031 5.71484 8.15661 5.69477 6.96551Z" fill="#F1D15B"/>
<path d="M0 11.1582V12.9222H19.9922V11.1582C19.7816 11.1582 0.527402 11.1582 0 11.1582Z" fill="#4D7EA5"/>
</svg>
