<svg width="20" height="20" viewBox="0 0 20 20" fill="none" xmlns="http://www.w3.org/2000/svg">
<g clip-path="url(#clip0_3972_24739)">
<path d="M14.7275 2.34375H13.3174C12.8486 2.34375 12.4033 2.15621 12.0752 1.82812L11.1025 0.85543C10.5517 0.304688 9.81349 0 9.02826 0H2.9697C2.73533 0 2.53611 0.128906 2.4306 0.339805C2.33689 0.550742 2.37201 0.796836 2.52439 0.972578L7.07127 6.16406V2.92969C7.07127 2.60152 7.32904 2.34375 7.6572 2.34375C7.98537 2.34375 8.24314 2.60152 8.24314 2.92969V7.49996L9.88381 9.375H17.5869C18.3486 8.625 18.8291 7.59371 18.8291 6.44531C18.8291 4.18359 16.9892 2.34375 14.7275 2.34375Z" fill="#FFB6A3"/>
<path d="M7.07031 6.16406V9.375H8.24219V7.49996L7.07031 6.16406Z" fill="#FFB6A3"/>
<path d="M19.4141 10.5469H4.10156C3.13074 10.5469 2.34375 11.3339 2.34375 12.3047V12.9297H1.17188C0.524648 12.9297 0 13.4543 0 14.1016V14.6875C0 15.0111 0.262344 15.2734 0.585938 15.2734C7.07961 15.2734 8.81152 15.2734 9.18676 15.2734C9.24773 15.2734 9.27684 15.2734 9.2848 15.2734C9.28668 15.2734 9.28781 15.2734 9.28742 15.2734C9.68789 15.2734 11.5784 15.2734 18.8281 15.2734C19.4754 15.2734 20 14.7487 20 14.1016V11.1328C20 10.8091 19.7377 10.5469 19.4141 10.5469Z" fill="#4D7EA5"/>
<path d="M1.38672 16.4453L1.76199 19.4867C1.79863 19.7797 2.04809 20 2.34336 20H3.51523C3.81051 20 4.05996 19.7797 4.0966 19.4867L4.47187 16.4453H1.38672Z" fill="#4D7EA5"/>
<path d="M10.8008 16.4453L11.1761 19.4867C11.2127 19.7797 11.4621 20 11.7574 20H12.9293C13.2246 20 13.474 19.7797 13.5107 19.4867L13.8859 16.4453H10.8008Z" fill="#4D7EA5"/>
<path d="M15.5273 16.4453L15.9027 19.4867C15.9393 19.7797 16.1887 20 16.484 20H17.6559C17.9511 20 18.2006 19.7797 18.2372 19.4867L18.6125 16.4453H15.5273Z" fill="#4D7EA5"/>
</g>
<defs>
<clipPath id="clip0_3972_24739">
<rect width="20" height="20" fill="white"/>
</clipPath>
</defs>
</svg>
