<svg width="20" height="20" viewBox="0 0 20 20" fill="none" xmlns="http://www.w3.org/2000/svg">
<path d="M20 11.9765V11.0971C18.8413 10.8255 17.8056 10.3458 16.7736 9.32962C16.5714 9.13052 16.3738 8.91314 16.1803 8.67787C15.2428 9.83824 14.3348 10.6099 14.2954 10.6433L13.5391 11.2824L12.7828 10.6433C12.7421 10.6088 11.7737 9.78579 10.8037 8.56015C9.43042 6.825 8.7341 5.16865 8.7341 3.63713C8.7341 3.50348 8.73984 3.37073 8.75058 3.239C8.45157 3.05727 7.53384 2.37478 7.53384 2.37478L6.03696 3.17667L1.90727 1.36914L1.78198 2.10475C1.76835 2.16943 1.57378 3.12918 0.494052 3.30282L0 4.37005L1.47946 5.22146C1.43798 5.4097 1.34277 5.5455 1.1489 5.73379L1.14464 5.73797C0.354819 6.52072 0.0868985 7.70289 0.462065 8.74965C0.696906 9.40492 1.16198 9.95283 1.77163 10.2924C2.34622 10.6062 3.131 11.0355 3.80709 11.9274L4.24014 12.4986L6.14257 10.3356C6.13745 10.3278 5.503 9.35013 5.25179 8.59987C5.96326 8.71438 7.06299 9.10986 7.76568 10.416L6.998 11.3904L8.55331 12.5738C9.12395 12.5196 11.065 12.4791 12.4701 15.1991L11.7119 16.7697L14.039 19.2049L15.9077 18.5164L15.9531 17.5745L18.4245 19.9962L19.2446 19.1593L18.593 18.5209C18.6995 18.373 18.811 18.1954 18.9055 17.9939C19.2262 17.3106 19.2216 16.6325 18.9015 16.0415L19.4987 15.246L18.0185 13.7461V12.2054C18.4844 12.2787 19.254 12.296 20 11.9765Z" fill="#9BB997"/>
<path d="M13.5396 9.74844C13.5396 9.74844 17.1729 6.67806 17.1729 3.63724C17.1729 1.63061 15.5462 0.00390625 13.5396 0.00390625C11.5329 0.00390625 9.90625 1.63061 9.90625 3.63724C9.90625 6.67806 13.5396 9.74844 13.5396 9.74844ZM13.5396 1.39452C14.7689 1.39452 15.7689 2.39461 15.7689 3.62392C15.7689 4.85323 14.7689 5.85332 13.5396 5.85332C12.3103 5.85332 11.3102 4.85323 11.3102 3.62392C11.3102 2.39461 12.3103 1.39452 13.5396 1.39452Z" fill="#EA4B62"/>
<path d="M13.6364 4.67491C14.2183 4.62234 14.6473 4.10805 14.5947 3.52621C14.5421 2.94437 14.0279 2.51532 13.446 2.56789C12.8642 2.62047 12.4352 3.13476 12.4878 3.71659C12.5404 4.29843 13.0546 4.72748 13.6364 4.67491Z" fill="#EA4B62"/>
</svg>
