<svg width="20" height="20" viewBox="0 0 20 20" fill="none" xmlns="http://www.w3.org/2000/svg">
<g clip-path="url(#clip0_3972_24763)">
<path d="M8.125 13.125H11.875C12.9062 13.125 13.75 12.2812 13.75 11.25V10.625H6.25V11.25C6.25 12.2812 7.09375 13.125 8.125 13.125Z" fill="#EA4B61"/>
<path d="M17.5 5C16.4688 5 15.625 5.84375 15.625 6.875V12.5C15.625 13.5312 14.7812 14.375 13.75 14.375H6.25C5.21875 14.375 4.375 13.5312 4.375 12.5V6.875C4.375 5.84375 3.53125 5 2.5 5C1.46875 5 0.625 5.84375 0.625 6.875V9.375C0.625 10.4062 1.46875 11.25 2.5 11.25H3.125V12.5C3.125 14.225 4.525 15.625 6.25 15.625H13.75C15.475 15.625 16.875 14.225 16.875 12.5V11.25H17.5C18.5312 11.25 19.375 10.4062 19.375 9.375V6.875C19.375 5.84375 18.5312 5 17.5 5Z" fill="#3E6B8E"/>
<path d="M14.6875 18.125H12.1875V16.875H7.8125V18.125H5.3125C4.96875 18.125 4.6875 18.4062 4.6875 18.75C4.6875 19.0938 4.96875 19.375 5.3125 19.375H14.6875C15.0312 19.375 15.3125 19.0938 15.3125 18.75C15.3125 18.4062 15.0312 18.125 14.6875 18.125Z" fill="#3E6B8E"/>
<path d="M13.75 2.5C13.75 1.46875 12.9062 0.625 11.875 0.625H8.125C7.09375 0.625 6.25 1.46875 6.25 2.5V9.375H13.75V2.5ZM9.53125 6.5625C9.53125 6.90625 9.25 7.1875 8.90625 7.1875C8.5625 7.1875 8.28125 6.90625 8.28125 6.5625V3.4375C8.28125 3.09375 8.5625 2.8125 8.90625 2.8125C9.25 2.8125 9.53125 3.09375 9.53125 3.4375V6.5625ZM11.7188 6.5625C11.7188 6.90625 11.4375 7.1875 11.0938 7.1875C10.75 7.1875 10.4688 6.90625 10.4688 6.5625V3.4375C10.4688 3.09375 10.75 2.8125 11.0938 2.8125C11.4375 2.8125 11.7188 3.09375 11.7188 3.4375V6.5625Z" fill="#EA4B61"/>
</g>
<defs>
<clipPath id="clip0_3972_24763">
<rect width="20" height="20" fill="white"/>
</clipPath>
</defs>
</svg>
