<svg width="20" height="20" viewBox="0 0 20 20" fill="none" xmlns="http://www.w3.org/2000/svg">
<path d="M10.5883 0.0332031L10.5879 6.43759H14.117C14.117 3.17826 12.5833 0.482223 10.5883 0.0332031Z" fill="#F1D15B"/>
<path d="M5.88281 6.43791H9.41254L9.41289 0.0332031C7.41717 0.48136 5.88281 3.17783 5.88281 6.43791Z" fill="#F1D15B"/>
<path d="M18.8235 18.7904C18.8235 18.2 18.8235 10.5578 18.8235 9.96691H17.6471V14.0846H12.9412V18.7904H10.5882V15.261H11.7647V12.9081H16.4706V11.7316C15.8078 11.7316 11.1744 11.7316 10.5883 11.7316L10.5885 6.4375H9.41212L9.41184 11.7316C8.82957 11.7316 4.19306 11.7316 3.52945 11.7316V12.9081H8.23533V15.261H9.4118V18.7904H7.05886V14.0846H2.35294V9.96691H1.17647V18.7904H0V19.9669H20V18.7904H18.8235ZM17.6471 15.261V16.4375H14.1176V15.261H17.6471ZM14.1176 17.614H17.6471V18.7904H14.1176V17.614ZM5.88235 15.261V16.4375H2.35294V15.261H5.88235ZM2.35294 17.614H5.88235V18.7904H2.35294V17.614Z" fill="#C06A87"/>
<path d="M6.09515 1.2305C6.26719 0.960073 6.45135 0.710269 6.6466 0.481445C5.63896 0.798583 4.68841 1.25697 3.84123 1.84356C2.17221 2.99917 1.17578 4.49666 1.17578 5.84925V6.43748H4.70519C4.70519 4.48823 5.1988 2.63901 6.09515 1.2305Z" fill="#F1D15B"/>
<path d="M15.2941 6.4382H18.8235V5.84997C18.8235 4.49001 17.8269 2.98965 16.1575 1.83655C15.3104 1.25142 14.359 0.794398 13.3496 0.478516C14.4516 1.76765 15.2941 3.86232 15.2941 6.4382Z" fill="#F1D15B"/>
</svg>
