<svg width="20" height="20" viewBox="0 0 20 20" fill="none" xmlns="http://www.w3.org/2000/svg">
<g clip-path="url(#clip0_3972_23834)">
<path d="M14.8828 13.7109L15.2734 20H18.8151L19.2057 13.7109H14.8828Z" fill="#4C7EA7"/>
<path d="M17.0449 5.07812C18.4472 5.07812 19.584 3.94135 19.584 2.53906C19.584 1.13678 18.4472 0 17.0449 0C15.6426 0 14.5059 1.13678 14.5059 2.53906C14.5059 3.94135 15.6426 5.07812 17.0449 5.07812Z" fill="#4C7EA7"/>
<path d="M17.6302 6.25V11.3672H16.4584V6.25H14.1016V12.5391H19.987V6.25H17.6302Z" fill="#4C7EA7"/>
<path d="M0.794922 13.7109L1.18555 20H4.72723L5.11785 13.7109H0.794922Z" fill="#4C7EA7"/>
<path d="M2.95508 5.07812C4.35736 5.07812 5.49414 3.94135 5.49414 2.53906C5.49414 1.13678 4.35736 0 2.95508 0C1.55279 0 0.416016 1.13678 0.416016 2.53906C0.416016 3.94135 1.55279 5.07812 2.95508 5.07812Z" fill="#4C7EA7"/>
<path d="M3.54234 6.25V11.3672H2.37047V6.25H0.0136719V12.5391H5.8991V6.25H3.54234Z" fill="#4C7EA7"/>
<path d="M7.07031 7.42188V17.0703C7.07031 18.6857 8.38457 20 10 20C11.6154 20 12.9297 18.6857 12.9297 17.0703V7.42188H7.07031ZM10.5859 13.2812H9.41406V12.1094H10.5859V13.2812ZM10.5859 10.3516H9.41406V9.17969H10.5859V10.3516Z" fill="#6B5E7A"/>
<path d="M12.9297 3.90625H7.07031V6.25H12.9297V3.90625Z" fill="#6B5E7A"/>
</g>
<defs>
<clipPath id="clip0_3972_23834">
<rect width="20" height="20" fill="white"/>
</clipPath>
</defs>
</svg>
