<svg width="20" height="16" viewBox="0 0 20 16" fill="none" xmlns="http://www.w3.org/2000/svg">
<path d="M9.64194 8.17871V12.1073H4.22373L5.32051 8.17871H9.64194ZM14.6777 8.17871L15.7741 12.1073H10.3562V8.17871H14.6777ZM4.02444 12.8216H15.9737L16.6716 15.3216H3.32658L4.02444 12.8216ZM17.413 15.3216L15.4194 8.17871H17.2491L19.6719 14.8423C19.7118 14.9517 19.6957 15.0737 19.629 15.1692C19.5622 15.2646 19.4531 15.3215 19.3366 15.3216H17.413ZM14.4884 0.904782L15.8102 4.25014H14.3234L13.3266 0.678711H14.1562C14.3029 0.678743 14.4346 0.76839 14.4884 0.904782ZM6.41587 4.25014L6.91587 2.46443H9.64194V4.25014H6.41587ZM12.5852 0.678711L12.8844 1.75014H7.11373L7.41301 0.678711H12.5852ZM10.3562 2.46443H13.0837L13.5837 4.25014H10.3562V2.46443ZM5.8423 0.678711H6.67158L5.6748 4.25014H4.18837L5.5098 0.904782C5.56366 0.768268 5.69554 0.678597 5.8423 0.678711ZM2.14194 5.32157C2.14194 5.12432 2.30184 4.96443 2.49908 4.96443H17.4991C17.6963 4.96443 17.8562 5.12432 17.8562 5.32157V7.10728C17.8562 7.30453 17.6963 7.46443 17.4991 7.46443H2.49908C2.30184 7.46443 2.14194 7.30453 2.14194 7.10728V5.32157ZM2.74908 8.17871H4.57873L2.58515 15.3216H0.661583C0.545105 15.3215 0.435985 15.2646 0.369209 15.1692C0.302432 15.0737 0.28639 14.9517 0.326225 14.8423L2.74908 8.17871Z" fill="#9BB997"/>
<path d="M2.49909 4.96582C2.30185 4.96582 2.14195 5.12572 2.14195 5.32296V7.10868C2.14195 7.30592 2.30185 7.46582 2.49909 7.46582H17.4991C17.6963 7.46582 17.8562 7.30592 17.8562 7.10868V5.32296C17.8562 5.12572 17.6963 4.96582 17.4991 4.96582H2.49909Z" fill="#315D80"/>
</svg>
