<svg width="20" height="20" viewBox="0 0 20 20" fill="none" xmlns="http://www.w3.org/2000/svg">
<g clip-path="url(#clip0_3972_23755)">
<path d="M0.5 0.579102V19.42H2.75254V13.2465H6.08947V19.42H12.4514V0.579102H0.5ZM5.3149 9.84464H2.83836V7.95636H5.3149V9.84464ZM5.3149 4.51894H2.83836V2.62857H5.3149V4.51894ZM10.113 15.1347H7.6386V13.2465H10.113V15.1347ZM10.113 9.84464H7.6386V7.95636H10.113V9.84464ZM10.113 4.51894H7.6386V2.62857H10.113V4.51894Z" fill="#C06A87"/>
<path d="M13.0801 5.91406V19.4209H19.5006V5.91406H13.0801ZM17.5265 15.1712H15.0521V13.2829H17.5265V15.1712ZM17.5265 9.84554H15.0521V7.95726H17.5265V9.84554Z" fill="#3E6B8E"/>
</g>
<defs>
<clipPath id="clip0_3972_23755">
<rect width="20" height="20" fill="white"/>
</clipPath>
</defs>
</svg>
