<svg width="20" height="20" viewBox="0 0 20 20" fill="none" xmlns="http://www.w3.org/2000/svg">
<g clip-path="url(#clip0_3972_24340)">
<path d="M7.67578 18.5361H12.3254V19.9998H7.67578V18.5361Z" fill="#F1D15B"/>
<path d="M4.59961 20.0004H6.5025V18.5368H6.06328V16.6347C6.06328 16.0324 6.34477 15.4949 6.7827 15.1458L7.2227 13.5059C7.44551 12.6754 8.2016 12.0955 9.06133 12.0955H10.937C11.7967 12.0955 12.5528 12.6755 12.7756 13.5058L13.2156 15.1458C13.6536 15.4949 13.935 16.0324 13.935 16.6347V18.5368H13.4958V20.0004H15.3987V10.6318H4.59961V20.0004Z" fill="#F1D15B"/>
<path d="M12.0325 15.9023H7.96812C7.56461 15.9023 7.23633 16.2306 7.23633 16.6341V17.3644H12.7644V16.6341C12.7643 16.2306 12.436 15.9023 12.0325 15.9023Z" fill="#F1D15B"/>
<path d="M14.5322 2.72461C14.566 2.94879 14.5837 3.17824 14.5837 3.41172C14.5837 3.67637 14.5609 3.93574 14.5176 4.18824H19.9998V2.72461H14.5322Z" fill="#F2727F"/>
<path d="M5.41609 3.41172C5.41609 3.17824 5.43375 2.94879 5.46758 2.72461H0V4.18824H5.48219C5.43895 3.93574 5.41609 3.67637 5.41609 3.41172Z" fill="#F2727F"/>
<path d="M10.9371 13.2666H9.06148C8.73098 13.2666 8.44035 13.4896 8.35465 13.8088L8.10742 14.7302H11.8911L11.6439 13.8087C11.5582 13.4896 11.2676 13.2666 10.9371 13.2666Z" fill="#F1D15B"/>
<path d="M5.85144 5.36035H0V19.9999H3.42855V6.82395H6.94242C6.48773 6.41609 6.11484 5.91895 5.85144 5.36035Z" fill="#F2727F"/>
<path d="M13.0566 6.82395H16.5705V19.9999H19.9991V5.36035H14.1476C13.8842 5.91895 13.5113 6.41609 13.0566 6.82395Z" fill="#F2727F"/>
<path d="M4.59961 7.99609H15.3987V9.45973H4.59961V7.99609Z" fill="#F1D15B"/>
<path d="M9.99992 6.82402C11.8813 6.82402 13.412 5.2934 13.412 3.41199C13.412 1.53059 11.8813 0 9.99992 0C8.11852 0 6.58789 1.53062 6.58789 3.41203C6.58789 5.29344 8.11852 6.82402 9.99992 6.82402ZM9.99992 1.50832C11.0496 1.50832 11.9036 2.3623 11.9036 3.41199C11.9036 4.46168 11.0496 5.3157 9.99992 5.3157C8.95023 5.3157 8.09625 4.46172 8.09625 3.41203C8.09625 2.36234 8.95023 1.50832 9.99992 1.50832Z" fill="#F1D15B"/>
<path d="M9.99937 4.14426C10.4035 4.14426 10.7312 3.81662 10.7312 3.41246C10.7312 3.0083 10.4035 2.68066 9.99937 2.68066C9.59521 2.68066 9.26758 3.0083 9.26758 3.41246C9.26758 3.81662 9.59521 4.14426 9.99937 4.14426Z" fill="#F2727F"/>
</g>
<defs>
<clipPath id="clip0_3972_24340">
<rect width="20" height="20" fill="white"/>
</clipPath>
</defs>
</svg>
