<svg width="20" height="20" viewBox="0 0 20 20" fill="none" xmlns="http://www.w3.org/2000/svg">
<path d="M19.9802 17.1226C19.9238 16.8039 19.6197 16.5912 19.3011 16.6477L17.6852 16.9334L16.9661 12.1048C16.8263 11.1659 15.977 10.5125 15.0341 10.6166L13.8434 10.7484L13.5741 8.6468C13.4533 7.70387 12.586 7.02023 11.6412 7.12254L7.40008 7.5823L6.08496 1.39273C5.91188 0.578086 5.18352 -0.00726562 4.35156 7.8125e-05L0.597658 0C0.274572 0 0.0124625 0.261523 0.0117203 0.584648C0.0109781 0.907695 0.271955 1.17043 0.595002 1.17188L2.44567 1.18016L3.9843 8.42172C5.21168 8.16113 6.50453 8.26215 7.68735 8.72992L11.7675 8.28762C12.0819 8.25395 12.3715 8.48133 12.4118 8.7957L12.6784 10.8773L10.6508 11.1016C11.3194 12.081 11.725 13.2532 11.7657 14.5162L13.1254 14.3659L13.4214 16.6765C12.852 16.9677 12.4611 17.56 12.4611 18.2422C12.4611 19.2115 13.2496 20 14.2189 20C15.1881 20 15.9767 19.2115 15.9767 18.2422C15.9767 17.3978 15.3781 16.6908 14.5831 16.5226L14.2903 14.2372L16.0696 14.0405L16.6148 17.7016C16.6633 18.0276 16.972 18.25 17.2964 18.1923L19.5052 17.8017C19.8239 17.7452 20.0366 17.4412 19.9802 17.1226ZM14.8048 18.2422C14.8048 18.5653 14.542 18.8281 14.2189 18.8281C13.8958 18.8281 13.6329 18.5653 13.6329 18.2422C13.6329 17.9191 13.8958 17.6562 14.2189 17.6562C14.542 17.6562 14.8048 17.9191 14.8048 18.2422Z" fill="#F2727F"/>
<path d="M5.32422 15.2734C5.62625 15.2734 5.87109 15.0286 5.87109 14.7266C5.87109 14.4245 5.62625 14.1797 5.32422 14.1797C5.02219 14.1797 4.77734 14.4245 4.77734 14.7266C4.77734 15.0286 5.02219 15.2734 5.32422 15.2734Z" fill="#C06A87"/>
<path d="M5.32422 9.45312C2.41645 9.45312 0.0507812 11.8188 0.0507812 14.7266C0.0507812 17.6343 2.41645 20 5.32422 20C8.23199 20 10.5977 17.6343 10.5977 14.7266C10.5977 11.8188 8.23199 9.45312 5.32422 9.45312ZM5.32422 16.4453C4.37648 16.4453 3.60547 15.6743 3.60547 14.7266C3.60547 13.7788 4.37648 13.0078 5.32422 13.0078C6.27195 13.0078 7.04297 13.7788 7.04297 14.7266C7.04297 15.6743 6.27195 16.4453 5.32422 16.4453Z" fill="#C06A87"/>
</svg>
