<svg width="20" height="20" viewBox="0 0 20 20" fill="none" xmlns="http://www.w3.org/2000/svg">
<g clip-path="url(#clip0_3972_24724)">
<path d="M13.0014 2.44354C13.0014 3.45214 12.5053 4.35333 11.748 4.90722C12.7014 4.94659 13.6185 5.24749 14.4125 5.78384L14.8834 6.10198C15.5165 5.21255 16.3812 4.50469 17.3947 4.06005L18.1502 3.72848L18.1592 3.35205C18.1606 3.29483 18.1641 2.77679 17.8685 2.22045C17.592 1.69998 17.0006 1.04553 15.7538 0.883326C14.624 0.736689 13.8211 1.11419 13.235 1.39007C13.1531 1.42852 13.0731 1.46606 12.9979 1.49932C13.0002 1.54617 13.0014 1.59317 13.0014 1.64062V2.44354Z" fill="#4D7EA5"/>
<path d="M5.59755 5.78424C6.38642 5.25125 7.29676 4.95096 8.24342 4.90839C8.12455 4.82172 8.01133 4.72559 7.90437 4.62045C7.32682 4.05237 7.00868 3.2934 7.00868 2.48331V2.34277C6.8271 2.46835 6.53932 2.62109 6.08522 2.77933C5.05433 3.13852 4.4394 4.07953 4.48045 5.23492C4.49464 5.63867 4.58665 6.02228 4.74015 6.36346L5.59755 5.78424Z" fill="#4D7EA5"/>
<path d="M8.19141 1.64093V1.75156L10.0051 1.09909L11.819 1.75156V1.64093C11.819 0.736084 11.0829 0 10.1781 0H9.83234C8.92749 0 8.19141 0.736084 8.19141 1.64093Z" fill="#FFB6A3"/>
<path d="M10.0055 4.29675C10.0159 4.29675 10.0262 4.29675 10.0368 4.29645C10.8374 4.28317 11.5163 3.72897 11.7406 2.98053L10.0053 2.35645L8.26172 2.98373C8.34656 3.28113 8.50693 3.55319 8.73383 3.77628C9.07593 4.11258 9.52637 4.29675 10.0055 4.29675Z" fill="#FFB6A3"/>
<path d="M3.83297 8.40454L2.40597 5.88181C2.20395 5.5246 1.82339 5.30273 1.41278 5.30273C1.24905 5.30273 1.09005 5.33737 0.940366 5.40558C0.659146 5.53375 0.43942 5.77454 0.337186 6.06613C0.234952 6.35773 0.256467 6.68304 0.396085 6.95862L2.20868 10.537C2.39895 10.9126 2.77874 11.1459 3.20004 11.1459C3.35171 11.1459 3.49957 11.1154 3.63965 11.0548L5.43072 10.2821V7.32498L3.83297 8.40454Z" fill="#FFB6A3"/>
<path d="M16.8081 11.1459C17.2291 11.1459 17.6089 10.9128 17.7992 10.5373L19.6133 6.95877C19.7531 6.68304 19.7746 6.35773 19.6723 6.06613C19.5701 5.77454 19.3504 5.53375 19.0692 5.40558C18.9195 5.33737 18.7606 5.30273 18.5967 5.30273C18.1863 5.30273 17.8059 5.5246 17.6037 5.88181L16.1767 8.40469L14.5742 7.32193V10.2806L16.3683 11.0548C16.5084 11.1153 16.6563 11.1459 16.8081 11.1459Z" fill="#FFB6A3"/>
<path d="M11.2899 6.08603H10.596V5.29395H9.41241V6.08603H8.71875V6.2995C8.71875 6.99942 9.29538 7.56888 10.0043 7.56888C10.7132 7.56888 11.2899 6.99942 11.2899 6.2995V6.08603Z" fill="#FFB6A3"/>
<path d="M8.97635 17.3447H8.11789C7.61343 17.3447 7.20312 17.6748 7.20312 18.0805C7.20312 18.4861 7.61343 18.8161 8.11789 18.8161H8.97635V17.3447Z" fill="#4D7EA5"/>
<path d="M13.3877 13.6443L13.3903 6.54865C13.0994 6.39377 12.7916 6.27689 12.4734 6.19922V6.29947C12.4734 7.65201 11.3658 8.75232 10.0043 8.75232C8.64272 8.75232 7.53509 7.65201 7.53509 6.29947V6.19922C7.21526 6.27734 6.90597 6.39514 6.61361 6.55109L6.62078 13.6443L5.43731 14.4568L1.82647 16.9355L1.80587 16.9524C1.24022 17.421 1.0353 18.1694 1.28386 18.8591C1.5335 19.552 2.17223 19.9997 2.91091 19.9997H8.11751C6.96044 19.9997 6.01912 19.1388 6.01912 18.0805C6.01912 17.0221 6.96029 16.1612 8.11751 16.1612H14.1342V17.3448H10.1593V18.8163H18.7393C18.9644 18.1385 18.7567 17.4112 18.2027 16.9524L18.1821 16.9355L14.5714 14.4568L13.3877 13.6443Z" fill="#4D7EA5"/>
</g>
<defs>
<clipPath id="clip0_3972_24724">
<rect width="20" height="20" fill="white"/>
</clipPath>
</defs>
</svg>
