<svg width="16" height="18" viewBox="0 0 16 18" fill="none" xmlns="http://www.w3.org/2000/svg">
<path d="M3.55556 8.1H5.33333V9.9H3.55556V8.1ZM16 3.6V16.2C16 17.19 15.2 18 14.2222 18H1.77778C1.30628 18 0.854097 17.8104 0.520699 17.4728C0.187301 17.1352 0 16.6774 0 16.2L0.00888888 3.6C0.00888888 2.61 0.791111 1.8 1.77778 1.8H2.66667V0H4.44444V1.8H11.5556V0H13.3333V1.8H14.2222C15.2 1.8 16 2.61 16 3.6ZM1.77778 5.4H14.2222V3.6H1.77778V5.4ZM14.2222 16.2V7.2H1.77778V16.2H14.2222ZM10.6667 9.9H12.4444V8.1H10.6667V9.9ZM7.11111 9.9H8.88889V8.1H7.11111V9.9Z" fill="white"/>
</svg>
