<svg width="20" height="25" viewBox="0 0 20 25" fill="none" xmlns="http://www.w3.org/2000/svg">
<path d="M6.19643 23.75V8.46876C4.46726 8.01042 3.05601 7.09376 1.96268 5.71876C0.869345 4.34376 0.218095 2.78126 0.00892857 1.03126C-0.0327381 0.739592 0.0714286 0.495008 0.321429 0.297508C0.571429 0.100008 0.863095 0.000841779 1.19643 8.44594e-06C1.52976 -0.000824887 1.82143 0.0879252 2.07143 0.266259C2.32143 0.444592 2.46726 0.689175 2.50893 1.00001C2.7381 2.50001 3.38393 3.75001 4.44643 4.75001C5.50893 5.75001 6.82143 6.25001 8.38393 6.25001H11.5089C12.1339 6.25001 12.7173 6.36459 13.2589 6.59376C13.8006 6.82293 14.2902 7.15626 14.7277 7.59376L19.5089 12.375C19.7381 12.6042 19.8527 12.8958 19.8527 13.25C19.8527 13.6042 19.7381 13.8958 19.5089 14.125C19.2798 14.3542 18.9881 14.4688 18.6339 14.4688C18.2798 14.4688 17.9881 14.3542 17.7589 14.125L13.6964 10.0625V23.75C13.6964 24.1042 13.5764 24.4013 13.3364 24.6413C13.0964 24.8813 12.7998 25.0008 12.4464 25C12.0931 24.9992 11.7964 24.8792 11.5564 24.64C11.3164 24.4008 11.1964 24.1042 11.1964 23.75V17.5H8.69643V23.75C8.69643 24.1042 8.57643 24.4013 8.33643 24.6413C8.09643 24.8813 7.79976 25.0008 7.44643 25C7.0931 24.9992 6.79643 24.8792 6.55643 24.64C6.31643 24.4008 6.19643 24.1042 6.19643 23.75ZM9.94643 5.00001C9.25893 5.00001 8.6706 4.75542 8.18143 4.26626C7.69226 3.77709 7.44726 3.18834 7.44643 2.50001C7.4456 1.81167 7.6906 1.22334 8.18143 0.735008C8.67226 0.246675 9.2606 0.00167511 9.94643 8.44594e-06C10.6323 -0.00165822 11.221 0.243342 11.7127 0.735008C12.2043 1.22668 12.4489 1.81501 12.4464 2.50001C12.4439 3.18501 12.1993 3.77376 11.7127 4.26626C11.226 4.75876 10.6373 5.00334 9.94643 5.00001Z" fill="white"/>
</svg>
