<svg width="29" height="29" viewBox="0 0 29 29" fill="none" xmlns="http://www.w3.org/2000/svg">
<rect width="29" height="29" rx="14.5" fill="#EDF2FA" fill-opacity="0.5"/>
<path d="M22.1854 12.9401L15.852 6.60679C15.7413 6.49611 15.6003 6.42074 15.4467 6.3902C15.2932 6.35967 15.134 6.37535 14.9894 6.43525C14.8447 6.49516 14.7211 6.5966 14.6341 6.72676C14.5471 6.85692 14.5007 7.00995 14.5007 7.1665V9.97296C12.338 10.1731 10.328 11.173 8.86374 12.7771C7.39952 14.3811 6.58657 16.4738 6.58398 18.6457V19.8332C6.58411 19.9975 6.63537 20.1577 6.73066 20.2916C6.82595 20.4255 6.96054 20.5264 7.11577 20.5804C7.27099 20.6343 7.43916 20.6386 7.59695 20.5927C7.75473 20.5467 7.89431 20.4528 7.99632 20.324C8.77203 19.4018 9.72369 18.6434 10.7957 18.093C11.8678 17.5427 13.0387 17.2114 14.2402 17.1185C14.2798 17.1138 14.3787 17.1059 14.5007 17.098V19.8332C14.5007 19.9897 14.5471 20.1427 14.6341 20.2729C14.7211 20.4031 14.8447 20.5045 14.9894 20.5644C15.134 20.6243 15.2932 20.64 15.4467 20.6095C15.6003 20.5789 15.7413 20.5036 15.852 20.3929L22.1854 14.0595C22.3338 13.9111 22.4171 13.7098 22.4171 13.4998C22.4171 13.2899 22.3338 13.0886 22.1854 12.9401ZM16.084 17.9221V16.2707C16.084 16.0607 16.0006 15.8593 15.8521 15.7109C15.7036 15.5624 15.5023 15.479 15.2923 15.479C15.0904 15.479 14.2663 15.5186 14.0557 15.5463C11.922 15.7427 9.89099 16.5533 8.20848 17.8801C8.39947 16.134 9.22779 14.5198 10.5348 13.3464C11.8419 12.173 13.5358 11.5229 15.2923 11.5207C15.5023 11.5207 15.7036 11.4373 15.8521 11.2888C16.0006 11.1403 16.084 10.939 16.084 10.729V9.07758L20.5062 13.4998L16.084 17.9221Z" fill="#92A3B4"/>
</svg>
