<svg width="25" height="17" viewBox="0 0 25 17" fill="none" xmlns="http://www.w3.org/2000/svg">
<path d="M16.3333 6L22.1511 3.155C22.3458 3.05979 22.5622 3.01485 22.7797 3.02443C22.9972 3.03402 23.2086 3.09781 23.3938 3.20976C23.5791 3.32171 23.732 3.4781 23.838 3.66409C23.9441 3.85008 23.9999 4.05951 24 4.2725V12.7275C23.9999 12.9405 23.9441 13.1499 23.838 13.3359C23.732 13.5219 23.5791 13.6783 23.3938 13.7902C23.2086 13.9022 22.9972 13.966 22.7797 13.9756C22.5622 13.9852 22.3458 13.9402 22.1511 13.845L16.3333 11V6ZM1 3.5C1 2.83696 1.26925 2.20107 1.7485 1.73223C2.22776 1.26339 2.87778 1 3.55556 1H13.7778C14.4556 1 15.1056 1.26339 15.5848 1.73223C16.0641 2.20107 16.3333 2.83696 16.3333 3.5V13.5C16.3333 14.163 16.0641 14.7989 15.5848 15.2678C15.1056 15.7366 14.4556 16 13.7778 16H3.55556C2.87778 16 2.22776 15.7366 1.7485 15.2678C1.26925 14.7989 1 14.163 1 13.5V3.5Z" stroke="#315D80" stroke-width="2" stroke-linecap="round" stroke-linejoin="round"/>
</svg>
