<svg width="29" height="21" viewBox="0 0 29 21" fill="none" xmlns="http://www.w3.org/2000/svg">
<path d="M18.6667 7.66667L24.9903 4.44233C25.202 4.33443 25.4372 4.2835 25.6736 4.29436C25.91 4.30522 26.1398 4.37752 26.3411 4.50439C26.5424 4.63127 26.7087 4.80851 26.824 5.0193C26.9393 5.23009 26.9999 5.46745 27 5.70883V15.2912C26.9999 15.5326 26.9393 15.7699 26.824 15.9807C26.7087 16.1915 26.5424 16.3687 26.3411 16.4956C26.1398 16.6225 25.91 16.6948 25.6736 16.7056C25.4372 16.7165 25.202 16.6656 24.9903 16.5577L18.6667 13.3333V7.66667ZM2 4.83333C2 4.08189 2.29266 3.36122 2.81359 2.82986C3.33453 2.29851 4.04107 2 4.77778 2H15.8889C16.6256 2 17.3321 2.29851 17.8531 2.82986C18.374 3.36122 18.6667 4.08189 18.6667 4.83333V16.1667C18.6667 16.9181 18.374 17.6388 17.8531 18.1701C17.3321 18.7015 16.6256 19 15.8889 19H4.77778C4.04107 19 3.33453 18.7015 2.81359 18.1701C2.29266 17.6388 2 16.9181 2 16.1667V4.83333Z" stroke="white" stroke-width="2.5" stroke-linecap="round" stroke-linejoin="round"/>
</svg>
