<svg width="30" height="30" viewBox="0 0 30 30" fill="none" xmlns="http://www.w3.org/2000/svg">
<circle cx="15" cy="15" r="12" fill="white"/>
<circle cx="15" cy="15" r="13.5" stroke="#9BB997" stroke-opacity="0.16" stroke-width="3"/>
<path d="M20.3594 15.3281H18.9375C18.8771 15.3281 18.8281 15.3771 18.8281 15.4375C18.8281 15.4979 18.8771 15.5469 18.9375 15.5469H20.3594V18.8172L17.9155 16.3733C18.2235 15.9872 18.2032 15.4237 17.8459 15.0665L17.2271 14.4479C17.0412 14.2619 16.7942 14.1596 16.531 14.1596C16.2679 14.1596 16.0209 14.2619 15.835 14.4479C15.7923 14.4905 15.7923 14.5599 15.835 14.6025L16.6857 15.4532L16.2217 15.9172L15.3708 15.0665C15.3502 15.0459 15.3224 15.0346 15.2933 15.0346C15.2642 15.0346 15.2365 15.0462 15.2159 15.0665C14.8322 15.4502 14.8322 16.0747 15.2159 16.4586L15.8348 17.0775C16.0207 17.2634 16.2677 17.3658 16.5308 17.3658C16.7566 17.3658 16.9683 17.2864 17.142 17.1473L18.1725 18.1778C18.1364 18.1741 18.0997 18.1719 18.0625 18.1719C17.513 18.1719 17.0495 18.5427 16.906 19.0469H14.0156V13.5781H20.3594V15.3281ZM15.875 18.3906H16.3125C16.3729 18.3906 16.4219 18.3416 16.4219 18.2812C16.4219 18.2209 16.3729 18.1719 16.3125 18.1719H15.875C15.8146 18.1719 15.7656 18.2209 15.7656 18.2812C15.7656 18.3416 15.8146 18.3906 15.875 18.3906ZM14.6719 17.4062C14.6719 17.4666 14.7209 17.5156 14.7812 17.5156H15.2188C15.2791 17.5156 15.3281 17.4666 15.3281 17.4062C15.3281 17.3459 15.2791 17.2969 15.2188 17.2969H14.7812C14.7209 17.2969 14.6719 17.3459 14.6719 17.4062ZM18.7188 16.4219H19.375C19.4354 16.4219 19.4844 16.3729 19.4844 16.3125C19.4844 16.2521 19.4354 16.2031 19.375 16.2031H18.7188C18.6584 16.2031 18.6094 16.2521 18.6094 16.3125C18.6094 16.3729 18.6584 16.4219 18.7188 16.4219ZM19.5938 14.2344H18.0625C18.0021 14.2344 17.9531 14.2834 17.9531 14.3438C17.9531 14.4041 18.0021 14.4531 18.0625 14.4531H19.5938C19.6541 14.4531 19.7031 14.4041 19.7031 14.3438C19.7031 14.2834 19.6541 14.2344 19.5938 14.2344Z" fill="#9BB997"/>
<path d="M21.2344 19.0469H20.5891L20.5781 19.0359V18.3906H21.2344V19.0469Z" fill="#9BB997"/>
<path d="M16.0733 14.5314C16.2052 14.4325 16.3642 14.3789 16.532 14.3789C16.7365 14.3789 16.9286 14.4585 17.0734 14.6031L17.6922 15.2217C17.9906 15.5203 17.9906 16.006 17.6922 16.3046L17.0734 16.9234C16.7842 17.2126 16.28 17.2126 15.9908 16.9234L15.372 16.3046C15.0998 16.0322 15.0758 15.6043 15.3002 15.3047L16.1455 16.1499C16.1881 16.1926 16.2575 16.1926 16.3001 16.1499L16.9187 15.5313C16.9614 15.4886 16.9614 15.4193 16.9187 15.3766L16.0733 14.5314Z" fill="#9BB997"/>
<path d="M18.6094 18.3044L17.3043 16.9993L17.7685 16.5352L20.2793 19.0464H19.3514L19.1322 18.8272C19.0169 18.603 18.8336 18.4197 18.6094 18.3044Z" fill="#9BB997"/>
<path d="M9.3125 17.9531H8.76562V17.6703L9.57653 16.8594H13.0312C13.0916 16.8594 13.1406 16.8104 13.1406 16.75V15.3281H13.7969V19.0469H12.219C12.0757 18.5427 11.612 18.1719 11.0625 18.1719C10.513 18.1719 10.0495 18.5427 9.90597 19.0469H8.76562V18.1719H9.3125C9.37288 18.1719 9.42188 18.1229 9.42188 18.0625C9.42188 18.0021 9.37288 17.9531 9.3125 17.9531ZM12.9219 18.0625C12.9219 18.1229 12.9709 18.1719 13.0312 18.1719C13.0916 18.1719 13.1406 18.1229 13.1406 18.0625V17.625C13.1406 17.5646 13.0916 17.5156 13.0312 17.5156C12.9709 17.5156 12.9219 17.5646 12.9219 17.625V18.0625Z" fill="#9BB997"/>
<path d="M18.0625 18.3906C18.6052 18.3906 19.0469 18.8323 19.0469 19.375C19.0469 19.9177 18.6052 20.3594 18.0625 20.3594C17.5198 20.3594 17.0781 19.9177 17.0781 19.375C17.0781 18.8323 17.5198 18.3906 18.0625 18.3906ZM18.0625 19.5938C18.1833 19.5938 18.2812 19.4957 18.2812 19.375C18.2812 19.2542 18.1833 19.1562 18.0625 19.1562C17.9418 19.1562 17.8438 19.2542 17.8438 19.375C17.8438 19.4957 17.9418 19.5938 18.0625 19.5938Z" fill="#9BB997"/>
<path d="M11.0625 18.3906C11.6052 18.3906 12.0469 18.8323 12.0469 19.375C12.0469 19.9177 11.6052 20.3594 11.0625 20.3594C10.5198 20.3594 10.0781 19.9177 10.0781 19.375C10.0781 18.8323 10.5198 18.3906 11.0625 18.3906ZM11.0625 19.5938C11.1833 19.5938 11.2812 19.4957 11.2812 19.375C11.2812 19.2542 11.1833 19.1562 11.0625 19.1562C10.9418 19.1562 10.8438 19.2542 10.8438 19.375C10.8438 19.4957 10.9418 19.5938 11.0625 19.5938Z" fill="#9BB997"/>
<path d="M11.5634 15.3281H12.9219V16.6406H10.8136L11.5634 15.3281Z" fill="#9BB997"/>
<path d="M20.6863 11.4456H12.7857L12.7857 11.8811C12.7858 11.9774 12.5612 12.0364 12.3999 11.9748L10.0931 11.0936C9.96897 11.0462 9.96897 10.9538 10.0931 10.9064L12.3999 10.0252C12.5612 9.9636 12.7858 10.0226 12.7857 10.119V10.5544H20.6863C20.8591 10.5544 21 10.6241 21 10.7095V11.2905C21 11.3759 20.859 11.4456 20.6863 11.4456Z" fill="#9BB997"/>
</svg>
