<svg width="30" height="30" viewBox="0 0 30 30" fill="none" xmlns="http://www.w3.org/2000/svg">
<circle cx="15" cy="15" r="12" fill="white"/>
<circle cx="15" cy="15" r="13.5" stroke="#9BB997" stroke-opacity="0.16" stroke-width="3"/>
<g clip-path="url(#clip0_3152_8732)">
<path fill-rule="evenodd" clip-rule="evenodd" d="M19.1406 21.741C20.8484 21.12 21.987 19.4897 21.987 17.6525C21.987 16.721 21.6765 15.8153 21.133 15.0907C21.1589 15.039 21.1589 14.9614 21.1848 14.9096L21.133 9.91544C21.1072 8.82862 20.2274 7.9747 19.1406 8.00057H10.0062C8.91934 8.00057 8.03954 8.8545 8.01367 9.91544V18.5065C8.03954 19.5933 8.91936 20.4472 10.0062 20.4213H14.224H14.3534C15.492 21.8445 17.4327 22.362 19.1406 21.741ZM18.3643 11.468C18.3643 11.0799 18.0538 10.7693 17.6656 10.7693H11.4552C11.0671 10.7693 10.7566 11.0799 10.7566 11.468C10.7566 11.8562 11.0671 12.1667 11.4552 12.1667H17.6656C18.0538 12.1408 18.3643 11.8303 18.3643 11.468ZM19.5546 16.4881C19.684 16.6174 19.7616 16.7986 19.7616 16.9797C19.7616 17.1609 19.6839 17.342 19.5546 17.4714L17.4845 19.5415C17.3551 19.6709 17.1739 19.7485 16.9928 19.7485H16.8893C16.6823 19.7226 16.4753 19.5674 16.3976 19.3862L15.6989 18.0148C15.5696 17.7819 15.5696 17.5231 15.6989 17.2902C15.8283 17.0832 16.0871 16.9538 16.3459 16.9538C16.6046 16.9797 16.8375 17.135 16.9152 17.3679L17.1739 17.8854L18.5454 16.5139C18.6748 16.3846 18.8559 16.3069 19.037 16.2811C19.2182 16.2811 19.3993 16.3587 19.5546 16.4881ZM17.6656 13.357C18.3902 13.357 19.1147 13.5381 19.7357 13.9004V9.94129C19.7357 9.78603 19.6581 9.63078 19.5546 9.55314C19.4511 9.44962 19.2958 9.39788 19.1406 9.39788H10.0062C9.69564 9.37201 9.411 9.63078 9.38513 9.94129V18.5323C9.411 18.8428 9.66977 19.1016 10.0062 19.0757H13.5771C13.1372 17.756 13.3442 16.3069 14.1464 15.1684C14.9744 14.0298 16.2942 13.357 17.6656 13.357ZM17.6656 14.7285C19.2958 14.7285 20.5897 16.0482 20.5897 17.6525C20.5897 19.2827 19.27 20.5766 17.6656 20.5766C16.0613 20.6024 14.7416 19.2827 14.7416 17.6784C14.7416 16.074 16.0613 14.7285 17.6656 14.7285Z" fill="#9BB997"/>
</g>
<defs>
<clipPath id="clip0_3152_8732">
<rect width="14" height="14" fill="white" transform="translate(8 8)"/>
</clipPath>
</defs>
</svg>
