<svg width="30" height="30" viewBox="0 0 30 30" fill="none" xmlns="http://www.w3.org/2000/svg">
<circle cx="15" cy="15" r="12" fill="white"/>
<circle cx="15" cy="15" r="13.5" stroke="#F2727F" stroke-opacity="0.16" stroke-width="3"/>
<path d="M18.3024 22H10.2076C9.6179 22 9.06347 21.7704 8.64653 21.3533C8.22964 20.9364 8 20.382 8 19.7924V11.6976C8 11.1079 8.22964 10.5535 8.64661 10.1365C9.06358 9.71956 9.61798 9.48994 10.2077 9.48994H13.8871C14.2935 9.48994 14.623 9.81938 14.623 10.2258C14.623 10.6322 14.2935 10.9617 13.8871 10.9617H10.2076C10.0111 10.9617 9.82627 11.0383 9.68728 11.1772C9.54829 11.3162 9.47174 11.501 9.47174 11.6976V19.7924C9.47174 19.9889 9.54832 20.1737 9.68731 20.3127C9.82627 20.4517 10.0111 20.5283 10.2076 20.5283H18.3024C18.499 20.5283 18.6837 20.4517 18.8227 20.3127C18.9617 20.1737 19.0383 19.9889 19.0383 19.7924V16.1129C19.0383 15.7065 19.3677 15.377 19.7742 15.377C20.1806 15.377 20.51 15.7065 20.51 16.1129V19.7924C20.51 20.3821 20.2804 20.9364 19.8634 21.3534C19.4465 21.7704 18.8921 22 18.3024 22ZM14.4964 18.3206H12.4153C12.0089 18.3206 11.6794 17.9911 11.6794 17.5847V15.5036C11.6794 15.3084 11.7569 15.1212 11.8949 14.9832L18.2092 8.66897C18.4129 8.45939 18.6523 8.29465 18.921 8.17927C19.1917 8.06297 19.4784 8.00267 19.7731 8.00014C20.0679 7.99685 20.3555 8.05285 20.6283 8.16447C20.901 8.27603 21.145 8.43826 21.3534 8.64669C21.5617 8.85504 21.7241 9.09909 21.8356 9.37197C21.9471 9.64432 22.0024 9.93206 21.9999 10.2268C21.9973 10.5214 21.9371 10.8081 21.8208 11.079C21.7054 11.3477 21.5406 11.5871 21.3311 11.7908L15.0168 18.1051C14.8787 18.2431 14.6916 18.3206 14.4964 18.3206ZM13.1512 16.8488H14.1916L20.2944 10.746C20.2974 10.743 20.3004 10.74 20.3035 10.7371C20.3741 10.6688 20.4297 10.5884 20.4684 10.4982C20.5072 10.4079 20.5273 10.3123 20.5281 10.2142C20.529 10.1159 20.5105 10.02 20.4733 9.92921C20.4361 9.83803 20.3821 9.75683 20.3127 9.68742C20.2431 9.61789 20.1619 9.56381 20.071 9.52665C19.98 9.48941 19.8841 9.47012 19.7859 9.47185C19.6876 9.47271 19.592 9.49281 19.5019 9.53156C19.4115 9.57036 19.3312 9.62584 19.2629 9.6965C19.2599 9.69954 19.2569 9.70261 19.254 9.70559L13.1512 15.8084V16.8488Z" fill="#F2727F"/>
</svg>
