<svg width="30" height="30" viewBox="0 0 30 30" fill="none" xmlns="http://www.w3.org/2000/svg">
<circle cx="15" cy="15" r="12" fill="white"/>
<circle cx="15" cy="15" r="13.5" stroke="#F2727F" stroke-opacity="0.16" stroke-width="3"/>
<path d="M9.64062 15.3281H11.0625C11.1229 15.3281 11.1719 15.3771 11.1719 15.4375C11.1719 15.4979 11.1229 15.5469 11.0625 15.5469H9.64062V18.8172L12.0845 16.3733C11.7765 15.9872 11.7968 15.4237 12.1541 15.0665L12.7729 14.4479C12.9588 14.2619 13.2058 14.1596 13.469 14.1596C13.7321 14.1596 13.9791 14.2619 14.165 14.4479C14.2077 14.4905 14.2077 14.5599 14.165 14.6025L13.3143 15.4532L13.7783 15.9172L14.6292 15.0665C14.6498 15.0459 14.6776 15.0346 14.7067 15.0346C14.7358 15.0346 14.7635 15.0462 14.7841 15.0665C15.1678 15.4502 15.1678 16.0747 14.7841 16.4586L14.1652 17.0775C13.9793 17.2634 13.7323 17.3658 13.4692 17.3658C13.2434 17.3658 13.0317 17.2864 12.858 17.1473L11.8275 18.1778C11.8636 18.1741 11.9003 18.1719 11.9375 18.1719C12.487 18.1719 12.9505 18.5427 13.094 19.0469H15.9844V13.5781H9.64062V15.3281ZM14.125 18.3906H13.6875C13.6271 18.3906 13.5781 18.3416 13.5781 18.2812C13.5781 18.2209 13.6271 18.1719 13.6875 18.1719H14.125C14.1854 18.1719 14.2344 18.2209 14.2344 18.2812C14.2344 18.3416 14.1854 18.3906 14.125 18.3906ZM15.3281 17.4062C15.3281 17.4666 15.2791 17.5156 15.2188 17.5156H14.7812C14.7209 17.5156 14.6719 17.4666 14.6719 17.4062C14.6719 17.3459 14.7209 17.2969 14.7812 17.2969H15.2188C15.2791 17.2969 15.3281 17.3459 15.3281 17.4062ZM11.2812 16.4219H10.625C10.5646 16.4219 10.5156 16.3729 10.5156 16.3125C10.5156 16.2521 10.5646 16.2031 10.625 16.2031H11.2812C11.3416 16.2031 11.3906 16.2521 11.3906 16.3125C11.3906 16.3729 11.3416 16.4219 11.2812 16.4219ZM10.4062 14.2344H11.9375C11.9979 14.2344 12.0469 14.2834 12.0469 14.3438C12.0469 14.4041 11.9979 14.4531 11.9375 14.4531H10.4062C10.3459 14.4531 10.2969 14.4041 10.2969 14.3438C10.2969 14.2834 10.3459 14.2344 10.4062 14.2344Z" fill="#F2727F"/>
<path d="M8.76562 19.0469H9.41094L9.42188 19.0359V18.3906H8.76562V19.0469Z" fill="#F2727F"/>
<path d="M13.9267 14.5314C13.7948 14.4325 13.6358 14.3789 13.468 14.3789C13.2635 14.3789 13.0714 14.4585 12.9266 14.6031L12.3078 15.2217C12.0094 15.5203 12.0094 16.006 12.3078 16.3046L12.9266 16.9234C13.2158 17.2126 13.72 17.2126 14.0092 16.9234L14.628 16.3046C14.9002 16.0322 14.9242 15.6043 14.6998 15.3047L13.8545 16.1499C13.8119 16.1926 13.7425 16.1926 13.6999 16.1499L13.0813 15.5313C13.0386 15.4886 13.0386 15.4193 13.0813 15.3766L13.9267 14.5314Z" fill="#F2727F"/>
<path d="M11.3906 18.3044L12.6957 16.9993L12.2315 16.5352L9.7207 19.0464H10.6486L10.8678 18.8272C10.9831 18.603 11.1664 18.4197 11.3906 18.3044Z" fill="#F2727F"/>
<path d="M20.6875 17.9531H21.2344V17.6703L20.4235 16.8594H16.9688C16.9084 16.8594 16.8594 16.8104 16.8594 16.75V15.3281H16.2031V19.0469H17.781C17.9243 18.5427 18.388 18.1719 18.9375 18.1719C19.487 18.1719 19.9505 18.5427 20.094 19.0469H21.2344V18.1719H20.6875C20.6271 18.1719 20.5781 18.1229 20.5781 18.0625C20.5781 18.0021 20.6271 17.9531 20.6875 17.9531ZM17.0781 18.0625C17.0781 18.1229 17.0291 18.1719 16.9688 18.1719C16.9084 18.1719 16.8594 18.1229 16.8594 18.0625V17.625C16.8594 17.5646 16.9084 17.5156 16.9688 17.5156C17.0291 17.5156 17.0781 17.5646 17.0781 17.625V18.0625Z" fill="#F2727F"/>
<path d="M11.9375 18.3906C11.3948 18.3906 10.9531 18.8323 10.9531 19.375C10.9531 19.9177 11.3948 20.3594 11.9375 20.3594C12.4802 20.3594 12.9219 19.9177 12.9219 19.375C12.9219 18.8323 12.4802 18.3906 11.9375 18.3906ZM11.9375 19.5938C11.8167 19.5938 11.7188 19.4957 11.7188 19.375C11.7188 19.2542 11.8167 19.1562 11.9375 19.1562C12.0582 19.1562 12.1562 19.2542 12.1562 19.375C12.1562 19.4957 12.0582 19.5938 11.9375 19.5938Z" fill="#F2727F"/>
<path d="M18.9375 18.3906C18.3948 18.3906 17.9531 18.8323 17.9531 19.375C17.9531 19.9177 18.3948 20.3594 18.9375 20.3594C19.4802 20.3594 19.9219 19.9177 19.9219 19.375C19.9219 18.8323 19.4802 18.3906 18.9375 18.3906ZM18.9375 19.5938C18.8167 19.5938 18.7188 19.4957 18.7188 19.375C18.7188 19.2542 18.8167 19.1562 18.9375 19.1562C19.0582 19.1562 19.1562 19.2542 19.1562 19.375C19.1562 19.4957 19.0582 19.5938 18.9375 19.5938Z" fill="#F2727F"/>
<path d="M18.4366 15.3281H17.0781V16.6406H19.1864L18.4366 15.3281Z" fill="#F2727F"/>
<path d="M9.31373 11.4456H17.2143L17.2143 11.8811C17.2142 11.9774 17.4388 12.0364 17.6001 11.9748L19.9069 11.0936C20.031 11.0462 20.031 10.9538 19.9069 10.9064L17.6001 10.0252C17.4388 9.9636 17.2142 10.0226 17.2143 10.119V10.5544H9.31373C9.14091 10.5544 9 10.6241 9 10.7095V11.2905C9 11.3759 9.141 11.4456 9.31373 11.4456Z" fill="#F2727F"/>
</svg>
