<svg width="30" height="30" viewBox="0 0 30 30" fill="none" xmlns="http://www.w3.org/2000/svg">
<circle cx="15" cy="15" r="12" fill="white"/>
<circle cx="15" cy="15" r="13.5" stroke="#F1D15B" stroke-opacity="0.16" stroke-width="3"/>
<g clip-path="url(#clip0_10578_4680)">
<path d="M8.89819 20.5827C8.36096 20.7524 8 21.2449 8 21.8084V22.0005H14.5898V20.3425C13.7504 20.2678 12.9752 19.9665 12.3261 19.5L8.89819 20.5827Z" fill="#F1D15B"/>
<path d="M21.1018 20.5827L17.6739 19.5C17.0248 19.9665 16.2496 20.2679 15.4102 20.3425V22.0006H22V21.8084C22 21.245 21.6391 20.7524 21.1018 20.5827Z" fill="#F1D15B"/>
<path d="M10.4076 14.771V13.9238C10.4076 11.3919 12.4675 9.33202 14.9995 9.33202C17.5314 9.33202 19.5913 11.3919 19.5913 13.9238V14.771C19.9493 14.4979 20.2577 14.1621 20.4999 13.7774C20.8775 13.1777 21.077 12.484 21.077 11.7716C21.077 9.69189 19.3852 8 17.3055 8H12.6934C10.6138 8 8.92188 9.69189 8.92188 11.7715C8.92188 12.484 9.12146 13.1777 9.49902 13.7774C9.74118 14.1621 10.0496 14.4978 10.4076 14.771Z" fill="#F1D15B"/>
<path d="M15 10.1523C13.6771 10.1523 12.5113 10.8371 11.8379 11.8706C12.1081 12.1208 12.6007 12.4817 13.2997 12.7709C15.0842 13.5092 17.1487 13.3906 18.685 13.12C18.3156 11.4253 16.8038 10.1523 15 10.1523Z" fill="#F1D15B"/>
<path d="M18.7716 15.7696V13.9387C17.9506 14.0812 17.1626 14.153 16.4163 14.153C16.0922 14.153 15.7761 14.1395 15.4683 14.1125C14.5374 14.0308 13.6807 13.8257 12.9222 13.503C12.2494 13.2168 11.7704 12.8865 11.4587 12.627C11.3098 13.0318 11.2285 13.4689 11.2285 13.9248V15.7697C11.2285 16.4604 11.4153 17.1082 11.7408 17.6656H15.9225V18.4859H12.3863C13.0647 19.1389 13.9862 19.5411 15 19.5411C17.0797 19.5411 18.7716 17.8492 18.7716 15.7696Z" fill="#F1D15B"/>
<path d="M11.7408 17.6647H10.4082V15.5098H9.58789V18.485H12.3863C12.1353 18.2433 11.9176 17.9674 11.7408 17.6647Z" fill="#F1D15B"/>
</g>
<defs>
<clipPath id="clip0_10578_4680">
<rect width="14" height="14" fill="white" transform="translate(8 8)"/>
</clipPath>
</defs>
</svg>
