<svg width="24" height="26" viewBox="0 0 24 26" fill="none" xmlns="http://www.w3.org/2000/svg">
<path d="M11.7585 20.25V20.095C11.7597 19.6792 11.699 19.2655 11.5785 18.8675H20.3485C20.6946 18.8675 21.0265 19.005 21.2712 19.2497C21.516 19.4945 21.6535 19.8264 21.6535 20.1725C21.6535 20.5186 21.516 20.8505 21.2712 21.0953C21.0265 21.34 20.6946 21.4775 20.3485 21.4775H11.5535C11.6897 21.0826 11.759 20.6677 11.7585 20.25ZM20.346 24.4775H7.28847C7.20469 24.4787 7.12098 24.472 7.03847 24.4575C5.70991 24.3477 4.47126 23.7421 3.56857 22.7612C2.66589 21.7802 2.1652 20.4956 2.16596 19.1625V2.5525C1.80555 2.63332 1.48349 2.83469 1.25303 3.12334C1.02256 3.41199 0.897482 3.77063 0.898464 4.14V21.43C0.894467 22.5692 1.34215 23.6635 2.14345 24.4732C2.94474 25.2829 4.03431 25.7421 5.17346 25.75H18.0785C18.5785 25.7472 19.0712 25.6299 19.5188 25.4071C19.9665 25.1844 20.3572 24.8621 20.661 24.465C20.5585 24.4775 20.4535 24.485 20.3485 24.485L20.346 24.4775ZM23.616 20.1725C23.6193 21.044 23.277 21.8813 22.664 22.5008C22.051 23.1203 21.2175 23.4716 20.346 23.4775H7.28847C7.2519 23.4813 7.21503 23.4813 7.17847 23.4775C6.08973 23.3996 5.07117 22.9112 4.32865 22.1112C3.58614 21.3111 3.17505 20.259 3.17846 19.1675V8.75H19.9285V16.875H20.3535C21.2241 16.8823 22.0564 17.2341 22.6683 17.8535C23.2802 18.4728 23.6218 19.3094 23.6185 20.18L23.616 20.1725ZM8.86597 10.35H17.2135V9.35H8.87597L8.86597 10.35ZM8.86597 12.2075H17.2135V11.2075H8.87597L8.86597 12.2075ZM8.86597 14.0675H17.2135V13.0675H8.87597L8.86597 14.0675ZM8.00847 14.9325H5.87597V15.9325H8.00847V14.9325ZM8.00847 13.075H5.87597V14.075H8.00847V13.075ZM8.00847 11.215H5.87597V12.215H8.00847V11.215ZM8.00847 9.3575H5.87597V10.3575H8.00847V9.3575ZM8.88097 15.9325H17.2135V14.9325H8.87597L8.88097 15.9325ZM22.631 20.1825C22.635 19.576 22.3982 18.9927 21.9726 18.5606C21.5471 18.1284 20.9674 17.8828 20.361 17.8775H9.87597C10.4449 18.4784 10.7609 19.275 10.7585 20.1025V20.25C10.7514 20.6697 10.6591 21.0835 10.4872 21.4664C10.3153 21.8494 10.0674 22.1933 9.75846 22.4775H20.3485C20.9536 22.4722 21.5321 22.2276 21.9575 21.7971C22.3828 21.3666 22.6205 20.7852 22.6185 20.18L22.631 20.1825ZM3.16596 7.75V1.87C3.16596 1.44165 3.33561 1.03072 3.6378 0.72713C3.93999 0.423536 4.35012 0.251983 4.77847 0.25H18.311C18.7402 0.251985 19.1511 0.424226 19.4534 0.728901C19.7557 1.03358 19.9248 1.44578 19.9235 1.875V7.75H3.16596ZM13.956 6.2025C13.956 6.33511 14.0086 6.46229 14.1024 6.55605C14.1962 6.64982 14.3234 6.7025 14.456 6.7025H15.4085C15.6456 6.7029 15.878 6.63667 16.0792 6.51135C16.2805 6.38604 16.4425 6.20669 16.5467 5.99375C16.651 5.78082 16.6933 5.54287 16.6689 5.30705C16.6444 5.07122 16.5542 4.84702 16.4085 4.66C16.5545 4.47323 16.6449 4.24914 16.6695 4.01336C16.6941 3.77758 16.6518 3.53965 16.5474 3.32679C16.4431 3.11393 16.2809 2.93475 16.0795 2.80976C15.8781 2.68476 15.6455 2.619 15.4085 2.62H14.456C14.3234 2.62 14.1962 2.67268 14.1024 2.76645C14.0086 2.86021 13.956 2.98739 13.956 3.12V6.1925V6.2025ZM10.0085 5.6925C10.0085 5.95772 10.1138 6.21207 10.3014 6.39961C10.4889 6.58714 10.7432 6.6925 11.0085 6.6925H11.701C11.8323 6.6925 11.9623 6.66663 12.0836 6.61638C12.205 6.56612 12.3152 6.49247 12.4081 6.39961C12.5009 6.30675 12.5746 6.19651 12.6248 6.07518C12.6751 5.95386 12.701 5.82382 12.701 5.6925V3.61C12.701 3.34478 12.5956 3.09043 12.4081 2.90289C12.2205 2.71536 11.9662 2.61 11.701 2.61H11.0085C10.7432 2.61 10.4889 2.71536 10.3014 2.90289C10.1138 3.09043 10.0085 3.34478 10.0085 3.61V5.6925ZM5.91096 5.275C5.90294 5.46599 5.93363 5.65663 6.00118 5.83546C6.06874 6.01428 6.17176 6.17759 6.30406 6.31557C6.43637 6.45355 6.59521 6.56334 6.77104 6.63835C6.94687 6.71335 7.13606 6.75202 7.32722 6.75202C7.51837 6.75202 7.70756 6.71335 7.88339 6.63835C8.05922 6.56334 8.21806 6.45355 8.35037 6.31557C8.48267 6.17759 8.58569 6.01428 8.65325 5.83546C8.7208 5.65663 8.75149 5.46599 8.74346 5.275V2.795H7.74346V5.275C7.74791 5.33237 7.74046 5.39005 7.72156 5.44441C7.70265 5.49876 7.67272 5.54862 7.63363 5.59086C7.59455 5.63309 7.54715 5.66679 7.49442 5.68984C7.44169 5.71289 7.38476 5.72478 7.32722 5.72478C7.26967 5.72478 7.21274 5.71289 7.16001 5.68984C7.10728 5.66679 7.05988 5.63309 7.0208 5.59086C6.98171 5.54862 6.95178 5.49876 6.93288 5.44441C6.91398 5.39005 6.90652 5.33237 6.91097 5.275V4.9675H5.91096V5.275ZM11.7035 3.61H11.0085V5.6925H11.7035V3.61ZM15.6785 3.88C15.6785 3.80839 15.65 3.73972 15.5994 3.68908C15.5487 3.63845 15.4801 3.61 15.4085 3.61H14.956V4.15H15.4085C15.4439 4.15 15.479 4.14302 15.5118 4.12945C15.5445 4.11588 15.5743 4.09599 15.5994 4.07092C15.6245 4.04585 15.6443 4.01608 15.6579 3.98332C15.6715 3.95057 15.6785 3.91546 15.6785 3.88ZM15.4085 5.15H14.956V5.6925H15.4085C15.4759 5.68602 15.5385 5.65464 15.5841 5.60449C15.6297 5.55434 15.6549 5.48901 15.6549 5.42125C15.6549 5.35349 15.6297 5.28816 15.5841 5.23801C15.5385 5.18786 15.4759 5.15648 15.4085 5.15Z" fill="#315D80"/>
</svg>
