<svg width="30" height="30" viewBox="0 0 30 30" fill="none" xmlns="http://www.w3.org/2000/svg">
<circle cx="15" cy="15" r="12" fill="white"/>
<circle cx="15" cy="15" r="13.5" stroke="#9BB997" stroke-opacity="0.16" stroke-width="3"/>
<g clip-path="url(#clip0_10578_4676)">
<path fill-rule="evenodd" clip-rule="evenodd" d="M20.9134 12.553C20.9134 10.6382 19.3553 9.08008 17.44 9.08008C15.5257 9.08008 13.9676 10.6382 13.9676 12.553C13.9676 13.4048 14.2793 14.2241 14.8449 14.86C14.996 15.0301 15.1629 15.185 15.3447 15.3225L16.8059 14.6441C17.0335 14.5384 17.2887 14.528 17.5259 14.6147C17.7632 14.7012 17.9514 14.8736 18.0566 15.1001C18.1629 15.3145 18.1767 15.5634 18.0939 15.8009C18.0715 15.8637 18.0428 15.9236 18.0098 15.9796C19.6681 15.7085 20.9134 14.2764 20.9134 12.553ZM11.14 12.8551C12.1046 12.8551 12.8895 12.0707 12.8895 11.1064C12.8895 10.1421 12.1046 9.35794 11.14 9.35794C10.1764 9.35794 9.39154 10.1423 9.39154 11.1066C9.39154 12.071 10.1764 12.8551 11.14 12.8551ZM16.9371 14.9277C17.253 14.7814 17.6285 14.9189 17.7751 15.234L17.7772 15.2379C17.8462 15.3764 17.8538 15.5397 17.7986 15.6978C17.74 15.8647 17.6199 16.0009 17.4689 16.071C16.7861 16.3879 16.3033 16.6626 15.9163 16.8835C15.3421 17.21 15.0262 17.3897 14.6699 17.3467C14.2923 17.3009 13.8181 17.0105 12.9618 16.4176C12.9139 16.3845 12.8512 16.3806 12.8001 16.4077C12.7491 16.4345 12.716 16.4879 12.716 16.546V20.9421H8.98633V15.7382C8.98633 14.7212 9.81367 13.8941 10.8303 13.8941C11.9556 13.8941 12.735 14.5371 13.5613 15.2176C13.7837 15.4012 14.0145 15.591 14.2559 15.772C14.4621 15.927 14.7259 15.9546 14.9598 15.8457L16.9371 14.9277ZM15.9491 12.2993L17.002 13.3525L18.9322 11.4223C18.9928 11.3613 19.0918 11.3613 19.1533 11.4223C19.2139 11.4832 19.2139 11.5822 19.1533 11.6434L17.1124 13.684C17.0816 13.7145 17.0421 13.7298 17.0017 13.7298C16.9624 13.7298 16.922 13.7145 16.891 13.684L15.7275 12.5204C15.6668 12.4595 15.6668 12.3605 15.7275 12.2993C15.7884 12.2382 15.8874 12.2382 15.9491 12.2993Z" fill="#9BB997"/>
</g>
<defs>
<clipPath id="clip0_10578_4676">
<rect width="13.3333" height="13.3333" fill="white" transform="translate(8.33398 8.33398)"/>
</clipPath>
</defs>
</svg>
