<svg width="30" height="30" viewBox="0 0 30 30" fill="none" xmlns="http://www.w3.org/2000/svg">
<circle cx="15" cy="15" r="12" fill="white"/>
<circle cx="15" cy="15" r="13.5" stroke="#E5BC38" stroke-opacity="0.1" stroke-width="3"/>
<path d="M15.7615 8.77929L16.7142 10.7892L18.8443 11.1116C19.0008 11.1351 19.1479 11.2039 19.269 11.3102C19.39 11.4165 19.48 11.556 19.529 11.7129C19.5779 11.8698 19.5838 12.0378 19.5459 12.1981C19.5081 12.3583 19.428 12.5042 19.3147 12.6194L17.7731 14.1839L18.137 16.3931C18.1638 16.556 18.1463 16.7235 18.0865 16.8765C18.0267 17.0296 17.9271 17.1622 17.7989 17.2592C17.6706 17.3563 17.5189 17.414 17.3609 17.4258C17.2029 17.4375 17.0448 17.403 16.9047 17.3259L14.9994 16.2828L13.0941 17.3259C12.954 17.4028 12.796 17.4374 12.6381 17.4256C12.4802 17.4138 12.3286 17.3562 12.2004 17.2592C12.0722 17.1622 11.9726 17.0298 11.9128 16.8768C11.853 16.7239 11.8354 16.5565 11.8619 16.3937L12.2259 14.1845L10.6841 12.6194C10.5706 12.5042 10.4904 12.3582 10.4524 12.1979C10.4145 12.0375 10.4204 11.8693 10.4694 11.7123C10.5184 11.5553 10.6086 11.4157 10.7297 11.3094C10.8509 11.2031 10.9982 11.1344 11.1549 11.111L13.2846 10.7892L14.2373 8.77929C14.3075 8.63096 14.4161 8.50607 14.5507 8.41875C14.6854 8.33143 14.8408 8.28516 14.9994 8.28516C15.158 8.28516 15.3134 8.33143 15.4481 8.41875C15.5827 8.50607 15.6913 8.63096 15.7615 8.77929Z" fill="#F1D15B"/>
<path d="M12.519 20.2105L12.7966 20.7971L13.418 20.8913C13.4646 20.9 13.5079 20.9212 13.5433 20.9527C13.5788 20.9842 13.6049 21.0247 13.6191 21.0699C13.6332 21.1152 13.6347 21.1634 13.6235 21.2095C13.6122 21.2555 13.5887 21.2976 13.5553 21.3313L13.1057 21.7875L13.2124 22.4318C13.2217 22.478 13.2178 22.5258 13.2011 22.5699C13.1844 22.6139 13.1557 22.6524 13.1181 22.6808C13.0806 22.7092 13.0357 22.7264 12.9888 22.7305C12.9419 22.7346 12.8948 22.7253 12.8529 22.7038L12.2969 22.399L11.7414 22.7033C11.6995 22.7248 11.6524 22.734 11.6055 22.73C11.5586 22.7259 11.5138 22.7087 11.4762 22.6802C11.4387 22.6518 11.4099 22.6134 11.3932 22.5693C11.3765 22.5253 11.3726 22.4774 11.382 22.4313L11.4886 21.787L11.0385 21.3307C11.0051 21.2971 10.9816 21.255 10.9703 21.2089C10.9591 21.1629 10.9606 21.1147 10.9747 21.0694C10.9889 21.0242 11.015 20.9836 11.0505 20.9521C11.0859 20.9207 11.1292 20.8994 11.1758 20.8907L11.7972 20.7966L12.0748 20.2099C12.094 20.1671 12.1253 20.1308 12.1647 20.1053C12.2042 20.0799 12.2501 20.0664 12.2971 20.0664C12.344 20.0665 12.39 20.0801 12.4293 20.1057C12.4687 20.1312 12.4999 20.1676 12.519 20.2105Z" fill="#F1D15B"/>
<path d="M9.62238 20.2112L9.89998 20.7979L10.5213 20.892C10.5679 20.9007 10.6112 20.922 10.6467 20.9535C10.6821 20.9849 10.7083 21.0255 10.7224 21.0707C10.7365 21.116 10.7381 21.1642 10.7268 21.2102C10.7156 21.2563 10.692 21.2984 10.6586 21.332L10.209 21.7883L10.3157 22.4326C10.325 22.4787 10.3211 22.5266 10.3045 22.5706C10.2878 22.6147 10.259 22.6531 10.2215 22.6815C10.1839 22.71 10.1391 22.7272 10.0922 22.7313C10.0453 22.7354 9.99814 22.7261 9.95625 22.7046L9.40025 22.3998L8.84478 22.704C8.80289 22.7256 8.75577 22.7348 8.70886 22.7307C8.66194 22.7267 8.61712 22.7094 8.57957 22.681C8.54201 22.6526 8.51325 22.6142 8.49657 22.5701C8.4799 22.5261 8.47599 22.4782 8.48531 22.432L8.59198 21.7878L8.14185 21.3315C8.10847 21.2978 8.08492 21.2556 8.07374 21.2095C8.06257 21.1634 8.06418 21.1151 8.07842 21.0698C8.09266 21.0245 8.11898 20.984 8.15454 20.9526C8.19011 20.9212 8.23357 20.9001 8.28025 20.8915L8.90158 20.7974L9.17918 20.2107C9.19859 20.1682 9.22982 20.1322 9.26914 20.1069C9.30846 20.0817 9.35422 20.0683 9.40095 20.0684C9.44768 20.0684 9.49341 20.0819 9.53267 20.1073C9.57193 20.1326 9.60308 20.1687 9.62238 20.2112Z" fill="#F1D15B"/>
<path d="M18.314 20.2105L18.5916 20.7971L19.2129 20.8913C19.2595 20.9 19.3028 20.9212 19.3382 20.9527C19.3737 20.9842 19.3999 21.0247 19.414 21.0699C19.4281 21.1152 19.4296 21.1634 19.4184 21.2095C19.4072 21.2555 19.3836 21.2976 19.3502 21.3313L18.9006 21.7875L19.0073 22.4318C19.0166 22.478 19.0127 22.5258 18.996 22.5699C18.9794 22.6139 18.9506 22.6524 18.913 22.6808C18.8755 22.7092 18.8307 22.7264 18.7837 22.7305C18.7368 22.7346 18.6897 22.7253 18.6478 22.7038L18.0918 22.399L17.5364 22.7033C17.4945 22.7248 17.4473 22.734 17.4004 22.73C17.3535 22.7259 17.3087 22.7087 17.2711 22.6802C17.2336 22.6518 17.2048 22.6134 17.1881 22.5693C17.1715 22.5253 17.1676 22.4774 17.1769 22.4313L17.2836 21.787L16.8334 21.3307C16.8 21.2971 16.7765 21.255 16.7652 21.2089C16.754 21.1629 16.7555 21.1147 16.7697 21.0694C16.7838 21.0242 16.81 20.9836 16.8454 20.9521C16.8808 20.9207 16.9242 20.8994 16.9708 20.8907L17.5921 20.7966L17.8697 20.2099C17.889 20.1671 17.9202 20.1308 17.9596 20.1053C17.9991 20.0799 18.045 20.0664 18.092 20.0664C18.1389 20.0665 18.1849 20.0801 18.2243 20.1057C18.2636 20.1312 18.2948 20.1676 18.314 20.2105Z" fill="#F1D15B"/>
<path d="M21.2124 20.2105L21.49 20.7971L22.1113 20.8913C22.1579 20.9 22.2013 20.9212 22.2367 20.9527C22.2721 20.9842 22.2983 21.0247 22.3124 21.0699C22.3265 21.1152 22.3281 21.1634 22.3168 21.2095C22.3056 21.2555 22.282 21.2976 22.2487 21.3313L21.7991 21.7875L21.9057 22.4318C21.915 22.478 21.9111 22.5258 21.8945 22.5699C21.8778 22.6139 21.849 22.6524 21.8115 22.6808C21.7739 22.7092 21.7291 22.7264 21.6822 22.7305C21.6353 22.7346 21.5881 22.7253 21.5463 22.7038L20.9903 22.399L20.4348 22.7033C20.3929 22.7248 20.3458 22.734 20.2989 22.73C20.2519 22.7259 20.2071 22.7087 20.1696 22.6802C20.132 22.6518 20.1033 22.6134 20.0866 22.5693C20.0699 22.5253 20.066 22.4774 20.0753 22.4313L20.182 21.787L19.7319 21.3307C19.6985 21.2971 19.6749 21.255 19.6637 21.2089C19.6524 21.1629 19.654 21.1147 19.6681 21.0694C19.6822 21.0242 19.7084 20.9836 19.7438 20.9521C19.7793 20.9207 19.8226 20.8994 19.8692 20.8907L20.4905 20.7966L20.7681 20.2099C20.7874 20.1671 20.8186 20.1308 20.8581 20.1053C20.8975 20.0799 20.9435 20.0664 20.9904 20.0664C21.0374 20.0665 21.0833 20.0801 21.1227 20.1057C21.1621 20.1312 21.1932 20.1676 21.2124 20.2105Z" fill="#F1D15B"/>
<path d="M15.4175 20.2105L15.6951 20.7971L16.3164 20.8913C16.363 20.9 16.4063 20.9212 16.4418 20.9527C16.4772 20.9842 16.5034 21.0247 16.5175 21.0699C16.5316 21.1152 16.5331 21.1634 16.5219 21.2095C16.5107 21.2555 16.4871 21.2976 16.4537 21.3313L16.0041 21.7875L16.1108 22.4318C16.1201 22.478 16.1162 22.5258 16.0995 22.5699C16.0829 22.6139 16.0541 22.6524 16.0165 22.6808C15.979 22.7092 15.9342 22.7264 15.8873 22.7305C15.8403 22.7346 15.7932 22.7253 15.7513 22.7038L15.1953 22.399L14.6399 22.7033C14.598 22.7248 14.5509 22.734 14.5039 22.73C14.457 22.7259 14.4122 22.7087 14.3747 22.6802C14.3371 22.6518 14.3083 22.6134 14.2917 22.5693C14.275 22.5253 14.2711 22.4774 14.2804 22.4313L14.3871 21.787L13.9369 21.3307C13.9036 21.2971 13.88 21.255 13.8688 21.2089C13.8575 21.1629 13.8591 21.1147 13.8732 21.0694C13.8873 21.0242 13.9135 20.9836 13.9489 20.9521C13.9843 20.9207 14.0277 20.8994 14.0743 20.8907L14.6956 20.7966L14.9732 20.2099C14.9925 20.1671 15.0237 20.1308 15.0632 20.1053C15.1026 20.0799 15.1486 20.0664 15.1955 20.0664C15.2425 20.0665 15.2884 20.0801 15.3278 20.1057C15.3672 20.1312 15.3983 20.1676 15.4175 20.2105Z" fill="#F1D15B"/>
</svg>
