<svg width="30" height="30" viewBox="0 0 30 30" fill="none" xmlns="http://www.w3.org/2000/svg">
<circle cx="15" cy="15" r="12" fill="white"/>
<circle cx="15" cy="15" r="13.5" stroke="#315D80" stroke-opacity="0.16" stroke-width="3"/>
<g clip-path="url(#clip0_10578_4672)">
<path fill-rule="evenodd" clip-rule="evenodd" d="M15.0273 11.9977C15.0246 11.9977 15.0219 11.9977 15.0164 11.9977C13.477 11.9977 11.8965 13.0094 10.3051 15C11.8937 16.9934 13.4797 18.0023 15.0164 18.0023H15.0273C16.5613 17.9969 18.1281 16.9879 19.6922 15C18.1309 13.0121 16.5586 12.0004 15.0273 11.9977ZM15 17.1355C13.8242 17.1355 12.8645 16.1758 12.8645 15C12.8645 13.8242 13.8242 12.8645 15 12.8645C16.1758 12.8645 17.1355 13.8242 17.1355 15C17.1355 16.1758 16.1758 17.1355 15 17.1355ZM16.452 15C16.452 15.8012 15.8012 16.452 15 16.452C14.1988 16.452 13.548 15.8012 13.548 15C13.548 14.1988 14.1988 13.548 15 13.548C15.8012 13.548 16.452 14.1988 16.452 15ZM19.3066 8H10.6934C9.21133 8 8 9.21133 8 10.6934V19.3094C8 20.7859 9.21133 22 10.6934 22H19.3094C20.7887 22 22.0027 20.7859 22.0027 19.3066V10.6934C22 9.21133 20.7859 8 19.3066 8ZM20.3977 15.2078C19.5281 16.348 18.6449 17.2176 17.7645 17.7945C16.8648 18.3852 15.9434 18.6859 15.0301 18.6887C15.0246 18.6887 15.0219 18.6887 15.0164 18.6887C14.1004 18.6887 13.1762 18.3906 12.2656 17.7973C11.3797 17.223 10.4828 16.3508 9.60234 15.2078C9.50937 15.0848 9.50937 14.9152 9.60234 14.7922C10.4828 13.652 11.3797 12.7797 12.2656 12.2055C13.1734 11.6148 14.1004 11.3141 15.0164 11.3141H15.0301C15.9434 11.3168 16.8621 11.6176 17.7645 12.2082C18.6449 12.7852 19.5309 13.6547 20.3977 14.7949C20.4934 14.9152 20.4934 15.0848 20.3977 15.2078Z" fill="#315D80"/>
</g>
<defs>
<clipPath id="clip0_10578_4672">
<rect width="14" height="14" fill="white" transform="translate(8 8)"/>
</clipPath>
</defs>
</svg>
