<svg width="30" height="30" viewBox="0 0 30 30" fill="none" xmlns="http://www.w3.org/2000/svg">
<circle cx="15" cy="15" r="12" fill="white"/>
<circle cx="15" cy="15" r="13.5" stroke="#F1D15B" stroke-opacity="0.16" stroke-width="3"/>
<g clip-path="url(#clip0_3152_8737)">
<path d="M16.092 15.8487L14.6779 15.5255V14.475V14.4548C15.1829 13.9901 15.4859 13.3437 15.4859 12.6164V12.0507C15.7688 10.8386 15.688 9.99012 15.2637 9.52547C14.9809 9.22244 14.6374 9.18204 14.4556 9.18204C13.6273 8.29315 12.4354 8.57598 12.395 8.57598C11.688 8.69719 11.1425 9.04062 10.7991 9.56588C10.1728 10.5154 10.395 11.7881 10.4354 12.0305V12.0507V12.6164C10.4354 13.4043 10.7991 14.0911 11.3647 14.5558V15.5457L10.597 15.7073L9.80917 15.8689C9.08189 16.0305 8.55664 16.677 8.55664 17.4245V20.2527C8.55664 20.9194 9.1021 21.4649 9.76876 21.4649H16.1122C16.7789 21.4649 17.3243 20.9194 17.3243 20.2527V17.4245C17.3445 16.6568 16.8395 16.0305 16.092 15.8487ZM10.8395 12.5962V12.0709C10.9203 11.9497 11.2233 11.5053 11.8496 11.0406C12.193 11.5255 12.9405 12.0709 13.9506 11.5659C14.193 11.4447 14.4758 11.4447 14.6779 11.5255C14.8597 11.6063 15.0011 11.7881 15.0617 12.0305V12.5962C15.0617 13.7679 14.1122 14.7174 12.9405 14.7174C11.8092 14.7174 10.8395 13.7679 10.8395 12.5962ZM12.3344 18.3942L11.6678 21.0608H9.76876C9.32432 21.0608 8.96068 20.6972 8.96068 20.2527V17.4245C8.96068 16.8588 9.36472 16.374 9.91018 16.2527L10.5566 16.1113L11.4657 17.4447C11.5061 17.5053 11.5667 17.5255 11.6273 17.5255C11.6678 17.5255 11.7082 17.5255 11.7284 17.4851L11.9304 17.3639L12.2738 17.9295C12.3546 18.0911 12.3748 18.2527 12.3344 18.3942ZM11.688 17.081L10.9809 16.0305L11.5263 15.9093L12.5566 16.5154L11.688 17.081ZM11.7688 15.5861V14.8386C12.1324 15.0406 12.5364 15.1416 12.9607 15.1416C13.4455 15.1416 13.89 15.0002 14.2738 14.778V15.5457L12.9405 16.2931L11.7688 15.5861ZM14.4354 15.8891L14.9809 16.0103L14.2738 17.0608L13.9708 16.879L13.3445 16.4952L14.4354 15.8891ZM16.9405 20.2527C16.9405 20.6972 16.5768 21.0608 16.1324 21.0608H14.1728L13.5061 18.3942C13.4657 18.2325 13.4859 18.0709 13.5667 17.9497L13.9506 17.3437L14.2334 17.5255C14.2738 17.5457 14.294 17.5457 14.3344 17.5457C14.395 17.5457 14.4556 17.5053 14.496 17.4649L15.4051 16.1113L16.0112 16.2527C16.5566 16.374 16.9405 16.8588 16.9405 17.4245V20.2527Z" fill="#F1D15B"/>
<path d="M20.9396 10.576L20.3336 10.4952V9.99016C20.3336 9.66692 20.0709 9.4043 19.7477 9.4043H16.6972C16.374 9.4043 16.1113 9.66692 16.1113 9.99016V14.4548C16.1113 14.7578 16.3538 15.0205 16.6568 15.0407V15.1013C16.6164 15.4245 16.8386 15.7275 17.1618 15.7679L20.1719 16.172H20.2527C20.374 16.172 20.4952 16.1316 20.6164 16.0508C20.7376 15.9498 20.8184 15.8083 20.8386 15.6669L21.4447 11.2629C21.4447 11.2427 21.4447 11.2023 21.4447 11.1821C21.4447 10.879 21.2224 10.6164 20.9396 10.576ZM16.6972 14.6366C16.5962 14.6366 16.5154 14.5558 16.5154 14.4548V9.99016C16.5154 9.88915 16.5962 9.80834 16.6972 9.80834H19.7477C19.8487 9.80834 19.9295 9.88915 19.9295 9.99016V10.677V14.4548C19.9295 14.475 19.9295 14.5154 19.9093 14.5356C19.8891 14.576 19.8689 14.5962 19.8083 14.6164C19.7881 14.6366 19.7679 14.6366 19.7275 14.6366H16.6972Z" fill="#F1D15B"/>
<path d="M19.5059 11.3633C19.4655 11.4239 19.3644 11.4643 19.2836 11.4441V12.3532C19.2836 12.4744 19.2028 12.5552 19.0816 12.5552H17.3442C17.223 12.5552 17.1422 12.4744 17.1422 12.3532V11.4441C17.122 11.4441 17.1018 11.4441 17.0816 11.4441C17.021 11.4441 16.9604 11.4239 16.92 11.3633C16.8594 11.2825 16.8796 11.1411 16.9604 11.0805L18.0715 10.2118C18.0917 10.2118 18.0917 10.1916 18.1119 10.1916L18.1321 10.1714C18.1725 10.1512 18.2129 10.1512 18.2533 10.1714H18.2735C18.2937 10.1714 18.2937 10.1916 18.3139 10.1916L19.4251 11.0603C19.5665 11.1613 19.5867 11.2825 19.5059 11.3633Z" fill="#F1D15B"/>
<path d="M19.1015 13.0605H17.3641C17.2429 13.0605 17.1621 13.1414 17.1621 13.2626C17.1621 13.3838 17.2429 13.4646 17.3641 13.4646H19.1015C19.2227 13.4646 19.3035 13.3838 19.3035 13.2626C19.3035 13.1414 19.2025 13.0605 19.1015 13.0605Z" fill="#F1D15B"/>
<path d="M18.2328 13.8496H17.3641C17.2429 13.8496 17.1621 13.9304 17.1621 14.0516C17.1621 14.1728 17.2429 14.2536 17.3641 14.2536H18.2328C18.354 14.2536 18.4348 14.1728 18.4348 14.0516C18.4348 13.9304 18.3338 13.8496 18.2328 13.8496Z" fill="#F1D15B"/>
<path d="M16.2542 19.3431C16.2542 19.4037 16.234 19.4441 16.1936 19.4845C16.1532 19.5249 16.1128 19.5451 16.0522 19.5451H14.7997C14.6785 19.5451 14.5977 19.4643 14.5977 19.3431V18.0906C14.5977 18.0098 14.6381 17.9491 14.7189 17.9087C14.7997 17.8683 14.8805 17.8885 14.9411 17.9289C15.2845 18.2118 15.5876 18.2118 15.9512 17.9289C16.0118 17.8885 16.0926 17.8683 16.1734 17.9087C16.2542 17.9491 16.2946 18.0098 16.2946 18.0906L16.2542 19.3431Z" fill="#F1D15B"/>
</g>
<defs>
<clipPath id="clip0_3152_8737">
<rect width="13.3333" height="13.3333" fill="white" transform="translate(8.33398 8.33398)"/>
</clipPath>
</defs>
</svg>
