<svg width="15" height="16" viewBox="0 0 15 16" fill="none" xmlns="http://www.w3.org/2000/svg">
<path d="M3.62146 8.8016C3.51481 8.8016 3.41253 8.84374 3.33712 8.91876C3.26171 8.99377 3.21934 9.09551 3.21934 9.2016V11.6016C3.21934 11.7077 3.26171 11.8094 3.33712 11.8844C3.41253 11.9595 3.51481 12.0016 3.62146 12.0016C3.72811 12.0016 3.83039 11.9595 3.9058 11.8844C3.98121 11.8094 4.02358 11.7077 4.02358 11.6016V11.2016H4.42328C4.74322 11.2016 5.05006 11.0752 5.2763 10.8501C5.50253 10.6251 5.62963 10.3199 5.62963 10.0016C5.62963 9.68334 5.50253 9.37812 5.2763 9.15307C5.05006 8.92803 4.74322 8.8016 4.42328 8.8016H3.62146ZM4.42328 10.4016H4.02358V9.6016H4.42328C4.52993 9.6016 4.63221 9.64374 4.70762 9.71876C4.78303 9.79377 4.8254 9.89551 4.8254 10.0016C4.8254 10.1077 4.78303 10.2094 4.70762 10.2844C4.63221 10.3595 4.52993 10.4016 4.42328 10.4016ZM9.64919 9.2016C9.64919 9.09551 9.69155 8.99377 9.76696 8.91876C9.84237 8.84374 9.94465 8.8016 10.0513 8.8016H11.2617C11.3683 8.8016 11.4706 8.84374 11.546 8.91876C11.6214 8.99377 11.6638 9.09551 11.6638 9.2016C11.6638 9.30769 11.6214 9.40943 11.546 9.48444C11.4706 9.55946 11.3683 9.6016 11.2617 9.6016H10.4526L10.4518 10.4032H11.2617C11.3683 10.4032 11.4706 10.4453 11.546 10.5204C11.6214 10.5954 11.6638 10.6971 11.6638 10.8032C11.6638 10.9093 11.6214 11.011 11.546 11.086C11.4706 11.1611 11.3683 11.2032 11.2617 11.2032H10.4518L10.4534 11.6008C10.4535 11.6533 10.4432 11.7054 10.4231 11.7539C10.403 11.8025 10.3735 11.8467 10.3362 11.8839C10.2609 11.959 10.1588 12.0014 10.0521 12.0016C9.94546 12.0018 9.84309 11.9599 9.76753 11.885C9.69197 11.8101 9.6494 11.7085 9.64919 11.6024L9.64677 10.804V10.8024L9.64919 9.2016ZM6.83598 8.8016H7.23649C7.66308 8.8016 8.0722 8.97017 8.37384 9.27023C8.67549 9.57029 8.84495 9.97725 8.84495 10.4016C8.84495 10.8259 8.67549 11.2329 8.37384 11.533C8.0722 11.833 7.66308 12.0016 7.23649 12.0016H6.83598C6.72933 12.0016 6.62705 11.9595 6.55164 11.8844C6.47623 11.8094 6.43386 11.7077 6.43386 11.6016V9.2016C6.43386 9.09551 6.47623 8.99377 6.55164 8.91876C6.62705 8.84374 6.72933 8.8016 6.83598 8.8016ZM7.2381 11.2016C7.45139 11.2016 7.65595 11.1173 7.80677 10.9673C7.9576 10.8173 8.04233 10.6138 8.04233 10.4016C8.04233 10.1894 7.9576 9.98594 7.80677 9.83591C7.65595 9.68589 7.45139 9.6016 7.2381 9.6016V11.2016ZM7.2381 4.8V0H2.4127C1.98611 0 1.57699 0.168571 1.27534 0.468629C0.973696 0.768687 0.804233 1.17565 0.804233 1.6V6.9344C0.328931 7.1592 0 7.6416 0 8.2V12.6C0 13.1584 0.328931 13.64 0.804233 13.8656V14.4C0.804233 14.8243 0.973696 15.2313 1.27534 15.5314C1.57699 15.8314 1.98611 16 2.4127 16H12.0635C12.4901 16 12.8992 15.8314 13.2008 15.5314C13.5025 15.2313 13.672 14.8243 13.672 14.4V13.8656C14.1473 13.6408 14.4762 13.1584 14.4762 12.6V8.2C14.4762 7.6416 14.1473 7.16 13.672 6.9344V6.4H8.84656C8.41997 6.4 8.01085 6.23143 7.7092 5.93137C7.40756 5.63131 7.2381 5.22435 7.2381 4.8ZM1.40741 8H13.0688C13.1221 8 13.1732 8.02107 13.211 8.05858C13.2487 8.09609 13.2698 8.14696 13.2698 8.2V12.6C13.2698 12.653 13.2487 12.7039 13.211 12.7414C13.1732 12.7789 13.1221 12.8 13.0688 12.8H1.40741C1.35408 12.8 1.30294 12.7789 1.26524 12.7414C1.22753 12.7039 1.20635 12.653 1.20635 12.6V8.2C1.20635 8.14696 1.22753 8.09609 1.26524 8.05858C1.30294 8.02107 1.35408 8 1.40741 8ZM8.44444 4.8V0.4L13.2698 5.2H8.84656C8.73991 5.2 8.63763 5.15786 8.56222 5.08284C8.48681 5.00783 8.44444 4.90609 8.44444 4.8Z" fill="white"/>
</svg>
