<svg width="20" height="20" viewBox="0 0 20 20" fill="none" xmlns="http://www.w3.org/2000/svg">
<g clip-path="url(#clip0_1468_1794)">
<path d="M31.389 10.834H29.1673C29.014 10.834 28.8895 10.9273 28.8895 11.0423L28.8901 12.0836C28.8901 12.314 28.6418 12.5007 28.3345 12.5007C28.0279 12.5007 27.779 12.3144 27.779 12.0844L27.7784 11.0423C27.7784 10.9273 27.654 10.834 27.5006 10.834H25.834C25.6806 10.834 25.5562 10.9273 25.5562 11.0423L25.5567 12.9173C25.5567 13.1473 25.3084 13.334 25.0012 13.334C24.6945 13.334 24.4456 13.1477 24.4456 12.9173L24.4445 11.0423C24.4445 10.9273 24.3201 10.834 24.1667 10.834H22.5001C22.3467 10.834 22.2223 10.9273 22.2223 11.0423L22.2228 12.084C22.2228 12.314 21.9745 12.5006 21.6673 12.5006C21.3607 12.5006 21.1118 12.3144 21.1118 12.084L21.1113 11.0423C21.1113 10.9273 20.9868 10.834 20.8335 10.834H19.1668C19.0135 10.834 18.889 10.9273 18.889 11.0423L18.8896 12.9173C18.8896 13.1473 18.6413 13.334 18.334 13.334C18.0274 13.334 17.7785 13.1477 17.7785 12.9173L17.7779 11.0423C17.7779 10.9273 17.6535 10.834 17.5001 10.834H15.8335C15.6801 10.834 15.5557 10.9273 15.5557 11.0423L15.5562 12.084C15.5562 12.314 15.3079 12.5006 15.0007 12.5006C14.6941 12.5006 14.4452 12.3144 14.4452 12.084L14.4446 11.0423C14.4446 10.9273 14.3202 10.834 14.1668 10.834H12.5001C12.3468 10.834 12.2223 10.9273 12.2223 11.0423L12.2229 12.9173C12.2229 13.1473 11.9746 13.334 11.6673 13.334C11.3607 13.334 11.1118 13.1477 11.1118 12.9173L11.1112 11.0423C11.1112 10.9273 10.9868 10.834 10.8334 10.834H9.16674C9.01342 10.834 8.88894 10.9273 8.88894 11.0423L8.88947 12.084C8.88947 12.314 8.64116 12.5006 8.33393 12.5006C8.02729 12.5006 7.7784 12.3144 7.7784 12.084L7.77781 11.0423C7.77781 10.9273 7.6534 10.834 7.50002 10.834H5.83335C5.68003 10.834 5.55555 10.9273 5.55555 11.0423L5.55614 12.9173C5.55614 13.1473 5.30783 13.334 5.00061 13.334C4.69397 13.334 4.44507 13.1477 4.44507 12.9173L4.44455 11.0423C4.44455 10.9273 4.32014 10.834 4.16675 10.834H2.50015C2.34683 10.834 2.22236 10.9273 2.22236 11.0423V12.084C2.22236 12.3144 1.97405 12.5006 1.66682 12.5006C1.3596 12.5006 1.11129 12.3144 1.11129 12.084V11.0423C1.11129 10.9273 0.986876 10.834 0.833491 10.834H-1.3887C-1.54209 10.834 -1.6665 10.9273 -1.6665 11.0423V16.459C-1.6665 16.574 -1.54209 16.6673 -1.3887 16.6673H31.389C31.5424 16.6673 31.6668 16.574 31.6668 16.459V11.0423C31.6668 10.9273 31.5424 10.834 31.389 10.834Z" fill="white"/>
<path d="M19.8872 4.72352L17.4527 2.15223C17.3211 2.01337 17.105 1.96325 16.9126 2.02367C16.7202 2.08539 16.5918 2.2465 16.5918 2.42694V3.49832L3.40824 3.49833V2.42654C3.40824 2.24609 3.27975 2.08499 3.08736 2.02372C2.89491 1.96245 2.67941 2.01302 2.5473 2.15228L0.112756 4.72397C0.0377903 4.80327 0 4.90095 0 4.99823C0 5.0955 0.0377288 5.19323 0.112756 5.27293L2.5473 7.84422C2.64168 7.94366 2.77957 7.99804 2.92114 7.99804C2.97675 7.99804 3.03286 7.98946 3.08687 7.97233C3.27932 7.91061 3.40775 7.7495 3.40775 7.56951V6.49813L16.5912 6.49813V7.56952C16.5912 7.74996 16.7197 7.91106 16.9121 7.97233C16.9661 7.98946 17.0222 7.99805 17.0778 7.99805C17.2194 7.99805 17.3573 7.94361 17.4522 7.84422L19.8868 5.27293C19.9623 5.19323 20 5.09596 20 4.99823C20 4.9005 19.9622 4.80327 19.8872 4.72352Z" fill="white"/>
</g>
<defs>
<clipPath id="clip0_1468_1794">
<rect width="20" height="20" fill="white"/>
</clipPath>
</defs>
</svg>
