<svg width="20" height="20" viewBox="0 0 20 20" fill="none" xmlns="http://www.w3.org/2000/svg">
<path d="M17.7973 6.78219L9.99985 1.98344L2.20235 6.78219C1.90797 6.96281 1.52297 6.87156 1.34297 6.57719C1.16172 6.28344 1.2536 5.89844 1.54797 5.71781L9.67297 0.717812C9.8736 0.594062 10.1273 0.594062 10.328 0.717812L18.453 5.71781C18.7473 5.89906 18.8386 6.28344 18.658 6.57719C18.4755 6.87281 18.0892 6.96219 17.7973 6.78219Z" fill="#F1D15B"/>
<path d="M16.25 6.93156V12.8134H11.875V8.43844C11.875 8.26594 11.735 8.12594 11.5625 8.12594H8.4375C8.265 8.12594 8.125 8.26594 8.125 8.43844V12.8134H3.75V6.93156L10 3.08594L16.25 6.93156Z" fill="#F1D15B"/>
<path d="M16.25 13.75V18.75H9.6875V16.75C9.6875 16.6462 9.60375 16.5625 9.5 16.5625H7.8125V15.5C7.8125 15.3962 7.72875 15.3125 7.625 15.3125H5.9375V13.75H16.25Z" fill="#6B5E7A"/>
<path d="M8.75 18.75H3.75V13.75H5V16.0625C5 16.1663 5.08375 16.25 5.1875 16.25H6.875V17.3125C6.875 17.4163 6.95875 17.5 7.0625 17.5H8.75V18.75Z" fill="#6B5E7A"/>
</svg>
