<svg width="18" height="18" viewBox="0 0 18 18" fill="none" xmlns="http://www.w3.org/2000/svg">
<path d="M2.125 12.125H15.875V14.625H2.125V12.125Z" fill="#C06A87"/>
<path d="M4 9H14V11.5H4V9Z" fill="#C06A87"/>
<path d="M5.875 6.5H12.125V8.375H5.875V6.5Z" fill="#C06A87"/>
<path d="M0.25 15.25H17.75V17.75H0.25V15.25Z" fill="#C06A87"/>
<path d="M6.69775 0.282313C6.44354 0.196864 6.16156 0.284755 6.00012 0.500209L0.375122 8.00021C0.293945 8.10824 0.25 8.23947 0.25 8.37496V14.625H1.5V8.58309L2.125 7.74977V11.5H3.375V6.08317L4 5.24989V8.37496H5.25V3.58329L5.875 2.74996V5.87496H7.125V0.874965C7.125 0.6058 6.95288 0.367152 6.69775 0.282313Z" fill="#FFB6A3"/>
<path d="M11.3022 0.282313C11.5565 0.196864 11.8384 0.284755 11.9999 0.500209L17.6249 8.00021C17.7061 8.10824 17.75 8.23947 17.75 8.37496V14.625H16.5V8.58309L15.875 7.74977V11.5H14.625V6.08317L14 5.24989V8.37496H12.75V3.58329L12.125 2.74996V5.87496H10.875V0.874965C10.875 0.6058 11.0471 0.367152 11.3022 0.282313Z" fill="#FFB6A3"/>
</svg>
