<svg width="18" height="18" viewBox="0 0 18 18" fill="none" xmlns="http://www.w3.org/2000/svg">
<path d="M9.20833 14V12.9583H7.33333C6.99167 12.9583 6.70833 12.675 6.70833 12.3333V11.2917H4.83333C4.49167 11.2917 4.20833 11.0083 4.20833 10.6667V9.625H0.875V13.8833C0.875 15.6667 2.275 17.125 4 17.125H11.7083V14.625H9.83333C9.49167 14.625 9.20833 14.3417 9.20833 14Z" fill="#3E6B8E"/>
<path d="M15.9333 5.63346L10.9333 1.5668C9.8 0.641797 8.20833 0.641797 7.075 1.5668L2.075 5.63346C1.31667 6.25013 0.875 7.18346 0.875 8.18346V8.37513H4.83333C5.175 8.37513 5.45833 8.65846 5.45833 9.00013V10.0418H7.33333C7.675 10.0418 7.95833 10.3251 7.95833 10.6668V11.7085H9.83333C10.175 11.7085 10.4583 11.9918 10.4583 12.3335V13.3751H12.3333C12.675 13.3751 12.9583 13.6585 12.9583 14.0001V17.1251H14C15.725 17.1251 17.125 15.6668 17.125 13.8835V8.18346C17.125 7.18346 16.6917 6.25013 15.9333 5.63346Z" fill="#F2727F"/>
</svg>
