<svg width="18" height="16" viewBox="0 0 18 16" fill="none" xmlns="http://www.w3.org/2000/svg">
<path d="M0.666504 2.16667C0.666504 1.38099 0.666504 0.988158 0.910579 0.744075C1.15466 0.5 1.5475 0.5 2.33317 0.5H15.6665C16.4522 0.5 16.845 0.5 17.0891 0.744075C17.3332 0.988158 17.3332 1.38099 17.3332 2.16667C17.3332 2.95234 17.3332 3.34517 17.0891 3.58926C16.845 3.83333 16.4522 3.83333 15.6665 3.83333H2.33317C1.5475 3.83333 1.15466 3.83333 0.910579 3.58926C0.666504 3.34517 0.666504 2.95234 0.666504 2.16667Z" fill="#FFB6A3"/>
<path d="M15.7239 5.08361C15.8416 5.08365 15.9624 5.0837 16.0832 5.08203V8.83356C16.0832 11.9763 16.0832 13.5476 15.1068 14.5239C14.1306 15.5002 12.5592 15.5002 9.4165 15.5002H8.58317C5.44047 15.5002 3.86913 15.5002 2.89281 14.5239C1.9165 13.5476 1.9165 11.9763 1.9165 8.83356V5.08203C2.03724 5.0837 2.15816 5.08365 2.27579 5.08361L8.37484 5.08359V10.5381L6.9644 8.97097C6.73349 8.71447 6.33831 8.69364 6.08174 8.92456C5.82517 9.15547 5.80437 9.55064 6.03529 9.80722L8.53525 12.585C8.65384 12.7167 8.82267 12.7919 8.99984 12.7919C9.177 12.7919 9.34584 12.7167 9.46442 12.585L11.9644 9.80722C12.1953 9.55064 12.1745 9.15547 11.9179 8.92456C11.6613 8.69364 11.2662 8.71447 11.0353 8.97097L9.62484 10.5381V5.08359L15.7239 5.08361Z" fill="#4D7EA5"/>
</svg>
