<svg width="20" height="22" viewBox="0 0 20 22" fill="none" xmlns="http://www.w3.org/2000/svg">
<path fill-rule="evenodd" clip-rule="evenodd" d="M13.3565 19.6842C13.3566 20.2685 13.1434 20.8312 12.7596 21.2596C12.3757 21.688 11.8496 21.9504 11.2867 21.9942L11.1189 22H8.8813C8.31679 22.0002 7.77307 21.7795 7.35914 21.3823C6.9452 20.985 6.69166 20.4405 6.64932 19.8579L6.64372 19.6842H13.3565ZM10.0001 1.10471e-09C12.0307 -3.46732e-05 13.9819 0.816193 15.4421 2.27651C16.9024 3.73682 17.7575 5.72705 17.8271 7.82737L17.8316 8.10526V12.4636L19.87 16.6829C19.959 16.8671 20.0035 17.0707 19.9998 17.2765C19.9961 17.4823 19.9442 17.6841 19.8486 17.8647C19.753 18.0452 19.6166 18.1991 19.451 18.3131C19.2854 18.4271 19.0956 18.4979 18.8978 18.5194L18.7691 18.5263H1.23103C1.03207 18.5264 0.836061 18.4765 0.659801 18.381C0.48354 18.2855 0.332284 18.1472 0.218994 17.9779C0.105703 17.8086 0.0337566 17.6134 0.00931879 17.4091C-0.015119 17.2047 0.00868087 16.9973 0.0786789 16.8045L0.130143 16.6829L2.16857 12.4636V8.10526C2.16857 5.95561 2.99368 3.89401 4.46237 2.37398C5.93107 0.853945 7.92304 1.10471e-09 10.0001 1.10471e-09ZM10.0001 2.31579C8.55857 2.31588 7.17273 2.89189 6.13157 3.92371C5.09041 4.95553 4.47431 6.3635 4.41174 7.854L4.40615 8.10526V12.4636C4.40616 12.7507 4.35457 13.0354 4.25399 13.3031L4.17009 13.4999L2.8611 16.2105H17.1402L15.8312 13.4987C15.707 13.242 15.63 12.9636 15.6041 12.6778L15.594 12.4636V8.10526C15.594 6.5698 15.0047 5.09722 13.9556 4.01149C12.9065 2.92575 11.4837 2.31579 10.0001 2.31579Z" fill="white"/>
</svg>
