<svg width="10" height="10" viewBox="0 0 10 10" fill="none" xmlns="http://www.w3.org/2000/svg">
<path d="M10 1.41172V2.53809H3.79395e-06V1.41172C-0.000517066 1.24939 0.052606 1.09143 0.151115 0.962407C0.249624 0.833382 0.387999 0.740515 0.54473 0.698243C0.605364 0.681953 0.667884 0.673744 0.730668 0.673829H2.05371V1.39414C2.05223 1.47897 2.06766 1.56324 2.09909 1.64203C2.13053 1.72083 2.17734 1.79258 2.2368 1.85309C2.29627 1.9136 2.36719 1.96167 2.44542 1.99447C2.52366 2.02728 2.60765 2.04418 2.69248 2.04418C2.77732 2.04418 2.86131 2.02728 2.93955 1.99447C3.01778 1.96167 3.0887 1.9136 3.14816 1.85309C3.20763 1.79258 3.25444 1.72083 3.28588 1.64203C3.31731 1.56324 3.33274 1.47897 3.33125 1.39414V0.673829H6.66875V1.39414C6.66875 1.56358 6.73606 1.72608 6.85587 1.84589C6.97568 1.9657 7.13818 2.03301 7.30762 2.03301C7.47706 2.03301 7.63956 1.9657 7.75937 1.84589C7.87918 1.72608 7.94649 1.56358 7.94649 1.39414V0.673829H9.26934C9.46407 0.674811 9.65045 0.753098 9.78747 0.891474C9.92449 1.02985 10.0009 1.21698 10 1.41172Z" fill="#315D80"/>
<path d="M3.94097e-06 2.98828V9.26211C-0.000526927 9.42447 0.0525888 9.58245 0.151096 9.71151C0.249603 9.84057 0.387983 9.93347 0.54473 9.97578C0.605373 9.99201 0.667893 10.0002 0.730668 10H9.26934C9.46408 9.99902 9.65045 9.92073 9.78747 9.78235C9.92449 9.64398 10.0009 9.45684 10 9.26211V2.98828H3.94097e-06ZM4.43067 5.07031C4.41788 5.05761 4.40774 5.0425 4.40081 5.02585C4.39389 5.00921 4.39033 4.99136 4.39033 4.97334C4.39033 4.95531 4.39389 4.93747 4.40081 4.92083C4.40774 4.90418 4.41788 4.88907 4.43067 4.87637L4.6002 4.70684C4.61291 4.69405 4.62801 4.6839 4.64466 4.67698C4.6613 4.67006 4.67915 4.66649 4.69717 4.66649C4.7152 4.66649 4.73304 4.67006 4.74969 4.67698C4.76633 4.6839 4.78144 4.69405 4.79414 4.70684L5 4.91289L5.20586 4.70703C5.21857 4.69425 5.23368 4.6841 5.25032 4.67718C5.26696 4.67025 5.28481 4.66669 5.30284 4.66669C5.32086 4.66669 5.33871 4.67025 5.35535 4.67718C5.37199 4.6841 5.3871 4.69425 5.39981 4.70703L5.56954 4.87676C5.58232 4.88946 5.59247 4.90457 5.59939 4.92122C5.60631 4.93786 5.60988 4.95571 5.60988 4.97373C5.60988 4.99176 5.60631 5.0096 5.59939 5.02625C5.59247 5.04289 5.58232 5.058 5.56954 5.0707L5.36348 5.27656L5.56954 5.48242C5.58232 5.49513 5.59247 5.51024 5.59939 5.52688C5.60631 5.54352 5.60988 5.56137 5.60988 5.57939C5.60988 5.59742 5.60631 5.61527 5.59939 5.63191C5.59247 5.64855 5.58232 5.66366 5.56954 5.67637L5.4 5.8459C5.3873 5.85868 5.37219 5.86883 5.35555 5.87575C5.3389 5.88268 5.32106 5.88624 5.30303 5.88624C5.28501 5.88624 5.26716 5.88268 5.25052 5.87575C5.23387 5.86883 5.21876 5.85868 5.20606 5.8459L5 5.63984L4.79414 5.8459C4.78144 5.85868 4.76633 5.86883 4.74969 5.87575C4.73304 5.88268 4.7152 5.88624 4.69717 5.88624C4.67915 5.88624 4.6613 5.88268 4.64466 5.87575C4.62801 5.86883 4.61291 5.85868 4.6002 5.8459L4.43047 5.67617C4.41769 5.66347 4.40754 5.64836 4.40062 5.63171C4.39369 5.61507 4.39013 5.59722 4.39013 5.5792C4.39013 5.56117 4.39369 5.54333 4.40062 5.52668C4.40754 5.51004 4.41769 5.49493 4.43047 5.48223L4.63653 5.27637L4.43067 5.07031ZM2.15215 5.07031C2.13937 5.05761 2.12922 5.0425 2.1223 5.02585C2.11537 5.00921 2.11181 4.99136 2.11181 4.97334C2.11181 4.95531 2.11537 4.93747 2.1223 4.92083C2.12922 4.90418 2.13937 4.88907 2.15215 4.87637L2.32168 4.70684C2.33439 4.69405 2.3495 4.6839 2.36614 4.67698C2.38278 4.67006 2.40063 4.66649 2.41866 4.66649C2.43668 4.66649 2.45453 4.67006 2.47117 4.67698C2.48781 4.6839 2.50292 4.69405 2.51563 4.70684L2.72149 4.91289L2.92735 4.70703C2.94005 4.69425 2.95516 4.6841 2.97181 4.67718C2.98845 4.67025 3.0063 4.66669 3.02432 4.66669C3.04235 4.66669 3.06019 4.67025 3.07684 4.67718C3.09348 4.6841 3.10859 4.69425 3.12129 4.70703L3.29102 4.87676C3.3038 4.88946 3.31395 4.90457 3.32087 4.92122C3.3278 4.93786 3.33136 4.95571 3.33136 4.97373C3.33136 4.99176 3.3278 5.0096 3.32087 5.02625C3.31395 5.04289 3.3038 5.058 3.29102 5.0707L3.08594 5.27637L3.292 5.48223C3.30478 5.49493 3.31493 5.51004 3.32185 5.52668C3.32877 5.54333 3.33234 5.56117 3.33234 5.5792C3.33234 5.59722 3.32877 5.61507 3.32185 5.63171C3.31493 5.64836 3.30478 5.66347 3.292 5.67617L3.12246 5.8457C3.10976 5.85849 3.09465 5.86863 3.07801 5.87556C3.06136 5.88248 3.04352 5.88605 3.02549 5.88605C3.00747 5.88605 2.98962 5.88248 2.97298 5.87556C2.95633 5.86863 2.94123 5.85849 2.92852 5.8457L2.72246 5.63984L2.51563 5.8459C2.50292 5.85868 2.48781 5.86883 2.47117 5.87575C2.45453 5.88268 2.43668 5.88624 2.41866 5.88624C2.40063 5.88624 2.38278 5.88268 2.36614 5.87575C2.3495 5.86883 2.33439 5.85868 2.32168 5.8459L2.15196 5.67617C2.13917 5.66347 2.12903 5.64836 2.1221 5.63171C2.11518 5.61507 2.11161 5.59722 2.11161 5.5792C2.11161 5.56117 2.11518 5.54333 2.1221 5.52668C2.12903 5.51004 2.13917 5.49493 2.15196 5.48223L2.35801 5.27637L2.15215 5.07031ZM3.59746 7.87969C3.59746 7.93273 3.58702 7.98525 3.56672 8.03426C3.54642 8.08326 3.51667 8.12779 3.47916 8.16529C3.44166 8.2028 3.39713 8.23255 3.34813 8.25285C3.29912 8.27315 3.2466 8.28359 3.19356 8.28359H2.2502C2.14308 8.28359 2.04034 8.24104 1.96459 8.16529C1.88885 8.08955 1.84629 7.98681 1.84629 7.87969V7.1916C1.84629 7.13856 1.85674 7.08604 1.87704 7.03703C1.89734 6.98803 1.92709 6.9435 1.96459 6.906C2.0021 6.86849 2.04663 6.83874 2.09563 6.81844C2.14463 6.79814 2.19716 6.7877 2.2502 6.7877H3.19278C3.24582 6.7877 3.29834 6.79814 3.34735 6.81844C3.39635 6.83874 3.44088 6.86849 3.47838 6.906C3.51589 6.9435 3.54564 6.98803 3.56594 7.03703C3.58624 7.08604 3.59668 7.13856 3.59668 7.1916L3.59746 7.87969ZM5.87598 7.87969C5.87598 7.93273 5.86553 7.98525 5.84523 8.03426C5.82494 8.08326 5.79519 8.12779 5.75768 8.16529C5.72017 8.2028 5.67565 8.23255 5.62664 8.25285C5.57764 8.27315 5.52512 8.28359 5.47207 8.28359H4.52871C4.42159 8.28359 4.31886 8.24104 4.24311 8.16529C4.16736 8.08955 4.12481 7.98681 4.12481 7.87969V7.1916C4.12481 7.08448 4.16736 6.98174 4.24311 6.906C4.31886 6.83025 4.42159 6.7877 4.52871 6.7877H5.47129C5.57842 6.7877 5.68115 6.83025 5.7569 6.906C5.83264 6.98174 5.8752 7.08448 5.8752 7.1916L5.87598 7.87969ZM8.1545 7.87969C8.1545 7.93273 8.14405 7.98525 8.12375 8.03426C8.10345 8.08326 8.0737 8.12779 8.03619 8.16529C7.99869 8.2028 7.95416 8.23255 7.90516 8.25285C7.85615 8.27315 7.80363 8.28359 7.75059 8.28359H6.80723C6.70011 8.28359 6.59737 8.24104 6.52163 8.16529C6.44588 8.08955 6.40332 7.98681 6.40332 7.87969V7.1916C6.40332 7.08448 6.44588 6.98174 6.52163 6.906C6.59737 6.83025 6.70011 6.7877 6.80723 6.7877H7.74981C7.80285 6.7877 7.85537 6.79814 7.90438 6.81844C7.95338 6.83874 7.99791 6.86849 8.03541 6.906C8.07292 6.9435 8.10267 6.98803 8.12297 7.03703C8.14327 7.08604 8.15372 7.13856 8.15372 7.1916L8.1545 7.87969ZM8.1545 5.62051C8.1545 5.67355 8.14405 5.72607 8.12375 5.77508C8.10345 5.82408 8.0737 5.86861 8.03619 5.90611C7.99869 5.94362 7.95416 5.97337 7.90516 5.99367C7.85615 6.01397 7.80363 6.02441 7.75059 6.02441H6.80723C6.70011 6.02441 6.59737 5.98186 6.52163 5.90611C6.44588 5.83037 6.40332 5.72763 6.40332 5.62051V4.93223C6.40332 4.8251 6.44588 4.72237 6.52163 4.64662C6.59737 4.57087 6.70011 4.52832 6.80723 4.52832H7.74981C7.80285 4.52832 7.85537 4.53877 7.90438 4.55907C7.95338 4.57936 7.99791 4.60912 8.03541 4.64662C8.07292 4.68413 8.10267 4.72865 8.12297 4.77766C8.14327 4.82666 8.15372 4.87918 8.15372 4.93223L8.1545 5.62051Z" fill="#315D80"/>
<path d="M7.30684 1.78398C7.20426 1.78347 7.10608 1.74223 7.03389 1.66935C6.9617 1.59646 6.92141 1.4979 6.92188 1.39531V0.388867C6.92188 0.286769 6.96244 0.188853 7.03463 0.116659C7.10683 0.0444645 7.20474 0.00390625 7.30684 0.00390625C7.40894 0.00390625 7.50685 0.0444645 7.57905 0.116659C7.65124 0.188853 7.6918 0.286769 7.6918 0.388867V1.39531C7.69227 1.4979 7.65198 1.59646 7.57979 1.66935C7.5076 1.74223 7.40942 1.78347 7.30684 1.78398Z" fill="#315D80"/>
<path d="M2.69365 1.78289C2.64285 1.78266 2.59259 1.77242 2.54575 1.75276C2.49891 1.7331 2.45639 1.70441 2.42065 1.66831C2.3849 1.63222 2.35661 1.58943 2.3374 1.5424C2.31819 1.49537 2.30843 1.44502 2.30869 1.39422V0.387772C2.30754 0.336502 2.31664 0.285517 2.33546 0.237813C2.35428 0.190108 2.38245 0.146645 2.4183 0.109976C2.45415 0.073307 2.49697 0.0441711 2.54424 0.0242793C2.5915 0.00438741 2.64227 -0.00585937 2.69355 -0.00585938C2.74484 -0.00585937 2.7956 0.00438741 2.84287 0.0242793C2.89014 0.0441711 2.93296 0.073307 2.96881 0.109976C3.00466 0.146645 3.03283 0.190108 3.05165 0.237813C3.07047 0.285517 3.07957 0.336502 3.07842 0.387772V1.39422C3.07868 1.445 3.06893 1.49534 3.04973 1.54236C3.03053 1.58938 3.00226 1.63215 2.96653 1.66824C2.9308 1.70433 2.88832 1.73303 2.8415 1.75271C2.79467 1.77238 2.74444 1.78263 2.69365 1.78289Z" fill="#315D80"/>
</svg>
