<svg width="20" height="20" viewBox="0 0 20 20" fill="none" xmlns="http://www.w3.org/2000/svg">
<path d="M9.9999 7.07695C10.3669 7.07695 10.6644 6.77947 10.6644 6.4125C10.6644 6.04553 10.3669 5.74805 9.9999 5.74805C9.63293 5.74805 9.33545 6.04553 9.33545 6.4125C9.33545 6.77947 9.63293 7.07695 9.9999 7.07695Z" fill="#F1D15B"/>
<path d="M9.9998 9.57812C11.6072 9.57812 12.9146 8.27031 12.9146 6.66289V2.17773C11.9994 1.86992 11.0189 1.70312 9.9998 1.70312C8.98066 1.70312 8.0002 1.86992 7.08496 2.17773V6.66289C7.08496 8.27031 8.39238 9.57812 9.9998 9.57812ZM9.9998 4.57656C11.0123 4.57656 11.8361 5.40039 11.8361 6.41289C11.8361 7.42539 11.0123 8.24922 9.9998 8.24922C8.9873 8.24922 8.16348 7.42539 8.16348 6.41289C8.16348 5.40039 8.9873 4.57656 9.9998 4.57656Z" fill="#F1D15B"/>
<path d="M9.9999 19.9996C13.5753 19.9996 16.6714 17.9488 18.1761 14.959H1.82373C3.32842 17.9488 6.42451 19.9996 9.9999 19.9996ZM9.41397 16.2484H10.5858V18.1242H9.41397V16.2484Z" fill="#6B5E7A"/>
<path d="M14.0867 2.66406V6.66211C14.0867 8.91563 12.2535 10.7492 10 10.7492C7.74648 10.7492 5.91328 8.91563 5.91328 6.66211V2.66406C2.91211 4.16484 0.851562 7.26719 0.851562 10.8508C0.851562 11.8777 1.0207 12.8652 1.33281 13.7867H18.6672C18.9793 12.8652 19.1484 11.8777 19.1484 10.8508C19.1484 7.26719 17.0879 4.16484 14.0867 2.66406Z" fill="#6B5E7A"/>
<path d="M4.41406 1.17188V0C1.98012 0 0 1.98012 0 4.41406H1.17188C1.17188 2.62629 2.62633 1.17188 4.41406 1.17188Z" fill="#F1D15B"/>
<path d="M18.8281 4.41406H20C20 1.98012 18.0199 0 15.5859 0V1.17188C17.3737 1.17188 18.8281 2.62629 18.8281 4.41406Z" fill="#F1D15B"/>
</svg>
