<svg width="24" height="25" viewBox="0 0 24 25" fill="none" xmlns="http://www.w3.org/2000/svg">
<rect width="24" height="24" rx="12" transform="matrix(1 0 0 -1 0 24.5)" fill="url(#paint0_linear_7513_64071)"/>
<path d="M13.3559 5.46516L19.4145 15.8302C19.5068 15.9883 19.5555 16.1676 19.5555 16.3501C19.5555 16.5326 19.5068 16.7118 19.4145 16.8699C19.3221 17.028 19.1892 17.1592 19.0292 17.2505C18.8692 17.3417 18.6877 17.3898 18.5029 17.3898H6.38579C6.20103 17.3898 6.01952 17.3417 5.85952 17.2505C5.69951 17.1592 5.56664 17.028 5.47426 16.8699C5.38188 16.7118 5.33325 16.5326 5.33325 16.3501C5.33325 16.1676 5.38189 15.9883 5.47427 15.8302L11.5328 5.46516C11.9377 4.77203 12.9503 4.77203 13.3559 5.46516ZM12.4444 13.6801C12.2583 13.6801 12.0798 13.7532 11.9482 13.8831C11.8166 14.0131 11.7427 14.1894 11.7427 14.3733C11.7427 14.5571 11.8166 14.7334 11.9482 14.8634C12.0798 14.9934 12.2583 15.0664 12.4444 15.0664C12.6305 15.0664 12.809 14.9934 12.9405 14.8634C13.0721 14.7334 13.1461 14.5571 13.1461 14.3733C13.1461 14.1894 13.0721 14.0131 12.9405 13.8831C12.809 13.7532 12.6305 13.6801 12.4444 13.6801ZM12.4444 8.82822C12.2725 8.82825 12.1066 8.89057 11.9782 9.00339C11.8497 9.1162 11.7677 9.27165 11.7476 9.44026L11.7427 9.52135V12.2939C11.7429 12.4705 11.8113 12.6405 11.9341 12.7689C12.0569 12.8974 12.2247 12.9747 12.4032 12.985C12.5818 12.9954 12.7576 12.938 12.8947 12.8246C13.0319 12.7112 13.12 12.5504 13.1412 12.375L13.1461 12.2939V9.52135C13.1461 9.33752 13.0721 9.16122 12.9405 9.03124C12.809 8.90125 12.6305 8.82822 12.4444 8.82822Z" fill="#F1D15B"/>
<defs>
<linearGradient id="paint0_linear_7513_64071" x1="19.9771" y1="38.0752" x2="20.2138" y2="-3.99867" gradientUnits="userSpaceOnUse">
<stop offset="0.619864" stop-color="white"/>
<stop offset="1" stop-color="#C9D7E5"/>
</linearGradient>
</defs>
</svg>
