<svg width="14" height="14" viewBox="0 0 14 14" fill="none" xmlns="http://www.w3.org/2000/svg">
<path d="M3.58268 6.3H4.93848V7.7H3.58268V6.3ZM13.0732 2.8V12.6C13.0732 13.37 12.4631 14 11.7174 14H2.22689C1.86731 14 1.52246 13.8525 1.2682 13.5899C1.01394 13.3274 0.871094 12.9713 0.871094 12.6L0.877873 2.8C0.877873 2.03 1.47442 1.4 2.22689 1.4H2.90479V0H4.26058V1.4H9.68376V0H11.0396V1.4H11.7174C12.4631 1.4 13.0732 2.03 13.0732 2.8ZM2.22689 4.2H11.7174V2.8H2.22689V4.2ZM11.7174 12.6V5.6H2.22689V12.6H11.7174ZM9.00586 7.7H10.3617V6.3H9.00586V7.7ZM6.29427 7.7H7.65007V6.3H6.29427V7.7Z" fill="white"/>
</svg>
