<svg width="14" height="14" viewBox="0 0 14 14" fill="none" xmlns="http://www.w3.org/2000/svg">
<path d="M6.97266 14.0002C5.12339 14.0002 3.34987 13.2627 2.04224 11.95C0.734617 10.6372 0 8.85676 0 7.00024C0 5.14373 0.734617 3.36325 2.04224 2.0505C3.34987 0.737742 5.12339 0.000244141 6.97266 0.000244141C8.82192 0.000244141 10.5954 0.737742 11.9031 2.0505C13.2107 3.36325 13.9453 5.14373 13.9453 7.00024C13.9453 8.85676 13.2107 10.6372 11.9031 11.95C10.5954 13.2627 8.82192 14.0002 6.97266 14.0002ZM6.97266 12.6002C8.45207 12.6002 9.87088 12.0102 10.917 10.96C11.9631 9.90984 12.5508 8.48546 12.5508 7.00024C12.5508 5.51503 11.9631 4.09065 10.917 3.04045C9.87088 1.99024 8.45207 1.40024 6.97266 1.40024C5.49325 1.40024 4.07443 1.99024 3.02833 3.04045C1.98222 4.09065 1.39453 5.51503 1.39453 7.00024C1.39453 8.48546 1.98222 9.90984 3.02833 10.96C4.07443 12.0102 5.49325 12.6002 6.97266 12.6002ZM6.27539 7.28724V2.80024H7.66992V6.71324L10.4241 9.47824L9.44098 10.4652L6.27539 7.28724Z" fill="white" fill-opacity="0.52"/>
</svg>
