<svg width="20" height="20" viewBox="0 0 20 20" fill="none" xmlns="http://www.w3.org/2000/svg">
<g clip-path="url(#clip0_1468_1707)">
<path fill-rule="evenodd" clip-rule="evenodd" d="M4.88281 0H15.1172C17.8066 0 20 2.19344 20 4.88281V15.1172C20 17.8066 17.8066 20 15.1172 20H4.88281C2.19344 20 0 17.8066 0 15.1172V4.88281C0 2.19344 2.19344 0 4.88281 0ZM14.9439 7.43652H8.35156C8.23139 7.43656 8.11239 7.46028 8.00139 7.50632C7.89038 7.55236 7.78953 7.61982 7.7046 7.70485C7.61966 7.78987 7.55232 7.8908 7.5064 8.00185C7.46048 8.11291 7.4369 8.23193 7.43699 8.35211V14.9438C7.4362 15.0645 7.45929 15.1842 7.50493 15.2959C7.55057 15.4076 7.61785 15.5092 7.70291 15.5948C7.78796 15.6804 7.88911 15.7484 8.00053 15.7947C8.11195 15.8411 8.23145 15.865 8.35213 15.865C8.47281 15.865 8.5923 15.8411 8.70372 15.7947C8.81515 15.7484 8.9163 15.6804 9.00135 15.5948C9.08641 15.5092 9.15369 15.4076 9.19933 15.2959C9.24497 15.1842 9.26805 15.0645 9.26727 14.9438V9.26754H14.9439C15.1868 9.26754 15.4196 9.17108 15.5913 8.99939C15.763 8.8277 15.8595 8.59484 15.8595 8.35203C15.8595 8.10922 15.763 7.87636 15.5913 7.70467C15.4196 7.53298 15.1868 7.43652 14.9439 7.43652ZM4.14039 11.648C4.14197 11.8898 4.23914 12.1212 4.41069 12.2916C4.58224 12.4621 4.81425 12.5577 5.05607 12.5577C5.2979 12.5577 5.5299 12.4621 5.70146 12.2916C5.87301 12.1212 5.97018 11.8898 5.97176 11.648V5.97164H11.6484C11.7692 5.97243 11.8889 5.94933 12.0006 5.90367C12.1124 5.85802 12.214 5.79071 12.2997 5.70561C12.3853 5.62052 12.4533 5.51933 12.4997 5.40786C12.5461 5.29639 12.57 5.17685 12.57 5.05611C12.57 4.93538 12.5461 4.81584 12.4997 4.70437C12.4533 4.5929 12.3853 4.49171 12.2997 4.40661C12.214 4.32152 12.1124 4.25421 12.0006 4.20855C11.8889 4.1629 11.7692 4.1398 11.6484 4.14059H5.05605C4.81323 4.14064 4.58037 4.23711 4.40867 4.40881C4.23696 4.5805 4.14046 4.81335 4.14039 5.05617V11.648Z" fill="#4D7EA5"/>
</g>
<defs>
<clipPath id="clip0_1468_1707">
<rect width="20" height="20" fill="white"/>
</clipPath>
</defs>
</svg>
