<svg width="14" height="14" viewBox="0 0 14 14" fill="none" xmlns="http://www.w3.org/2000/svg">
<path d="M14.0015 1.98628V3.56336H5.31209e-06V1.98628C-0.000723969 1.759 0.0736562 1.53783 0.211583 1.35718C0.34951 1.17652 0.543256 1.0465 0.762704 0.987309C0.8476 0.964501 0.935137 0.953007 1.02304 0.953126H2.87551V1.96167C2.87343 2.08044 2.89503 2.19843 2.93904 2.30876C2.98306 2.41909 3.0486 2.51955 3.13186 2.60427C3.21512 2.689 3.31441 2.75629 3.42396 2.80223C3.5335 2.84816 3.65109 2.87182 3.76988 2.87182C3.88866 2.87182 4.00626 2.84816 4.1158 2.80223C4.22535 2.75629 4.32464 2.689 4.4079 2.60427C4.49115 2.51955 4.5567 2.41909 4.60072 2.30876C4.64473 2.19843 4.66633 2.08044 4.66425 1.96167V0.953126H9.33725V1.96167C9.33725 2.19891 9.43149 2.42643 9.59924 2.59418C9.767 2.76194 9.99452 2.85618 10.2318 2.85618C10.469 2.85618 10.6965 2.76194 10.8643 2.59418C11.032 2.42643 11.1263 2.19891 11.1263 1.96167V0.953126H12.9785C13.2511 0.954501 13.5121 1.06412 13.7039 1.25786C13.8958 1.45161 14.0028 1.71362 14.0015 1.98628Z" fill="#315D80"/>
<path d="M5.51794e-06 4.19141V12.9757C-0.000737777 13.203 0.0736321 13.4242 0.211557 13.6049C0.349481 13.7856 0.543235 13.9157 0.762704 13.9749C0.847612 13.9977 0.935149 14.0091 1.02304 14.0089H12.9785C13.2511 14.0075 13.5121 13.8979 13.7039 13.7041C13.8958 13.5104 14.0028 13.2484 14.0015 12.9757V4.19141H5.51794e-06ZM6.2036 7.10656C6.18569 7.08877 6.17149 7.06761 6.16179 7.04431C6.1521 7.02101 6.14711 6.99602 6.14711 6.97078C6.14711 6.94555 6.1521 6.92056 6.16179 6.89726C6.17149 6.87395 6.18569 6.8528 6.2036 6.83501L6.44096 6.59764C6.45876 6.57974 6.47991 6.56553 6.50321 6.55584C6.52651 6.54614 6.5515 6.54115 6.57674 6.54115C6.60198 6.54115 6.62697 6.54614 6.65027 6.55584C6.67357 6.56553 6.69473 6.57974 6.71252 6.59764L7.00075 6.88615L7.28898 6.59791C7.30678 6.58001 7.32793 6.56581 7.35123 6.55611C7.37453 6.54642 7.39952 6.54143 7.42476 6.54143C7.45 6.54143 7.47499 6.54642 7.49829 6.55611C7.52159 6.56581 7.54275 6.58001 7.56054 6.59791L7.79818 6.83556C7.81608 6.85335 7.83029 6.8745 7.83998 6.8978C7.84967 6.9211 7.85467 6.94609 7.85467 6.97133C7.85467 6.99657 7.84967 7.02156 7.83998 7.04486C7.83029 7.06816 7.81608 7.08932 7.79818 7.10711L7.50967 7.39534L7.79818 7.68358C7.81608 7.70137 7.83029 7.72252 7.83998 7.74582C7.84967 7.76912 7.85467 7.79411 7.85467 7.81935C7.85467 7.84459 7.84967 7.86958 7.83998 7.89288C7.83029 7.91618 7.81608 7.93734 7.79818 7.95513L7.56081 8.1925C7.54302 8.2104 7.52186 8.2246 7.49856 8.2343C7.47526 8.24399 7.45027 8.24898 7.42503 8.24898C7.3998 8.24898 7.37481 8.24399 7.35151 8.2343C7.3282 8.2246 7.30705 8.2104 7.28926 8.1925L7.00075 7.90399L6.71252 8.1925C6.69473 8.2104 6.67357 8.2246 6.65027 8.2343C6.62697 8.24399 6.60198 8.24898 6.57674 8.24898C6.5515 8.24898 6.52651 8.24399 6.50321 8.2343C6.47991 8.2246 6.45876 8.2104 6.44096 8.1925L6.20332 7.95485C6.18542 7.93706 6.17121 7.91591 6.16152 7.89261C6.15183 7.8693 6.14684 7.84432 6.14684 7.81908C6.14684 7.79384 6.15183 7.76885 6.16152 7.74555C6.17121 7.72225 6.18542 7.70109 6.20332 7.6833L6.49183 7.39507L6.2036 7.10656ZM3.01333 7.10656C2.99543 7.08877 2.98123 7.06761 2.97153 7.04431C2.96184 7.02101 2.95685 6.99602 2.95685 6.97078C2.95685 6.94555 2.96184 6.92056 2.97153 6.89726C2.98123 6.87395 2.99543 6.8528 3.01333 6.83501L3.2507 6.59764C3.26849 6.57974 3.28965 6.56553 3.31295 6.55584C3.33625 6.54614 3.36124 6.54115 3.38648 6.54115C3.41172 6.54115 3.43671 6.54614 3.46001 6.55584C3.48331 6.56553 3.50446 6.57974 3.52226 6.59764L3.81049 6.88615L4.09872 6.59791C4.11651 6.58001 4.13767 6.56581 4.16097 6.55611C4.18427 6.54642 4.20926 6.54143 4.2345 6.54143C4.25974 6.54143 4.28473 6.54642 4.30803 6.55611C4.33133 6.56581 4.35248 6.58001 4.37028 6.59791L4.60792 6.83556C4.62582 6.85335 4.64002 6.8745 4.64972 6.8978C4.65941 6.9211 4.6644 6.94609 4.6644 6.97133C4.6644 6.99657 4.65941 7.02156 4.64972 7.04486C4.64002 7.06816 4.62582 7.08932 4.60792 7.10711L4.32078 7.39507L4.60928 7.6833C4.62719 7.70109 4.64139 7.72225 4.65109 7.74555C4.66078 7.76885 4.66577 7.79384 4.66577 7.81908C4.66577 7.84432 4.66078 7.8693 4.65109 7.89261C4.64139 7.91591 4.62719 7.93706 4.60928 7.95485L4.37192 8.19222C4.35413 8.21012 4.33297 8.22433 4.30967 8.23402C4.28637 8.24372 4.26138 8.24871 4.23614 8.24871C4.2109 8.24871 4.18591 8.24372 4.16261 8.23402C4.13931 8.22433 4.11815 8.21012 4.10036 8.19222L3.81186 7.90399L3.52226 8.1925C3.50446 8.2104 3.48331 8.2246 3.46001 8.2343C3.43671 8.24399 3.41172 8.24898 3.38648 8.24898C3.36124 8.24898 3.33625 8.24399 3.31295 8.2343C3.28965 8.2246 3.26849 8.2104 3.2507 8.1925L3.01306 7.95485C2.99516 7.93706 2.98095 7.91591 2.97126 7.89261C2.96157 7.8693 2.95657 7.84432 2.95657 7.81908C2.95657 7.79384 2.96157 7.76885 2.97126 7.74555C2.98095 7.72225 2.99516 7.70109 3.01306 7.6833L3.30157 7.39507L3.01333 7.10656ZM5.03699 11.0401C5.03699 11.1144 5.02236 11.1879 4.99394 11.2565C4.96552 11.3251 4.92386 11.3875 4.87135 11.44C4.81883 11.4925 4.75649 11.5342 4.68788 11.5626C4.61926 11.591 4.54572 11.6056 4.47146 11.6056H3.15061C3.00063 11.6056 2.85678 11.5461 2.75072 11.44C2.64467 11.3339 2.58509 11.1901 2.58509 11.0401V10.0767C2.58509 10.0024 2.59971 9.92888 2.62813 9.86026C2.65655 9.79165 2.69821 9.72931 2.75072 9.67679C2.80324 9.62428 2.86558 9.58262 2.9342 9.5542C3.00281 9.52578 3.07635 9.51115 3.15061 9.51115H4.47036C4.54463 9.51115 4.61817 9.52578 4.68678 9.5542C4.7554 9.58262 4.81774 9.62428 4.87025 9.67679C4.92277 9.72931 4.96442 9.79165 4.99284 9.86026C5.02127 9.92888 5.03589 10.0024 5.03589 10.0767L5.03699 11.0401ZM8.22725 11.0401C8.22725 11.1144 8.21262 11.1879 8.1842 11.2565C8.15578 11.3251 8.11412 11.3875 8.06161 11.44C8.00909 11.4925 7.94675 11.5342 7.87814 11.5626C7.80953 11.591 7.73599 11.6056 7.66172 11.6056H6.34088C6.19089 11.6056 6.04704 11.5461 5.94099 11.44C5.83493 11.3339 5.77535 11.1901 5.77535 11.0401V10.0767C5.77535 9.92669 5.83493 9.78285 5.94099 9.67679C6.04704 9.57073 6.19089 9.51115 6.34088 9.51115H7.66063C7.81061 9.51115 7.95446 9.57073 8.06051 9.67679C8.16657 9.78285 8.22615 9.92669 8.22615 10.0767L8.22725 11.0401ZM11.4175 11.0401C11.4175 11.1144 11.4029 11.1879 11.3745 11.2565C11.346 11.3251 11.3044 11.3875 11.2519 11.44C11.1994 11.4925 11.137 11.5342 11.0684 11.5626C10.9998 11.591 10.9262 11.6056 10.852 11.6056H9.53114C9.38115 11.6056 9.23731 11.5461 9.13125 11.44C9.02519 11.3339 8.96561 11.1901 8.96561 11.0401V10.0767C8.96561 9.92669 9.02519 9.78285 9.13125 9.67679C9.23731 9.57073 9.38115 9.51115 9.53114 9.51115H10.8509C10.9252 9.51115 10.9987 9.52578 11.0673 9.5542C11.1359 9.58262 11.1983 9.62428 11.2508 9.67679C11.3033 9.72931 11.3449 9.79165 11.3734 9.86026C11.4018 9.92888 11.4164 10.0024 11.4164 10.0767L11.4175 11.0401ZM11.4175 7.87692C11.4175 7.95118 11.4029 8.02472 11.3745 8.09333C11.346 8.16195 11.3044 8.22429 11.2519 8.27681C11.1994 8.32932 11.137 8.37098 11.0684 8.3994C10.9998 8.42782 10.9262 8.44245 10.852 8.44245H9.53114C9.38115 8.44245 9.23731 8.38286 9.13125 8.27681C9.02519 8.17075 8.96561 8.0269 8.96561 7.87692V6.91322C8.96561 6.76323 9.02519 6.61939 9.13125 6.51333C9.23731 6.40727 9.38115 6.34769 9.53114 6.34769H10.8509C10.9252 6.34769 10.9987 6.36232 11.0673 6.39074C11.1359 6.41916 11.1983 6.46082 11.2508 6.51333C11.3033 6.56584 11.3449 6.62819 11.3734 6.6968C11.4018 6.76541 11.4164 6.83895 11.4164 6.91322L11.4175 7.87692Z" fill="#315D80"/>
<path d="M10.2304 2.50409C10.0868 2.50337 9.94932 2.44564 9.84824 2.34359C9.74717 2.24154 9.69076 2.10353 9.69141 1.9599V0.550721C9.69141 0.407769 9.7482 0.270672 9.84928 0.169589C9.95036 0.0685064 10.0875 0.0117188 10.2304 0.0117188C10.3734 0.0117188 10.5105 0.0685064 10.6115 0.169589C10.7126 0.270672 10.7694 0.407769 10.7694 0.550721V1.9599C10.7701 2.10353 10.7137 2.24154 10.6126 2.34359C10.5115 2.44564 10.374 2.50337 10.2304 2.50409Z" fill="#315D80"/>
<path d="M3.77156 2.50451C3.70043 2.50419 3.63006 2.48986 3.56448 2.46233C3.49889 2.43481 3.43937 2.39463 3.38931 2.34409C3.33926 2.29355 3.29965 2.23365 3.27275 2.1678C3.24586 2.10195 3.2322 2.03145 3.23256 1.96032V0.551143C3.23094 0.479356 3.24368 0.40797 3.27004 0.341177C3.29639 0.274384 3.33583 0.213529 3.38602 0.162187C3.43622 0.110845 3.49617 0.0700501 3.56236 0.0421986C3.62854 0.014347 3.69962 0 3.77142 0C3.84323 0 3.91431 0.014347 3.98049 0.0421986C4.04668 0.0700501 4.10663 0.110845 4.15683 0.162187C4.20702 0.213529 4.24646 0.274384 4.27281 0.341177C4.29917 0.40797 4.31191 0.479356 4.31029 0.551143V1.96032C4.31065 2.03142 4.297 2.1019 4.27012 2.16773C4.24324 2.23357 4.20366 2.29346 4.15364 2.34399C4.10361 2.39453 4.04412 2.43471 3.97856 2.46225C3.91301 2.4898 3.84267 2.50416 3.77156 2.50451Z" fill="#315D80"/>
</svg>
