<svg width="22" height="20" viewBox="0 0 22 20" fill="none" xmlns="http://www.w3.org/2000/svg">
<path d="M17.0671 0H19.0672C20.1339 0 21.3339 0.866689 21.3339 2.00005V4.40011H0V2.00005C0 0.866689 0.733352 0 1.73338 0H3.73343V2.00005C3.73343 2.40006 4.06677 2.66674 4.40011 2.66674C4.73346 2.66674 5.0668 2.40006 5.0668 2.00005V0H15.7337V2.00005C15.7337 2.40006 16.0671 2.66674 16.4004 2.66674C16.7338 2.66674 17.0671 2.40006 17.0671 2.00005V0Z" fill="#C06A87"/>
<path d="M0 5.79688V17.9972C0 19.1972 0.733352 19.9972 1.80005 19.9972H19.1338C20.2005 19.9972 21.4006 19.1306 21.4006 17.9972V5.79688H0ZM5.93349 16.9972H4.33345C4.06677 16.9972 3.8001 16.7972 3.8001 16.4638V14.7971C3.8001 14.5304 4.0001 14.2638 4.33345 14.2638H6.00016C6.26683 14.2638 6.5335 14.4638 6.5335 14.7971V16.4638C6.46684 16.7972 6.26683 16.9972 5.93349 16.9972ZM5.93349 10.997H4.33345C4.06677 10.997 3.8001 10.797 3.8001 10.4637V8.79695C3.8001 8.53028 4.0001 8.26361 4.33345 8.26361H6.00016C6.26683 8.26361 6.5335 8.46361 6.5335 8.79695V10.4637C6.46684 10.797 6.26683 10.997 5.93349 10.997ZM11.267 16.9972H9.60025C9.33358 16.9972 9.0669 16.7972 9.0669 16.4638V14.7971C9.0669 14.5304 9.26691 14.2638 9.60025 14.2638H11.267C11.5336 14.2638 11.8003 14.4638 11.8003 14.7971V16.4638C11.8003 16.7972 11.6003 16.9972 11.267 16.9972ZM11.267 10.997H9.60025C9.33358 10.997 9.0669 10.797 9.0669 10.4637V8.79695C9.0669 8.53028 9.26691 8.26361 9.60025 8.26361H11.267C11.5336 8.26361 11.8003 8.46361 11.8003 8.79695V10.4637C11.8003 10.797 11.6003 10.997 11.267 10.997ZM16.6004 16.9972H14.9337C14.667 16.9972 14.4004 16.7972 14.4004 16.4638V14.7971C14.4004 14.5304 14.6004 14.2638 14.9337 14.2638H16.6004C16.8671 14.2638 17.1338 14.4638 17.1338 14.7971V16.4638C17.1338 16.7972 16.9338 16.9972 16.6004 16.9972ZM16.6004 10.997H14.9337C14.667 10.997 14.4004 10.797 14.4004 10.4637V8.79695C14.4004 8.53028 14.6004 8.26361 14.9337 8.26361H16.6004C16.8671 8.26361 17.1338 8.46361 17.1338 8.79695V10.4637C17.1338 10.797 16.9338 10.997 16.6004 10.997Z" fill="#F2727F"/>
</svg>
