<svg width="18" height="19" viewBox="0 0 18 19" fill="none" xmlns="http://www.w3.org/2000/svg">
<g clip-path="url(#clip0_1460_6743)">
<path d="M17.9771 7.88049C17.9364 7.72584 17.836 7.59368 17.6979 7.51306L9.29972 2.71498C9.2077 2.66476 9.10455 2.63844 8.99972 2.63844C8.89489 2.63844 8.79174 2.66476 8.69972 2.71498L0.302169 7.5149C0.164432 7.5952 0.0638729 7.72655 0.0222742 7.88049C-0.0193244 8.03443 0.00138737 8.19857 0.0799235 8.33734C0.130564 8.42068 0.20073 8.49044 0.28436 8.54059C0.367989 8.59073 0.462567 8.61976 0.559923 8.62516V17.6371C0.560408 17.7961 0.623778 17.9485 0.736195 18.0609C0.848612 18.1734 1.00094 18.2368 1.15992 18.2372H4.4385C4.28261 18.0078 4.19901 17.7369 4.1985 17.4595V15.1649C4.1979 14.9227 4.26126 14.6846 4.38217 14.4747C4.50175 14.2656 4.67482 14.0921 4.8836 13.9719L6.74176 12.8892C6.81186 12.8481 6.89148 12.8259 6.97276 12.8249C7.05405 12.824 7.13418 12.8442 7.20523 12.8837C7.541 13.0667 7.90056 13.2021 8.2736 13.2861C8.35815 13.306 8.43561 13.3487 8.49757 13.4096C8.55953 13.4705 8.60361 13.5473 8.62503 13.6315L9.00584 15.1085L9.39707 13.6241C9.41876 13.5413 9.46241 13.4659 9.52341 13.4059C9.5844 13.3458 9.66048 13.3034 9.7436 13.283C10.1104 13.198 10.464 13.0637 10.7948 12.8837C10.866 12.8445 10.9462 12.8244 11.0275 12.8255C11.1084 12.8255 11.188 12.8466 11.2583 12.8868L13.1165 13.9695C13.3252 14.0896 13.4983 14.2631 13.6179 14.4723C13.7388 14.6821 13.8022 14.9202 13.8016 15.1624V17.4577C13.801 17.7351 13.7174 18.006 13.5616 18.2354H16.845C17.004 18.2349 17.1562 18.1715 17.2685 18.0591C17.3809 17.9466 17.4441 17.7942 17.4444 17.6353V8.63129C17.5425 8.62598 17.6378 8.59633 17.7216 8.54501C17.8054 8.4937 17.8751 8.42233 17.9244 8.33734C18.0012 8.19786 18.0201 8.03379 17.9771 7.88049ZM11.115 11.4354C10.8361 11.8572 10.4383 12.1867 9.97196 12.3822C9.50648 12.5763 8.99365 12.6269 8.49919 12.5276C8.00474 12.4284 7.55119 12.1837 7.19666 11.8249C6.93002 11.5552 6.72601 11.2301 6.59911 10.8727C6.47221 10.5153 6.42555 10.1343 6.46242 9.75686C6.4993 9.37937 6.61881 9.01464 6.81247 8.68855C7.00613 8.36247 7.2692 8.08303 7.58298 7.87008C8.07192 7.53979 8.66101 7.39106 9.24809 7.44967C9.83517 7.50828 10.3832 7.77054 10.7973 8.19098C11.215 8.61312 11.4746 9.16626 11.5324 9.75736C11.5903 10.3485 11.4429 10.9415 11.115 11.4366V11.4354ZM17.9789 5.47992C17.9581 5.40386 17.9227 5.33253 17.8748 5.26987C17.8266 5.20714 17.7664 5.1545 17.6979 5.11494L16.7679 4.58706C16.7843 4.53853 16.7943 4.48811 16.7979 4.43702V1.43631C16.8782 1.43888 16.9583 1.42526 17.0333 1.39627C17.1083 1.36728 17.1767 1.32351 17.2345 1.26756C17.2922 1.21161 17.3382 1.14461 17.3695 1.07056C17.4009 0.9965 17.417 0.916895 17.417 0.83647C17.417 0.756045 17.4009 0.67644 17.3695 0.602385C17.3382 0.52833 17.2922 0.461336 17.2345 0.405382C17.1767 0.349428 17.1083 0.305656 17.0333 0.276667C16.9583 0.247679 16.8782 0.234066 16.7979 0.236634H13.1985C13.0428 0.241612 12.8951 0.306989 12.7867 0.418937C12.6783 0.530885 12.6177 0.680621 12.6177 0.83647C12.6177 0.992319 12.6783 1.14206 12.7867 1.254C12.8951 1.36595 13.0428 1.43133 13.1985 1.43631V2.54963L9.29972 0.31502C9.2077 0.264797 9.10455 0.238479 8.99972 0.238479C8.89489 0.238479 8.79174 0.264797 8.69972 0.31502L0.302169 5.11494C0.163742 5.19444 0.0625594 5.32569 0.0208804 5.47981C-0.0207986 5.63394 0.000439722 5.79831 0.0799235 5.93677C0.159407 6.07523 0.290626 6.17643 0.444712 6.21812C0.598798 6.25981 0.763129 6.23857 0.901556 6.15906L8.99972 1.52694L17.0979 6.15906C17.1666 6.19843 17.2423 6.22402 17.3207 6.23439C17.399 6.2442 17.4784 6.23879 17.5546 6.21847C17.631 6.19775 17.7026 6.16217 17.7652 6.11375C17.8914 6.01614 17.9739 5.87263 17.9948 5.71447C18.0049 5.636 17.9995 5.55632 17.9789 5.47992Z" fill="#315D80"/>
</g>
<defs>
<clipPath id="clip0_1460_6743">
<rect width="18" height="18" fill="white" transform="translate(0 0.238281)"/>
</clipPath>
</defs>
</svg>
