<svg width="44" height="35" viewBox="0 0 44 35" fill="none" xmlns="http://www.w3.org/2000/svg">
<g filter="url(#filter0_d_1651_8584)">
<rect x="5" y="4" width="34" height="25" rx="12.5" fill="white"/>
</g>
<path d="M22 9.875L29 9.875M15 22.125L17.625 22.125M15 9.875L18.5 9.875M21.125 22.125L29 22.125M26.375 16L29 16M15 16L22.875 16" stroke="#97B1C7" stroke-width="2" stroke-linecap="round"/>
<path d="M18.5 9.875C18.5 10.8415 19.2835 11.625 20.25 11.625C21.2165 11.625 22 10.8415 22 9.875C22 8.9085 21.2165 8.125 20.25 8.125C19.2835 8.125 18.5 8.9085 18.5 9.875Z" stroke="#97B1C7" stroke-width="2" stroke-linecap="round"/>
<path d="M22.875 16C22.875 16.9665 23.6585 17.75 24.625 17.75C25.5915 17.75 26.375 16.9665 26.375 16C26.375 15.0335 25.5915 14.25 24.625 14.25C23.6585 14.25 22.875 15.0335 22.875 16Z" stroke="#97B1C7" stroke-width="2" stroke-linecap="round"/>
<path d="M17.625 22.125C17.625 23.0915 18.4085 23.875 19.375 23.875C20.3415 23.875 21.125 23.0915 21.125 22.125C21.125 21.1585 20.3415 20.375 19.375 20.375C18.4085 20.375 17.625 21.1585 17.625 22.125Z" stroke="#97B1C7" stroke-width="2" stroke-linecap="round"/>
<defs>
<filter id="filter0_d_1651_8584" x="0" y="0" width="44" height="35" filterUnits="userSpaceOnUse" color-interpolation-filters="sRGB">
<feFlood flood-opacity="0" result="BackgroundImageFix"/>
<feColorMatrix in="SourceAlpha" type="matrix" values="0 0 0 0 0 0 0 0 0 0 0 0 0 0 0 0 0 0 127 0" result="hardAlpha"/>
<feOffset dy="1"/>
<feGaussianBlur stdDeviation="2.5"/>
<feComposite in2="hardAlpha" operator="out"/>
<feColorMatrix type="matrix" values="0 0 0 0 0 0 0 0 0 0 0 0 0 0 0 0 0 0 0.1 0"/>
<feBlend mode="normal" in2="BackgroundImageFix" result="effect1_dropShadow_1651_8584"/>
<feBlend mode="normal" in="SourceGraphic" in2="effect1_dropShadow_1651_8584" result="shape"/>
</filter>
</defs>
</svg>
