<svg width="22" height="25" viewBox="0 0 22 25" fill="none" xmlns="http://www.w3.org/2000/svg">
<path d="M11 3.5L21 3.5M0.999997 21L4.75 21M0.999998 3.5L6 3.5M9.75 21L21 21M17.25 12.25L21 12.25M0.999998 12.25L12.25 12.25" stroke="#315D80" stroke-width="2" stroke-linecap="round"/>
<path d="M6 3.5C6 4.88071 7.11929 6 8.5 6C9.88071 6 11 4.88071 11 3.5C11 2.11929 9.88071 1 8.5 1C7.11929 1 6 2.11929 6 3.5Z" stroke="#315D80" stroke-width="2" stroke-linecap="round"/>
<path d="M12.25 12.25C12.25 13.6307 13.3693 14.75 14.75 14.75C16.1307 14.75 17.25 13.6307 17.25 12.25C17.25 10.8693 16.1307 9.75 14.75 9.75C13.3693 9.75 12.25 10.8693 12.25 12.25Z" stroke="#315D80" stroke-width="2" stroke-linecap="round"/>
<path d="M4.75 21C4.75 22.3807 5.86929 23.5 7.25 23.5C8.63071 23.5 9.75 22.3807 9.75 21C9.75 19.6193 8.63071 18.5 7.25 18.5C5.86929 18.5 4.75 19.6193 4.75 21Z" stroke="#315D80" stroke-width="2" stroke-linecap="round"/>
</svg>
