<svg width="12" height="13" viewBox="0 0 12 13" fill="none" xmlns="http://www.w3.org/2000/svg">
<path fill-rule="evenodd" clip-rule="evenodd" d="M12 1.78021C12 2.21111 11.6605 2.56042 11.2418 2.56042L6 2.56042C5.58126 2.56042 5.24181 2.21111 5.24181 1.78021C5.24181 1.34931 5.58126 1 6 1L11.2418 1C11.6605 1 12 1.34931 12 1.78021ZM12 6.5C12 6.9309 11.6605 7.28021 11.2418 7.28021L9.27613 7.28021C8.85739 7.28021 8.51794 6.9309 8.51794 6.5C8.51794 6.0691 8.85739 5.71979 9.27613 5.71979L11.2418 5.71979C11.6605 5.71979 12 6.0691 12 6.5ZM12 11.2198C12 11.6507 11.6605 12 11.2418 12L5.34477 12C4.92604 12 4.58658 11.6507 4.58658 11.2198C4.58658 10.7889 4.92604 10.4396 5.34477 10.4396L11.2418 10.4396C11.6605 10.4396 12 10.7889 12 11.2198ZM7.41342 6.5C7.41342 6.9309 7.07396 7.28021 6.65523 7.28021L0.758191 7.28021C0.339454 7.28021 6.94427e-07 6.9309 7.13262e-07 6.5C7.32097e-07 6.0691 0.339454 5.71979 0.758191 5.71979L6.65523 5.71979C7.07396 5.71979 7.41342 6.0691 7.41342 6.5ZM4.13729 1.78021C4.13729 2.21111 3.79783 2.56042 3.3791 2.56042L0.758191 2.56042C0.339455 2.56042 9.00735e-07 2.21111 9.1957e-07 1.78021C9.38405e-07 1.34931 0.339455 0.999999 0.758191 1L3.3791 1C3.79783 1 4.13729 1.34931 4.13729 1.78021ZM3.48206 11.2198C3.48206 11.6507 3.14261 12 2.72387 12L0.758191 12C0.339454 12 4.88118e-07 11.6507 5.06953e-07 11.2198C5.25788e-07 10.7889 0.339454 10.4396 0.758191 10.4396L2.72387 10.4396C3.14261 10.4396 3.48206 10.7889 3.48206 11.2198Z" fill="#97B1C7"/>
<path fill-rule="evenodd" clip-rule="evenodd" d="M5.53394 2C5.53394 1.70511 5.29489 1.46606 5 1.46606C4.70511 1.46606 4.46606 1.70511 4.46606 2C4.46606 2.29489 4.70511 2.53394 5 2.53394C5.29489 2.53394 5.53394 2.29489 5.53394 2ZM5 -8.74228e-08C6.10457 -3.91405e-08 7 0.89543 7 2C7 3.10457 6.10457 4 5 4C3.89543 4 3 3.10457 3 2C3 0.89543 3.89543 -1.35705e-07 5 -8.74228e-08Z" fill="#97B1C7"/>
<path fill-rule="evenodd" clip-rule="evenodd" d="M8.53394 6C8.53394 5.70511 8.29488 5.46606 8 5.46606C7.70512 5.46606 7.46606 5.70511 7.46606 6C7.46606 6.29488 7.70511 6.53394 8 6.53394C8.29488 6.53394 8.53394 6.29488 8.53394 6ZM8 4C9.10457 4 10 4.89543 10 6C10 7.10457 9.10457 8 8 8C6.89543 8 6 7.10457 6 6C6 4.89543 6.89543 4 8 4Z" fill="#97B1C7"/>
<path fill-rule="evenodd" clip-rule="evenodd" d="M4.53394 11C4.53394 10.7051 4.29489 10.4661 4 10.4661C3.70511 10.4661 3.46606 10.7051 3.46606 11C3.46606 11.2949 3.70511 11.5339 4 11.5339C4.29489 11.5339 4.53394 11.2949 4.53394 11ZM4 9C5.10457 9 6 9.89543 6 11C6 12.1046 5.10457 13 4 13C2.89543 13 2 12.1046 2 11C2 9.89543 2.89543 9 4 9Z" fill="#97B1C7"/>
</svg>
