<svg width="20" height="20" viewBox="0 0 20 20" fill="none" xmlns="http://www.w3.org/2000/svg">
<path d="M16.9908 0.535156H3.0092C1.34728 0.535156 0 1.88244 0 3.54436V6.30569H20V3.54436C20 1.88244 18.6527 0.535156 16.9908 0.535156ZM11.5854 3.28364H8.46088C8.14448 3.28364 7.87135 3.04053 7.85741 2.72445C7.84261 2.38892 8.11028 2.11223 8.44253 2.11223H11.567C11.8834 2.11223 12.1566 2.35534 12.1705 2.67142C12.1853 3.00695 11.9176 3.28364 11.5854 3.28364Z" fill="#F1D15B"/>
<path d="M17.3862 14.3535C17.135 14.3966 16.8769 14.4193 16.6135 14.4193H14.4351L17.2035 19.2541C17.2777 19.3837 17.4156 19.4637 17.565 19.4637H18.5744C18.8609 19.4637 19.0619 19.1812 18.9679 18.9105L17.3862 14.3535Z" fill="#4D7EA5"/>
<path d="M20 10.2379V7.47656H0V10.2379C0 11.8998 1.34728 13.2471 3.0092 13.2471H16.9908C18.6527 13.2471 20 11.8999 20 10.2379ZM11.5854 10.1581H8.46088C8.14448 10.1581 7.87135 9.91498 7.85741 9.59889C7.84261 9.26336 8.11028 8.98667 8.44253 8.98667H11.567C11.8834 8.98667 12.1566 9.22978 12.1705 9.54586C12.1853 9.88139 11.9176 10.1581 11.5854 10.1581Z" fill="#4D7EA5"/>
<path d="M3.38661 14.4199C3.11008 14.4199 2.83928 14.3951 2.57618 14.3477L0.992122 18.9116C0.898175 19.1823 1.09915 19.4648 1.38564 19.4648H2.43413C2.58349 19.4648 2.7214 19.3848 2.79563 19.2552L5.56434 14.4199H3.38661V14.4199Z" fill="#4D7EA5"/>
</svg>
