<svg width="24" height="24" viewBox="0 0 24 24" fill="none" xmlns="http://www.w3.org/2000/svg">
<path d="M23.9698 10.1917C23.9155 9.98551 23.7816 9.8093 23.5975 9.70181L12.3998 3.3047C12.2771 3.23774 12.1396 3.20265 11.9998 3.20265C11.86 3.20265 11.7225 3.23774 11.5998 3.3047L0.402898 9.70426C0.219247 9.81133 0.0851651 9.98645 0.0296994 10.1917C-0.0257663 10.3969 0.00184985 10.6158 0.106566 10.8008C0.174088 10.9119 0.267645 11.0049 0.379152 11.0718C0.49066 11.1386 0.616765 11.1773 0.746576 11.1845V23.1999C0.747222 23.4119 0.831716 23.615 0.981608 23.7649C1.1315 23.9148 1.33461 23.9994 1.54659 24H5.91808C5.71023 23.6941 5.59877 23.3329 5.59808 22.9631V19.9037C5.59728 19.5808 5.68176 19.2634 5.84298 18.9836C6.00243 18.7047 6.23318 18.4734 6.51156 18.3132L8.98915 16.8697C9.08261 16.8148 9.18878 16.7852 9.29716 16.784C9.40554 16.7827 9.51238 16.8097 9.60712 16.8623C10.0548 17.1063 10.5342 17.2868 11.0316 17.3988C11.1444 17.4253 11.2476 17.4823 11.3303 17.5635C11.4129 17.6447 11.4717 17.747 11.5002 17.8593L12.008 19.8286L12.5296 17.8495C12.5585 17.7391 12.6167 17.6385 12.6981 17.5585C12.7794 17.4784 12.8808 17.4218 12.9917 17.3947C13.4808 17.2813 13.9523 17.1023 14.3933 16.8623C14.4882 16.81 14.5951 16.7833 14.7035 16.7848C14.8115 16.7847 14.9176 16.8128 15.0113 16.8664L17.4889 18.31C17.7672 18.4701 17.998 18.7015 18.1574 18.9803C18.3187 19.2601 18.4032 19.5775 18.4024 19.9005V22.9606C18.4017 23.3305 18.2902 23.6917 18.0823 23.9976H22.4604C22.6723 23.9969 22.8753 23.9124 23.0251 23.7624C23.1748 23.6125 23.2591 23.4093 23.2596 23.1974V11.1927C23.3904 11.1856 23.5174 11.1461 23.6291 11.0777C23.7408 11.0093 23.8338 10.9141 23.8996 10.8008C24.002 10.6148 24.0272 10.3961 23.9698 10.1917ZM14.8203 14.9314C14.4483 15.4937 13.9179 15.933 13.2962 16.1936C12.6755 16.4524 11.9917 16.52 11.3324 16.3876C10.6731 16.2552 10.0684 15.929 9.59569 15.4506C9.24016 15.0911 8.96814 14.6577 8.79895 14.1811C8.62975 13.7046 8.56752 13.1967 8.61669 12.6934C8.66586 12.1901 8.82521 11.7038 9.08343 11.2691C9.34165 10.8343 9.69241 10.4617 10.1108 10.1778C10.7627 9.73746 11.5482 9.53916 12.331 9.6173C13.1138 9.69544 13.8445 10.0451 14.3966 10.6057C14.9535 11.1685 15.2997 11.906 15.3768 12.6941C15.454 13.4822 15.2574 14.2728 14.8203 14.933V14.9314ZM23.9722 6.9911C23.9444 6.88969 23.8973 6.79459 23.8335 6.71105C23.7691 6.62741 23.6889 6.55722 23.5975 6.50448L22.3575 5.80068C22.3794 5.73598 22.3928 5.66876 22.3975 5.60064V1.59989C22.5047 1.60332 22.6114 1.58516 22.7114 1.54651C22.8114 1.50786 22.9026 1.44951 22.9797 1.37491C23.0567 1.3003 23.1179 1.21098 23.1597 1.11225C23.2015 1.01351 23.2231 0.907377 23.2231 0.800148C23.2231 0.69292 23.2015 0.586786 23.1597 0.488051C23.1179 0.389316 23.0567 0.299995 22.9797 0.225394C22.9026 0.150792 22.8114 0.0924324 22.7114 0.0537829C22.6114 0.0151335 22.5047 -0.00301656 22.3975 0.00040829H17.5983C17.3906 0.00704498 17.1937 0.0942098 17.0492 0.243466C16.9046 0.392722 16.8238 0.592361 16.8238 0.800148C16.8238 1.00794 16.9046 1.20757 17.0492 1.35683C17.1937 1.50609 17.3906 1.59325 17.5983 1.59989V3.08425L12.3998 0.104918C12.2771 0.0379572 12.1396 0.0028676 11.9998 0.0028676C11.86 0.0028676 11.7225 0.0379572 11.5998 0.104918L0.402898 6.50448C0.218326 6.61048 0.0834137 6.78547 0.0278409 6.99096C-0.0277319 7.19644 0.000586304 7.41559 0.106566 7.6002C0.212546 7.7848 0.387507 7.91973 0.592958 7.97532C0.798409 8.0309 1.01752 8.00258 1.20209 7.89658L11.9998 1.72073L22.7975 7.89658C22.8891 7.94906 22.99 7.98318 23.0947 7.99701C23.199 8.01009 23.3049 8.00288 23.4065 7.97578C23.5084 7.94816 23.6038 7.90072 23.6873 7.83616C23.8556 7.70602 23.9656 7.51469 23.9935 7.30381C24.0068 7.19919 23.9996 7.09296 23.9722 6.9911Z" fill="white"/>
</svg>
