<svg width="20" height="20" viewBox="0 0 20 20" fill="none" xmlns="http://www.w3.org/2000/svg">
<path d="M19.4141 18.8274H18.0078V9.75649L10 4.41797L1.99219 9.75652V18.8274H0.585938C0.262344 18.8274 0 19.0898 0 19.4134C0 19.737 0.262344 19.9993 0.585938 19.9993H19.4141C19.7377 19.9993 20 19.737 20 19.4134C20 19.0898 19.7377 18.8274 19.4141 18.8274ZM8.0232 9.35059L9.5857 7.78809C9.81453 7.55926 10.1855 7.55926 10.4143 7.78809C10.6432 8.01692 10.6432 8.38789 10.4143 8.61672L9.85207 9.17899H13.9062C14.8755 9.17899 15.6641 9.96754 15.6641 10.9368V14.8431C15.6641 15.8123 14.8755 16.6009 13.9062 16.6009H13.5156C13.192 16.6009 12.9297 16.3385 12.9297 16.0149C12.9297 15.6913 13.192 15.429 13.5156 15.429H13.9062C14.2293 15.429 14.4922 15.1661 14.4922 14.8431V10.9368C14.4922 10.6137 14.2293 10.3509 13.9062 10.3509H9.85207L10.4143 10.9131C10.6431 11.1419 10.6431 11.5129 10.4143 11.7417C10.1855 11.9705 9.81449 11.9705 9.58566 11.7417L8.02316 10.1792C7.79438 9.95043 7.79437 9.57942 8.0232 9.35059ZM4.33594 10.9368C4.33594 9.96754 5.12449 9.17899 6.09375 9.17899C6.41734 9.17899 6.67969 9.44133 6.67969 9.76492C6.67969 10.0885 6.41734 10.3509 6.09375 10.3509C5.77066 10.3509 5.50781 10.6137 5.50781 10.9368V14.8431C5.50781 15.1661 5.77066 15.429 6.09375 15.429H10.1479L9.5857 14.8668C9.35687 14.6379 9.35687 14.267 9.5857 14.0381C9.81453 13.8093 10.1855 13.8093 10.4143 14.0381L11.9768 15.6006C12.2057 15.8294 12.2057 16.2004 11.9768 16.4293L10.4143 17.9918C10.1855 18.2206 9.81453 18.2206 9.5857 17.9918C9.35687 17.7629 9.35687 17.392 9.5857 17.1631L10.1479 16.6009H6.09375C5.12449 16.6009 4.33594 15.8123 4.33594 14.8431V10.9368Z" fill="#9BB997"/>
<path d="M15.0781 1.17187H15.2734V1.83125L18.0078 3.65414V1.17187H18.2031C18.5267 1.17187 18.7891 0.909531 18.7891 0.585937C18.7891 0.262344 18.5267 0 18.2031 0H15.0781C14.7545 0 14.4922 0.262344 14.4922 0.585937C14.4922 0.909531 14.7545 1.17187 15.0781 1.17187Z" fill="#F2727F"/>
<path d="M0.95 9.04435L10 3.01103L19.05 9.04435C19.4394 9.30396 19.9609 9.02481 19.9609 8.55681V6.67903C19.9609 6.48313 19.863 6.30017 19.7 6.19149L10.7584 0.230439C10.2977 -0.0767871 9.7023 -0.0768262 9.24164 0.2304L0.3 6.19149C0.136992 6.30017 0.0390625 6.48313 0.0390625 6.67903V8.55681C0.0390625 9.02481 0.560625 9.30396 0.95 9.04435Z" fill="#F2727F"/>
</svg>
