<svg width="20" height="20" viewBox="0 0 20 20" fill="none" xmlns="http://www.w3.org/2000/svg">
<path d="M4.63387 7.86817C4.81215 7.63234 5.00836 7.41086 5.2198 7.20492V5.03656C6.02539 4.78688 6.61051 4.03594 6.61051 3.14828V0.732422C5.89043 0.732422 5.21535 0.925039 4.63387 1.26141C4.05238 0.925039 3.37734 0.732422 2.65723 0.732422V3.14828C2.65723 4.03594 3.24234 4.78688 4.04793 5.03656V7.20492C4.25938 7.41086 4.45559 7.63234 4.63387 7.86817Z" fill="#EA4B62"/>
<path d="M15.3658 7.86817C15.544 7.63234 15.7403 7.41086 15.9517 7.20492V5.03656C16.7573 4.78688 17.3424 4.03594 17.3424 3.14828V0.732422C16.6223 0.732422 15.9473 0.925039 15.3658 1.26141C14.7843 0.925039 14.1093 0.732422 13.3892 0.732422V3.14828C13.3892 4.03594 13.9743 4.78688 14.7799 5.03656V7.20492C14.9913 7.41086 15.1875 7.63234 15.3658 7.86817Z" fill="#EA4B62"/>
<path d="M9.26838 6.72852C6.70904 6.72852 4.63428 8.80328 4.63428 11.3626C7.19361 11.3626 9.26838 9.28785 9.26838 6.72852Z" fill="#9BB997"/>
<path d="M4.6341 11.3626C4.6341 8.80328 2.55934 6.72852 0 6.72852C0 9.28785 2.07477 11.3626 4.6341 11.3626Z" fill="#9BB997"/>
<path d="M19.9998 6.72852C17.4405 6.72852 15.3657 8.80328 15.3657 11.3626C17.9251 11.3626 19.9998 9.28785 19.9998 6.72852Z" fill="#9BB997"/>
<path d="M15.366 11.3626C15.366 8.80328 13.2913 6.72852 10.7319 6.72852C10.7319 9.28785 12.8067 11.3626 15.366 11.3626Z" fill="#9BB997"/>
<path d="M2.04973 12.5332C1.12316 12.5332 0.338672 13.1514 0.0859375 13.9968H19.9143C19.6616 13.1514 18.8771 12.5332 17.9506 12.5332H2.04973Z" fill="#9BB997"/>
<path d="M0 15.1699H1.46363V19.2691H0V15.1699Z" fill="#9BB997"/>
<path d="M2.63574 17.8047H17.3647V19.2683H2.63574V17.8047Z" fill="#9BB997"/>
<path d="M18.5361 15.1699H19.9998V19.2691H18.5361V15.1699Z" fill="#9BB997"/>
<path d="M2.63574 15.1699H17.3647V16.6336H2.63574V15.1699Z" fill="#9BB997"/>
</svg>
