<svg width="11" height="14" viewBox="0 0 11 14" fill="none" xmlns="http://www.w3.org/2000/svg">
<path d="M5.32492 0.595703C6.73718 0.595703 8.09159 1.17601 9.09021 2.20896C10.0888 3.2419 10.6498 4.64288 10.6498 6.10369C10.6498 8.43117 9.06875 10.9677 5.94753 13.7403C5.77397 13.8945 5.5527 13.9792 5.3239 13.979C5.0951 13.9788 4.87397 13.8937 4.70068 13.7392L4.49423 13.5539C1.51119 10.8536 0 8.3792 0 6.10369C0 4.64288 0.561017 3.2419 1.55963 2.20896C2.55825 1.17601 3.91266 0.595703 5.32492 0.595703ZM5.32492 3.98524C4.78175 3.98524 4.26082 4.20843 3.87673 4.60572C3.49265 5.00301 3.27687 5.54184 3.27687 6.10369C3.27687 6.66554 3.49265 7.20438 3.87673 7.60167C4.26082 7.99896 4.78175 8.22215 5.32492 8.22215C5.8681 8.22215 6.38903 7.99896 6.77311 7.60167C7.15719 7.20438 7.37297 6.66554 7.37297 6.10369C7.37297 5.54184 7.15719 5.00301 6.77311 4.60572C6.38903 4.20843 5.8681 3.98524 5.32492 3.98524Z" fill="#6388A5"/>
</svg>
