<svg width="19" height="19" viewBox="0 0 19 19" fill="none" xmlns="http://www.w3.org/2000/svg">
<path d="M17 7.54545C17 12.6364 10 17 10 17C10 17 3 12.6364 3 7.54545C3 5.80949 3.7375 4.14463 5.05025 2.91712C6.36301 1.68961 8.14348 1 10 1C11.8565 1 13.637 1.68961 14.9497 2.91712C16.2625 4.14463 17 5.80949 17 7.54545Z" stroke="white" stroke-width="2" stroke-linecap="round" stroke-linejoin="round"/>
<path d="M10 10C11.1046 10 12 9.10457 12 8C12 6.89543 11.1046 6 10 6C8.89543 6 8 6.89543 8 8C8 9.10457 8.89543 10 10 10Z" stroke="white" stroke-width="2" stroke-linecap="round" stroke-linejoin="round"/>
</svg>
