<svg width="18" height="18" viewBox="0 0 18 18" fill="none" xmlns="http://www.w3.org/2000/svg">
<path d="M16.8042 18.0009V13.7653L13.5046 12.6289L10.2051 13.7653V18.0009H11.7814V14.671H15.2279V18.0009H16.8042Z" fill="#C06A87"/>
<path d="M12.8359 15.7246H14.173V17.9998H12.8359V15.7246Z" fill="#C06A87"/>
<path d="M2.50323 0L0 2.50323H2.50323V0Z" fill="#9BB997"/>
<path d="M9.00928 11.7063V13.0602L13.5047 11.5119L18.0002 13.0602V11.7063L13.5047 10.1445L9.00928 11.7063Z" fill="#C06A87"/>
<path d="M9.15033 14.1277L7.95442 14.5396V10.9569L12.9772 9.21189V0H3.55792V3.55792H0V18H9.15033V14.1277ZM4.65493 1.31727H11.9649V2.37196H4.65493V1.31727ZM6.62804 16.4297H1.26482V15.375H6.62808L6.62804 16.4297ZM6.62804 13.8048H1.26482V12.7501H6.62808L6.62804 13.8048ZM6.62804 11.1798H1.26482V10.1251H6.62808L6.62804 11.1798ZM6.62804 8.55485H1.26482V7.50016H6.62808L6.62804 8.55485ZM6.62804 5.92987H1.26482V4.87519H6.62808L6.62804 5.92987Z" fill="#9BB997"/>
</svg>
