<svg width="20" height="20" viewBox="0 0 20 20" fill="none" xmlns="http://www.w3.org/2000/svg">
<g clip-path="url(#clip0_1468_1697)">
<path d="M0.5 0.580078V19.421H2.75254V13.2474H6.08947V19.421H12.4514V0.580078H0.5ZM5.3149 9.84561H2.83836V7.95733H5.3149V9.84561ZM5.3149 4.51992H2.83836V2.62954H5.3149V4.51992ZM10.113 15.1357H7.6386V13.2474H10.113V15.1357ZM10.113 9.84561H7.6386V7.95733H10.113V9.84561ZM10.113 4.51992H7.6386V2.62954H10.113V4.51992Z" fill="#3E6B8E"/>
<path d="M13.0796 5.91406V19.4209H19.5001V5.91406H13.0796ZM17.526 15.1712H15.0516V13.2829H17.526V15.1712ZM17.526 9.84554H15.0516V7.95726H17.526V9.84554Z" fill="#C06A87"/>
</g>
<defs>
<clipPath id="clip0_1468_1697">
<rect width="20" height="20" fill="white"/>
</clipPath>
</defs>
</svg>
