<svg width="20" height="20" viewBox="0 0 20 20" fill="none" xmlns="http://www.w3.org/2000/svg">
<path d="M9.41162 10.5879H10.5881V11.7644H9.41162V10.5879Z" fill="#6B5E7A"/>
<path d="M9.41162 5.88281H10.5881V7.05928H9.41162V5.88281Z" fill="#6B5E7A"/>
<path d="M1.17627 5.88281H3.52921V7.05928H1.17627V5.88281Z" fill="#6B5E7A"/>
<path d="M12.9409 3.5293H7.05859V14.1175H12.9409V3.5293ZM11.7645 12.9411H8.23506V9.41165H11.7645V12.9411ZM11.7645 8.23518H8.23506V4.70577H11.7645V8.23518Z" fill="#6B5E7A"/>
<path d="M16.4707 5.88281H18.8236V7.05928H16.4707V5.88281Z" fill="#6B5E7A"/>
<path d="M18.8235 17.6469H15.2941V14.1175H18.8235V12.9411H15.2941V9.41165H18.8235V8.23518H15.2941V4.70577H18.8235V3.5293H14.1176V18.8234H12.9412V15.294H10.5882V16.4705H11.7647V17.6469H10.5882V18.8234H9.41177V17.6469H8.23529V16.4705H9.41177V15.294H7.05882V18.8234H5.88235V3.5293H1.17647V4.70577H4.70588V8.23518H1.17647V9.41165H4.70588V12.9411H1.17647V14.1175H4.70588V17.6469H1.17647V18.8234H0V19.9999H20V18.8234H18.8235V17.6469Z" fill="#6B5E7A"/>
<path d="M16.4707 10.5879H18.8236V11.7644H16.4707V10.5879Z" fill="#6B5E7A"/>
<path d="M16.4707 15.2949H18.8236V16.4714H16.4707V15.2949Z" fill="#6B5E7A"/>
<path d="M1.17627 15.2949H3.52921V16.4714H1.17627V15.2949Z" fill="#6B5E7A"/>
<path d="M1.17627 10.5879H3.52921V11.7644H1.17627V10.5879Z" fill="#6B5E7A"/>
<path d="M18.3365 0H1.66353C1.42067 0.684667 0.766863 1.17647 0 1.17647V2.35294H20V1.17647C19.2331 1.17647 18.5793 0.684667 18.3365 0Z" fill="#FFB6A3"/>
</svg>
