<svg width="20" height="20" viewBox="0 0 20 20" fill="none" xmlns="http://www.w3.org/2000/svg">
<path d="M9.99984 17.4993V14.7707C9.80409 14.6614 9.63369 14.5119 9.49984 14.332C9.36825 14.157 9.27248 13.9578 9.21801 13.7457C9.16353 13.5337 9.15143 13.3129 9.1824 13.0962C9.21336 12.8794 9.28678 12.6709 9.39845 12.4826C9.51012 12.2943 9.65785 12.1298 9.83317 11.9987L13.1665 9.49952C13.4265 9.29917 13.7416 9.18339 14.0695 9.16782C14.3973 9.15225 14.7221 9.23763 14.9998 9.41243V2.49935C14.9998 2.27834 14.912 2.06637 14.7558 1.91009C14.5995 1.75381 14.3875 1.66602 14.1665 1.66602H2.49984C2.27882 1.66602 2.06686 1.75381 1.91058 1.91009C1.7543 2.06637 1.6665 2.27834 1.6665 2.49935V17.4993C1.66644 17.6088 1.68795 17.7172 1.7298 17.8183C1.77166 17.9195 1.83304 18.0114 1.91044 18.0888C1.98783 18.1661 2.07972 18.2275 2.18086 18.2694C2.28199 18.3112 2.39038 18.3327 2.49984 18.3327H10.2318C10.0816 18.0805 10.0015 17.7928 9.99984 17.4993ZM4.99984 4.99935H11.6665C11.8875 4.99935 12.0995 5.08715 12.2558 5.24343C12.412 5.39971 12.4998 5.61167 12.4998 5.83268C12.4998 6.0537 12.412 6.26566 12.2558 6.42194C12.0995 6.57822 11.8875 6.66602 11.6665 6.66602H4.99984C4.77882 6.66602 4.56686 6.57822 4.41058 6.42194C4.2543 6.26566 4.1665 6.0537 4.1665 5.83268C4.1665 5.61167 4.2543 5.39971 4.41058 5.24343C4.56686 5.08715 4.77882 4.99935 4.99984 4.99935ZM4.99984 8.33268H9.99984C10.2209 8.33268 10.4328 8.42048 10.5891 8.57676C10.7454 8.73304 10.8332 8.945 10.8332 9.16602C10.8332 9.38703 10.7454 9.59899 10.5891 9.75527C10.4328 9.91155 10.2209 9.99935 9.99984 9.99935H4.99984C4.77882 9.99935 4.56686 9.91155 4.41058 9.75527C4.2543 9.59899 4.1665 9.38703 4.1665 9.16602C4.1665 8.945 4.2543 8.73304 4.41058 8.57676C4.56686 8.42048 4.77882 8.33268 4.99984 8.33268ZM8.089 13.0885L6.42234 14.7552C6.26606 14.9114 6.05412 14.9992 5.83313 14.9992C5.61214 14.9992 5.4002 14.9114 5.24392 14.7552L4.41059 13.9219C4.25824 13.7648 4.17378 13.5541 4.17545 13.3353C4.17712 13.1165 4.26479 12.9071 4.41952 12.7524C4.57426 12.5976 4.78364 12.51 5.00245 12.5083C5.22126 12.5067 5.43195 12.5912 5.589 12.7435L5.83317 12.9876L6.91067 11.9101C7.06774 11.7577 7.27843 11.6733 7.49724 11.675C7.71605 11.6766 7.92543 11.7643 8.08015 11.919C8.23487 12.0738 8.32253 12.2831 8.32418 12.502C8.32584 12.7208 8.24137 12.9315 8.089 13.0885Z" fill="#9BB997"/>
<path d="M17.9998 12.6666L14.6665 10.1666C14.5224 10.0585 14.347 10 14.1668 10C13.9866 10 13.8113 10.0585 13.6672 10.1666L10.3338 12.6666C10.2461 12.7321 10.1721 12.8143 10.1162 12.9084C10.0603 13.0026 10.0235 13.1068 10.0079 13.2152C9.99239 13.3236 9.9984 13.434 10.0256 13.5401C10.0528 13.6461 10.1007 13.7458 10.1665 13.8333C10.2447 13.9352 10.3458 14.0172 10.4617 14.0726C10.5775 14.1281 10.7048 14.1554 10.8332 14.1525V17.5C10.8331 17.6094 10.8546 17.7178 10.8965 17.8189C10.9383 17.9201 10.9997 18.012 11.0771 18.0894C11.1545 18.1668 11.2464 18.2281 11.3475 18.27C11.4487 18.3118 11.5571 18.3334 11.6665 18.3333H16.6665C16.776 18.3334 16.8844 18.3118 16.9855 18.27C17.0866 18.2281 17.1785 18.1668 17.2559 18.0894C17.3333 18.012 17.3947 17.9201 17.4365 17.8189C17.4784 17.7178 17.4999 17.6094 17.4998 17.5V14.1666C17.6747 14.1666 17.8452 14.1116 17.9871 14.0093C18.129 13.9071 18.2351 13.7627 18.2904 13.5968C18.3457 13.4309 18.3474 13.2518 18.2953 13.0848C18.2431 12.9179 18.1398 12.7716 17.9998 12.6666ZM15.8332 16.6666H12.4998V13.3333C12.4947 13.2717 12.4825 13.2109 12.4633 13.1521L14.1665 11.875L15.8697 13.1521C15.8505 13.2109 15.8383 13.2717 15.8332 13.3333V16.6666Z" fill="#6B5E7A"/>
</svg>
