<svg width="23" height="24" viewBox="0 0 23 24" fill="none" xmlns="http://www.w3.org/2000/svg">
<path d="M4.08948 14.1105C4.68739 13.8845 4.99582 14.0137 7.39874 13.9766C7.94108 13.9766 8.43549 14.1853 8.80627 14.5263C9.1771 14.1853 9.67147 13.9766 10.2138 13.9766H12.7894C13.3317 13.9766 13.8261 14.1853 14.1969 14.5263C14.5677 14.1852 15.0621 13.9766 15.6044 13.9766C18.0114 14.0138 18.3175 13.8851 18.9137 14.1105V9.70898H4.08948V14.1105Z" fill="#315D80"/>
<path d="M20.2598 12.6289V16.7617H18.9121V16.0579C18.9121 15.6534 18.583 15.3242 18.1784 15.3242H15.6028C15.1983 15.3242 14.8691 15.6534 14.8691 16.0579V16.7617H13.5215V16.0579C13.5215 15.6534 13.1923 15.3242 12.7878 15.3242H10.2122C9.80766 15.3242 9.47852 15.6534 9.47852 16.0579V16.7617H8.13086V16.0579C8.13086 15.6534 7.80172 15.3242 7.39715 15.3242H4.8216C4.41703 15.3242 4.08789 15.6534 4.08789 16.0579V16.7617H2.74023V12.6289H0V20.8047H1.39258V23.5H3.41406L4.08789 20.8047H18.9093L19.5832 23.5H21.6046V20.8047H23C23 18.7703 23 14.2806 23 12.6289H20.2598Z" fill="#315D80"/>
<path d="M20.2598 6.22754C20.2598 4.78721 19.25 3.57908 17.9014 3.27172V0.5H16.5537V3.27172C15.2051 3.57908 14.1953 4.78721 14.1953 6.22754V7.23828H20.2598V6.22754Z" fill="#315D80"/>
<path d="M7.70178 0.5H11.318V3.19617H7.70178V0.5Z" fill="#315D80"/>
<path d="M2.73865 0.5H6.35486V3.19617H2.73865V0.5Z" fill="#315D80"/>
<path d="M2.73877 4.54492H6.35498V7.23938H2.73877V4.54492Z" fill="#315D80"/>
<path d="M7.70166 4.54492H11.3179V7.23938H7.70166V4.54492Z" fill="#315D80"/>
</svg>
