<svg width="14" height="14" viewBox="0 0 14 14" fill="none" xmlns="http://www.w3.org/2000/svg">
<path d="M0.4 7C0.4 3.35492 3.35492 0.4 7 0.4C10.6451 0.4 13.6 3.35492 13.6 7C13.6 10.6451 10.6451 13.6 7 13.6C3.35492 13.6 0.4 10.6451 0.4 7Z" stroke="#FCE696" stroke-width="0.8"/>
<path d="M6.58203 9.38965H8.03711V10.8008H6.58203V9.38965ZM4.7998 5.87402C4.83887 4.94629 5.16276 4.28874 5.77148 3.90137C6.1556 3.65397 6.6276 3.53027 7.1875 3.53027C7.92318 3.53027 8.53353 3.70605 9.01855 4.05762C9.50684 4.40918 9.75098 4.93001 9.75098 5.62012C9.75098 6.04329 9.64518 6.39974 9.43359 6.68945C9.3099 6.86523 9.07227 7.08984 8.7207 7.36328L8.37402 7.63184C8.18522 7.77832 8.0599 7.94922 7.99805 8.14453C7.95898 8.26823 7.93783 8.46029 7.93457 8.7207H6.61621C6.63574 8.17057 6.68783 7.79134 6.77246 7.58301C6.8571 7.37142 7.0752 7.12891 7.42676 6.85547L7.7832 6.57715C7.90039 6.48926 7.99479 6.39323 8.06641 6.28906C8.19661 6.11003 8.26172 5.91309 8.26172 5.69824C8.26172 5.45085 8.18848 5.22624 8.04199 5.02441C7.89876 4.81934 7.63509 4.7168 7.25098 4.7168C6.87337 4.7168 6.60482 4.84212 6.44531 5.09277C6.28906 5.34342 6.21094 5.60384 6.21094 5.87402H4.7998Z" fill="#FCE696"/>
</svg>
