<svg width="20" height="20" viewBox="0 0 20 20" fill="none" xmlns="http://www.w3.org/2000/svg">
<path d="M19.9998 2.83703V5.08963H0.00098415V2.83703C-5.75106e-05 2.51238 0.106183 2.19649 0.303189 1.93845C0.500195 1.68042 0.77693 1.49469 1.09038 1.41015C1.21164 1.37758 1.33667 1.36116 1.46223 1.36133H4.10817V2.80187C4.10521 2.97151 4.13606 3.14004 4.19892 3.29763C4.26179 3.45522 4.35541 3.59871 4.47433 3.71972C4.59325 3.84074 4.73508 3.93686 4.89154 4.00247C5.04801 4.06808 5.21597 4.10187 5.38564 4.10187C5.5553 4.10187 5.72327 4.06808 5.87973 4.00247C6.0362 3.93686 6.17803 3.84074 6.29695 3.71972C6.41586 3.59871 6.50949 3.45522 6.57235 3.29763C6.63522 3.14004 6.66607 2.97151 6.66311 2.80187V1.36133H13.3377V2.80187C13.3377 3.14073 13.4723 3.46571 13.7119 3.70532C13.9516 3.94492 14.2765 4.07953 14.6154 4.07953C14.9542 4.07953 15.2792 3.94492 15.5188 3.70532C15.7584 3.46571 15.893 3.14073 15.893 2.80187V1.36133H18.5386C18.928 1.36329 19.3008 1.51986 19.5748 1.7966C19.8488 2.07333 20.0017 2.44758 19.9998 2.83703Z" fill="#315D80"/>
<path d="M0.000984444 5.98633V18.5333C-7.7232e-05 18.858 0.106148 19.1739 0.303151 19.432C0.500154 19.6901 0.776899 19.8759 1.09038 19.9605C1.21165 19.993 1.33669 20.0093 1.46223 20.009H18.5386C18.928 20.007 19.3008 19.8504 19.5748 19.5737C19.8488 19.297 20.0017 18.9227 19.9998 18.5333V5.98633H0.000984444ZM8.86181 10.1502C8.83624 10.1247 8.81595 10.0945 8.8021 10.0612C8.78825 10.028 8.78113 9.99227 8.78113 9.95622C8.78113 9.92017 8.78825 9.88448 8.8021 9.8512C8.81595 9.81791 8.83624 9.7877 8.86181 9.76229L9.20085 9.42324C9.22626 9.39767 9.25648 9.37738 9.28976 9.36354C9.32304 9.34969 9.35874 9.34256 9.39478 9.34256C9.43083 9.34256 9.46653 9.34969 9.49981 9.36354C9.53309 9.37738 9.56331 9.39767 9.58872 9.42324L10.0004 9.83533L10.4121 9.42363C10.4375 9.39806 10.4677 9.37777 10.501 9.36393C10.5343 9.35008 10.57 9.34295 10.606 9.34295C10.6421 9.34295 10.6778 9.35008 10.7111 9.36393C10.7444 9.37777 10.7746 9.39806 10.8 9.42363L11.1394 9.76307C11.165 9.78848 11.1853 9.81869 11.1991 9.85198C11.213 9.88526 11.2201 9.92095 11.2201 9.957C11.2201 9.99305 11.213 10.0287 11.1991 10.062C11.1853 10.0953 11.165 10.1255 11.1394 10.1509L10.7273 10.5626L11.1394 10.9743C11.165 10.9997 11.1853 11.03 11.1991 11.0632C11.213 11.0965 11.2201 11.1322 11.2201 11.1683C11.2201 11.2043 11.213 11.24 11.1991 11.2733C11.1853 11.3066 11.165 11.3368 11.1394 11.3622L10.8004 11.7012C10.775 11.7268 10.7447 11.7471 10.7115 11.7609C10.6782 11.7748 10.6425 11.7819 10.6064 11.7819C10.5704 11.7819 10.5347 11.7748 10.5014 11.7609C10.4681 11.7471 10.4379 11.7268 10.4125 11.7012L10.0004 11.2892L9.58872 11.7012C9.56331 11.7268 9.53309 11.7471 9.49981 11.7609C9.46653 11.7748 9.43083 11.7819 9.39478 11.7819C9.35874 11.7819 9.32304 11.7748 9.28976 11.7609C9.25648 11.7471 9.22626 11.7268 9.20085 11.7012L8.86142 11.3618C8.83585 11.3364 8.81556 11.3062 8.80171 11.2729C8.78786 11.2396 8.78074 11.2039 8.78074 11.1679C8.78074 11.1318 8.78786 11.0961 8.80171 11.0628C8.81556 11.0296 8.83585 10.9993 8.86142 10.9739L9.2735 10.5622L8.86181 10.1502ZM4.30504 10.1502C4.27947 10.1247 4.25918 10.0945 4.24533 10.0612C4.23148 10.028 4.22436 9.99227 4.22436 9.95622C4.22436 9.92017 4.23148 9.88448 4.24533 9.8512C4.25918 9.81791 4.27947 9.7877 4.30504 9.76229L4.64408 9.42324C4.66949 9.39767 4.69971 9.37738 4.73299 9.36354C4.76627 9.34969 4.80197 9.34256 4.83801 9.34256C4.87406 9.34256 4.90975 9.34969 4.94304 9.36354C4.97632 9.37738 5.00654 9.39767 5.03195 9.42324L5.44364 9.83533L5.85534 9.42363C5.88075 9.39806 5.91097 9.37777 5.94425 9.36393C5.97753 9.35008 6.01322 9.34295 6.04927 9.34295C6.08532 9.34295 6.12101 9.35008 6.1543 9.36393C6.18758 9.37777 6.2178 9.39806 6.24321 9.42363L6.58264 9.76307C6.60821 9.78848 6.6285 9.81869 6.64235 9.85198C6.65619 9.88526 6.66332 9.92095 6.66332 9.957C6.66332 9.99305 6.65619 10.0287 6.64235 10.062C6.6285 10.0953 6.60821 10.1255 6.58264 10.1509L6.17251 10.5622L6.58459 10.9739C6.61016 10.9993 6.63045 11.0296 6.6443 11.0628C6.65815 11.0961 6.66528 11.1318 6.66528 11.1679C6.66528 11.2039 6.65815 11.2396 6.6443 11.2729C6.63045 11.3062 6.61016 11.3364 6.58459 11.3618L6.24555 11.7008C6.22014 11.7264 6.18992 11.7467 6.15664 11.7606C6.12336 11.7744 6.08766 11.7815 6.05162 11.7815C6.01557 11.7815 5.97988 11.7744 5.94659 11.7606C5.91331 11.7467 5.88309 11.7264 5.85768 11.7008L5.4456 11.2892L5.03195 11.7012C5.00654 11.7268 4.97632 11.7471 4.94304 11.7609C4.90975 11.7748 4.87406 11.7819 4.83801 11.7819C4.80197 11.7819 4.76627 11.7748 4.73299 11.7609C4.69971 11.7471 4.66949 11.7268 4.64408 11.7012L4.30465 11.3618C4.27908 11.3364 4.25879 11.3062 4.24494 11.2729C4.23109 11.2396 4.22396 11.2039 4.22396 11.1679C4.22396 11.1318 4.23109 11.0961 4.24494 11.0628C4.25879 11.0296 4.27908 10.9993 4.30465 10.9739L4.71673 10.5622L4.30504 10.1502ZM7.1955 15.7686C7.1955 15.8747 7.1746 15.9797 7.13401 16.0777C7.09341 16.1757 7.03392 16.2648 6.95891 16.3398C6.8839 16.4148 6.79485 16.4743 6.69685 16.5149C6.59885 16.5555 6.49381 16.5764 6.38773 16.5764H4.50112C4.28689 16.5764 4.08143 16.4912 3.92994 16.3398C3.77846 16.1883 3.69335 15.9828 3.69335 15.7686V14.3925C3.69335 14.2864 3.71425 14.1814 3.75484 14.0834C3.79543 13.9854 3.85493 13.8963 3.92994 13.8213C4.00495 13.7463 4.094 13.6868 4.192 13.6462C4.29 13.6056 4.39504 13.5847 4.50112 13.5847H6.38617C6.49225 13.5847 6.59728 13.6056 6.69529 13.6462C6.79329 13.6868 6.88234 13.7463 6.95735 13.8213C7.03235 13.8963 7.09185 13.9854 7.13245 14.0834C7.17304 14.1814 7.19393 14.2864 7.19393 14.3925L7.1955 15.7686ZM11.7523 15.7686C11.7523 15.8747 11.7314 15.9797 11.6908 16.0777C11.6502 16.1757 11.5907 16.2648 11.5157 16.3398C11.4407 16.4148 11.3516 16.4743 11.2536 16.5149C11.1556 16.5555 11.0506 16.5764 10.9445 16.5764H9.05789C8.84366 16.5764 8.6382 16.4912 8.48671 16.3398C8.33523 16.1883 8.25012 15.9828 8.25012 15.7686V14.3925C8.25012 14.1783 8.33523 13.9728 8.48671 13.8213C8.6382 13.6698 8.84366 13.5847 9.05789 13.5847H10.9429C11.1572 13.5847 11.3626 13.6698 11.5141 13.8213C11.6656 13.9728 11.7507 14.1783 11.7507 14.3925L11.7523 15.7686ZM16.309 15.7686C16.309 15.8747 16.2881 15.9797 16.2476 16.0777C16.207 16.1757 16.1475 16.2648 16.0725 16.3398C15.9974 16.4148 15.9084 16.4743 15.8104 16.5149C15.7124 16.5555 15.6074 16.5764 15.5013 16.5764H13.6147C13.4004 16.5764 13.195 16.4912 13.0435 16.3398C12.892 16.1883 12.8069 15.9828 12.8069 15.7686V14.3925C12.8069 14.1783 12.892 13.9728 13.0435 13.8213C13.195 13.6698 13.4004 13.5847 13.6147 13.5847H15.4997C15.6058 13.5847 15.7108 13.6056 15.8088 13.6462C15.9068 13.6868 15.9959 13.7463 16.0709 13.8213C16.1459 13.8963 16.2054 13.9854 16.246 14.0834C16.2866 14.1814 16.3075 14.2864 16.3075 14.3925L16.309 15.7686ZM16.309 11.2505C16.309 11.3566 16.2881 11.4616 16.2476 11.5596C16.207 11.6576 16.1475 11.7467 16.0725 11.8217C15.9974 11.8967 15.9084 11.9562 15.8104 11.9968C15.7124 12.0374 15.6074 12.0582 15.5013 12.0582H13.6147C13.4004 12.0582 13.195 11.9731 13.0435 11.8217C12.892 11.6702 12.8069 11.4647 12.8069 11.2505V9.874C12.8069 9.65976 12.892 9.45431 13.0435 9.30282C13.195 9.15133 13.4004 9.06623 13.6147 9.06623H15.4997C15.6058 9.06623 15.7108 9.08712 15.8088 9.12772C15.9068 9.16831 15.9959 9.22781 16.0709 9.30282C16.1459 9.37783 16.2054 9.46688 16.246 9.56488C16.2866 9.66288 16.3075 9.76792 16.3075 9.874L16.309 11.2505Z" fill="#315D80"/>
<path d="M14.6136 3.57753C14.4085 3.5765 14.2121 3.49404 14.0678 3.34827C13.9234 3.20251 13.8428 3.00539 13.8438 2.80023V0.787456C13.8438 0.583272 13.9249 0.38745 14.0692 0.24307C14.2136 0.09869 14.4095 0.0175781 14.6136 0.0175781C14.8178 0.0175781 15.0136 0.09869 15.158 0.24307C15.3024 0.38745 15.3835 0.583272 15.3835 0.787456V2.80023C15.3844 3.00539 15.3039 3.20251 15.1595 3.34827C15.0151 3.49404 14.8188 3.5765 14.6136 3.57753Z" fill="#315D80"/>
<path d="M5.38824 3.57729C5.28664 3.57683 5.18613 3.55636 5.09245 3.51704C4.99877 3.47772 4.91375 3.42033 4.84225 3.34815C4.77076 3.27597 4.71419 3.1904 4.67577 3.09635C4.63735 3.00229 4.61785 2.90159 4.61836 2.79999V0.787218C4.61605 0.684683 4.63425 0.58272 4.67189 0.487316C4.70953 0.391912 4.76586 0.304991 4.83756 0.231658C4.90926 0.158324 4.99489 0.100055 5.08942 0.0602738C5.18395 0.0204924 5.28548 0 5.38804 0C5.4906 0 5.59213 0.0204924 5.68666 0.0602738C5.78119 0.100055 5.86682 0.158324 5.93852 0.231658C6.01022 0.304991 6.06655 0.391912 6.10419 0.487316C6.14183 0.58272 6.16003 0.684683 6.15772 0.787218V2.79999C6.15824 2.90156 6.13874 3.00223 6.10035 3.09626C6.06196 3.19029 6.00542 3.27583 5.93397 3.34801C5.86251 3.42019 5.77754 3.47759 5.68391 3.51693C5.59027 3.55627 5.4898 3.57678 5.38824 3.57729Z" fill="#315D80"/>
</svg>
