<svg width="19" height="18" viewBox="0 0 19 18" fill="none" xmlns="http://www.w3.org/2000/svg">
<path fill-rule="evenodd" clip-rule="evenodd" d="M5.96212 17.4637C6.42118 17.6824 6.92328 17.796 7.43182 17.796H14.7366C16.4194 17.796 17.8515 16.5703 18.1115 14.9077L18.9666 9.43774C19.2257 7.78033 17.9443 6.2829 16.2667 6.2829H11.7799V3.06151C11.7799 1.83505 10.7856 0.84082 9.55919 0.84082C8.75535 0.84082 8.01426 1.27521 7.62155 1.9766L4.78313 7.04593C4.61183 7.35186 4.52188 7.69663 4.52188 8.04724V15.4837C4.52188 16.2738 4.97623 16.9938 5.68963 17.3337L5.96212 17.4637ZM1.3614 7.29631C1.00033 7.29631 0.654055 7.43974 0.398744 7.69506C0.143433 7.95036 0 8.29664 0 8.65771L6.82078e-07 15.6434C6.82078e-07 16.0045 0.143433 16.3508 0.398744 16.6061C0.654053 16.8614 1.00033 17.0048 1.3614 17.0048L2.0399 17.0046C2.4171 17.0044 2.72278 16.6985 2.72278 16.3214V7.97921C2.72278 7.79796 2.65076 7.62414 2.52258 7.49602C2.39439 7.36788 2.22054 7.29594 2.03931 7.29602L1.3614 7.29631Z" fill="white"/>
</svg>
