<svg width="20" height="20" viewBox="0 0 20 20" fill="none" xmlns="http://www.w3.org/2000/svg">
<g clip-path="url(#clip0_1468_1624)">
<path d="M19.8897 4.20317L17.2812 0.29043C17.1602 0.109141 16.9566 0 16.7386 0H3.26141C3.04341 0 2.83985 0.109141 2.71883 0.29043L0.110353 4.20317C-0.178358 4.63626 0.133283 5.217 0.652932 5.217C0.976566 5.217 19.0209 5.217 19.3471 5.217C19.8678 5.217 20.1779 4.63544 19.8897 4.20317Z" fill="#FFB6A3"/>
<path d="M1.30957 6.52148C1.30957 6.60848 1.30957 19.2596 1.30957 19.3466C1.30957 19.7066 1.59711 19.9987 1.95735 19.9987C2.51731 19.9987 17.3088 19.9987 18.0431 19.9987C18.4033 19.9987 18.6952 19.7066 18.6952 19.3466C18.6952 19.2597 18.6952 6.60848 18.6952 6.52148H1.30957ZM5.22231 15.6512H2.60949C2.60949 15.3742 2.60949 13.3113 2.60949 13.0427C4.15227 13.0427 4.98509 13.0427 5.22235 13.0427V15.6512H5.22231ZM7.39173 11.7385H4.78325C4.42301 11.7385 4.13114 11.4464 4.13114 11.0864V8.47789C4.13114 8.11789 4.42301 7.82578 4.78325 7.82578H7.39173C7.75197 7.82578 8.04822 8.11789 8.04822 8.47789V11.0864C8.04822 11.4464 7.75197 11.7385 7.39173 11.7385ZM11.961 18.6945H8.04384V16.3033H8.69595C9.05619 16.3033 9.34806 16.0112 9.34806 15.6512C9.34806 15.2912 9.05619 14.9991 8.69595 14.9991H8.04384V13.0427H11.9609V18.6945H11.961ZM12.1783 11.7385H10.0002C9.63998 11.7385 9.3481 11.4464 9.3481 11.0864V8.47789C9.3481 8.11789 9.63998 7.82578 10.0002 7.82578H12.1783V11.7385ZM13.4782 7.82575H15.2172C15.5774 7.82575 15.8737 8.11786 15.8737 8.47786V11.0863C15.8737 11.4463 15.5774 11.7384 15.2172 11.7384H13.4782V7.82575ZM17.3953 15.6512H14.7824V13.0427C15.0968 13.0427 17.0823 13.0427 17.3953 13.0427C17.3953 13.3197 17.3953 15.3826 17.3953 15.6512Z" fill="#4D7EA5"/>
</g>
<defs>
<clipPath id="clip0_1468_1624">
<rect width="20" height="20" fill="white"/>
</clipPath>
</defs>
</svg>
