<svg width="24" height="24" viewBox="0 0 24 24" fill="none" xmlns="http://www.w3.org/2000/svg">
<path d="M9.6924 0.143555C6.90747 0.143555 4.67271 2.05617 4.67271 5.71156C4.67271 8.09863 5.62348 10.53 7.06717 12.0282C7.63024 13.5263 6.61486 14.0839 6.4044 14.1632C3.49025 15.2322 0.0859375 17.1706 0.0859375 19.0962V19.8162C0.0859375 22.4405 5.08348 23.0469 9.72009 23.0469C10.7307 23.0448 11.7409 23.0067 12.7487 22.9325C11.4867 21.6005 10.7848 19.8345 10.7881 17.9996C10.7881 16.3463 11.3512 14.8316 12.2872 13.6149C12.1487 13.29 12.0933 12.7777 12.3453 11.9996C13.7807 10.4996 14.7112 8.0894 14.7112 5.71063C14.7112 2.05617 12.4736 0.144478 9.69147 0.144478L9.6924 0.143555ZM18.0001 12.1722C16.4547 12.1722 14.9726 12.7861 13.8798 13.8788C12.7871 14.9716 12.1732 16.4537 12.1732 17.9991C12.1732 19.5445 12.7871 21.0266 13.8798 22.1194C14.9726 23.2121 16.4547 23.826 18.0001 23.826C19.5455 23.826 21.0276 23.2121 22.1203 22.1194C23.2131 21.0266 23.827 19.5445 23.827 17.9991C23.827 16.4537 23.2131 14.9716 22.1203 13.8788C21.0276 12.7861 19.5455 12.1722 18.0001 12.1722ZM17.1924 14.7688H18.8078V17.1632H21.2022V18.8359H18.8078V21.2303H17.1924V18.8359H14.7693V17.1632H17.1924V14.7688Z" fill="#A7BBCE"/>
</svg>
