<svg width="25" height="21" viewBox="0 0 25 21" fill="none" xmlns="http://www.w3.org/2000/svg">
<path d="M24.7144 5.76953C24.5344 5.44953 24.2744 5.17953 23.9644 4.97953C23.6444 4.78953 23.2844 4.67953 22.9244 4.65953C22.5444 4.63953 22.1844 4.71953 21.8544 4.88953L17.9844 6.81953V6.09953C17.9844 5.90953 17.9644 5.70953 17.9344 5.52953L15.9844 7.40953V15.4395C15.9844 15.7895 15.8444 16.1295 15.5944 16.3795C15.3444 16.6295 15.0044 16.7695 14.6544 16.7695H6.27437L4.35437 18.6295C4.66437 18.7195 4.99437 18.7695 5.32437 18.7695H14.6544C15.5444 18.7695 16.3844 18.4195 17.0144 17.7895C17.6444 17.1595 17.9844 16.3295 17.9844 15.4395V14.7195L21.8544 16.6495C22.1844 16.8195 22.5544 16.8895 22.9144 16.8795C23.2844 16.8595 23.6444 16.7495 23.9644 16.5595C24.2744 16.3595 24.5344 16.0895 24.7144 15.7695C24.8944 15.4495 24.9844 15.0795 24.9844 14.7195V6.81953C24.9844 6.45953 24.8944 6.08953 24.7144 5.76953ZM22.9844 14.7195L22.9044 14.8595H22.7444L17.9844 12.4895V9.05953L22.7444 6.67953H22.9044L22.9844 6.81953V14.7195ZM5.32437 4.76953H12.9644L15.0144 2.78953C14.8944 2.77953 14.7744 2.76953 14.6544 2.76953H5.32437C4.43437 2.76953 3.59437 3.11953 2.96437 3.74953C2.33437 4.37953 1.98438 5.20953 1.98438 6.09953V15.3495L3.98437 13.4195V6.09953C3.98437 5.74953 4.12437 5.40953 4.37437 5.15953C4.62437 4.90953 4.96437 4.76953 5.32437 4.76953Z" fill="white"/>
<path d="M18.6187 0.695185L0.719703 17.962C0.322222 18.3454 0.31084 18.9785 0.694282 19.376C1.07772 19.7734 1.71079 19.7848 2.10827 19.4014L20.0073 2.13459C20.4048 1.75115 20.4162 1.11809 20.0327 0.720607C19.6493 0.323125 19.0162 0.311744 18.6187 0.695185Z" fill="white"/>
</svg>
