<svg width="20" height="20" viewBox="0 0 20 20" fill="none" xmlns="http://www.w3.org/2000/svg">
<path d="M3.12582 11.1001H8.07582C8.27518 11.1001 8.46779 11.1723 8.61804 11.3033C8.76829 11.4343 8.866 11.6153 8.89312 11.8129L8.90082 11.9251V16.8751C8.90075 17.0841 8.82135 17.2853 8.67865 17.438C8.53595 17.5908 8.34059 17.6836 8.13205 17.6979C7.92351 17.7121 7.71734 17.6467 7.55519 17.5148C7.39304 17.3829 7.28701 17.1943 7.25852 16.9873L7.25082 16.8751V13.9161L2.33382 18.8331C2.18642 18.9793 1.98929 19.0646 1.78177 19.0719C1.57425 19.0792 1.37161 19.008 1.21429 18.8725C1.05697 18.737 0.956535 18.5471 0.933037 18.3408C0.909538 18.1345 0.964701 17.9269 1.08752 17.7595L1.16782 17.6671L6.08262 12.7501H3.12582C2.92646 12.75 2.73384 12.6778 2.58359 12.5468C2.43335 12.4158 2.33563 12.2348 2.30852 12.0373L2.30082 11.9251C2.30083 11.7257 2.37302 11.5331 2.50406 11.3828C2.6351 11.2326 2.81611 11.1349 3.01362 11.1078L3.12582 11.1001ZM18.8338 1.16706C18.9735 1.30674 19.0585 1.49193 19.0732 1.68895C19.088 1.88597 19.0315 2.08174 18.9141 2.24066L18.8338 2.33306L13.3668 7.80006H16.8758C17.0752 7.80006 17.2678 7.87226 17.418 8.0033C17.5683 8.13434 17.666 8.31535 17.6931 8.51286L17.7008 8.62506C17.7008 8.82442 17.6286 9.01703 17.4976 9.16728C17.3665 9.31753 17.1855 9.41524 16.988 9.44236L16.8758 9.45006H11.3758C11.1765 9.45005 10.9838 9.37785 10.8336 9.24681C10.6833 9.11578 10.5856 8.93476 10.5585 8.73726L10.5508 8.62506V3.12506C10.5509 2.91603 10.6303 2.71482 10.773 2.56208C10.9157 2.40935 11.111 2.31647 11.3196 2.30223C11.5281 2.28798 11.7343 2.35342 11.8964 2.48533C12.0586 2.61724 12.1646 2.80578 12.1931 3.01286L12.2008 3.12506V6.63186L17.6678 1.16706C17.8225 1.01256 18.0322 0.925781 18.2508 0.925781C18.4694 0.925781 18.6791 1.01256 18.8338 1.16706Z" fill="#A7BBCE"/>
</svg>
