<svg width="14" height="14" viewBox="0 0 14 14" fill="none" xmlns="http://www.w3.org/2000/svg">
<path d="M7 0.5C5.71442 0.5 4.45772 0.881218 3.3888 1.59545C2.31988 2.30968 1.48676 3.32484 0.994786 4.51256C0.502816 5.70028 0.374095 7.00721 0.624899 8.26809C0.875703 9.52896 1.49477 10.6872 2.40381 11.5962C3.31285 12.5052 4.47104 13.1243 5.73192 13.3751C6.99279 13.6259 8.29973 13.4972 9.48744 13.0052C10.6752 12.5132 11.6903 11.6801 12.4046 10.6112C13.1188 9.54229 13.5 8.28558 13.5 7C13.4982 5.27665 12.8128 3.62441 11.5942 2.40582C10.3756 1.18722 8.72335 0.50182 7 0.5ZM7 12.5C5.91221 12.5 4.84884 12.1774 3.94437 11.5731C3.0399 10.9687 2.33495 10.1098 1.91867 9.10476C1.50238 8.09977 1.39347 6.9939 1.60568 5.927C1.8179 4.86011 2.34173 3.8801 3.11092 3.11091C3.8801 2.34172 4.86011 1.8179 5.92701 1.60568C6.9939 1.39346 8.09977 1.50238 9.10476 1.91866C10.1098 2.33494 10.9687 3.03989 11.5731 3.94436C12.1774 4.84883 12.5 5.9122 12.5 7C12.4983 8.45818 11.9184 9.85617 10.8873 10.8873C9.85617 11.9184 8.45819 12.4983 7 12.5ZM11.5 7C11.5 7.89002 11.2361 8.76005 10.7416 9.50007C10.2471 10.2401 9.54435 10.8169 8.72208 11.1575C7.89981 11.4981 6.99501 11.5872 6.1221 11.4135C5.24918 11.2399 4.44736 10.8113 3.81802 10.182C3.18869 9.55264 2.7601 8.75082 2.58647 7.87791C2.41284 7.00499 2.50195 6.10019 2.84255 5.27792C3.18314 4.45566 3.75992 3.75285 4.49994 3.25839C5.23996 2.76392 6.10999 2.5 7 2.5C8.19307 2.50132 9.33689 2.97585 10.1805 3.81948C11.0241 4.66311 11.4987 5.80693 11.5 7Z" fill="#EA4B61"/>
</svg>
