<svg width="14" height="19" viewBox="0 0 14 19" fill="none" xmlns="http://www.w3.org/2000/svg">
<path d="M6.93269 12.001C6.09936 12.001 5.39103 11.7093 4.80769 11.126C4.22436 10.5426 3.93269 9.83431 3.93269 9.00098V3.00098C3.93269 2.16764 4.22436 1.45931 4.80769 0.875977C5.39103 0.292643 6.09936 0.000976562 6.93269 0.000976562C7.76603 0.000976562 8.47436 0.292643 9.05769 0.875977C9.64103 1.45931 9.93269 2.16764 9.93269 3.00098V9.00098C9.93269 9.83431 9.64103 10.5426 9.05769 11.126C8.47436 11.7093 7.76603 12.001 6.93269 12.001ZM5.93269 18.001V15.926C4.39936 15.7093 3.08703 15.0593 1.99569 13.976C0.904359 12.8926 0.241692 11.576 0.00769228 10.026C-0.0256411 9.74264 0.0493593 9.50098 0.232693 9.30098C0.416026 9.10098 0.649359 9.00098 0.932692 9.00098C1.21603 9.00098 1.45369 9.09698 1.64569 9.28898C1.83769 9.48098 1.96669 9.71831 2.03269 10.001C2.26603 11.1676 2.84536 12.126 3.77069 12.876C4.69603 13.626 5.75003 14.001 6.93269 14.001C8.13269 14.001 9.19103 13.622 10.1077 12.864C11.0244 12.106 11.5994 11.1516 11.8327 10.001C11.8994 9.71764 12.0287 9.48031 12.2207 9.28898C12.4127 9.09764 12.65 9.00164 12.9327 9.00098C13.2154 9.00031 13.4487 9.10031 13.6327 9.30098C13.8167 9.50164 13.8917 9.74331 13.8577 10.026C13.6244 11.5426 12.966 12.851 11.8827 13.951C10.7994 15.051 9.48269 15.7093 7.93269 15.926V18.001C7.93269 18.2843 7.83669 18.522 7.64469 18.714C7.45269 18.906 7.21536 19.0016 6.93269 19.001C6.65003 19.0003 6.41269 18.9043 6.22069 18.713C6.02869 18.5216 5.93269 18.2843 5.93269 18.001ZM6.93269 10.001C7.21603 10.001 7.45369 9.90498 7.64569 9.71298C7.83769 9.52098 7.93336 9.28364 7.93269 9.00098V3.00098C7.93269 2.71764 7.83669 2.48031 7.64469 2.28898C7.45269 2.09764 7.21536 2.00164 6.93269 2.00098C6.65003 2.00031 6.41269 2.09631 6.22069 2.28898C6.02869 2.48164 5.93269 2.71898 5.93269 3.00098V9.00098C5.93269 9.28431 6.02869 9.52198 6.22069 9.71398C6.41269 9.90598 6.65003 10.0016 6.93269 10.001Z" fill="#20364D"/>
</svg>
