<svg width="86" height="36" viewBox="0 0 86 36" fill="none" xmlns="http://www.w3.org/2000/svg">
<rect width="86" height="36" rx="18" fill="#A7BBCE"/>
<path d="M42.2344 20.2969C42.2708 20.9479 42.4245 21.4766 42.6953 21.8828C43.2109 22.6432 44.1198 23.0234 45.4219 23.0234C46.0052 23.0234 46.5365 22.9401 47.0156 22.7734C47.9427 22.4505 48.4062 21.8724 48.4062 21.0391C48.4062 20.4141 48.2109 19.9688 47.8203 19.7031C47.4245 19.4427 46.8047 19.2161 45.9609 19.0234L44.4062 18.6719C43.3906 18.4427 42.6719 18.1901 42.25 17.9141C41.5208 17.4349 41.1562 16.7188 41.1562 15.7656C41.1562 14.7344 41.513 13.888 42.2266 13.2266C42.9401 12.5651 43.9505 12.2344 45.2578 12.2344C46.4609 12.2344 47.4818 12.526 48.3203 13.1094C49.1641 13.6875 49.5859 14.6146 49.5859 15.8906H48.125C48.0469 15.276 47.8802 14.8047 47.625 14.4766C47.151 13.8776 46.3464 13.5781 45.2109 13.5781C44.2943 13.5781 43.6354 13.7708 43.2344 14.1562C42.8333 14.5417 42.6328 14.9896 42.6328 15.5C42.6328 16.0625 42.8672 16.474 43.3359 16.7344C43.6432 16.901 44.3385 17.1094 45.4219 17.3594L47.0312 17.7266C47.8073 17.9036 48.4062 18.1458 48.8281 18.4531C49.5573 18.9896 49.9219 19.7682 49.9219 20.7891C49.9219 22.0599 49.4583 22.9688 48.5312 23.5156C47.6094 24.0625 46.5365 24.3359 45.3125 24.3359C43.8854 24.3359 42.7682 23.9714 41.9609 23.2422C41.1536 22.5182 40.7578 21.5365 40.7734 20.2969H42.2344ZM51.9844 13.2969H53.4062V15.6328H54.7422V16.7812H53.4062V22.2422C53.4062 22.5339 53.5052 22.7292 53.7031 22.8281C53.8125 22.8854 53.9948 22.9141 54.25 22.9141C54.3177 22.9141 54.3906 22.9141 54.4688 22.9141C54.5469 22.9089 54.638 22.901 54.7422 22.8906V24C54.5807 24.0469 54.4115 24.0807 54.2344 24.1016C54.0625 24.1224 53.875 24.1328 53.6719 24.1328C53.0156 24.1328 52.5703 23.9661 52.3359 23.6328C52.1016 23.2943 51.9844 22.8568 51.9844 22.3203V16.7812H50.8516V15.6328H51.9844V13.2969ZM59.4766 23.0938C60.4089 23.0938 61.0469 22.7422 61.3906 22.0391C61.7396 21.3307 61.9141 20.5443 61.9141 19.6797C61.9141 18.8984 61.7891 18.263 61.5391 17.7734C61.1432 17.0026 60.4609 16.6172 59.4922 16.6172C58.6328 16.6172 58.0078 16.9453 57.6172 17.6016C57.2266 18.2578 57.0312 19.0495 57.0312 19.9766C57.0312 20.8672 57.2266 21.6094 57.6172 22.2031C58.0078 22.7969 58.6276 23.0938 59.4766 23.0938ZM59.5312 15.3906C60.6094 15.3906 61.5208 15.75 62.2656 16.4688C63.0104 17.1875 63.3828 18.2448 63.3828 19.6406C63.3828 20.9896 63.0547 22.1042 62.3984 22.9844C61.7422 23.8646 60.724 24.3047 59.3438 24.3047C58.1927 24.3047 57.2786 23.9167 56.6016 23.1406C55.9245 22.3594 55.5859 21.3125 55.5859 20C55.5859 18.5938 55.9427 17.474 56.6562 16.6406C57.3698 15.8073 58.3281 15.3906 59.5312 15.3906ZM68.5938 23.0547C69.25 23.0547 69.7943 22.7812 70.2266 22.2344C70.6641 21.6823 70.8828 20.8594 70.8828 19.7656C70.8828 19.099 70.7865 18.526 70.5938 18.0469C70.2292 17.125 69.5625 16.6641 68.5938 16.6641C67.6198 16.6641 66.9531 17.151 66.5938 18.125C66.401 18.6458 66.3047 19.3073 66.3047 20.1094C66.3047 20.7552 66.401 21.3047 66.5938 21.7578C66.9583 22.6224 67.625 23.0547 68.5938 23.0547ZM64.9531 15.6719H66.3203V16.7812C66.6016 16.401 66.9089 16.1068 67.2422 15.8984C67.7161 15.5859 68.2734 15.4297 68.9141 15.4297C69.862 15.4297 70.6667 15.7943 71.3281 16.5234C71.9896 17.2474 72.3203 18.2839 72.3203 19.6328C72.3203 21.4557 71.8438 22.7578 70.8906 23.5391C70.2865 24.0339 69.5833 24.2812 68.7812 24.2812C68.151 24.2812 67.6224 24.1432 67.1953 23.8672C66.9453 23.7109 66.6667 23.4427 66.3594 23.0625V27.3359H64.9531V15.6719Z" fill="white"/>
<path d="M30.1 19.6883C29.605 19.6883 29.2 20.0933 29.2 20.5883V22.9913C29.2 23.1713 29.128 23.3423 28.993 23.4773C28.858 23.6123 28.678 23.6843 28.48 23.6843H15.52C15.331 23.6843 15.142 23.6123 15.007 23.4773C14.881 23.3423 14.8 23.1713 14.8 22.9913V20.1833C14.485 20.1383 14.179 20.0303 13.9 19.8683C13.531 19.6523 13.225 19.3643 13 19.0133V22.9913C13 23.6483 13.27 24.2963 13.747 24.7553C14.224 25.2323 14.854 25.4843 15.52 25.4843H21.1V26.8883H18.76C18.265 26.8883 17.86 27.2933 17.86 27.7883C17.86 28.2833 18.265 28.6883 18.76 28.6883H25.24C25.744 28.6883 26.14 28.2833 26.14 27.7883C26.14 27.2933 25.744 26.8883 25.24 26.8883H22.9V25.4843H28.48C29.155 25.4843 29.785 25.2323 30.262 24.7553C30.73 24.2963 31 23.6483 31 22.9913V20.5883C31 20.0933 30.604 19.6883 30.1 19.6883ZM30.937 13.0463C30.892 12.9473 30.838 12.8483 30.757 12.7673L30.739 12.7493C30.739 12.7493 30.73 12.7493 30.73 12.7403C30.649 12.6593 30.55 12.5963 30.451 12.5603C30.343 12.5153 30.226 12.4883 30.1 12.4883H26.05C25.555 12.4883 25.15 12.8933 25.15 13.3883C25.15 13.8833 25.555 14.2883 26.05 14.2883H27.913L25.42 16.7453C25.069 17.0963 25.06 17.6633 25.411 18.0233C25.762 18.3743 26.329 18.3743 26.689 18.0233L29.2 15.5393V17.3843C29.2 17.8883 29.605 18.2843 30.1 18.2843C30.595 18.2843 31 17.8883 31 17.3843V13.3883C31 13.2623 30.982 13.1453 30.937 13.0463Z" fill="white"/>
<path d="M15.2226 19.7665C14.8446 19.7665 14.4756 19.6675 14.1336 19.4695C13.4316 19.0735 13.0176 18.3445 13.0176 17.5345V9.22754C13.0176 8.41754 13.4316 7.68854 14.1336 7.29254C14.8176 6.89654 15.6366 6.90554 16.3206 7.30154L23.4126 11.4505C24.1056 11.8555 24.5196 12.5755 24.5196 13.3855C24.5196 14.1955 24.1056 14.9155 23.4216 15.3205L16.3386 19.4695C15.9966 19.6675 15.6186 19.7665 15.2406 19.7665H15.2226ZM15.6276 8.85854C15.4926 8.85854 15.3576 8.89454 15.2316 8.96654C14.9616 9.11954 14.8176 9.38954 14.8176 9.70454V17.0575C14.8176 17.3725 14.9706 17.6425 15.2316 17.7955C15.4836 17.9395 15.7896 17.9395 16.0416 17.7955L22.3146 14.1235C22.5756 13.9705 22.7286 13.6915 22.7286 13.3855C22.7286 13.0795 22.5756 12.8005 22.3146 12.6475L16.0326 8.97554C15.9066 8.90354 15.7716 8.86754 15.6276 8.86754V8.85854Z" fill="white"/>
</svg>
