<svg width="23" height="16" viewBox="0 0 23 16" fill="none" xmlns="http://www.w3.org/2000/svg">
<path d="M15 5.66667L20.3118 3.01133C20.4897 2.92247 20.6872 2.88053 20.8858 2.88947C21.0844 2.89842 21.2774 2.95795 21.4465 3.06244C21.6157 3.16692 21.7553 3.31289 21.8521 3.48648C21.949 3.66008 21.9999 3.85554 22 4.05433V11.9457C21.9999 12.1445 21.949 12.3399 21.8521 12.5135C21.7553 12.6871 21.6157 12.8331 21.4465 12.9376C21.2774 13.042 21.0844 13.1016 20.8858 13.1105C20.6872 13.1195 20.4897 13.0775 20.3118 12.9887L15 10.3333V5.66667ZM1 3.33333C1 2.71449 1.24583 2.121 1.68342 1.68342C2.121 1.24583 2.71449 1 3.33333 1H12.6667C13.2855 1 13.879 1.24583 14.3166 1.68342C14.7542 2.121 15 2.71449 15 3.33333V12.6667C15 13.2855 14.7542 13.879 14.3166 14.3166C13.879 14.7542 13.2855 15 12.6667 15H3.33333C2.71449 15 2.121 14.7542 1.68342 14.3166C1.24583 13.879 1 13.2855 1 12.6667V3.33333Z" stroke="white" stroke-width="2" stroke-linecap="round" stroke-linejoin="round"/>
</svg>
