<svg width="12" height="27" viewBox="0 0 12 27" fill="none" xmlns="http://www.w3.org/2000/svg">
<path d="M0.999996 5.1921C0.999996 3.81507 1.52678 2.49444 2.46446 1.52073C3.40213 0.547024 4.6739 0 5.99998 0C7.32605 0 8.59782 0.547024 9.53549 1.52073C10.4732 2.49444 11 3.81507 11 5.1921C11 6.56914 10.4732 7.88977 9.53549 8.86348C8.59782 9.83718 7.32605 10.3842 5.99998 10.3842C4.6739 10.3842 3.40213 9.83718 2.46446 8.86348C1.52678 7.88977 0.999996 6.56914 0.999996 5.1921ZM2.99999 12.4611C2.20434 12.4611 1.44128 12.7893 0.878676 13.3735C0.31607 13.9577 0 14.7501 0 15.5763V20.7684C0 22.4209 0.632139 24.0056 1.75735 25.1741C2.88257 26.3425 4.40868 26.9989 5.99998 26.9989C7.59127 26.9989 9.11739 26.3425 10.2426 25.1741C11.3678 24.0056 12 22.4209 12 20.7684V15.5763C12 14.7501 11.6839 13.9577 11.1213 13.3735C10.5587 12.7893 9.79561 12.4611 8.99996 12.4611H2.99999Z" fill="#315D80"/>
</svg>
