<svg width="14" height="16" viewBox="0 0 14 16" fill="none" xmlns="http://www.w3.org/2000/svg">
<path d="M3.11111 7.2H4.66667V8.8H3.11111V7.2ZM14 3.2V14.4C14 15.28 13.3 16 12.4444 16H1.55556C1.143 16 0.747335 15.8314 0.455612 15.5314C0.163888 15.2313 0 14.8243 0 14.4L0.00777777 3.2C0.00777777 2.32 0.692222 1.6 1.55556 1.6H2.33333V0H3.88889V1.6H10.1111V0H11.6667V1.6H12.4444C13.3 1.6 14 2.32 14 3.2ZM1.55556 4.8H12.4444V3.2H1.55556V4.8ZM12.4444 14.4V6.4H1.55556V14.4H12.4444ZM9.33333 8.8H10.8889V7.2H9.33333V8.8ZM6.22222 8.8H7.77778V7.2H6.22222V8.8Z" fill="#315D80"/>
</svg>
