<svg width="31" height="20" viewBox="0 0 31 20" fill="none" xmlns="http://www.w3.org/2000/svg">
<path d="M30.2715 1.91667C30.0359 1.77039 29.7686 1.69338 29.4965 1.69338C29.2244 1.69338 28.9571 1.77039 28.7215 1.91667L23.25 4.81667C23.2058 3.52262 22.6965 2.29746 21.8292 1.39907C20.9619 0.500675 19.8043 -0.000869625 18.6 1.13193e-06H4.65C3.41674 1.13193e-06 2.234 0.526785 1.36195 1.46447C0.489909 2.40215 0 3.67392 0 5V15C0 16.3261 0.489909 17.5979 1.36195 18.5355C2.234 19.4732 3.41674 20 4.65 20H18.6C19.8043 20.0009 20.9619 19.4993 21.8292 18.6009C22.6965 17.7025 23.2058 16.4774 23.25 15.1833L28.768 18.15C28.9793 18.2665 29.2126 18.3292 29.45 18.3333C29.7402 18.3343 30.0248 18.2477 30.2715 18.0833C30.4949 17.9332 30.679 17.7244 30.8064 17.4765C30.9339 17.2286 31.0005 16.9499 31 16.6667V3.33333C31.0005 3.05009 30.9339 2.77138 30.8064 2.52351C30.679 2.27564 30.4949 2.06679 30.2715 1.91667ZM20.15 15C20.15 15.442 19.9867 15.866 19.696 16.1785C19.4053 16.4911 19.0111 16.6667 18.6 16.6667H4.65C4.23891 16.6667 3.84467 16.4911 3.55398 16.1785C3.2633 15.866 3.1 15.442 3.1 15V5C3.1 4.55797 3.2633 4.13405 3.55398 3.82149C3.84467 3.50893 4.23891 3.33333 4.65 3.33333H18.6C19.0111 3.33333 19.4053 3.50893 19.696 3.82149C19.9867 4.13405 20.15 4.55797 20.15 5V15ZM27.9 13.9667L23.25 11.4667V8.53333L27.9 6.03333V13.9667Z" fill="#C9D7E5"/>
</svg>
