<svg width="28" height="29" viewBox="0 0 28 29" fill="none" xmlns="http://www.w3.org/2000/svg">
<path d="M26.7484 22.7878C26.9166 22.2279 27.0084 21.6327 27.0084 21.0177V7.24854C27.0084 5.62551 26.3637 4.06896 25.216 2.9213C24.0684 1.77365 22.5118 1.12891 20.8888 1.12891H7.11963C5.4966 1.12891 3.94005 1.77365 2.7924 2.9213C1.64474 4.06896 1 5.62551 1 7.24854V21.1248C1.02808 22.7292 1.6852 24.2584 2.82983 25.383C3.97445 26.5076 5.51499 27.1376 7.11963 27.1373H20.8888L21.0678 27.1343M26.7484 22.7878L26.6137 22.6287L22.841 18.0757C22.5547 17.7303 22.196 17.4521 21.7903 17.2608C21.3845 17.0695 20.9417 16.9697 20.4931 16.9685C20.0445 16.9673 19.6012 17.0648 19.1945 17.254C18.7878 17.4432 18.4276 17.7196 18.1396 18.0635L16.1323 20.4593L15.8049 20.8586M26.7484 22.7878C26.3772 24.0168 25.629 25.0964 24.6096 25.8767C23.5901 26.657 22.3511 27.097 21.0678 27.1343M15.8049 20.8586L20.9255 26.9721L21.0678 27.1343M15.8049 20.8586L10.8679 14.9639C10.5807 14.6211 10.2219 14.3455 9.81668 14.1563C9.41147 13.9672 8.96973 13.8692 8.52256 13.8692C8.07539 13.8692 7.63365 13.9672 7.22844 14.1563C6.82323 14.3455 6.4644 14.6211 6.17721 14.9639L1.27232 20.8188L1.00153 21.1263" stroke="#B8B8B8" stroke-width="2" stroke-linecap="round" stroke-linejoin="round"/>
<path d="M18.7324 11.6991C19.9998 11.6991 21.0272 10.6717 21.0272 9.40424C21.0272 8.13682 19.9998 7.10938 18.7324 7.10938C17.4649 7.10938 16.4375 8.13682 16.4375 9.40424C16.4375 10.6717 17.4649 11.6991 18.7324 11.6991Z" fill="#B8B8B8"/>
</svg>
