<svg width="16" height="16" viewBox="0 0 16 16" fill="none" xmlns="http://www.w3.org/2000/svg">
<path d="M4.44401 13.3333C5.91677 13.3333 7.11068 12.1394 7.11068 10.6667C7.11068 9.19391 5.91677 8 4.44401 8C2.97125 8 1.77734 9.19391 1.77734 10.6667C1.77734 12.1394 2.97125 13.3333 4.44401 13.3333Z" fill="#315D80" stroke="#315D80" stroke-width="2"/>
<path d="M13.5172 2.85114C13.6791 2.68349 13.7687 2.45896 13.7667 2.22589C13.7647 1.99283 13.6712 1.76988 13.5064 1.60508C13.3416 1.44027 13.1186 1.34679 12.8855 1.34476C12.6525 1.34273 12.4279 1.43233 12.2603 1.59425L13.5172 2.85114ZM13.5936 5.96225L14.2221 6.59069L15.479 5.3338L14.8505 4.70536L13.5936 5.96225ZM11.8159 5.96225L12.4443 6.59069L13.7012 5.3338L13.0727 4.70536L11.8159 5.96225ZM5.59363 8.26092C5.50874 8.34291 5.44102 8.441 5.39443 8.54944C5.34785 8.65789 5.32332 8.77453 5.3223 8.89256C5.32127 9.01058 5.34376 9.12763 5.38846 9.23687C5.43315 9.34612 5.49916 9.44536 5.58262 9.52882C5.66608 9.61228 5.76532 9.67828 5.87456 9.72298C5.9838 9.76767 6.10085 9.79016 6.21888 9.78914C6.3369 9.78811 6.45354 9.76359 6.56199 9.71701C6.67044 9.67042 6.76852 9.6027 6.85052 9.5178L5.59363 8.26092ZM11.3714 7.29558L11.9999 7.92403L13.2567 6.66714L12.6283 6.03869L11.3714 7.29558ZM12.6283 3.74003L13.5172 2.85114L12.2603 1.59425L11.3714 2.48314L12.6283 3.74003ZM11.3714 3.74003L13.5936 5.96225L14.8505 4.70536L12.6283 2.48314L11.3714 3.74003ZM11.7394 4.62892L12.6283 3.74003L11.3714 2.48314L10.4825 3.37203L11.7394 4.62892ZM10.4825 4.62892L11.8159 5.96225L13.0727 4.70536L11.7394 3.37203L10.4825 4.62892ZM6.85052 9.5178L10.8505 5.5178L9.59363 4.26092L5.59363 8.26092L6.85052 9.5178ZM10.8505 5.5178L11.7394 4.62892L10.4825 3.37203L9.59363 4.26092L10.8505 5.5178ZM9.59363 5.5178L11.3714 7.29558L12.6283 6.03869L10.8505 4.26092L9.59363 5.5178Z" fill="#315D80"/>
</svg>
