<svg width="12" height="10" viewBox="0 0 12 10" fill="none" xmlns="http://www.w3.org/2000/svg">
<path d="M3.60036 4.70588C4.23694 4.70588 4.84745 4.45798 5.29759 4.01672C5.74772 3.57546 6.0006 2.97698 6.0006 2.35294C6.0006 1.7289 5.74772 1.13042 5.29759 0.68916C4.84745 0.247898 4.23694 0 3.60036 0C2.96378 0 2.35327 0.247898 1.90313 0.68916C1.453 1.13042 1.20012 1.7289 1.20012 2.35294C1.20012 2.97698 1.453 3.57546 1.90313 4.01672C2.35327 4.45798 2.96378 4.70588 3.60036 4.70588ZM9.0009 4.70588C9.47834 4.70588 9.93622 4.51996 10.2738 4.18901C10.6114 3.85807 10.8011 3.40921 10.8011 2.94118C10.8011 2.47315 10.6114 2.02429 10.2738 1.69334C9.93622 1.36239 9.47834 1.17647 9.0009 1.17647C8.52346 1.17647 8.06558 1.36239 7.72798 1.69334C7.39038 2.02429 7.20072 2.47315 7.20072 2.94118C7.20072 3.40921 7.39038 3.85807 7.72798 4.18901C8.06558 4.51996 8.52346 4.70588 9.0009 4.70588ZM1.50015 5.88235C0.672067 5.88235 0 6.54118 0 7.35294C0 7.35294 0 10 3.60036 10C6.45425 10 7.04591 8.33647 7.16832 7.64706C7.20072 7.46706 7.20072 7.35294 7.20072 7.35294C7.20072 6.54118 6.52865 5.88235 5.70057 5.88235H1.50015ZM8.39604 7.76471C8.39364 7.81177 8.38884 7.86745 8.38164 7.93176C8.31541 8.41684 8.14351 8.88227 7.87759 9.29647C8.19562 9.36824 8.56646 9.41177 8.9997 9.41177C12 9.41177 12 7.35294 12 7.35294C12 6.54118 11.3279 5.88235 10.4999 5.88235H7.94479C8.23282 6.30353 8.39964 6.80824 8.39964 7.35294V7.64706L8.39604 7.76471Z" fill="#315D80"/>
</svg>
