<svg width="372" height="704" viewBox="0 0 372 704" fill="none" xmlns="http://www.w3.org/2000/svg">
<path d="M1.86853 283.494C1.94458 280.043 3.06769 276.695 5.09064 273.889L6.11414 272.231C11.9781 263.077 18.9269 254.655 26.8114 247.146C39.3337 235.506 52.9117 225.04 67.3721 215.883C77.3417 209.178 84.961 200.553 86.5151 188.424C87.7108 178.784 92.6822 170.001 100.351 163.979C144.507 126.47 192.837 94.1048 244.398 67.5153C245.544 67.1325 246.563 66.4461 247.345 65.53C248.126 64.6139 248.641 63.503 248.834 62.3173C245.101 61.3903 241.297 60.773 237.461 60.4717C236.059 60.4717 234.656 60.4717 233.216 60.4717C220.118 68.517 207.568 77.413 195.65 87.1017C199.12 76.7334 205.643 67.6396 214.376 60.999C206.795 61.7523 198.834 62.9953 191.063 64.1253H190.57C186.173 67.1009 181.7 69.9636 177.417 72.9769C160.921 84.4392 145.077 96.8001 129.957 110.003C135.111 93.4378 144.672 78.5633 157.629 66.9503C154.559 69.0596 151.374 70.9806 148.38 73.3159C136.537 82.313 126.045 92.9413 117.22 104.88C124.801 74.7472 148.872 48.9458 177.151 35.3106C190.17 28.5426 203.951 23.3333 218.205 19.7921C194.92 22.4299 171.912 27.0805 149.441 33.6909C195.108 8.01941 247.49 -3.41143 299.781 0.883615C352.163 5.17063 401.851 25.758 441.781 59.7183C516.964 110.798 569.445 188.701 588.316 277.236C607.187 365.77 590.995 458.126 543.107 535.104C542.008 537.063 540.832 538.871 539.619 540.83C502.457 598.319 449.404 643.947 386.816 672.247L385.603 673.114L386.02 672.624C340.227 693.282 290.52 703.979 240.229 704C227.555 703.885 214.898 703.042 202.322 701.476L202.625 701.702C202.625 701.702 171.806 698.99 157.781 692.7C157.781 692.7 152.549 599.325 178.25 564.183V564.823C188.755 543.642 202.63 524.284 219.342 507.495C219.531 507.307 219.948 507.495 220.441 507.231C200.805 560.303 193.641 613.902 209.941 668.933C209.711 643.308 214.608 617.894 224.346 594.165C233.751 571.563 245.288 549.896 258.803 529.454C277.037 500.979 295.876 472.955 312.48 443.425C334.58 404.101 352.775 363.271 362.669 319.126C364.334 313.475 364.135 307.443 362.1 301.913C348.946 328.279 337.612 354.947 317.218 376.228C296.824 397.509 272.298 412.35 245.763 424.667C276.089 382.744 304.368 339.955 321.388 290.801C312.835 297.768 304.966 305.524 297.885 313.966C274.193 341.387 244.171 359.919 211.798 375.286L211.192 374.458C213.694 371.746 216.196 368.996 218.773 366.359C244.025 340.962 265.898 312.455 283.86 281.535C284.504 280.405 285.679 279.388 285.338 277.768C284.239 278.258 283.405 278.597 282.571 279.011C271.23 285.65 260.676 293.534 251.108 302.515C244.532 308.474 237.19 313.54 229.273 317.582C227.909 318.26 226.582 319.277 225.142 317.318C223.701 315.359 224.194 314.38 225.331 312.836C229.956 306.395 234.391 299.803 239.129 293.438C240.949 290.914 239.774 290.311 237.499 290.085C236.111 290.036 234.726 290.261 233.425 290.745C232.124 291.23 230.932 291.966 229.918 292.91C221.146 299.751 211.496 305.401 201.222 309.709C184.87 316.814 168.17 323.1 151.185 328.543C143.907 331.104 143.376 333.891 148.266 339.842C154.422 347.133 159.235 355.447 162.481 364.401C167.447 378.111 165.931 390.767 155.62 402.067C149.949 407.843 143.169 412.428 135.681 415.552C131.89 417.284 128.099 418.829 123.702 420.637L129.578 424.14C141.286 430.432 151.886 438.574 160.965 448.246C164.568 451.955 167.424 456.315 169.38 461.09C170.526 463.641 170.743 466.509 169.997 469.202C169.25 471.895 167.585 474.247 165.286 475.855C162.636 477.85 159.729 479.484 156.643 480.714C134.753 489.362 111.195 493.042 87.6902 491.487C83.8373 491.334 80.0643 490.348 76.6339 488.598C73.2035 486.848 70.1981 484.376 67.827 481.355C56.7618 468.333 48.3427 453.303 43.0356 437.097C41.1403 431.484 39.4724 425.797 37.994 420.109C36.0608 413.028 37.9941 410.128 45.348 409.45C51.4579 409.4 57.5406 410.263 63.3919 412.011C69.4138 413.777 75.8561 413.499 81.701 411.22C72.2802 403.215 60.6873 398.156 48.3806 396.681C35.6437 395.287 26.0912 390.24 20.0261 378.639C13.7944 367.337 8.79993 355.404 5.12848 343.044C2.29456 333.342 0.9151 323.277 1.03455 313.175C0.445129 309.245 0.103333 305.282 0.0111084 301.31C-0.0856323 295.955 0.448669 290.608 1.60315 285.377L1.86853 283.494ZM506.754 224.96C505.389 221.947 503.949 218.934 502.508 215.92C502.508 221.307 502.167 226.693 501.598 232.004C501.295 234.98 500.802 237.88 500.385 240.818C501.134 241.002 501.809 241.41 502.319 241.985C509.668 248.588 516.51 255.727 522.789 263.342C517.633 250.435 512.288 237.641 506.754 224.96ZM320.743 678.651C341.289 661.851 360.925 643.998 381.395 626.972C383.935 624.863 386.437 622.679 388.976 620.569C405.899 601.582 421.263 581.278 434.92 559.851C428.249 577.53 419.332 594.289 408.385 609.721C409.257 609.985 387.953 637.707 388.825 638.348C388.825 638.348 414.26 616.087 413.616 619.213C441.326 582.978 464.033 543.052 490.947 503.992C482.998 531.145 472.198 557.392 458.726 582.3C466.307 572.256 473.497 561.847 480.295 551.075C501.674 515.593 518.202 477.023 533.365 437.059C527.792 483.991 514.411 531.526 487.649 572.658C479.897 584.565 471.282 595.895 461.872 606.557C485.778 586.149 506.736 562.561 524.153 536.46C528.285 528.099 532.227 519.661 535.867 511.111C547.112 485.03 555.993 458.004 562.402 430.355C563.706 437.821 564.428 445.377 564.562 452.954C579.554 407.048 584.187 358.424 578.133 310.538C578.949 340.179 574.628 369.739 565.358 397.924C563.16 388.093 560.734 378.488 558.194 369.071C565.131 314.418 555.161 257.165 527.868 209.818C543.338 277.053 547.438 346.377 539.998 414.949C532.831 442.226 521.052 468.094 505.162 491.449C514.075 461.685 521.214 431.424 526.541 400.824C525.666 401.862 524.844 402.943 524.077 404.063C525.69 394.662 525.159 385.021 522.523 375.851C522.068 378.074 521.765 379.618 521.424 381.087C519.529 389.298 519.149 397.811 516.155 405.721C500.992 446.061 477.717 481.769 450.196 514.689C447.202 518.456 443.904 521.62 440.871 525.161L437.535 528.927C387.839 585.916 331.85 636.615 274.99 686.372C274.99 686.372 274.724 686.749 274.573 686.862C290.134 685.18 305.561 682.437 320.743 678.651ZM327.036 571.641C338.143 558.759 348.605 545.5 359.106 532.279C352.135 545.436 344.137 558.03 335.186 569.946C328.249 576.236 321.123 582.3 313.655 587.95C307.552 595.107 301.525 602.301 294.929 609.119C293.48 610.174 292.373 611.627 291.745 613.3C293.678 612.848 295.535 612.207 297.241 611.642C279.095 628.385 258.68 642.522 236.59 653.64C259.169 649.506 280.698 640.958 299.926 628.492C319.155 616.025 335.701 599.889 348.605 581.02C353.874 577.517 359.257 574.24 364.45 570.624C379.568 552.853 393.654 534.241 406.641 514.878C433.434 475.117 455.312 432.297 471.803 387.34C466.189 435.715 449.204 482.1 422.221 522.75C437.229 507.838 450.203 491.033 460.81 472.767C461.114 472.239 461.341 471.674 461.644 471.147C470.601 449.097 477.961 426.44 483.668 403.348C494.367 359.46 498.808 314.296 496.86 269.18C496.979 269.514 497.08 269.854 497.163 270.198C497.618 267.184 497.618 264.096 497.921 261.045C503.81 281.522 507.321 302.601 508.384 323.872C510.456 307.751 511.897 291.429 512.705 274.906C509.18 266.469 505.617 258.069 502.395 249.519C501.454 247.255 500.681 244.926 500.082 242.55C493.966 278.088 480.405 311.953 460.28 341.952C470.894 304.285 480.446 267.486 484.237 230.347C486.082 212.386 486.336 194.3 484.995 176.295C473.877 148.322 455.816 123.599 432.494 104.428C447.591 131.92 460.764 160.413 471.917 189.705C453.326 158.248 432.66 128.049 410.053 99.3056L403.381 92.9777C403.002 92.8795 402.603 92.8874 402.229 93.0004C401.854 93.1134 401.518 93.3271 401.258 93.618C405.428 95.8403 406.414 100.021 408.347 103.449C415.087 114.19 420.533 125.682 424.571 137.688C430.085 159.039 428.76 181.567 420.78 202.135C413.094 222.084 403.041 241.051 390.834 258.634C390.038 259.877 389.28 261.158 388.218 262.928C399.882 260.37 410.579 254.585 419.075 246.242C428.792 228.037 435.742 208.502 439.696 188.273C440.618 211.286 435.247 234.117 424.154 254.34C422.696 262.295 420.759 270.156 418.354 277.881C411.569 299.803 401.865 320.557 393.753 341.914C392.574 344.027 391.924 346.392 391.857 348.807C403.843 338.879 414.235 327.194 422.676 314.154C430.533 301.828 437.475 288.95 443.449 275.621C450.783 250.88 456.619 225.724 460.924 200.289C469.302 272.42 445.761 348.694 399.287 405.231C399.42 410.649 399.23 416.07 398.718 421.465C398.415 424.554 397.885 427.567 397.43 430.618C415.063 407.048 431.192 382.404 445.723 356.83C437.703 400.523 416.713 440.834 385.451 472.578C384.731 474.349 384.086 476.345 383.252 477.927C381.774 481.204 380.106 484.368 378.552 487.607C378.552 486.553 378.552 485.46 378.552 484.406C377.453 488.172 375.974 491.6 374.761 495.254C361.354 522.177 345.372 547.757 327.036 571.641ZM353.571 117.95C363.237 128.61 365.436 141.718 366.384 155.24C366.681 164.054 366.199 172.876 364.943 181.606C371.771 175.365 377.241 167.801 381.016 159.38C384.79 150.958 386.79 141.858 386.891 132.64C387.346 114.485 374.837 107.743 361.683 107.291C359.56 107.269 357.469 107.802 355.618 108.835C350.918 111.208 350.046 114.221 353.571 117.95ZM179.198 203.265C186.287 205.788 187.879 208.538 186.78 215.883C186.021 220.064 184.733 224.169 183.482 229.217C212.195 215.992 242.392 206.218 273.435 200.101C244.361 183.339 192.807 181.267 165.324 198.971C169.987 200.44 174.725 201.645 179.198 203.265ZM5.6972 309.333C9.91382 312.721 13.5496 316.766 16.4628 321.311C19.2884 325.622 22.5806 329.614 26.2808 333.213C28.1382 334.908 29.1617 334.908 30.0715 332.309C31.5878 328.015 33.2936 323.721 35.0753 319.427C35.7012 317.468 36.923 315.749 38.5727 314.508C40.2224 313.267 42.2186 312.564 44.2866 312.497C48.3874 312.279 52.4742 311.851 56.5307 311.216C64.1121 309.973 71.0491 297.958 69.7223 288.616L65.4767 289.558C48.4443 293.895 30.681 294.601 13.3544 291.63C10.5022 291.271 7.75421 290.335 5.28015 288.88C5.58344 292.647 5.65924 296.978 5.88666 301.159C5.92456 303.683 5.84882 306.508 5.6972 309.333Z" fill="#E6EFF8"/>
</svg>
