<svg width="14" height="18" viewBox="0 0 14 18" fill="none" xmlns="http://www.w3.org/2000/svg">
<path d="M7.00065 0.666992C3.33398 0.666992 0.333984 3.66699 0.333984 7.33366C0.333984 11.8337 6.16732 16.917 6.41732 17.167C6.58398 17.2503 6.83398 17.3337 7.00065 17.3337C7.16732 17.3337 7.41732 17.2503 7.58398 17.167C7.83398 16.917 13.6673 11.8337 13.6673 7.33366C13.6673 3.66699 10.6673 0.666992 7.00065 0.666992ZM7.00065 15.417C5.25065 13.7503 2.00065 10.167 2.00065 7.33366C2.00065 4.58366 4.25065 2.33366 7.00065 2.33366C9.75065 2.33366 12.0007 4.58366 12.0007 7.33366C12.0007 10.0837 8.75065 13.7503 7.00065 15.417ZM7.00065 4.00033C5.16732 4.00033 3.66732 5.50033 3.66732 7.33366C3.66732 9.16699 5.16732 10.667 7.00065 10.667C8.83398 10.667 10.334 9.16699 10.334 7.33366C10.334 5.50033 8.83398 4.00033 7.00065 4.00033ZM7.00065 9.00033C6.08398 9.00033 5.33398 8.25033 5.33398 7.33366C5.33398 6.41699 6.08398 5.66699 7.00065 5.66699C7.91732 5.66699 8.66732 6.41699 8.66732 7.33366C8.66732 8.25033 7.91732 9.00033 7.00065 9.00033Z" fill="#315D80"/>
</svg>
