<svg width="14" height="21" viewBox="0 0 14 21" fill="none" xmlns="http://www.w3.org/2000/svg">
<path d="M9.10274 0.901687C8.43608 0.693357 7.72776 0.568359 6.99861 0.568359C4.85281 0.568359 2.93618 1.54751 1.64453 3.06832L4.95698 5.8391L9.10274 0.901687Z" fill="white"/>
<path d="M1.64581 3.06836C0.624989 4.27667 0 5.85998 0 7.56828C0 8.88076 0.270829 9.94324 0.687488 10.9016L4.93742 5.85998L1.64581 3.06836Z" fill="white"/>
<path d="M7.00062 4.88079C8.47976 4.88079 9.66724 6.06827 9.66724 7.54741C9.66724 8.21407 9.43808 8.81823 9.04225 9.27655C9.04225 9.27655 11.1464 6.75576 13.2088 4.3183C12.3547 2.69333 10.8964 1.44335 9.12558 0.880859L4.95898 5.83911C5.43814 5.25579 6.1673 4.88079 7.00062 4.88079Z" fill="white"/>
<path d="M7.00055 10.2353C5.5214 10.2353 4.33392 9.0478 4.33392 7.56866C4.33392 6.92283 4.56309 6.31868 4.95891 5.86035L0.708984 10.9019C1.41731 12.5061 2.62562 13.7977 3.8756 15.4227L9.04218 9.27696C8.56302 9.86028 7.81303 10.2353 7.00055 10.2353Z" fill="white"/>
<path d="M8.93742 17.1105C11.2707 13.4647 13.9998 11.7981 13.9998 7.56896C13.9998 6.40231 13.7082 5.31899 13.2082 4.33984L3.875 15.423C4.27083 15.9438 4.66665 16.4855 5.06248 17.1105C6.47912 19.2979 6.0833 20.6104 6.99995 20.6104C7.9166 20.6104 7.52077 19.2979 8.93742 17.1105Z" fill="white"/>
</svg>
