<svg width="28" height="27" viewBox="0 0 28 27" fill="none" xmlns="http://www.w3.org/2000/svg">
<path d="M9.00008 5.1921C9.00008 3.81507 9.52686 2.49444 10.4645 1.52073C11.4022 0.547024 12.674 0 14.0001 0C15.3261 0 16.5979 0.547024 17.5356 1.52073C18.4733 2.49444 19 3.81507 19 5.1921C19 6.56914 18.4733 7.88977 17.5356 8.86348C16.5979 9.83718 15.3261 10.3842 14.0001 10.3842C12.674 10.3842 11.4022 9.83718 10.4645 8.86348C9.52686 7.88977 9.00008 6.56914 9.00008 5.1921ZM11.0001 12.4611C10.2044 12.4611 9.44137 12.7893 8.87876 13.3735C8.31615 13.9577 8.00008 14.7501 8.00008 15.5763V20.7684C8.00008 22.4209 8.63222 24.0056 9.75744 25.1741C10.8827 26.3425 12.4088 26.9989 14.0001 26.9989C15.5914 26.9989 17.1175 26.3425 18.2427 25.1741C19.3679 24.0056 20 22.4209 20 20.7684V15.5763C20 14.7501 19.684 13.9577 19.1214 13.3735C18.5588 12.7893 17.7957 12.4611 17 12.4611H11.0001ZM6.11209 14.4756C6.0371 14.8373 5.99955 15.2063 6.00009 15.5763V20.7684C5.99989 21.8799 6.21451 22.9802 6.63122 24.0041C7.04793 25.0279 7.65827 25.9545 8.42608 26.729L8.22608 26.7871C6.68944 27.214 5.05243 26.9898 3.67492 26.1638C2.2974 25.3378 1.29214 23.9776 0.880115 22.3821L0.102118 19.3707C0.000199534 18.9755 -0.0257591 18.5633 0.0257243 18.1577C0.0772077 17.7521 0.205125 17.361 0.402172 17.0067C0.599219 16.6525 0.861536 16.342 1.17415 16.093C1.48675 15.844 1.84353 15.6614 2.22411 15.5555L6.11209 14.4756ZM19.572 26.729C20.3402 25.9547 20.9509 25.0282 21.368 24.0043C21.785 22.9805 22 21.8801 22 20.7684V15.5763C21.9987 15.1969 21.9614 14.83 21.888 14.4756L25.774 15.5555C26.1548 15.6613 26.5118 15.844 26.8245 16.0932C27.1373 16.3423 27.3997 16.653 27.5968 17.0075C27.7939 17.362 27.9217 17.7534 27.9731 18.1592C28.0244 18.5651 27.9982 18.9774 27.896 19.3728L27.12 22.3821C26.9116 23.1898 26.5488 23.9456 26.0531 24.6046C25.5575 25.2636 24.9392 25.8122 24.235 26.2178C23.5309 26.6235 22.7553 26.8777 21.9546 26.9655C21.1538 27.0534 20.3422 26.9729 19.572 26.729ZM0.000118493 8.30737C0.000118493 7.20574 0.421544 6.14924 1.17169 5.37027C1.92183 4.5913 2.93924 4.15368 4.0001 4.15368C5.06096 4.15368 6.07837 4.5913 6.82852 5.37027C7.57866 6.14924 8.00008 7.20574 8.00008 8.30737C8.00008 9.40899 7.57866 10.4655 6.82852 11.2445C6.07837 12.0234 5.06096 12.4611 4.0001 12.4611C2.93924 12.4611 1.92183 12.0234 1.17169 11.2445C0.421544 10.4655 0.000118493 9.40899 0.000118493 8.30737ZM20 8.30737C20 7.20574 20.4215 6.14924 21.1716 5.37027C21.9217 4.5913 22.9392 4.15368 24 4.15368C25.0609 4.15368 26.0783 4.5913 26.8284 5.37027C27.5786 6.14924 28 7.20574 28 8.30737C28 9.40899 27.5786 10.4655 26.8284 11.2445C26.0783 12.0234 25.0609 12.4611 24 12.4611C22.9392 12.4611 21.9217 12.0234 21.1716 11.2445C20.4215 10.4655 20 9.40899 20 8.30737Z" fill="#92A3B4"/>
</svg>
