<svg width="10" height="10" viewBox="0 0 10 10" fill="none" xmlns="http://www.w3.org/2000/svg">
<path d="M6.08129 0.212781C6.40301 -0.000333519 6.94809 -0.152485 7.35946 0.258887L9.74009 2.64003C10.153 3.05191 10.0003 3.59699 9.78671 3.9182C9.67105 4.09237 9.52051 4.24064 9.3446 4.35365C9.1735 4.46277 8.95731 4.54525 8.72422 4.53295C8.61144 4.52497 8.49901 4.51283 8.38713 4.49658L8.35229 4.49146C8.2321 4.47423 8.11127 4.46175 7.9901 4.45406C7.7319 4.44125 7.63252 4.4848 7.60076 4.51553L6.32514 5.79166C6.28416 5.83264 6.23293 5.92383 6.194 6.09903C6.1566 6.26809 6.1402 6.47608 6.13611 6.70661C6.13252 6.92793 6.1402 7.15436 6.1484 7.3726L6.14891 7.39667C6.1566 7.61337 6.16428 7.83469 6.15352 8.00835C6.12023 8.53653 5.70885 8.92536 5.30414 9.10517C4.89943 9.28448 4.32207 9.32905 3.92095 8.92741L2.76829 7.77475L0.66532 9.87771C0.630145 9.91546 0.587727 9.94574 0.540596 9.96674C0.493466 9.98774 0.442588 9.99903 0.390999 9.99994C0.339409 10.0009 0.288165 9.99136 0.240323 9.97204C0.19248 9.95271 0.149021 9.92395 0.112536 9.88747C0.0760506 9.85098 0.0472881 9.80752 0.0279639 9.75968C0.00863962 9.71184 -0.00085044 9.66059 5.97955e-05 9.609C0.000970031 9.55741 0.012262 9.50654 0.0332619 9.4594C0.0542619 9.41227 0.0845396 9.36986 0.122289 9.33468L2.22474 7.23172L1.07208 6.07905C0.670956 5.67742 0.715013 5.10057 0.894828 4.69586C1.07413 4.29115 1.46347 3.87978 1.99114 3.84648C2.16532 3.83572 2.38663 3.84341 2.60333 3.85109L2.62741 3.8516C2.84564 3.85929 3.07208 3.86748 3.29339 3.8639C3.52392 3.8598 3.73191 3.84341 3.90097 3.80601C4.07617 3.76707 4.16736 3.71533 4.20834 3.67435L5.48396 2.39874C5.51521 2.36749 5.55875 2.26759 5.54543 2.00939C5.53774 1.88822 5.52526 1.76739 5.50803 1.6472L5.50342 1.61237C5.48717 1.50049 5.47504 1.38805 5.46705 1.27528C5.45424 1.04218 5.53672 0.825996 5.64533 0.65489C5.75598 0.48071 5.90916 0.327022 6.08129 0.212781Z" fill="#92A3B4"/>
</svg>
