<svg width="47" height="47" viewBox="0 0 47 47" fill="none" xmlns="http://www.w3.org/2000/svg">
<rect width="47" height="47" rx="23.5" fill="#EDF2FA"/>
<path d="M33.707 23.2928L25.707 15.2928C25.5671 15.153 25.389 15.0578 25.195 15.0192C25.0011 14.9806 24.8 15.0004 24.6173 15.0761C24.4346 15.1518 24.2785 15.2799 24.1686 15.4443C24.0587 15.6087 24 15.802 24 15.9998V19.5448C21.2683 19.7976 18.7292 21.0606 16.8797 23.0868C15.0302 25.113 14.0033 27.7564 14 30.4998V31.9998C14.0002 32.2074 14.0649 32.4098 14.1853 32.5789C14.3056 32.748 14.4756 32.8755 14.6717 32.9436C14.8678 33.0118 15.0802 33.0172 15.2795 32.9592C15.4788 32.9011 15.6551 32.7825 15.784 32.6198C16.7638 31.4549 17.9659 30.4969 19.3201 29.8017C20.6743 29.1065 22.1533 28.6881 23.671 28.5708C23.721 28.5648 23.846 28.5548 24 28.5448V31.9998C24 32.1975 24.0587 32.3908 24.1686 32.5552C24.2785 32.7197 24.4346 32.8478 24.6173 32.9235C24.8 32.9991 25.0011 33.0189 25.195 32.9804C25.389 32.9418 25.5671 32.8466 25.707 32.7068L33.707 24.7068C33.8945 24.5193 33.9998 24.265 33.9998 23.9998C33.9998 23.7346 33.8945 23.4803 33.707 23.2928ZM26 29.5858V27.4998C26 27.2346 25.8946 26.9802 25.7071 26.7927C25.5196 26.6051 25.2652 26.4998 25 26.4998C24.745 26.4998 23.704 26.5498 23.438 26.5848C20.7428 26.8328 18.1773 27.8568 16.052 29.5328C16.2932 27.3272 17.3395 25.2881 18.9906 23.8059C20.6416 22.3238 22.7813 21.5026 25 21.4998C25.2652 21.4998 25.5196 21.3944 25.7071 21.2069C25.8946 21.0194 26 20.765 26 20.4998V18.4138L31.586 23.9998L26 29.5858Z" fill="#315D80"/>
</svg>
