<svg width="180" height="180" viewBox="0 0 180 180" fill="none" xmlns="http://www.w3.org/2000/svg">
<g clip-path="url(#clip0_7158_6048)">
<path d="M22.5 22.5H45V45H22.5V22.5Z" fill="#315D80"/>
<path d="M22.5 135H45V157.5H22.5V135Z" fill="#315D80"/>
<path d="M112.5 0V22.5H101.25V33.75H112.5V45H101.25H90H78.75V56.25H90V67.5V78.75H101.25H112.5V90H123.75V101.25H135V90H146.25V78.75H135H123.75V67.5H168.75V78.75H180V67.5V0H112.5ZM112.5 67.5H101.25V56.25H112.5V67.5ZM168.75 56.25H123.75V11.25H168.75V56.25Z" fill="#315D80"/>
<path d="M135 22.5H157.5V45H135V22.5Z" fill="#315D80"/>
<path d="M22.5 78.75H11.25V67.5H22.5V78.75H33.75V90H45V78.75V67.5H67.5V45H78.75V33.75H67.5V11.25H78.75V0H67.5H0V67.5V78.75V90H11.25V101.25H22.5V90V78.75ZM11.25 11.25H56.25V56.25H11.25V11.25Z" fill="#315D80"/>
<path d="M90 90V101.25H101.25V112.5H112.5H123.75V101.25H112.5V90H101.25H90Z" fill="#315D80"/>
<path d="M90 168.75H101.25V180H90V168.75Z" fill="#315D80"/>
<path d="M146.25 157.5V168.75H157.5H168.75V157.5H157.5H146.25Z" fill="#315D80"/>
<path d="M168.75 168.75H180V180H168.75V168.75Z" fill="#315D80"/>
<path d="M168.75 146.25H180V157.5H168.75V146.25Z" fill="#315D80"/>
<path d="M146.25 101.25V112.5H135H123.75V123.75H112.5H101.25V112.5H90H78.75V101.25H67.5V112.5H45V101.25H33.75H22.5V112.5H0V180H67.5V146.25H78.75V135H67.5V123.75H78.75H90V135V146.25H78.75V157.5V168.75H90V157.5H101.25V146.25V135H112.5V146.25V157.5H101.25V168.75H112.5H123.75V180H135V168.75V157.5H123.75V146.25V135H135V123.75H146.25H157.5H168.75H180V112.5H168.75V101.25H157.5V90H146.25V101.25ZM56.25 168.75H11.25V123.75H56.25V168.75Z" fill="#315D80"/>
<path d="M157.5 78.75H168.75V90H157.5V78.75Z" fill="#315D80"/>
<path d="M78.75 67.5H67.5V78.75H56.25V90H45V101.25H56.25H67.5V90H78.75H90V78.75H78.75V67.5Z" fill="#315D80"/>
<path d="M135 157.5H146.25V146.25H157.5H168.75V135H157.5H146.25H135V146.25V157.5Z" fill="#315D80"/>
<path d="M78.75 33.75H90V22.5H101.25V11.25V0H90V11.25H78.75V22.5V33.75Z" fill="#315D80"/>
</g>
<defs>
<clipPath id="clip0_7158_6048">
<rect width="180" height="180" fill="white"/>
</clipPath>
</defs>
</svg>
