<svg width="20" height="20" viewBox="0 0 20 20" fill="none" xmlns="http://www.w3.org/2000/svg">
<path d="M2 12.5C2.39782 12.5 2.77936 12.658 3.06066 12.9393C3.34196 13.2206 3.5 13.6022 3.5 14V16.5H7C7.39782 16.5 7.77936 16.658 8.06066 16.9393C8.34196 17.2206 8.5 17.6022 8.5 18C8.5 18.3978 8.34196 18.7794 8.06066 19.0607C7.77936 19.342 7.39782 19.5 7 19.5H3C2.33696 19.5 1.70107 19.2366 1.23223 18.7678C0.763392 18.2989 0.5 17.663 0.5 17V14C0.5 13.6022 0.658035 13.2206 0.93934 12.9393C1.22064 12.658 1.60218 12.5 2 12.5ZM18 12.5C18.3729 12.5 18.7324 12.6389 19.0084 12.8896C19.2844 13.1403 19.4572 13.4848 19.493 13.856L19.5 14V17C19.5001 17.6347 19.2588 18.2457 18.825 18.709C18.3912 19.1724 17.7973 19.4534 17.164 19.495L17 19.5H13C12.6148 19.4998 12.2444 19.3514 11.9656 19.0856C11.6868 18.8198 11.521 18.4569 11.5025 18.0721C11.484 17.6873 11.6142 17.3102 11.8662 17.0188C12.1182 16.7274 12.4726 16.5442 12.856 16.507L13 16.5H16.5V14C16.5 13.6022 16.658 13.2206 16.9393 12.9393C17.2206 12.658 17.6022 12.5 18 12.5ZM18 8.5C18.3852 8.50019 18.7556 8.64858 19.0344 8.91441C19.3132 9.18024 19.479 9.54314 19.4975 9.92791C19.516 10.3127 19.3858 10.6898 19.1338 10.9812C18.8818 11.2726 18.5274 11.4558 18.144 11.493L18 11.5H2C1.61478 11.4998 1.24441 11.3514 0.965613 11.0856C0.686822 10.8198 0.520988 10.4569 0.502476 10.0721C0.483964 9.68731 0.614192 9.31017 0.866175 9.0188C1.11816 8.72743 1.47258 8.54417 1.856 8.507L2 8.5H18ZM7 0.5C7.38522 0.500191 7.75559 0.648576 8.03439 0.914409C8.31318 1.18024 8.47901 1.54314 8.49752 1.92791C8.51604 2.31269 8.38581 2.68983 8.13382 2.9812C7.88184 3.27257 7.52742 3.45583 7.144 3.493L7 3.5H3.5V6C3.49981 6.38522 3.35142 6.75559 3.08559 7.03439C2.81976 7.31318 2.45686 7.47901 2.07209 7.49752C1.68731 7.51604 1.31017 7.38581 1.0188 7.13382C0.727429 6.88184 0.544172 6.52742 0.507 6.144L0.5 6V3C0.499902 2.36528 0.741233 1.75429 1.17504 1.29095C1.60885 0.827621 2.20265 0.546638 2.836 0.505L3 0.5H7ZM17 0.5C17.6347 0.499902 18.2457 0.741233 18.709 1.17504C19.1724 1.60885 19.4534 2.20265 19.495 2.836L19.5 3V6C19.4998 6.38522 19.3514 6.75559 19.0856 7.03439C18.8198 7.31318 18.4569 7.47901 18.0721 7.49752C17.6873 7.51604 17.3102 7.38581 17.0188 7.13382C16.7274 6.88184 16.5442 6.52742 16.507 6.144L16.5 6V3.5H13C12.6148 3.49981 12.2444 3.35142 11.9656 3.08559C11.6868 2.81976 11.521 2.45686 11.5025 2.07209C11.484 1.68731 11.6142 1.31017 11.8662 1.0188C12.1182 0.727429 12.4726 0.544172 12.856 0.507L13 0.5H17Z" fill="#315D80"/>
</svg>
