<svg width="20" height="20" viewBox="0 0 20 20" fill="none" xmlns="http://www.w3.org/2000/svg">
<path d="M19.6868 0.122768C19.9323 0.301339 20.0328 0.539435 19.9881 0.837054L17.131 17.9799C17.0938 18.1957 16.9747 18.3631 16.7738 18.4821C16.6697 18.5417 16.5543 18.5714 16.4279 18.5714C16.346 18.5714 16.2567 18.5528 16.16 18.5156L11.1042 16.4509L8.40331 19.7433C8.26938 19.9144 8.08708 20 7.85643 20C7.7597 20 7.67786 19.9851 7.61089 19.9554C7.46952 19.9033 7.35606 19.8158 7.27049 19.6931C7.18493 19.5703 7.14214 19.4345 7.14214 19.2857V15.3906L16.785 3.57143L4.8542 13.8951L0.445716 12.0871C0.170418 11.9829 0.0216084 11.7783 -0.000713046 11.4732C-0.015594 11.1756 0.103454 10.9561 0.35643 10.8147L18.9279 0.100446C19.0395 0.0334821 19.1585 0 19.285 0C19.4338 0 19.5677 0.0409226 19.6868 0.122768Z" fill="#315D80"/>
</svg>
