<svg width="13" height="13" viewBox="0 0 13 13" fill="none" xmlns="http://www.w3.org/2000/svg">
<path d="M6.50019 11.7377C9.39332 11.7377 11.7387 9.39235 11.7387 6.49922C11.7387 3.60609 9.39332 1.26074 6.50019 1.26074C3.60706 1.26074 1.26172 3.60609 1.26172 6.49922C1.26172 9.39235 3.60706 11.7377 6.50019 11.7377Z" fill="#C9D7E5"/>
<path d="M6.5 12C9.53757 12 12 9.53757 12 6.5C12 3.46243 9.53757 1 6.5 1C3.46243 1 1 3.46243 1 6.5C1 9.53757 3.46243 12 6.5 12Z" stroke="#315D80" stroke-width="0.5" stroke-linejoin="round"/>
<path d="M6.49922 8.4252C7.56237 8.4252 8.42422 7.56334 8.42422 6.5002C8.42422 5.43705 7.56237 4.5752 6.49922 4.5752C5.43607 4.5752 4.57422 5.43705 4.57422 6.5002C4.57422 7.56334 5.43607 8.4252 6.49922 8.4252Z" fill="#315D80"/>
<path d="M6.49922 8.4252C7.56237 8.4252 8.42422 7.56334 8.42422 6.5002C8.42422 5.43705 7.56237 4.5752 6.49922 4.5752C5.43607 4.5752 4.57422 5.43705 4.57422 6.5002C4.57422 7.56334 5.43607 8.4252 6.49922 8.4252Z" fill="#D22F27"/>
</svg>
