<svg width="13" height="8" viewBox="0 0 13 8" fill="none" xmlns="http://www.w3.org/2000/svg">
<path d="M12.6945 0.766667C12.5957 0.708155 12.4836 0.677351 12.3695 0.677351C12.2554 0.677351 12.1433 0.708155 12.0445 0.766667L9.75 1.92667C9.73148 1.40905 9.51789 0.918982 9.15418 0.559626C8.79047 0.20027 8.30502 -0.00034785 7.8 4.52771e-07H1.95C1.43283 4.52771e-07 0.936838 0.210714 0.571142 0.585787C0.205446 0.96086 0 1.46957 0 2V6C0 6.53043 0.205446 7.03914 0.571142 7.41421C0.936838 7.78929 1.43283 8 1.95 8H7.8C8.30502 8.00035 8.79047 7.79973 9.15418 7.44037C9.51789 7.08102 9.73148 6.59095 9.75 6.07333L12.064 7.26C12.1526 7.30659 12.2504 7.33168 12.35 7.33333C12.4717 7.33373 12.5911 7.29909 12.6945 7.23333C12.7882 7.17329 12.8654 7.08974 12.9188 6.9906C12.9723 6.89145 13.0002 6.77996 13 6.66667V1.33333C13.0002 1.22004 12.9723 1.10855 12.9188 1.0094C12.8654 0.910255 12.7882 0.826714 12.6945 0.766667Z" fill="#315D80"/>
</svg>
