<svg width="18" height="17" viewBox="0 0 18 17" fill="none" xmlns="http://www.w3.org/2000/svg">
<path d="M0.0859579 0H7.35661L8.61669 5.41571L7.04053 6.92142C7.96685 8.29957 9.19319 9.47082 10.636 10.3554L12.2122 8.85051L17.8813 10.0543V17H17.0339C13.7717 17.0048 10.5781 16.1061 7.83962 14.4127C5.82049 13.1644 4.10097 11.5217 2.79423 9.59285C1.02161 6.97676 0.0808814 3.92585 0.0859579 0.809523V0ZM1.80363 1.61905C1.94615 4.14474 2.7785 6.59075 4.21786 8.7137C5.39436 10.4501 6.9423 11.9288 8.7599 13.0527C10.9822 14.4278 13.5426 15.223 16.1865 15.3591V11.3527L12.752 10.6242L10.9097 12.3849L10.3479 12.0797C8.21479 10.9216 6.44876 9.23445 5.23643 7.19666L4.91696 6.65994L6.76004 4.90004L5.99739 1.61905H1.80363Z" fill="white"/>
</svg>
