<svg width="22" height="16" viewBox="0 0 22 16" fill="none" xmlns="http://www.w3.org/2000/svg">
<path d="M2.35138 16C1.77565 16 1.28296 15.8043 0.873321 15.413C0.46368 15.0217 0.25851 14.5507 0.257812 14V2C0.257812 1.45 0.462982 0.979333 0.873321 0.588C1.28366 0.196666 1.77635 0.000666667 2.35138 0H19.0999C19.6756 0 20.1687 0.196 20.579 0.588C20.9894 0.98 21.1942 1.45067 21.1935 2V14C21.1935 14.55 20.9887 15.021 20.579 15.413C20.1694 15.805 19.6763 16.0007 19.0999 16H2.35138ZM10.7256 9L2.35138 4V14H19.0999V4L10.7256 9ZM10.7256 7L19.0999 2H2.35138L10.7256 7ZM2.35138 4V2V14V4Z" fill="#F5896C"/>
</svg>
