<svg width="22" height="18" viewBox="0 0 22 18" fill="none" xmlns="http://www.w3.org/2000/svg">
<path d="M0.171875 2C0.171875 1.46957 0.392447 0.960859 0.785067 0.585786C1.17769 0.210714 1.71019 0 2.26544 0H19.014C19.5692 0 20.1017 0.210714 20.4944 0.585786C20.887 0.960859 21.1075 1.46957 21.1075 2V13C21.1075 13.5304 20.887 14.0391 20.4944 14.4142C20.1017 14.7893 19.5692 15 19.014 15H14.2134L11.3798 17.707C11.1835 17.8945 10.9173 17.9998 10.6397 17.9998C10.3621 17.9998 10.0959 17.8945 9.89964 17.707L7.06599 15H2.26544C1.71019 15 1.17769 14.7893 0.785067 14.4142C0.392447 14.0391 0.171875 13.5304 0.171875 13V2ZM19.014 2H2.26544V13H7.49936C7.77696 13.0001 8.04317 13.1054 8.23944 13.293L10.6397 15.586L13.04 13.293C13.2363 13.1054 13.5025 13.0001 13.7801 13H19.014V2Z" fill="#ECC63D"/>
<path d="M12.2103 7.5C12.2103 7.89782 12.0449 8.27936 11.7504 8.56066C11.4559 8.84196 11.0566 9 10.6401 9C10.2237 9 9.82431 8.84196 9.52984 8.56066C9.23538 8.27936 9.06995 7.89782 9.06995 7.5C9.06995 7.10218 9.23538 6.72064 9.52984 6.43934C9.82431 6.15804 10.2237 6 10.6401 6C11.0566 6 11.4559 6.15804 11.7504 6.43934C12.0449 6.72064 12.2103 7.10218 12.2103 7.5ZM16.3974 7.5C16.3974 7.89782 16.232 8.27936 15.9375 8.56066C15.6431 8.84196 15.2437 9 14.8273 9C14.4108 9 14.0114 8.84196 13.717 8.56066C13.4225 8.27936 13.2571 7.89782 13.2571 7.5C13.2571 7.10218 13.4225 6.72064 13.717 6.43934C14.0114 6.15804 14.4108 6 14.8273 6C15.2437 6 15.6431 6.15804 15.9375 6.43934C16.232 6.72064 16.3974 7.10218 16.3974 7.5ZM8.02316 7.5C8.02316 7.89782 7.85773 8.27936 7.56327 8.56066C7.2688 8.84196 6.86942 9 6.45299 9C6.03655 9 5.63717 8.84196 5.34271 8.56066C5.04824 8.27936 4.88281 7.89782 4.88281 7.5C4.88281 7.10218 5.04824 6.72064 5.34271 6.43934C5.63717 6.15804 6.03655 6 6.45299 6C6.86942 6 7.2688 6.15804 7.56327 6.43934C7.85773 6.72064 8.02316 7.10218 8.02316 7.5Z" fill="#ECC63D"/>
</svg>
