<svg width="17" height="18" viewBox="0 0 17 18" fill="none" xmlns="http://www.w3.org/2000/svg">
<path d="M3.89931 8.1H5.67708V9.9H3.89931V8.1ZM16.3438 3.6V16.2C16.3438 17.19 15.5437 18 14.566 18H2.12153C1.65003 18 1.19785 17.8104 0.864449 17.4728C0.531051 17.1352 0.34375 16.6774 0.34375 16.2L0.352639 3.6C0.352639 2.61 1.13486 1.8 2.12153 1.8H3.01042V0H4.78819V1.8H11.8993V0H13.6771V1.8H14.566C15.5437 1.8 16.3438 2.61 16.3438 3.6ZM2.12153 5.4H14.566V3.6H2.12153V5.4ZM14.566 16.2V7.2H2.12153V16.2H14.566ZM11.0104 9.9H12.7882V8.1H11.0104V9.9ZM7.45486 9.9H9.23264V8.1H7.45486V9.9Z" fill="white"/>
</svg>
