<svg width="12" height="12" viewBox="0 0 12 12" fill="none" xmlns="http://www.w3.org/2000/svg">
<path d="M3.08333 5.4H4.25V6.6H3.08333V5.4ZM11.25 2.4V10.8C11.25 11.46 10.725 12 10.0833 12H1.91667C1.60725 12 1.3105 11.8736 1.09171 11.6485C0.872916 11.4235 0.75 11.1183 0.75 10.8L0.755833 2.4C0.755833 1.74 1.26917 1.2 1.91667 1.2H2.5V0H3.66667V1.2H8.33333V0H9.5V1.2H10.0833C10.725 1.2 11.25 1.74 11.25 2.4ZM1.91667 3.6H10.0833V2.4H1.91667V3.6ZM10.0833 10.8V4.8H1.91667V10.8H10.0833ZM7.75 6.6H8.91667V5.4H7.75V6.6ZM5.41667 6.6H6.58333V5.4H5.41667V6.6Z" fill="#315D80" fill-opacity="0.52"/>
</svg>
