<svg width="12" height="11" viewBox="0 0 12 11" fill="none" xmlns="http://www.w3.org/2000/svg">
<path fill-rule="evenodd" clip-rule="evenodd" d="M3.74012 0.208989C4.02809 0.0717602 4.34306 0.000531197 4.66208 0.000531197H9.24446C10.3001 0.000531197 11.1985 0.769389 11.3616 1.81236L11.898 5.24376C12.0605 6.28347 11.2567 7.22283 10.2043 7.22283H7.38968V9.24365C7.38968 10.013 6.76598 10.6367 5.9966 10.6367C5.49235 10.6367 5.02745 10.3642 4.7811 9.92423L3.00052 6.74417C2.89306 6.55226 2.83664 6.33598 2.83664 6.11604V1.45107C2.83664 0.955389 3.12165 0.50376 3.56918 0.290504L3.74012 0.208989ZM0.854021 6.58711C0.62752 6.58711 0.410297 6.49713 0.250137 6.33697C0.0899775 6.17681 0 5.95959 0 5.73309L4.27876e-07 1.35087C4.27876e-07 1.12433 0.0899775 0.907131 0.250137 0.746931C0.410296 0.586817 0.627519 0.496818 0.854021 0.496818L1.27965 0.496989C1.51628 0.497075 1.70804 0.68899 1.70804 0.925561V6.15872C1.70804 6.27242 1.66286 6.38145 1.58245 6.46183C1.50203 6.54221 1.39298 6.58734 1.27928 6.58729L0.854021 6.58711Z" fill="#F2727F"/>
</svg>
