<svg width="15" height="18" viewBox="0 0 15 18" fill="none" xmlns="http://www.w3.org/2000/svg">
<path d="M4.87656 16.5013V6.31381C3.66615 6.00825 2.67827 5.39714 1.91294 4.48047C1.1476 3.56381 0.691729 2.52214 0.545313 1.35547C0.516146 1.16103 0.589063 0.997974 0.764063 0.866308C0.939063 0.734641 1.14323 0.66853 1.37656 0.667974C1.6099 0.667419 1.81406 0.726586 1.98906 0.845474C2.16406 0.964363 2.26615 1.12742 2.29531 1.33464C2.45573 2.33464 2.90781 3.16797 3.65156 3.83464C4.39531 4.50131 5.31406 4.83464 6.40781 4.83464H8.59531C9.03281 4.83464 9.44115 4.91103 9.82031 5.06381C10.1995 5.21659 10.5422 5.43881 10.8484 5.73047L14.1953 8.91797C14.3557 9.07075 14.4359 9.2652 14.4359 9.50131C14.4359 9.73742 14.3557 9.93186 14.1953 10.0846C14.0349 10.2374 13.8307 10.3138 13.5828 10.3138C13.3349 10.3138 13.1307 10.2374 12.9703 10.0846L10.1266 7.37631V16.5013C10.1266 16.7374 10.0426 16.9355 9.87456 17.0955C9.70656 17.2555 9.4989 17.3352 9.25156 17.3346C9.00423 17.3341 8.79656 17.2541 8.62856 17.0946C8.46056 16.9352 8.37656 16.7374 8.37656 16.5013V12.3346H6.62656V16.5013C6.62656 16.7374 6.54256 16.9355 6.37456 17.0955C6.20656 17.2555 5.9989 17.3352 5.75156 17.3346C5.50423 17.3341 5.29656 17.2541 5.12856 17.0946C4.96056 16.9352 4.87656 16.7374 4.87656 16.5013ZM7.50156 4.00131C7.02031 4.00131 6.60848 3.83825 6.26606 3.51214C5.92365 3.18603 5.75215 2.79353 5.75156 2.33464C5.75098 1.87575 5.92248 1.48353 6.26606 1.15797C6.60965 0.832419 7.02148 0.669085 7.50156 0.667974C7.98165 0.666863 8.39377 0.830197 8.73794 1.15797C9.0821 1.48575 9.25331 1.87797 9.25156 2.33464C9.24981 2.79131 9.0786 3.18381 8.73794 3.51214C8.39727 3.84047 7.98515 4.00353 7.50156 4.00131Z" fill="#74738C"/>
</svg>
