<svg width="15" height="15" viewBox="0 0 15 15" fill="none" xmlns="http://www.w3.org/2000/svg">
<path d="M1.72275e-05 0H6.12858L7.19072 4.77857L5.86215 6.10714C6.64297 7.32315 7.67667 8.35661 8.89286 9.13713L10.2214 7.80928L15 8.87142V15H14.2857C11.536 15.0043 8.84404 14.2113 6.53572 12.7171C4.83376 11.6157 3.38434 10.1662 2.28287 8.46428C0.788693 6.15596 -0.00426185 3.46399 1.72275e-05 0.714285V0ZM1.44787 1.42857C1.56801 3.65712 2.26961 5.81537 3.48287 7.68856C4.47456 9.22065 5.77935 10.5254 7.31144 11.5171C9.18462 12.7304 11.3429 13.432 13.5714 13.5521V10.0171L10.6764 9.37427L9.12358 10.9278L8.65001 10.6586C6.85196 9.63666 5.36334 8.14804 4.34144 6.34999L4.07216 5.87642L5.62573 4.32357L4.98287 1.42857H1.44787Z" fill="#74738C"/>
</svg>
