<svg width="25" height="25" viewBox="0 0 25 25" fill="none" xmlns="http://www.w3.org/2000/svg">
<path d="M2.87126e-05 0H10.2143L11.9845 7.96428L9.77025 10.1786C11.0716 12.2052 12.7944 13.9277 14.8214 15.2286L17.0357 13.0155L25 14.7857V25H23.8095C19.2267 25.0071 14.7401 23.6855 10.8929 21.1952C8.05626 19.3594 5.64057 16.9437 3.80479 14.1071C1.31449 10.2599 -0.00710309 5.77331 2.87126e-05 1.19047V0ZM2.41312 2.38095C2.61334 6.0952 3.78268 9.69228 5.80478 12.8143C7.4576 15.3677 9.63226 17.5424 12.1857 19.1952C15.3077 21.2174 18.9048 22.3867 22.619 22.5869V16.6952L17.7941 15.6238L15.206 18.2131L14.4167 17.7643C11.4199 16.0611 8.9389 13.5801 7.23573 10.5833L6.78693 9.79404L9.37621 7.20594L8.30478 2.38095H2.41312Z" fill="white"/>
</svg>
