<svg width="20" height="13" viewBox="0 0 20 13" fill="none" xmlns="http://www.w3.org/2000/svg">
<path d="M13 4.66667L17.553 2.58033C17.7054 2.51052 17.8748 2.47756 18.045 2.48458C18.2152 2.49161 18.3806 2.53839 18.5256 2.62049C18.6706 2.70258 18.7902 2.81727 18.8733 2.95367C18.9563 3.09006 18.9999 3.24364 19 3.39983V9.60017C18.9999 9.75636 18.9563 9.90994 18.8733 10.0463C18.7902 10.1827 18.6706 10.2974 18.5256 10.3795C18.3806 10.4616 18.2152 10.5084 18.045 10.5154C17.8748 10.5224 17.7054 10.4895 17.553 10.4197L13 8.33333V4.66667ZM1 2.83333C1 2.3471 1.21071 1.88079 1.58579 1.53697C1.96086 1.19315 2.46957 1 3 1H11C11.5304 1 12.0391 1.19315 12.4142 1.53697C12.7893 1.88079 13 2.3471 13 2.83333V10.1667C13 10.6529 12.7893 11.1192 12.4142 11.463C12.0391 11.8068 11.5304 12 11 12H3C2.46957 12 1.96086 11.8068 1.58579 11.463C1.21071 11.1192 1 10.6529 1 10.1667V2.83333Z" stroke="white" stroke-width="2" stroke-linecap="round" stroke-linejoin="round"/>
</svg>
