<svg width="46" height="46" viewBox="0 0 46 46" fill="none" xmlns="http://www.w3.org/2000/svg">
<g filter="url(#filter0_ddi_4807_13013)">
<rect x="33" y="33" width="22" height="22" rx="11" transform="rotate(180 33 33)" fill="url(#paint0_linear_4807_13013)"/>
</g>
<path d="M24.5198 17.4606C24.6522 17.3282 24.8094 17.2232 24.9824 17.1515C25.1554 17.0799 25.3408 17.043 25.5281 17.043C25.7154 17.043 25.9008 17.0799 26.0738 17.1515C26.2468 17.2232 26.404 17.3282 26.5364 17.4606C26.6689 17.5931 26.7739 17.7503 26.8456 17.9233C26.9172 18.0963 26.9541 18.2817 26.9541 18.469C26.9541 18.6562 26.9172 18.8417 26.8456 19.0147C26.7739 19.1877 26.6689 19.3449 26.5364 19.4773L19.7302 26.2836L16.9573 27.0398L17.7135 24.2669L24.5198 17.4606Z" stroke="white" stroke-width="1.5" stroke-linecap="round" stroke-linejoin="round"/>
<defs>
<filter id="filter0_ddi_4807_13013" x="0" y="0" width="46" height="46" filterUnits="userSpaceOnUse" color-interpolation-filters="sRGB">
<feFlood flood-opacity="0" result="BackgroundImageFix"/>
<feColorMatrix in="SourceAlpha" type="matrix" values="0 0 0 0 0 0 0 0 0 0 0 0 0 0 0 0 0 0 127 0" result="hardAlpha"/>
<feOffset dx="-1" dy="-1"/>
<feGaussianBlur stdDeviation="5"/>
<feComposite in2="hardAlpha" operator="out"/>
<feColorMatrix type="matrix" values="0 0 0 0 1 0 0 0 0 0.666667 0 0 0 0 0.697916 0 0 0 0.5 0"/>
<feBlend mode="normal" in2="BackgroundImageFix" result="effect1_dropShadow_4807_13013"/>
<feColorMatrix in="SourceAlpha" type="matrix" values="0 0 0 0 0 0 0 0 0 0 0 0 0 0 0 0 0 0 127 0" result="hardAlpha"/>
<feOffset dx="1" dy="1"/>
<feGaussianBlur stdDeviation="6"/>
<feComposite in2="hardAlpha" operator="out"/>
<feColorMatrix type="matrix" values="0 0 0 0 0.854167 0 0 0 0 0.406125 0 0 0 0 0.384375 0 0 0 0.5 0"/>
<feBlend mode="normal" in2="effect1_dropShadow_4807_13013" result="effect2_dropShadow_4807_13013"/>
<feBlend mode="normal" in="SourceGraphic" in2="effect2_dropShadow_4807_13013" result="shape"/>
<feColorMatrix in="SourceAlpha" type="matrix" values="0 0 0 0 0 0 0 0 0 0 0 0 0 0 0 0 0 0 127 0" result="hardAlpha"/>
<feOffset dx="7" dy="7"/>
<feGaussianBlur stdDeviation="7.5"/>
<feComposite in2="hardAlpha" operator="arithmetic" k2="-1" k3="1"/>
<feColorMatrix type="matrix" values="0 0 0 0 1 0 0 0 0 0.689291 0 0 0 0 0.670833 0 0 0 1 0"/>
<feBlend mode="normal" in2="shape" result="effect3_innerShadow_4807_13013"/>
</filter>
<linearGradient id="paint0_linear_4807_13013" x1="59.7414" y1="113.356" x2="19.7403" y2="105.119" gradientUnits="userSpaceOnUse">
<stop stop-color="#F8B195"/>
<stop offset="0.808768" stop-color="#F2727F"/>
</linearGradient>
</defs>
</svg>
