<svg width="21" height="24" viewBox="0 0 21 24" fill="none" xmlns="http://www.w3.org/2000/svg">
<path d="M20.336 9.66456C20.3334 9.54691 20.295 9.43278 20.2258 9.33712L20.1907 9.28062C19.99 8.96853 19.7522 8.68141 19.4823 8.42542C19.0537 8.0286 18.5889 7.67183 18.094 7.35964C17.7527 7.13107 17.4919 6.83702 17.4387 6.42355C17.3978 6.09491 17.2277 5.79549 16.9652 5.59018C15.4538 4.31147 13.7995 3.20812 12.0347 2.30166C11.9955 2.28861 11.9606 2.26521 11.9338 2.23398C11.9071 2.20275 11.8895 2.16487 11.8829 2.12445C12.0106 2.09285 12.1408 2.07181 12.2721 2.06153C12.3201 2.06153 12.3681 2.06153 12.4174 2.06153C12.8658 2.33581 13.2953 2.63908 13.7033 2.96938C13.5845 2.61591 13.3612 2.3059 13.0623 2.07951C13.3218 2.10519 13.5943 2.14757 13.8603 2.18609H13.8771C14.0276 2.28753 14.1807 2.38512 14.3274 2.48785C14.892 2.87861 15.4343 3.3 15.9518 3.7501C15.7754 3.18538 15.4482 2.67829 15.0046 2.2824C15.1097 2.3543 15.2187 2.41979 15.3212 2.4994C15.7266 2.80612 16.0857 3.16845 16.3878 3.57546C16.1283 2.5482 15.3044 1.66861 14.3364 1.20377C13.8908 0.973042 13.4191 0.795454 12.9312 0.67473C13.7282 0.764656 14.5158 0.923198 15.2849 1.14855C13.7218 0.273389 11.9289 -0.116299 10.139 0.0301233C8.34611 0.176272 6.64536 0.878113 5.27864 2.03585C2.70526 3.77719 0.908921 6.43299 0.263013 9.45122C-0.382895 12.4694 0.171312 15.6179 1.81044 18.2422C1.84807 18.309 1.88829 18.3706 1.92981 18.4374C3.20182 20.3973 5.0177 21.9527 7.16 22.9175L7.20152 22.9471L7.18725 22.9304C8.75466 23.6346 10.456 23.9993 12.1774 24C12.6112 23.9961 13.0444 23.9673 13.4749 23.914L13.4645 23.9217C13.4645 23.9217 14.5194 23.8292 14.9995 23.6148C14.9995 23.6148 15.1785 20.4315 14.2988 19.2335V19.2553C13.9393 18.5332 13.4643 17.8733 12.8923 17.301C12.8858 17.2945 12.8716 17.301 12.8547 17.292C13.5268 19.1012 13.772 20.9285 13.2141 22.8045C13.222 21.931 13.0544 21.0646 12.7211 20.2556C12.3991 19.4851 12.0042 18.7465 11.5416 18.0496C10.9175 17.0788 10.2727 16.1235 9.70438 15.1168C8.94795 13.7762 8.32515 12.3842 7.98651 10.8793C7.92951 10.6866 7.93633 10.481 8.00597 10.2925C8.4562 11.1913 8.84415 12.1005 9.5422 12.826C10.2402 13.5515 11.0797 14.0574 11.988 14.4773C10.95 13.0481 9.98205 11.5894 9.39948 9.91367C9.69222 10.1512 9.96157 10.4156 10.2039 10.7034C11.0149 11.6382 12.0425 12.2699 13.1505 12.7939L13.1713 12.7656C13.0857 12.6732 13 12.5794 12.9118 12.4895C12.0475 11.6237 11.2988 10.6519 10.684 9.59779C10.6619 9.55926 10.6217 9.52459 10.6334 9.46938C10.671 9.48607 10.6996 9.49763 10.7281 9.51175C11.1163 9.73807 11.4775 10.0068 11.805 10.313C12.0301 10.5162 12.2814 10.6889 12.5524 10.8266C12.5991 10.8498 12.6445 10.8844 12.6938 10.8177C12.7431 10.7509 12.7262 10.7175 12.6873 10.6649C12.529 10.4453 12.3772 10.2206 12.215 10.0036C12.1528 9.91752 12.193 9.89698 12.2708 9.88927C12.3184 9.8876 12.3658 9.89525 12.4103 9.91177C12.4548 9.9283 12.4956 9.95338 12.5303 9.98558C12.8306 10.2188 13.1609 10.4114 13.5125 10.5583C14.0722 10.8005 14.6438 11.0148 15.2252 11.2003C15.4743 11.2876 15.4925 11.3827 15.3251 11.5855C15.1144 11.8341 14.9497 12.1175 14.8386 12.4228C14.6686 12.8902 14.7205 13.3216 15.0734 13.7068C15.2675 13.9037 15.4996 14.0601 15.7559 14.1665C15.8856 14.2256 16.0154 14.2782 16.1659 14.3399L15.9648 14.4593C15.564 14.6738 15.2012 14.9514 14.8905 15.2811C14.7671 15.4076 14.6694 15.5562 14.6024 15.719C14.5632 15.806 14.5558 15.9037 14.5813 15.9955C14.6069 16.0873 14.6639 16.1675 14.7426 16.2223C14.8333 16.2903 14.9328 16.3461 15.0384 16.388C15.7876 16.6828 16.594 16.8083 17.3985 16.7552C17.5304 16.75 17.6595 16.7164 17.777 16.6567C17.8944 16.5971 17.9972 16.5128 18.0784 16.4098C18.4571 15.9659 18.7453 15.4535 18.927 14.901C18.9918 14.7097 19.0489 14.5158 19.0995 14.3219C19.1657 14.0805 19.0995 13.9816 18.8478 13.9585C18.6387 13.9568 18.4305 13.9862 18.2302 14.0458C18.0241 14.106 17.8036 14.0965 17.6035 14.0189C17.926 13.746 18.3228 13.5735 18.744 13.5232C19.18 13.4757 19.5069 13.3036 19.7145 12.9081C19.9278 12.5228 20.0988 12.116 20.2245 11.6947C20.3215 11.3639 20.3687 11.0208 20.3646 10.6764C20.3848 10.5424 20.3965 10.4073 20.3996 10.2719C20.4029 10.0894 20.3846 9.90709 20.3451 9.72876L20.336 9.66456ZM3.05473 7.6691C3.10144 7.56637 3.15075 7.46365 3.20005 7.36092C3.20005 7.54455 3.21173 7.72817 3.23119 7.90922C3.24157 8.01067 3.25844 8.10954 3.27271 8.2097C3.24708 8.21599 3.22399 8.22988 3.20654 8.2495C2.95499 8.47459 2.72079 8.71795 2.50589 8.97758C2.68235 8.53757 2.8653 8.10141 3.05473 7.6691ZM9.42153 23.1358C8.71829 22.5631 8.04619 21.9545 7.34554 21.3741C7.25861 21.3022 7.17298 21.2277 7.08604 21.1558C6.50681 20.5085 5.98094 19.8163 5.51348 19.0858C5.74182 19.6885 6.04704 20.2598 6.42173 20.786C6.39188 20.7949 7.12108 21.74 7.09123 21.7619C7.09123 21.7619 6.22062 21.003 6.24267 21.1095C5.29421 19.8743 4.51701 18.5131 3.59579 17.1815C3.86786 18.1072 4.23751 19.002 4.69866 19.8511C4.43916 19.5087 4.19307 19.1539 3.96038 18.7866C3.2286 17.577 2.66289 16.2621 2.14389 14.8997C2.33463 16.4997 2.79264 18.1202 3.70867 19.5224C3.97401 19.9283 4.26888 20.3146 4.59096 20.6781C3.77271 19.9823 3.05536 19.1782 2.45918 18.2884C2.31776 18.0034 2.18282 17.7157 2.05826 17.4242C1.67333 16.5351 1.36938 15.6138 1.15001 14.6712C1.10536 14.9257 1.08064 15.1833 1.07606 15.4416C0.562915 13.8766 0.404325 12.219 0.611554 10.5865C0.583608 11.597 0.731518 12.6047 1.04881 13.5656C1.12406 13.2304 1.2071 12.903 1.29404 12.582C1.05659 10.7188 1.39784 8.76699 2.33203 7.1529C1.80251 9.44498 1.6622 11.8083 1.91683 14.146C2.16215 15.0759 2.56535 15.9578 3.10923 16.754C2.80416 15.7392 2.55981 14.7076 2.37744 13.6645C2.4074 13.6999 2.43555 13.7367 2.46178 13.7749C2.40658 13.4544 2.42476 13.1257 2.51498 12.8131C2.53055 12.8889 2.54093 12.9415 2.5526 12.9916C2.61748 13.2715 2.63045 13.5617 2.73296 13.8314C3.25195 15.2066 4.04861 16.4239 4.99059 17.5462C5.09309 17.6746 5.20598 17.7825 5.30978 17.9032L5.42396 18.0316C7.12497 19.9744 9.04137 21.7028 10.9876 23.3991C10.9876 23.3991 10.9967 23.4119 11.0019 23.4157C10.4692 23.3584 9.9412 23.2649 9.42153 23.1358ZM9.20615 19.4878C8.82598 19.0486 8.46787 18.5966 8.10847 18.1459C8.34707 18.5944 8.62082 19.0238 8.92719 19.43C9.16463 19.6444 9.40856 19.8511 9.66416 20.0438C9.87306 20.2877 10.0794 20.533 10.3051 20.7654C10.3547 20.8014 10.3926 20.8509 10.4141 20.9079C10.3479 20.8925 10.2844 20.8707 10.226 20.8514C10.8471 21.4222 11.5459 21.9041 12.302 22.2832C11.5291 22.1422 10.7922 21.8508 10.1341 21.4258C9.4759 21.0009 8.90955 20.4508 8.46787 19.8075C8.28752 19.6881 8.10328 19.5764 7.92552 19.4531C7.40808 18.8473 6.92593 18.2127 6.48141 17.5526C5.56435 16.1972 4.8155 14.7374 4.25102 13.2048C4.44321 14.8539 5.02456 16.4352 5.94814 17.821C5.43444 17.3127 4.99037 16.7398 4.6273 16.117C4.61692 16.0991 4.60913 16.0798 4.59875 16.0618C4.29218 15.3101 4.04026 14.5377 3.84491 13.7505C3.4787 12.2543 3.32671 10.7146 3.39338 9.17661C3.38933 9.18798 3.38586 9.19955 3.383 9.21128C3.36743 9.10855 3.36743 9.00326 3.35705 8.89925C3.15548 9.59733 3.03533 10.316 2.99894 11.0411C2.92801 10.4915 2.87871 9.93507 2.85103 9.37179C2.97169 9.08415 3.09366 8.7978 3.20395 8.50632C3.23614 8.42915 3.26259 8.34975 3.28309 8.26876C3.49245 9.48027 3.95659 10.6348 4.64546 11.6574C4.28216 10.3734 3.95519 9.11882 3.82544 7.85272C3.76228 7.24044 3.7536 6.62386 3.79949 6.01007C4.18004 5.05643 4.79824 4.2136 5.59652 3.56005C5.07976 4.49727 4.6289 5.46862 4.24713 6.4672C4.88346 5.39482 5.59085 4.3653 6.36464 3.38542L6.593 3.16969C6.60596 3.16635 6.61961 3.16661 6.63244 3.17047C6.64526 3.17432 6.65676 3.18161 6.66566 3.19152C6.52293 3.26728 6.4892 3.40982 6.42303 3.52667C6.19232 3.89285 6.00593 4.28462 5.8677 4.69389C5.67897 5.42177 5.72433 6.18978 5.99745 6.89095C6.26054 7.57103 6.60464 8.21764 7.02247 8.81707C7.04971 8.85944 7.07566 8.9031 7.11199 8.96345C6.71276 8.87624 6.34661 8.67903 6.05584 8.3946C5.72322 7.77399 5.48535 7.10803 5.35 6.41841C5.31846 7.20294 5.5023 7.98128 5.88197 8.67068C5.93188 8.94188 5.99817 9.20988 6.08049 9.47323C6.31274 10.2206 6.6449 10.9281 6.92256 11.6562C6.96291 11.7282 6.98516 11.8088 6.98743 11.8911C6.5772 11.5527 6.22149 11.1543 5.93257 10.7098C5.66365 10.2896 5.42601 9.85056 5.22155 9.39619C4.9705 8.55273 4.77076 7.69514 4.6234 6.82803C4.33666 9.28704 5.1424 11.8873 6.73313 13.8147C6.72857 13.9994 6.73507 14.1842 6.75259 14.3681C6.76297 14.4734 6.78113 14.5762 6.7967 14.6802C6.19316 13.8766 5.64107 13.0365 5.1437 12.1647C5.41821 13.6542 6.13668 15.0284 7.20671 16.1106C7.23136 16.171 7.25342 16.239 7.28197 16.293C7.33257 16.4047 7.38966 16.5125 7.44286 16.623C7.44286 16.587 7.44286 16.5498 7.44286 16.5138C7.48048 16.6422 7.53109 16.7591 7.5726 16.8836C8.03152 17.8015 8.57855 18.6735 9.20615 19.4878ZM8.2979 4.02104C7.96704 4.38443 7.89179 4.83129 7.85935 5.29227C7.84917 5.59274 7.86567 5.89351 7.90865 6.19113C7.67494 5.97836 7.48772 5.72049 7.35852 5.4334C7.22932 5.14631 7.16088 4.83608 7.15741 4.52183C7.14184 3.9029 7.57001 3.67305 8.02024 3.65764C8.0929 3.65691 8.16449 3.67506 8.22784 3.71029C8.38873 3.79119 8.41857 3.89391 8.2979 4.02104ZM14.2664 6.92947C14.0237 7.01551 13.9692 7.10924 14.0069 7.35964C14.0328 7.50217 14.0769 7.64214 14.1198 7.8142C13.137 7.36338 12.1033 7.03016 11.0408 6.82161C12.036 6.2502 13.8006 6.17957 14.7413 6.78309C14.5817 6.83317 14.4195 6.87426 14.2664 6.92947ZM20.205 10.5454C20.0607 10.6609 19.9362 10.7988 19.8365 10.9538C19.7398 11.1008 19.6271 11.2368 19.5005 11.3595C19.4369 11.4173 19.4018 11.4173 19.3707 11.3287C19.3188 11.1823 19.2604 11.036 19.1994 10.8896C19.178 10.8228 19.1362 10.7642 19.0797 10.7219C19.0233 10.6795 18.9549 10.6556 18.8841 10.6533C18.7438 10.6459 18.6039 10.6313 18.4651 10.6096C18.2056 10.5673 17.9681 10.1576 18.0135 9.83919L18.1588 9.87129C18.7418 10.0191 19.3498 10.0432 19.9429 9.94192C20.0405 9.92969 20.1346 9.89779 20.2193 9.84818C20.2089 9.97659 20.2063 10.1243 20.1985 10.2668C20.1972 10.3528 20.1998 10.4491 20.205 10.5454Z" fill="white"/>
</svg>
