<svg width="27" height="30" viewBox="0 0 27 30" fill="none" xmlns="http://www.w3.org/2000/svg">
<path d="M16.1641 0.0390625V7.36599C16.1628 7.66181 16.2202 7.95495 16.3328 8.2285C16.4454 8.50204 16.6111 8.75058 16.8203 8.95976C17.0295 9.16894 17.278 9.33462 17.5516 9.44725C17.8251 9.55989 18.1183 9.61723 18.4141 9.61599H25.741C25.6072 8.56654 25.1266 7.59187 24.3756 6.84676L18.9333 1.40445C18.1884 0.653206 17.2136 0.172602 16.1641 0.0390625Z" fill="#315D80"/>
<path d="M0 25C0.000533186 26.3259 0.530606 27.5974 1.47372 28.5349C2.41684 29.4725 3.69582 29.9995 5.02959 30H21.1243C22.458 29.9995 23.737 29.4725 24.6801 28.5349C25.6232 27.5974 26.1533 26.3259 26.1538 25V12H18.4485C17.8751 12.0005 17.3071 11.8886 16.7772 11.6707C16.2473 11.4528 15.7658 11.1331 15.3603 10.73C14.9548 10.3269 14.6333 9.84826 14.4141 9.32147C14.1949 8.79468 14.0823 8.23008 14.0828 7.66V0H5.02959C3.69582 0.00053005 2.41684 0.527485 1.47372 1.46505C0.530606 2.40262 0.000533186 3.67408 0 5V25ZM7.04142 12H11.0651C11.3319 12 11.5877 12.1054 11.7764 12.2929C11.965 12.4804 12.071 12.7348 12.071 13C12.071 13.2652 11.965 13.5196 11.7764 13.7071C11.5877 13.8946 11.3319 14 11.0651 14H7.04142C6.77463 14 6.51878 13.8946 6.33013 13.7071C6.14148 13.5196 6.0355 13.2652 6.0355 13C6.0355 12.7348 6.14148 12.4804 6.33013 12.2929C6.51878 12.1054 6.77463 12 7.04142 12ZM7.04142 17H19.1124C19.3792 17 19.6351 17.1054 19.8237 17.2929C20.0124 17.4804 20.1183 17.7348 20.1183 18C20.1183 18.2652 20.0124 18.5196 19.8237 18.7071C19.6351 18.8946 19.3792 19 19.1124 19H7.04142C6.77463 19 6.51878 18.8946 6.33013 18.7071C6.14148 18.5196 6.0355 18.2652 6.0355 18C6.0355 17.7348 6.14148 17.4804 6.33013 17.2929C6.51878 17.1054 6.77463 17 7.04142 17ZM7.04142 22H19.1124C19.3792 22 19.6351 22.1054 19.8237 22.2929C20.0124 22.4804 20.1183 22.7348 20.1183 23C20.1183 23.2652 20.0124 23.5196 19.8237 23.7071C19.6351 23.8946 19.3792 24 19.1124 24H7.04142C6.77463 24 6.51878 23.8946 6.33013 23.7071C6.14148 23.5196 6.0355 23.2652 6.0355 23C6.0355 22.7348 6.14148 22.4804 6.33013 22.2929C6.51878 22.1054 6.77463 22 7.04142 22Z" fill="#315D80"/>
</svg>
