<svg width="15" height="17" viewBox="0 0 15 17" fill="none" xmlns="http://www.w3.org/2000/svg">
<path d="M3.7525 9.3517C3.64199 9.3517 3.53601 9.39648 3.45787 9.47618C3.37973 9.55588 3.33583 9.66398 3.33583 9.7767V12.3267C3.33583 12.4394 3.37973 12.5475 3.45787 12.6272C3.53601 12.7069 3.64199 12.7517 3.7525 12.7517C3.86301 12.7517 3.96899 12.7069 4.04713 12.6272C4.12527 12.5475 4.16917 12.4394 4.16917 12.3267V11.9017H4.58333C4.91485 11.9017 5.2328 11.7674 5.46722 11.5283C5.70164 11.2892 5.83333 10.9649 5.83333 10.6267C5.83333 10.2885 5.70164 9.96425 5.46722 9.72514C5.2328 9.48603 4.91485 9.3517 4.58333 9.3517H3.7525ZM4.58333 11.0517H4.16917V10.2017H4.58333C4.69384 10.2017 4.79982 10.2465 4.87796 10.3262C4.9561 10.4059 5 10.514 5 10.6267C5 10.7394 4.9561 10.8475 4.87796 10.9272C4.79982 11.0069 4.69384 11.0517 4.58333 11.0517ZM9.99833 9.7767C9.99833 9.66398 10.0422 9.55588 10.1204 9.47618C10.1985 9.39648 10.3045 9.3517 10.415 9.3517H11.6692C11.7797 9.3517 11.8857 9.39648 11.9638 9.47618C12.0419 9.55588 12.0858 9.66398 12.0858 9.7767C12.0858 9.88942 12.0419 9.99752 11.9638 10.0772C11.8857 10.1569 11.7797 10.2017 11.6692 10.2017H10.8308L10.83 11.0534H11.6692C11.7797 11.0534 11.8857 11.0982 11.9638 11.1779C12.0419 11.2576 12.0858 11.3657 12.0858 11.4784C12.0858 11.5911 12.0419 11.6992 11.9638 11.7789C11.8857 11.8586 11.7797 11.9034 11.6692 11.9034H10.83L10.8317 12.3258C10.8318 12.3817 10.8211 12.4369 10.8003 12.4886C10.7794 12.5402 10.7488 12.5871 10.7102 12.6266C10.6322 12.7065 10.5263 12.7515 10.4158 12.7517C10.3053 12.7519 10.1993 12.7074 10.121 12.6278C10.0427 12.5483 9.99855 12.4403 9.99833 12.3276L9.99583 11.4792V11.4776L9.99833 9.7767ZM7.08333 9.3517H7.49833C7.94036 9.3517 8.36428 9.53081 8.67684 9.84962C8.9894 10.1684 9.165 10.6008 9.165 11.0517C9.165 11.5026 8.9894 11.935 8.67684 12.2538C8.36428 12.5726 7.94036 12.7517 7.49833 12.7517H7.08333C6.97283 12.7517 6.86685 12.7069 6.7887 12.6272C6.71057 12.5475 6.66667 12.4394 6.66667 12.3267V9.7767C6.66667 9.66398 6.71057 9.55588 6.7887 9.47618C6.86685 9.39648 6.97283 9.3517 7.08333 9.3517ZM7.5 11.9017C7.72101 11.9017 7.93297 11.8121 8.08926 11.6527C8.24554 11.4933 8.33333 11.2771 8.33333 11.0517C8.33333 10.8263 8.24554 10.6101 8.08926 10.4507C7.93297 10.2913 7.72101 10.2017 7.5 10.2017V11.9017ZM7.5 5.1V0H2.5C2.05797 0 1.63405 0.179107 1.32149 0.497918C1.00893 0.81673 0.833333 1.24913 0.833333 1.7V7.3678C0.340833 7.60665 0 8.1192 0 8.7125V13.3875C0 13.9808 0.340833 14.4925 0.833333 14.7322V15.3C0.833333 15.7509 1.00893 16.1833 1.32149 16.5021C1.63405 16.8209 2.05797 17 2.5 17H12.5C12.942 17 13.3659 16.8209 13.6785 16.5021C13.9911 16.1833 14.1667 15.7509 14.1667 15.3V14.7322C14.6592 14.4934 15 13.9808 15 13.3875V8.7125C15 8.1192 14.6592 7.6075 14.1667 7.3678V6.8H9.16667C8.72464 6.8 8.30072 6.62089 7.98816 6.30208C7.67559 5.98327 7.5 5.55087 7.5 5.1ZM1.45833 8.5H13.5417C13.5969 8.5 13.6499 8.52239 13.689 8.56224C13.7281 8.60209 13.75 8.65614 13.75 8.7125V13.3875C13.75 13.4439 13.7281 13.4979 13.689 13.5378C13.6499 13.5776 13.5969 13.6 13.5417 13.6H1.45833C1.40308 13.6 1.35009 13.5776 1.31102 13.5378C1.27195 13.4979 1.25 13.4439 1.25 13.3875V8.7125C1.25 8.65614 1.27195 8.60209 1.31102 8.56224C1.35009 8.52239 1.40308 8.5 1.45833 8.5ZM8.75 5.1V0.425L13.75 5.525H9.16667C9.05616 5.525 8.95018 5.48022 8.87204 5.40052C8.7939 5.32082 8.75 5.21272 8.75 5.1Z" fill="#315D80"/>
</svg>
