<svg width="23" height="16" viewBox="0 0 23 16" fill="none" xmlns="http://www.w3.org/2000/svg">
<path d="M9.20073 6.85706H5.86688L5.86803 6.84677C6.01819 6.11605 6.31208 5.42199 6.73283 4.80443C7.35895 3.88762 8.2372 3.16913 9.26283 2.73465C9.61013 2.58836 9.97238 2.47635 10.3415 2.40207C11.1073 2.24777 11.8965 2.24777 12.6622 2.40207C13.7628 2.62618 14.7726 3.16713 15.566 3.95754L17.1944 2.34378C16.4605 1.6142 15.5921 1.03178 14.6368 0.628296C14.1495 0.423295 13.643 0.267088 13.1245 0.161996C12.0548 -0.0539986 10.9524 -0.0539986 9.88268 0.161996C9.36386 0.267524 8.8569 0.42411 8.36928 0.629439C6.93239 1.23529 5.70235 2.24102 4.82728 3.52553C4.23835 4.39167 3.82651 5.36443 3.61518 6.38847C3.58298 6.54277 3.56573 6.70048 3.54273 6.85706H0.000732422L4.60073 11.4286L9.20073 6.85706ZM13.8007 9.14285H17.1346L17.1334 9.15199C16.833 10.6169 15.9641 11.9053 14.715 12.7384C14.0938 13.1569 13.3953 13.449 12.6599 13.5978C11.8945 13.7521 11.1058 13.7521 10.3404 13.5978C9.60511 13.4486 8.90673 13.1565 8.28533 12.7384C7.98015 12.5332 7.69521 12.2998 7.43433 12.0412L5.80823 13.6573C6.54252 14.3867 7.41125 14.9687 8.36698 15.3716C8.85458 15.5773 9.36403 15.7339 9.87923 15.8379C10.9485 16.054 12.0506 16.054 13.1199 15.8379C15.1814 15.4127 16.9946 14.2052 18.1742 12.4721C18.7625 11.6066 19.174 10.6346 19.3851 9.61143C19.4162 9.45714 19.4346 9.29942 19.4576 9.14285H23.0007L18.4007 4.57128L13.8007 9.14285Z" fill="#315D80"/>
</svg>
