<svg width="10" height="13" viewBox="0 0 10 13" fill="none" xmlns="http://www.w3.org/2000/svg">
<path fill-rule="evenodd" clip-rule="evenodd" d="M9.875 3.19429L7.14167 0.13L6.85 0H0.416667L0 0.464286V5.57143H0.833333V0.928571H5.83333V4.17857L6.25 4.64286H9.16667V5.57143H10V3.52857L9.875 3.19429ZM6.66667 3.71429V0.928571L9.16667 3.71429H6.66667ZM0.416667 6.5L0 6.96429V12.5357L0.416667 13H9.58333L10 12.5357V6.96429L9.58333 6.5H0.416667ZM9.16667 11.1429V12.0714H0.833333V7.42857H9.16667V11.1429ZM2.5 10.2143H2.23333V11.1429H1.66667V8.35714H2.55C3.175 8.35714 3.49167 8.69143 3.49167 9.28571C3.49328 9.41202 3.47027 9.53721 3.42423 9.65263C3.37819 9.76806 3.31022 9.87098 3.225 9.95429C3.01848 10.1337 2.76164 10.2258 2.5 10.2143ZM2.45 8.86786H2.23333V9.73143H2.45C2.75 9.73143 2.9 9.58286 2.9 9.295C2.9 9.00714 2.75 8.86786 2.45 8.86786ZM5.83333 10.7529C5.95641 10.6178 6.05264 10.4554 6.1158 10.2763C6.17897 10.0971 6.20765 9.90515 6.2 9.71286C6.2 8.78429 5.75833 8.35714 4.86667 8.35714H3.98333V11.1429H4.86667C5.04294 11.1524 5.21915 11.1228 5.38509 11.0558C5.55103 10.9889 5.70339 10.8859 5.83333 10.7529ZM4.54167 10.6321V8.86786H4.81667C4.92295 8.86033 5.0295 8.87704 5.1298 8.91695C5.2301 8.95687 5.32204 9.01915 5.4 9.1C5.47063 9.18265 5.5255 9.28039 5.56131 9.38731C5.59712 9.49424 5.61311 9.60814 5.60833 9.72214C5.62082 9.96691 5.54593 10.2072 5.4 10.3907C5.32371 10.4721 5.23344 10.5354 5.13463 10.5769C5.03582 10.6184 4.9305 10.6372 4.825 10.6321H4.54167ZM8.25 10.0657H7.44167V11.1429H6.875V8.35714H8.325V8.86786H7.44167V9.555H8.25V10.0657Z" fill="white"/>
</svg>
