<svg width="52" height="52" viewBox="0 0 52 52" fill="none" xmlns="http://www.w3.org/2000/svg">
<g clip-path="url(#clip0_9_46205)">
<path d="M0 12.1875H52V15.2344H0V12.1875Z" fill="#6B5E7A"/>
<path d="M0 6.09375H52V9.14062H0V6.09375Z" fill="#6B5E7A"/>
<path d="M0 18.2812H52V21.3281H0V18.2812Z" fill="#6B5E7A"/>
<path d="M0 0H52V3.04688H0V0Z" fill="#6B5E7A"/>
<path d="M44.3828 24.375H36.6574C36.5342 25.2407 36.3079 26.0735 35.9909 26.8606L38.8117 28.4892L37.2883 31.1278L34.464 29.4972C33.9323 30.1729 33.3215 30.7837 32.6458 31.3154L34.2764 34.1396L31.6378 35.6631L30.0093 32.8423C29.2222 33.1592 28.3894 33.3856 27.5236 33.5087V36.7656H24.4768V33.5089C23.611 33.3857 22.7781 33.1594 21.991 32.8425L20.3625 35.6633L17.7239 34.1398L19.3545 31.3156C18.6788 30.7838 18.068 30.1731 17.5363 29.4974L14.712 31.128L13.1886 28.4894L16.0094 26.8608C15.6924 26.0737 15.4661 25.2409 15.3429 24.3751H7.61719V44.3829H44.3828V24.375Z" fill="#F1D15B"/>
<path d="M26.0006 30.5703C29.7353 30.5703 32.8583 27.904 33.5676 24.375H18.4336C19.1429 27.904 22.2659 30.5703 26.0006 30.5703Z" fill="#F1D15B"/>
<path d="M47.4297 47.4297H4.57031V24.375H0V52H52V24.375H47.4297V47.4297Z" fill="#6B5E7A"/>
</g>
<defs>
<clipPath id="clip0_9_46205">
<rect width="52" height="52" fill="white"/>
</clipPath>
</defs>
</svg>
