<svg width="53" height="52" viewBox="0 0 53 52" fill="none" xmlns="http://www.w3.org/2000/svg">
<path fill-rule="evenodd" clip-rule="evenodd" d="M0.00629425 40.2781C0.00355721 40.2316 0.00082016 40.1851 0.00082016 40.1385V7.62211C0.00082016 5.59958 0.805452 3.66189 2.23408 2.23326C3.66545 0.801895 5.60314 0 7.62566 0H8.79977C13.009 0 16.4219 3.41284 16.4219 7.62211V37.4017C16.4219 37.4756 16.4191 37.5467 16.4109 37.6179C16.4191 37.7575 16.4219 37.8998 16.4219 38.0421C16.4219 40.4587 14.4623 42.4211 12.0429 42.4211C11.0358 42.4211 10.2202 41.6027 10.2202 40.5956C10.2202 39.5884 11.0358 38.7701 12.0429 38.7701C12.448 38.7701 12.7737 38.4444 12.7737 38.0421C12.7737 36.2276 11.304 34.7579 9.48945 34.7579C6.26545 34.7579 3.65177 37.3716 3.65177 40.5956C3.65177 44.8787 7.12208 48.3491 11.4052 48.3491C12.4124 48.3491 13.2307 49.1674 13.2307 50.1745C13.2307 51.1817 12.4124 52 11.4052 52C5.10777 52 0.00082016 46.8931 0.00082016 40.5956C0.00082016 40.4888 0.00355721 40.3848 0.00629425 40.2781Z" fill="#F1D15B"/>
<path fill-rule="evenodd" clip-rule="evenodd" d="M20.0803 9.96289H46.5463C49.5694 9.96289 52.0226 12.4123 52.0226 15.4351V46.4464C52.0226 49.4693 49.5694 51.9187 46.5463 51.9187H16.5735C16.7761 51.3473 16.887 50.7339 16.887 50.0946C16.887 48.2326 15.9539 46.5883 14.5332 45.5993C17.7532 44.5545 20.0803 41.5316 20.0803 37.9634C20.0803 37.8395 20.0784 37.7157 20.0746 37.5918C20.0784 37.5039 20.0803 37.414 20.0803 37.3261V9.96289Z" fill="#F2727F"/>
</svg>
