<svg width="52" height="52" viewBox="0 0 52 52" fill="none" xmlns="http://www.w3.org/2000/svg">
<g clip-path="url(#clip0_9_46148)">
<path d="M12.2351 22.9406C12.2351 19.5673 14.9794 16.823 18.3527 16.823V13.7641C14.9794 13.7641 12.2351 11.0198 12.2351 7.64648H9.17624C9.17624 11.0198 6.43186 13.7641 3.05859 13.7641V16.823C6.43186 16.823 9.17624 19.5673 9.17624 22.9406H12.2351Z" fill="#6B5E7A"/>
<path d="M48.9406 6.11765C45.5673 6.11765 42.823 3.37327 42.823 0H39.7641C39.7641 3.37327 37.0198 6.11765 33.6465 6.11765V9.17647C37.0198 9.17647 39.7641 11.9208 39.7641 15.2941H42.823C42.823 11.9208 45.5673 9.17647 48.9406 9.17647V6.11765Z" fill="#6B5E7A"/>
<path d="M22.9414 0H29.0591V22.9412H22.9414V0Z" fill="#9BB997"/>
<path d="M41.2949 19.8828H44.3537V22.9416H41.2949V19.8828Z" fill="#6B5E7A"/>
<path d="M47.4121 26H50.4709V29.0588H47.4121V26Z" fill="#6B5E7A"/>
<path d="M13.7637 1.5293H16.8225V4.58812H13.7637V1.5293Z" fill="#6B5E7A"/>
<path d="M1.5293 24.4707H4.58812V27.5295H1.5293V24.4707Z" fill="#6B5E7A"/>
<path d="M16.8242 26H35.1772V32.1176H16.8242V26Z" fill="#9BB997"/>
<path d="M15.9771 35.1758L8.33008 51.9993H19.8817V44.3523H22.9405V51.9993H29.0582V44.3523H32.117V51.9993H43.6687L36.0216 35.1758H15.9771Z" fill="#6B5E7A"/>
</g>
<defs>
<clipPath id="clip0_9_46148">
<rect width="52" height="52" fill="white"/>
</clipPath>
</defs>
</svg>
