<svg width="33" height="34" viewBox="0 0 33 34" fill="none" xmlns="http://www.w3.org/2000/svg">
<rect width="33" height="34" rx="10" fill="#9BB997"/>
<path d="M8.00002 9H14.9457L16.1495 14.4157L14.6438 15.9214C15.5287 17.2996 16.7002 18.4708 18.0786 19.3554L19.5843 17.8505L25 19.0543V26H24.1905C21.0741 26.0048 18.0232 25.1061 15.4072 23.4127C13.4783 22.1644 11.8356 20.5217 10.5873 18.5928C8.89385 15.9768 7.99517 12.9259 8.00002 9.80952V9ZM9.64092 10.619C9.77707 13.1447 10.5722 15.5907 11.9473 17.7137C13.0712 19.4501 14.5499 20.9288 16.2863 22.0527C18.4092 23.4278 20.8553 24.223 23.381 24.3591V20.3527L20.1 19.6242L18.3401 21.3849L17.8033 21.0797C15.7656 19.9216 14.0784 18.2344 12.9203 16.1967L12.6151 15.6599L14.3758 13.9L13.6473 10.619H9.64092Z" fill="white"/>
</svg>
