<svg width="42" height="43" viewBox="0 0 42 43" fill="none" xmlns="http://www.w3.org/2000/svg">
<g filter="url(#filter0_di_9_46583)">
<rect x="0.580078" y="0.560547" width="33" height="34" rx="10" fill="#F5D769"/>
</g>
<path d="M7.58008 11.5605C7.58008 11.0301 7.79079 10.5214 8.16586 10.1463C8.54094 9.77126 9.04965 9.56055 9.58008 9.56055H25.5801C26.1105 9.56055 26.6192 9.77126 26.9943 10.1463C27.3694 10.5214 27.5801 11.0301 27.5801 11.5605V22.5605C27.5801 23.091 27.3694 23.5997 26.9943 23.9748C26.6192 24.3498 26.1105 24.5605 25.5801 24.5605H20.9941L18.2871 27.2675C18.0996 27.455 17.8452 27.5603 17.5801 27.5603C17.3149 27.5603 17.0606 27.455 16.8731 27.2675L14.1661 24.5605H9.58008C9.04965 24.5605 8.54094 24.3498 8.16586 23.9748C7.79079 23.5997 7.58008 23.091 7.58008 22.5605V11.5605ZM25.5801 11.5605H9.58008V22.5605H14.5801C14.8453 22.5606 15.0996 22.666 15.2871 22.8535L17.5801 25.1465L19.8731 22.8535C20.0606 22.666 20.3149 22.5606 20.5801 22.5605H25.5801V11.5605Z" fill="white"/>
<path d="M19.0801 17.0605C19.0801 17.4584 18.922 17.8399 18.6407 18.1212C18.3594 18.4025 17.9779 18.5605 17.5801 18.5605C17.1823 18.5605 16.8007 18.4025 16.5194 18.1212C16.2381 17.8399 16.0801 17.4584 16.0801 17.0605C16.0801 16.6627 16.2381 16.2812 16.5194 15.9999C16.8007 15.7186 17.1823 15.5605 17.5801 15.5605C17.9779 15.5605 18.3594 15.7186 18.6407 15.9999C18.922 16.2812 19.0801 16.6627 19.0801 17.0605ZM23.0801 17.0605C23.0801 17.4584 22.922 17.8399 22.6407 18.1212C22.3594 18.4025 21.9779 18.5605 21.5801 18.5605C21.1823 18.5605 20.8007 18.4025 20.5194 18.1212C20.2381 17.8399 20.0801 17.4584 20.0801 17.0605C20.0801 16.6627 20.2381 16.2812 20.5194 15.9999C20.8007 15.7186 21.1823 15.5605 21.5801 15.5605C21.9779 15.5605 22.3594 15.7186 22.6407 15.9999C22.922 16.2812 23.0801 16.6627 23.0801 17.0605ZM15.0801 17.0605C15.0801 17.4584 14.922 17.8399 14.6407 18.1212C14.3594 18.4025 13.9779 18.5605 13.5801 18.5605C13.1823 18.5605 12.8007 18.4025 12.5194 18.1212C12.2381 17.8399 12.0801 17.4584 12.0801 17.0605C12.0801 16.6627 12.2381 16.2812 12.5194 15.9999C12.8007 15.7186 13.1823 15.5605 13.5801 15.5605C13.9779 15.5605 14.3594 15.7186 14.6407 15.9999C14.922 16.2812 15.0801 16.6627 15.0801 17.0605Z" fill="white"/>
<defs>
<filter id="filter0_di_9_46583" x="0.580078" y="0.560547" width="41" height="42" filterUnits="userSpaceOnUse" color-interpolation-filters="sRGB">
<feFlood flood-opacity="0" result="BackgroundImageFix"/>
<feColorMatrix in="SourceAlpha" type="matrix" values="0 0 0 0 0 0 0 0 0 0 0 0 0 0 0 0 0 0 127 0" result="hardAlpha"/>
<feMorphology radius="1" operator="erode" in="SourceAlpha" result="effect1_dropShadow_9_46583"/>
<feOffset dx="4" dy="4"/>
<feGaussianBlur stdDeviation="2.5"/>
<feComposite in2="hardAlpha" operator="out"/>
<feColorMatrix type="matrix" values="0 0 0 0 1 0 0 0 0 1 0 0 0 0 1 0 0 0 0.05 0"/>
<feBlend mode="normal" in2="BackgroundImageFix" result="effect1_dropShadow_9_46583"/>
<feBlend mode="normal" in="SourceGraphic" in2="effect1_dropShadow_9_46583" result="shape"/>
<feColorMatrix in="SourceAlpha" type="matrix" values="0 0 0 0 0 0 0 0 0 0 0 0 0 0 0 0 0 0 127 0" result="hardAlpha"/>
<feOffset dx="2" dy="2"/>
<feGaussianBlur stdDeviation="2.5"/>
<feComposite in2="hardAlpha" operator="arithmetic" k2="-1" k3="1"/>
<feColorMatrix type="matrix" values="0 0 0 0 0 0 0 0 0 0 0 0 0 0 0 0 0 0 0.15 0"/>
<feBlend mode="normal" in2="shape" result="effect2_innerShadow_9_46583"/>
</filter>
</defs>
</svg>
