<svg width="73" height="73" viewBox="0 0 73 73" fill="none" xmlns="http://www.w3.org/2000/svg">
<g filter="url(#filter0_d_9_45809)">
<path d="M32.0833 60.7917C32.0833 62.0129 31.0962 63 29.875 63C28.6538 63 27.6667 62.0129 27.6667 60.7917C27.6667 60.7917 27.6799 52.3713 27.6843 51.8236C18.9725 50.7548 12.2083 43.401 12.2083 34.5125V27.6645C10.9871 27.6645 10 26.6773 10 25.4561C10 24.2349 10.9871 23.2478 12.2083 23.2478H18.8333V12.2083C18.8333 10.9871 19.8205 10 21.0417 10C22.2629 10 23.25 10.9871 23.25 12.2083V23.25H36.5V12.2083C36.5 10.9871 37.4871 10 38.7083 10C39.9295 10 40.9167 10.9871 40.9167 12.2083V23.25H47.5417C48.7629 23.25 49.75 24.2371 49.75 25.4583C49.75 26.6795 48.7629 27.6667 47.5417 27.6667V32.2357C38.8298 33.3244 32.0833 40.7422 32.0833 49.75V60.7917ZM63 49.75C63 57.0684 57.0684 63 49.75 63C42.4316 63 36.5 57.0684 36.5 49.75C36.5 42.4316 42.4316 36.5 49.75 36.5C57.0684 36.5 63 42.4316 63 49.75ZM55.781 53.047C56.5031 51.9561 56.5693 50.5671 55.951 49.4143C55.3327 48.2616 54.138 47.5461 52.8306 47.5461H48.3499L51.594 42.1776C52.2653 41.1485 51.9826 39.7683 50.9602 39.086C49.9399 38.4058 48.5663 38.6686 47.8707 39.6778C46.4817 41.6962 43.9708 45.8589 43.2774 47.3628C42.807 48.383 43.1581 49.6197 43.8272 50.5229C44.4964 51.4239 45.5674 51.9627 46.6915 51.9627H51.1854L47.937 57.3268C47.2347 58.3382 47.4953 59.7272 48.5155 60.414C49.5181 61.0876 50.874 60.8314 51.5608 59.8377L55.781 53.0426V53.047Z" fill="#F1D15B"/>
</g>
<defs>
<filter id="filter0_d_9_45809" x="0" y="0" width="73" height="73" filterUnits="userSpaceOnUse" color-interpolation-filters="sRGB">
<feFlood flood-opacity="0" result="BackgroundImageFix"/>
<feColorMatrix in="SourceAlpha" type="matrix" values="0 0 0 0 0 0 0 0 0 0 0 0 0 0 0 0 0 0 127 0" result="hardAlpha"/>
<feOffset/>
<feGaussianBlur stdDeviation="5"/>
<feComposite in2="hardAlpha" operator="out"/>
<feColorMatrix type="matrix" values="0 0 0 0 1 0 0 0 0 1 0 0 0 0 1 0 0 0 0.25 0"/>
<feBlend mode="normal" in2="BackgroundImageFix" result="effect1_dropShadow_9_45809"/>
<feBlend mode="normal" in="SourceGraphic" in2="effect1_dropShadow_9_45809" result="shape"/>
</filter>
</defs>
</svg>
