<svg width="52" height="52" viewBox="0 0 52 52" fill="none" xmlns="http://www.w3.org/2000/svg">
<path d="M2.64062 0V11.1061H49.3594V0H2.64062ZM23.1784 7.07667H8.7034V4.02939H23.1783V7.07667H23.1784ZM43.2878 7.07667H28.8128V4.02939H43.2877L43.2878 7.07667Z" fill="#6B5E7A"/>
<path d="M14.8281 33.7676H37.1719V36.814H14.8281V33.7676Z" fill="#6B5E7A"/>
<path d="M14.8281 21.6816H37.1719V24.6265H14.8281V21.6816Z" fill="#6B5E7A"/>
<path d="M14.8281 27.6738H37.1719V30.7204H14.8281V27.6738Z" fill="#6B5E7A"/>
<path d="M14.8281 39.8613H37.1719V42.9078H14.8281V39.8613Z" fill="#6B5E7A"/>
<path d="M46.5664 14.1523H5.43359V48.9519H2.64062V51.9991H11.7812V18.6335H40.2188V51.9991H49.3594V48.9519H46.5664V14.1523Z" fill="#F1D15B"/>
<path d="M14.8281 45.9551H37.1719V52.0002H14.8281V45.9551Z" fill="#6B5E7A"/>
</svg>
