<svg width="52" height="52" viewBox="0 0 52 52" fill="none" xmlns="http://www.w3.org/2000/svg">
<g clip-path="url(#clip0_9_46135)">
<path d="M3.1413 17.5125C4.55484 18.8646 6.31711 19.7489 8.18451 20.1178L11.275 17.0273C12.6176 15.6848 14.402 14.9457 16.3004 14.9457C16.7241 14.9457 17.1446 14.9834 17.558 15.0576L20.0269 12.5887C20.8632 9.1701 19.8717 5.5079 17.3458 2.98193C14.4179 0.0540765 10.0571 -0.80484 6.23617 0.793975L6.22824 0.797546C5.84936 0.957427 5.75296 1.44977 6.04376 1.74017L12.0601 7.75656C12.4565 8.15329 12.4565 8.79599 12.0601 9.19272L9.18823 12.0642C8.7919 12.461 8.1488 12.461 7.75247 12.0642L1.74283 6.05499C1.44885 5.76102 0.950561 5.85821 0.788696 6.24145C0.265015 7.49274 0 8.82138 0 10.1607C0 10.826 0.0654602 11.4945 0.197174 12.1571C0.605011 14.2082 1.62302 16.0601 3.1413 17.5125Z" fill="#F2727F"/>
<path d="M51.7944 39.8424C51.387 37.7913 50.369 35.9394 48.8503 34.4869C46.9301 32.6505 44.3676 31.6753 41.7707 31.6856C41.7 33.1452 41.1089 34.5837 39.9965 35.6962L31.8711 43.8216C32.2567 45.7532 33.2001 47.5718 34.6458 49.0175C37.5737 51.9454 41.9345 52.8043 45.7554 51.2055C46.1382 51.044 46.2354 50.5465 45.9419 50.2529L39.9318 44.2425C39.5351 43.8461 39.5351 43.2031 39.9318 42.8067L42.8033 39.9348C43.2001 39.5385 43.8428 39.5385 44.2395 39.9348L50.2487 45.9444C50.5427 46.2384 51.041 46.1412 51.2029 45.758C51.9868 43.885 52.1911 41.8395 51.7944 39.8424Z" fill="#F2727F"/>
<path d="M33.5354 37.8502L37.8431 33.5425C39.0325 32.3531 39.0325 30.4242 37.8431 29.2348C36.6537 28.0451 34.7252 28.0451 33.5354 29.2344L35.6892 27.081C36.8786 25.8912 36.8786 23.9627 35.6892 22.7733C34.4994 21.5835 32.5709 21.5835 31.3816 22.7733C32.5709 21.5835 32.5709 19.655 31.3816 18.4652C30.1922 17.2759 28.2633 17.2759 27.0739 18.4652C28.2633 17.2759 28.2633 15.3474 27.0739 14.158C25.8841 12.9682 23.9556 12.9682 22.7662 14.158L20.5338 16.39L29.1496 25.0053C29.4352 25.291 29.5955 25.6782 29.5955 26.082C29.5955 26.4859 29.4352 26.8735 29.1496 27.1592L27.4329 28.8758C25.8833 30.4254 23.7485 31.0419 21.7335 30.7253C21.9212 32.8899 21.1884 35.1203 19.5352 36.7731C19.2377 37.0706 18.8481 37.2194 18.4581 37.2194C18.0685 37.2194 17.6786 37.0706 17.3814 36.7731C16.7867 36.1784 16.7867 35.2143 17.3814 34.6192C19.1599 32.8407 19.1627 29.9482 17.3897 28.1661L16.732 27.5087C16.1373 26.9136 16.1373 25.9495 16.732 25.3548C17.3271 24.7601 18.2911 24.7601 18.8858 25.3548L19.5352 26.0039C19.5392 26.0078 19.5428 26.0114 19.5468 26.0154L20.2533 26.722C21.6387 28.1073 23.8933 28.1073 25.2791 26.722L25.9186 26.082L18.38 18.5434L18.3685 18.5553C16.8105 17.6329 14.769 17.8412 13.4296 19.1805L8.38916 24.221C5.93817 26.6724 5.1705 30.1695 6.08694 33.2759L0.00390625 39.359V51.9924H12.6139L18.7013 45.905C21.8129 46.8305 25.3203 46.0656 27.7769 43.6087L33.5346 37.8514C33.5346 37.851 33.535 37.8506 33.5354 37.8502Z" fill="#FFB6A3"/>
</g>
<defs>
<clipPath id="clip0_9_46135">
<rect width="52" height="52" fill="white"/>
</clipPath>
</defs>
</svg>
