<svg width="44" height="50" viewBox="0 0 44 50" fill="none" xmlns="http://www.w3.org/2000/svg">
<path fill-rule="evenodd" clip-rule="evenodd" d="M1.18789 5.91519C6.87996 5.25615 11.8426 2.72552 15.6395 0.015625H28.3603C32.1573 2.72552 37.1199 5.25615 42.8121 5.91519C43.3269 5.9748 43.7109 6.40563 43.7109 6.92391V24.972C43.7109 37.2116 31.2851 47.4964 22 49.9844C12.7148 47.4964 0.289062 37.2116 0.289062 24.9721V6.92391C0.289062 6.40563 0.672969 5.9748 1.18789 5.91519ZM3.33584 8.67545V24.9721C3.33584 26.3555 3.52809 27.7267 3.88458 29.0625C5.98266 36.9249 14.2668 44.4015 21.9989 46.8124C26.8397 45.2956 31.735 41.7786 35.0239 38.0707C38.2296 34.4566 40.664 29.9058 40.664 24.9721V8.67545C35.8989 7.81573 31.414 5.78498 27.4045 3.0625H16.5954C12.5859 5.78498 8.10105 7.81573 3.33584 8.67545ZM5.36709 10.3261V24.9721C5.36709 26.1774 5.53659 27.3749 5.84717 28.5388C7.72029 35.5585 15.1514 42.29 21.997 44.6731C26.2558 43.1811 30.5653 40.0363 33.5043 36.7229C36.3691 33.4929 38.6328 29.3898 38.6328 24.9721V10.3261C34.406 9.32627 30.4154 7.48077 26.7881 5.09375H17.2118C13.5845 7.48077 9.59381 9.32627 5.36709 10.3261ZM25.2535 13.4557H18.7465C18.4668 13.4557 18.2387 13.6838 18.2387 13.9635V19.1126H13.0896C12.8099 19.1126 12.5818 19.3407 12.5818 19.6204V26.1273C12.5818 26.407 12.8099 26.6352 13.0896 26.6352H18.2387V31.7843C18.2387 32.064 18.4668 32.2921 18.7465 32.2921H25.2535C25.5332 32.2921 25.7613 32.064 25.7613 31.7843V26.6352H30.9104C31.1901 26.6352 31.4182 26.407 31.4182 26.1273V19.6204C31.4182 19.3407 31.1901 19.1126 30.9104 19.1126H25.7613V13.9635C25.7612 13.6838 25.5332 13.4557 25.2535 13.4557Z" fill="#C06A87"/>
</svg>
