<svg width="52" height="52" viewBox="0 0 52 52" fill="none" xmlns="http://www.w3.org/2000/svg">
<g clip-path="url(#clip0_9_46402)">
<path d="M18.3438 18.3565H33.6538V9.16602H18.3438V18.3565ZM22.9396 12.238H29.0581C29.9002 12.238 30.5819 12.9207 30.5819 13.7618C30.5819 14.603 29.9002 15.2857 29.0581 15.2857H22.9396C22.0974 15.2857 21.4157 14.6031 21.4157 13.7618C21.4157 12.9207 22.0974 12.238 22.9396 12.238Z" fill="#EA4B62"/>
<path d="M24.4648 29.0584C24.4648 29.9138 25.1615 30.5954 26.0009 30.5954C26.8447 30.5954 27.5359 29.9085 27.5359 29.0584C27.5349 28.2111 26.8471 27.5234 26.0009 27.5234C25.1536 27.5233 24.4659 28.2111 24.4648 29.0584Z" fill="#C06A87"/>
<path d="M25.9994 24.4762C27.9916 24.4762 29.6921 25.7551 30.3209 27.5349H42.8201V7.61902C42.8201 3.41737 39.4027 0 35.2011 0H16.7968C12.5951 0 9.17773 3.41737 9.17773 7.61902V27.535H21.6769C22.3057 25.7551 24.0063 24.4762 25.9994 24.4762ZM15.2963 19.8804V7.64237C15.2963 6.80123 15.979 6.11853 16.8201 6.11853H35.1777C36.0189 6.11853 36.7016 6.80113 36.7016 7.64237V19.8805C36.7016 20.7226 36.0189 21.4043 35.1777 21.4043H16.8201C15.979 21.4042 15.2963 20.7225 15.2963 19.8804Z" fill="#EA4B62"/>
<path d="M50.4762 48.9519H33.6434V45.8806H35.1781C36.0196 45.8806 36.7019 45.1984 36.7019 44.3567V39.6123C40.1873 38.9136 42.8207 35.8305 42.8207 32.1423V30.582H30.3225C29.6937 32.3628 27.9932 33.6428 26 33.6428C24.0058 33.6428 22.3053 32.3628 21.6765 30.582H9.1783V32.1423C9.1783 35.8305 11.8117 38.9136 15.2971 39.6123V44.3567C15.2971 45.1983 15.9793 45.8806 16.821 45.8806H18.3567V48.9519H1.52384C0.682195 48.9519 0 49.6341 0 50.4757C0 51.3173 0.682195 51.9995 1.52384 51.9995H19.8805C20.722 51.9995 21.4043 51.3173 21.4043 50.4757V45.8805H22.94C23.7816 45.8805 24.4639 45.1983 24.4639 44.3566V39.7612H27.5353V44.3566C27.5353 45.1982 28.2175 45.8805 29.0592 45.8805H30.5959V50.4757C30.5959 51.3172 31.2781 51.9995 32.1197 51.9995H50.4764C51.3179 51.9995 52.0002 51.3173 52.0002 50.4757C52 49.6341 51.3178 48.9519 50.4762 48.9519Z" fill="#C06A87"/>
</g>
<defs>
<clipPath id="clip0_9_46402">
<rect width="52" height="52" fill="white"/>
</clipPath>
</defs>
</svg>
