<svg width="52" height="52" viewBox="0 0 52 52" fill="none" xmlns="http://www.w3.org/2000/svg">
<g clip-path="url(#clip0_9_46392)">
<path d="M12.9116 3.04688H39.0884L41.3045 10.3594H44.4844L41.6772 1.08164C41.5824 0.768704 41.3894 0.494582 41.1267 0.299797C40.8641 0.105011 40.5457 -0.000100207 40.2188 7.16843e-08H11.7812C11.4543 -0.000100207 11.1359 0.105011 10.8733 0.299797C10.6106 0.494582 10.4176 0.768704 10.3228 1.08164L7.51562 10.3594H10.6996L12.9116 3.04688Z" fill="#F2727F"/>
<path d="M50.4766 13.4062H1.52344C1.1194 13.4062 0.731904 13.5668 0.446205 13.8525C0.160505 14.1382 0 14.5256 0 14.9297L0 21.5312H52V14.9297C52 14.5256 51.8395 14.1382 51.5538 13.8525C51.2681 13.5668 50.8806 13.4062 50.4766 13.4062Z" fill="#9BB997"/>
<path d="M26 45.3984C27.5065 45.3984 28.9792 44.9517 30.2319 44.1147C31.4845 43.2777 32.4608 42.0881 33.0374 40.6962C33.6139 39.3044 33.7647 37.7728 33.4708 36.2952C33.1769 34.8176 32.4514 33.4604 31.3862 32.3951C30.3209 31.3298 28.9636 30.6043 27.486 30.3104C26.0085 30.0165 24.4769 30.1674 23.085 30.7439C21.6932 31.3204 20.5035 32.2967 19.6665 33.5494C18.8296 34.802 18.3828 36.2747 18.3828 37.7813C18.385 39.8008 19.1882 41.737 20.6162 43.165C22.0442 44.5931 23.9805 45.3963 26 45.3984ZM22.9531 36.2578H29.0469C29.4509 36.2578 29.8384 36.4183 30.1241 36.704C30.4098 36.9897 30.5703 37.3772 30.5703 37.7813C30.5703 38.1853 30.4098 38.5728 30.1241 38.8585C29.8384 39.1442 29.4509 39.3047 29.0469 39.3047H22.9531C22.5491 39.3047 22.1616 39.1442 21.8759 38.8585C21.5902 38.5728 21.4297 38.1853 21.4297 37.7813C21.4297 37.3772 21.5902 36.9897 21.8759 36.704C22.1616 36.4183 22.5491 36.2578 22.9531 36.2578Z" fill="#9BB997"/>
<path d="M8.15047 50.7538C8.21525 51.1038 8.40055 51.4201 8.6742 51.6477C8.94784 51.8754 9.29256 52 9.64852 52H42.3516C42.7076 52 43.0523 51.8754 43.326 51.6477C43.5996 51.4201 43.7849 51.1038 43.8497 50.7538L48.6973 24.5781H3.29883L8.15047 50.7538ZM26.0001 27.1172C28.1092 27.1172 30.171 27.7426 31.9247 28.9144C33.6784 30.0862 35.0452 31.7517 35.8524 33.7003C36.6595 35.6489 36.8707 37.7931 36.4592 39.8617C36.0478 41.9303 35.0321 43.8305 33.5407 45.3219C32.0493 46.8133 30.1492 47.8289 28.0805 48.2404C26.0119 48.6519 23.8677 48.4407 21.9191 47.6336C19.9705 46.8264 18.305 45.4596 17.1332 43.7059C15.9615 41.9522 15.336 39.8904 15.336 37.7812C15.3392 34.954 16.4638 32.2434 18.463 30.2442C20.4622 28.245 23.1728 27.1204 26.0001 27.1172Z" fill="#F2727F"/>
</g>
<defs>
<clipPath id="clip0_9_46392">
<rect width="52" height="52" fill="white"/>
</clipPath>
</defs>
</svg>
