<svg width="30" height="30" viewBox="0 0 30 30" fill="none" xmlns="http://www.w3.org/2000/svg">
<g clip-path="url(#clip0_9_47358)">
<path fill-rule="evenodd" clip-rule="evenodd" d="M28.6401 24.2001L22.3901 19.8301L19.8301 22.4001L24.2001 28.6401C24.6787 29.2938 25.3882 29.741 26.1845 29.8907C26.9808 30.0404 27.8042 29.8816 28.4876 29.4463C29.171 29.0111 29.6632 28.3321 29.8642 27.5472C30.0653 26.7623 29.9601 25.9303 29.5701 25.2201C29.3375 24.8224 29.0199 24.4809 28.6401 24.2201V24.2001Z" fill="#315D80"/>
<path fill-rule="evenodd" clip-rule="evenodd" d="M26.3494 14.8894L14.8894 26.3495C14.4977 26.7397 13.9673 26.9587 13.4144 26.9587C12.8615 26.9587 12.3312 26.7397 11.9395 26.3495L10.9395 25.3495L25.3394 10.9395L26.3394 11.9395C26.726 12.3316 26.9447 12.8588 26.9494 13.4095C26.9476 13.6839 26.8933 13.9554 26.7894 14.2094C26.6829 14.4597 26.534 14.6897 26.3494 14.8894Z" fill="#315D80"/>
<path fill-rule="evenodd" clip-rule="evenodd" d="M6.50952 7.89999L5.01953 9.41L11.6395 14.32L6.50952 7.89999ZM28.0695 28.07C27.8207 28.3116 27.5088 28.478 27.1695 28.55C26.8275 28.6184 26.4728 28.5837 26.1505 28.4501C25.8282 28.3166 25.5529 28.0903 25.3595 27.8C25.1636 27.5038 25.0625 27.155 25.0695 26.8C25.065 26.4453 25.1659 26.0972 25.3595 25.8C25.5542 25.5136 25.829 25.291 26.1495 25.16C26.4715 25.0275 26.8253 24.9929 27.1668 25.0605C27.5083 25.1281 27.8223 25.2949 28.0695 25.54C28.2329 25.7028 28.3621 25.8966 28.4495 26.11C28.623 26.5398 28.623 27.0202 28.4495 27.45C28.3654 27.6799 28.2362 27.8907 28.0695 28.07ZM5.39954 3.72C5.39534 3.56675 5.35763 3.41627 5.28906 3.27914C5.2205 3.14202 5.12274 3.02155 5.00266 2.92624C4.88257 2.83093 4.74308 2.76308 4.59396 2.72745C4.44485 2.69182 4.28973 2.68928 4.13953 2.72C3.93809 2.76996 3.75241 2.86968 3.59952 3.01001C3.45816 3.16073 3.36125 3.3476 3.31952 3.54999C3.27924 3.75331 3.29945 3.96399 3.37766 4.15594C3.45586 4.3479 3.58862 4.51272 3.75952 4.63C3.93231 4.75068 4.1388 4.81367 4.34952 4.81C4.62719 4.80739 4.89276 4.69592 5.08911 4.49957C5.28546 4.30322 5.39693 4.03768 5.39954 3.76001V3.72ZM14.3995 0L24.8295 10.43L10.4195 24.84L0.0195312 14.41L0.899536 13.52L7.11954 17.52C7.17572 17.558 7.24173 17.5788 7.30954 17.58C7.372 17.5949 7.43708 17.5949 7.49954 17.58C7.55502 17.5463 7.6 17.4978 7.62952 17.44C7.64439 17.3775 7.64439 17.3125 7.62952 17.25C7.61949 17.1856 7.59563 17.1242 7.55954 17.07L3.32953 11.07L4.46954 9.92999L13.3195 16.49C13.381 16.5336 13.4541 16.558 13.5295 16.56C13.5757 16.5694 13.6233 16.5694 13.6695 16.56C13.7122 16.5428 13.75 16.5153 13.7795 16.48C13.8366 16.4199 13.8717 16.3425 13.8795 16.26C13.8837 16.1728 13.8552 16.0872 13.7995 16.02L7.01953 7.38998L14.3995 0ZM28.9295 2.66C28.9288 2.38194 28.8452 2.1104 28.6895 1.88C28.533 1.65217 28.3134 1.47498 28.0576 1.37018C27.8018 1.26537 27.5209 1.23752 27.2495 1.29001C26.9768 1.3415 26.726 1.47399 26.5298 1.67023C26.3335 1.86646 26.201 2.11729 26.1495 2.38998C26.0902 2.66167 26.1182 2.94518 26.2295 3.20001C26.3364 3.45704 26.5174 3.67635 26.7495 3.82999C26.9788 3.98795 27.2511 4.07174 27.5295 4.07001C27.715 4.07079 27.8988 4.03498 28.0704 3.96463C28.242 3.89428 28.398 3.79075 28.5295 3.66C28.7918 3.39314 28.939 3.03414 28.9395 2.66H28.9295ZM2.84952 11.53L5.95953 15.91L1.38953 12.98L2.84952 11.53ZM6.45953 25.82C6.43623 25.3574 6.2838 24.9105 6.01953 24.53C5.75121 24.1267 5.36801 23.8131 4.91953 23.63C4.47149 23.4398 3.97609 23.391 3.49954 23.49C3.02213 23.5827 2.58333 23.816 2.23944 24.1599C1.89555 24.5038 1.66225 24.9426 1.56952 25.42C1.46986 25.8965 1.51874 26.3921 1.70953 26.84C1.89267 27.2885 2.20619 27.6717 2.60953 27.94C2.97677 28.1863 3.40361 28.3291 3.84515 28.3534C4.2867 28.3776 4.72661 28.2823 5.11859 28.0776C5.51057 27.8729 5.84014 27.5664 6.0726 27.1902C6.30506 26.814 6.43182 26.3821 6.43954 25.94L6.45953 25.82Z" fill="#C06A87"/>
<path d="M27.1707 28.5306C27.449 28.4798 27.7108 28.3623 27.9337 28.1881C28.1567 28.014 28.334 27.7884 28.4507 27.5306C28.6242 27.1008 28.6242 26.6205 28.4507 26.1906C28.3633 25.9772 28.2341 25.7834 28.0707 25.6206C27.8235 25.3755 27.5095 25.2087 27.168 25.1411C26.8265 25.0735 26.4726 25.1081 26.1507 25.2406C25.8301 25.3716 25.5553 25.5942 25.3607 25.8806C25.167 26.1779 25.0661 26.5259 25.0707 26.8806C25.0636 27.2357 25.1648 27.5844 25.3607 27.8806C25.5541 28.171 25.8294 28.3972 26.1516 28.5308C26.4739 28.6643 26.8286 28.6991 27.1707 28.6306V28.5306Z" fill="#C06A87"/>
<path d="M28.6995 1.87951C28.8552 2.1099 28.9388 2.38144 28.9395 2.65951C28.9389 3.03364 28.7918 3.39264 28.5295 3.65951C28.398 3.79025 28.242 3.89378 28.0704 3.96413C27.8988 4.03449 27.715 4.07029 27.5295 4.06951C27.2511 4.07124 26.9788 3.98745 26.7495 3.82949C26.5174 3.67585 26.3364 3.45654 26.2295 3.19952C26.1182 2.94468 26.0902 2.66117 26.1495 2.38949C26.201 2.11679 26.3335 1.86596 26.5297 1.66973C26.726 1.4735 26.9768 1.341 27.2495 1.28951C27.5209 1.23702 27.8018 1.26488 28.0575 1.36968C28.3133 1.47449 28.533 1.65168 28.6895 1.87951H28.6995Z" fill="#C06A87"/>
<path d="M28.6995 1.87951C28.8552 2.1099 28.9388 2.38144 28.9395 2.65951C28.9389 3.03364 28.7918 3.39264 28.5295 3.65951C28.398 3.79025 28.242 3.89378 28.0704 3.96413C27.8988 4.03449 27.715 4.07029 27.5295 4.06951C27.2511 4.07124 26.9788 3.98745 26.7495 3.82949C26.5174 3.67585 26.3364 3.45654 26.2295 3.19952C26.1182 2.94468 26.0902 2.66117 26.1495 2.38949C26.201 2.11679 26.3335 1.86596 26.5297 1.66973C26.726 1.4735 26.9768 1.341 27.2495 1.28951C27.5209 1.23702 27.8018 1.26488 28.0575 1.36968C28.3133 1.47449 28.533 1.65168 28.6895 1.87951H28.6995Z" fill="#315D80"/>
<path d="M6.01995 24.5294C6.33395 25.0025 6.47461 25.5697 6.41808 26.1347C6.36155 26.6997 6.11131 27.2278 5.7098 27.6293C5.30828 28.0308 4.78023 28.281 4.21523 28.3376C3.65022 28.3941 3.08305 28.2534 2.60994 27.9394C2.20661 27.6711 1.89309 27.2879 1.70995 26.8394C1.51915 26.3916 1.47027 25.896 1.56993 25.4194C1.66266 24.942 1.89597 24.5032 2.23986 24.1593C2.58374 23.8154 3.02255 23.5822 3.49996 23.4894C3.9765 23.3904 4.4719 23.4393 4.91994 23.6294C5.36842 23.8126 5.75162 24.1261 6.01995 24.5294Z" fill="#315D80"/>
<path d="M5.21906 3.13066C5.33974 3.30345 5.40273 3.50994 5.39906 3.72066C5.39645 3.99833 5.28498 4.26387 5.08863 4.46022C4.89228 4.65657 4.62671 4.76804 4.34904 4.77065C4.13832 4.77432 3.93183 4.71133 3.75904 4.59066C3.58814 4.47337 3.45538 4.30855 3.37718 4.1166C3.29897 3.92464 3.27876 3.71399 3.31904 3.51067C3.36077 3.30829 3.45768 3.12138 3.59904 2.97066C3.75193 2.83033 3.93761 2.73061 4.13905 2.68065C4.34352 2.63276 4.55787 2.65045 4.75172 2.73122C4.94557 2.81199 5.1091 2.95175 5.21906 3.13066Z" fill="#315D80"/>
</g>
<defs>
<clipPath id="clip0_9_47358">
<rect width="29.99" height="30" fill="white"/>
</clipPath>
</defs>
</svg>
