<svg width="21" height="21" viewBox="0 0 21 21" fill="none" xmlns="http://www.w3.org/2000/svg">
<g clip-path="url(#clip0_9_51300)">
<path d="M1.2686 7.07236C1.83945 7.61838 2.55114 7.9755 3.30528 8.12451L4.55337 6.87641C5.09555 6.33424 5.81621 6.03575 6.58285 6.03575C6.75396 6.03575 6.92379 6.05097 7.09074 6.08093L8.08777 5.0839C8.42551 3.70331 8.02512 2.22435 7.00502 1.20424C5.82262 0.0218386 4.06151 -0.325032 2.51846 0.320644L2.51525 0.322086C2.36224 0.386653 2.32331 0.585483 2.44075 0.702762L4.87044 3.13246C5.0305 3.29267 5.0305 3.55223 4.87044 3.71244L3.71063 4.8721C3.55058 5.03231 3.29086 5.03231 3.13081 4.8721L0.703834 2.44528C0.585113 2.32656 0.383881 2.36582 0.318512 2.52059C0.107025 3.02591 0 3.56248 0 4.10337C0 4.37206 0.0264358 4.64202 0.079628 4.90959C0.244331 5.73791 0.655449 6.4858 1.2686 7.07236Z" fill="#F2727F"/>
<path d="M20.917 16.091C20.7525 15.2627 20.3414 14.5148 19.7281 13.9282C18.9526 13.1866 17.9178 12.7927 16.869 12.7969C16.8405 13.3863 16.6018 13.9673 16.1525 14.4165L12.8711 17.698C13.0268 18.4781 13.4078 19.2125 13.9917 19.7963C15.1741 20.9787 16.9352 21.3256 18.4782 20.6799C18.6328 20.6147 18.6721 20.4138 18.5535 20.2952L16.1264 17.8679C15.9662 17.7079 15.9662 17.4482 16.1264 17.2881L17.286 16.1283C17.4463 15.9682 17.7058 15.9682 17.866 16.1283L20.2928 18.5553C20.4116 18.674 20.6128 18.6347 20.6782 18.48C20.9947 17.7236 21.0773 16.8975 20.917 16.091Z" fill="#F2727F"/>
<path d="M13.5435 15.2858L15.2832 13.5462C15.7635 13.0658 15.7635 12.2869 15.2832 11.8065C14.8028 11.326 14.024 11.326 13.5435 11.8064L14.4133 10.9367C14.8937 10.4562 14.8937 9.6774 14.4133 9.19707C13.9328 8.71658 13.154 8.71658 12.6737 9.19707C13.154 8.71658 13.154 7.93776 12.6737 7.45727C12.1934 6.97694 11.4144 6.97694 10.9341 7.45727C11.4144 6.97694 11.4144 6.19812 10.9341 5.71779C10.4536 5.2373 9.67475 5.2373 9.19442 5.71779L8.29288 6.61917L11.7723 10.0985C11.8877 10.2138 11.9524 10.3702 11.9524 10.5333C11.9524 10.6964 11.8877 10.8529 11.7723 10.9683L11.0791 11.6615C10.4532 12.2873 9.59112 12.5363 8.77737 12.4085C8.85316 13.2826 8.55723 14.1834 7.88961 14.8508C7.76945 14.971 7.61211 15.0311 7.45462 15.0311C7.29729 15.0311 7.13979 14.971 7.01979 14.8508C6.77962 14.6107 6.77962 14.2213 7.01979 13.981C7.73804 13.2627 7.73917 12.0946 7.02315 11.3749L6.75751 11.1094C6.51735 10.8691 6.51735 10.4798 6.75751 10.2396C6.99784 9.99944 7.38717 9.99944 7.62733 10.2396L7.88961 10.5017C7.89121 10.5033 7.89265 10.5048 7.89426 10.5064L8.1796 10.7917C8.73908 11.3512 9.6496 11.3512 10.2092 10.7917L10.4675 10.5333L7.42306 7.48883L7.41841 7.49364C6.78924 7.12113 5.96476 7.20525 5.42387 7.74614L3.38831 9.7817C2.39848 10.7717 2.08846 12.184 2.45856 13.4385L0.00195312 15.8951V20.9971H5.09446L7.55283 18.5387C8.80942 18.9125 10.2259 18.6036 11.218 17.6114L13.5432 15.2863C13.5432 15.2861 13.5434 15.286 13.5435 15.2858Z" fill="#FFB6A3"/>
</g>
<defs>
<clipPath id="clip0_9_51300">
<rect width="21" height="21" fill="white"/>
</clipPath>
</defs>
</svg>
