<svg width="21" height="21" viewBox="0 0 21 21" fill="none" xmlns="http://www.w3.org/2000/svg">
<path d="M13.5 7.50195H10.875V9.28358L14.625 13.0306V8.62695C14.625 8.00563 14.1213 7.50195 13.5 7.50195Z" fill="#9BB997"/>
<path d="M11.2498 4.50019C11.4446 4.50061 11.6387 4.52287 11.8284 4.56657C11.5818 4.05941 11.0637 3.74105 10.4998 3.75019C9.93401 3.74917 9.41648 4.06881 9.16406 4.57519C9.35579 4.52782 9.55233 4.50265 9.74981 4.50019H11.2498Z" fill="#9BB997"/>
<path d="M11.2493 5.25H9.74933C8.98612 5.25276 8.30097 5.71848 8.01758 6.42713L8.34045 6.75H13.0868C12.9074 5.87759 12.14 5.25112 11.2493 5.25Z" fill="#9BB997"/>
<path d="M10.1249 8.53433V7.50195H9.0918L10.1249 8.53433Z" fill="#9BB997"/>
<path d="M5.64977 8.38884C5.68581 8.08731 5.79455 7.79905 5.96664 7.54884L3.39639 4.98047C3.27527 5.13572 3.16652 5.29847 3.05664 5.46047C3.52301 5.93309 3.93197 6.4591 4.27502 7.02759C4.61528 7.58676 5.08727 8.05411 5.64977 8.38884Z" fill="#9BB997"/>
<path d="M15.3753 9.23284V10.8888C15.8844 10.9238 16.3818 11.0573 16.84 11.2818C17.3154 11.5217 17.843 11.6395 18.3753 11.6246C18.5824 11.6246 18.7503 11.7925 18.7503 11.9996C18.7503 12.2067 18.5824 12.3746 18.3753 12.3746C17.7382 12.3884 17.1072 12.2487 16.5355 11.9673C16.1729 11.7862 15.7792 11.6755 15.3753 11.6411V13.4996C15.3753 13.5888 15.3682 13.677 15.3633 13.7655L17.608 16.0083C18.9973 14.2267 19.6619 11.9859 19.4688 9.73497C19.3608 8.46343 18.9782 7.23046 18.3475 6.12109C17.9751 6.51707 17.6456 6.95136 17.3647 7.41672C16.8886 8.19965 16.1982 8.82986 15.3753 9.23284Z" fill="#9BB997"/>
<path d="M8.721 17.2157C9.6074 16.4856 10.1221 15.3982 10.125 14.2498V11.7032L6.5145 8.0957C6.42507 8.25787 6.37715 8.43965 6.375 8.62483V13.4998C6.37723 15.0866 7.2894 16.5314 8.721 17.2157Z" fill="#9BB997"/>
<path d="M10.4994 18.3739C8.04229 18.37 5.97139 16.5396 5.66567 14.1016C5.09766 14.437 4.6211 14.9072 4.27817 15.4707C4.09326 15.7704 3.89012 16.0584 3.66992 16.3332C6.78254 20.0021 12.2363 20.56 16.0273 17.5973L14.5865 16.1577C13.6891 17.5427 12.1498 18.3774 10.4994 18.3739Z" fill="#9BB997"/>
<path d="M5.62429 13.2678V11.6425C5.2204 11.6769 4.82669 11.7876 4.46404 11.9688C3.89234 12.2501 3.26133 12.3898 2.62429 12.376C2.41719 12.376 2.24929 12.2081 2.24929 12.001C2.24929 11.7939 2.41719 11.626 2.62429 11.626C3.15656 11.6409 3.68416 11.5231 4.15954 11.2833C4.61775 11.0587 5.11521 10.9252 5.62429 10.8903V9.23427C4.80111 8.83114 4.11062 8.20065 3.63454 7.41739C3.35274 6.9513 3.02267 6.51615 2.64979 6.11914C1.77522 7.67968 1.38515 9.46531 1.52929 11.2484C1.6634 12.8662 2.23836 14.4164 3.19167 15.7304C3.34729 15.523 3.49767 15.3093 3.63529 15.0839C4.11114 14.3009 4.80138 13.6706 5.62429 13.2678Z" fill="#9BB997"/>
<path d="M12.2805 17.2164C13.0112 16.8663 13.622 16.3079 14.0359 15.6114L10.875 12.4531V14.2501C10.8776 15.399 11.393 16.4868 12.2805 17.2164Z" fill="#9BB997"/>
<path d="M10.5011 17.6232C10.8332 17.621 11.1638 17.579 11.4859 17.4979C11.0723 17.087 10.7384 16.6029 10.5011 16.0703C10.2636 16.6033 9.92947 17.0877 9.51562 17.4991C9.8379 17.5801 10.1688 17.6218 10.5011 17.6232Z" fill="#9BB997"/>
<path d="M11.2645 1.53189C11.0118 1.51051 10.759 1.50001 10.5077 1.50001C8.50631 1.49637 6.56148 2.16411 4.98438 3.39639L7.45712 5.86689C7.65405 5.50747 7.9325 5.19922 8.27012 4.96689C8.36074 4.22148 8.81974 3.57144 9.49187 3.23664C9.41461 3.12472 9.31565 3.02946 9.20088 2.95651C9.02025 2.8587 8.95094 2.63444 9.04488 2.45176C9.13818 2.26992 9.36073 2.19741 9.54325 2.28939C9.83954 2.46027 10.0804 2.71282 10.237 3.01689C10.4123 2.99439 10.5897 2.99439 10.765 3.01689C10.9209 2.71351 11.1607 2.46127 11.4557 2.29014C11.5755 2.22871 11.719 2.23618 11.8318 2.30973C11.9445 2.38328 12.0092 2.51162 12.0012 2.646C11.9933 2.78037 11.9139 2.90017 11.7933 2.95989C11.68 3.03272 11.5825 3.12745 11.5064 3.23851C11.7219 3.3459 11.9191 3.48678 12.0906 3.65589C12.4356 4.00707 12.6558 4.46167 12.7176 4.95001C13.3403 5.37154 13.7526 6.03965 13.8501 6.78526C14.6438 6.93943 15.2488 7.58585 15.3501 8.38801C15.9123 8.05369 16.3842 7.58686 16.7245 7.02826C17.0666 6.46117 17.4747 5.93663 17.9403 5.46564C16.4196 3.21745 13.968 1.77284 11.2645 1.53189Z" fill="#9BB997"/>
<path d="M10.5 0C4.70101 0 0 4.70101 0 10.5C0 16.299 4.70101 21 10.5 21C16.299 21 21 16.299 21 10.5C20.9934 4.70375 16.2962 0.00661295 10.5 0ZM16.4872 18.1912C14.7743 19.528 12.6631 20.2528 10.4903 20.25C10.225 20.25 9.959 20.2394 9.69225 20.2181C6.12452 19.9231 3.00567 17.696 1.5687 14.4172C0.131731 11.1383 0.607964 7.3356 2.80912 4.51237C2.9398 4.3458 3.13555 4.24315 3.34688 4.23038C3.56233 4.21781 3.77297 4.29743 3.92625 4.44938L16.5499 17.0734C16.7028 17.2262 16.7828 17.4373 16.7696 17.6531C16.757 17.8647 16.6541 18.0606 16.4872 18.1912ZM20.2159 9.675C20.4241 12.1165 19.7022 14.5465 18.1946 16.4783C18.064 16.6447 17.8681 16.7471 17.6569 16.7595C17.6415 16.7595 17.6261 16.7595 17.6111 16.7595C17.4109 16.7592 17.2189 16.6793 17.0775 16.5375L4.4625 3.9225C4.30966 3.76962 4.22978 3.55851 4.24312 3.34275C4.25563 3.13154 4.35818 2.93585 4.52475 2.80538C6.457 1.29855 8.88685 0.576678 11.3284 0.784125C16.0448 1.22203 19.7798 4.9584 20.2159 9.675Z" fill="#EA4B62"/>
</svg>
