<svg width="21" height="21" viewBox="0 0 21 21" fill="none" xmlns="http://www.w3.org/2000/svg">
<path d="M12.4688 19.6875H3.28125C2.91881 19.6875 2.625 19.3937 2.625 19.0312V15.0938H12.4688V19.6875Z" fill="#F1D15B"/>
<path d="M13.1259 3.9375L11.6941 4.41479L11.2168 6.32386L12.4697 5.90625L14.4384 6.5625L14.9432 4.54328L13.1259 3.9375Z" fill="#6B5E7A"/>
<path d="M3.28216 11.1562L5.25091 11.8125L5.75571 9.79328L3.93841 9.1875L2.50658 9.66479L2.0293 11.5739L3.28216 11.1562Z" fill="#6B5E7A"/>
<path d="M12.4697 6.5625L11.0378 7.03979L10.5605 8.94886L11.8134 8.53125L13.7822 9.1875L14.287 7.16828L12.4697 6.5625Z" fill="#6B5E7A"/>
<path d="M13.1259 11.8125L13.6307 9.79328L11.8134 9.1875L10.3816 9.66479L9.9043 11.5739L11.1572 11.1562L13.1259 11.8125Z" fill="#6B5E7A"/>
<path d="M9.18841 11.8125L9.69321 9.79328L7.87591 9.1875L6.44408 9.66479L5.9668 11.5739L7.21966 11.1562L9.18841 11.8125Z" fill="#6B5E7A"/>
<path d="M13.1259 3.28125L15.0947 3.9375L15.7509 1.3125H12.4697L11.873 3.69886L13.1259 3.28125Z" fill="#6B5E7A"/>
<path d="M7.75658 4.41479L7.2793 6.32386L8.53216 5.90625L10.5009 6.5625L11.0057 4.54328L9.18841 3.9375L7.75658 4.41479Z" fill="#6B5E7A"/>
<path d="M3.81908 4.41479L3.3418 6.32386L4.59466 5.90625L6.56341 6.5625L7.06821 4.54328L5.25091 3.9375L3.81908 4.41479Z" fill="#6B5E7A"/>
<path d="M9.84466 9.1875L10.3495 7.16828L8.53216 6.5625L7.10033 7.03979L6.62305 8.94886L7.87591 8.53125L9.84466 9.1875Z" fill="#6B5E7A"/>
<path d="M3.93841 8.53125L5.90716 9.1875L6.41196 7.16828L4.59466 6.5625L3.16283 7.03979L2.68555 8.94886L3.93841 8.53125Z" fill="#6B5E7A"/>
<path d="M9.18841 3.28125L11.1572 3.9375L11.8134 1.3125H8.53216L7.93555 3.69886L9.18841 3.28125Z" fill="#6B5E7A"/>
<path d="M3.28125 11.8125L1.84943 12.2898L1.32246 14.0298C1.27068 14.2369 1.42732 14.4375 1.64079 14.4375H4.59375L5.09855 12.4183L3.28125 11.8125Z" fill="#6B5E7A"/>
<path d="M5.25091 3.28125L7.21966 3.9375L7.87591 1.3125H5.10704C4.80591 1.3125 4.54342 1.51744 4.47038 1.80958L3.99805 3.69886L5.25091 3.28125Z" fill="#6B5E7A"/>
<path d="M7.21875 11.8125L5.78693 12.2898L5.25 14.4375H8.53125L9.03605 12.4183L7.21875 11.8125Z" fill="#6B5E7A"/>
<path d="M11.1562 11.8125L9.72443 12.2898L9.1875 14.4375H12.4688L12.9736 12.4183L11.1562 11.8125Z" fill="#6B5E7A"/>
<path d="M13.125 14.4375L16.4062 1.3125L19.6775 14.0298C19.7293 14.2369 19.5727 14.4375 19.3592 14.4375H13.125Z" fill="#F1D15B"/>
<path d="M13.125 15.0938V19.6875H17.7188C18.0812 19.6875 18.375 19.3937 18.375 19.0312V15.0938H13.125Z" fill="#6B5E7A"/>
</svg>
