<svg width="21" height="21" viewBox="0 0 21 21" fill="none" xmlns="http://www.w3.org/2000/svg">
<path d="M20.3438 15.75V20.0157C20.3438 20.1027 20.3092 20.1862 20.2476 20.2477C20.1861 20.3092 20.1026 20.3438 20.0156 20.3438H0.984375C0.897351 20.3438 0.813891 20.3092 0.752356 20.2477C0.69082 20.1862 0.65625 20.1027 0.65625 20.0157V14.7657C0.65625 14.6787 0.69082 14.5952 0.752356 14.5337C0.813891 14.4721 0.897351 14.4375 0.984375 14.4375C2.78555 14.4375 4.36478 15.295 4.97874 16.5638C6.84967 15.6744 9.37981 16.0246 10.6947 17.4543C11.9262 15.729 14.8843 15.2011 16.9803 16.3949C17.8582 15.7469 18.9246 15.405 20.0156 15.4219C20.1026 15.4219 20.1861 15.4565 20.2476 15.518C20.3092 15.5796 20.3438 15.663 20.3438 15.75ZM11.5795 13.0857L7.91438 9.42052C7.72752 9.24054 7.47819 9.13999 7.21875 9.13999C6.95931 9.13999 6.70998 9.24054 6.52312 9.42052L3.57 12.3736C3.47791 12.4645 3.40493 12.5728 3.35534 12.6923C3.30575 12.8117 3.28056 12.9399 3.28125 13.0693V14.2308C4.06639 14.542 4.74928 15.0658 5.25328 15.7435C6.02278 15.4821 6.83693 15.3779 7.64745 15.4371C8.45797 15.4963 9.24835 15.7176 9.97172 16.088L11.5795 14.4769C11.7639 14.2924 11.8674 14.0422 11.8674 13.7813C11.8674 13.5204 11.7639 13.2702 11.5795 13.0857ZM3.60938 6.03831H3.19328L3.40141 5.67783C3.42295 5.6405 3.43694 5.5993 3.44256 5.55657C3.44818 5.51384 3.44533 5.47043 3.43417 5.4288C3.42301 5.38717 3.40377 5.34815 3.37753 5.31396C3.35129 5.27977 3.31857 5.25109 3.28125 5.22954C3.20587 5.18603 3.11629 5.17425 3.03222 5.19678C2.94815 5.21931 2.87648 5.27432 2.83297 5.3497L2.625 5.70992L2.41703 5.3497C2.37352 5.27432 2.30185 5.21931 2.21778 5.19678C2.13371 5.17425 2.04413 5.18603 1.96875 5.22954C1.89337 5.27305 1.83836 5.34473 1.81583 5.4288C1.79329 5.51287 1.80508 5.60245 1.84859 5.67783L2.05672 6.03831H1.64062C1.5536 6.03831 1.47014 6.07288 1.40861 6.13441C1.34707 6.19595 1.3125 6.27941 1.3125 6.36643C1.3125 6.45345 1.34707 6.53691 1.40861 6.59845C1.47014 6.65999 1.5536 6.69456 1.64062 6.69456H2.05652L1.84859 7.05474C1.82705 7.09206 1.81306 7.13327 1.80744 7.17599C1.80182 7.21872 1.80467 7.26214 1.81583 7.30377C1.82699 7.34539 1.84623 7.38442 1.87247 7.4186C1.89871 7.45279 1.93143 7.48148 1.96875 7.50302C2.00607 7.52457 2.04728 7.53855 2.09001 7.54417C2.13273 7.54979 2.17615 7.54694 2.21778 7.53579C2.25941 7.52463 2.29843 7.50538 2.33262 7.47914C2.3668 7.4529 2.39549 7.42019 2.41703 7.38286L2.625 7.02265L2.83297 7.38286C2.85451 7.42019 2.8832 7.4529 2.91738 7.47914C2.95157 7.50538 2.99059 7.52463 3.03222 7.53579C3.07385 7.54694 3.11727 7.54979 3.15999 7.54417C3.20272 7.53855 3.24393 7.52457 3.28125 7.50302C3.31857 7.48148 3.35129 7.45279 3.37753 7.4186C3.40377 7.38442 3.42301 7.34539 3.43417 7.30377C3.44533 7.26214 3.44818 7.21872 3.44256 7.17599C3.43694 7.13327 3.42295 7.09206 3.40141 7.05474L3.19348 6.69456H3.60938C3.6964 6.69456 3.77986 6.65999 3.84139 6.59845C3.90293 6.53691 3.9375 6.45345 3.9375 6.36643C3.9375 6.27941 3.90293 6.19595 3.84139 6.13441C3.77986 6.07288 3.6964 6.03831 3.60938 6.03831ZM11.1562 1.50867H10.7404L10.9483 1.14849C10.9918 1.07311 11.0036 0.98353 10.981 0.89946C10.9585 0.81539 10.9035 0.743716 10.8281 0.700204C10.7527 0.656691 10.6632 0.644906 10.5791 0.667441C10.495 0.689975 10.4234 0.744983 10.3798 0.820363L10.1719 1.18058L9.96391 0.820363C9.9204 0.744983 9.84872 0.689975 9.76465 0.667441C9.68058 0.644906 9.59101 0.656691 9.51562 0.700204C9.44024 0.743716 9.38524 0.81539 9.3627 0.89946C9.34017 0.98353 9.35195 1.07311 9.39547 1.14849L9.6034 1.50867H9.1875C9.10048 1.50867 9.01702 1.54324 8.95548 1.60478C8.89394 1.66631 8.85938 1.74977 8.85938 1.8368C8.85938 1.92382 8.89394 2.00728 8.95548 2.06882C9.01702 2.13035 9.10048 2.16492 9.1875 2.16492H9.6036L9.39547 2.5254C9.37392 2.56272 9.35994 2.60393 9.35432 2.64665C9.3487 2.68938 9.35154 2.7328 9.3627 2.77443C9.37386 2.81605 9.39311 2.85508 9.41935 2.88926C9.44558 2.92345 9.4783 2.95214 9.51562 2.97368C9.55295 2.99523 9.59415 3.00921 9.63688 3.01483C9.67961 3.02045 9.72303 3.0176 9.76465 3.00645C9.84872 2.98391 9.9204 2.9289 9.96391 2.85352L10.1719 2.49331L10.3798 2.85352C10.4014 2.89085 10.4301 2.92356 10.4643 2.9498C10.4984 2.97604 10.5375 2.99529 10.5791 3.00645C10.6207 3.0176 10.6641 3.02045 10.7069 3.01483C10.7496 3.00921 10.7908 2.99523 10.8281 2.97368C10.8654 2.95214 10.8982 2.92345 10.9244 2.88926C10.9506 2.85508 10.9699 2.81605 10.981 2.77443C10.9922 2.7328 10.9951 2.68938 10.9894 2.64665C10.9838 2.60393 10.9698 2.56272 10.9483 2.5254L10.7402 2.16492H11.1562C11.2433 2.16492 11.3267 2.13035 11.3883 2.06882C11.4498 2.00728 11.4844 1.92382 11.4844 1.8368C11.4844 1.74977 11.4498 1.66631 11.3883 1.60478C11.3267 1.54324 11.2433 1.50867 11.1562 1.50867ZM19.3594 10.368H18.9435L19.1514 10.0079C19.173 9.97054 19.1869 9.92934 19.1926 9.88661C19.1982 9.84388 19.1953 9.80046 19.1842 9.75884C19.173 9.71721 19.1538 9.67819 19.1275 9.644C19.1013 9.60981 19.0686 9.58112 19.0312 9.55958C18.9939 9.53803 18.9527 9.52405 18.91 9.51843C18.8673 9.51281 18.8238 9.51566 18.7822 9.52682C18.7406 9.53797 18.7016 9.55722 18.6674 9.58346C18.6332 9.6097 18.6045 9.64241 18.583 9.67974L18.375 10.04L18.167 9.67974C18.1455 9.64241 18.1168 9.6097 18.0826 9.58346C18.0484 9.55722 18.0094 9.53797 17.9678 9.52682C17.9262 9.51566 17.8827 9.51281 17.84 9.51843C17.7973 9.52405 17.7561 9.53803 17.7188 9.55958C17.6814 9.58112 17.6487 9.60981 17.6225 9.644C17.5962 9.67819 17.577 9.71721 17.5658 9.75884C17.5547 9.80046 17.5518 9.84388 17.5574 9.88661C17.5631 9.92934 17.577 9.97054 17.5986 10.0079L17.8065 10.368H17.3906C17.3036 10.368 17.2201 10.4026 17.1586 10.4642C17.0971 10.5257 17.0625 10.6091 17.0625 10.6962C17.0625 10.7832 17.0971 10.8667 17.1586 10.9282C17.2201 10.9897 17.3036 11.0243 17.3906 11.0243H17.8067L17.5986 11.3848C17.5551 11.4602 17.5433 11.5497 17.5658 11.6338C17.5884 11.7179 17.6434 11.7895 17.7188 11.8331C17.7941 11.8766 17.8837 11.8884 17.9678 11.8658C18.0518 11.8433 18.1235 11.7883 18.167 11.7129L18.375 11.3527L18.583 11.7129C18.6265 11.7883 18.6982 11.8433 18.7822 11.8658C18.8663 11.8884 18.9559 11.8766 19.0312 11.8331C19.1066 11.7895 19.1616 11.7179 19.1842 11.6338C19.2067 11.5497 19.1949 11.4602 19.1514 11.3848L18.9433 11.0243H19.3594C19.4464 11.0243 19.5299 10.9897 19.5914 10.9282C19.6529 10.8667 19.6875 10.7832 19.6875 10.6962C19.6875 10.6091 19.6529 10.5257 19.5914 10.4642C19.5299 10.4026 19.4464 10.368 19.3594 10.368ZM19.7838 5.61791L18.4713 6.93041C18.3801 7.02213 18.2716 7.09484 18.152 7.14434C18.0325 7.19385 17.9044 7.21915 17.775 7.2188H15.5597L11.1005 11.678L9.32203 9.89958L13.7812 5.44036V3.2249C13.7809 3.09558 13.8062 2.96748 13.8557 2.84801C13.9052 2.72855 13.9779 2.62009 14.0696 2.52891L15.3821 1.21641C15.5697 1.03747 15.8189 0.937628 16.0781 0.937628C16.3373 0.937628 16.5866 1.03747 16.7741 1.21641L19.7836 4.22594C19.9678 4.41072 20.0713 4.66098 20.0713 4.92189C20.0714 5.1828 19.968 5.43309 19.7838 5.61791ZM18.0071 6.46641L18.2391 6.23443L14.7656 2.76093L14.5336 2.99291C14.4723 3.05461 14.4378 3.13794 14.4375 3.2249V5.44036L15.5597 6.56255H17.775C17.8181 6.56263 17.8608 6.55418 17.9007 6.53768C17.9405 6.52118 17.9767 6.49696 18.0071 6.46641Z" fill="#6B5E7A"/>
<path d="M18.2392 6.23332L18.0072 6.46531C17.9767 6.49585 17.9406 6.52008 17.9007 6.53658C17.8609 6.55308 17.8181 6.56153 17.775 6.56145H15.5597L14.4375 5.43926V3.22379C14.4379 3.13684 14.4724 3.05351 14.5337 2.99181L14.7657 2.75982L18.2392 6.23332Z" fill="#F1D15B"/>
<path d="M10.7404 1.50867H11.1562C11.2433 1.50867 11.3267 1.54324 11.3883 1.60478C11.4498 1.66631 11.4844 1.74977 11.4844 1.8368C11.4844 1.92382 11.4498 2.00728 11.3883 2.06882C11.3267 2.13035 11.2433 2.16492 11.1562 2.16492H10.7402L10.9483 2.5254C10.9698 2.56272 10.9838 2.60393 10.9894 2.64665C10.9951 2.68938 10.9922 2.7328 10.981 2.77443C10.9699 2.81605 10.9506 2.85508 10.9244 2.88926C10.8982 2.92345 10.8654 2.95214 10.8281 2.97368C10.7908 2.99523 10.7496 3.00921 10.7069 3.01483C10.6641 3.02045 10.6207 3.0176 10.5791 3.00645C10.5375 2.99529 10.4984 2.97604 10.4643 2.9498C10.4301 2.92356 10.4014 2.89085 10.3798 2.85352L10.1719 2.49331L9.96391 2.85352C9.9204 2.9289 9.84872 2.98391 9.76465 3.00645C9.72303 3.0176 9.67961 3.02045 9.63688 3.01483C9.59415 3.00921 9.55295 2.99523 9.51562 2.97368C9.4783 2.95214 9.44558 2.92345 9.41935 2.88926C9.39311 2.85508 9.37386 2.81605 9.3627 2.77443C9.35154 2.7328 9.3487 2.68938 9.35432 2.64665C9.35994 2.60393 9.37392 2.56272 9.39547 2.5254L9.6036 2.16492H9.1875C9.10048 2.16492 9.01702 2.13035 8.95548 2.06882C8.89394 2.00728 8.85938 1.92382 8.85938 1.8368C8.85938 1.74977 8.89394 1.66631 8.95548 1.60478C9.01702 1.54324 9.10048 1.50867 9.1875 1.50867H9.6034L9.39547 1.14849C9.35195 1.07311 9.34017 0.98353 9.3627 0.89946C9.38524 0.81539 9.44024 0.743716 9.51562 0.700204C9.59101 0.656691 9.68058 0.644906 9.76465 0.667441C9.84872 0.689975 9.9204 0.744983 9.96391 0.820363L10.1719 1.18058L10.3798 0.820363C10.4234 0.744983 10.495 0.689975 10.5791 0.667441C10.6632 0.644906 10.7527 0.656691 10.8281 0.700204C10.9035 0.743716 10.9585 0.81539 10.981 0.89946C11.0036 0.98353 10.9918 1.07311 10.9483 1.14849L10.7404 1.50867Z" fill="#F1D15B"/>
<path d="M3.19328 6.03831H3.60938C3.6964 6.03831 3.77986 6.07288 3.84139 6.13441C3.90293 6.19595 3.9375 6.27941 3.9375 6.36643C3.9375 6.45345 3.90293 6.53691 3.84139 6.59845C3.77986 6.65999 3.6964 6.69456 3.60938 6.69456H3.19348L3.40141 7.05474C3.42295 7.09206 3.43694 7.13327 3.44256 7.17599C3.44818 7.21872 3.44533 7.26214 3.43417 7.30377C3.42301 7.34539 3.40377 7.38442 3.37753 7.4186C3.35129 7.45279 3.31857 7.48148 3.28125 7.50302C3.24393 7.52457 3.20272 7.53855 3.15999 7.54417C3.11727 7.54979 3.07385 7.54694 3.03222 7.53579C2.99059 7.52463 2.95157 7.50538 2.91738 7.47914C2.8832 7.4529 2.85451 7.42019 2.83297 7.38286L2.625 7.02265L2.41703 7.38286C2.39549 7.42019 2.3668 7.4529 2.33262 7.47914C2.29843 7.50538 2.25941 7.52463 2.21778 7.53579C2.17615 7.54694 2.13273 7.54979 2.09001 7.54417C2.04728 7.53855 2.00607 7.52457 1.96875 7.50302C1.93143 7.48148 1.89871 7.45279 1.87247 7.4186C1.84623 7.38442 1.82699 7.34539 1.81583 7.30377C1.80467 7.26214 1.80182 7.21872 1.80744 7.17599C1.81306 7.13327 1.82705 7.09206 1.84859 7.05474L2.05652 6.69456H1.64062C1.5536 6.69456 1.47014 6.65999 1.40861 6.59845C1.34707 6.53691 1.3125 6.45345 1.3125 6.36643C1.3125 6.27941 1.34707 6.19595 1.40861 6.13441C1.47014 6.07288 1.5536 6.03831 1.64062 6.03831H2.05672L1.84859 5.67783C1.80508 5.60245 1.79329 5.51287 1.81583 5.4288C1.83836 5.34473 1.89337 5.27305 1.96875 5.22954C2.04413 5.18603 2.13371 5.17425 2.21778 5.19678C2.30185 5.21931 2.37352 5.27432 2.41703 5.3497L2.625 5.70992L2.83297 5.3497C2.87648 5.27432 2.94815 5.21931 3.03222 5.19678C3.11629 5.17425 3.20587 5.18603 3.28125 5.22954C3.31857 5.25109 3.35129 5.27977 3.37753 5.31396C3.40377 5.34815 3.42301 5.38717 3.43417 5.4288C3.44533 5.47043 3.44818 5.51384 3.44256 5.55657C3.43694 5.5993 3.42295 5.6405 3.40141 5.67783L3.19328 6.03831Z" fill="#F1D15B"/>
<path d="M18.9435 10.368H19.3594C19.4464 10.368 19.5299 10.4026 19.5914 10.4642C19.6529 10.5257 19.6875 10.6091 19.6875 10.6962C19.6875 10.7832 19.6529 10.8667 19.5914 10.9282C19.5299 10.9897 19.4464 11.0243 19.3594 11.0243H18.9433L19.1514 11.3848C19.1949 11.4602 19.2067 11.5497 19.1842 11.6338C19.1616 11.7179 19.1066 11.7895 19.0312 11.8331C18.9559 11.8766 18.8663 11.8884 18.7822 11.8658C18.6982 11.8433 18.6265 11.7883 18.583 11.7129L18.375 11.3527L18.167 11.7129C18.1235 11.7883 18.0518 11.8433 17.9678 11.8658C17.8837 11.8884 17.7941 11.8766 17.7188 11.8331C17.6434 11.7895 17.5884 11.7179 17.5658 11.6338C17.5433 11.5497 17.5551 11.4602 17.5986 11.3848L17.8067 11.0243H17.3906C17.3036 11.0243 17.2201 10.9897 17.1586 10.9282C17.0971 10.8667 17.0625 10.7832 17.0625 10.6962C17.0625 10.6091 17.0971 10.5257 17.1586 10.4642C17.2201 10.4026 17.3036 10.368 17.3906 10.368H17.8065L17.5986 10.0079C17.577 9.97054 17.5631 9.92934 17.5574 9.88661C17.5518 9.84388 17.5547 9.80046 17.5658 9.75884C17.577 9.71721 17.5962 9.67819 17.6225 9.644C17.6487 9.60981 17.6814 9.58112 17.7188 9.55958C17.7561 9.53803 17.7973 9.52405 17.84 9.51843C17.8827 9.51281 17.9262 9.51566 17.9678 9.52682C18.0094 9.53797 18.0484 9.55722 18.0826 9.58346C18.1168 9.6097 18.1455 9.64241 18.167 9.67974L18.375 10.04L18.583 9.67974C18.6045 9.64241 18.6332 9.6097 18.6674 9.58346C18.7016 9.55722 18.7406 9.53797 18.7822 9.52682C18.8238 9.51566 18.8673 9.51281 18.91 9.51843C18.9527 9.52405 18.9939 9.53803 19.0312 9.55958C19.0686 9.58112 19.1013 9.60981 19.1275 9.644C19.1538 9.67819 19.173 9.71721 19.1842 9.75884C19.1953 9.80046 19.1982 9.84388 19.1926 9.88661C19.1869 9.92934 19.173 9.97054 19.1514 10.0079L18.9435 10.368Z" fill="#F1D15B"/>
</svg>
