<svg width="21" height="21" viewBox="0 0 21 21" fill="none" xmlns="http://www.w3.org/2000/svg">
<g clip-path="url(#clip0_9_51321)">
<path d="M7.4082 7.41272H13.5911V3.70117H7.4082V7.41272ZM9.2642 4.94177H11.7351C12.0752 4.94177 12.3505 5.21748 12.3505 5.55717C12.3505 5.89686 12.0752 6.17257 11.7351 6.17257H9.2642C8.9241 6.17257 8.6488 5.8969 8.6488 5.55717C8.6488 5.21748 8.9241 4.94177 9.2642 4.94177Z" fill="#EA4B62"/>
<path d="M9.87891 11.7351C9.87891 12.0806 10.1602 12.3558 10.4992 12.3558C10.84 12.3558 11.1191 12.0784 11.1191 11.7351C11.1187 11.393 10.841 11.1152 10.4992 11.1152C10.1571 11.1152 9.87932 11.393 9.87891 11.7351Z" fill="#C06A87"/>
<path d="M10.5004 9.8846C11.3049 9.8846 11.9917 10.4011 12.2456 11.1199H17.2934V3.07691C17.2934 1.38009 15.9133 0 14.2165 0H6.78394C5.08713 0 3.70703 1.38009 3.70703 3.07691V11.1199H8.75478C9.00871 10.4011 9.69548 9.8846 10.5004 9.8846ZM6.17798 8.0286V3.08634C6.17798 2.74665 6.45368 2.47095 6.79338 2.47095H14.207C14.5467 2.47095 14.8224 2.74661 14.8224 3.08634V8.02864C14.8224 8.36875 14.5467 8.64404 14.207 8.64404H6.79338C6.45368 8.644 6.17798 8.3687 6.17798 8.0286Z" fill="#EA4B62"/>
<path d="M20.3846 19.7702H13.5868V18.5298H14.2065C14.5464 18.5298 14.8219 18.2543 14.8219 17.9144V15.9984C16.2295 15.7162 17.293 14.4711 17.293 12.9817V12.3516H12.2456C11.9917 13.0707 11.3049 13.5877 10.5 13.5877C9.69466 13.5877 9.00789 13.0707 8.75396 12.3516H3.70662V12.9817C3.70662 14.4711 4.77012 15.7162 6.17769 15.9984V17.9144C6.17769 18.2543 6.45319 18.5298 6.79309 18.5298H7.41329V19.7702H0.615398C0.275502 19.7702 0 20.0457 0 20.3855C0 20.7254 0.275502 21.0009 0.615398 21.0009H8.02864C8.3685 21.0009 8.64404 20.7254 8.64404 20.3855V18.5298H9.26424C9.6041 18.5298 9.87964 18.2543 9.87964 17.9144V16.0586H11.12V17.9144C11.12 18.2542 11.3955 18.5298 11.7354 18.5298H12.356V20.3855C12.356 20.7254 12.6315 21.0009 12.9714 21.0009H20.3847C20.7245 21.0009 21.0001 20.7254 21.0001 20.3855C21 20.0457 20.7245 19.7702 20.3846 19.7702Z" fill="#C06A87"/>
</g>
<defs>
<clipPath id="clip0_9_51321">
<rect width="21" height="21" fill="white"/>
</clipPath>
</defs>
</svg>
