<svg width="21" height="21" viewBox="0 0 21 21" fill="none" xmlns="http://www.w3.org/2000/svg">
<path d="M4.94026 9.26436C4.94026 7.90208 6.04856 6.79377 7.41085 6.79377V5.55848C6.04856 5.55848 4.94026 4.45017 4.94026 3.08789H3.70496C3.70496 4.45017 2.59666 5.55848 1.23438 5.55848V6.79377C2.59666 6.79377 3.70496 7.90208 3.70496 9.26436H4.94026Z" fill="#6B5E7A"/>
<path d="M19.7644 2.47059C18.4021 2.47059 17.2938 1.36228 17.2938 0H16.0585C16.0585 1.36228 14.9502 2.47059 13.5879 2.47059V3.70588C14.9502 3.70588 16.0585 4.81419 16.0585 6.17647H17.2938C17.2938 4.81419 18.4021 3.70588 19.7644 3.70588V2.47059Z" fill="#6B5E7A"/>
<path d="M9.26367 0H11.7343V9.26471H9.26367V0Z" fill="#9BB997"/>
<path d="M16.6758 8.0293H17.9111V9.26459H16.6758V8.0293Z" fill="#6B5E7A"/>
<path d="M19.1465 10.5H20.3818V11.7353H19.1465V10.5Z" fill="#6B5E7A"/>
<path d="M5.55859 0.617188H6.79389V1.85248H5.55859V0.617188Z" fill="#6B5E7A"/>
<path d="M0.617188 9.88281H1.85248V11.1181H0.617188V9.88281Z" fill="#6B5E7A"/>
<path d="M6.79297 10.5H14.2047V12.9706H6.79297V10.5Z" fill="#9BB997"/>
<path d="M6.45152 14.2051L3.36328 20.9992H8.02837V17.911H9.26366V20.9992H11.7343V17.911H12.9695V20.9992H17.6346L14.5464 14.2051H6.45152Z" fill="#6B5E7A"/>
</svg>
