<svg width="21" height="21" viewBox="0 0 21 21" fill="none" xmlns="http://www.w3.org/2000/svg">
<path fill-rule="evenodd" clip-rule="evenodd" d="M0.921875 7.28316H5.26009V6.29404C5.25839 6.14401 5.28957 5.99538 5.3515 5.85826C5.40543 5.7162 5.49208 5.58835 5.60463 5.48474C5.71135 5.37564 5.84091 5.29067 5.98432 5.23572C6.12619 5.17485 6.27953 5.14422 6.4343 5.14581H14.1264V0.871094H6.44134C4.97992 0.872924 3.57889 1.44487 2.54551 2.46147C1.51214 3.47807 0.930774 4.85635 0.928913 6.29404L0.921875 7.28316ZM15.0264 9.95311C14.5404 9.47683 13.9333 9.13763 13.2686 8.97091C12.6072 8.81876 11.9191 8.81876 11.2577 8.97091L13.367 11.046C13.4357 11.1135 13.4864 11.1967 13.5147 11.2881C13.5359 11.3815 13.5359 11.4783 13.5147 11.5717L12.9733 13.6468C12.9447 13.7365 12.8968 13.8191 12.8327 13.8889C12.7613 13.9565 12.6745 14.0064 12.5795 14.0341L10.5053 14.5944C10.4128 14.6187 10.3155 14.6186 10.2229 14.5944C10.1304 14.5701 10.046 14.5224 9.97801 14.4561L7.86866 12.381C7.72656 13.0327 7.74343 13.7083 7.91789 14.3523C8.10673 15.0381 8.48432 15.6594 9.0091 16.1475C9.53388 16.6357 10.1855 16.9719 10.8921 17.1191C11.6513 17.2732 12.439 17.2206 13.1701 16.967C13.269 16.9395 13.3737 16.9395 13.4725 16.967C13.5725 16.9889 13.6647 17.0366 13.7397 17.1053L17.7685 21.0134L20.1872 18.7031L16.1162 14.6774C16.0398 14.6064 15.986 14.5151 15.9615 14.4146C15.9336 14.3173 15.9336 14.2144 15.9615 14.1172C16.2071 13.3924 16.2509 12.6161 16.0881 11.8691C15.9258 11.15 15.5602 10.4906 15.0334 9.96696L15.0264 9.95311Z" fill="#6D5F7A"/>
<path d="M3.42418 12.5892L3.03044 12.1465L2.63669 12.5892C1.77186 13.5506 0.703125 14.7473 0.703125 15.8332C0.703237 16.2868 0.84029 16.7302 1.09691 17.107C1.35353 17.4838 1.71815 17.7772 2.1445 17.9498C2.56974 18.1208 3.03632 18.1664 3.48746 18.0813C3.93915 17.9889 4.35418 17.7704 4.68276 17.4518C4.89993 17.2407 5.07204 16.9891 5.18901 16.7117C5.30391 16.4326 5.36357 16.1344 5.36479 15.8332C5.36479 14.7473 4.28901 13.5506 3.42418 12.5892ZM4.45776 16.6149C4.32139 16.849 4.12813 17.0463 3.89528 17.189C3.82462 17.2127 3.74795 17.2127 3.67729 17.189C3.60225 17.1683 3.53735 17.1216 3.4945 17.0576C3.45918 16.9918 3.44682 16.9165 3.45933 16.8431C3.47401 16.7684 3.51667 16.7017 3.57887 16.6564C3.72619 16.569 3.84746 16.4449 3.93042 16.2967C4.0147 16.1514 4.05836 15.9867 4.05698 15.8194C4.05642 15.7811 4.06359 15.743 4.07807 15.7073C4.09255 15.6717 4.11406 15.6393 4.14135 15.6119C4.19904 15.5547 4.27742 15.5224 4.35931 15.522C4.43894 15.5237 4.5148 15.5556 4.57112 15.611C4.62744 15.6664 4.65988 15.7411 4.66167 15.8194C4.67301 16.0958 4.60994 16.3702 4.47885 16.6149H4.45776Z" fill="#4D7EA5"/>
<path d="M6.06085 7.87891H0V9.95401H6.06085V7.87891Z" fill="#4D7EA5"/>
<path d="M16.8535 0H14.7441V5.96245H16.8535V0Z" fill="#4D7EA5"/>
</svg>
