<svg width="21" height="21" viewBox="0 0 21 21" fill="none" xmlns="http://www.w3.org/2000/svg">
<g clip-path="url(#clip0_9_51347)">
<path d="M19.7697 9.88477H18.9259C18.8487 8.87492 18.5828 7.91712 18.164 7.04616L19.0735 6.52107C19.3678 6.35119 19.4686 5.97491 19.2986 5.68066C19.1287 5.38634 18.7525 5.28552 18.4582 5.45549L17.5471 5.98155C17.2522 5.55241 16.9167 5.1532 16.5459 4.78985L17.2228 3.98311C17.4412 3.72282 17.4073 3.33473 17.147 3.11633C16.8866 2.898 16.4986 2.93184 16.2802 3.19221L15.6037 3.99837C15.1831 3.69653 14.7325 3.4342 14.2567 3.21739L14.6156 2.23113C14.7318 1.91186 14.5672 1.5588 14.2479 1.44256C13.9285 1.32636 13.5756 1.491 13.4593 1.81031L13.1006 2.79575C12.6067 2.65777 12.0937 2.56594 11.5665 2.52566V1.47656C11.5665 1.13679 11.291 0.861328 10.9513 0.861328C10.6115 0.861328 10.336 1.13679 10.336 1.47656V2.52537C9.80877 2.56565 9.29579 2.65769 8.80184 2.79567L8.4432 1.81031C8.327 1.49104 7.97394 1.3264 7.65463 1.4426C7.33533 1.55884 7.17073 1.91186 7.28693 2.23121L7.6459 3.21751C7.17016 3.43432 6.71931 3.69645 6.29874 3.99824L5.62243 3.19225C5.40402 2.93192 5.01593 2.898 4.75569 3.11641C4.49541 3.33478 4.46144 3.72287 4.67985 3.98315L5.35694 4.79009C4.98616 5.15345 4.65049 5.55241 4.35554 5.9816L3.44442 5.45549C3.15017 5.28548 2.7739 5.38634 2.60401 5.68066C2.43412 5.97491 2.53494 6.35123 2.82919 6.52107L3.7383 7.04595C3.23532 8.0921 2.95326 9.26371 2.95326 10.5C2.95326 11.0653 3.02409 11.6602 3.17113 12.3457H19.7697C20.4493 12.3457 21.0001 11.7948 21.0001 11.1152C21.0001 10.4356 20.4493 9.88477 19.7697 9.88477ZM6.43959 8.6543C6.09981 8.6543 5.82435 8.37884 5.82435 8.03906C5.82435 7.69929 6.09981 7.42383 6.43959 7.42383C6.77936 7.42383 7.05482 7.69929 7.05482 8.03906C7.05482 8.37884 6.77936 8.6543 6.43959 8.6543ZM8.90052 9.88477C8.56075 9.88477 8.28529 9.6093 8.28529 9.26953C8.28529 8.92976 8.56075 8.6543 8.90052 8.6543C9.2403 8.6543 9.51576 8.92976 9.51576 9.26953C9.51576 9.6093 9.2403 9.88477 8.90052 9.88477ZM8.90052 7.42383C8.56075 7.42383 8.28529 7.14837 8.28529 6.80859C8.28529 6.46882 8.56075 6.19336 8.90052 6.19336C9.2403 6.19336 9.51576 6.46882 9.51576 6.80859C9.51576 7.14837 9.2403 7.42383 8.90052 7.42383ZM11.3615 8.6543C11.0217 8.6543 10.7462 8.37884 10.7462 8.03906C10.7462 7.69929 11.0217 7.42383 11.3615 7.42383C11.7012 7.42383 11.9767 7.69929 11.9767 8.03906C11.9767 8.37884 11.7012 8.6543 11.3615 8.6543ZM11.3615 6.19336C11.0217 6.19336 10.7462 5.9179 10.7462 5.57812C10.7462 5.23835 11.0217 4.96289 11.3615 4.96289C11.7012 4.96289 11.9767 5.23835 11.9767 5.57812C11.9767 5.9179 11.7012 6.19336 11.3615 6.19336ZM15.463 9.88477C15.1233 9.88477 14.8478 9.6093 14.8478 9.26953C14.8478 8.92976 15.1233 8.6543 15.463 8.6543C15.8028 8.6543 16.0783 8.92976 16.0783 9.26953C16.0783 9.6093 15.8028 9.88477 15.463 9.88477Z" fill="#EA4B62"/>
<path d="M2.27309 7.35995L1.71068 7.07875C1.42661 6.93659 1.08101 7.03429 0.913172 7.30401C0.496576 7.97355 0 9.07158 0 10.5001C0 11.2887 0.158443 12.4833 0.913172 13.6963C1.029 13.8824 1.2294 13.9865 1.43596 13.9865C1.52869 13.9865 1.62266 13.9655 1.71072 13.9215L2.27313 13.6403C1.91715 12.6596 1.72266 11.6022 1.72266 10.5001C1.72266 9.39802 1.91715 8.3406 2.27309 7.35995Z" fill="#F1D15B"/>
<path d="M19.0734 14.4789L18.1636 13.9536C18.2233 13.8295 18.28 13.7037 18.3333 13.5762H13.0681C12.6613 15.0504 11.3996 16.191 9.81932 16.3885L9.38697 16.4425C9.36154 16.4457 9.33603 16.4473 9.31068 16.4473C9.16159 16.4473 9.0166 16.3931 8.90352 16.2933C8.77124 16.1764 8.69545 16.0085 8.69545 15.832V13.5762H3.56927C3.62263 13.7037 3.67932 13.8295 3.739 13.9536L2.82919 14.4789C2.53494 14.6488 2.43412 15.0251 2.60401 15.3193C2.71795 15.5167 2.92475 15.6271 3.13738 15.6271C3.24172 15.6271 3.34754 15.6005 3.44442 15.5445L4.35599 15.0182C4.65085 15.4473 4.98628 15.8466 5.35698 16.2099L4.67985 17.0168C4.46144 17.2771 4.49541 17.6652 4.75569 17.8836C4.87094 17.9803 5.01126 18.0276 5.15084 18.0276C5.32642 18.0276 5.50078 17.9528 5.62247 17.8078L6.29903 17.0015C6.71956 17.3033 7.17036 17.5655 7.64606 17.7823L7.28701 18.7688C7.17081 19.0881 7.33541 19.4412 7.65472 19.5574C7.7242 19.5827 7.79519 19.5946 7.86509 19.5946C8.11635 19.5946 8.35231 19.4395 8.44324 19.1897L8.80188 18.2043C9.29583 18.3424 9.80882 18.4343 10.3361 18.4746V19.5234C10.3361 19.8632 10.6115 20.1387 10.9513 20.1387C11.2911 20.1387 11.5665 19.8632 11.5665 19.5234V18.4746C12.0938 18.4343 12.6068 18.3424 13.1007 18.2043L13.4594 19.1897C13.5503 19.4395 13.7862 19.5946 14.0376 19.5946C14.1074 19.5946 14.1785 19.5827 14.2479 19.5574C14.5672 19.4412 14.7319 19.0881 14.6157 18.7688L14.2566 17.7823C14.7323 17.5655 15.1831 17.3033 15.6037 17.0015L16.2802 17.8078C16.4019 17.9528 16.5762 18.0275 16.7518 18.0275C16.8914 18.0275 17.0317 17.9803 17.147 17.8836C17.4073 17.6652 17.4412 17.2771 17.2228 17.0168L16.5457 16.2099C16.9164 15.8465 17.2518 15.4473 17.5467 15.0182L18.4583 15.5445C18.5552 15.6004 18.6609 15.627 18.7653 15.627C18.9779 15.627 19.1847 15.5167 19.2987 15.3193C19.4685 15.0251 19.3677 14.6488 19.0734 14.4789Z" fill="#F1D15B"/>
<path d="M9.92578 13.5762V15.122C10.765 14.9308 11.443 14.3425 11.768 13.5762H9.92578Z" fill="#F1D15B"/>
</g>
<defs>
<clipPath id="clip0_9_51347">
<rect width="21" height="21" fill="white"/>
</clipPath>
</defs>
</svg>
