<svg width="21" height="21" viewBox="0 0 21 21" fill="none" xmlns="http://www.w3.org/2000/svg">
<g clip-path="url(#clip0_9_51440)">
<path d="M14.039 8.4H11.9803C11.7725 8.4002 11.5697 8.33627 11.3996 8.21695L8.25276 6.01195C8.19301 5.97185 8.12276 5.9503 8.05081 5.95H6.60006C6.38487 5.95051 6.17516 5.88212 6.00165 5.75483C5.82814 5.62755 5.69994 5.44806 5.63581 5.24265L4.39506 1.3167C4.34692 1.16512 4.33524 1.00431 4.36096 0.847361C4.38667 0.690411 4.44906 0.541743 4.54305 0.413444C4.63704 0.285146 4.75998 0.180836 4.90188 0.108996C5.04377 0.0371558 5.20061 -0.000187848 5.35966 8.15224e-07H10.3157C10.5701 -0.000322563 10.8153 0.0955716 11.002 0.268451L14.725 3.70405C14.8275 3.79892 14.9094 3.91394 14.9655 4.04192C15.0216 4.1699 15.0506 4.30808 15.0508 4.4478V7.3878C15.0506 7.65614 14.944 7.91343 14.7543 8.10321C14.5645 8.29298 14.3073 8.39972 14.039 8.4Z" fill="#F1D15B"/>
<path d="M15.7573 3.33655C15.5023 3.3366 15.2566 3.24092 15.0688 3.06845L13.6468 1.7549C13.4975 1.61669 13.3933 1.43672 13.3479 1.23844C13.3024 1.04016 13.3177 0.83279 13.3919 0.643355C13.466 0.453919 13.5955 0.291214 13.7634 0.176454C13.9314 0.0616934 14.13 0.000202944 14.3335 0L19.9881 0C20.2563 0.000277956 20.5135 0.106973 20.7032 0.296671C20.8929 0.486369 20.9996 0.743576 20.9999 1.01185V1.07975C20.9989 1.29806 20.9278 1.51028 20.7971 1.68509C20.6663 1.85991 20.4828 1.98806 20.2737 2.05065C15.6918 3.3985 15.9648 3.33655 15.7573 3.33655Z" fill="#F2727F"/>
<path d="M16.7618 8.40051C16.4936 8.40023 16.2364 8.29354 16.0467 8.10384C15.857 7.91414 15.7503 7.65694 15.75 7.38866V4.86866C15.7509 4.65043 15.822 4.43827 15.9527 4.26351C16.0834 4.08875 16.2668 3.96064 16.4759 3.89811L19.7025 2.94751C19.8536 2.90298 20.013 2.89435 20.168 2.92231C20.323 2.95026 20.4694 3.01403 20.5954 3.10852C20.7214 3.20302 20.8236 3.32564 20.8938 3.46661C20.9641 3.60758 21.0004 3.76301 21 3.92051V7.17936C20.9986 7.43289 20.9027 7.67678 20.7309 7.86329C20.5592 8.04979 20.324 8.16548 20.0715 8.18771C16.9687 8.44321 17.7002 8.40051 16.7618 8.40051Z" fill="#F2727F"/>
<path d="M19.2725 16.3296L16.9149 13.9696C16.7877 13.8418 16.6968 13.6825 16.6516 13.508C16.6064 13.3335 16.6085 13.1501 16.6576 12.9766L17.5771 9.75208C17.6342 9.55477 17.7496 9.37935 17.9083 9.24891C18.067 9.11848 18.2614 9.03912 18.4661 9.02128L19.9042 8.90193C20.0437 8.89031 20.184 8.90775 20.3164 8.95313C20.4487 8.9985 20.5702 9.07084 20.6732 9.16557C20.7762 9.2603 20.8584 9.37536 20.9147 9.50348C20.9709 9.63161 21 9.77 21.0001 9.90993V15.6149C21.0001 15.8151 20.9408 16.0108 20.8296 16.1773C20.7183 16.3437 20.5602 16.4734 20.3752 16.5499C20.1903 16.6265 19.9867 16.6464 19.7904 16.6072C19.5941 16.5679 19.4138 16.4714 19.2725 16.3296Z" fill="#F1D15B"/>
<path d="M3.74115 5.95H1.01115C0.742997 5.94954 0.48597 5.84276 0.296423 5.65309C0.106876 5.46341 0.000277575 5.20631 0 4.93815L0 1.01185C0.000277956 0.743579 0.106973 0.486372 0.296671 0.296674C0.486369 0.106975 0.743576 0.000280786 1.01185 2.82936e-06H2.50075C2.71594 -0.000506964 2.92564 0.0678865 3.09915 0.19517C3.27266 0.322453 3.40087 0.50194 3.465 0.707353L4.7054 4.6333C4.75352 4.78486 4.76521 4.94563 4.73951 5.10256C4.71381 5.25948 4.65146 5.40813 4.55751 5.53642C4.46356 5.66471 4.34066 5.76903 4.19881 5.84089C4.05697 5.91275 3.90016 5.95014 3.74115 5.95Z" fill="#F2727F"/>
<path d="M0 14.4266V7.66218C1.60395e-05 7.41338 0.0916989 7.1733 0.257531 6.98782C0.423364 6.80234 0.65172 6.68447 0.89897 6.65671C1.14622 6.62895 1.39503 6.69327 1.59786 6.83736C1.80069 6.98145 1.94332 7.19522 1.9985 7.43783L3.3124 13.217C3.35536 13.4076 3.34242 13.6065 3.27512 13.7899C3.20782 13.9733 3.08903 14.1334 2.933 14.2509L1.61875 15.2362C1.46838 15.3487 1.28966 15.4172 1.10258 15.434C0.9155 15.4508 0.727444 15.4152 0.559452 15.3311C0.39146 15.2471 0.250158 15.118 0.151355 14.9583C0.052552 14.7985 0.000145984 14.6145 0 14.4266Z" fill="#F1D15B"/>
<path d="M4.4058 20.9991H1.0108C0.742708 20.9986 0.485771 20.8917 0.296299 20.7021C0.106828 20.5124 0.000277336 20.2554 0 19.9873L0 17.8299C0.000444424 17.673 0.0371642 17.5183 0.10729 17.3779C0.177417 17.2375 0.27905 17.1153 0.40425 17.0207L3.54165 14.668C3.66188 14.5771 3.80099 14.5145 3.94869 14.4847C4.09639 14.4549 4.24891 14.4587 4.39495 14.4958L5.87335 14.8668C6.03195 14.9067 6.1785 14.9845 6.30042 15.0935C6.42235 15.2025 6.516 15.3394 6.57335 15.4926L7.12705 16.9678C7.18335 17.118 7.20319 17.2793 7.18493 17.4386C7.16668 17.5979 7.11085 17.7506 7.02205 17.8841L5.24685 20.5483C5.15476 20.687 5.02976 20.8008 4.883 20.8795C4.73625 20.9581 4.57231 20.9992 4.4058 20.9991Z" fill="#F1D15B"/>
<path d="M10.8884 20.9996H7.67753C7.49445 20.9994 7.31484 20.9496 7.15782 20.8554C7.0008 20.7613 6.87226 20.6263 6.78586 20.4649C6.69946 20.3035 6.65844 20.1217 6.66717 19.9388C6.6759 19.7559 6.73405 19.5788 6.83543 19.4264L7.58723 18.2997C7.67953 18.1612 7.80464 18.0476 7.95143 17.969C8.09823 17.8905 8.26216 17.8495 8.42863 17.8496H10.8884C11.1567 17.8499 11.4139 17.9566 11.6036 18.1463C11.7933 18.336 11.9 18.5932 11.9003 18.8615V19.9878C11.9 20.256 11.7933 20.5132 11.6036 20.7029C11.4139 20.8926 11.1567 20.9993 10.8884 20.9996Z" fill="#F2727F"/>
<path d="M19.9878 21.0002H13.6115C13.3432 20.9999 13.086 20.8932 12.8963 20.7035C12.7066 20.5138 12.5999 20.2566 12.5996 19.9883V18.0633C12.5993 17.9304 12.6253 17.7987 12.6762 17.6759C12.7271 17.5531 12.8018 17.4417 12.8961 17.3479L15.3842 14.8594C15.5744 14.6705 15.8315 14.5645 16.0996 14.5645C16.3677 14.5645 16.6249 14.6705 16.815 14.8594L20.7028 18.7444C20.8922 18.9346 20.9989 19.1918 20.9996 19.4602V19.9869C20.9997 20.2555 20.8932 20.513 20.7034 20.703C20.5137 20.893 20.2563 20.9999 19.9878 21.0002Z" fill="#F2727F"/>
<path d="M6.14293 14.1813C5.96478 14.1813 5.93713 14.1607 4.74783 13.8642C4.56582 13.8197 4.39989 13.7251 4.26873 13.5913C4.13757 13.4575 4.04639 13.2897 4.00548 13.1068L2.82003 7.88624C2.7864 7.73811 2.78656 7.5843 2.82048 7.43624C2.85441 7.28817 2.92124 7.14965 3.01602 7.03094C3.11079 6.91222 3.23108 6.81638 3.36795 6.7505C3.50482 6.68462 3.65477 6.65041 3.80668 6.65039H7.62168C7.82945 6.65019 8.03223 6.71412 8.20233 6.83344L10.1438 8.19319C10.258 8.27327 10.3545 8.37609 10.4271 8.49522C10.4997 8.61434 10.5469 8.74719 10.5657 8.88542C10.5846 9.02365 10.5746 9.16428 10.5365 9.29849C10.4984 9.43269 10.433 9.55757 10.3443 9.66529L6.92588 13.8131C6.83056 13.9284 6.71095 14.0212 6.5756 14.0848C6.44025 14.1485 6.2925 14.1814 6.14293 14.1813Z" fill="#F2727F"/>
<path d="M11.6845 17.1496H8.6441C8.43836 17.1492 8.23762 17.0862 8.06848 16.9691C7.89934 16.8519 7.76979 16.6861 7.697 16.4937L7.2539 15.3135C7.1916 15.1471 7.17407 14.9673 7.20306 14.792C7.23205 14.6167 7.30654 14.4521 7.4191 14.3146L11.4091 9.46816C11.5039 9.35264 11.6232 9.25964 11.7584 9.19589C11.8935 9.13215 12.0412 9.09927 12.1906 9.09961H15.6941C15.8508 9.09953 16.0053 9.13583 16.1455 9.20565C16.2857 9.27546 16.4078 9.37689 16.5022 9.50194C16.5965 9.62698 16.6605 9.77223 16.6891 9.92622C16.7178 10.0802 16.7102 10.2388 16.6671 10.3894L15.8597 13.2135C15.8124 13.3783 15.724 13.5283 15.6028 13.6496L12.3999 16.8521C12.3063 16.9466 12.1949 17.0215 12.0721 17.0726C11.9493 17.1236 11.8175 17.1498 11.6845 17.1496Z" fill="#F1D15B"/>
</g>
<defs>
<clipPath id="clip0_9_51440">
<rect width="21" height="21" fill="white"/>
</clipPath>
</defs>
</svg>
