<svg width="21" height="21" viewBox="0 0 21 21" fill="none" xmlns="http://www.w3.org/2000/svg">
<g clip-path="url(#clip0_9_51201)">
<path d="M0 4.92188H21V6.15234H0V4.92188Z" fill="#6B5E7A"/>
<path d="M0 2.46094H21V3.69141H0V2.46094Z" fill="#6B5E7A"/>
<path d="M0 7.38281H21V8.61328H0V7.38281Z" fill="#6B5E7A"/>
<path d="M0 0H21V1.23047H0V0Z" fill="#6B5E7A"/>
<path d="M17.9238 9.84375H14.8039C14.7542 10.1934 14.6628 10.5297 14.5348 10.8476L15.674 11.5053L15.0587 12.5708L13.9182 11.9123C13.7034 12.1852 13.4568 12.4319 13.1839 12.6466L13.8424 13.7872L12.7768 14.4024L12.1191 13.2632C11.8013 13.3912 11.4649 13.4827 11.1153 13.5324V14.8477H9.88485V13.5324C9.53523 13.4827 9.19886 13.3913 8.88099 13.2633L8.2233 14.4025L7.15772 13.7872L7.81622 12.6467C7.54335 12.4319 7.29668 12.1853 7.08196 11.9124L5.9414 12.5709L5.32617 11.5053L6.46533 10.8476C6.33732 10.5298 6.24594 10.1934 6.19619 9.84379H3.07617V17.9239H17.9238V9.84375Z" fill="#F1D15B"/>
<path d="M10.4993 12.3457C12.0075 12.3457 13.2687 11.2689 13.5552 9.84375H7.44336C7.72981 11.2689 8.991 12.3457 10.4993 12.3457Z" fill="#F1D15B"/>
<path d="M19.1543 19.1543H1.8457V9.84375H0V21H21V9.84375H19.1543V19.1543Z" fill="#6B5E7A"/>
</g>
<defs>
<clipPath id="clip0_9_51201">
<rect width="21" height="21" fill="white"/>
</clipPath>
</defs>
</svg>
