<svg width="19" height="21" viewBox="0 0 19 21" fill="none" xmlns="http://www.w3.org/2000/svg">
<path d="M0.0664062 0V4.48514H18.9336V0H0.0664062ZM8.3605 2.85789H2.51483V1.62725H8.36046V2.85789H8.3605ZM16.4816 2.85789H10.6359V1.62725H16.4816L16.4816 2.85789Z" fill="#6B5E7A"/>
<path d="M4.98828 13.6367H14.0117V14.867H4.98828V13.6367Z" fill="#6B5E7A"/>
<path d="M4.98828 8.75586H14.0117V9.94515H4.98828V8.75586Z" fill="#6B5E7A"/>
<path d="M4.98828 11.1758H14.0117V12.4061H4.98828V11.1758Z" fill="#6B5E7A"/>
<path d="M4.98828 16.0977H14.0117V17.328H4.98828V16.0977Z" fill="#6B5E7A"/>
<path d="M17.8057 5.71484H1.19434V19.7685H0.0664062V20.9991H3.75781V7.52454H15.2422V20.9991H18.9336V19.7685H17.8057V5.71484Z" fill="#F1D15B"/>
<path d="M4.98828 18.5586H14.0117V20.9999H4.98828V18.5586Z" fill="#6B5E7A"/>
</svg>
