<svg width="21" height="21" viewBox="0 0 21 21" fill="none" xmlns="http://www.w3.org/2000/svg">
<path fill-rule="evenodd" clip-rule="evenodd" d="M0.00148964 16.2662C0.000384331 16.2474 -0.000720978 16.2286 -0.000720978 16.2098V3.07816C-0.000720978 2.26137 0.324227 1.47884 0.901174 0.901895C1.47923 0.323842 2.26175 0 3.07854 0H3.5527C5.2526 0 6.63086 1.37826 6.63086 3.07816V15.1045C6.63086 15.1344 6.62975 15.1631 6.62644 15.1918C6.62975 15.2482 6.63086 15.3057 6.63086 15.3632C6.63086 16.3391 5.83949 17.1316 4.86244 17.1316C4.4557 17.1316 4.12633 16.8011 4.12633 16.3944C4.12633 15.9876 4.4557 15.6572 4.86244 15.6572C5.02602 15.6572 5.15754 15.5256 5.15754 15.3632C5.15754 14.6304 4.56402 14.0368 3.83123 14.0368C2.52923 14.0368 1.4737 15.0924 1.4737 16.3944C1.4737 18.1241 2.87517 19.5256 4.60491 19.5256C5.01165 19.5256 5.34212 19.8561 5.34212 20.2628C5.34212 20.6695 5.01165 21 4.60491 21C2.0617 21 -0.000720978 18.9376 -0.000720978 16.3944C-0.000720978 16.3513 0.000384331 16.3093 0.00148964 16.2662Z" fill="#F1D15B"/>
<path fill-rule="evenodd" clip-rule="evenodd" d="M8.10932 4.02344H18.7975C20.0184 4.02344 21.0091 5.01262 21.0091 6.23338V18.7572C21.0091 19.9779 20.0184 20.9671 18.7975 20.9671H6.69309C6.77494 20.7364 6.81973 20.4887 6.81973 20.2305C6.81973 19.4785 6.44289 18.8145 5.86914 18.4151C7.16954 17.9931 8.10932 16.7723 8.10932 15.3313C8.10932 15.2813 8.10855 15.2313 8.10701 15.1813C8.10855 15.1458 8.10932 15.1094 8.10932 15.0739V4.02344Z" fill="#F2727F"/>
</svg>
