<svg width="19" height="21" viewBox="0 0 19 21" fill="none" xmlns="http://www.w3.org/2000/svg">
<path fill-rule="evenodd" clip-rule="evenodd" d="M1.09541 2.79267C3.39413 2.52652 5.39828 1.50454 6.93165 0.410156H12.0689C13.6023 1.50454 15.6064 2.52652 17.9052 2.79267C18.1131 2.81675 18.2682 2.99074 18.2682 3.20004V10.4887C18.2682 15.4316 13.2501 19.5851 9.50029 20.5898C5.75052 19.5851 0.732422 15.4316 0.732422 10.4887V3.20004C0.732422 2.99074 0.887461 2.81675 1.09541 2.79267ZM1.96285 3.90739V10.4887C1.96285 11.0474 2.04049 11.6011 2.18446 12.1406C3.03176 15.3158 6.37728 18.3352 9.49984 19.3088C11.4548 18.6963 13.4318 17.276 14.76 15.7785C16.0545 14.319 17.0377 12.4812 17.0377 10.4887V3.90739C15.1133 3.5602 13.3021 2.74009 11.6829 1.64062H7.31768C5.69847 2.74009 3.88726 3.5602 1.96285 3.90739ZM2.78316 4.57402V10.4887C2.78316 10.9755 2.85162 11.4591 2.97704 11.9291C3.73349 14.764 6.73452 17.4825 9.4991 18.4449C11.219 17.8424 12.9593 16.5724 14.1463 15.2342C15.3032 13.9298 16.2174 12.2728 16.2174 10.4887V4.57402C14.5104 4.17022 12.8988 3.42493 11.434 2.46094H7.56661C6.10174 3.42493 4.49011 4.17022 2.78316 4.57402ZM10.8142 5.83788H8.1864C8.07344 5.83788 7.98132 5.93 7.98132 6.04295V8.12241H5.90187C5.78891 8.12241 5.69679 8.21453 5.69679 8.32748V10.9553C5.69679 11.0682 5.78891 11.1604 5.90187 11.1604H7.98132V13.2398C7.98132 13.3528 8.07344 13.4449 8.1864 13.4449H10.8142C10.9272 13.4449 11.0193 13.3528 11.0193 13.2398V11.1604H13.0987C13.2117 11.1604 13.3038 11.0682 13.3038 10.9553V8.32748C13.3038 8.21453 13.2117 8.12241 13.0987 8.12241H11.0193V6.04295C11.0193 5.93 10.9272 5.83788 10.8142 5.83788Z" fill="#C06A87"/>
</svg>
