<svg width="21" height="21" viewBox="0 0 21 21" fill="none" xmlns="http://www.w3.org/2000/svg">
<path d="M17.7844 11.1618H13.3383V13.9291H8.89219V16.6964H4.44609V19.4637H0V21.0005H21V8.39453H17.7844V11.1618ZM19.4632 18.516H18.2327V17.234L16.1833 19.2835L15.3132 18.4134L17.3627 16.3639H16.0807V15.1335H19.4632V18.516Z" fill="#C06A87"/>
<path d="M4.44531 13.9277H7.6609V15.4645H4.44531V13.9277Z" fill="#3E6B8E"/>
<path d="M0 16.6953H3.21563V18.2321H0V16.6953Z" fill="#3E6B8E"/>
<path d="M17.7852 5.62695H21.0008V7.16377H17.7852V5.62695Z" fill="#3E6B8E"/>
<path d="M8.89258 11.1621H12.1082V12.6989H8.89258V11.1621Z" fill="#3E6B8E"/>
<path d="M13.3379 8.39453H16.5535V9.93135H13.3379V8.39453Z" fill="#3E6B8E"/>
<path d="M16.255 0L0 10.1172V15.4629H1.23047V10.8007L3.95391 9.10563V12.6981H5.18438V8.33979L7.90781 6.6447V9.93087H9.13828V5.87885L11.8617 4.18376V7.16358H13.0922V3.41791L15.8156 1.72282V4.39634H17.0461V1.23047H19.7695V4.39634H21V0L16.255 0Z" fill="#C06A87"/>
</svg>
