<svg width="21" height="21" viewBox="0 0 21 21" fill="none" xmlns="http://www.w3.org/2000/svg">
<g clip-path="url(#clip0_9_51459)">
<path fill-rule="evenodd" clip-rule="evenodd" d="M20.0538 16.9399L15.6774 13.8809L13.8848 15.6799L16.9448 20.0479C17.2799 20.5055 17.7767 20.8185 18.3343 20.9233C18.8919 21.0281 19.4685 20.9169 19.947 20.6122C20.4256 20.3076 20.7702 19.8323 20.911 19.2828C21.0518 18.7334 20.9781 18.151 20.705 17.6539C20.5421 17.3755 20.3198 17.1364 20.0538 16.9539V16.9399Z" fill="#315D80"/>
<path fill-rule="evenodd" clip-rule="evenodd" d="M18.4507 10.4232L10.4261 18.4452C10.1518 18.7184 9.78038 18.8717 9.39322 18.8717C9.00605 18.8717 8.63468 18.7184 8.36039 18.4452L7.66016 17.7452L17.7435 7.6582L18.4437 8.3582C18.7144 8.63273 18.8676 9.00177 18.8709 9.3872C18.8696 9.57931 18.8316 9.76939 18.7588 9.9472C18.6842 10.1224 18.58 10.2834 18.4507 10.4232Z" fill="#315D80"/>
<path fill-rule="evenodd" clip-rule="evenodd" d="M4.55818 5.53L3.51484 6.587L8.15038 10.024L4.55818 5.53ZM19.6552 19.649C19.481 19.8181 19.2626 19.9346 19.025 19.985C18.7855 20.0329 18.5371 20.0086 18.3115 19.9151C18.0858 19.8216 17.893 19.6632 17.7576 19.46C17.6204 19.2527 17.5496 19.0085 17.5545 18.76C17.5513 18.5117 17.622 18.2681 17.7576 18.06C17.8939 17.8595 18.0863 17.7037 18.3108 17.612C18.5362 17.5193 18.784 17.495 19.0231 17.5423C19.2623 17.5897 19.4821 17.7064 19.6552 17.878C19.7696 17.9919 19.8601 18.1276 19.9213 18.277C20.0428 18.5779 20.0428 18.9141 19.9213 19.215C19.8624 19.3759 19.7719 19.5235 19.6552 19.649ZM3.78093 2.604C3.778 2.49672 3.75158 2.39139 3.70357 2.2954C3.65556 2.19941 3.58711 2.11508 3.50302 2.04837C3.41893 1.98165 3.32126 1.93416 3.21684 1.90921C3.11243 1.88427 3.00381 1.8825 2.89863 1.904C2.75758 1.93897 2.62756 2.00877 2.5205 2.10701C2.42151 2.21251 2.35365 2.34332 2.32443 2.48499C2.29623 2.62732 2.31038 2.77479 2.36514 2.90916C2.4199 3.04353 2.51287 3.15891 2.63254 3.241C2.75353 3.32547 2.89812 3.36957 3.04567 3.367C3.24011 3.36517 3.42607 3.28715 3.56356 3.1497C3.70105 3.01226 3.7791 2.82638 3.78093 2.63201V2.604ZM10.083 0L17.3865 7.301L7.29609 17.388L0.0136719 10.087L0.629881 9.46399L4.98533 12.264C5.02467 12.2906 5.0709 12.3052 5.11838 12.306C5.16212 12.3164 5.20769 12.3164 5.25142 12.306C5.29027 12.2824 5.32177 12.2485 5.34244 12.208C5.35285 12.1643 5.35285 12.1187 5.34244 12.075C5.33541 12.0299 5.31871 11.987 5.29344 11.949L2.33144 7.74901L3.12972 6.951L9.32677 11.543C9.36983 11.5736 9.42104 11.5906 9.47383 11.592C9.50618 11.5986 9.53951 11.5986 9.57185 11.592C9.60174 11.5799 9.62821 11.5607 9.64889 11.536C9.68882 11.494 9.71345 11.4397 9.7189 11.382C9.72183 11.321 9.70186 11.2611 9.66289 11.214L4.91531 5.17299L10.083 0ZM20.2574 1.862C20.2569 1.66736 20.1984 1.47728 20.0894 1.316C19.9798 1.15652 19.8259 1.03249 19.6468 0.959125C19.4677 0.885762 19.2711 0.866261 19.081 0.903006C18.8901 0.939048 18.7144 1.0318 18.577 1.16916C18.4396 1.30652 18.3468 1.4821 18.3108 1.67299C18.2692 1.86317 18.2888 2.06163 18.3668 2.24001C18.4416 2.41993 18.5684 2.57344 18.7309 2.68099C18.8915 2.79156 19.0821 2.85022 19.2771 2.84901C19.407 2.84955 19.5357 2.82449 19.6558 2.77524C19.776 2.72599 19.8852 2.65353 19.9773 2.562C20.1609 2.3752 20.264 2.1239 20.2644 1.862H20.2574ZM1.99532 8.071L4.17306 11.137L0.972988 9.08601L1.99532 8.071ZM4.52318 18.074C4.50686 17.7501 4.40012 17.4373 4.21507 17.171C4.02718 16.8887 3.75885 16.6692 3.44481 16.541C3.13108 16.4079 2.78419 16.3737 2.45049 16.443C2.11619 16.5079 1.80893 16.6712 1.56813 16.9119C1.32732 17.1526 1.16396 17.4598 1.09903 17.794C1.02924 18.1276 1.06347 18.4745 1.19707 18.788C1.32531 19.1019 1.54484 19.3702 1.82727 19.558C2.08443 19.7304 2.38332 19.8304 2.6925 19.8474C3.00168 19.8643 3.30973 19.7976 3.5842 19.6543C3.85868 19.5111 4.08946 19.2965 4.25223 19.0332C4.41501 18.7698 4.50377 18.4675 4.50918 18.158L4.52318 18.074Z" fill="#C06A87"/>
<path d="M19.0254 19.9705C19.2203 19.9349 19.4036 19.8526 19.5597 19.7307C19.7158 19.6088 19.84 19.4509 19.9217 19.2705C20.0432 18.9696 20.0432 18.6333 19.9217 18.3325C19.8605 18.1831 19.77 18.0474 19.6556 17.9335C19.4825 17.7619 19.2627 17.6451 19.0235 17.5978C18.7844 17.5505 18.5366 17.5747 18.3112 17.6675C18.0867 17.7591 17.8943 17.915 17.758 18.1155C17.6224 18.3235 17.5517 18.5672 17.5549 18.8155C17.55 19.064 17.6208 19.3081 17.758 19.5155C17.8934 19.7187 18.0862 19.8771 18.3119 19.9706C18.5375 20.064 18.7859 20.0884 19.0254 20.0405V19.9705Z" fill="#C06A87"/>
<path d="M20.0959 1.31585C20.2049 1.47713 20.2635 1.6672 20.264 1.86185C20.2636 2.12374 20.1605 2.37505 19.9769 2.56185C19.8848 2.65337 19.7755 2.72584 19.6554 2.77509C19.5352 2.82434 19.4065 2.8494 19.2767 2.84885C19.0817 2.85007 18.891 2.79141 18.7305 2.68084C18.568 2.57329 18.4412 2.41977 18.3664 2.23986C18.2884 2.06147 18.2688 1.86302 18.3103 1.67284C18.3464 1.48195 18.4392 1.30637 18.5766 1.16901C18.714 1.03164 18.8897 0.938896 19.0806 0.902853C19.2706 0.866109 19.4673 0.885609 19.6464 0.958972C19.8255 1.03234 19.9793 1.15637 20.0889 1.31585H20.0959Z" fill="#C06A87"/>
<path d="M20.0959 1.31585C20.2049 1.47713 20.2635 1.6672 20.264 1.86185C20.2636 2.12374 20.1605 2.37505 19.9769 2.56185C19.8848 2.65337 19.7755 2.72584 19.6554 2.77509C19.5352 2.82434 19.4065 2.8494 19.2767 2.84885C19.0817 2.85007 18.891 2.79141 18.7305 2.68084C18.568 2.57329 18.4412 2.41977 18.3664 2.23986C18.2884 2.06147 18.2688 1.86302 18.3103 1.67284C18.3464 1.48195 18.4392 1.30637 18.5766 1.16901C18.714 1.03164 18.8897 0.938896 19.0806 0.902853C19.2706 0.866109 19.4673 0.885609 19.6464 0.958972C19.8255 1.03234 19.9793 1.15637 20.0889 1.31585H20.0959Z" fill="#315D80"/>
<path d="M4.21579 17.1712C4.43567 17.5024 4.53416 17.8994 4.49458 18.2949C4.45499 18.6904 4.27977 19.06 3.99862 19.3411C3.71746 19.6221 3.34771 19.7973 2.95207 19.8369C2.55643 19.8765 2.15928 19.778 1.828 19.5582C1.54557 19.3704 1.32603 19.1021 1.19779 18.7882C1.06419 18.4747 1.02996 18.1278 1.09975 17.7942C1.16468 17.46 1.32805 17.1528 1.56885 16.9121C1.80965 16.6714 2.11692 16.5081 2.45121 16.4432C2.78491 16.3739 3.1318 16.4081 3.44553 16.5412C3.75958 16.6694 4.02791 16.8889 4.21579 17.1712Z" fill="#315D80"/>
<path d="M3.65516 2.19088C3.73966 2.31183 3.78377 2.45637 3.7812 2.60388C3.77937 2.79825 3.70132 2.98412 3.56383 3.12157C3.42634 3.25902 3.24037 3.33704 3.04594 3.33887C2.89839 3.34144 2.75379 3.29734 2.6328 3.21287C2.51313 3.13077 2.42017 3.0154 2.36541 2.88103C2.31065 2.74666 2.29649 2.59921 2.3247 2.45688C2.35392 2.31521 2.42178 2.18438 2.52076 2.07888C2.62783 1.98064 2.75785 1.91084 2.8989 1.87587C3.04207 1.84234 3.19217 1.85473 3.32791 1.91127C3.46365 1.96781 3.57816 2.06564 3.65516 2.19088Z" fill="#315D80"/>
</g>
<defs>
<clipPath id="clip0_9_51459">
<rect width="21" height="21" fill="white"/>
</clipPath>
</defs>
</svg>
