<svg width="41" height="41" viewBox="0 0 41 41" fill="none" xmlns="http://www.w3.org/2000/svg">
<g filter="url(#filter0_d_9_51248)">
<path d="M18.75 30.125C18.75 30.6089 18.3589 31 17.875 31C17.3911 31 17 30.6089 17 30.125C17 30.125 17.0053 26.7886 17.007 26.5716C13.5551 26.1481 10.875 23.2344 10.875 19.7125V16.9991C10.3911 16.9991 10 16.608 10 16.1241C10 15.6403 10.3911 15.2491 10.875 15.2491H13.5V10.875C13.5 10.3911 13.8911 10 14.375 10C14.8589 10 15.25 10.3911 15.25 10.875V15.25H20.5V10.875C20.5 10.3911 20.8911 10 21.375 10C21.8589 10 22.25 10.3911 22.25 10.875V15.25H24.875C25.3589 15.25 25.75 15.6411 25.75 16.125C25.75 16.6089 25.3589 17 24.875 17V18.8104C21.4231 19.2417 18.75 22.1809 18.75 25.75V30.125ZM31 25.75C31 28.6497 28.6497 31 25.75 31C22.8503 31 20.5 28.6497 20.5 25.75C20.5 22.8503 22.8503 20.5 25.75 20.5C28.6497 20.5 31 22.8503 31 25.75ZM28.1396 27.0564C28.4258 26.6241 28.452 26.0737 28.207 25.617C27.962 25.1602 27.4886 24.8768 26.9706 24.8768H25.1952L26.4806 22.7496C26.7466 22.3419 26.6346 21.795 26.2295 21.5246C25.8253 21.2551 25.281 21.3593 25.0054 21.7591C24.455 22.5589 23.4601 24.2083 23.1854 24.8041C22.999 25.2084 23.1381 25.6984 23.4032 26.0562C23.6684 26.4132 24.0927 26.6268 24.5381 26.6268H26.3188L25.0316 28.7521C24.7534 29.1529 24.8566 29.7033 25.2609 29.9754C25.6581 30.2423 26.1954 30.1408 26.4675 29.747L28.1396 27.0546V27.0564Z" fill="#F1D15B"/>
</g>
<defs>
<filter id="filter0_d_9_51248" x="0" y="0" width="41" height="41" filterUnits="userSpaceOnUse" color-interpolation-filters="sRGB">
<feFlood flood-opacity="0" result="BackgroundImageFix"/>
<feColorMatrix in="SourceAlpha" type="matrix" values="0 0 0 0 0 0 0 0 0 0 0 0 0 0 0 0 0 0 127 0" result="hardAlpha"/>
<feOffset/>
<feGaussianBlur stdDeviation="5"/>
<feComposite in2="hardAlpha" operator="out"/>
<feColorMatrix type="matrix" values="0 0 0 0 1 0 0 0 0 1 0 0 0 0 1 0 0 0 0.25 0"/>
<feBlend mode="normal" in2="BackgroundImageFix" result="effect1_dropShadow_9_51248"/>
<feBlend mode="normal" in="SourceGraphic" in2="effect1_dropShadow_9_51248" result="shape"/>
</filter>
</defs>
</svg>
