<svg width="21" height="21" viewBox="0 0 21 21" fill="none" xmlns="http://www.w3.org/2000/svg">
<path d="M17.7963 10.371H20.3848C20.7244 10.371 21 10.0957 21 9.75572C21 9.41611 20.7244 9.14049 20.3848 9.14049H18.0407C18.3356 7.28166 18.1986 6.02453 18.1908 5.95686C18.163 5.71363 17.9936 5.5102 17.7598 5.43883C16.825 5.15254 16.0105 4.86215 15.3017 4.5775V3.05664H17.4144C17.6683 3.77277 18.3524 4.28711 19.1543 4.28711C20.1719 4.28711 21 3.459 21 2.44141C21 1.4234 20.1719 0.595703 19.1543 0.595703C18.3524 0.595703 17.6683 1.11004 17.4144 1.82617H14.6865C14.3464 1.82617 14.0712 2.10139 14.0712 2.44141V4.04225C11.7908 2.96559 11.0348 2.08252 10.9893 2.02756C10.7435 1.68938 10.2567 1.6891 10.0107 2.02756C9.96516 2.08252 9.20924 2.96559 6.92877 4.04225V2.44141C6.92877 2.10139 6.65355 1.82617 6.31353 1.82617H3.58559C3.3317 1.11004 2.64756 0.595703 1.8457 0.595703C0.828106 0.595703 0 1.4234 0 2.44141C0 3.459 0.828106 4.28711 1.8457 4.28711C2.64756 4.28711 3.3317 3.77277 3.58559 3.05664H5.6983V4.5775C4.98955 4.86215 4.17498 5.15254 3.24023 5.43883C3.00645 5.5102 2.83705 5.71363 2.80916 5.95686C2.80137 6.02453 2.66438 7.28166 2.95928 9.14049H0.615234C0.275625 9.14049 0 9.41611 0 9.75572C0 10.0957 0.275625 10.371 0.615234 10.371H3.20373C3.33814 10.9307 3.49523 11.4687 3.70453 12.0546H2.01428C1.67467 12.0546 1.39904 12.3299 1.39904 12.6699C1.39904 13.0095 1.67467 13.2851 2.01428 13.2851H4.20082C4.73472 14.4656 5.38445 15.5326 6.15357 16.5282H3.58559C3.3317 15.8121 2.64756 15.2978 1.8457 15.2978C0.828106 15.2978 0 16.1259 0 17.1435C0 18.1611 0.828106 18.9892 1.8457 18.9892C2.64756 18.9892 3.3317 18.4748 3.58559 17.7587H7.20275C8.06941 18.6828 9.05338 19.5314 10.1481 20.2947C10.3598 20.4423 10.6403 20.4423 10.8519 20.2947C11.9466 19.5314 12.9306 18.6828 13.7972 17.7587H17.4144C17.6683 18.4748 18.3524 18.9892 19.1543 18.9892C20.1719 18.9892 21 18.1611 21 17.1435C21 16.1259 20.1719 15.2978 19.1543 15.2978C18.3524 15.2978 17.6683 15.8121 17.4144 16.5282H14.8464C15.6137 15.535 16.264 14.4683 16.7992 13.2851H18.9857C19.3253 13.2851 19.601 13.0095 19.601 12.6699C19.601 12.3299 19.3253 12.0546 18.9857 12.0546H17.2955C17.5045 11.4694 17.6617 10.9314 17.7963 10.371ZM13.8854 13.5226C13.8854 14.1411 13.3826 14.644 12.7641 14.644H8.23594C7.61742 14.644 7.11457 14.1411 7.11457 13.5226V9.99936C7.11457 9.51045 7.42875 9.09414 7.86598 8.94074V8.54043C7.86598 7.08807 9.04764 5.90641 10.5 5.90641C11.9524 5.90641 13.134 7.08807 13.134 8.54043V8.94074C13.5712 9.09414 13.8854 9.51045 13.8854 9.99936V13.5226Z" fill="#9BB997"/>
<path d="M8.3457 10.1094V13.4144H12.6556V10.1094H8.3457ZM11.1159 11.9789C11.1159 12.3189 10.8403 12.5941 10.5007 12.5941C10.1611 12.5941 9.88543 12.3189 9.88543 11.9789V11.5449C9.88543 11.2049 10.1611 10.9297 10.5007 10.9297C10.8403 10.9297 11.1159 11.2049 11.1159 11.5449V11.9789Z" fill="#EA4B62"/>
<path d="M11.9028 8.54027V8.87783H9.0957V8.54027C9.0957 7.76631 9.72529 7.13672 10.4993 7.13672C11.2732 7.13672 11.9028 7.76631 11.9028 8.54027Z" fill="#EA4B62"/>
</svg>
