<svg width="21" height="21" viewBox="0 0 21 21" fill="none" xmlns="http://www.w3.org/2000/svg">
<g clip-path="url(#clip0_9_51335)">
<path d="M5.21432 1.23047H15.7857L16.6806 4.18359H17.9648L16.8312 0.436816C16.7929 0.310438 16.7149 0.199735 16.6089 0.121072C16.5028 0.0424084 16.3742 -4.04682e-05 16.2422 2.89494e-08H4.75781C4.62576 -4.04682e-05 4.4972 0.0424084 4.39113 0.121072C4.28507 0.199735 4.20712 0.310438 4.16883 0.436816L3.03516 4.18359H4.321L5.21432 1.23047Z" fill="#F2727F"/>
<path d="M20.3848 5.41406H0.615234C0.452064 5.41406 0.295577 5.47888 0.180198 5.59426C0.0648191 5.70964 0 5.86613 0 6.0293L0 8.69531H21V6.0293C21 5.86613 20.9352 5.70964 20.8198 5.59426C20.7044 5.47888 20.5479 5.41406 20.3848 5.41406Z" fill="#9BB997"/>
<path d="M10.5 18.334C11.1084 18.334 11.7032 18.1536 12.209 17.8156C12.7149 17.4775 13.1092 16.9971 13.342 16.435C13.5748 15.8729 13.6358 15.2544 13.5171 14.6577C13.3984 14.061 13.1054 13.5128 12.6752 13.0826C12.245 12.6524 11.6968 12.3594 11.1001 12.2407C10.5034 12.1221 9.8849 12.183 9.3228 12.4158C8.7607 12.6486 8.28027 13.0429 7.94226 13.5488C7.60424 14.0547 7.42383 14.6494 7.42383 15.2578C7.4247 16.0734 7.74907 16.8553 8.32578 17.432C8.90248 18.0087 9.68441 18.3331 10.5 18.334ZM9.26953 14.6426H11.7305C11.8936 14.6426 12.0501 14.7074 12.1655 14.8228C12.2809 14.9382 12.3457 15.0946 12.3457 15.2578C12.3457 15.421 12.2809 15.5775 12.1655 15.6928C12.0501 15.8082 11.8936 15.873 11.7305 15.873H9.26953C9.10636 15.873 8.94987 15.8082 8.83449 15.6928C8.71912 15.5775 8.6543 15.421 8.6543 15.2578C8.6543 15.0946 8.71912 14.9382 8.83449 14.8228C8.94987 14.7074 9.10636 14.6426 9.26953 14.6426Z" fill="#9BB997"/>
<path d="M3.29135 20.4967C3.31751 20.6381 3.39234 20.7658 3.50285 20.8577C3.61336 20.9497 3.75258 21 3.89633 21H17.1034C17.2471 21 17.3863 20.9497 17.4968 20.8577C17.6073 20.7658 17.6822 20.6381 17.7083 20.4967L19.666 9.92578H1.33203L3.29135 20.4967ZM10.4998 10.9512C11.3516 10.9512 12.1843 11.2038 12.8925 11.677C13.6007 12.1502 14.1527 12.8228 14.4787 13.6097C14.8046 14.3967 14.8899 15.2626 14.7237 16.098C14.5576 16.9334 14.1474 17.7008 13.5451 18.3031C12.9428 18.9054 12.1754 19.3155 11.34 19.4817C10.5046 19.6479 9.6387 19.5626 8.85176 19.2366C8.06483 18.9107 7.39222 18.3587 6.919 17.6505C6.44578 16.9422 6.1932 16.1096 6.1932 15.2578C6.19451 14.116 6.64866 13.0214 7.45603 12.214C8.2634 11.4066 9.35805 10.9525 10.4998 10.9512Z" fill="#F2727F"/>
</g>
<defs>
<clipPath id="clip0_9_51335">
<rect width="21" height="21" fill="white"/>
</clipPath>
</defs>
</svg>
