<svg width="52" height="52" viewBox="0 0 52 52" fill="none" xmlns="http://www.w3.org/2000/svg">
<path d="M48.9539 24.4766H46.8647C46.6735 21.976 46.015 19.6043 44.9781 17.4476L47.23 16.1474C47.9587 15.7268 48.2083 14.795 47.7876 14.0664C47.3668 13.3376 46.4353 13.088 45.7066 13.5088L43.4503 14.8115C42.7201 13.7488 41.8894 12.7603 40.9713 11.8606L42.6475 9.86294C43.1882 9.21842 43.1042 8.25744 42.4596 7.71662C41.815 7.176 40.8541 7.25979 40.3133 7.90451L38.6382 9.90072C37.5968 9.15332 36.4808 8.50373 35.3027 7.96687L36.1916 5.5247C36.4793 4.73413 36.0716 3.85988 35.281 3.57205C34.4902 3.28433 33.6162 3.692 33.3283 4.48266L32.4402 6.9228C31.217 6.58115 29.9468 6.35375 28.6413 6.25402V3.65625C28.6413 2.81491 27.9592 2.13281 27.1179 2.13281C26.2765 2.13281 25.5944 2.81491 25.5944 3.65625V6.2533C24.2889 6.35304 23.0186 6.58095 21.7955 6.9226L20.9074 4.48266C20.6197 3.6921 19.7455 3.28443 18.9548 3.57216C18.1641 3.85998 17.7566 4.73413 18.0443 5.5249L18.9332 7.96717C17.7551 8.50403 16.6388 9.15312 15.5973 9.90041L13.9227 7.90461C13.3819 7.25999 12.4209 7.176 11.7765 7.71682C11.1319 8.25754 11.0479 9.21852 11.5887 9.86304L13.2653 11.8612C12.3471 12.7609 11.516 13.7488 10.7856 14.8116L8.52951 13.5088C7.8009 13.0879 6.86916 13.3376 6.44849 14.0664C6.02782 14.795 6.27746 15.7269 7.00607 16.1474L9.2572 17.4471C8.01174 20.0376 7.3133 22.9387 7.3133 26C7.3133 27.3998 7.48869 28.873 7.8528 30.5703H48.9539C50.6367 30.5703 52.0008 29.2062 52.0008 27.5234C52.0008 25.8406 50.6367 24.4766 48.9539 24.4766ZM15.9461 21.4297C15.1048 21.4297 14.4227 20.7476 14.4227 19.9062C14.4227 19.0649 15.1048 18.3828 15.9461 18.3828C16.7875 18.3828 17.4695 19.0649 17.4695 19.9062C17.4695 20.7476 16.7875 21.4297 15.9461 21.4297ZM22.0399 24.4766C21.1985 24.4766 20.5164 23.7945 20.5164 22.9531C20.5164 22.1118 21.1985 21.4297 22.0399 21.4297C22.8812 21.4297 23.5633 22.1118 23.5633 22.9531C23.5633 23.7945 22.8812 24.4766 22.0399 24.4766ZM22.0399 18.3828C21.1985 18.3828 20.5164 17.7007 20.5164 16.8594C20.5164 16.018 21.1985 15.3359 22.0399 15.3359C22.8812 15.3359 23.5633 16.018 23.5633 16.8594C23.5633 17.7007 22.8812 18.3828 22.0399 18.3828ZM28.1336 21.4297C27.2923 21.4297 26.6102 20.7476 26.6102 19.9062C26.6102 19.0649 27.2923 18.3828 28.1336 18.3828C28.975 18.3828 29.657 19.0649 29.657 19.9062C29.657 20.7476 28.975 21.4297 28.1336 21.4297ZM28.1336 15.3359C27.2923 15.3359 26.6102 14.6538 26.6102 13.8125C26.6102 12.9712 27.2923 12.2891 28.1336 12.2891C28.975 12.2891 29.657 12.9712 29.657 13.8125C29.657 14.6538 28.975 15.3359 28.1336 15.3359ZM38.2899 24.4766C37.4485 24.4766 36.7664 23.7945 36.7664 22.9531C36.7664 22.1118 37.4485 21.4297 38.2899 21.4297C39.1312 21.4297 39.8133 22.1118 39.8133 22.9531C39.8133 23.7945 39.1312 24.4766 38.2899 24.4766Z" fill="#EA4B62"/>
<path d="M5.62859 18.2246L4.23597 17.5283C3.53255 17.1763 2.67678 17.4182 2.26119 18.0861C1.22962 19.744 0 22.463 0 26.0003C0 27.9529 0.392336 30.9109 2.26119 33.9145C2.548 34.3754 3.04423 34.6333 3.5557 34.6333C3.78534 34.6333 4.01802 34.5812 4.23607 34.4722L5.6287 33.7759C4.74723 31.3476 4.26562 28.7293 4.26562 26.0003C4.26562 23.2713 4.74723 20.6529 5.62859 18.2246Z" fill="#F1D15B"/>
<path d="M47.2299 35.8526L44.9769 34.5519C45.1247 34.2445 45.2652 33.933 45.3972 33.6173H32.3595C31.3522 37.2678 28.228 40.092 24.315 40.581L23.2444 40.7148C23.1814 40.7227 23.1182 40.7266 23.0555 40.7266C22.6863 40.7266 22.3273 40.5924 22.0473 40.3452C21.7197 40.0559 21.532 39.6401 21.532 39.2031V33.6172H8.83866C8.9708 33.933 9.11116 34.2444 9.25893 34.5518L7.00607 35.8526C6.27746 36.2733 6.02782 37.205 6.44849 37.9336C6.73063 38.4223 7.24271 38.6956 7.76921 38.6956C8.02759 38.6956 8.28962 38.6298 8.52951 38.4912L10.7867 37.1879C11.5169 38.2506 12.3474 39.2391 13.2654 40.1388L11.5887 42.137C11.0479 42.7815 11.1319 43.7425 11.7765 44.2832C12.0619 44.5227 12.4093 44.6397 12.7549 44.6397C13.1897 44.6397 13.6214 44.4546 13.9228 44.0955L15.5981 42.099C16.6394 42.8464 17.7556 43.4955 18.9336 44.0323L18.0445 46.4751C17.7568 47.2658 18.1643 48.14 18.955 48.4278C19.127 48.4904 19.3029 48.5201 19.4759 48.5201C20.0981 48.5201 20.6824 48.1359 20.9075 47.5173L21.7956 45.0774C23.0187 45.4192 24.289 45.6469 25.5945 45.7466V48.3438C25.5945 49.1851 26.2766 49.8672 27.118 49.8672C27.9593 49.8672 28.6414 49.1851 28.6414 48.3438V45.7466C29.947 45.6468 31.2173 45.4192 32.4404 45.0774L33.3284 47.5172C33.5537 48.136 34.1378 48.5201 34.7602 48.5201C34.9331 48.5201 35.1092 48.4904 35.2811 48.4278C36.0717 48.14 36.4794 47.2659 36.1917 46.4752L35.3026 44.0323C36.4805 43.4955 37.5968 42.8464 38.6381 42.099L40.3133 44.0954C40.6147 44.4545 41.0464 44.6396 41.4812 44.6396C41.8267 44.6396 42.1742 44.5227 42.4596 44.2832C43.1042 43.7424 43.1882 42.7814 42.6475 42.1369L40.9708 40.1387C41.8887 39.239 42.7193 38.2505 43.4494 37.1878L45.7067 38.4911C45.9466 38.6296 46.2085 38.6955 46.467 38.6955C46.9935 38.6955 47.5055 38.4223 47.7877 37.9335C48.2083 37.205 47.9586 36.2731 47.2299 35.8526Z" fill="#F1D15B"/>
<path d="M24.5781 33.6172V37.4449C26.6562 36.9715 28.335 35.5149 29.1397 33.6172H24.5781Z" fill="#F1D15B"/>
</svg>
