<svg width="30" height="30" viewBox="0 0 30 30" fill="none" xmlns="http://www.w3.org/2000/svg">
<g clip-path="url(#clip0_9_45930)">
<path fill-rule="evenodd" clip-rule="evenodd" d="M6.51347 7.89837L4.99525 9.41709L11.6194 14.3239L6.51347 7.89837ZM28.6404 24.2018L22.3977 19.8337L19.8336 22.3984L24.2024 28.6411C24.6041 29.2159 25.1843 29.6421 25.853 29.8534C26.5217 30.0647 27.2414 30.0493 27.9005 29.8096C28.5595 29.5698 29.121 29.1192 29.4977 28.5277C29.8743 27.9361 30.0452 27.2367 29.9836 26.5382C29.9463 26.0738 29.8065 25.6236 29.5742 25.2198C29.3419 24.816 29.023 24.4687 28.6404 24.203V24.2018ZM28.0708 28.0717C27.8253 28.3172 27.5124 28.4844 27.1718 28.5521C26.8313 28.6199 26.4783 28.5851 26.1574 28.4522C25.8366 28.3193 25.5624 28.0943 25.3695 27.8055C25.1766 27.5168 25.0736 27.1774 25.0736 26.8301C25.0736 26.4829 25.1766 26.1434 25.3695 25.8547C25.5624 25.566 25.8366 25.3409 26.1574 25.208C26.4783 25.0751 26.8313 25.0404 27.1718 25.1081C27.5124 25.1758 27.8253 25.343 28.0708 25.5886C28.2344 25.7513 28.3642 25.9448 28.4527 26.1578C28.5413 26.3709 28.5869 26.5994 28.5869 26.8301C28.5869 27.0609 28.5413 27.2893 28.4527 27.5024C28.3642 27.7155 28.2344 27.9089 28.0708 28.0717ZM26.3499 14.8885L14.8917 26.351C14.5002 26.7415 13.9699 26.9607 13.417 26.9607C12.8641 26.9607 12.3337 26.7415 11.9423 26.351L10.9309 25.3397L25.3386 10.9318L26.3499 11.9431C26.5435 12.1365 26.697 12.366 26.8018 12.6188C26.9065 12.8715 26.9604 13.1424 26.9604 13.4159C26.9604 13.6895 26.9065 13.9604 26.8018 14.2131C26.697 14.4658 26.5435 14.6952 26.3499 14.8885ZM5.40635 3.72018C5.40635 3.51183 5.34456 3.30816 5.22881 3.13492C5.11306 2.96168 4.94853 2.82666 4.75604 2.74692C4.56354 2.66719 4.35173 2.64633 4.14738 2.68698C3.94303 2.72762 3.75532 2.82795 3.608 2.97528C3.46067 3.12261 3.36034 3.31032 3.31969 3.51467C3.27904 3.71902 3.2999 3.93083 3.37964 4.12332C3.45937 4.31581 3.59439 4.48034 3.76763 4.5961C3.94087 4.71185 4.14455 4.77363 4.3529 4.77363C4.63229 4.77363 4.90024 4.66265 5.0978 4.46509C5.29536 4.26753 5.40635 3.99958 5.40635 3.72018ZM14.4118 0L24.844 10.4319L10.4358 24.8398L0.00390625 14.4079L0.884791 13.5228L7.10817 17.5073C7.16503 17.5443 7.23125 17.5642 7.29905 17.5648C7.36407 17.565 7.42789 17.5471 7.48342 17.5133C7.53895 17.4795 7.58404 17.4309 7.61369 17.3731C7.64334 17.3152 7.6564 17.2502 7.65142 17.1854C7.64644 17.1206 7.62362 17.0584 7.58548 17.0057L3.35388 11.0542L4.4911 9.91698L13.3436 16.4724C13.4047 16.5165 13.478 16.5404 13.5533 16.5409C13.6002 16.5412 13.6466 16.5318 13.6897 16.5134C13.7329 16.4951 13.7718 16.4681 13.8041 16.4341C13.8635 16.3731 13.8985 16.2925 13.9027 16.2075C13.9068 16.1224 13.8798 16.0388 13.8267 15.9723L7.01587 7.39422L14.4118 0ZM28.9457 2.66698C28.9457 2.38918 28.8633 2.11762 28.709 1.88663C28.5546 1.65565 28.3353 1.47561 28.0786 1.3693C27.8219 1.26299 27.5395 1.23518 27.2671 1.28937C26.9946 1.34357 26.7443 1.47735 26.5479 1.67378C26.3514 1.87022 26.2177 2.12049 26.1635 2.39296C26.1093 2.66543 26.1371 2.94784 26.2434 3.2045C26.3497 3.46116 26.5297 3.68053 26.7607 3.83487C26.9917 3.98921 27.2633 4.07158 27.5411 4.07158C27.9136 4.07158 28.2709 3.9236 28.5343 3.66019C28.7977 3.39677 28.9457 3.03951 28.9457 2.66698ZM2.85023 11.5611L5.96392 15.9417L1.39647 13.0151L2.85123 11.5604L2.85023 11.5611ZM6.4598 25.8512C6.4598 25.365 6.31564 24.8898 6.04554 24.4855C5.77545 24.0813 5.39155 23.7663 4.9424 23.5802C4.49325 23.3942 3.99902 23.3455 3.52221 23.4403C3.04539 23.5352 2.60741 23.7693 2.26364 24.1131C1.91988 24.4568 1.68577 24.8948 1.59093 25.3716C1.49609 25.8484 1.54476 26.3427 1.73081 26.7918C1.91685 27.241 2.23191 27.6249 2.63613 27.895C3.04035 28.1651 3.51559 28.3092 4.00175 28.3092C4.65366 28.3092 5.27888 28.0502 5.73985 27.5893C6.20083 27.1283 6.4598 26.5031 6.4598 25.8512Z" fill="#315D80"/>
</g>
<defs>
<clipPath id="clip0_9_45930">
<rect width="30" height="30" fill="white"/>
</clipPath>
</defs>
</svg>
