<svg width="62" height="62" viewBox="0 0 62 62" fill="none" xmlns="http://www.w3.org/2000/svg">
<g clip-path="url(#clip0_9_45820)">
<path fill-rule="evenodd" clip-rule="evenodd" d="M59.2095 50.0138L46.2885 40.9824L40.9961 46.2938L50.0304 59.1898C51.0199 60.5408 52.4867 61.4649 54.1329 61.7743C55.7791 62.0838 57.4814 61.7555 58.8942 60.856C60.3071 59.9565 61.3246 58.5532 61.7402 56.9311C62.1559 55.309 61.9384 53.5895 61.1321 52.1218C60.6512 51.2998 59.9947 50.5941 59.2095 50.0551V50.0138Z" fill="#315D80"/>
<path fill-rule="evenodd" clip-rule="evenodd" d="M54.4751 30.7727L30.7832 54.4567C29.9734 55.2631 28.8769 55.7159 27.7338 55.7159C26.5908 55.7159 25.4944 55.2631 24.6845 54.4567L22.6172 52.39L52.3871 22.6094L54.4545 24.676C55.2535 25.4866 55.7058 26.5761 55.7155 27.714C55.7118 28.2812 55.5995 28.8424 55.3847 29.3674C55.1644 29.8845 54.8567 30.3599 54.4751 30.7727Z" fill="#315D80"/>
<path fill-rule="evenodd" clip-rule="evenodd" d="M13.4581 16.3267L10.3778 19.4473L24.0637 29.5947L13.4581 16.3267ZM58.0303 58.0113C57.516 58.5107 56.871 58.8545 56.1697 59.0033C55.4625 59.1447 54.7293 59.0729 54.063 58.7969C53.3968 58.521 52.8276 58.0533 52.4278 57.4533C52.0228 56.8412 51.8137 56.1204 51.8283 55.3866C51.8188 54.6536 52.0275 53.9343 52.4278 53.32C52.8302 52.7281 53.3983 52.268 54.061 51.9973C54.7266 51.7235 55.4581 51.652 56.1642 51.7917C56.8702 51.9314 57.5193 52.2761 58.0303 52.7827C58.3681 53.1191 58.6352 53.5195 58.8159 53.9606C59.1746 54.8489 59.1746 55.8417 58.8159 56.73C58.6419 57.2051 58.3748 57.6407 58.0303 58.0113ZM11.1634 7.688C11.1547 7.37127 11.0768 7.0603 10.935 6.7769C10.7933 6.4935 10.5912 6.24453 10.3429 6.04756C10.0946 5.85059 9.80627 5.71036 9.49799 5.63672C9.18972 5.56309 8.86903 5.55785 8.55851 5.62134C8.14208 5.72458 7.75821 5.93067 7.44212 6.22069C7.14988 6.53218 6.94954 6.91838 6.86326 7.33664C6.77998 7.75684 6.82178 8.19225 6.98345 8.58895C7.14513 8.98566 7.41959 9.32629 7.77291 9.56868C8.13011 9.81807 8.557 9.94825 8.99264 9.94066C9.56668 9.93527 10.1157 9.70491 10.5216 9.29912C10.9276 8.89332 11.158 8.34454 11.1634 7.77069V7.688ZM29.7696 0L51.3321 21.5553L21.5415 51.336L0.0410156 29.7807L1.8603 27.9413L14.7193 36.208C14.8354 36.2865 14.9719 36.3296 15.1121 36.332C15.2412 36.3627 15.3757 36.3627 15.5049 36.332C15.6196 36.2623 15.7126 36.1622 15.7736 36.0427C15.8043 35.9136 15.8043 35.7791 15.7736 35.65C15.7528 35.517 15.7035 35.3901 15.6289 35.278L6.88396 22.878L9.24077 20.522L27.5368 34.0793C27.664 34.1695 27.8151 34.2199 27.971 34.224C28.0665 34.2435 28.1649 34.2435 28.2604 34.224C28.3487 34.1884 28.4268 34.1316 28.4879 34.0587C28.6057 33.9345 28.6785 33.7744 28.6945 33.604C28.7032 33.4239 28.6442 33.2469 28.5292 33.108L14.5125 15.2726L29.7696 0ZM59.8083 5.49734C59.8067 4.92267 59.634 4.3615 59.3121 3.88534C58.9885 3.41449 58.5344 3.0483 58.0056 2.8317C57.4768 2.61511 56.8962 2.55753 56.3351 2.66602C55.7714 2.77243 55.2528 3.04625 54.8471 3.4518C54.4414 3.85735 54.1675 4.37573 54.061 4.9393C53.9384 5.50079 53.9962 6.0867 54.2264 6.61336C54.4473 7.14454 54.8216 7.59779 55.3015 7.91531C55.7755 8.24176 56.3384 8.41493 56.914 8.41135C57.2974 8.41297 57.6773 8.33897 58.0321 8.19357C58.3868 8.04817 58.7094 7.83422 58.9813 7.56401C59.5234 7.01249 59.8278 6.27055 59.829 5.49734H59.8083ZM5.8916 23.8287L12.3211 32.8807L2.87328 26.8254L5.8916 23.8287ZM13.3548 53.3613C13.3066 52.4052 12.9915 51.4816 12.4451 50.6953C11.8904 49.8618 11.0982 49.2138 10.171 48.8353C9.2448 48.4423 8.22063 48.3414 7.23544 48.546C6.24846 48.7376 5.3413 49.2197 4.63036 49.9304C3.91942 50.6411 3.4371 51.548 3.24539 52.5347C3.03936 53.5195 3.14041 54.5437 3.53485 55.4693C3.91347 56.3962 4.56162 57.1881 5.39546 57.7427C6.15467 58.2518 7.03711 58.5469 7.94994 58.5969C8.86276 58.647 9.77222 58.4501 10.5826 58.0271C11.393 57.6041 12.0743 56.9705 12.5549 56.1931C13.0354 55.4157 13.2975 54.5231 13.3135 53.6093L13.3548 53.3613Z" fill="#C06A87"/>
<path d="M56.1703 58.9614C56.7456 58.8563 57.2869 58.6135 57.7478 58.2535C58.2087 57.8936 58.5754 57.4273 58.8165 56.8947C59.1752 56.0064 59.1752 55.0137 58.8165 54.1254C58.6358 53.6843 58.3687 53.2837 58.0309 52.9473C57.5199 52.4407 56.8708 52.096 56.1647 51.9563C55.4587 51.8166 54.7272 51.8882 54.0616 52.162C53.3989 52.4327 52.8308 52.8928 52.4284 53.4847C52.0281 54.099 51.8194 54.8183 51.8288 55.5514C51.8143 56.2851 52.0234 57.0059 52.4284 57.618C52.8282 58.218 53.3974 58.6857 54.0636 58.9617C54.7299 59.2376 55.4631 59.3095 56.1703 59.168V58.9614Z" fill="#C06A87"/>
<path d="M59.3326 3.88601C59.6545 4.36216 59.8272 4.92334 59.8288 5.49801C59.8276 6.27122 59.5233 7.01315 58.9812 7.56467C58.7093 7.83489 58.3867 8.04884 58.0319 8.19423C57.6772 8.33963 57.2972 8.41363 56.9138 8.41201C56.3382 8.4156 55.7753 8.24242 55.3013 7.91597C54.8214 7.59845 54.4471 7.14521 54.2262 6.61402C53.9961 6.08737 53.9382 5.50145 54.0609 4.93997C54.1673 4.37639 54.4412 3.85802 54.8469 3.45247C55.2526 3.04692 55.7712 2.77309 56.335 2.66668C56.8961 2.5582 57.4766 2.61577 58.0054 2.83237C58.5342 3.04896 58.9883 3.41516 59.312 3.88601H59.3326Z" fill="#C06A87"/>
<path d="M59.3326 3.88601C59.6545 4.36216 59.8272 4.92334 59.8288 5.49801C59.8276 6.27122 59.5233 7.01315 58.9812 7.56467C58.7093 7.83489 58.3867 8.04884 58.0319 8.19423C57.6772 8.33963 57.2972 8.41363 56.9138 8.41201C56.3382 8.4156 55.7753 8.24242 55.3013 7.91597C54.8214 7.59845 54.4471 7.14521 54.2262 6.61402C53.9961 6.08737 53.9382 5.50145 54.0609 4.93997C54.1673 4.37639 54.4412 3.85802 54.8469 3.45247C55.2526 3.04692 55.7712 2.77309 56.335 2.66668C56.8961 2.5582 57.4766 2.61577 58.0054 2.83237C58.5342 3.04896 58.9883 3.41516 59.312 3.88601H59.3326Z" fill="#315D80"/>
<path d="M12.4446 50.696C13.0937 51.6737 13.3845 52.8459 13.2677 54.0136C13.1508 55.1813 12.6335 56.2726 11.8034 57.1024C10.9733 57.9321 9.88165 58.4493 8.71359 58.5661C7.54552 58.683 6.37297 58.3923 5.39489 57.7433C4.56105 57.1888 3.9129 56.3968 3.53428 55.47C3.13984 54.5444 3.03879 53.5201 3.24482 52.5354C3.43653 51.5487 3.91885 50.6418 4.62979 49.9311C5.34073 49.2204 6.24789 48.7383 7.23487 48.5466C8.22006 48.342 9.24423 48.443 10.1705 48.836C11.0977 49.2145 11.8899 49.8624 12.4446 50.696Z" fill="#315D80"/>
<path d="M10.7921 6.46887C11.0415 6.82596 11.1718 7.2527 11.1642 7.68819C11.1588 8.26204 10.9284 8.81083 10.5224 9.21662C10.1165 9.62241 9.56747 9.85278 8.99342 9.85817C8.55779 9.86575 8.1309 9.73557 7.77369 9.48618C7.42038 9.2438 7.14591 8.90317 6.98424 8.50646C6.82256 8.10975 6.78077 7.67441 6.86405 7.25421C6.95032 6.83595 7.15066 6.44969 7.44291 6.13819C7.759 5.84817 8.14286 5.64208 8.5593 5.53884C8.98201 5.43986 9.42515 5.47642 9.8259 5.64335C10.2267 5.81027 10.5647 6.09912 10.7921 6.46887Z" fill="#315D80"/>
</g>
<defs>
<clipPath id="clip0_9_45820">
<rect width="62" height="62" fill="white"/>
</clipPath>
</defs>
</svg>
