<svg width="52" height="52" viewBox="0 0 52 52" fill="none" xmlns="http://www.w3.org/2000/svg">
<g clip-path="url(#clip0_9_46342)">
<path d="M34.7612 20.8H29.6634C29.1489 20.8005 28.6468 20.6422 28.2256 20.3467L20.4334 14.8867C20.2855 14.7874 20.1115 14.7341 19.9334 14.7333H16.341C15.8082 14.7346 15.2889 14.5652 14.8593 14.2501C14.4296 13.9349 14.1122 13.4904 13.9534 12.9818L10.881 3.2604C10.7619 2.88505 10.7329 2.48687 10.7966 2.09823C10.8603 1.70959 11.0148 1.34146 11.2475 1.02377C11.4802 0.706075 11.7847 0.447785 12.136 0.269895C12.4874 0.0920049 12.8758 -0.000465147 13.2696 2.01865e-06H25.5416C26.1717 -0.000798727 26.7788 0.236653 27.2411 0.664735L36.4598 9.17194C36.7139 9.40684 36.9166 9.69167 37.0555 10.0086C37.1943 10.3255 37.2662 10.6676 37.2667 11.0136V18.2936C37.2662 18.958 37.0022 19.5952 36.5324 20.0651C36.0626 20.535 35.4256 20.7993 34.7612 20.8Z" fill="#F1D15B"/>
<path d="M39.0178 8.26193C38.3864 8.26206 37.778 8.02514 37.313 7.59807L33.7918 4.34547C33.4222 4.00323 33.1643 3.55758 33.0517 3.06661C32.9391 2.57565 32.9771 2.06215 33.1606 1.59307C33.3442 1.12399 33.6648 0.721102 34.0807 0.436933C34.4966 0.152765 34.9885 0.000502529 35.4922 0L49.4941 0C50.1583 0.000688273 50.7952 0.264884 51.265 0.734614C51.7347 1.20434 51.9989 1.84124 51.9996 2.50553V2.67367C51.9972 3.21424 51.8211 3.73973 51.4973 4.17261C51.1735 4.60549 50.7191 4.92282 50.2012 5.0778C38.8557 8.41533 39.5317 8.26193 39.0178 8.26193Z" fill="#F2727F"/>
<path d="M41.5055 20.8002C40.8412 20.7995 40.2043 20.5353 39.7346 20.0655C39.2649 19.5958 39.0007 18.9589 39 18.2946V12.0546C39.0022 11.5142 39.1782 10.9889 39.5019 10.5561C39.8255 10.1234 40.2797 9.80619 40.7975 9.65135L48.7873 7.29748C49.1614 7.18723 49.556 7.16586 49.9399 7.23508C50.3237 7.30429 50.686 7.46219 50.9981 7.69618C51.3101 7.93017 51.5631 8.2338 51.7371 8.58287C51.911 8.93194 52.0011 9.31681 52 9.70682V17.7764C51.9966 18.4041 51.759 19.0081 51.3337 19.4699C50.9084 19.9317 50.3261 20.2182 49.7007 20.2732C42.0177 20.9059 43.8291 20.8002 41.5055 20.8002Z" fill="#F2727F"/>
<path d="M47.7225 40.4343L41.8846 34.5903C41.5697 34.274 41.3446 33.8795 41.2327 33.4473C41.1207 33.0152 41.1259 32.5611 41.2476 32.1316L43.5243 24.147C43.6657 23.6584 43.9517 23.224 44.3446 22.9011C44.7375 22.5781 45.219 22.3816 45.7257 22.3374L49.2868 22.0419C49.6321 22.0131 49.9796 22.0563 50.3074 22.1686C50.6351 22.281 50.936 22.4601 51.191 22.6947C51.446 22.9293 51.6496 23.2142 51.7889 23.5314C51.9282 23.8487 52.0002 24.1914 52.0003 24.5379V38.6645C52.0005 39.1602 51.8536 39.6448 51.5781 40.057C51.3027 40.4691 50.9112 40.7903 50.4532 40.9798C49.9951 41.1693 49.4911 41.2186 49.005 41.1215C48.5189 41.0244 48.0726 40.7852 47.7225 40.4343Z" fill="#F1D15B"/>
<path d="M9.2638 14.7333H2.5038C1.8398 14.7322 1.20336 14.4678 0.734 13.9981C0.264645 13.5284 0.000687328 12.8918 0 12.2278L0 2.50554C0.000688273 1.84124 0.264884 1.20435 0.734614 0.734621C1.20434 0.264891 1.84124 0.000695279 2.50553 7.00604e-06H6.19233C6.72518 -0.00125534 7.24445 0.1681 7.67409 0.483278C8.10374 0.798455 8.4212 1.2429 8.58 1.75154L11.6515 11.4729C11.7706 11.8482 11.7996 12.2463 11.7359 12.6349C11.6723 13.0235 11.5179 13.3916 11.2853 13.7092C11.0526 14.0269 10.7483 14.2852 10.3971 14.4632C10.0458 14.6411 9.65755 14.7337 9.2638 14.7333Z" fill="#F2727F"/>
<path d="M0 35.7222V18.9722C3.9717e-05 18.3561 0.227064 17.7616 0.637697 17.3023C1.04833 16.8431 1.61378 16.5512 2.22602 16.4824C2.83826 16.4137 3.45435 16.573 3.9566 16.9298C4.45885 17.2866 4.81203 17.8159 4.94867 18.4166L8.20213 32.727C8.30851 33.1989 8.27646 33.6915 8.10982 34.1456C7.94317 34.5997 7.64902 34.9961 7.26267 35.2872L4.00833 37.7268C3.63599 38.0055 3.19344 38.1752 2.73019 38.2167C2.26695 38.2582 1.80129 38.17 1.38531 37.962C0.969329 37.754 0.619438 37.4343 0.374783 37.0387C0.130129 36.6432 0.000361484 36.1873 0 35.7222Z" fill="#F1D15B"/>
<path d="M10.9096 52.0004H2.50293C1.83909 51.999 1.20286 51.7345 0.733693 51.2649C0.264526 50.7952 0.000686737 50.1587 0 49.4949L0 44.1528C0.00110048 43.7642 0.0920257 43.3812 0.265672 43.0336C0.439317 42.686 0.690981 42.3832 1.001 42.149L8.7698 36.3233C9.06751 36.0984 9.41198 35.9433 9.77771 35.8695C10.1435 35.7957 10.5211 35.805 10.8827 35.8969L14.5435 36.8156C14.9363 36.9144 15.2991 37.107 15.601 37.3769C15.903 37.6468 16.1349 37.9859 16.2769 38.3652L17.6479 42.0182C17.7873 42.3899 17.8365 42.7895 17.7913 43.1839C17.7461 43.5784 17.6078 43.9565 17.3879 44.2871L12.9922 50.8842C12.7642 51.2277 12.4546 51.5094 12.0912 51.7041C11.7279 51.8989 11.3219 52.0007 10.9096 52.0004Z" fill="#F1D15B"/>
<path d="M26.9614 51.9992H19.0106C18.5572 51.9988 18.1125 51.8754 17.7237 51.6422C17.3349 51.4091 17.0165 51.0749 16.8026 50.6752C16.5887 50.2755 16.4871 49.8252 16.5087 49.3724C16.5303 48.9196 16.6743 48.4811 16.9254 48.1036L18.787 45.3138C19.0155 44.9707 19.3253 44.6894 19.6888 44.495C20.0523 44.3005 20.4582 44.1989 20.8704 44.1992H26.9614C27.6257 44.1999 28.2626 44.4641 28.7323 44.9338C29.202 45.4036 29.4662 46.0405 29.4669 46.7048V49.4937C29.4662 50.158 29.202 50.7949 28.7323 51.2646C28.2626 51.7343 27.6257 51.9985 26.9614 51.9992Z" fill="#F2727F"/>
<path d="M49.4937 52.0006H33.7048C33.0405 51.9999 32.4036 51.7357 31.9338 51.2659C31.4641 50.7962 31.1999 50.1593 31.1992 49.495V44.7284C31.1984 44.3992 31.2628 44.0732 31.3888 43.7691C31.5148 43.465 31.6999 43.189 31.9333 42.9569L38.0944 36.7949C38.5653 36.327 39.2021 36.0645 39.8659 36.0645C40.5297 36.0645 41.1665 36.327 41.6374 36.7949L51.2643 46.4149C51.7333 46.8857 51.9974 47.5227 51.9992 48.1872V49.4915C51.9995 50.1564 51.7357 50.7942 51.2658 51.2647C50.796 51.7352 50.1586 51.9999 49.4937 52.0006Z" fill="#F2727F"/>
<path d="M15.2122 35.1149C14.771 35.1149 14.7026 35.0637 11.7576 34.3297C11.307 34.2193 10.8961 33.9852 10.5713 33.6539C10.2465 33.3225 10.0207 32.907 9.91944 32.4542L6.98404 19.527C6.90077 19.1602 6.90116 18.7793 6.98517 18.4127C7.06919 18.0461 7.23467 17.7031 7.46935 17.4091C7.70403 17.1151 8.00188 16.8778 8.3408 16.7147C8.67973 16.5516 9.05103 16.4668 9.42717 16.4668H18.8738C19.3883 16.4663 19.8904 16.6246 20.3116 16.9201L25.119 20.2871C25.4019 20.4853 25.6408 20.74 25.8206 21.0349C26.0004 21.3299 26.1172 21.6589 26.1639 22.0011C26.2105 22.3434 26.1859 22.6917 26.0915 23.024C25.9972 23.3563 25.8352 23.6655 25.6156 23.9323L17.1509 34.2031C16.9149 34.4886 16.6187 34.7183 16.2836 34.8759C15.9484 35.0335 15.5825 35.1151 15.2122 35.1149Z" fill="#F2727F"/>
<path d="M28.9354 42.4665H21.4067C20.8972 42.4654 20.4001 42.3095 19.9813 42.0194C19.5625 41.7294 19.2417 41.3189 19.0615 40.8424L17.9643 37.92C17.81 37.508 17.7666 37.0627 17.8384 36.6286C17.9102 36.1946 18.0946 35.787 18.3733 35.4465L28.2533 23.4458C28.4881 23.1597 28.7835 22.9295 29.1182 22.7716C29.4529 22.6138 29.8185 22.5324 30.1886 22.5332H38.8639C39.2518 22.533 39.6344 22.6229 39.9816 22.7958C40.3288 22.9686 40.6311 23.2198 40.8647 23.5294C41.0983 23.8391 41.2568 24.1987 41.3277 24.5801C41.3986 24.9614 41.38 25.354 41.2733 25.7269L39.2739 32.72C39.1567 33.128 38.9378 33.4996 38.6377 33.7999L30.7069 41.7299C30.475 41.9638 30.199 42.1493 29.895 42.2757C29.5909 42.4022 29.2647 42.467 28.9354 42.4665Z" fill="#F1D15B"/>
</g>
<defs>
<clipPath id="clip0_9_46342">
<rect width="52" height="52" fill="white"/>
</clipPath>
</defs>
</svg>
