<svg width="52" height="52" viewBox="0 0 52 52" fill="none" xmlns="http://www.w3.org/2000/svg">
<path d="M33.4297 18.5742H26.9297V22.9859L36.2154 32.2641V21.3599C36.2154 19.8214 34.9682 18.5742 33.4297 18.5742Z" fill="#9BB997"/>
<path d="M27.8581 11.1428C28.3403 11.1438 28.8209 11.1989 29.2909 11.3071C28.6801 10.0513 27.3972 9.263 26.0009 9.28563C24.5999 9.2831 23.3184 10.0746 22.6934 11.3285C23.1681 11.2112 23.6548 11.1489 24.1438 11.1428H27.8581Z" fill="#9BB997"/>
<path d="M27.8579 13H24.1436C22.2538 13.0068 20.5572 14.16 19.8555 15.9148L20.655 16.7143H32.4079C31.9636 14.554 30.0633 13.0028 27.8579 13Z" fill="#9BB997"/>
<path d="M25.0719 21.1306V18.5742H22.5137L25.0719 21.1306Z" fill="#9BB997"/>
<path d="M13.9894 20.7718C14.0787 20.0252 14.3479 19.3114 14.7741 18.6918L8.40965 12.332C8.10972 12.7165 7.84043 13.1195 7.56836 13.5206C8.72318 14.6909 9.73583 15.9934 10.5853 17.4011C11.4279 18.7857 12.5966 19.943 13.9894 20.7718Z" fill="#9BB997"/>
<path d="M38.0707 22.8635V26.9641C39.3313 27.0506 40.5631 27.3811 41.6977 27.9372C42.8749 28.5312 44.1813 28.8228 45.4993 28.7859C46.0121 28.7859 46.4279 29.2017 46.4279 29.7145C46.4279 30.2273 46.0121 30.6431 45.4993 30.6431C43.9219 30.6772 42.3594 30.3313 40.9437 29.6346C40.0458 29.1861 39.0709 28.912 38.0707 28.8268V33.4288C38.0707 33.6498 38.0531 33.868 38.041 34.0871L43.5994 39.6409C47.0395 35.2293 48.6853 29.6807 48.207 24.1068C47.9396 20.9583 46.9923 17.9052 45.4306 15.1582C44.5084 16.1387 43.6926 17.2141 42.9968 18.3664C41.8179 20.3051 40.1085 21.8656 38.0707 22.8635Z" fill="#9BB997"/>
<path d="M21.5943 42.6297C23.7892 40.8217 25.0638 38.1293 25.0709 35.2857V28.9797L16.1306 20.0469C15.9091 20.4484 15.7905 20.8985 15.7852 21.3571V33.4285C15.7907 37.3576 18.0494 40.9352 21.5943 42.6297Z" fill="#9BB997"/>
<path d="M26.001 45.4991C19.9167 45.4894 14.7887 40.957 14.0317 34.9199C12.6252 35.7504 11.4451 36.9148 10.596 38.3101C10.1381 39.0522 9.63511 39.7654 9.08984 40.4459C16.7973 49.5309 30.3018 50.9124 39.6891 43.5761L36.1215 40.0113C33.8991 43.4409 30.0876 45.5077 26.001 45.4991Z" fill="#9BB997"/>
<path d="M13.9293 32.8517V28.8273C12.9292 28.9125 11.9543 29.1867 11.0563 29.6352C9.64068 30.3319 8.07819 30.6777 6.50076 30.6436C5.98793 30.6436 5.57219 30.2279 5.57219 29.715C5.57219 29.2022 5.98793 28.7865 6.50076 28.7865C7.81875 28.8234 9.1252 28.5317 10.3023 27.9377C11.4369 27.3816 12.6687 27.0511 13.9293 26.9646V22.864C11.891 21.8658 10.1812 20.3046 9.00234 18.3651C8.30453 17.211 7.48722 16.1335 6.56391 15.1504C4.3983 19.0146 3.4324 23.4361 3.78933 27.8514C4.12142 31.8575 5.5451 35.696 7.90569 38.9497C8.29105 38.4362 8.66341 37.9069 9.00419 37.3488C10.1825 35.41 11.8916 33.8494 13.9293 32.8517Z" fill="#9BB997"/>
<path d="M30.41 42.6307C32.2193 41.7639 33.7317 40.381 34.7566 38.6564L26.9297 30.8359V35.2857C26.936 38.1306 28.2123 40.8241 30.41 42.6307Z" fill="#9BB997"/>
<path d="M25.9989 43.6401C26.8212 43.6347 27.6398 43.5306 28.4373 43.33C27.4132 42.3123 26.5864 41.1138 25.9989 39.7949C25.4107 41.1147 24.5834 42.3142 23.5586 43.3328C24.3566 43.5336 25.176 43.6368 25.9989 43.6401Z" fill="#9BB997"/>
<path d="M27.8945 3.79381C27.2687 3.74088 26.6428 3.71488 26.0207 3.71488C21.0647 3.70587 16.249 5.3593 12.3438 8.41067L18.4667 14.5281C18.9544 13.6381 19.6439 12.8748 20.4799 12.2995C20.7043 10.4537 21.8409 8.84412 23.5052 8.01509C23.3139 7.73796 23.0688 7.50208 22.7846 7.32145C22.3373 7.07924 22.1657 6.52393 22.3983 6.07159C22.6294 5.62131 23.1804 5.44177 23.6324 5.66952C24.3661 6.09266 24.9624 6.71803 25.3502 7.47095C25.7843 7.41523 26.2236 7.41523 26.6577 7.47095C27.0438 6.71973 27.6374 6.09513 28.3681 5.67138C28.6647 5.51926 29.0201 5.53777 29.2992 5.7199C29.5784 5.90202 29.7386 6.21981 29.7188 6.55255C29.6991 6.88529 29.5026 7.18194 29.2038 7.32981C28.9234 7.51015 28.6819 7.74472 28.4935 8.01974C29.0273 8.28565 29.5156 8.63448 29.9402 9.05324C30.7943 9.92281 31.3397 11.0485 31.4928 12.2577C33.0347 13.3015 34.0556 14.9559 34.297 16.8022C36.2624 17.1839 37.7604 18.7846 38.0113 20.7709C39.4035 19.943 40.5718 18.7871 41.4145 17.4039C42.2615 15.9996 43.2721 14.7008 44.425 13.5345C40.6594 7.96759 34.5889 4.39045 27.8945 3.79381Z" fill="#9BB997"/>
<path d="M26 0C11.6406 0 0 11.6406 0 26C0 40.3594 11.6406 52 26 52C40.3594 52 52 40.3594 52 26C51.9836 11.6474 40.3526 0.0163749 26 0ZM40.8256 45.045C36.5839 48.3551 31.3562 50.1497 25.9759 50.1429C25.319 50.1429 24.6604 50.1165 23.9999 50.0639C15.1655 49.3335 7.44261 43.8187 3.8844 35.6996C0.326192 27.5806 1.50543 18.1643 6.95593 11.1735C7.27951 10.761 7.76421 10.5068 8.2875 10.4752C8.82101 10.4441 9.3426 10.6413 9.72214 11.0175L40.9806 42.2769C41.3593 42.6554 41.5575 43.1781 41.5248 43.7125C41.4934 44.2363 41.2388 44.7215 40.8256 45.045ZM50.0584 23.9571C50.574 30.0027 48.7863 36.0199 45.0534 40.8033C44.7298 41.2155 44.2449 41.4691 43.7218 41.4997C43.6837 41.4997 43.6456 41.4997 43.6085 41.4997C43.1126 41.4989 42.6373 41.3012 42.2871 40.95L11.05 9.71286C10.6715 9.33431 10.4737 8.81155 10.5068 8.27728C10.5377 7.75428 10.7917 7.26972 11.2041 6.94664C15.9887 3.21545 22.0055 1.42796 28.0512 1.94164C39.73 3.02597 48.9785 12.2779 50.0584 23.9571Z" fill="#EA4B62"/>
</svg>
