<svg width="33" height="34" viewBox="0 0 33 34" fill="none" xmlns="http://www.w3.org/2000/svg">
<rect width="33" height="34" rx="10" fill="#F5D769"/>
<path d="M7 11C7 10.4696 7.21071 9.96086 7.58579 9.58579C7.96086 9.21071 8.46957 9 9 9H25C25.5304 9 26.0391 9.21071 26.4142 9.58579C26.7893 9.96086 27 10.4696 27 11V22C27 22.5304 26.7893 23.0391 26.4142 23.4142C26.0391 23.7893 25.5304 24 25 24H20.414L17.707 26.707C17.5195 26.8945 17.2652 26.9998 17 26.9998C16.7348 26.9998 16.4805 26.8945 16.293 26.707L13.586 24H9C8.46957 24 7.96086 23.7893 7.58579 23.4142C7.21071 23.0391 7 22.5304 7 22V11ZM25 11H9V22H14C14.2652 22.0001 14.5195 22.1054 14.707 22.293L17 24.586L19.293 22.293C19.4805 22.1054 19.7348 22.0001 20 22H25V11Z" fill="white"/>
<path d="M18.5 16.5C18.5 16.8978 18.342 17.2794 18.0607 17.5607C17.7794 17.842 17.3978 18 17 18C16.6022 18 16.2206 17.842 15.9393 17.5607C15.658 17.2794 15.5 16.8978 15.5 16.5C15.5 16.1022 15.658 15.7206 15.9393 15.4393C16.2206 15.158 16.6022 15 17 15C17.3978 15 17.7794 15.158 18.0607 15.4393C18.342 15.7206 18.5 16.1022 18.5 16.5ZM22.5 16.5C22.5 16.8978 22.342 17.2794 22.0607 17.5607C21.7794 17.842 21.3978 18 21 18C20.6022 18 20.2206 17.842 19.9393 17.5607C19.658 17.2794 19.5 16.8978 19.5 16.5C19.5 16.1022 19.658 15.7206 19.9393 15.4393C20.2206 15.158 20.6022 15 21 15C21.3978 15 21.7794 15.158 22.0607 15.4393C22.342 15.7206 22.5 16.1022 22.5 16.5ZM14.5 16.5C14.5 16.8978 14.342 17.2794 14.0607 17.5607C13.7794 17.842 13.3978 18 13 18C12.6022 18 12.2206 17.842 11.9393 17.5607C11.658 17.2794 11.5 16.8978 11.5 16.5C11.5 16.1022 11.658 15.7206 11.9393 15.4393C12.2206 15.158 12.6022 15 13 15C13.3978 15 13.7794 15.158 14.0607 15.4393C14.342 15.7206 14.5 16.1022 14.5 16.5Z" fill="white"/>
</svg>
