<svg width="42" height="43" viewBox="0 0 42 43" fill="none" xmlns="http://www.w3.org/2000/svg">
<g filter="url(#filter0_di_9_46580)">
<rect x="0.580078" y="0.560547" width="33" height="34" rx="10" fill="#9BB997"/>
</g>
<path d="M8.5801 9.56055H15.5258L16.7296 14.9763L15.2239 16.482C16.1088 17.8601 17.2803 19.0314 18.6587 19.916L20.1644 18.4111L25.5801 19.6148V26.5605H24.7706C21.6542 26.5654 18.6033 25.6667 15.9872 23.9733C14.0583 22.725 12.4157 21.0823 11.1673 19.1534C9.47393 16.5373 8.57525 13.4864 8.5801 10.3701V9.56055ZM10.221 11.1796C10.3572 13.7053 11.1523 16.1513 12.5273 18.2743C13.6512 20.0106 15.13 21.4894 16.8664 22.6133C18.9893 23.9884 21.4353 24.7835 23.961 24.9196V20.9133L20.68 20.1847L18.9201 21.9454L18.3834 21.6402C16.3456 20.4821 14.6585 18.795 13.5004 16.7572L13.1952 16.2205L14.9559 14.4606L14.2273 11.1796H10.221Z" fill="white"/>
<defs>
<filter id="filter0_di_9_46580" x="0.580078" y="0.560547" width="41" height="42" filterUnits="userSpaceOnUse" color-interpolation-filters="sRGB">
<feFlood flood-opacity="0" result="BackgroundImageFix"/>
<feColorMatrix in="SourceAlpha" type="matrix" values="0 0 0 0 0 0 0 0 0 0 0 0 0 0 0 0 0 0 127 0" result="hardAlpha"/>
<feMorphology radius="1" operator="erode" in="SourceAlpha" result="effect1_dropShadow_9_46580"/>
<feOffset dx="4" dy="4"/>
<feGaussianBlur stdDeviation="2.5"/>
<feComposite in2="hardAlpha" operator="out"/>
<feColorMatrix type="matrix" values="0 0 0 0 1 0 0 0 0 1 0 0 0 0 1 0 0 0 0.05 0"/>
<feBlend mode="normal" in2="BackgroundImageFix" result="effect1_dropShadow_9_46580"/>
<feBlend mode="normal" in="SourceGraphic" in2="effect1_dropShadow_9_46580" result="shape"/>
<feColorMatrix in="SourceAlpha" type="matrix" values="0 0 0 0 0 0 0 0 0 0 0 0 0 0 0 0 0 0 127 0" result="hardAlpha"/>
<feOffset dx="2" dy="2"/>
<feGaussianBlur stdDeviation="2.5"/>
<feComposite in2="hardAlpha" operator="arithmetic" k2="-1" k3="1"/>
<feColorMatrix type="matrix" values="0 0 0 0 0 0 0 0 0 0 0 0 0 0 0 0 0 0 0.15 0"/>
<feBlend mode="normal" in2="shape" result="effect2_innerShadow_9_46580"/>
</filter>
</defs>
</svg>
