<svg width="51" height="53" viewBox="0 0 51 53" fill="none" xmlns="http://www.w3.org/2000/svg">
<mask id="mask0_9_45795" style="mask-type:luminance" maskUnits="userSpaceOnUse" x="0" y="0" width="52" height="53">
<path d="M51.0177 0H0V52.8429H51.0177V0Z" fill="white"/>
</mask>
<g mask="url(#mask0_9_45795)">
<path fill-rule="evenodd" clip-rule="evenodd" d="M2.32422 18.3821H13.273V15.8857C13.2687 15.507 13.3474 15.1319 13.5037 14.7859C13.6399 14.4274 13.8585 14.1047 14.1426 13.8432C14.4119 13.5678 14.7389 13.3534 15.1009 13.2147C15.4589 13.0611 15.8459 12.9838 16.2365 12.9878H35.6499V2.19922H16.2543C12.566 2.20384 9.03002 3.64731 6.42197 6.21302C3.81392 8.77872 2.34668 12.2572 2.34198 15.8857L2.32422 18.3821ZM37.9213 25.1205C36.6947 23.9184 35.1626 23.0624 33.485 22.6416C31.8158 22.2576 30.079 22.2576 28.4098 22.6416L33.7334 27.8788C33.9068 28.0492 34.0348 28.259 34.1061 28.4897C34.1596 28.7254 34.1596 28.9698 34.1061 29.2055L32.7396 34.4426C32.6676 34.6692 32.5466 34.8776 32.3848 35.0536C32.2047 35.2244 31.9856 35.3501 31.7459 35.4202L26.5111 36.8343C26.2776 36.8955 26.0318 36.8954 25.7983 36.8342C25.5649 36.7729 25.3517 36.6526 25.1802 36.4851L19.8566 31.248C19.4979 32.8928 19.5405 34.5978 19.9808 36.2233C20.4574 37.9542 21.4104 39.522 22.7348 40.7541C24.0593 41.9862 25.7038 42.8347 27.487 43.2062C29.4034 43.5951 31.3912 43.4623 33.2365 42.8221C33.486 42.7527 33.7501 42.7527 33.9996 42.8221C34.2519 42.8775 34.4847 42.998 34.6739 43.1712L44.8419 53.0346L50.9463 47.2038L40.6718 37.0438C40.479 36.8646 40.3433 36.6341 40.2814 36.3804C40.2108 36.135 40.2108 35.8752 40.2814 35.6298C40.9013 33.8006 41.0117 31.8415 40.6008 29.9562C40.1913 28.1411 39.2685 26.4769 37.9391 25.1555L37.9213 25.1205Z" fill="#6D5F7A"/>
<path d="M8.64281 31.7715L7.64908 30.6543L6.65535 31.7715C4.47268 34.1981 1.77539 37.2182 1.77539 39.959C1.77567 41.1037 2.12157 42.2226 2.76923 43.1737C3.41689 44.1247 4.33711 44.8651 5.41316 45.3008C6.48637 45.7323 7.66393 45.8475 8.80252 45.6325C9.9425 45.3995 10.99 44.8479 11.8192 44.0439C12.3673 43.5112 12.8017 42.8762 13.0969 42.176C13.3869 41.4715 13.5375 40.719 13.5405 39.959C13.5405 37.2182 10.8255 34.1981 8.64281 31.7715ZM11.2514 41.9316C10.9072 42.5226 10.4195 43.0205 9.83177 43.3806C9.65345 43.4405 9.45994 43.4405 9.28162 43.3806C9.09223 43.3283 8.92842 43.2105 8.82028 43.0489C8.73116 42.883 8.69995 42.6928 8.73152 42.5077C8.76859 42.319 8.87625 42.1508 9.03321 42.0364C9.40502 41.8159 9.71108 41.5027 9.92048 41.1286C10.1332 40.7619 10.2434 40.3463 10.2399 39.9241C10.2385 39.8273 10.2566 39.7311 10.2931 39.6412C10.3297 39.5513 10.3839 39.4694 10.4528 39.4003C10.5984 39.256 10.7962 39.1745 11.0029 39.1734C11.2039 39.1779 11.3953 39.2584 11.5375 39.3982C11.6796 39.538 11.7615 39.7264 11.766 39.9241C11.7946 40.6215 11.6355 41.3141 11.3046 41.9316H11.2514Z" fill="#4D7EA5"/>
<path d="M15.2964 19.8828H0V25.12H15.2964V19.8828Z" fill="#4D7EA5"/>
<path d="M42.5345 0H37.2109V15.0481H42.5345V0Z" fill="#4D7EA5"/>
</g>
</svg>
