<svg width="52" height="52" viewBox="0 0 52 52" fill="none" xmlns="http://www.w3.org/2000/svg">
<path d="M30.875 48.75H8.125C7.22754 48.75 6.5 48.0225 6.5 47.125V37.375H30.875V48.75Z" fill="#F1D15B"/>
<path d="M32.5008 9.75L28.9553 10.9319L27.7734 15.6591L30.8758 14.625L35.7508 16.25L37.0007 11.25L32.5008 9.75Z" fill="#6B5E7A"/>
<path d="M8.12576 27.625L13.0008 29.25L14.2507 24.25L9.75076 22.75L6.20529 23.9319L5.02344 28.6591L8.12576 27.625Z" fill="#6B5E7A"/>
<path d="M30.8758 16.25L27.3303 17.4319L26.1484 22.1591L29.2508 21.125L34.1258 22.75L35.3757 17.75L30.8758 16.25Z" fill="#6B5E7A"/>
<path d="M32.5008 29.25L33.7507 24.25L29.2508 22.75L25.7053 23.9319L24.5234 28.6591L27.6258 27.625L32.5008 29.25Z" fill="#6B5E7A"/>
<path d="M22.7508 29.25L24.0007 24.25L19.5008 22.75L15.9553 23.9319L14.7734 28.6591L17.8758 27.625L22.7508 29.25Z" fill="#6B5E7A"/>
<path d="M32.5008 8.125L37.3758 9.75L39.0008 3.25H30.8758L29.3984 9.15907L32.5008 8.125Z" fill="#6B5E7A"/>
<path d="M19.2053 10.9319L18.0234 15.6591L21.1258 14.625L26.0008 16.25L27.2507 11.25L22.7508 9.75L19.2053 10.9319Z" fill="#6B5E7A"/>
<path d="M9.45529 10.9319L8.27344 15.6591L11.3758 14.625L16.2508 16.25L17.5007 11.25L13.0008 9.75L9.45529 10.9319Z" fill="#6B5E7A"/>
<path d="M24.3758 22.75L25.6257 17.75L21.1258 16.25L17.5803 17.4319L16.3984 22.1591L19.5008 21.125L24.3758 22.75Z" fill="#6B5E7A"/>
<path d="M9.75076 21.125L14.6258 22.75L15.8757 17.75L11.3758 16.25L7.83029 17.4319L6.64844 22.1591L9.75076 21.125Z" fill="#6B5E7A"/>
<path d="M22.7508 8.125L27.6258 9.75L29.2508 3.25H21.1258L19.6484 9.15907L22.7508 8.125Z" fill="#6B5E7A"/>
<path d="M8.125 29.25L4.57954 30.4319L3.27466 34.7404C3.14646 35.2532 3.53431 35.75 4.0629 35.75H11.375L12.625 30.75L8.125 29.25Z" fill="#6B5E7A"/>
<path d="M13.0008 8.125L17.8758 9.75L19.5008 3.25H12.6445C11.8989 3.25 11.2489 3.75748 11.068 4.48087L9.89844 9.15907L13.0008 8.125Z" fill="#6B5E7A"/>
<path d="M17.875 29.25L14.3295 30.4319L13 35.75H21.125L22.375 30.75L17.875 29.25Z" fill="#6B5E7A"/>
<path d="M27.625 29.25L24.0795 30.4319L22.75 35.75H30.875L32.125 30.75L27.625 29.25Z" fill="#6B5E7A"/>
<path d="M32.5 35.75L40.625 3.25L48.7253 34.7404C48.8535 35.2532 48.4657 35.75 47.9371 35.75H32.5Z" fill="#F1D15B"/>
<path d="M32.5 37.375V48.75H43.875C44.7725 48.75 45.5 48.0225 45.5 47.125V37.375H32.5Z" fill="#6B5E7A"/>
</svg>
