<svg width="52" height="52" viewBox="0 0 52 52" fill="none" xmlns="http://www.w3.org/2000/svg">
<g clip-path="url(#clip0_9_46318)">
<path d="M44.067 25.68H50.4766C51.3175 25.68 52 24.9985 52 24.1566C52 23.3156 51.3175 22.6331 50.4766 22.6331H44.6723C45.4025 18.0303 45.0633 14.9174 45.044 14.7498C44.9749 14.1476 44.5555 13.6438 43.9766 13.4671C41.662 12.7582 39.6449 12.0391 37.8899 11.3343V7.56836H43.1214C43.7501 9.34164 45.4441 10.6152 47.4297 10.6152C49.9495 10.6152 52 8.56469 52 6.04492C52 3.52414 49.9495 1.47461 47.4297 1.47461C45.4441 1.47461 43.7501 2.7482 43.1214 4.52148H36.3665C35.5245 4.52148 34.843 5.20297 34.843 6.04492V10.0089C29.1962 7.34289 27.3244 5.15625 27.2116 5.02016C26.603 4.18277 25.3975 4.18206 24.7884 5.02016C24.6756 5.15625 22.8038 7.34289 17.157 10.0089V6.04492C17.157 5.20297 16.4755 4.52148 15.6335 4.52148H8.87859C8.24992 2.7482 6.55586 1.47461 4.57031 1.47461C2.05055 1.47461 0 3.52414 0 6.04492C0 8.56469 2.05055 10.6152 4.57031 10.6152C6.55586 10.6152 8.24992 9.34164 8.87859 7.56836H14.1101V11.3343C12.3551 12.0391 10.338 12.7582 8.02344 13.4671C7.44453 13.6438 7.02508 14.1476 6.95602 14.7498C6.93672 14.9174 6.5975 18.0303 7.32773 22.6331H1.52344C0.6825 22.6331 0 23.3156 0 24.1566C0 24.9985 0.6825 25.68 1.52344 25.68H7.93305C8.26587 27.066 8.65485 28.3982 9.17313 29.8491H4.98773C4.1468 29.8491 3.4643 30.5306 3.4643 31.3726C3.4643 32.2135 4.1468 32.896 4.98773 32.896H10.402C11.7241 35.8192 13.3329 38.4613 15.2374 40.9266H8.87859C8.24992 39.1533 6.55586 37.8797 4.57031 37.8797C2.05055 37.8797 0 39.9302 0 42.45C0 44.9698 2.05055 47.0203 4.57031 47.0203C6.55586 47.0203 8.24992 45.7467 8.87859 43.9734H17.8354C19.9814 46.2616 22.4179 48.363 25.1286 50.253C25.6528 50.6187 26.3473 50.6187 26.8714 50.253C29.5821 48.363 32.0186 46.2616 34.1646 43.9734H43.1214C43.7501 45.7467 45.4441 47.0203 47.4297 47.0203C49.9495 47.0203 52 44.9698 52 42.45C52 39.9302 49.9495 37.8797 47.4297 37.8797C45.4441 37.8797 43.7501 39.1533 43.1214 40.9266H36.7626C38.6625 38.4672 40.2729 35.8259 41.598 32.896H47.0123C47.8532 32.896 48.5357 32.2135 48.5357 31.3726C48.5357 30.5306 47.8532 29.8491 47.0123 29.8491H42.8269C43.3445 28.3999 43.7336 27.0678 44.067 25.68ZM34.383 33.4841C34.383 35.0156 33.1378 36.2608 31.6063 36.2608H20.3938C18.8622 36.2608 17.617 35.0156 17.617 33.4841V24.7598C17.617 23.5492 18.395 22.5184 19.4777 22.1385V21.1473C19.4777 17.5509 22.4037 14.6249 26 14.6249C29.5963 14.6249 32.5223 17.5509 32.5223 21.1473V22.1385C33.605 22.5184 34.383 23.5492 34.383 24.7598V33.4841Z" fill="#9BB997"/>
<path d="M20.6641 25.0293V33.2132H31.3363V25.0293H20.6641ZM27.5236 29.6585C27.5236 30.5005 26.8411 31.182 26.0002 31.182C25.1592 31.182 24.4767 30.5005 24.4767 29.6585V28.584C24.4767 27.742 25.1592 27.0605 26.0002 27.0605C26.8411 27.0605 27.5236 27.742 27.5236 28.584V29.6585Z" fill="#EA4B62"/>
<path d="M29.4763 21.1473V21.9832H22.5254V21.1473C22.5254 19.2309 24.0844 17.6719 26.0009 17.6719C27.9173 17.6719 29.4763 19.2309 29.4763 21.1473Z" fill="#EA4B62"/>
</g>
<defs>
<clipPath id="clip0_9_46318">
<rect width="52" height="52" fill="white"/>
</clipPath>
</defs>
</svg>
