<svg width="52" height="52" viewBox="0 0 52 52" fill="none" xmlns="http://www.w3.org/2000/svg">
<path d="M50.375 39.0001V49.5626C50.375 49.7781 50.2894 49.9848 50.137 50.1371C49.9847 50.2895 49.778 50.3751 49.5625 50.3751H2.4375C2.22201 50.3751 2.01535 50.2895 1.86298 50.1371C1.7106 49.9848 1.625 49.7781 1.625 49.5626V36.5626C1.625 36.3471 1.7106 36.1405 1.86298 35.9881C2.01535 35.8357 2.22201 35.7501 2.4375 35.7501C6.89756 35.7501 10.808 37.8734 12.3283 41.0151C16.9611 38.8128 23.2262 39.6799 26.4821 43.2202C29.5316 38.9479 36.8563 37.6409 42.0466 40.597C44.2203 38.9922 46.8609 38.1457 49.5625 38.1876C49.778 38.1876 49.9847 38.2732 50.137 38.4256C50.2894 38.578 50.375 38.7846 50.375 39.0001ZM28.6731 32.4026L19.5975 23.327C19.1348 22.8813 18.5174 22.6323 17.875 22.6323C17.2326 22.6323 16.6152 22.8813 16.1525 23.327L8.84 30.6395C8.61198 30.8644 8.43125 31.1327 8.30846 31.4285C8.18567 31.7243 8.12329 32.0417 8.125 32.362V35.2382C10.0692 36.0087 11.7601 37.3058 13.0081 38.9839C14.9136 38.3367 16.9295 38.0787 18.9365 38.2252C20.9435 38.3718 22.9007 38.9199 24.6919 39.837L28.6731 35.8476C29.1296 35.3906 29.386 34.7711 29.386 34.1251C29.386 33.4792 29.1296 32.8597 28.6731 32.4026ZM8.9375 14.952H7.90717L8.42254 14.0594C8.47589 13.967 8.51051 13.8649 8.52443 13.7591C8.53835 13.6533 8.53129 13.5458 8.50367 13.4427C8.47604 13.3397 8.42838 13.243 8.3634 13.1584C8.29843 13.0737 8.21742 13.0027 8.125 12.9493C7.93834 12.8416 7.71653 12.8124 7.50836 12.8682C7.30019 12.924 7.12271 13.0602 7.01496 13.2469L6.5 14.1388L5.98504 13.2469C5.87729 13.0602 5.69981 12.924 5.49164 12.8682C5.28347 12.8124 5.06166 12.8416 4.875 12.9493C4.68834 13.0571 4.55213 13.2346 4.49634 13.4427C4.44054 13.6509 4.46972 13.8727 4.57746 14.0594L5.09283 14.952H4.0625C3.84701 14.952 3.64035 15.0376 3.48798 15.19C3.3356 15.3423 3.25 15.549 3.25 15.7645C3.25 15.98 3.3356 16.1866 3.48798 16.339C3.64035 16.4914 3.84701 16.577 4.0625 16.577H5.09234L4.57746 17.4689C4.52411 17.5613 4.48949 17.6633 4.47557 17.7691C4.46165 17.8749 4.46871 17.9824 4.49634 18.0855C4.52396 18.1886 4.57162 18.2852 4.6366 18.3699C4.70157 18.4545 4.78258 18.5256 4.875 18.5789C4.96742 18.6323 5.06945 18.6669 5.17525 18.6808C5.28106 18.6947 5.38856 18.6877 5.49164 18.66C5.59472 18.6324 5.69134 18.5847 5.776 18.5198C5.86066 18.4548 5.93169 18.3738 5.98504 18.2814L6.5 17.3894L7.01496 18.2814C7.06831 18.3738 7.13934 18.4548 7.224 18.5198C7.30866 18.5847 7.40528 18.6324 7.50836 18.66C7.61144 18.6877 7.71895 18.6947 7.82475 18.6808C7.93055 18.6669 8.03258 18.6323 8.125 18.5789C8.21742 18.5256 8.29843 18.4545 8.3634 18.3699C8.42838 18.2852 8.47604 18.1886 8.50367 18.0855C8.53129 17.9824 8.53835 17.8749 8.52443 17.7691C8.51051 17.6633 8.47589 17.5613 8.42254 17.4689L7.90766 16.577H8.9375C9.15299 16.577 9.35965 16.4914 9.51202 16.339C9.6644 16.1866 9.75 15.98 9.75 15.7645C9.75 15.549 9.6644 15.3423 9.51202 15.19C9.35965 15.0376 9.15299 14.952 8.9375 14.952ZM27.625 3.73576H26.5952L27.11 2.84387C27.2178 2.65722 27.247 2.43541 27.1912 2.22723C27.1354 2.01906 26.9992 1.84158 26.8125 1.73384C26.6258 1.62609 26.404 1.59691 26.1959 1.65271C25.9877 1.70851 25.8102 1.84472 25.7025 2.03137L25.1875 2.92334L24.6725 2.03137C24.5648 1.84472 24.3873 1.70851 24.1791 1.65271C23.971 1.59691 23.7492 1.62609 23.5625 1.73384C23.3758 1.84158 23.2396 2.01906 23.1838 2.22723C23.128 2.43541 23.1572 2.65722 23.265 2.84387L23.7798 3.73576H22.75C22.5345 3.73576 22.3278 3.82136 22.1755 3.97373C22.0231 4.1261 21.9375 4.33277 21.9375 4.54826C21.9375 4.76374 22.0231 4.97041 22.1755 5.12278C22.3278 5.27515 22.5345 5.36076 22.75 5.36076H23.7803L23.265 6.25337C23.2116 6.34579 23.177 6.44782 23.1631 6.55362C23.1492 6.65942 23.1562 6.76693 23.1838 6.87001C23.2115 6.97309 23.2591 7.06971 23.3241 7.15437C23.3891 7.23902 23.4701 7.31006 23.5625 7.36341C23.6549 7.41676 23.757 7.45138 23.8628 7.4653C23.9686 7.47922 24.0761 7.47216 24.1791 7.44453C24.3873 7.38873 24.5648 7.25252 24.6725 7.06587L25.1875 6.17391L25.7025 7.06587C25.7558 7.15829 25.8268 7.2393 25.9115 7.30427C25.9962 7.36924 26.0928 7.4169 26.1959 7.44453C26.2989 7.47216 26.4064 7.47922 26.5122 7.4653C26.6181 7.45138 26.7201 7.41676 26.8125 7.36341C26.9049 7.31006 26.9859 7.23902 27.0509 7.15437C27.1159 7.06971 27.1635 6.97309 27.1912 6.87001C27.2188 6.76693 27.2259 6.65942 27.2119 6.55362C27.198 6.44782 27.1634 6.34579 27.11 6.25337L26.5947 5.36076H27.625C27.8405 5.36076 28.0472 5.27515 28.1995 5.12278C28.3519 4.97041 28.4375 4.76374 28.4375 4.54826C28.4375 4.33277 28.3519 4.1261 28.1995 3.97373C28.0472 3.82136 27.8405 3.73576 27.625 3.73576ZM47.9375 25.6733H46.9077L47.4225 24.7814C47.4759 24.689 47.5105 24.5869 47.5244 24.4811C47.5384 24.3753 47.5313 24.2678 47.5037 24.1647C47.476 24.0617 47.4284 23.965 47.3634 23.8804C47.2984 23.7957 47.2174 23.7247 47.125 23.6713C47.0326 23.618 46.9306 23.5834 46.8247 23.5694C46.7189 23.5555 46.6114 23.5626 46.5084 23.5902C46.4053 23.6178 46.3087 23.6655 46.224 23.7305C46.1393 23.7954 46.0683 23.8765 46.015 23.9689L45.5 24.8608L44.985 23.9689C44.9317 23.8765 44.8607 23.7954 44.776 23.7305C44.6913 23.6655 44.5947 23.6178 44.4916 23.5902C44.3886 23.5626 44.2811 23.5555 44.1753 23.5694C44.0695 23.5834 43.9674 23.618 43.875 23.6713C43.7826 23.7247 43.7016 23.7957 43.6366 23.8804C43.5716 23.965 43.524 24.0617 43.4963 24.1647C43.4687 24.2678 43.4617 24.3753 43.4756 24.4811C43.4895 24.5869 43.5241 24.689 43.5775 24.7814L44.0923 25.6733H43.0625C42.847 25.6733 42.6404 25.7589 42.488 25.9112C42.3356 26.0636 42.25 26.2703 42.25 26.4858C42.25 26.7012 42.3356 26.9079 42.488 27.0603C42.6404 27.2127 42.847 27.2983 43.0625 27.2983H44.0928L43.5775 28.1909C43.4697 28.3775 43.4405 28.5993 43.4963 28.8075C43.5521 29.0157 43.6883 29.1932 43.875 29.3009C44.0617 29.4086 44.2835 29.4378 44.4916 29.382C44.6998 29.3262 44.8773 29.19 44.985 29.0034L45.5 28.1114L46.015 29.0034C46.1227 29.19 46.3002 29.3262 46.5084 29.382C46.7165 29.4378 46.9383 29.4086 47.125 29.3009C47.3117 29.1932 47.4479 29.0157 47.5037 28.8075C47.5595 28.5993 47.5303 28.3775 47.4225 28.1909L46.9072 27.2983H47.9375C48.153 27.2983 48.3597 27.2127 48.512 27.0603C48.6644 26.9079 48.75 26.7012 48.75 26.4858C48.75 26.2703 48.6644 26.0636 48.512 25.9112C48.3597 25.7589 48.153 25.6733 47.9375 25.6733ZM48.9885 13.911L45.7385 17.161C45.5126 17.3881 45.2438 17.5682 44.9479 17.6908C44.6519 17.8133 44.3346 17.876 44.0143 17.8751H38.5288L27.4869 28.917L23.0831 24.5133L34.125 13.4714V7.98546C34.1242 7.66524 34.1868 7.34805 34.3094 7.05222C34.432 6.7564 34.612 6.48783 34.8391 6.26206L38.0891 3.01206C38.5535 2.56896 39.1707 2.32175 39.8125 2.32175C40.4543 2.32175 41.0715 2.56896 41.5359 3.01206L48.9881 10.4642C49.4442 10.9218 49.7004 11.5415 49.7004 12.1875C49.7005 12.8336 49.4445 13.4534 48.9885 13.911ZM44.5891 16.0121L45.1635 15.4376L36.5625 6.83658L35.988 7.41102C35.8363 7.5638 35.7508 7.77014 35.7499 7.98546V13.4714L38.5288 16.2501H44.0142C44.121 16.2503 44.2268 16.2294 44.3254 16.1885C44.4241 16.1477 44.5137 16.0877 44.5891 16.0121Z" fill="#6B5E7A"/>
<path d="M45.1637 15.4349L44.5892 16.0093C44.5138 16.085 44.4242 16.145 44.3256 16.1858C44.2269 16.2267 44.1211 16.2476 44.0143 16.2474H38.5289L35.75 13.4686V7.98272C35.7509 7.76741 35.8364 7.56107 35.9881 7.40828L36.5626 6.83385L45.1637 15.4349Z" fill="#F1D15B"/>
<path d="M26.5952 3.73576H27.625C27.8405 3.73576 28.0472 3.82136 28.1995 3.97373C28.3519 4.1261 28.4375 4.33277 28.4375 4.54826C28.4375 4.76374 28.3519 4.97041 28.1995 5.12278C28.0472 5.27515 27.8405 5.36076 27.625 5.36076H26.5947L27.11 6.25337C27.1634 6.34579 27.198 6.44782 27.2119 6.55362C27.2259 6.65942 27.2188 6.76693 27.1912 6.87001C27.1635 6.97309 27.1159 7.06971 27.0509 7.15437C26.9859 7.23902 26.9049 7.31006 26.8125 7.36341C26.7201 7.41676 26.6181 7.45138 26.5122 7.4653C26.4064 7.47922 26.2989 7.47216 26.1959 7.44453C26.0928 7.4169 25.9962 7.36924 25.9115 7.30427C25.8268 7.2393 25.7558 7.15829 25.7025 7.06587L25.1875 6.17391L24.6725 7.06587C24.5648 7.25252 24.3873 7.38873 24.1791 7.44453C24.0761 7.47216 23.9686 7.47922 23.8628 7.4653C23.757 7.45138 23.6549 7.41676 23.5625 7.36341C23.4701 7.31006 23.3891 7.23902 23.3241 7.15437C23.2591 7.06971 23.2115 6.97309 23.1838 6.87001C23.1562 6.76693 23.1492 6.65942 23.1631 6.55362C23.177 6.44782 23.2116 6.34579 23.265 6.25337L23.7803 5.36076H22.75C22.5345 5.36076 22.3278 5.27515 22.1755 5.12278C22.0231 4.97041 21.9375 4.76374 21.9375 4.54826C21.9375 4.33277 22.0231 4.1261 22.1755 3.97373C22.3278 3.82136 22.5345 3.73576 22.75 3.73576H23.7798L23.265 2.84387C23.1572 2.65722 23.128 2.43541 23.1838 2.22723C23.2396 2.01906 23.3758 1.84158 23.5625 1.73384C23.7492 1.62609 23.971 1.59691 24.1791 1.65271C24.3873 1.70851 24.5648 1.84472 24.6725 2.03137L25.1875 2.92334L25.7025 2.03137C25.8102 1.84472 25.9877 1.70851 26.1959 1.65271C26.404 1.59691 26.6258 1.62609 26.8125 1.73384C26.9992 1.84158 27.1354 2.01906 27.1912 2.22723C27.247 2.43541 27.2178 2.65722 27.11 2.84387L26.5952 3.73576Z" fill="#F1D15B"/>
<path d="M7.90717 14.952H8.9375C9.15299 14.952 9.35965 15.0376 9.51202 15.19C9.6644 15.3423 9.75 15.549 9.75 15.7645C9.75 15.98 9.6644 16.1866 9.51202 16.339C9.35965 16.4914 9.15299 16.577 8.9375 16.577H7.90766L8.42254 17.4689C8.47589 17.5613 8.51051 17.6633 8.52443 17.7691C8.53835 17.8749 8.53129 17.9824 8.50367 18.0855C8.47604 18.1886 8.42838 18.2852 8.3634 18.3699C8.29843 18.4545 8.21742 18.5256 8.125 18.5789C8.03258 18.6323 7.93055 18.6669 7.82475 18.6808C7.71895 18.6947 7.61144 18.6877 7.50836 18.66C7.40528 18.6324 7.30866 18.5847 7.224 18.5198C7.13934 18.4548 7.06831 18.3738 7.01496 18.2814L6.5 17.3894L5.98504 18.2814C5.93169 18.3738 5.86066 18.4548 5.776 18.5198C5.69134 18.5847 5.59472 18.6324 5.49164 18.66C5.38856 18.6877 5.28106 18.6947 5.17525 18.6808C5.06945 18.6669 4.96742 18.6323 4.875 18.5789C4.78258 18.5256 4.70157 18.4545 4.6366 18.3699C4.57162 18.2852 4.52396 18.1886 4.49634 18.0855C4.46871 17.9824 4.46165 17.8749 4.47557 17.7691C4.48949 17.6633 4.52411 17.5613 4.57746 17.4689L5.09234 16.577H4.0625C3.84701 16.577 3.64035 16.4914 3.48798 16.339C3.3356 16.1866 3.25 15.98 3.25 15.7645C3.25 15.549 3.3356 15.3423 3.48798 15.19C3.64035 15.0376 3.84701 14.952 4.0625 14.952H5.09283L4.57746 14.0594C4.46972 13.8727 4.44054 13.6509 4.49634 13.4427C4.55213 13.2346 4.68834 13.0571 4.875 12.9493C5.06166 12.8416 5.28347 12.8124 5.49164 12.8682C5.69981 12.924 5.87729 13.0602 5.98504 13.2469L6.5 14.1388L7.01496 13.2469C7.12271 13.0602 7.30019 12.924 7.50836 12.8682C7.71653 12.8124 7.93834 12.8416 8.125 12.9493C8.21742 13.0027 8.29843 13.0737 8.3634 13.1584C8.42838 13.243 8.47604 13.3397 8.50367 13.4427C8.53129 13.5458 8.53835 13.6533 8.52443 13.7591C8.51051 13.8649 8.47589 13.967 8.42254 14.0594L7.90717 14.952Z" fill="#F1D15B"/>
<path d="M46.9077 25.6733H47.9375C48.153 25.6733 48.3597 25.7589 48.512 25.9112C48.6644 26.0636 48.75 26.2703 48.75 26.4858C48.75 26.7012 48.6644 26.9079 48.512 27.0603C48.3597 27.2127 48.153 27.2983 47.9375 27.2983H46.9072L47.4225 28.1909C47.5303 28.3775 47.5595 28.5993 47.5037 28.8075C47.4479 29.0157 47.3117 29.1932 47.125 29.3009C46.9383 29.4086 46.7165 29.4378 46.5084 29.382C46.3002 29.3262 46.1227 29.19 46.015 29.0034L45.5 28.1114L44.985 29.0034C44.8773 29.19 44.6998 29.3262 44.4916 29.382C44.2835 29.4378 44.0617 29.4086 43.875 29.3009C43.6883 29.1932 43.5521 29.0157 43.4963 28.8075C43.4405 28.5993 43.4697 28.3775 43.5775 28.1909L44.0928 27.2983H43.0625C42.847 27.2983 42.6404 27.2127 42.488 27.0603C42.3356 26.9079 42.25 26.7012 42.25 26.4858C42.25 26.2703 42.3356 26.0636 42.488 25.9112C42.6404 25.7589 42.847 25.6733 43.0625 25.6733H44.0923L43.5775 24.7814C43.5241 24.689 43.4895 24.5869 43.4756 24.4811C43.4617 24.3753 43.4687 24.2678 43.4963 24.1647C43.524 24.0617 43.5716 23.965 43.6366 23.8804C43.7016 23.7957 43.7826 23.7247 43.875 23.6713C43.9674 23.618 44.0695 23.5834 44.1753 23.5694C44.2811 23.5555 44.3886 23.5626 44.4916 23.5902C44.5947 23.6178 44.6913 23.6655 44.776 23.7305C44.8607 23.7954 44.9317 23.8765 44.985 23.9689L45.5 24.8608L46.015 23.9689C46.0683 23.8765 46.1393 23.7954 46.224 23.7305C46.3087 23.6655 46.4053 23.6178 46.5084 23.5902C46.6114 23.5626 46.7189 23.5555 46.8247 23.5694C46.9306 23.5834 47.0326 23.618 47.125 23.6713C47.2174 23.7247 47.2984 23.7957 47.3634 23.8804C47.4284 23.965 47.476 24.0617 47.5037 24.1647C47.5313 24.2678 47.5384 24.3753 47.5244 24.4811C47.5105 24.5869 47.4759 24.689 47.4225 24.7814L46.9077 25.6733Z" fill="#F1D15B"/>
</svg>
