<svg width="52" height="52" viewBox="0 0 52 52" fill="none" xmlns="http://www.w3.org/2000/svg">
<g clip-path="url(#clip0_9_46239)">
<path d="M44.0375 27.6375H33.0281V34.4898H22.0188V41.3421H11.0094V48.1945H0V51.9999H52V20.7852H44.0375V27.6375ZM48.1946 45.8479H45.1477V42.6734L40.0729 47.7483L37.9185 45.5938L42.9932 40.519H39.8188V37.4721H48.1946V45.8479Z" fill="#C06A87"/>
<path d="M11.0098 34.4902H18.9722V38.2957H11.0098V34.4902Z" fill="#3E6B8E"/>
<path d="M0 41.3418H7.9625V45.1472H0V41.3418Z" fill="#3E6B8E"/>
<path d="M44.0371 13.9336H51.9996V17.739H44.0371V13.9336Z" fill="#3E6B8E"/>
<path d="M22.0195 27.6367H29.982V31.4422H22.0195V27.6367Z" fill="#3E6B8E"/>
<path d="M33.0273 20.7852H40.9897V24.5906H33.0273V20.7852Z" fill="#3E6B8E"/>
<path d="M40.2504 0L0 25.0522V38.2891H3.04688V26.7447L9.79063 22.5473V31.443H12.8375V20.6509L19.5813 16.4535V24.5907H22.6281V14.5572L29.3719 10.3598V17.7384H32.4188V8.46341L39.1625 4.26603V10.8862H42.2094V3.04688H48.9531V10.8862H52V0L40.2504 0Z" fill="#C06A87"/>
</g>
<defs>
<clipPath id="clip0_9_46239">
<rect width="52" height="52" fill="white"/>
</clipPath>
</defs>
</svg>
