<svg width="22" height="18" viewBox="0 0 22 18" fill="none" xmlns="http://www.w3.org/2000/svg">
<path d="M21.0838 15.4167C21.0838 15.9029 20.8906 16.3692 20.5468 16.713C20.203 17.0568 19.7367 17.25 19.2504 17.25H2.75045C2.26422 17.25 1.7979 17.0568 1.45409 16.713C1.11027 16.3692 0.917114 15.9029 0.917114 15.4167V5.33333C0.917114 4.8471 1.11027 4.38079 1.45409 4.03697C1.7979 3.69315 2.26422 3.5 2.75045 3.5H6.41711L8.25045 0.75H13.7504L15.5838 3.5H19.2504C19.7367 3.5 20.203 3.69315 20.5468 4.03697C20.8906 4.38079 21.0838 4.8471 21.0838 5.33333V15.4167Z" stroke="white" stroke-width="1.5" stroke-linecap="round" stroke-linejoin="round"/>
<path d="M11.0004 13.5833C13.0255 13.5833 14.6671 11.9417 14.6671 9.91667C14.6671 7.89162 13.0255 6.25 11.0004 6.25C8.9754 6.25 7.33378 7.89162 7.33378 9.91667C7.33378 11.9417 8.9754 13.5833 11.0004 13.5833Z" stroke="white" stroke-width="1.5" stroke-linecap="round" stroke-linejoin="round"/>
</svg>
