<svg width="23" height="20" viewBox="0 0 23 20" fill="none" xmlns="http://www.w3.org/2000/svg">
<g filter="url(#filter0_i_4807_12849)">
<path d="M0 2.27059C0 1.68497 0.232638 1.12333 0.646735 0.709235C1.06083 0.295138 1.62247 0.0625 2.20809 0.0625H19.8728C20.4585 0.0625 21.0201 0.295138 21.4342 0.709235C21.8483 1.12333 22.0809 1.68497 22.0809 2.27059V14.4151C22.0809 15.0007 21.8483 15.5624 21.4342 15.9765C21.0201 16.3906 20.4585 16.6232 19.8728 16.6232H14.8097L11.821 19.6118C11.614 19.8188 11.3332 19.9351 11.0405 19.9351C10.7477 19.9351 10.4669 19.8188 10.2599 19.6118L7.27125 16.6232H2.20809C1.62247 16.6232 1.06083 16.3906 0.646735 15.9765C0.232638 15.5624 0 15.0007 0 14.4151V2.27059ZM19.8728 2.27059H2.20809V14.4151H7.72832C8.02111 14.4152 8.30188 14.5315 8.50888 14.7386L11.0405 17.2702L13.572 14.7386C13.779 14.5315 14.0598 14.4152 14.3526 14.4151H19.8728V2.27059Z" fill="#F5D769"/>
<path d="M12.6971 8.34357C12.6971 8.78279 12.5226 9.20401 12.212 9.51459C11.9014 9.82516 11.4802 9.99964 11.041 9.99964C10.6018 9.99964 10.1806 9.82516 9.86999 9.51459C9.55941 9.20401 9.38493 8.78279 9.38493 8.34357C9.38493 7.90435 9.55941 7.48312 9.86999 7.17255C10.1806 6.86198 10.6018 6.6875 11.041 6.6875C11.4802 6.6875 11.9014 6.86198 12.212 7.17255C12.5226 7.48312 12.6971 7.90435 12.6971 8.34357ZM17.1133 8.34357C17.1133 8.78279 16.9388 9.20401 16.6282 9.51459C16.3176 9.82516 15.8964 9.99964 15.4572 9.99964C15.018 9.99964 14.5967 9.82516 14.2862 9.51459C13.9756 9.20401 13.8011 8.78279 13.8011 8.34357C13.8011 7.90435 13.9756 7.48312 14.2862 7.17255C14.5967 6.86198 15.018 6.6875 15.4572 6.6875C15.8964 6.6875 16.3176 6.86198 16.6282 7.17255C16.9388 7.48312 17.1133 7.90435 17.1133 8.34357ZM8.28089 8.34357C8.28089 8.78279 8.10641 9.20401 7.79584 9.51459C7.48526 9.82516 7.06404 9.99964 6.62482 9.99964C6.1856 9.99964 5.76437 9.82516 5.4538 9.51459C5.14323 9.20401 4.96875 8.78279 4.96875 8.34357C4.96875 7.90435 5.14323 7.48312 5.4538 7.17255C5.76437 6.86198 6.1856 6.6875 6.62482 6.6875C7.06404 6.6875 7.48526 6.86198 7.79584 7.17255C8.10641 7.48312 8.28089 7.90435 8.28089 8.34357Z" fill="#F5D769"/>
</g>
<defs>
<filter id="filter0_i_4807_12849" x="0" y="0.0625" width="22.0808" height="23.8711" filterUnits="userSpaceOnUse" color-interpolation-filters="sRGB">
<feFlood flood-opacity="0" result="BackgroundImageFix"/>
<feBlend mode="normal" in="SourceGraphic" in2="BackgroundImageFix" result="shape"/>
<feColorMatrix in="SourceAlpha" type="matrix" values="0 0 0 0 0 0 0 0 0 0 0 0 0 0 0 0 0 0 127 0" result="hardAlpha"/>
<feOffset dy="4"/>
<feGaussianBlur stdDeviation="2"/>
<feComposite in2="hardAlpha" operator="arithmetic" k2="-1" k3="1"/>
<feColorMatrix type="matrix" values="0 0 0 0 0.772549 0 0 0 0 0.647059 0 0 0 0 0.188235 0 0 0 0.25 0"/>
<feBlend mode="normal" in2="shape" result="effect1_innerShadow_4807_12849"/>
</filter>
</defs>
</svg>
