<svg width="28" height="28" viewBox="0 0 28 28" fill="none" xmlns="http://www.w3.org/2000/svg">
<g clip-path="url(#clip0_1460_6876)">
<path d="M24.92 10.0625H23.625V15.8812C23.625 18.2262 21.7175 20.125 19.3812 20.125H10.5V22.0238C10.5 23.2487 11.4888 24.2375 12.705 24.2375H22.1288L22.9513 25.9C23.3275 26.6613 24.08 27.125 24.92 27.125C26.1362 27.125 27.125 26.1362 27.125 24.9112V12.2762C27.125 11.0512 26.1362 10.0625 24.92 10.0625Z" fill="#C9D7E5"/>
<path d="M21.875 15.8813V3.36875C21.875 1.995 20.755 0.875 19.3813 0.875H3.36875C1.995 0.875 0.875 1.995 0.875 3.36875V19.3725C0.875 20.7463 1.995 21.8663 3.36875 21.8663C4.3225 21.8663 5.18 21.3413 5.6 20.4838L6.65875 18.3663H19.3725C20.7463 18.3663 21.8662 17.2463 21.8662 15.8725L21.875 15.8813ZM6.125 6.5625H6.5625C7.04375 6.5625 7.4375 6.95625 7.4375 7.4375C7.4375 7.91875 7.04375 8.3125 6.5625 8.3125H6.125C5.64375 8.3125 5.25 7.91875 5.25 7.4375C5.25 6.95625 5.64375 6.5625 6.125 6.5625ZM16.625 12.6875H6.125C5.64375 12.6875 5.25 12.2938 5.25 11.8125C5.25 11.3313 5.64375 10.9375 6.125 10.9375H16.625C17.1063 10.9375 17.5 11.3313 17.5 11.8125C17.5 12.2938 17.1063 12.6875 16.625 12.6875ZM16.625 8.3125H9.625C9.14375 8.3125 8.75 7.91875 8.75 7.4375C8.75 6.95625 9.14375 6.5625 9.625 6.5625H16.625C17.1063 6.5625 17.5 6.95625 17.5 7.4375C17.5 7.91875 17.1063 8.3125 16.625 8.3125Z" fill="#C9D7E5"/>
</g>
<defs>
<clipPath id="clip0_1460_6876">
<rect width="28" height="28" fill="white"/>
</clipPath>
</defs>
</svg>
