<svg width="28" height="26" viewBox="0 0 28 26" fill="none" xmlns="http://www.w3.org/2000/svg">
<path d="M26.6113 0C27.3785 0 28.0001 0.623001 28.0001 1.3902V23.8099C27.9975 24.1775 27.8504 24.5294 27.5905 24.7895C27.3307 25.0497 26.9789 25.1971 26.6113 25.2001H1.3888C1.02034 25.1997 0.667097 25.0531 0.406686 24.7924C0.146275 24.5317 -1.86838e-07 24.1783 0 23.8099V1.3902C0.00256207 1.02253 0.149661 0.670626 0.409519 0.410506C0.669377 0.150385 1.02113 0.00293252 1.3888 0H26.6113ZM25.2001 2.80001H2.80001V22.4H25.2001V2.80001ZM22.4001 16.8V19.6H5.60001V16.8H22.4001ZM14 5.60001V14H5.60001V5.60001H14ZM22.4001 11.2V14H16.8V11.2H22.4001ZM11.2 8.40002H8.40002V11.2H11.2V8.40002ZM22.4001 5.60001V8.40002H16.8V5.60001H22.4001Z" fill="white"/>
</svg>
