<svg width="20" height="4" viewBox="0 0 20 4" fill="none" xmlns="http://www.w3.org/2000/svg">
<path d="M18 4C17.4696 4 16.9609 3.78929 16.5858 3.41421C16.2107 3.03914 16 2.53043 16 2C16 1.46957 16.2107 0.960858 16.5858 0.585786C16.9609 0.210713 17.4696 -7.63619e-07 18 -7.86805e-07C18.5304 -8.09991e-07 19.0391 0.210713 19.4142 0.585785C19.7893 0.960858 20 1.46957 20 2C20 2.53043 19.7893 3.03914 19.4142 3.41421C19.0391 3.78929 18.5304 4 18 4ZM10 4C9.46957 4 8.96086 3.78929 8.58579 3.41421C8.21071 3.03914 8 2.53043 8 2C8 1.46957 8.21071 0.960859 8.58579 0.585786C8.96086 0.210713 9.46957 -4.13928e-07 10 -4.37114e-07C10.5304 -4.603e-07 11.0391 0.210713 11.4142 0.585786C11.7893 0.960859 12 1.46957 12 2C12 2.53043 11.7893 3.03914 11.4142 3.41421C11.0391 3.78929 10.5304 4 10 4ZM2 4C1.46957 4 0.960859 3.78929 0.585786 3.41421C0.210714 3.03914 -6.42368e-08 2.53043 -8.74228e-08 2C-1.10609e-07 1.46957 0.210714 0.960859 0.585786 0.585786C0.960859 0.210714 1.46957 -6.42368e-08 2 -8.74228e-08C2.53043 -1.10609e-07 3.03914 0.210713 3.41421 0.585786C3.78929 0.960859 4 1.46957 4 2C4 2.53043 3.78929 3.03914 3.41421 3.41421C3.03914 3.78929 2.53043 4 2 4Z" fill="#315D80"/>
</svg>
