<svg width="16" height="16" viewBox="0 0 16 16" fill="none" xmlns="http://www.w3.org/2000/svg">
<rect width="16" height="16" rx="8" fill="#A7BBCE"/>
<g clip-path="url(#clip0_7392_21128)">
<path d="M9.5 4.30376C9.59631 4.20745 9.71063 4.13106 9.83646 4.07894C9.96228 4.02683 10.0971 4 10.2333 4C10.3695 4 10.5044 4.02683 10.6302 4.07894C10.756 4.13106 10.8704 4.20745 10.9667 4.30376C11.063 4.40006 11.1394 4.51439 11.1915 4.64021C11.2436 4.76604 11.2704 4.9009 11.2704 5.03709C11.2704 5.17328 11.2436 5.30814 11.1915 5.43397C11.1394 5.55979 11.063 5.67412 10.9667 5.77042L6.01667 10.7204L4 11.2704L4.55 9.25376L9.5 4.30376Z" stroke="white" stroke-linecap="round" stroke-linejoin="round"/>
</g>
<defs>
<clipPath id="clip0_7392_21128">
<rect width="8.8" height="8.8" fill="white" transform="translate(3.59943 3.59766)"/>
</clipPath>
</defs>
</svg>
