<svg width="22" height="18" viewBox="0 0 22 18" fill="none" xmlns="http://www.w3.org/2000/svg">
<g filter="url(#filter0_i_4807_12843)">
<path d="M2.2 18C1.595 18 1.07727 17.7799 0.6468 17.3396C0.216333 16.8994 0.000733333 16.3695 0 15.75V2.25C0 1.63125 0.2156 1.10175 0.6468 0.6615C1.078 0.22125 1.59573 0.00075 2.2 0H19.8C20.405 0 20.9231 0.2205 21.3543 0.6615C21.7855 1.1025 22.0007 1.632 22 2.25V15.75C22 16.3687 21.7848 16.8986 21.3543 17.3396C20.9238 17.7806 20.4057 18.0007 19.8 18H2.2ZM11 10.125L2.2 4.5V15.75H19.8V4.5L11 10.125ZM11 7.875L19.8 2.25H2.2L11 7.875ZM2.2 4.5V2.25V15.75V4.5Z" fill="#FFB6A3"/>
</g>
<defs>
<filter id="filter0_i_4807_12843" x="0" y="0" width="22" height="22" filterUnits="userSpaceOnUse" color-interpolation-filters="sRGB">
<feFlood flood-opacity="0" result="BackgroundImageFix"/>
<feBlend mode="normal" in="SourceGraphic" in2="BackgroundImageFix" result="shape"/>
<feColorMatrix in="SourceAlpha" type="matrix" values="0 0 0 0 0 0 0 0 0 0 0 0 0 0 0 0 0 0 127 0" result="hardAlpha"/>
<feOffset dy="4"/>
<feGaussianBlur stdDeviation="2"/>
<feComposite in2="hardAlpha" operator="arithmetic" k2="-1" k3="1"/>
<feColorMatrix type="matrix" values="0 0 0 0 0.909804 0 0 0 0 0.52549 0 0 0 0 0.423529 0 0 0 0.25 0"/>
<feBlend mode="normal" in2="shape" result="effect1_innerShadow_4807_12843"/>
</filter>
</defs>
</svg>
