<svg width="1194" height="134" viewBox="0 0 1194 134" fill="none" xmlns="http://www.w3.org/2000/svg">
<g filter="url(#filter0_di_4807_12819)">
<path d="M-65 50.5C-65 18.7436 -39.2564 -7 -7.5 -7H1204.74C1236.5 -7 1262.24 18.7436 1262.24 50.5C1262.24 82.2564 1236.5 108 1204.74 108H1170.05C1162.15 108 1154.41 105.768 1147.73 101.561C1141.05 97.3535 1133.31 95.1212 1125.41 95.1212H63.0313C55.9989 95.1212 49.1521 97.3784 43.4985 101.561C37.8448 105.743 30.998 108 23.9656 108H-7.5C-39.2564 108 -65 82.2564 -65 50.5Z" fill="#315D80"/>
</g>
<defs>
<filter id="filter0_di_4807_12819" x="-86.9" y="-24.9" width="1371.04" height="158.8" filterUnits="userSpaceOnUse" color-interpolation-filters="sRGB">
<feFlood flood-opacity="0" result="BackgroundImageFix"/>
<feColorMatrix in="SourceAlpha" type="matrix" values="0 0 0 0 0 0 0 0 0 0 0 0 0 0 0 0 0 0 127 0" result="hardAlpha"/>
<feOffset dy="4"/>
<feGaussianBlur stdDeviation="10.95"/>
<feComposite in2="hardAlpha" operator="out"/>
<feColorMatrix type="matrix" values="0 0 0 0 0.234896 0 0 0 0 0.332874 0 0 0 0 0.5125 0 0 0 0.3 0"/>
<feBlend mode="normal" in2="BackgroundImageFix" result="effect1_dropShadow_4807_12819"/>
<feBlend mode="normal" in="SourceGraphic" in2="effect1_dropShadow_4807_12819" result="shape"/>
<feColorMatrix in="SourceAlpha" type="matrix" values="0 0 0 0 0 0 0 0 0 0 0 0 0 0 0 0 0 0 127 0" result="hardAlpha"/>
<feOffset dy="-2"/>
<feGaussianBlur stdDeviation="5"/>
<feComposite in2="hardAlpha" operator="arithmetic" k2="-1" k3="1"/>
<feColorMatrix type="matrix" values="0 0 0 0 0.301389 0 0 0 0 0.493232 0 0 0 0 0.645833 0 0 0 1 0"/>
<feBlend mode="normal" in2="shape" result="effect2_innerShadow_4807_12819"/>
</filter>
</defs>
</svg>
