<svg width="222" height="50" viewBox="0 0 222 50" fill="none" xmlns="http://www.w3.org/2000/svg">
<g clip-path="url(#clip0_3807_1106)">
<path d="M55.665 27.8432C56.7685 27.5186 57.1796 27.3437 57.3591 26.5445C57.5386 25.8694 57.5899 20.1456 57.5899 18.8704C57.6446 17.4201 57.6103 15.968 57.4873 14.5217C57.3334 13.3964 56.3062 13.3714 55.7676 13.3464L55.8702 12.6977C56.2292 12.6977 57.7438 12.7227 58.0522 12.7227C58.3856 12.7227 59.2847 12.6713 60.1559 12.5964C61.0542 12.525 61.9268 12.4473 62.2353 12.4473C66.444 12.4473 68.0611 14.7465 68.0611 16.6211C68.0611 18.4701 66.5723 19.995 64.5441 20.6451C67.4193 25.9972 69.3954 28.2678 71.987 28.4676V29.1177C69.4958 29.1677 65.9055 29.1677 61.696 20.9448C61.1817 20.938 60.6681 20.9047 60.1573 20.8449C60.1317 21.3951 60.106 21.844 60.106 23.2441C60.106 24.069 60.106 26.5687 60.4394 27.0975C60.9139 27.5224 61.5176 27.7851 62.1591 27.8461L62.0565 28.447C61.2351 28.3456 60.7728 28.3221 60.3625 28.2957C59.9229 28.2707 59.5418 28.2707 58.8238 28.2707C57.7685 28.2624 56.7139 28.3213 55.6665 28.447L55.665 27.8432ZM61.7217 13.1951C60.3867 13.1951 60.3867 13.5198 60.3112 15.1218C60.2071 17.4967 60.2071 17.7971 60.2328 19.9708C60.62 20.056 61.0174 20.0896 61.4139 20.0707C62.6464 20.0707 65.2893 20.0707 65.2893 16.8709C65.2893 15.971 64.8269 13.1951 61.7217 13.1951Z" fill="white"/>
<path d="M80.6652 12.4229C81.7782 12.4059 82.8835 12.6059 83.9159 13.0113C84.9483 13.4167 85.8869 14.0191 86.6766 14.7832C87.4663 15.5473 88.091 16.4575 88.5139 17.4603C88.9368 18.4631 89.1494 19.5382 89.1392 20.6223C89.129 21.7063 88.8961 22.7774 88.4544 23.7725C88.0126 24.7676 87.3709 25.6665 86.5669 26.4163C85.763 27.1661 84.8131 27.7517 83.7733 28.1385C82.7334 28.5254 81.6246 28.7057 80.5121 28.6688C79.3778 28.715 78.2458 28.5337 77.1865 28.1358C76.1273 27.738 75.1633 27.1323 74.3546 26.3563C73.5458 25.5803 72.9096 24.6506 72.4854 23.625C72.0612 22.5994 71.8581 21.4998 71.8888 20.3945C71.8888 15.522 76.2008 12.4229 80.6652 12.4229ZM81.0763 27.7696C82.719 27.7696 86.1577 26.7934 86.1577 22.17C86.1577 18.9209 84.5406 13.3969 79.9479 13.3969C78.7155 13.3969 74.8922 13.9471 74.8922 19.0458C74.8907 23.1697 76.9189 27.7696 81.0763 27.7696Z" fill="white"/>
<path d="M100.047 20.921C100.047 21.8708 100.047 26.42 100.149 26.9195C100.279 27.4447 101.715 27.7437 102.28 27.8187L102.228 28.3938C101.817 28.3439 101.253 28.2939 100.69 28.2689C100.125 28.2197 99.5099 28.194 98.9706 28.194C98.6885 28.194 97.8671 28.244 97.0714 28.2939C96.3013 28.3439 95.5056 28.3938 95.2491 28.3938L95.2748 27.8187C96.8662 27.6945 97.1227 27.3448 97.2773 26.8439C97.4312 26.3201 97.4312 22.8712 97.4312 21.9949C97.4312 21.6952 97.4312 21.5711 97.4055 21.1208C96.1332 19.1266 94.7535 17.1993 93.2723 15.347C92.297 14.1717 91.5269 13.2483 89.9106 13.2483L89.8065 12.6475C90.063 12.6475 90.7818 12.6724 91.5262 12.6724C92.2706 12.6988 93.0151 12.7238 93.2715 12.7238L96.7886 12.6724L96.686 13.3475C96.4552 13.3475 95.3268 13.3475 95.3268 13.7978C95.3268 14.2481 98.1492 18.048 99.6887 19.872C102.923 14.9481 103.077 14.6984 103.077 14.1482C103.077 13.3982 102.204 13.3982 101.485 13.3732L101.562 12.6482C101.793 12.6482 102.255 12.6732 102.795 12.6996C103.308 12.7245 103.898 12.7495 104.333 12.7495C104.745 12.7495 106.515 12.6996 106.898 12.6996L106.872 13.4988C105.101 13.5238 104.178 14.1739 101.098 19.2226L100.047 20.921Z" fill="white"/>
<path d="M109.34 24.7946C109.065 25.3784 108.859 25.9901 108.724 26.6185C108.724 27.5462 109.955 27.6947 110.673 27.7939V28.369C110.494 28.369 109.721 28.344 108.98 28.3198C108.239 28.2955 107.542 28.2684 107.491 28.2684C107.183 28.2684 106.105 28.2684 105.695 28.2934V27.7939C106.012 27.759 106.316 27.6528 106.583 27.4837C106.85 27.3146 107.073 27.0873 107.234 26.8198C108.132 25.4197 112.572 14.797 112.906 13.9471C113.162 13.322 113.317 12.8724 113.471 12.4229H114.137C114.292 12.9224 114.446 13.4726 114.754 14.2968C115.293 15.7718 117.858 22.2178 118.372 23.5443C119.859 27.5684 120.298 27.644 121.324 27.7931V28.2927C121.041 28.2677 120.734 28.2427 120.372 28.2213C120.01 28.1999 119.602 28.1949 119.064 28.1949C117.473 28.1949 116.265 28.3212 115.473 28.3697V27.7946C116.141 27.6954 116.757 27.4456 116.757 26.8704C116.757 26.5194 115.499 23.2453 115.371 22.8957C114.757 22.832 114.14 22.8082 113.524 22.8243C112.383 22.8024 111.243 22.8606 110.111 22.9984L109.34 24.7946ZM110.572 21.7974C111.489 21.9393 112.415 22.0144 113.343 22.0222C113.901 22.0278 114.459 21.9944 115.012 21.9223C114.357 20.0772 113.603 18.2669 112.753 16.4989L110.572 21.7974Z" fill="white"/>
<path d="M136.959 24.9947C136.857 25.7947 136.832 25.9695 135.957 28.4914C135.389 28.3824 134.815 28.3074 134.238 28.2666C133.521 28.2173 132.494 28.1916 130.747 28.1916H123.613L123.562 27.5665C124.099 27.5391 124.608 27.3269 124.999 26.9678C125.438 26.4426 125.438 26.1928 125.461 20.0937C125.461 15.4695 125.461 15.0449 125.388 14.4198C125.258 13.3701 124.514 13.2945 123.769 13.2459V12.6451C124.744 12.6701 125.054 12.6965 126.9 12.6965C128.851 12.6965 129.34 12.6701 130.314 12.6201V13.2702C129.492 13.3701 128.775 13.495 128.517 13.9453C128.158 14.5954 128.108 19.1439 128.108 20.2692L128.082 24.1184C128.082 25.6683 128.108 26.4433 128.338 26.8187C128.544 27.194 129.16 27.194 130.339 27.194C135.318 27.194 135.934 26.0944 136.348 24.9191L136.959 24.9947Z" fill="white"/>
<path d="M154.748 20.921C154.748 21.8708 154.748 26.42 154.85 26.9195C154.979 27.4447 156.416 27.7437 156.981 27.8187L156.928 28.3938C156.519 28.3439 155.954 28.2939 155.39 28.2689C154.826 28.2197 154.208 28.194 153.67 28.194C153.388 28.194 152.571 28.244 151.771 28.2939C151.001 28.3439 150.206 28.3938 149.949 28.3938L149.975 27.8187C151.566 27.6945 151.822 27.3448 151.977 26.8439C152.131 26.3201 152.131 22.8712 152.131 21.9949C152.131 21.6952 152.131 21.5711 152.106 21.1208C150.834 19.1262 149.455 17.1989 147.973 15.347C146.999 14.1717 146.228 13.2483 144.611 13.2483L144.509 12.6475C144.765 12.6475 145.483 12.6724 146.228 12.6724C146.971 12.6988 147.716 12.7238 147.973 12.7238L151.49 12.6724L151.388 13.3475C151.156 13.3475 150.028 13.3475 150.028 13.7978C150.028 14.2481 152.85 18.048 154.39 19.872C157.624 14.9481 157.778 14.6984 157.778 14.1482C157.778 13.3982 156.906 13.3982 156.187 13.3732L156.264 12.6482C156.495 12.6482 156.957 12.6732 157.495 12.6996C158.008 12.7245 158.598 12.7495 159.033 12.7495C159.444 12.7495 161.214 12.6996 161.598 12.6996L161.571 13.4988C159.801 13.5238 158.877 14.1739 155.797 19.2226L154.748 20.921Z" fill="white"/>
<path d="M171.818 12.4229C173.456 12.5052 175.032 13.0552 176.35 14.0042C177.668 14.9531 178.67 16.2591 179.232 17.7592C179.793 19.2593 179.888 20.8871 179.506 22.4396C179.123 23.9921 178.28 25.4006 177.081 26.4894C175.882 27.5782 174.381 28.2992 172.764 28.5624C171.147 28.8255 169.486 28.6193 167.989 27.9693C166.492 27.3193 165.224 26.2544 164.344 24.9074C163.464 23.5603 163.011 21.9908 163.04 20.3945C163.04 15.522 167.352 12.4229 171.818 12.4229ZM172.228 27.7696C173.872 27.7696 177.309 26.7934 177.309 22.17C177.309 18.9209 175.693 13.3969 171.1 13.3969C169.867 13.3969 166.044 13.9471 166.044 19.0458C166.044 23.1697 168.071 27.7696 172.228 27.7696Z" fill="white"/>
<path d="M183.115 27.8432C184.214 27.5186 184.63 27.3437 184.809 26.5445C184.989 25.8694 185.04 20.1456 185.04 18.8704C185.094 17.4201 185.06 15.968 184.938 14.5217C184.782 13.3964 183.756 13.3714 183.218 13.3464L183.32 12.6977C183.68 12.6977 185.194 12.7227 185.502 12.7227C185.836 12.7227 186.733 12.6713 187.606 12.5964C188.504 12.525 189.378 12.4473 189.686 12.4473C193.894 12.4473 195.511 14.7465 195.511 16.6211C195.511 18.4701 194.024 19.995 191.994 20.6451C194.868 25.9972 196.846 28.2678 199.437 28.4676V29.1177C196.946 29.1677 193.356 29.1677 189.147 20.9448C188.633 20.938 188.119 20.9047 187.608 20.8449C187.583 21.3951 187.558 21.844 187.558 23.2441C187.558 24.069 187.558 26.5687 187.891 27.0975C188.365 27.5226 188.969 27.7854 189.61 27.8461L189.507 28.447C188.686 28.3456 188.224 28.3221 187.813 28.2957C187.374 28.2707 186.993 28.2707 186.275 28.2707C185.22 28.2624 184.165 28.3213 183.118 28.447L183.115 27.8432ZM189.172 13.1951C187.837 13.1951 187.837 13.5198 187.76 15.1218C187.658 17.4967 187.658 17.7971 187.683 19.9708C188.07 20.056 188.468 20.0896 188.864 20.0707C190.095 20.0707 192.739 20.0707 192.739 16.8709C192.739 15.971 192.277 13.1951 189.172 13.1951Z" fill="white"/>
<path d="M201.237 27.6703C201.519 27.6839 201.799 27.6267 202.05 27.504C202.302 27.3814 202.517 27.1975 202.675 26.9702C203.085 26.2702 203.137 20.946 203.137 20.4715C203.137 19.7215 203.086 14.5486 202.932 14.0976C202.727 13.4974 202.47 13.3476 201.393 13.1699L201.368 12.5947C201.881 12.5947 204.165 12.6697 204.628 12.6697C205.783 12.6697 206.834 12.5947 207.784 12.5205V13.1192C207.014 13.2455 206.167 13.369 205.988 13.7943C205.705 14.4943 205.68 20.0183 205.655 20.4429L205.705 20.4929L209.914 15.2693C210.274 14.8652 210.568 14.4099 210.787 13.9192C210.787 13.4196 210.324 13.2941 209.657 13.2941V12.6725L212.942 12.6989C213.529 12.6989 214.303 12.6475 215.251 12.5976L215.278 13.2234C213.887 13.3373 212.579 13.9205 211.582 14.8725C211.428 15.0474 210.581 15.8716 210.401 16.0229C209.529 16.897 208.553 18.1715 207.63 19.2469C208.118 19.7721 212.763 24.7709 213.994 25.8956C214.855 26.6773 215.833 27.327 216.895 27.8223V28.3725C216.665 28.3475 216.455 28.3232 216.099 28.2975C215.743 28.2719 215.278 28.2726 214.508 28.2726C213.405 28.2726 212.095 28.2726 211.017 28.3725L210.966 27.873C211.454 27.8216 211.813 27.773 211.813 27.4969C211.813 27.1722 207.655 22.9477 205.658 21.1458C205.658 21.8708 205.658 26.5449 205.914 27.0188C206.018 27.22 206.402 27.5447 207.787 27.8187V28.4217C207.336 28.3489 206.882 28.2984 206.426 28.2704C205.964 28.2212 205.401 28.2212 204.553 28.2212C203.527 28.2212 202.372 28.2455 201.242 28.2704L201.237 27.6703Z" fill="white"/>
<path d="M66.2682 35.0129C66.4984 35.0096 66.7275 35.0441 66.946 35.115C67.14 35.1778 67.3177 35.2807 67.4669 35.4168C67.6138 35.554 67.728 35.7209 67.8018 35.9056C67.9566 36.3274 67.9566 36.7883 67.8018 37.2101C67.7284 37.3948 67.614 37.5614 67.4669 37.6982C67.3178 37.8347 67.1401 37.9382 66.946 38.0015C66.7275 38.0723 66.4984 38.1068 66.2682 38.1035H64.3316V40.4234H63.8019V35.0129H66.2682ZM66.1524 37.6654C66.4747 37.6801 66.7919 37.5833 67.0478 37.3921C67.2667 37.1668 67.3887 36.8684 67.3887 36.5582C67.3887 36.248 67.2667 35.9497 67.0478 35.7244C66.7918 35.5334 66.4746 35.4368 66.1524 35.4518H64.3316V37.6639L66.1524 37.6654Z" fill="white" stroke="white" stroke-width="0.5"/>
<path d="M74.1513 35.0137C74.3705 35.0131 74.5888 35.0409 74.8005 35.0965C74.9946 35.1467 75.177 35.233 75.3376 35.3505C75.4935 35.4666 75.619 35.617 75.7039 35.7894C75.7994 35.9869 75.8463 36.2034 75.8409 36.4216C75.8491 36.7405 75.7535 37.0538 75.5676 37.3165C75.3752 37.5756 75.0856 37.7502 74.7616 37.8024V37.8167C74.9197 37.8363 75.0726 37.8847 75.2123 37.9594C75.3285 38.0244 75.4286 38.1136 75.5054 38.2206C75.5835 38.3321 75.6392 38.4571 75.6695 38.5888C75.7045 38.7368 75.7266 38.8875 75.7354 39.0391C75.7413 39.1305 75.7457 39.2425 75.7508 39.3731C75.7559 39.5037 75.7662 39.6371 75.7823 39.7713C75.7968 39.8995 75.8212 40.0264 75.8556 40.1509C75.8804 40.2515 75.9269 40.3459 75.9919 40.4278H75.4057C75.3723 40.3697 75.3476 40.3072 75.3324 40.2422C75.3143 40.1675 75.3013 40.0917 75.2936 40.0153C75.2855 39.9368 75.2789 39.859 75.2745 39.7841C75.2702 39.7092 75.2643 39.6414 75.2592 39.5864C75.2482 39.3959 75.2313 39.2047 75.2086 39.0156C75.1893 38.8396 75.1397 38.6681 75.0621 38.5082C74.9885 38.3625 74.8755 38.2391 74.7353 38.1514C74.5577 38.0524 74.3526 38.0102 74.1491 38.0308H72.1414V40.4328H71.6124V35.0137H74.1513ZM74.1125 37.5827C74.2683 37.5835 74.4233 37.5594 74.5711 37.5113C74.711 37.4664 74.8406 37.3957 74.9529 37.3029C75.0617 37.2112 75.1504 37.0991 75.2137 36.9732C75.2801 36.8346 75.313 36.683 75.3097 36.5301C75.3174 36.3868 75.2954 36.2435 75.245 36.1086C75.1947 35.9738 75.117 35.8502 75.0166 35.7451C74.8932 35.6416 74.7497 35.563 74.5948 35.514C74.4398 35.465 74.2763 35.4465 74.1139 35.4597H72.1356V37.5891L74.1125 37.5827Z" fill="white" stroke="white" stroke-width="0.5"/>
<path d="M79.5645 36.6505C79.6678 36.3235 79.8344 36.0188 80.0554 35.7528C80.278 35.4887 80.5583 35.2763 80.876 35.1313C81.2359 34.9707 81.6285 34.8916 82.0242 34.9001C82.4183 34.8914 82.8093 34.9705 83.1672 35.1313C83.4835 35.277 83.7625 35.4893 83.9842 35.7528C84.2056 36.0185 84.3723 36.3233 84.4751 36.6505C84.6924 37.3472 84.6924 38.0911 84.4751 38.7878C84.3728 39.1138 84.206 39.4173 83.9842 39.6812C83.7617 39.9428 83.4828 40.1536 83.1672 40.2985C82.8093 40.4592 82.4183 40.5383 82.0242 40.5297C81.6285 40.5381 81.2359 40.459 80.876 40.2985C80.559 40.1542 80.2788 39.9434 80.0554 39.6812C79.8341 39.417 79.6673 39.1136 79.5645 38.7878C79.3472 38.0911 79.3472 37.3472 79.5645 36.6505ZM80.051 38.5865C80.1267 38.8616 80.2533 39.1208 80.4247 39.3515C80.5956 39.5781 80.8177 39.7635 81.0739 39.8931C81.369 40.0373 81.6963 40.1079 82.0264 40.0986C82.3541 40.1076 82.6789 40.037 82.9716 39.8931C83.2259 39.7625 83.4464 39.5773 83.6164 39.3515C83.7878 39.1208 83.9144 38.8616 83.9901 38.5865C84.1506 38.0174 84.1506 37.4166 83.9901 36.8475C83.9139 36.5739 83.7873 36.3162 83.6164 36.0868C83.4468 35.8601 83.2262 35.6741 82.9716 35.543C82.6786 35.4004 82.3539 35.3305 82.0264 35.3396C81.6966 35.3302 81.3694 35.4001 81.0739 35.543C80.8173 35.6731 80.5952 35.8592 80.4247 36.0868C80.2538 36.3162 80.1271 36.5739 80.051 36.8475C79.8905 37.4166 79.8905 38.0174 80.051 38.5865Z" fill="white" stroke="white" stroke-width="0.5"/>
<path d="M90.8317 35.0129C91.0614 35.0098 91.29 35.0443 91.508 35.1149C91.7022 35.1763 91.8799 35.2792 92.028 35.4162C92.176 35.5531 92.2908 35.7206 92.3638 35.9063C92.52 36.3278 92.52 36.7893 92.3638 37.2108C92.2903 37.3955 92.176 37.5621 92.0289 37.6989C91.88 37.8356 91.7022 37.9391 91.508 38.0022C91.29 38.0728 91.0614 38.1073 90.8317 38.1042H88.8929V40.4241H88.3654V35.0129H90.8317ZM90.7144 37.6653C91.0366 37.6803 91.3538 37.5837 91.6098 37.3928C91.8299 37.168 91.9527 36.8694 91.9527 36.5589C91.9527 36.2484 91.8299 35.9498 91.6098 35.7251C91.3538 35.5341 91.0366 35.4375 90.7144 35.4525H88.8929V37.6646L90.7144 37.6653Z" fill="white" stroke="white" stroke-width="0.5"/>
<path d="M100.006 35.0137V35.4525H96.6991V37.4071H99.7963V37.8495H96.6991V39.9853H100.045V40.4256H96.17V35.0137H100.006Z" fill="white" stroke="white" stroke-width="0.5"/>
<path d="M106.231 35.0137C106.451 35.0131 106.669 35.0409 106.881 35.0965C107.075 35.147 107.257 35.2332 107.418 35.3505C107.574 35.4666 107.699 35.617 107.784 35.7894C107.879 35.987 107.926 36.2034 107.92 36.4216C107.928 36.7404 107.833 37.0535 107.648 37.3165C107.455 37.5756 107.166 37.7502 106.842 37.8024V37.8167C107 37.8361 107.154 37.8845 107.294 37.9594C107.41 38.0244 107.51 38.1136 107.587 38.2206C107.664 38.3325 107.719 38.4573 107.75 38.5888C107.785 38.7368 107.807 38.8875 107.816 39.0391C107.821 39.1305 107.826 39.2425 107.832 39.3731C107.837 39.5037 107.846 39.6371 107.863 39.7713C107.878 39.8995 107.902 40.0264 107.936 40.1509C107.961 40.2515 108.008 40.3459 108.073 40.4278H107.487C107.453 40.3699 107.428 40.3073 107.413 40.2422C107.395 40.1675 107.382 40.0917 107.374 40.0153C107.366 39.9368 107.36 39.859 107.355 39.7841C107.349 39.7092 107.344 39.6414 107.339 39.5864C107.329 39.3959 107.312 39.2047 107.289 39.0156C107.269 38.8396 107.22 38.6681 107.142 38.5082C107.068 38.363 106.955 38.2398 106.815 38.1514C106.638 38.0524 106.433 38.0102 106.229 38.0308H104.222V40.4328H103.693V35.0137H106.231ZM106.193 37.5827C106.348 37.5834 106.503 37.5593 106.651 37.5113C106.791 37.4664 106.921 37.3957 107.033 37.3029C107.142 37.2115 107.23 37.0993 107.293 36.9732C107.36 36.8347 107.393 36.6831 107.39 36.5301C107.398 36.3868 107.376 36.2433 107.326 36.1084C107.275 35.9735 107.197 35.8499 107.097 35.7451C106.973 35.6415 106.83 35.5629 106.675 35.5139C106.52 35.4649 106.357 35.4465 106.195 35.4597H104.216V37.5891L106.193 37.5827Z" fill="white" stroke="white" stroke-width="0.5"/>
<path d="M115.628 35.0137V35.4525H113.691V40.4242H113.161V35.4525H111.231V35.0137H115.628Z" fill="white" stroke="white" stroke-width="0.5"/>
<path d="M118.423 35.0137H119.047L120.875 37.7575L122.695 35.0137H123.326L121.131 38.1963V40.4249H120.601V38.1963L118.423 35.0137Z" fill="white" stroke="white" stroke-width="0.5"/>
<path d="M132.538 35.0137L134.382 39.757L136.296 35.0137H137.074V40.4242H136.546V35.7487H136.531L134.632 40.4249H134.134L132.302 35.7487H132.287V40.4249H131.758V35.0137H132.538Z" fill="white" stroke="white" stroke-width="0.5"/>
<path d="M143.283 35.0137L145.461 40.4242H144.893L144.217 38.7415H141.687L141.018 40.4242H140.457L142.69 35.0137H143.283ZM144.038 38.3027L142.965 35.5289L141.852 38.3027H144.038Z" fill="white" stroke="white" stroke-width="0.5"/>
<path d="M149.452 35.0137L152.689 39.59H152.704V35.0137H153.234V40.4242H152.642L149.405 35.8472H149.386V40.4242H148.859V35.0137H149.452Z" fill="white" stroke="white" stroke-width="0.5"/>
<path d="M159.467 35.0137L161.645 40.4242H161.077L160.401 38.7415H157.871L157.201 40.4242H156.641L158.874 35.0137H159.467ZM160.222 38.3027L159.148 35.5289L158.035 38.3027H160.222Z" fill="white" stroke="white" stroke-width="0.5"/>
<path d="M169.419 40.4248L169.346 39.4386H169.331C169.245 39.6228 169.128 39.7917 168.984 39.9381C168.851 40.0731 168.698 40.1881 168.53 40.2792C168.362 40.3675 168.183 40.4326 167.996 40.4726C167.804 40.513 167.607 40.5331 167.41 40.5326C167.015 40.541 166.622 40.462 166.263 40.3014C165.946 40.1568 165.665 39.9461 165.441 39.6841C165.22 39.4202 165.053 39.1167 164.951 38.7907C164.733 38.0942 164.733 37.3499 164.951 36.6534C165.054 36.3263 165.22 36.0215 165.441 35.7557C165.665 35.4918 165.945 35.2795 166.263 35.1342C166.622 34.9735 167.015 34.8945 167.41 34.903C167.69 34.9014 167.968 34.9398 168.235 35.0171C168.486 35.0882 168.72 35.2039 168.927 35.3582C169.132 35.5121 169.306 35.7018 169.44 35.9177C169.587 36.1574 169.685 36.4225 169.728 36.6984H169.199C169.181 36.5314 169.126 36.3701 169.039 36.2253C168.944 36.0606 168.82 35.9131 168.673 35.7893C168.51 35.6522 168.325 35.5431 168.125 35.4667C167.896 35.3814 167.653 35.3392 167.408 35.3425C167.078 35.3334 166.751 35.4032 166.456 35.5459C166.199 35.676 165.976 35.8621 165.806 36.0897C165.635 36.3193 165.509 36.577 165.432 36.8504C165.271 37.4195 165.271 38.0203 165.432 38.5894C165.508 38.8643 165.635 39.1235 165.806 39.3544C165.977 39.5811 166.199 39.7664 166.456 39.896C166.751 40.04 167.078 40.1106 167.408 40.1016C167.689 40.1059 167.968 40.0557 168.229 39.9538C168.461 39.8612 168.669 39.7199 168.839 39.54C169.009 39.3593 169.136 39.1451 169.213 38.912C169.298 38.6551 169.337 38.3861 169.33 38.1163H167.438V37.676H169.798V40.4284L169.419 40.4248Z" fill="white" stroke="white" stroke-width="0.5"/>
<path d="M177.558 35.0137V35.4525H174.251V37.4071H177.347V37.8495H174.251V39.9853H177.596V40.4256H173.722V35.0137H177.558Z" fill="white" stroke="white" stroke-width="0.5"/>
<path d="M181.999 35.0137L183.844 39.757L185.757 35.0137H186.536V40.4242H186.007V35.7487H185.992L184.095 40.4242H183.597L181.765 35.748H181.751V40.4242H181.221V35.0137H181.999Z" fill="white" stroke="white" stroke-width="0.5"/>
<path d="M194.363 35.0137V35.4525H191.056V37.4071H194.154V37.8495H191.056V39.9853H194.398V40.4256H190.525V35.0137H194.363Z" fill="white" stroke="white" stroke-width="0.5"/>
<path d="M198.629 35.0137L201.865 39.59H201.88V35.0137H202.409V40.4242H201.815L198.579 35.8472H198.563V40.4242H198.034V35.0137H198.629Z" fill="white" stroke="white" stroke-width="0.5"/>
<path d="M210.228 35.0137V35.4525H208.291V40.4242H207.761V35.4525H205.833V35.0137H210.228Z" fill="white" stroke="white" stroke-width="0.5"/>
<path d="M219.098 12.4512V12.6702H218.13V15.15H217.868V12.6702H216.905V12.4512H219.098Z" fill="white"/>
<path d="M219.736 12.4512L220.658 14.8168L221.611 12.4512H222V15.1507H221.736V12.8165H221.727L220.781 15.1507H220.533L219.621 12.8165H219.613V15.1507H219.35V12.4512H219.736Z" fill="white"/>
<path d="M25.6695 50.0003C20.5927 50.0001 15.6299 48.5338 11.4087 45.7868C7.18754 43.0397 3.89756 39.1353 1.9548 34.5673C0.0120491 29.9992 -0.496226 24.9727 0.494252 20.1233C1.48473 15.2739 3.92948 10.8194 7.51934 7.32321C11.1092 3.82699 15.683 1.44602 20.6622 0.481384C25.6415 -0.483256 30.8027 0.0117603 35.4931 1.90384C40.1835 3.79591 44.1925 7.00007 47.0132 11.1111C49.8338 15.2222 51.3394 20.0555 51.3395 24.9999C51.3318 31.6281 48.6248 37.9827 43.8124 42.6695C39 47.3563 32.4752 49.9927 25.6695 50.0003ZM25.6695 1.08709C20.8133 1.08709 16.0662 2.48955 12.0284 5.11713C7.99064 7.7447 4.84358 11.4794 2.98519 15.8489C1.12681 20.2184 0.640573 25.0264 1.58797 29.6651C2.53536 34.3037 4.87384 38.5646 8.30769 41.9088C11.7415 45.2531 16.1165 47.5306 20.8794 48.4533C25.6423 49.3759 30.5791 48.9024 35.0657 47.0925C39.5522 45.2826 43.3869 42.2176 46.0849 38.2852C48.7828 34.3527 50.2229 29.7294 50.2229 24.9999C50.2155 18.66 47.6263 12.5819 43.0232 8.09892C38.4202 3.61595 32.1792 1.09427 25.6695 1.08709Z" fill="white"/>
<path d="M20.8702 49.0059C20.7002 48.8774 20.5266 48.7547 20.3573 48.6241C18.6809 47.326 17.1209 45.8981 15.4855 44.5565C15.031 44.1554 14.5533 43.7802 14.0545 43.4326C13.956 43.3566 13.8342 43.3148 13.7086 43.3138C13.5829 43.3127 13.4604 43.3526 13.3606 43.4269C13.2641 43.4979 13.1942 43.5978 13.1617 43.7113C13.1293 43.8248 13.1361 43.9455 13.1811 44.0549C13.2427 44.3451 13.3238 44.6312 13.4236 44.9112C13.4704 45.0009 13.4916 45.1011 13.4852 45.2015C13.4787 45.3019 13.4448 45.3988 13.387 45.4821C10.8166 42.7943 8.59163 39.8119 6.76103 36.6006C6.74344 36.891 6.72073 37.0951 6.71853 37.3013C6.70853 37.5199 6.7451 37.7381 6.82593 37.9422C6.90676 38.1463 7.03011 38.3319 7.1882 38.4873C8.91757 40.1325 10.1008 42.2449 10.5851 44.5515C13.621 46.7789 17.1386 48.3023 20.8702 49.0059Z" fill="white"/>
<path d="M42.8526 20.2727C42.8454 20.0286 42.7637 19.7921 42.6181 19.5933C42.5947 19.5541 42.569 19.5141 42.5448 19.4749C42.122 18.8283 41.6214 18.2332 41.0537 17.7023C40.1508 16.878 39.1711 16.1375 38.1273 15.4901C37.7642 15.2863 37.4522 15.0064 37.2138 14.6707C36.9755 14.335 36.8167 13.9519 36.749 13.5491C36.662 12.8677 36.3023 12.2474 35.7481 11.8229C32.5657 9.17018 29.0813 6.88169 25.3633 5.00228C25.2807 4.97559 25.2072 4.92735 25.1507 4.86281C25.0943 4.79827 25.0571 4.71989 25.0432 4.6362C25.3132 4.57015 25.5884 4.52647 25.866 4.50561C26.9866 4.46573 28.1082 4.55169 29.2086 4.7618C29.8696 4.885 30.5405 4.9502 31.2134 4.95661C29.808 3.68497 26.0843 1.82318 22.9337 0.691406C16.5677 1.36723 10.7091 4.39132 6.5611 9.1426C7.16633 8.62096 7.78327 8.11073 8.41927 7.62191C8.50754 7.53584 8.61908 7.47596 8.74093 7.44922C8.79287 7.43773 8.84694 7.43916 8.89816 7.45338C8.94939 7.4676 8.99611 7.49414 9.03402 7.53057C9.11315 7.63191 8.97174 7.68043 8.92778 7.75108C8.8633 7.85312 8.77684 7.94446 8.70357 8.04151C7.47732 9.5 6.4007 11.072 5.48914 12.7349C5.14687 13.3802 4.8736 14.0582 4.67362 14.7579C4.63316 14.8878 4.63597 15.0268 4.68165 15.155C4.72732 15.2832 4.81352 15.394 4.92788 15.4715C5.04118 15.5605 5.18121 15.611 5.32669 15.6154C5.47217 15.6198 5.61514 15.5778 5.73387 15.4958C5.8927 15.3919 6.0381 15.2697 6.1669 15.1319C6.82521 14.4771 7.43122 13.7743 7.97964 13.0296C9.11902 11.4946 10.2349 9.94041 11.4967 8.49251C12.0852 7.73748 12.8833 7.16226 13.7967 6.83481C13.87 6.8134 13.9432 6.75132 14.0487 6.84694C13.7498 7.00322 13.6772 7.29794 13.5358 7.5427C13.0485 8.30152 12.655 9.11376 12.3635 9.96253C11.9622 11.4707 12.0539 13.0632 12.6258 14.5182C13.1805 15.9281 13.9054 17.2689 14.7851 18.5122C14.8445 18.5993 14.8965 18.6906 14.9756 18.8162C14.0931 18.6248 13.2868 18.1874 12.6551 17.5574C12.595 17.501 12.5525 17.3555 12.4104 17.4496C12.3603 17.4771 12.3212 17.5202 12.2995 17.5721C12.2778 17.6239 12.2748 17.6814 12.2909 17.7351C12.3997 18.461 12.5696 19.177 12.7987 19.8759C13.2911 21.4251 13.9909 22.8944 14.5741 24.4066C14.6596 24.5556 14.7066 24.7226 14.7111 24.8932C13.8473 24.1909 13.0978 23.3652 12.488 22.4442C11.7949 21.3705 11.1909 20.2447 10.6819 19.0774C10.6475 19.0024 10.6409 18.8868 10.4965 18.9068C10.439 18.913 10.3846 18.9353 10.3399 18.9711C10.2951 19.0068 10.262 19.0544 10.2445 19.1081C10.2232 19.1897 10.226 19.2755 10.2525 19.3557C10.4401 20.1613 10.6086 20.972 10.8072 21.7762C11.315 23.8457 12.1569 25.7196 14.0407 26.9798C14.1373 27.0423 14.212 27.132 14.2548 27.237C14.2976 27.3419 14.3065 27.4571 14.2803 27.5671C14.1563 28.381 14.1346 29.2065 14.2158 30.0255C14.3591 31.4071 14.7359 32.7562 15.331 34.0181C16.8864 37.4475 19.0435 40.5868 21.7056 43.2949C21.8091 43.3701 21.8882 43.4726 21.9335 43.5903C21.4872 43.5 21.0601 43.3356 20.671 43.1044C20.2973 42.8739 19.9303 42.6384 19.558 42.4122C17.957 41.4717 16.4155 40.4382 14.9419 39.3173C12.8487 37.7712 11.0821 35.8456 9.73963 33.6463C8.64196 31.6428 7.85691 29.4912 7.41032 27.2624C7.19051 26.3176 7.01172 25.3699 6.71864 24.4437C6.64603 24.1323 6.47692 23.8501 6.2342 23.6354C5.99148 23.4207 5.68688 23.2839 5.36165 23.2434C5.20997 23.2191 5.0605 23.1856 4.90736 23.172C4.77547 23.1635 4.7447 23.1178 4.77987 22.9958C4.88611 22.6575 4.9755 22.3164 5.08468 21.9803C5.54776 20.5702 6.21306 19.2358 6.74062 17.8528C6.84032 17.6588 6.90713 17.4504 6.93845 17.2356C6.8388 17.2227 6.79997 17.2855 6.75234 17.3269C5.52666 18.4197 4.47754 19.6867 3.64049 21.0847C3.60768 21.1456 3.58944 21.2129 3.58716 21.2816C3.58487 21.3504 3.5986 21.4187 3.6273 21.4815C3.99606 22.8106 4.12009 24.1928 3.99366 25.564C3.95748 25.8966 3.99368 26.2329 4.09991 26.5509C4.22006 26.8647 4.31631 27.1867 4.38786 27.5143C4.49045 28.0509 4.91542 28.3706 5.20265 28.7938C5.08652 28.1294 5.12457 27.4482 5.31402 26.8C5.34626 26.9563 5.36897 27.0654 5.39462 27.1696C5.48051 27.7623 5.60681 28.3488 5.7727 28.9251C6.90621 31.7348 8.51478 34.3397 10.5317 36.632C14.3272 41.0827 18.7227 44.949 23.1689 48.7632C23.3446 48.9344 23.4775 49.1427 23.5572 49.3719C24.2533 49.4283 24.9582 49.464 25.6696 49.464C27.186 49.4621 28.699 49.3271 30.1905 49.0608C30.285 48.8524 30.3956 48.6455 30.4836 48.4336C31.3657 46.42 31.5169 44.1738 30.9122 42.0654C30.1931 39.8127 28.9134 37.768 27.1871 36.1132C27.1724 36.1011 27.1416 36.1046 27.1057 36.0968C28.5221 39.8432 29.0365 43.6317 27.8612 47.5216C27.8773 45.7098 27.5249 43.9129 26.8244 42.2345C26.1388 40.636 25.2995 39.1042 24.3178 37.6596C23.0033 35.6465 21.6448 33.6634 20.4476 31.5783C18.8058 28.8364 17.5857 25.8748 16.8265 22.7881C16.7051 22.3885 16.72 21.9614 16.869 21.5707C17.8156 23.4261 18.6355 25.3185 20.1054 26.8242C21.5872 28.2709 23.3353 29.4328 25.2586 30.2495C23.0765 27.2867 21.0323 24.2603 19.8042 20.7857C20.4216 21.2787 20.9889 21.8283 21.4983 22.427C23.2331 24.2799 25.3489 25.7565 27.708 26.7607C27.7227 26.7415 27.7395 26.7215 27.7527 26.7022C27.571 26.5095 27.3908 26.3162 27.2061 26.1313C25.3846 24.3367 23.8067 22.3223 22.5109 20.1371C22.4662 20.0557 22.3812 19.9837 22.4061 19.8602C22.4845 19.8952 22.5446 19.9187 22.6047 19.948C23.4239 20.416 24.1859 20.9731 24.8761 21.6085C25.3512 22.0309 25.881 22.3907 26.4522 22.6789C26.5496 22.726 26.6456 22.7988 26.7504 22.6604C26.7711 22.6388 26.7872 22.6134 26.7978 22.5857C26.8083 22.5579 26.8131 22.5285 26.8119 22.4989C26.8107 22.4694 26.8034 22.4404 26.7906 22.4136C26.7778 22.3868 26.7596 22.3627 26.7372 22.3428C26.4016 21.8875 26.0829 21.4208 25.7414 20.9713C25.6088 20.7929 25.6945 20.7486 25.8587 20.7351C25.9597 20.7301 26.0607 20.7451 26.1556 20.7791C26.2505 20.813 26.3374 20.8653 26.4111 20.9327C27.0433 21.4166 27.7393 21.8157 28.4803 22.1195C29.6596 22.6219 30.8643 23.0659 32.0897 23.4496C32.6128 23.6287 32.6546 23.8278 32.2985 24.2439C31.8538 24.7584 31.5064 25.3458 31.2727 25.9786C31.0772 26.4186 31.0198 26.9052 31.108 27.3769C31.1961 27.8486 31.4258 28.2843 31.768 28.629C32.1768 29.0378 32.666 29.3623 33.2063 29.583C33.4811 29.7036 33.7625 29.8142 34.0688 29.9398C33.9068 30.0333 33.7757 30.1118 33.646 30.1875C32.8007 30.6318 32.0355 31.2074 31.3804 31.8915C31.1208 32.1537 30.9151 32.4618 30.7745 32.7992C30.691 32.9792 30.6747 33.1818 30.7282 33.3723C30.7817 33.5627 30.9017 33.729 31.0675 33.8425C31.2583 33.9841 31.4681 34.0996 31.6911 34.1858C33.2694 34.7988 34.9687 35.0595 36.664 34.9486C36.9414 34.9374 37.213 34.8678 37.4602 34.7446C37.7074 34.6214 37.9242 34.4476 38.0958 34.235C38.8954 33.3146 39.5032 32.2513 39.8851 31.1044C40.0199 30.7101 40.142 30.3097 40.2514 29.9034C40.3884 29.4039 40.247 29.1998 39.7187 29.1513C39.2782 29.1481 38.8398 29.2097 38.4182 29.334C37.984 29.4573 37.5201 29.4367 37.0993 29.2755C37.7785 28.7103 38.6141 28.3533 39.5011 28.2493C39.9283 28.2342 40.3435 28.1079 40.7036 27.8835C41.0636 27.6591 41.3553 27.3448 41.5483 26.9734C41.9978 26.1744 42.3582 25.3309 42.6232 24.4572C42.8252 23.7704 42.9239 23.0587 42.9163 22.3442C42.958 22.0667 42.9824 21.7869 42.9896 21.5065C42.9954 21.1283 42.9568 20.7507 42.8745 20.3811C42.868 20.3362 42.8599 20.3055 42.8526 20.2727ZM17.4918 8.56958C16.8776 9.31812 16.5509 10.2519 16.5678 11.2099C16.5468 11.8327 16.5812 12.4561 16.6704 13.0731C16.1783 12.6318 15.7839 12.0971 15.5116 11.5019C15.2394 10.9068 15.0948 10.2637 15.087 9.61215C15.0646 9.37315 15.0962 9.13227 15.1794 8.90639C15.2627 8.6805 15.3956 8.47506 15.5689 8.30445C15.7422 8.13383 15.9517 8.00216 16.1827 7.91866C16.4137 7.83515 16.6607 7.80182 16.9063 7.82101C17.0602 7.81842 17.2119 7.85587 17.346 7.92948C17.6735 8.0879 17.7372 8.30198 17.4918 8.56958ZM30.0542 14.6002C29.5413 14.7808 29.4292 14.9727 29.5193 15.4915C29.5728 15.7884 29.6659 16.0774 29.756 16.4349C27.6832 15.5017 25.504 14.8114 23.2641 14.3783C25.3611 13.1959 29.0775 13.0503 31.0624 14.2991C30.7239 14.4004 30.3825 14.4868 30.0542 14.6002ZM42.5756 22.0881C42.2715 22.3259 42.0093 22.6105 41.7997 22.9308C41.5959 23.2368 41.3578 23.5197 41.0896 23.7743C40.9548 23.8928 40.8823 23.8928 40.8185 23.7115C40.7101 23.4061 40.5877 23.1014 40.458 22.801C40.4133 22.6619 40.3252 22.5399 40.206 22.4519C40.0867 22.3639 39.9423 22.3143 39.7927 22.31C39.4983 22.2947 39.2048 22.2647 38.9135 22.2201C38.5946 22.0921 38.3282 21.8649 38.1559 21.5739C37.9836 21.2829 37.915 20.9445 37.9609 20.6116C38.0613 20.6359 38.1654 20.6559 38.2658 20.683C39.4949 20.987 40.7758 21.0371 42.0261 20.83C42.2329 20.8035 42.4322 20.737 42.6122 20.6345C42.5902 20.8985 42.5829 21.2053 42.569 21.5022C42.5551 21.6992 42.5631 21.9004 42.5756 22.0881Z" fill="white"/>
</g>
<defs>
<clipPath id="clip0_3807_1106">
<rect width="222" height="50" fill="white"/>
</clipPath>
</defs>
</svg>
