<svg width="32" height="32" viewBox="0 0 32 32" fill="none" xmlns="http://www.w3.org/2000/svg">
<path d="M30.656 13.3127H28.2736C27.957 11.8591 27.3833 10.4737 26.5796 9.22188L28.2645 7.53698C28.7893 7.01257 28.7895 6.16196 28.2651 5.63722C28.2649 5.63703 28.2647 5.63683 28.2645 5.63657L26.3641 3.73616C25.8397 3.21136 24.9891 3.2111 24.4643 3.73551C24.4641 3.73571 24.4639 3.7359 24.4637 3.73616L22.7781 5.42041C21.5263 4.61642 20.141 4.04251 18.6873 3.72571V1.344C18.6877 0.602122 18.0866 0.000391837 17.3447 0C17.3445 0 17.3442 0 17.344 0H14.656C13.9141 0 13.3127 0.601469 13.3127 1.34335V1.344V3.72637C11.8588 4.04421 10.4735 4.61923 9.22188 5.42433L7.53698 3.73943C7.01257 3.21463 6.16196 3.21437 5.63722 3.73878C5.63703 3.73897 5.63683 3.73917 5.63657 3.73943L3.73616 5.63984C3.21136 6.16424 3.2111 7.01486 3.73551 7.53959L3.73616 7.54024L5.42041 9.22188C4.61642 10.4737 4.04251 11.859 3.72571 13.3127H1.344C0.602122 13.3123 0.000391837 13.9134 0 14.6553V14.656V17.344C0 18.0859 0.601404 18.6873 1.34335 18.6873H1.344H3.72637C4.04421 20.1412 4.61923 21.5265 5.42433 22.7781L3.73943 24.463C3.21463 24.9874 3.21437 25.838 3.73878 26.3628C3.73897 26.363 3.73917 26.3632 3.73943 26.3634L5.63984 28.2638C6.16424 28.7886 7.01486 28.7889 7.53959 28.2645C7.53979 28.2643 7.53998 28.2641 7.54024 28.2638L9.22514 26.5789C10.4769 27.3829 11.8623 27.9568 13.3159 28.2736V30.656C13.3155 31.3969 13.9151 31.9982 14.656 32H17.344C18.0859 32 18.6873 31.3985 18.6873 30.6567C18.6873 30.6565 18.6873 30.6562 18.6873 30.656V28.2736C20.1409 27.957 21.5263 27.3833 22.7781 26.5796L24.463 28.2645C24.9874 28.7893 25.838 28.7895 26.3628 28.2651C26.363 28.2649 26.3632 28.2647 26.3634 28.2645L28.2638 26.3641C28.7886 25.8397 28.7889 24.9891 28.2645 24.4643C28.2643 24.4641 28.2641 24.4639 28.2638 24.4637L26.5796 22.7781C27.3836 21.5263 27.9575 20.141 28.2743 18.6873H30.6567C31.3986 18.6873 32 18.0859 32 17.344V14.656C32 13.9141 31.3985 13.3127 30.6567 13.3127C30.6565 13.3127 30.6562 13.3127 30.656 13.3127ZM16 25.3283C10.8481 25.3316 6.66906 21.1577 6.6658 16.0059C6.66253 10.854 10.8364 6.67494 15.9882 6.67167C21.1401 6.66841 25.3192 10.8423 25.3224 15.9941V16C25.3243 21.1501 21.1508 25.3265 16.0007 25.3283C16.0005 25.3283 16.0002 25.3283 16 25.3283Z" fill="#315D80"/>
<path d="M20.5844 17.6898C19.0791 19.1919 16.4545 19.011 14.7226 17.279C12.9906 15.5471 12.8065 12.9225 14.3118 11.4172C15.2319 10.4977 16.5694 10.2084 17.8664 10.5179C18.1564 10.5862 18.3361 10.8766 18.268 11.1665C18.245 11.2642 18.1953 11.3534 18.1243 11.4244L16.4662 13.0825C16.1391 13.4099 16.1391 13.9404 16.4662 14.2678L17.7338 15.5354C18.0612 15.8625 18.5917 15.8625 18.9191 15.5354L20.5772 13.8773C20.7871 13.6657 21.1286 13.6644 21.3401 13.8742C21.4122 13.9458 21.4627 14.0363 21.4857 14.1352C21.7932 15.4322 21.5039 16.7697 20.5844 17.6898Z" fill="#315D80"/>
<path d="M15.6144 17.9867L12.2596 21.3415C11.9123 21.6894 11.3487 21.6898 11.0008 21.3424C11.0004 21.3421 11.0001 21.3418 10.9999 21.3415L10.6596 21.0012C10.3117 20.6539 10.3113 20.0903 10.6587 19.7424C10.659 19.7421 10.6594 19.7418 10.6596 19.7415L14.0144 16.3867C14.4218 17.0327 14.9684 17.5793 15.6144 17.9867Z" fill="#315D80"/>
</svg>
