<svg width="28" height="28" viewBox="0 0 28 28" fill="none" xmlns="http://www.w3.org/2000/svg">
<path d="M26.824 11.6486H24.7394C24.4624 10.3767 23.9604 9.16451 23.2571 8.06914L24.7314 6.59486C25.1906 6.136 25.1909 5.39171 24.732 4.93257C24.7318 4.9324 24.7317 4.93223 24.7314 4.932L23.0686 3.26914C22.6097 2.80994 21.8654 2.80971 21.4063 3.26857C21.4061 3.26874 21.4059 3.26891 21.4057 3.26914L19.9309 4.74286C18.8355 4.03937 17.6234 3.5372 16.3514 3.26V1.176C16.3518 0.526857 15.8258 0.000342857 15.1766 0C15.1764 0 15.1762 0 15.176 0H12.824C12.1748 0 11.6486 0.526286 11.6486 1.17543V1.176V3.26057C10.3765 3.53869 9.16429 4.04183 8.06914 4.74629L6.59486 3.272C6.136 2.8128 5.39171 2.81257 4.93257 3.27143C4.9324 3.2716 4.93223 3.27177 4.932 3.272L3.26914 4.93486C2.80994 5.39371 2.80971 6.138 3.26857 6.59714L3.26914 6.59771L4.74286 8.06914C4.03937 9.16446 3.5372 10.3766 3.26 11.6486H1.176C0.526857 11.6482 0.000342857 12.1742 0 12.8234V12.824V15.176C0 15.8252 0.526229 16.3514 1.17543 16.3514H1.176H3.26057C3.53869 17.6235 4.04183 18.8357 4.74629 19.9309L3.272 21.4051C2.8128 21.864 2.81257 22.6083 3.27143 23.0674C3.2716 23.0676 3.27177 23.0678 3.272 23.068L4.93486 24.7309C5.39371 25.1901 6.138 25.1903 6.59714 24.7314C6.59731 24.7313 6.59749 24.7311 6.59771 24.7309L8.072 23.2566C9.16731 23.9601 10.3795 24.4622 11.6514 24.7394V26.824C11.6511 27.4723 12.1757 27.9984 12.824 28H15.176C15.8252 28 16.3514 27.4737 16.3514 26.8246C16.3514 26.8244 16.3514 26.8242 16.3514 26.824V24.7394C17.6233 24.4624 18.8355 23.9604 19.9309 23.2571L21.4051 24.7314C21.864 25.1906 22.6083 25.1909 23.0674 24.732C23.0676 24.7318 23.0678 24.7317 23.068 24.7314L24.7309 23.0686C25.1901 22.6097 25.1903 21.8654 24.7314 21.4063C24.7313 21.4061 24.7311 21.4059 24.7309 21.4057L23.2571 19.9309C23.9606 18.8355 24.4628 17.6234 24.74 16.3514H26.8246C27.4738 16.3514 28 15.8251 28 15.176V12.824C28 12.1748 27.4737 11.6486 26.8246 11.6486C26.8244 11.6486 26.8242 11.6486 26.824 11.6486ZM14 22.1623C9.49211 22.1651 5.83543 18.513 5.83257 14.0051C5.82971 9.49726 9.48183 5.84057 13.9897 5.83771C18.4976 5.83486 22.1543 9.48697 22.1571 13.9949V14C22.1587 18.5063 18.5069 22.1607 14.0006 22.1623C14.0004 22.1623 14.0002 22.1623 14 22.1623Z" fill="#C9D7E5"/>
<path d="M18.0128 15.4776C16.6957 16.7919 14.3991 16.6336 12.8837 15.1182C11.3683 13.6028 11.2071 11.3062 12.5243 9.98905C13.3294 9.18448 14.4997 8.93134 15.6346 9.20219C15.8883 9.26191 16.0456 9.51602 15.9859 9.76974C15.9658 9.85516 15.9223 9.93328 15.8603 9.99534L14.4094 11.4462C14.1232 11.7326 14.1232 12.1969 14.4094 12.4833L15.5186 13.5925C15.805 13.8787 16.2692 13.8787 16.5557 13.5925L18.0066 12.1416C18.1902 11.9565 18.489 11.9554 18.674 12.139C18.7371 12.2016 18.7813 12.2808 18.8014 12.3673C19.0706 13.5022 18.8174 14.6725 18.0128 15.4776Z" fill="#C9D7E5"/>
<path d="M13.6655 15.7398L10.7301 18.6753C10.4261 18.9797 9.93301 18.98 9.62861 18.6761C9.62832 18.6758 9.62803 18.6755 9.62781 18.6753L9.33009 18.3776C9.02569 18.0736 9.02535 17.5805 9.32929 17.2761C9.32958 17.2758 9.32986 17.2755 9.33009 17.2753L12.2655 14.3398C12.622 14.905 13.1003 15.3834 13.6655 15.7398Z" fill="#C9D7E5"/>
</svg>
