<svg width="28" height="18" viewBox="0 0 28 18" fill="none" xmlns="http://www.w3.org/2000/svg">
<path fill-rule="evenodd" clip-rule="evenodd" d="M0 8.75C0 8.28587 0.184374 7.84075 0.512563 7.51256C0.840752 7.18437 1.28587 7 1.75 7H22.0359C22.5 7 22.9451 7.18437 23.2733 7.51256C23.6015 7.84075 23.7859 8.28587 23.7859 8.75C23.7859 9.21413 23.6015 9.65925 23.2733 9.98744C22.9451 10.3156 22.5 10.5 22.0359 10.5H1.75C1.28587 10.5 0.840752 10.3156 0.512563 9.98744C0.184374 9.65925 0 9.21413 0 8.75ZM0 1.75C0 1.28587 0.184374 0.840752 0.512563 0.512563C0.840752 0.184374 1.28587 0 1.75 0H26.25C26.7141 0 27.1593 0.184374 27.4874 0.512563C27.8156 0.840752 28 1.28587 28 1.75C28 2.21413 27.8156 2.65925 27.4874 2.98744C27.1593 3.31563 26.7141 3.5 26.25 3.5H1.75C1.28587 3.5 0.840752 3.31563 0.512563 2.98744C0.184374 2.65925 0 2.21413 0 1.75ZM0 15.75C0 15.2859 0.184374 14.8408 0.512563 14.5126C0.840752 14.1844 1.28587 14 1.75 14H19.3249C19.789 14 20.2341 14.1844 20.5623 14.5126C20.8905 14.8408 21.0749 15.2859 21.0749 15.75C21.0749 16.2141 20.8905 16.6592 20.5623 16.9874C20.2341 17.3156 19.789 17.5 19.3249 17.5H1.75C1.28587 17.5 0.840752 17.3156 0.512563 16.9874C0.184374 16.6592 0 16.2141 0 15.75Z" fill="white"/>
</svg>
