<svg width="34" height="40" viewBox="0 0 34 40" fill="none" xmlns="http://www.w3.org/2000/svg">
<path d="M33.8934 16.1076C33.8891 15.9115 33.825 15.7213 33.7096 15.5619L33.6512 15.4677C33.3167 14.9475 32.9203 14.469 32.4705 14.0424C31.7561 13.381 30.9815 12.7864 30.1566 12.2661C29.5879 11.8851 29.1532 11.395 29.0646 10.7059C28.9964 10.1582 28.7128 9.65915 28.2753 9.31697C25.7563 7.18578 22.9992 5.34686 20.0578 3.83609C19.9924 3.81435 19.9343 3.77534 19.8897 3.72329C19.8452 3.67124 19.8158 3.60812 19.8048 3.54076C20.0177 3.48808 20.2347 3.45301 20.4535 3.43589C20.5336 3.43589 20.6136 3.43589 20.6957 3.43589C21.443 3.89301 22.1589 4.39847 22.8388 4.94896C22.6408 4.35985 22.2687 3.84316 21.7705 3.46585C22.203 3.50865 22.6571 3.57928 23.1004 3.64348H23.1285C23.3794 3.81255 23.6346 3.9752 23.8789 4.14641C24.8199 4.79768 25.7238 5.50001 26.5864 6.25016C26.2923 5.30897 25.7469 4.46382 25.0077 3.80399C25.1829 3.92384 25.3646 4.03299 25.5354 4.16567C26.211 4.67687 26.8095 5.28075 27.313 5.9591C26.8805 4.247 25.5073 2.78101 23.8941 2.00628C23.1514 1.62174 22.3652 1.32576 21.5521 1.12455C22.8804 1.27443 24.1929 1.53866 25.4748 1.91426C22.8697 0.455648 19.8814 -0.193831 16.8984 0.0502054C13.9102 0.293786 11.0756 1.46352 8.79773 3.39309C4.50876 6.29532 1.51487 10.7217 0.438354 15.752C-0.638159 20.7824 0.28552 26.0299 3.0174 30.4037C3.08011 30.5149 3.14715 30.6177 3.21634 30.729C5.33637 33.9954 8.36284 36.5879 11.9333 38.1959L12.0025 38.2451L11.9787 38.2173C14.5911 39.391 17.4267 39.9988 20.2957 40C21.0187 39.9934 21.7407 39.9456 22.4582 39.8566L22.4409 39.8694C22.4409 39.8694 24.199 39.7154 24.9991 39.358C24.9991 39.358 25.2975 34.0526 23.8313 32.0558V32.0922C23.2321 30.8887 22.4406 29.7888 21.4872 28.8349C21.4764 28.8242 21.4526 28.8349 21.4245 28.82C22.5447 31.8354 22.9534 34.8808 22.0235 38.0075C22.0366 36.5516 21.7573 35.1076 21.2018 33.7594C20.6652 32.4752 20.007 31.2441 19.2361 30.0826C18.1959 28.4647 17.1211 26.8724 16.174 25.1946C14.9132 22.9603 13.8753 20.6404 13.3108 18.1322C13.2159 17.8111 13.2272 17.4683 13.3433 17.1541C14.0937 18.6522 14.7402 20.1674 15.9037 21.3766C17.0671 22.5858 18.4662 23.429 19.98 24.1288C18.25 21.7468 16.6367 19.3156 15.6658 16.5228C16.1537 16.9186 16.6026 17.3593 17.0065 17.839C18.3581 19.397 20.0708 20.4499 21.9175 21.3231L21.9521 21.276C21.8094 21.1219 21.6667 20.9657 21.5196 20.8159C20.0791 19.3728 18.8313 17.7531 17.8067 15.9963C17.7699 15.9321 17.7029 15.8743 17.7223 15.7823C17.785 15.8101 17.8326 15.8294 17.8802 15.8529C18.5271 16.2301 19.1292 16.6781 19.675 17.1884C20.0502 17.5269 20.469 17.8148 20.9206 18.0444C20.9985 18.0829 21.0742 18.1407 21.1564 18.0294C21.2385 17.9181 21.2104 17.8625 21.1455 17.7748C20.8817 17.4088 20.6287 17.0343 20.3584 16.6726C20.2546 16.5292 20.3216 16.495 20.4514 16.4821C20.5306 16.4793 20.6096 16.4921 20.6838 16.5196C20.7581 16.5472 20.826 16.589 20.8839 16.6426C21.3843 17.0313 21.9348 17.3523 22.5209 17.5971C23.4537 18.0008 24.4064 18.358 25.3754 18.6672C25.7906 18.8127 25.8208 18.9711 25.5419 19.3092C25.1907 19.7235 24.9161 20.1959 24.7309 20.7046C24.4477 21.4836 24.5342 22.2027 25.1224 22.8447C25.4459 23.1729 25.8327 23.4334 26.2598 23.6109C26.4761 23.7093 26.6923 23.7971 26.9432 23.8998L26.608 24.0988C25.9401 24.4564 25.3353 24.919 24.8174 25.4685C24.6119 25.6793 24.4489 25.927 24.3374 26.1983C24.272 26.3433 24.2596 26.5062 24.3022 26.6592C24.3448 26.8122 24.4398 26.9459 24.5709 27.0372C24.7221 27.1506 24.8879 27.2434 25.064 27.3133C26.3127 27.8047 27.6567 28.0138 28.9975 27.9254C29.2173 27.9167 29.4326 27.8607 29.6283 27.7612C29.824 27.6618 29.9954 27.5214 30.1307 27.3497C30.7619 26.6098 31.2422 25.7558 31.5449 24.835C31.6531 24.5162 31.7482 24.193 31.8326 23.8698C31.9428 23.4675 31.8326 23.3027 31.413 23.2642C31.0645 23.2613 30.7175 23.3104 30.3837 23.4097C30.0402 23.5101 29.6726 23.4942 29.3392 23.3648C29.8766 22.9099 30.538 22.6225 31.24 22.5387C31.9666 22.4595 32.5116 22.1727 32.8576 21.5136C33.2131 20.8714 33.498 20.1934 33.7074 19.4911C33.8691 18.9399 33.9478 18.368 33.941 17.794C33.9746 17.5707 33.9941 17.3456 33.9994 17.1199C34.0049 16.8156 33.9744 16.5118 33.9085 16.2146L33.8934 16.1076ZM5.09122 12.7818C5.16907 12.6106 5.25125 12.4394 5.33342 12.2682C5.33342 12.5742 5.35288 12.8803 5.38532 13.182C5.40262 13.3511 5.43073 13.5159 5.45452 13.6828C5.41179 13.6933 5.37331 13.7165 5.34423 13.7492C4.92499 14.1243 4.53466 14.5299 4.17649 14.9626C4.47059 14.2293 4.7755 13.5023 5.09122 12.7818ZM15.7026 38.5597C14.5305 37.6052 13.4103 36.5908 12.2426 35.6234C12.0977 35.5036 11.955 35.3795 11.8101 35.2596C10.8447 34.1808 9.96823 33.0271 9.18914 31.8097C9.5697 32.8142 10.0784 33.7664 10.7029 34.6433C10.6531 34.6582 11.8685 36.2334 11.8187 36.2698C11.8187 36.2698 10.3677 35.0049 10.4045 35.1826C8.82368 33.1238 7.52835 30.8552 5.99298 28.6359C6.44643 30.1787 7.06252 31.67 7.83109 33.0852C7.3986 32.5145 6.98845 31.9231 6.60064 31.3111C5.381 29.2951 4.43815 27.1036 3.57316 24.8329C3.89104 27.4995 4.6544 30.2003 6.18112 32.5374C6.62334 33.2139 7.11481 33.8577 7.65161 34.4635C6.28785 33.3039 5.09226 31.9637 4.09864 30.4807C3.86293 30.0056 3.63803 29.5262 3.43043 29.0404C2.78889 27.5585 2.2823 26.023 1.91669 24.452C1.84227 24.8762 1.80106 25.3055 1.79343 25.736C0.938192 23.1277 0.673875 20.365 1.01926 17.6442C0.97268 19.3284 1.2192 21.0079 1.74802 22.6093C1.87344 22.0507 2.01184 21.505 2.15673 20.97C1.76099 17.8646 2.32973 14.6116 3.88672 11.9215C3.00419 15.7416 2.77033 19.6805 3.19472 23.5766C3.60358 25.1265 4.27558 26.5963 5.18205 27.9233C4.6736 26.2321 4.26634 24.5127 3.9624 22.7741C4.01233 22.8331 4.05925 22.8945 4.10297 22.9581C4.01096 22.424 4.04126 21.8762 4.19163 21.3552C4.21758 21.4815 4.23488 21.5692 4.25434 21.6527C4.36246 22.1192 4.38409 22.6029 4.55493 23.0523C5.41992 25.3444 6.74769 27.3732 8.31765 29.2437C8.48849 29.4577 8.67663 29.6375 8.84963 29.8387L9.03993 30.0527C11.875 33.2907 15.0689 36.1713 18.3127 38.9984C18.3127 38.9984 18.3278 39.0198 18.3365 39.0262C17.4487 38.9307 16.5687 38.7748 15.7026 38.5597ZM15.3436 32.4796C14.71 31.7477 14.1131 30.9943 13.5141 30.2432C13.9118 30.9907 14.368 31.7063 14.8786 32.3833C15.2744 32.7407 15.6809 33.0852 16.1069 33.4063C16.4551 33.8129 16.7989 34.2216 17.1752 34.609C17.2579 34.669 17.321 34.7515 17.3569 34.8466C17.2466 34.8209 17.1406 34.7845 17.0433 34.7524C18.0785 35.7037 19.2431 36.5069 20.5033 37.1386C19.2152 36.9037 17.987 36.418 16.8901 35.7097C15.7932 35.0014 14.8492 34.0846 14.1131 33.0125C13.8125 32.8134 13.5055 32.6273 13.2092 32.4218C12.3468 31.4121 11.5432 30.3546 10.8024 29.2544C9.27391 26.9953 8.02583 24.5623 7.08504 22.0079C7.40535 24.7565 8.37427 27.392 9.91357 29.7017C9.0574 28.8544 8.31728 27.8996 7.71216 26.8617C7.69486 26.8318 7.68189 26.7997 7.66459 26.7697C7.15363 25.5169 6.73376 24.2295 6.40818 22.9175C5.79784 20.4239 5.54451 17.8577 5.65563 15.2943C5.64888 15.3133 5.6431 15.3326 5.63833 15.3521C5.61238 15.1809 5.61238 15.0054 5.59508 14.8321C5.25913 15.9956 5.05888 17.1933 4.99824 18.4018C4.88002 17.4858 4.79785 16.5584 4.75171 15.6196C4.95282 15.1403 5.1561 14.663 5.33991 14.1772C5.39356 14.0486 5.43765 13.9163 5.47182 13.7813C5.82075 15.8005 6.59432 17.7246 7.74243 19.4291C7.13694 17.2889 6.59199 15.198 6.37574 13.0879C6.27047 12.0674 6.256 11.0398 6.33249 10.0168C6.96674 8.42739 7.99706 7.02266 9.32754 5.93342C8.46627 7.49545 7.71483 9.11437 7.07855 10.7787C8.13911 8.99136 9.31808 7.27551 10.6077 5.64236L10.9883 5.28282C11.0099 5.27724 11.0327 5.27769 11.0541 5.28411C11.0754 5.29053 11.0946 5.30268 11.1094 5.3192C10.8716 5.44547 10.8153 5.68303 10.705 5.87778C10.3205 6.48808 10.0099 7.14103 9.7795 7.82316C9.46495 9.03629 9.54054 10.3163 9.99575 11.4849C10.4342 12.6184 11.0077 13.6961 11.7041 14.6951C11.7495 14.7657 11.7928 14.8385 11.8533 14.9391C11.1879 14.7937 10.5777 14.4651 10.0931 13.991C9.53869 12.9567 9.14225 11.8467 8.91667 10.6973C8.8641 12.0049 9.1705 13.3021 9.80329 14.4511C9.88647 14.9031 9.99696 15.3498 10.1341 15.7887C10.5212 17.0343 11.0748 18.2135 11.5376 19.4269C11.6049 19.547 11.6419 19.6813 11.6457 19.8186C10.962 19.2545 10.3692 18.5906 9.88762 17.8497C9.43942 17.1493 9.04336 16.4176 8.70258 15.6603C8.28417 14.2545 7.95127 12.8252 7.70567 11.3801C7.22776 15.4784 8.57067 19.8122 11.2219 23.0245C11.2143 23.3323 11.2251 23.6403 11.2543 23.9469C11.2716 24.1224 11.3019 24.2936 11.3278 24.4669C10.3219 23.1278 9.40179 21.7275 8.57283 20.2744C9.03035 22.757 10.2278 25.0474 12.0112 26.851C12.0523 26.9516 12.089 27.0651 12.1366 27.1549C12.2209 27.3411 12.3161 27.5209 12.4048 27.705C12.4048 27.645 12.4048 27.583 12.4048 27.523C12.4675 27.7371 12.5518 27.9318 12.621 28.1394C13.3859 29.6692 14.2976 31.1226 15.3436 32.4796ZM13.8298 6.70173C13.2784 7.30738 13.153 8.05215 13.0989 8.82045C13.082 9.32124 13.1095 9.82252 13.1811 10.3185C12.7916 9.96393 12.4795 9.53415 12.2642 9.05567C12.0489 8.57718 11.9348 8.06014 11.929 7.53638C11.9031 6.50484 12.6167 6.12175 13.3671 6.09607C13.4882 6.09485 13.6075 6.12511 13.7131 6.18382C13.9812 6.31864 14.0309 6.48985 13.8298 6.70173ZM23.7773 11.5491C23.3729 11.6925 23.2821 11.8487 23.3448 12.2661C23.388 12.5036 23.4616 12.7369 23.5329 13.0237C21.8949 12.2723 20.1722 11.7169 18.4013 11.3693C20.06 10.417 23.001 10.2993 24.5688 11.3051C24.3028 11.3886 24.0325 11.4571 23.7773 11.5491ZM33.675 17.5757C33.4344 17.7682 33.227 17.9981 33.0608 18.2563C32.8997 18.5013 32.7118 18.728 32.5008 18.9326C32.3948 19.0289 32.3364 19.0289 32.2845 18.8812C32.198 18.6372 32.1007 18.3933 31.9991 18.1493C31.9634 18.0379 31.8937 17.9403 31.7995 17.8698C31.7054 17.7992 31.5916 17.7593 31.4736 17.7555C31.2396 17.7431 31.0065 17.7188 30.7751 17.6827C30.3426 17.6121 29.9469 16.9294 30.0226 16.3987L30.2647 16.4522C31.2364 16.6986 32.2497 16.7387 33.2382 16.5699C33.4009 16.5495 33.5576 16.4963 33.6988 16.4136C33.6815 16.6276 33.6772 16.8738 33.6642 17.1113C33.662 17.2547 33.6663 17.4152 33.675 17.5757Z" fill="white"/>
</svg>
