<svg width="390" height="151" viewBox="0 0 390 151" fill="none" xmlns="http://www.w3.org/2000/svg">
<g filter="url(#filter0_di_6384_9233)">
<path d="M-65 67.5C-65 35.7436 -39.2564 10 -7.5 10H396.5C428.256 10 454 35.7436 454 67.5C454 99.2564 428.256 125 396.5 125H361.808C353.91 125 346.173 122.768 339.489 118.561C332.805 114.353 325.068 112.121 317.17 112.121H63.0313C55.9989 112.121 49.1521 114.378 43.4985 118.561C37.8448 122.743 30.998 125 23.9656 125H-7.5C-39.2564 125 -65 99.2564 -65 67.5Z" fill="#315D80"/>
</g>
<defs>
<filter id="filter0_di_6384_9233" x="-86.9" y="-7.9" width="562.8" height="158.8" filterUnits="userSpaceOnUse" color-interpolation-filters="sRGB">
<feFlood flood-opacity="0" result="BackgroundImageFix"/>
<feColorMatrix in="SourceAlpha" type="matrix" values="0 0 0 0 0 0 0 0 0 0 0 0 0 0 0 0 0 0 127 0" result="hardAlpha"/>
<feOffset dy="4"/>
<feGaussianBlur stdDeviation="10.95"/>
<feComposite in2="hardAlpha" operator="out"/>
<feColorMatrix type="matrix" values="0 0 0 0 0.234896 0 0 0 0 0.332874 0 0 0 0 0.5125 0 0 0 0.3 0"/>
<feBlend mode="normal" in2="BackgroundImageFix" result="effect1_dropShadow_6384_9233"/>
<feBlend mode="normal" in="SourceGraphic" in2="effect1_dropShadow_6384_9233" result="shape"/>
<feColorMatrix in="SourceAlpha" type="matrix" values="0 0 0 0 0 0 0 0 0 0 0 0 0 0 0 0 0 0 127 0" result="hardAlpha"/>
<feOffset dy="-2"/>
<feGaussianBlur stdDeviation="5"/>
<feComposite in2="hardAlpha" operator="arithmetic" k2="-1" k3="1"/>
<feColorMatrix type="matrix" values="0 0 0 0 0.301389 0 0 0 0 0.493232 0 0 0 0 0.645833 0 0 0 1 0"/>
<feBlend mode="normal" in2="shape" result="effect2_innerShadow_6384_9233"/>
</filter>
</defs>
</svg>
