<svg width="20" height="17" viewBox="0 0 20 17" fill="none" xmlns="http://www.w3.org/2000/svg">
<path d="M4.505 4.47406C4.74656 4.47406 4.97822 4.3799 5.14903 4.21228C5.31984 4.04467 5.41579 3.81733 5.41579 3.58029V3.05296L8.03888 5.62703C8.55121 6.12916 9.24568 6.4112 9.96977 6.4112C10.6939 6.4112 11.3883 6.12916 11.9007 5.62703L16.0812 1.5246C16.2508 1.35714 16.3461 1.13061 16.3461 0.89449C16.3461 0.658367 16.2508 0.431838 16.0812 0.264377C15.9965 0.180605 15.8958 0.114113 15.7848 0.0687376C15.6738 0.0233617 15.5548 0 15.4345 0C15.3143 0 15.1953 0.0233617 15.0843 0.0687376C14.9733 0.114113 14.8725 0.180605 14.7879 0.264377L10.6164 4.35787C10.5318 4.44164 10.431 4.50814 10.32 4.55351C10.209 4.59889 10.09 4.62225 9.96977 4.62225C9.84953 4.62225 9.73048 4.59889 9.6195 4.55351C9.50851 4.50814 9.40777 4.44164 9.3231 4.35787L6.70002 1.79273H7.23738C7.47894 1.79273 7.71061 1.69857 7.88141 1.53095C8.05222 1.36334 8.14818 1.136 8.14818 0.898959C8.14818 0.661914 8.05222 0.434579 7.88141 0.266963C7.71061 0.0993478 7.47894 0.00518242 7.23738 0.00518242H4.505C4.32622 0.0053254 4.15143 0.0570983 4.00243 0.154048C3.85343 0.250998 3.73679 0.388837 3.66707 0.550386C3.62118 0.661202 3.59648 0.779363 3.59421 0.898959V3.58029C3.59421 3.81733 3.69017 4.04467 3.86097 4.21228C4.03178 4.3799 4.26344 4.47406 4.505 4.47406ZM19.0231 11.0523C16.4295 9.08819 13.2458 8.02287 9.96977 8.02287C6.69373 8.02287 3.51003 9.08819 0.916471 11.0523C0.642905 11.2687 0.419983 11.5403 0.262832 11.8488C0.105681 12.1572 0.0179793 12.4952 0.00567693 12.8398C-0.0181073 13.1802 0.033028 13.5215 0.15561 13.8408C0.278191 14.16 0.469348 14.4496 0.716097 14.6899L2.31909 16.2987C2.72872 16.7005 3.2706 16.9463 3.8479 16.9922C4.4252 17.038 5.00031 16.8809 5.47044 16.549L5.89852 16.263C6.19 16.0784 6.49435 15.9141 6.80931 15.7714C7.19647 15.6036 7.50511 15.299 7.67386 14.9181C7.84262 14.5372 7.85912 14.108 7.7201 13.7157L7.63813 13.5012C9.1976 13.1081 10.833 13.1081 12.3925 13.5012L12.3105 13.7157C12.1715 14.108 12.188 14.5372 12.3567 14.9181C12.5255 15.299 12.8341 15.6036 13.2213 15.7714C13.5363 15.9141 13.8406 16.0784 14.1321 16.263L14.5602 16.549C14.9667 16.8418 15.4585 16.9985 15.9628 16.9959C16.6179 16.9967 17.2467 16.7428 17.7115 16.2898L19.3601 14.6631C19.5909 14.4169 19.7663 14.1256 19.8746 13.8084C19.9829 13.4911 20.0217 13.1549 19.9885 12.8219C19.967 12.4761 19.8696 12.1389 19.703 11.8335C19.5364 11.528 19.3044 11.2616 19.0231 11.0523ZM17.9848 13.4118L16.3453 15.0296C16.2457 15.1314 16.113 15.1961 15.9701 15.2124C15.8271 15.2287 15.6829 15.1957 15.562 15.1189C15.389 14.9938 15.2159 14.8776 15.0247 14.7614C14.7039 14.5624 14.3725 14.3804 14.0319 14.2162L14.3962 13.242C14.4783 13.0192 14.4668 12.7735 14.3643 12.559C14.2618 12.3445 14.0768 12.1786 13.8498 12.098C11.3495 11.2045 8.60826 11.2045 6.108 12.098C5.881 12.1786 5.69592 12.3445 5.59345 12.559C5.49098 12.7735 5.47949 13.0192 5.56152 13.242L5.92584 14.2252C5.58057 14.3828 5.24592 14.5619 4.92397 14.7614L4.39571 15.1189C4.27459 15.2042 4.12552 15.2423 3.97741 15.2258C3.8293 15.2092 3.69273 15.1393 3.59421 15.0296L1.95478 13.4118C1.8957 13.3548 1.84908 13.2865 1.81776 13.2112C1.78645 13.136 1.77109 13.0552 1.77262 12.9739C1.78018 12.8821 1.80669 12.7927 1.85053 12.7113C1.89437 12.6299 1.95463 12.558 2.02764 12.5002C4.30396 10.7796 7.09648 9.84658 9.96977 9.84658C12.8431 9.84658 15.6356 10.7796 17.9119 12.5002C17.9849 12.558 18.0452 12.6299 18.089 12.7113C18.1328 12.7927 18.1594 12.8821 18.1669 12.9739C18.1684 13.0552 18.1531 13.136 18.1218 13.2112C18.0905 13.2865 18.0438 13.3548 17.9848 13.4118Z" fill="#EA4B61"/>
</svg>
