<svg width="11" height="11" viewBox="0 0 11 11" fill="none" xmlns="http://www.w3.org/2000/svg">
<path fill-rule="evenodd" clip-rule="evenodd" d="M5.5 0C6.17501 0 6.72222 0.547207 6.72222 1.22222V4.27778H9.77778C10.4528 4.27778 11 4.82499 11 5.5C11 6.17501 10.4528 6.72222 9.77778 6.72222H6.72222V9.77778C6.72222 10.4528 6.17501 11 5.5 11C4.82499 11 4.27778 10.4528 4.27778 9.77778V6.72222H1.22222C0.547207 6.72222 0 6.17501 0 5.5C0 4.82499 0.547207 4.27778 1.22222 4.27778H4.27778V1.22222C4.27778 0.547207 4.82499 0 5.5 0Z" fill="white"/>
</svg>
