<svg width="23" height="16" viewBox="0 0 23 16" fill="none" xmlns="http://www.w3.org/2000/svg">
<path d="M9.2 6.85706H5.86615L5.8673 6.84677C6.01746 6.11605 6.31135 5.42199 6.7321 4.80443C7.35822 3.88762 8.23647 3.16913 9.2621 2.73465C9.6094 2.58836 9.97165 2.47635 10.3408 2.40207C11.1066 2.24777 11.8957 2.24777 12.6615 2.40207C13.762 2.62618 14.7719 3.16713 15.5652 3.95754L17.1936 2.34378C16.4597 1.6142 15.5914 1.03178 14.6361 0.628296C14.1488 0.423295 13.6422 0.267088 13.1238 0.161996C12.0541 -0.0539986 10.9516 -0.0539986 9.88195 0.161996C9.36313 0.267524 8.85616 0.42411 8.36855 0.629439C6.93166 1.23529 5.70162 2.24102 4.82655 3.52553C4.23762 4.39167 3.82578 5.36443 3.61445 6.38847C3.58225 6.54277 3.565 6.70048 3.542 6.85706H0L4.6 11.4286L9.2 6.85706ZM13.8 9.14285H17.1339L17.1327 9.15199C16.8322 10.6169 15.9634 11.9053 14.7142 12.7384C14.093 13.1569 13.3946 13.449 12.6592 13.5978C11.8938 13.7521 11.105 13.7521 10.3397 13.5978C9.60438 13.4486 8.906 13.1565 8.2846 12.7384C7.97941 12.5332 7.69447 12.2998 7.4336 12.0412L5.8075 13.6573C6.54178 14.3867 7.41051 14.9687 8.36625 15.3716C8.85385 15.5773 9.3633 15.7339 9.8785 15.8379C10.9478 16.054 12.0499 16.054 13.1192 15.8379C15.1806 15.4127 16.9939 14.2052 18.1734 12.4721C18.7618 11.6066 19.1733 10.6346 19.3844 9.61143C19.4155 9.45714 19.4339 9.29942 19.4569 9.14285H23L18.4 4.57128L13.8 9.14285Z" fill="#315D80"/>
</svg>
