<svg width="28" height="28" viewBox="0 0 28 28" fill="none" xmlns="http://www.w3.org/2000/svg">
<g clip-path="url(#clip0_1460_6887)">
<path d="M27.9643 11.889C27.901 11.6484 27.7448 11.4428 27.53 11.3174L14.4662 3.85373C14.3231 3.7756 14.1626 3.73466 13.9996 3.73466C13.8365 3.73466 13.676 3.7756 13.5329 3.85373L0.47004 11.3203C0.255784 11.4452 0.0993578 11.6495 0.0346488 11.889C-0.0300603 12.1284 0.00215813 12.3837 0.124325 12.5996C0.2031 12.7293 0.312247 12.8378 0.442337 12.9158C0.572428 12.9938 0.719549 13.0389 0.870992 13.0473V27.0659C0.871745 27.3133 0.970321 27.5503 1.14519 27.7252C1.32006 27.9001 1.55702 27.9987 1.80433 27.9995H6.90433C6.66183 27.6426 6.5318 27.2212 6.53099 26.7897V23.2202C6.53006 22.8435 6.62862 22.4731 6.81671 22.1467C7.00273 21.8214 7.27194 21.5514 7.59671 21.3646L10.4872 19.6804C10.5962 19.6163 10.7201 19.5818 10.8465 19.5803C10.973 19.5788 11.0976 19.6103 11.2081 19.6718C11.7304 19.9564 12.2898 20.167 12.87 20.2976C13.0016 20.3287 13.1221 20.3951 13.2184 20.4899C13.3148 20.5846 13.3834 20.7039 13.4167 20.8349L14.0091 23.1326L14.6177 20.8235C14.6514 20.6947 14.7193 20.5774 14.8142 20.484C14.9091 20.3906 15.0274 20.3246 15.1567 20.2929C15.7273 20.1606 16.2774 19.9517 16.7919 19.6718C16.9027 19.6108 17.0274 19.5796 17.1539 19.5813C17.2798 19.5812 17.4036 19.614 17.5129 19.6765L20.4034 21.3608C20.7281 21.5476 20.9974 21.8175 21.1834 22.1428C21.3715 22.4693 21.47 22.8396 21.4691 23.2164V26.7868C21.4683 27.2183 21.3382 27.6397 21.0958 27.9966H26.2034C26.4506 27.9959 26.6874 27.8972 26.8622 27.7223C27.0369 27.5474 27.1353 27.3103 27.1358 27.0631V13.0569C27.2884 13.0486 27.4365 13.0025 27.5669 12.9227C27.6972 12.8428 27.8057 12.7318 27.8824 12.5996C28.0019 12.3827 28.0313 12.1274 27.9643 11.889ZM17.29 17.4189C16.8561 18.075 16.2373 18.5875 15.5119 18.8916C14.7879 19.1935 13.9901 19.2723 13.221 19.1179C12.4518 18.9634 11.7463 18.5828 11.1948 18.0247C10.78 17.6052 10.4627 17.0995 10.2653 16.5436C10.0679 15.9876 9.9953 15.395 10.0527 14.8078C10.11 14.2206 10.2959 13.6532 10.5972 13.146C10.8984 12.6387 11.3076 12.204 11.7958 11.8728C12.5563 11.359 13.4727 11.1276 14.3859 11.2188C15.2992 11.31 16.1517 11.7179 16.7958 12.3719C17.4455 13.0286 17.8493 13.8891 17.9394 14.8085C18.0294 15.728 17.8001 16.6505 17.29 17.4208V17.4189ZM27.9672 8.15475C27.9348 8.03642 27.8798 7.92548 27.8053 7.82801C27.7302 7.73042 27.6367 7.64853 27.53 7.587L26.0834 6.76585C26.1089 6.69037 26.1245 6.61193 26.13 6.53246V1.86468C26.2551 1.86868 26.3796 1.8475 26.4963 1.8024C26.6129 1.75731 26.7193 1.68922 26.8092 1.60219C26.899 1.51515 26.9705 1.41093 27.0193 1.29573C27.068 1.18054 27.0932 1.05671 27.0932 0.931601C27.0932 0.806495 27.068 0.682665 27.0193 0.567469C26.9705 0.452272 26.899 0.348059 26.8092 0.261019C26.7193 0.17398 26.6129 0.10589 26.4963 0.0607968C26.3796 0.0157035 26.2551 -0.00547262 26.13 -0.00147676H20.531C20.2887 0.00626643 20.059 0.107964 19.8904 0.282105C19.7218 0.456246 19.6275 0.68917 19.6275 0.931601C19.6275 1.17403 19.7218 1.40696 19.8904 1.5811C20.059 1.75524 20.2887 1.85694 20.531 1.86468V3.59652L14.4662 0.120457C14.3231 0.0423325 14.1626 0.00139257 13.9996 0.00139257C13.8365 0.00139257 13.676 0.0423325 13.5329 0.120457L0.47004 7.587C0.25471 7.71067 0.0973146 7.91483 0.0324806 8.15458C-0.0323534 8.39433 0.000684012 8.65001 0.124325 8.86539C0.247967 9.08078 0.452084 9.23821 0.691774 9.30306C0.931463 9.36791 1.18709 9.33486 1.40242 9.21119L13.9996 2.00567L26.5967 9.21119C26.7035 9.27243 26.8213 9.31223 26.9434 9.32836C27.0651 9.34362 27.1886 9.33521 27.3072 9.30359C27.426 9.27138 27.5374 9.21602 27.6348 9.1407C27.8311 8.98886 27.9594 8.76563 27.9919 8.5196C28.0076 8.39753 27.9992 8.27359 27.9672 8.15475Z" fill="#C9D7E5"/>
</g>
<defs>
<clipPath id="clip0_1460_6887">
<rect width="28" height="28" fill="white"/>
</clipPath>
</defs>
</svg>
