<svg width="28" height="28" viewBox="0 0 28 28" fill="none" xmlns="http://www.w3.org/2000/svg">
<g clip-path="url(#clip0_6384_8334)">
<path d="M27.9648 11.8909C27.9015 11.6504 27.7453 11.4448 27.5305 11.3194L14.4667 3.85568C14.3236 3.77756 14.1631 3.73662 14.0001 3.73662C13.837 3.73662 13.6765 3.77756 13.5334 3.85568L0.470528 11.3222C0.256272 11.4471 0.0998461 11.6515 0.0351371 11.8909C-0.029572 12.1304 0.00264641 12.3857 0.124814 12.6016C0.203588 12.7312 0.312736 12.8397 0.442826 12.9177C0.572916 12.9957 0.720037 13.0409 0.87148 13.0493V27.0679C0.872234 27.3152 0.97081 27.5522 1.14568 27.7272C1.32055 27.9021 1.55751 28.0007 1.80481 28.0014H6.90481C6.66232 27.6445 6.53229 27.2231 6.53148 26.7916V23.2222C6.53055 22.8454 6.62911 22.4751 6.8172 22.1486C7.00322 21.8233 7.27243 21.5534 7.5972 21.3665L10.4877 19.6823C10.5967 19.6183 10.7206 19.5838 10.847 19.5823C10.9734 19.5808 11.0981 19.6123 11.2086 19.6737C11.7309 19.9583 12.2903 20.169 12.8705 20.2996C13.002 20.3306 13.1225 20.3971 13.2189 20.4918C13.3153 20.5865 13.3839 20.7059 13.4172 20.8369L14.0096 23.1346L14.6181 20.8254C14.6519 20.6966 14.7198 20.5793 14.8147 20.4859C14.9096 20.3925 15.0279 20.3265 15.1572 20.2948C15.7278 20.1626 16.2779 19.9537 16.7924 19.6737C16.9032 19.6127 17.0279 19.5815 17.1543 19.5832C17.2803 19.5831 17.4041 19.616 17.5134 19.6785L20.4039 21.3627C20.7286 21.5496 20.9978 21.8195 21.1839 22.1448C21.3719 22.4713 21.4705 22.8416 21.4696 23.2184V26.7888C21.4688 27.2203 21.3387 27.6417 21.0962 27.9986H26.2039C26.4511 27.9978 26.6879 27.8992 26.8627 27.7242C27.0374 27.5493 27.1357 27.3123 27.1362 27.065V13.0588C27.2889 13.0506 27.437 13.0044 27.5674 12.9246C27.6977 12.8448 27.8062 12.7338 27.8829 12.6016C28.0024 12.3846 28.0318 12.1294 27.9648 11.8909ZM17.2905 17.4208C16.8566 18.0769 16.2378 18.5895 15.5124 18.8935C14.7883 19.1955 13.9906 19.2743 13.2215 19.1198C12.4523 18.9654 11.7468 18.5847 11.1953 18.0267C10.7805 17.6072 10.4632 17.1015 10.2658 16.5455C10.0684 15.9895 9.99578 15.3969 10.0531 14.8097C10.1105 14.2225 10.2964 13.6551 10.5977 13.1479C10.8989 12.6407 11.3081 12.206 11.7962 11.8747C12.5568 11.3609 13.4732 11.1296 14.3864 11.2208C15.2996 11.3119 16.1522 11.7199 16.7962 12.3739C17.446 13.0306 17.8498 13.891 17.9399 14.8105C18.0299 15.73 17.8006 16.6525 17.2905 17.4227V17.4208ZM27.9677 8.1567C27.9352 8.03838 27.8803 7.92743 27.8058 7.82996C27.7307 7.73237 27.6372 7.65048 27.5305 7.58895L26.0839 6.7678C26.1093 6.69232 26.125 6.61389 26.1305 6.53441V1.86663C26.2555 1.87063 26.3801 1.84945 26.4968 1.80436C26.6134 1.75926 26.7198 1.69118 26.8097 1.60414C26.8995 1.5171 26.971 1.41288 27.0197 1.29769C27.0685 1.18249 27.0937 1.05866 27.0937 0.933554C27.0937 0.808448 27.0685 0.684619 27.0197 0.569422C26.971 0.454225 26.8995 0.350012 26.8097 0.262973C26.7198 0.175933 26.6134 0.107843 26.4968 0.06275C26.3801 0.0176566 26.2555 -0.00351949 26.1305 0.000476363H20.5315C20.2892 0.00821956 20.0595 0.109917 19.8909 0.284058C19.7222 0.458199 19.628 0.691123 19.628 0.933554C19.628 1.17599 19.7222 1.40891 19.8909 1.58305C20.0595 1.75719 20.2892 1.85889 20.5315 1.86663V3.59847L14.4667 0.12241C14.3236 0.0442856 14.1631 0.0033457 14.0001 0.0033457C13.837 0.0033457 13.6765 0.0442856 13.5334 0.12241L0.470528 7.58895C0.255198 7.71262 0.0978029 7.91679 0.0329689 8.15653C-0.0318651 8.39628 0.00117229 8.65197 0.124814 8.86735C0.248455 9.08273 0.452573 9.24016 0.692262 9.30501C0.931951 9.36986 1.18758 9.33682 1.40291 9.21315L14.0001 2.00762L26.5972 9.21315C26.704 9.27438 26.8218 9.31418 26.9439 9.33032C27.0656 9.34558 27.1891 9.33716 27.3077 9.30555C27.4265 9.27333 27.5379 9.21797 27.6353 9.14265C27.8316 8.99082 27.9599 8.76758 27.9924 8.52155C28.0081 8.39948 27.9996 8.27554 27.9677 8.1567Z" fill="#F1D15B"/>
</g>
<defs>
<clipPath id="clip0_6384_8334">
<rect width="28" height="28" fill="white"/>
</clipPath>
</defs>
</svg>
