<svg width="24" height="24" viewBox="0 0 24 24" fill="none" xmlns="http://www.w3.org/2000/svg">
<path d="M3.5 15C3.89782 15 4.27936 15.158 4.56066 15.4393C4.84196 15.7206 5 16.1022 5 16.5V19H8.5C8.89782 19 9.27936 19.158 9.56066 19.4393C9.84196 19.7206 10 20.1022 10 20.5C10 20.8978 9.84196 21.2794 9.56066 21.5607C9.27936 21.842 8.89782 22 8.5 22H4.5C3.83696 22 3.20107 21.7366 2.73223 21.2678C2.26339 20.7989 2 20.163 2 19.5V16.5C2 16.1022 2.15804 15.7206 2.43934 15.4393C2.72064 15.158 3.10218 15 3.5 15ZM19.5 15C19.8729 15 20.2324 15.1389 20.5084 15.3896C20.7844 15.6403 20.9572 15.9848 20.993 16.356L21 16.5V19.5C21.0001 20.1347 20.7588 20.7457 20.325 21.209C19.8912 21.6724 19.2973 21.9534 18.664 21.995L18.5 22H14.5C14.1148 21.9998 13.7444 21.8514 13.4656 21.5856C13.1868 21.3198 13.021 20.9569 13.0025 20.5721C12.984 20.1873 13.1142 19.8102 13.3662 19.5188C13.6182 19.2274 13.9726 19.0442 14.356 19.007L14.5 19H18V16.5C18 16.1022 18.158 15.7206 18.4393 15.4393C18.7206 15.158 19.1022 15 19.5 15ZM19.5 11C19.8852 11.0002 20.2556 11.1486 20.5344 11.4144C20.8132 11.6802 20.979 12.0431 20.9975 12.4279C21.016 12.8127 20.8858 13.1898 20.6338 13.4812C20.3818 13.7726 20.0274 13.9558 19.644 13.993L19.5 14H3.5C3.11478 13.9998 2.74441 13.8514 2.46561 13.5856C2.18682 13.3198 2.02099 12.9569 2.00248 12.5721C1.98396 12.1873 2.11419 11.8102 2.36618 11.5188C2.61816 11.2274 2.97258 11.0442 3.356 11.007L3.5 11H19.5ZM8.5 3C8.88522 3.00019 9.25559 3.14858 9.53439 3.41441C9.81318 3.68024 9.97901 4.04314 9.99752 4.42791C10.016 4.81269 9.88581 5.18983 9.63382 5.4812C9.38184 5.77257 9.02742 5.95583 8.644 5.993L8.5 6H5V8.5C4.99981 8.88522 4.85142 9.25559 4.58559 9.53439C4.31976 9.81318 3.95686 9.97901 3.57209 9.99752C3.18731 10.016 2.81017 9.88581 2.5188 9.63382C2.22743 9.38184 2.04417 9.02742 2.007 8.644L2 8.5V5.5C1.9999 4.86528 2.24123 4.25429 2.67504 3.79095C3.10885 3.32762 3.70265 3.04664 4.336 3.005L4.5 3H8.5ZM18.5 3C19.1347 2.9999 19.7457 3.24123 20.209 3.67504C20.6724 4.10885 20.9534 4.70265 20.995 5.336L21 5.5V8.5C20.9998 8.88522 20.8514 9.25559 20.5856 9.53439C20.3198 9.81318 19.9569 9.97901 19.5721 9.99752C19.1873 10.016 18.8102 9.88581 18.5188 9.63382C18.2274 9.38184 18.0442 9.02742 18.007 8.644L18 8.5V6H14.5C14.1148 5.99981 13.7444 5.85142 13.4656 5.58559C13.1868 5.31976 13.021 4.95686 13.0025 4.57209C12.984 4.18731 13.1142 3.81017 13.3662 3.5188C13.6182 3.22743 13.9726 3.04417 14.356 3.007L14.5 3H18.5Z" fill="white"/>
</svg>
