<svg width="29" height="30" viewBox="0 0 29 30" fill="none" xmlns="http://www.w3.org/2000/svg">
<path d="M5.15625 17.6591C5.91014 17.3741 6.29903 17.537 9.3288 17.4902C10.0126 17.4902 10.636 17.7534 11.1035 18.1834C11.5711 17.7534 12.1944 17.4902 12.8782 17.4902H16.1257C16.8095 17.4902 17.4328 17.7534 17.9004 18.1833C18.368 17.7533 18.9913 17.4902 19.6751 17.4902C22.71 17.5371 23.0959 17.375 23.8477 17.6591V12.1094H5.15625V17.6591Z" fill="#315D80"/>
<path d="M25.5449 15.793V21.0039H23.8457V20.1165C23.8457 19.6064 23.4307 19.1914 22.9206 19.1914H19.6732C19.1631 19.1914 18.748 19.6064 18.748 20.1165V21.0039H17.0488V20.1165C17.0488 19.6064 16.6338 19.1914 16.1237 19.1914H12.8763C12.3662 19.1914 11.9512 19.6064 11.9512 20.1165V21.0039H10.252V20.1165C10.252 19.6064 9.83695 19.1914 9.32684 19.1914H6.07941C5.5693 19.1914 5.1543 19.6064 5.1543 20.1165V21.0039H3.45508V15.793H0V26.1016H1.75586V29.5H4.30469L5.1543 26.1016H23.8422L24.6918 29.5H27.2406V26.1016H29C29 23.5365 29 17.8756 29 15.793H25.5449Z" fill="#315D80"/>
<path d="M25.5449 7.72168C25.5449 5.90561 24.2718 4.38232 22.5713 3.99478V0.5H20.8721V3.99478C19.1716 4.38232 17.8984 5.90561 17.8984 7.72168V8.99609H25.5449V7.72168Z" fill="#315D80"/>
<path d="M9.71094 0.5H14.2705V3.89951H9.71094V0.5Z" fill="#315D80"/>
<path d="M3.45312 0.5H8.0127V3.89951H3.45312V0.5Z" fill="#315D80"/>
<path d="M3.45312 5.59766H8.0127V8.99502H3.45312V5.59766Z" fill="#315D80"/>
<path d="M9.71094 5.59766H14.2705V8.99502H9.71094V5.59766Z" fill="#315D80"/>
</svg>
