<svg width="21" height="20" viewBox="0 0 21 20" fill="none" xmlns="http://www.w3.org/2000/svg">
<mask id="mask0_3256_6050" style="mask-type:luminance" maskUnits="userSpaceOnUse" x="0" y="0" width="21" height="20">
<path d="M0.339844 0H20.3398V20H0.339844V0Z" fill="white"/>
</mask>
<g mask="url(#mask0_3256_6050)">
<path d="M3.6668 18.3337C3.56013 18.3337 3.45347 18.2929 3.3718 18.212C3.2093 18.0495 3.2093 17.7854 3.3718 17.6229C3.88097 17.1129 3.6718 16.4945 3.28847 15.527C2.9318 14.627 2.48763 13.507 3.3718 12.6229C3.5343 12.4604 3.79847 12.4604 3.96097 12.6229C4.12347 12.7854 4.12347 13.0495 3.96097 13.212C3.48847 13.6845 3.69263 14.2829 4.06347 15.2195C4.42847 16.1412 4.88347 17.2887 3.96097 18.212C3.88013 18.2929 3.77347 18.3337 3.6668 18.3337Z" fill="#EB7C87"/>
<path d="M6.98711 18.3337C6.88045 18.3337 6.77378 18.2929 6.69211 18.212C6.52961 18.0495 6.52961 17.7854 6.69211 17.6229C7.20128 17.1129 6.99211 16.4945 6.60878 15.527C6.25211 14.627 5.80795 13.507 6.69211 12.6229C6.85461 12.4604 7.11878 12.4604 7.28128 12.6229C7.44378 12.7854 7.44378 13.0495 7.28128 13.212C6.80878 13.6845 7.01295 14.2829 7.38378 15.2195C7.74878 16.1412 8.20378 17.2887 7.28128 18.212C7.19961 18.2929 7.09295 18.3337 6.98711 18.3337Z" fill="#EB7C87"/>
<path d="M10.3074 18.3337C10.2008 18.3337 10.0941 18.2929 10.0124 18.212C9.84992 18.0495 9.84992 17.7854 10.0124 17.6229C10.5216 17.1129 10.3124 16.4945 9.92909 15.527C9.57242 14.627 9.12826 13.507 10.0124 12.6229C10.1749 12.4604 10.4391 12.4604 10.6016 12.6229C10.7641 12.7854 10.7641 13.0495 10.6016 13.212C10.1291 13.6845 10.3333 14.2829 10.7041 15.2195C11.0691 16.1412 11.5241 17.2887 10.6016 18.212C10.5208 18.2929 10.4141 18.3337 10.3074 18.3337Z" fill="#EB7C87"/>
<path d="M15.7565 18.3333C15.5265 18.3333 15.3398 18.1467 15.3398 17.9167V12.9167C15.3398 12.6867 15.5265 12.5 15.7565 12.5C15.9865 12.5 16.1732 12.6867 16.1732 12.9167V17.9167C16.1732 18.1467 15.9865 18.3333 15.7565 18.3333Z" fill="#EB7C87"/>
<path d="M13.593 17.0841C13.4497 17.0841 13.3088 17.0099 13.2322 16.8757C13.1163 16.6766 13.1847 16.4216 13.3847 16.3066L17.7138 13.8066C17.9113 13.6907 18.168 13.7582 18.283 13.9591C18.3988 14.1582 18.3305 14.4132 18.1305 14.5282L13.8013 17.0282C13.7355 17.0666 13.6638 17.0841 13.593 17.0841Z" fill="#EB7C87"/>
<path d="M17.9216 17.0841C17.8508 17.0841 17.7791 17.0666 17.7133 17.0283L13.3841 14.5283C13.185 14.4133 13.1166 14.1583 13.2316 13.9591C13.3466 13.7591 13.6008 13.6925 13.8008 13.8066L18.13 16.3066C18.3291 16.4216 18.3975 16.6766 18.2825 16.8758C18.205 17.01 18.065 17.0841 17.9216 17.0841Z" fill="#EB7C87"/>
<path d="M0.339844 8.33398V9.58398C0.339844 10.7323 1.27401 11.6673 2.42318 11.6673H18.2565C19.4057 11.6673 20.3398 10.7323 20.3398 9.58398V8.33398H0.339844ZM13.2565 10.0007H2.42318C2.19318 10.0007 2.00651 9.81398 2.00651 9.58398C2.00651 9.35398 2.19318 9.16732 2.42318 9.16732H13.2565C13.4865 9.16732 13.6732 9.35398 13.6732 9.58398C13.6732 9.81398 13.4865 10.0007 13.2565 10.0007ZM15.7565 10.0007H14.9232C14.6932 10.0007 14.5065 9.81398 14.5065 9.58398C14.5065 9.35398 14.6932 9.16732 14.9232 9.16732H15.7565C15.9865 9.16732 16.1732 9.35398 16.1732 9.58398C16.1732 9.81398 15.9865 10.0007 15.7565 10.0007ZM18.2565 10.0007H17.4232C17.1932 10.0007 17.0065 9.81398 17.0065 9.58398C17.0065 9.35398 17.1932 9.16732 17.4232 9.16732H18.2565C18.4865 9.16732 18.6732 9.35398 18.6732 9.58398C18.6732 9.81398 18.4865 10.0007 18.2565 10.0007Z" fill="#EB7C87"/>
<path d="M20.3398 7.50033V3.75033C20.3398 2.60199 19.4057 1.66699 18.2565 1.66699H2.42318C1.27401 1.66699 0.339844 2.60199 0.339844 3.75033V7.50033H20.3398Z" fill="#FFB6A3"/>
</g>
</svg>
