<svg width="20" height="21" viewBox="0 0 20 21" fill="none" xmlns="http://www.w3.org/2000/svg">
<path d="M15.3125 11.2305H4.6875C4.5125 11.2305 4.375 11.368 4.375 11.543V16.8555H15.625V11.543C15.625 11.368 15.4875 11.2305 15.3125 11.2305ZM13.125 13.1055C13.125 13.793 12.5625 14.3555 11.875 14.3555H8.125C7.4375 14.3555 6.875 13.793 6.875 13.1055V12.4805C6.875 12.1367 7.15625 11.8555 7.5 11.8555C7.84375 11.8555 8.125 12.1367 8.125 12.4805V13.1055H11.875V12.4805C11.875 12.1367 12.1562 11.8555 12.5 11.8555C12.8438 11.8555 13.125 12.1367 13.125 12.4805V13.1055Z" fill="#F2727F"/>
<path d="M0.625 16.8555H3.125V11.543C3.125 10.6805 3.825 9.98047 4.6875 9.98047H15.3125C16.175 9.98047 16.875 10.6805 16.875 11.543V16.8555H19.375V8.73047H0.625V16.8555Z" fill="#F1D15B"/>
<path d="M18.75 18.7305H18.125V18.1055H1.875V18.7305H1.25C0.90625 18.7305 0.625 19.0117 0.625 19.3555C0.625 19.6992 0.90625 19.9805 1.25 19.9805H18.75C19.0938 19.9805 19.375 19.6992 19.375 19.3555C19.375 19.0117 19.0938 18.7305 18.75 18.7305Z" fill="#F1D15B"/>
<path d="M0.625 4.35547V7.48047H19.375V4.35547H0.625ZM4.375 6.54297H3.75C3.40625 6.54297 3.125 6.26172 3.125 5.91797C3.125 5.57422 3.40625 5.29297 3.75 5.29297H4.375C4.71875 5.29297 5 5.57422 5 5.91797C5 6.26172 4.71875 6.54297 4.375 6.54297ZM6.875 6.54297H6.25C5.90625 6.54297 5.625 6.26172 5.625 5.91797C5.625 5.57422 5.90625 5.29297 6.25 5.29297H6.875C7.21875 5.29297 7.5 5.57422 7.5 5.91797C7.5 6.26172 7.21875 6.54297 6.875 6.54297ZM16.25 6.54297H12.5C12.1562 6.54297 11.875 6.26172 11.875 5.91797C11.875 5.57422 12.1562 5.29297 12.5 5.29297H16.25C16.5938 5.29297 16.875 5.57422 16.875 5.91797C16.875 6.26172 16.5938 6.54297 16.25 6.54297Z" fill="#F2727F"/>
<path d="M16.8555 1.70547C16.7867 1.43047 16.5367 1.23047 16.2492 1.23047H12.4992C12.2117 1.23047 11.9617 1.42422 11.893 1.70547L11.543 3.10547H17.2055L16.8555 1.70547Z" fill="#F2727F"/>
<path d="M8.10547 1.70547C8.03672 1.43047 7.78672 1.23047 7.49922 1.23047H3.74922C3.46172 1.23047 3.21172 1.42422 3.14297 1.70547L2.79297 3.10547H8.45547L8.10547 1.70547Z" fill="#F2727F"/>
</svg>
