<svg width="20" height="20" viewBox="0 0 20 20" fill="none" xmlns="http://www.w3.org/2000/svg">
<g clip-path="url(#clip0_3165_2861)">
<path d="M31.3895 10.832H29.1678C29.0145 10.832 28.89 10.9253 28.89 11.0404L28.8906 12.0816C28.8906 12.3121 28.6423 12.4987 28.335 12.4987C28.0284 12.4987 27.7795 12.3125 27.7795 12.0825L27.7789 11.0404C27.7789 10.9254 27.6545 10.832 27.5011 10.832H25.8345C25.6811 10.832 25.5567 10.9253 25.5567 11.0404L25.5572 12.9154C25.5572 13.1454 25.3089 13.332 25.0016 13.332C24.695 13.332 24.4461 13.1458 24.4461 12.9154L24.445 11.0404C24.445 10.9254 24.3206 10.832 24.1672 10.832H22.5005C22.3472 10.832 22.2227 10.9253 22.2227 11.0404L22.2233 12.082C22.2233 12.312 21.975 12.4987 21.6678 12.4987C21.3612 12.4987 21.1123 12.3124 21.1123 12.082L21.1117 11.0404C21.1117 10.9254 20.9873 10.832 20.8339 10.832H19.1673C19.014 10.832 18.8895 10.9253 18.8895 11.0404L18.8901 12.9154C18.8901 13.1454 18.6418 13.332 18.3345 13.332C18.0279 13.332 17.779 13.1458 17.779 12.9154L17.7784 11.0404C17.7784 10.9254 17.654 10.832 17.5006 10.832H15.834C15.6806 10.832 15.5562 10.9253 15.5562 11.0404L15.5567 12.082C15.5567 12.312 15.3084 12.4987 15.0012 12.4987C14.6946 12.4987 14.4457 12.3124 14.4457 12.082L14.4451 11.0404C14.4451 10.9254 14.3207 10.832 14.1673 10.832H12.5006C12.3473 10.832 12.2228 10.9253 12.2228 11.0404L12.2233 12.9154C12.2233 13.1454 11.975 13.332 11.6678 13.332C11.3612 13.332 11.1123 13.1458 11.1123 12.9154L11.1117 11.0404C11.1117 10.9254 10.9873 10.832 10.8339 10.832H9.16723C9.01391 10.832 8.88943 10.9253 8.88943 11.0404L8.88995 12.082C8.88995 12.312 8.64165 12.4987 8.33442 12.4987C8.02778 12.4987 7.77889 12.3124 7.77889 12.082L7.7783 11.0404C7.7783 10.9254 7.65389 10.832 7.5005 10.832H5.83384C5.68052 10.832 5.55604 10.9253 5.55604 11.0404L5.55663 12.9154C5.55663 13.1454 5.30832 13.332 5.00109 13.332C4.69445 13.332 4.44556 13.1458 4.44556 12.9154L4.44504 11.0404C4.44504 10.9254 4.32063 10.832 4.16724 10.832H2.50064C2.34732 10.832 2.22284 10.9253 2.22284 11.0404V12.082C2.22284 12.3124 1.97454 12.4987 1.66731 12.4987C1.36009 12.4987 1.11178 12.3124 1.11178 12.082V11.0404C1.11178 10.9254 0.987365 10.832 0.83398 10.832H-1.38822C-1.5416 10.832 -1.66602 10.9254 -1.66602 11.0404V16.457C-1.66602 16.572 -1.5416 16.6654 -1.38822 16.6654H31.3895C31.5428 16.6654 31.6673 16.5721 31.6673 16.457V11.0404C31.6673 10.9254 31.5428 10.832 31.3895 10.832Z" fill="#C06A87"/>
<path d="M19.8872 4.72547L17.4527 2.15419C17.3211 2.01533 17.105 1.96521 16.9126 2.02562C16.7202 2.08734 16.5918 2.24845 16.5918 2.42889V3.50028L3.40824 3.50028V2.42849C3.40824 2.24805 3.27975 2.08694 3.08736 2.02567C2.89491 1.9644 2.67941 2.01497 2.5473 2.15424L0.112756 4.72593C0.0377903 4.80522 0 4.9029 0 5.00018C0 5.09746 0.0377288 5.19519 0.112756 5.27489L2.5473 7.84617C2.64168 7.94561 2.77957 8 2.92114 8C2.97675 8 3.03286 7.99141 3.08687 7.97428C3.27932 7.91256 3.40775 7.75146 3.40775 7.57147V6.50008L16.5912 6.50008V7.57147C16.5912 7.75191 16.7197 7.91302 16.9121 7.97429C16.9661 7.99141 17.0222 8 17.0778 8C17.2194 8 17.3573 7.94556 17.4522 7.84617L19.8868 5.27489C19.9623 5.19519 20 5.09791 20 5.00018C20 4.90245 19.9622 4.80522 19.8872 4.72547Z" fill="#9BB997"/>
</g>
<defs>
<clipPath id="clip0_3165_2861">
<rect width="20" height="20" fill="white"/>
</clipPath>
</defs>
</svg>
