<svg width="22" height="20" viewBox="0 0 22 20" fill="none" xmlns="http://www.w3.org/2000/svg">
<path d="M0.166016 2.41667C0.166016 1.39529 0.166016 0.884606 0.483313 0.567298C0.800622 0.25 1.3113 0.25 2.33268 0.25H19.666C20.6874 0.25 21.1981 0.25 21.5154 0.567298C21.8327 0.884606 21.8327 1.39529 21.8327 2.41667C21.8327 3.43804 21.8327 3.94873 21.5154 4.26604C21.1981 4.58333 20.6874 4.58333 19.666 4.58333H2.33268C1.3113 4.58333 0.800622 4.58333 0.483313 4.26604C0.166016 3.94873 0.166016 3.43804 0.166016 2.41667Z" fill="#FFB6A3"/>
<path d="M19.7407 6.2081C19.8936 6.20816 20.0507 6.20822 20.2077 6.20605V11.083C20.2077 15.1686 20.2077 17.2113 18.9384 18.4805C17.6693 19.7497 15.6265 19.7497 11.541 19.7497H10.4577C6.37217 19.7497 4.32943 19.7497 3.06022 18.4805C1.79102 17.2113 1.79102 15.1686 1.79102 11.083V6.20605C1.94797 6.20822 2.10517 6.20816 2.25808 6.2081L10.1868 6.20808V13.299L8.35329 11.2617C8.05309 10.9282 7.53937 10.9011 7.20582 11.2013C6.87228 11.5015 6.84524 12.0152 7.14543 12.3488L10.3954 15.9599C10.5495 16.1312 10.769 16.2289 10.9993 16.2289C11.2297 16.2289 11.4491 16.1312 11.6033 15.9599L14.8533 12.3488C15.1535 12.0152 15.1264 11.5015 14.7929 11.2013C14.4593 10.9011 13.9456 10.9282 13.6454 11.2617L11.8118 13.299V6.20808L19.7407 6.2081Z" fill="#4D7EA5"/>
</svg>
