<svg width="20" height="21" viewBox="0 0 20 21" fill="none" xmlns="http://www.w3.org/2000/svg">
<path d="M7.26562 2.94922H12.7344C13.7052 2.94922 14.4922 2.16223 14.4922 1.19141C14.4922 0.867812 14.2298 0.605469 13.9062 0.605469H6.09375C5.77016 0.605469 5.50781 0.867812 5.50781 1.19141C5.50781 2.16223 6.2948 2.94922 7.26562 2.94922Z" fill="#C06A87"/>
<path d="M10 17.8711C9.67641 17.8711 9.41406 18.1334 9.41406 18.457V20.0195C9.41406 20.3431 9.67641 20.6055 10 20.6055C10.3236 20.6055 10.5859 20.3431 10.5859 20.0195V18.457C10.5859 18.1334 10.3236 17.8711 10 17.8711Z" fill="#4D7EA5"/>
<path d="M14.7112 19.6052C14.0707 18.9647 13.7109 18.0961 13.7109 17.1904V16.8945C13.7109 16.5709 13.4486 16.3086 13.125 16.3086C12.8014 16.3086 12.5391 16.5709 12.5391 16.8945V17.1904C12.5391 18.4069 13.0223 19.5736 13.8826 20.4338C14.1114 20.6627 14.4824 20.6627 14.7112 20.4338L14.7113 20.4338C14.94 20.205 14.94 19.834 14.7112 19.6052Z" fill="#4D7EA5"/>
<path d="M19.2152 19.481C17.7718 18.8624 16.8359 17.4431 16.8359 15.8727V15.332C16.8359 15.0084 16.5736 14.7461 16.25 14.7461C15.9264 14.7461 15.6641 15.0084 15.6641 15.332V15.8728C15.6641 17.9119 16.8793 19.7548 18.7536 20.5581C19.051 20.6855 19.3954 20.5478 19.5229 20.2504V20.2503C19.6504 19.9529 19.5127 19.6084 19.2152 19.481Z" fill="#4D7EA5"/>
<path d="M6.87499 16.3086H6.87495C6.55136 16.3086 6.28905 16.5709 6.28905 16.8945V17.1904C6.28905 18.0961 5.92925 18.9648 5.28882 19.6052L5.28878 19.6052C5.05999 19.834 5.05999 20.205 5.28878 20.4338L5.28882 20.4339C5.51761 20.6627 5.88862 20.6627 6.11741 20.4339C6.97761 19.5736 7.46089 18.4069 7.46089 17.1904V16.8945C7.46089 16.5709 7.19858 16.3086 6.87499 16.3086Z" fill="#4D7EA5"/>
<path d="M3.75014 14.7461C3.42654 14.7461 3.1642 15.0084 3.1642 15.332V15.8727C3.1642 17.4431 2.22834 18.8624 0.784942 19.4809C0.487521 19.6084 0.349747 19.9529 0.477208 20.2503L0.477247 20.2504C0.604708 20.5478 0.949161 20.6855 1.24658 20.5581C3.1208 19.7548 4.33604 17.9119 4.33604 15.8727V15.332C4.33604 15.0084 4.07373 14.7461 3.75014 14.7461Z" fill="#4D7EA5"/>
<path d="M7.65625 10.8398C7.65625 12.1322 8.70766 13.1836 10 13.1836C11.2923 13.1836 12.3438 12.1322 12.3438 10.8398V8.88672H7.65625V10.8398Z" fill="#C06A87"/>
<path d="M18.1571 8.23386L13.5156 8.71988V11.313L18.2437 11.5606C19.1985 11.6106 20 10.8499 20 9.89382C20 8.90328 19.1423 8.1307 18.1571 8.23386Z" fill="#C06A87"/>
<path d="M1.75633 11.5606L6.48438 11.3131V8.71992L1.84285 8.23386C0.857695 8.1307 0 8.90328 0 9.89382C0 10.8499 0.801563 11.6106 1.75633 11.5606Z" fill="#C06A87"/>
<path d="M9.41406 4.12109V6.54297C8.98258 6.54297 8.63281 6.89273 8.63281 7.32422V7.71484H11.3672V7.32422C11.3672 6.89273 11.0174 6.54297 10.5859 6.54297V4.12109H9.41406Z" fill="#C06A87"/>
<path d="M11.514 14.0117C11.055 14.2318 10.5414 14.3551 9.99933 14.3551C9.4573 14.3551 8.94363 14.2318 8.48469 14.0117L8.38246 14.8806C8.26859 15.8485 9.0248 16.6989 9.99933 16.6989C10.9739 16.6989 11.7301 15.8485 11.6162 14.8806L11.514 14.0117Z" fill="#4D7EA5"/>
</svg>
