<svg width="20" height="13" viewBox="0 0 20 13" fill="none" xmlns="http://www.w3.org/2000/svg">
<path d="M19.7379 8.98267L10.3263 1.89C10.1287 1.74109 9.8713 1.74109 9.67373 1.89L0.262101 8.98267C-0.00829063 9.18645 -0.0813886 9.59943 0.0988857 9.90508L1.07767 11.5647L9.67373 5.08662C9.87134 4.93776 10.1287 4.93776 10.3263 5.08662L18.9224 11.5647L19.9011 9.90508C20.0814 9.59943 20.0083 9.18641 19.7379 8.98267Z" fill="#6B5E7A"/>
<path d="M2.07031 12.4135H17.9273L9.99881 6.43848L2.07031 12.4135Z" fill="#6B5E7A"/>
<path d="M14.3148 1.33087H14.5109V3.44371L18.0403 6.1035V1.33087H18.2364C18.5612 1.33087 18.8246 1.03315 18.8246 0.665923C18.8246 0.298695 18.5612 0.000976562 18.2364 0.000976562H14.3148C13.9899 0.000976562 13.7266 0.298695 13.7266 0.665923C13.7266 1.03315 13.9899 1.33087 14.3148 1.33087Z" fill="#F2727F"/>
</svg>
