<svg width="18" height="17" viewBox="0 0 18 17" fill="none" xmlns="http://www.w3.org/2000/svg">
<path fill-rule="evenodd" clip-rule="evenodd" d="M15.7504 4.7779C15.3302 4.7779 14.99 4.4377 14.99 4.01758C14.99 3.59746 15.3302 3.25726 15.7504 3.25726C16.1701 3.25726 16.5103 3.59746 16.5103 4.01758C16.5103 4.4377 16.1701 4.7779 15.7504 4.7779ZM15.7504 6.95554C15.3302 6.95554 14.99 6.61534 14.99 6.19522C14.99 5.77546 15.3302 5.4349 15.7504 5.4349C16.1701 5.4349 16.5103 5.7751 16.5103 6.19522C16.5103 6.61498 16.1701 6.95554 15.7504 6.95554ZM14.99 10.4943C14.99 10.0746 15.3302 9.73402 15.7504 9.73402C16.1701 9.73402 16.5103 10.0742 16.5103 10.4943C16.5103 10.9141 16.1701 11.2547 15.7504 11.2547C15.3302 11.2547 14.99 10.9141 14.99 10.4943ZM14.99 12.672C14.99 12.2522 15.3302 11.9117 15.7504 11.9117C16.1701 11.9117 16.5103 12.2519 16.5103 12.672C16.5103 13.0917 16.1701 13.4323 15.7504 13.4323C15.3302 13.4319 14.99 13.0917 14.99 12.672ZM4.66236 8.72926C6.23808 8.72926 7.51608 10.0073 7.51608 11.583C7.51608 13.1587 6.23808 14.4367 4.66236 14.4367C3.08664 14.4367 1.80828 13.1591 1.80828 11.583C1.80828 10.0069 3.08628 8.72926 4.66236 8.72926ZM11.2126 8.72962C12.7886 8.72962 14.0663 10.0073 14.0663 11.5833C14.0663 13.1591 12.7886 14.4367 11.2126 14.4367C9.63684 14.4367 8.35884 13.1591 8.35884 11.5833C8.35884 10.0076 9.63684 8.72962 11.2126 8.72962ZM0 0.550781V16.5981H17.9986C18.0007 11.2493 18.0007 5.90002 17.9986 0.550781H0ZM8.35884 5.10622C8.35884 3.5305 9.63684 2.2525 11.2126 2.2525C12.7886 2.2525 14.0663 3.53014 14.0663 5.10622C14.0663 6.6823 12.7886 7.9603 11.2126 7.9603C9.63684 7.9603 8.35884 6.6823 8.35884 5.10622ZM4.66236 4.02442C5.25996 4.02442 5.74416 4.50898 5.74416 5.10658C5.74416 5.70418 5.2596 6.18874 4.66236 6.18874C4.06476 6.18874 3.5802 5.70418 3.5802 5.10658C3.57984 4.50862 4.06476 4.02442 4.66236 4.02442ZM4.66236 3.2749C3.65112 3.2749 2.83104 4.09498 2.83104 5.10622C2.83104 6.11746 3.65112 6.93754 4.66236 6.93754C5.67396 6.93754 6.49368 6.11746 6.49368 5.10622C6.49368 4.09498 5.6736 3.2749 4.66236 3.2749ZM10.1304 5.10622C10.1304 4.50862 10.615 4.02406 11.2126 4.02406C11.8102 4.02406 12.2947 4.50862 12.2947 5.10622C12.2947 5.70382 11.8102 6.18838 11.2126 6.18838C10.615 6.18838 10.1304 5.70418 10.1304 5.10622ZM11.2126 3.2749C10.2013 3.2749 9.3816 4.09498 9.3816 5.10622C9.3816 6.11746 10.2013 6.93754 11.2126 6.93754C12.2242 6.93754 13.0439 6.11746 13.0439 5.10622C13.0439 4.09498 12.2238 3.2749 11.2126 3.2749ZM10.1304 11.583C10.1304 10.985 10.615 10.5008 11.2126 10.5008C11.8102 10.5008 12.2947 10.9854 12.2947 11.583C12.2947 12.1806 11.8102 12.6651 11.2126 12.6651C10.615 12.6651 10.1304 12.1806 10.1304 11.583ZM11.2126 9.75202C10.201 9.75202 9.3816 10.5721 9.3816 11.5833C9.3816 12.5942 10.2017 13.4143 11.2126 13.4143C12.2238 13.4143 13.0439 12.5942 13.0439 11.5833C13.0439 10.5721 12.2242 9.75202 11.2126 9.75202ZM4.66236 10.5008C5.25996 10.5008 5.74416 10.9854 5.74416 11.583C5.74416 12.1806 5.2596 12.6651 4.66236 12.6651C4.06476 12.6651 3.5802 12.1806 3.5802 11.583C3.57984 10.9854 4.06476 10.5008 4.66236 10.5008ZM6.49332 11.583C6.49332 10.5717 5.6736 9.75166 4.662 9.75166C3.6504 9.75166 2.83068 10.5717 2.83068 11.583C2.83068 12.5942 3.65076 13.4143 4.662 13.4143C5.67324 13.4143 6.49332 12.5942 6.49332 11.583ZM4.66236 2.2525C6.23808 2.2525 7.51608 3.53014 7.51608 5.10622C7.51608 6.6823 6.23844 7.9603 4.66236 7.9603C3.08628 7.9603 1.80828 6.6823 1.80828 5.10622C1.80828 3.5305 3.08664 2.2525 4.66236 2.2525Z" fill="#6B5E7A"/>
<path d="M9.3816 5.10622C9.3816 4.09498 10.2013 3.2749 11.2126 3.2749C12.2238 3.2749 13.0439 4.09498 13.0439 5.10622C13.0439 6.11746 12.2242 6.93754 11.2126 6.93754C10.2013 6.93754 9.3816 6.11746 9.3816 5.10622Z" fill="#EA4B61"/>
<path d="M4.662 9.75166C5.6736 9.75166 6.49332 10.5717 6.49332 11.583C6.49332 12.5942 5.67324 13.4143 4.662 13.4143C3.65076 13.4143 2.83068 12.5942 2.83068 11.583C2.83068 10.5717 3.6504 9.75166 4.662 9.75166Z" fill="#EA4B61"/>
<path d="M9.3816 11.5833C9.3816 10.5721 10.201 9.75202 11.2126 9.75202C12.2242 9.75202 13.0439 10.5721 13.0439 11.5833C13.0439 12.5942 12.2238 13.4143 11.2126 13.4143C10.2017 13.4143 9.3816 12.5942 9.3816 11.5833Z" fill="#EA4B61"/>
<path d="M2.83203 5.10671C2.83203 4.09547 3.65211 3.27539 4.66335 3.27539C5.67459 3.27539 6.49467 4.09547 6.49467 5.10671C6.49467 6.11795 5.67495 6.93803 4.66335 6.93803C3.65211 6.93803 2.83203 6.11795 2.83203 5.10671Z" fill="#EA4B61"/>
</svg>
