<svg width="20" height="20" viewBox="0 0 20 20" fill="none" xmlns="http://www.w3.org/2000/svg">
<g clip-path="url(#clip0_3165_2891)">
<path fill-rule="evenodd" clip-rule="evenodd" d="M4.88281 0.000976562H15.1172C17.8066 0.000976562 20 2.19441 20 4.88379V15.1182C20 17.8075 17.8066 20.001 15.1172 20.001H4.88281C2.19344 20.001 0 17.8075 0 15.1182V4.88379C0 2.19441 2.19344 0.000976562 4.88281 0.000976562ZM14.9439 7.4375H8.35156C8.23139 7.43754 8.11239 7.46126 8.00139 7.5073C7.89038 7.55334 7.78953 7.6208 7.7046 7.70582C7.61966 7.79085 7.55232 7.89177 7.5064 8.00283C7.46048 8.11389 7.4369 8.23291 7.43699 8.35309V14.9448C7.4362 15.0655 7.45929 15.1851 7.50493 15.2969C7.55057 15.4086 7.61785 15.5102 7.70291 15.5958C7.78796 15.6814 7.88911 15.7493 8.00053 15.7957C8.11195 15.8421 8.23145 15.8659 8.35213 15.8659C8.47281 15.8659 8.5923 15.8421 8.70372 15.7957C8.81515 15.7493 8.9163 15.6814 9.00135 15.5958C9.08641 15.5102 9.15369 15.4086 9.19933 15.2969C9.24497 15.1851 9.26805 15.0655 9.26727 14.9448V9.26851H14.9439C15.1868 9.26851 15.4196 9.17206 15.5913 9.00037C15.763 8.82868 15.8595 8.59581 15.8595 8.35301C15.8595 8.1102 15.763 7.87734 15.5913 7.70565C15.4196 7.53396 15.1868 7.4375 14.9439 7.4375ZM4.14039 11.649C4.14197 11.8908 4.23914 12.1222 4.41069 12.2926C4.58224 12.463 4.81425 12.5587 5.05607 12.5587C5.2979 12.5587 5.5299 12.463 5.70146 12.2926C5.87301 12.1222 5.97018 11.8908 5.97176 11.649V5.97262H11.6484C11.7692 5.97341 11.8889 5.95031 12.0006 5.90465C12.1124 5.85899 12.214 5.79168 12.2997 5.70659C12.3853 5.6215 12.4533 5.5203 12.4997 5.40883C12.5461 5.29737 12.57 5.17782 12.57 5.05709C12.57 4.93636 12.5461 4.81681 12.4997 4.70534C12.4533 4.59388 12.3853 4.49268 12.2997 4.40759C12.214 4.3225 12.1124 4.25518 12.0006 4.20953C11.8889 4.16387 11.7692 4.14077 11.6484 4.14156H5.05605C4.81323 4.14161 4.58037 4.23809 4.40867 4.40978C4.23696 4.58148 4.14046 4.81433 4.14039 5.05715V11.649Z" fill="#4D7EA5"/>
</g>
<defs>
<clipPath id="clip0_3165_2891">
<rect width="20" height="20" fill="white" transform="translate(0 0.000976562)"/>
</clipPath>
</defs>
</svg>
