<svg width="20" height="20" viewBox="0 0 20 20" fill="none" xmlns="http://www.w3.org/2000/svg">
<path d="M4.46305 10.0031H15.5381C17.1256 9.36562 18.1068 8.44062 18.1068 7.39687C18.1306 6.64906 17.4284 5.99656 16.3975 5.54688H3.60055C2.56929 5.9925 1.86835 6.64906 1.89117 7.39687C1.89117 8.44062 2.87242 9.36562 4.46305 10.0031Z" fill="#9BB997"/>
<path d="M9.78399 3.27773C10.1027 3.27773 10.409 2.97461 10.5496 2.52148L10.9059 1.17773H8.86523L8.92461 1.90898C8.92461 2.66211 9.31836 3.27773 9.78399 3.27773Z" fill="#9BB997"/>
<path d="M11.45 1.94395L11.425 1.66895L11.1531 2.69395C10.9219 3.43457 10.3875 3.90332 9.78438 3.90332C8.96563 3.90332 8.3 3.02207 8.3 1.93457L8.25313 1.3252C8.22787 1.36602 8.21187 1.41189 8.20625 1.45957L7.875 4.92207H11.7344L11.45 1.94395Z" fill="#9BB997"/>
<path d="M10.3961 14.65C10.3967 14.7268 10.3745 14.802 10.3323 14.8661C10.2901 14.9303 10.2298 14.9804 10.1591 15.0102C10.0883 15.04 10.0103 15.0482 9.93492 15.0336C9.85955 15.019 9.79021 14.9823 9.7357 14.9282C9.6812 14.8742 9.64398 14.8051 9.62877 14.7299C9.61356 14.6546 9.62105 14.5766 9.65029 14.5056C9.67952 14.4346 9.72919 14.3739 9.79298 14.3312C9.85677 14.2884 9.93181 14.2656 10.0086 14.2656C10.1108 14.2656 10.2089 14.306 10.2815 14.378C10.3541 14.45 10.3953 14.5478 10.3961 14.65Z" fill="#C06A87"/>
<path d="M2.36328 13.2529V18.8217H17.6383V13.2529H2.36328ZM10.0102 15.6623C9.81037 15.662 9.61513 15.6025 9.44912 15.4913C9.28311 15.3801 9.15378 15.2222 9.07746 15.0375C9.00114 14.8529 8.98125 14.6497 9.0203 14.4538C9.05936 14.2578 9.15561 14.0778 9.2969 13.9365C9.43819 13.7952 9.61818 13.699 9.81414 13.6599C10.0101 13.6209 10.2132 13.6408 10.3979 13.7171C10.5826 13.7934 10.7405 13.9227 10.8517 14.0887C10.9629 14.2548 11.0224 14.45 11.0227 14.6498C11.0222 14.9182 10.9154 15.1754 10.7256 15.3652C10.5358 15.555 10.2786 15.6618 10.0102 15.6623Z" fill="#C06A87"/>
<path d="M19.3751 10.6279H0.625001C0.542121 10.6279 0.462635 10.6609 0.404029 10.7195C0.345424 10.7781 0.3125 10.8575 0.3125 10.9404V18.5092C0.3125 18.5921 0.345424 18.6715 0.404029 18.7302C0.462635 18.7888 0.542121 18.8217 0.625001 18.8217H1.7375V12.9404C1.73709 12.8993 1.74488 12.8585 1.76044 12.8203C1.776 12.7822 1.799 12.7476 1.8281 12.7185C1.8572 12.6894 1.89182 12.6664 1.92992 12.6509C1.96803 12.6353 2.00885 12.6275 2.05001 12.6279H17.9501C17.9912 12.6275 18.032 12.6353 18.0701 12.6509C18.1082 12.6664 18.1429 12.6894 18.172 12.7185C18.2011 12.7476 18.2241 12.7822 18.2396 12.8203C18.2552 12.8585 18.263 12.8993 18.2626 12.9404V18.8217H19.3751C19.4579 18.8217 19.5374 18.7888 19.596 18.7302C19.6546 18.6715 19.6876 18.5921 19.6876 18.5092V10.9404C19.6876 10.8575 19.6546 10.7781 19.596 10.7195C19.5374 10.6609 19.4579 10.6279 19.3751 10.6279Z" fill="#C06A87"/>
</svg>
