<svg width="20" height="21" viewBox="0 0 20 21" fill="none" xmlns="http://www.w3.org/2000/svg">
<g clip-path="url(#clip0_3256_5409)">
<path d="M6.50977 19.377H13.4907V20.9654H6.50977V19.377Z" fill="#4D7EA5"/>
<path d="M13.4907 15.8422V12.5889H12.1876V12.1302L13.2157 11.5796L12.6626 10.5466L12.1876 10.8009V9.75488H7.81285V10.8009L7.33785 10.5466L6.78473 11.5796L7.81285 12.1302V12.5889H6.50977V15.8422H13.4907ZM12.5889 14.3188C12.603 14.6352 12.3094 14.9047 12.0029 14.9047C11.6745 14.9047 11.4312 14.6362 11.417 14.3188C11.4028 14.0023 11.6964 13.7328 12.0029 13.7328C12.3314 13.7328 12.5746 14.0013 12.5889 14.3188ZM8.12367 13.7328C8.45215 13.7328 8.69539 14.0013 8.70961 14.3188C8.72379 14.6352 8.43016 14.9047 8.12367 14.9047C7.7952 14.9047 7.55195 14.6362 7.53773 14.3188C7.52356 14.0023 7.81719 13.7328 8.12367 13.7328Z" fill="#4D7EA5"/>
<path d="M14.6621 20.9667H19.9998V12.5898H14.6621V20.9667ZM17.0506 15.8041V17.3666H15.8787V15.8041H17.0506Z" fill="#6B5E7A"/>
<path d="M6.50977 17.0137H13.4907V18.205H6.50977V17.0137Z" fill="#4D7EA5"/>
<path d="M2.42188 12.5878V10.295C2.42188 10.0257 2.6409 9.80664 2.91016 9.80664C3.17941 9.80664 3.39848 10.0257 3.39848 10.295V10.9004H4.57035V10.295C4.57035 9.37949 3.82563 8.63477 2.91016 8.63477C1.99473 8.63477 1.25 9.37949 1.25 10.295V12.5878H0V20.9646H5.33766V12.5878H2.42188ZM3.1641 17.3645V15.802H4.33598V17.3645H3.1641Z" fill="#6B5E7A"/>
<path d="M0 0.97168H6.00168V5.17914H0V0.97168Z" fill="#4D7EA5"/>
<path d="M14.0898 0.97168H20.0008V5.17914H14.0898V0.97168Z" fill="#4D7EA5"/>
<path d="M7.17383 0.97168H12.9174V3.77234H7.17383V0.97168Z" fill="#6B5E7A"/>
<path d="M7.13379 4.94336L5.87891 8.00113H14.1195L12.9164 5.06938V4.94336H7.13379Z" fill="#6B5E7A"/>
</g>
<defs>
<clipPath id="clip0_3256_5409">
<rect width="20" height="20" fill="white" transform="translate(0 0.96875)"/>
</clipPath>
</defs>
</svg>
