<svg width="20" height="21" viewBox="0 0 20 21" fill="none" xmlns="http://www.w3.org/2000/svg">
<path d="M1.99219 17.207V18.3789C1.99219 18.7025 2.25453 18.9648 2.57812 18.9648H4.09293C4.36754 18.9648 4.60535 18.7741 4.66492 18.506L4.95359 17.207H1.99219Z" fill="#6B5E7A"/>
<path d="M1.21094 15.4492C1.21094 15.7728 1.47328 16.0352 1.79688 16.0352H10.4427C10.5011 15.1847 10.7582 14.388 11.168 13.6914H1.21094V15.4492Z" fill="#6B5E7A"/>
<path d="M15.8008 12.207C13.4853 12.207 11.6016 14.0908 11.6016 16.4062C11.6016 18.7217 13.4853 20.6055 15.8008 20.6055C18.1163 20.6055 20 18.7217 20 16.4062C20 14.0908 18.1163 12.207 15.8008 12.207ZM17.3633 16.9922H16.3867V17.9688C16.3867 18.2923 16.1244 18.5547 15.8008 18.5547C15.4772 18.5547 15.2148 18.2923 15.2148 17.9688V16.9922H14.2383C13.9147 16.9922 13.6523 16.7298 13.6523 16.4062C13.6523 16.0827 13.9147 15.8203 14.2383 15.8203H15.2148V14.8438C15.2148 14.5202 15.4772 14.2578 15.8008 14.2578C16.1244 14.2578 16.3867 14.5202 16.3867 14.8438V15.8203H17.3633C17.6869 15.8203 17.9492 16.0827 17.9492 16.4062C17.9492 16.7298 17.6869 16.9922 17.3633 16.9922Z" fill="#EA4B62"/>
<path d="M12.7344 7.24609C12.6267 7.24609 12.5391 7.33371 12.5391 7.44141V9.00391C12.5391 9.1116 12.6267 9.19922 12.7344 9.19922H15.0781C15.1858 9.19922 15.2734 9.1116 15.2734 9.00391V7.44141C15.2734 7.33371 15.1858 7.24609 15.0781 7.24609H12.7344Z" fill="#6B5E7A"/>
<path d="M4.92188 7.24609C4.81418 7.24609 4.72656 7.33371 4.72656 7.44141V9.00391C4.72656 9.1116 4.81418 9.19922 4.92188 9.19922H7.26562C7.37332 9.19922 7.46094 9.1116 7.46094 9.00391V7.44141C7.46094 7.33371 7.37332 7.24609 7.26562 7.24609H4.92188Z" fill="#6B5E7A"/>
<path d="M3.55469 9.00391V7.44141C3.55469 6.68754 4.16801 6.07422 4.92188 6.07422H7.26562C8.01949 6.07422 8.63281 6.68754 8.63281 7.44141V9.00391C8.63281 9.07023 8.62781 9.13539 8.61863 9.19922H11.3814C11.3722 9.13539 11.3672 9.07023 11.3672 9.00391V7.44141C11.3672 6.68754 11.9805 6.07422 12.7344 6.07422H15.0781C15.832 6.07422 16.4453 6.68754 16.4453 7.44141V9.00391C16.4453 9.07023 16.4403 9.13539 16.4311 9.19922H18.7891V8.61328C18.7891 6.10492 16.8877 4.03227 14.4507 3.76059C14.1817 1.97707 12.6386 0.605469 10.7812 0.605469H9.21875C7.36137 0.605469 5.81832 1.97707 5.54934 3.76059C3.1123 4.03227 1.21094 6.10492 1.21094 8.61328V9.19922H3.56887C3.55969 9.13539 3.55469 9.07023 3.55469 9.00391Z" fill="#6B5E7A"/>
<path d="M18.8281 10.3711H1.17188C0.524648 10.3711 0 10.8957 0 11.543V11.9336C0 12.2572 0.262344 12.5195 0.585938 12.5195H12.0974C13.0617 11.6003 14.3665 11.0352 15.8008 11.0352C17.2316 11.0352 18.5335 11.5976 19.4971 12.513C19.7813 12.4725 20 12.2289 20 11.9336V11.543C20 10.8957 19.4754 10.3711 18.8281 10.3711Z" fill="#6B5E7A"/>
</svg>
