<svg width="20" height="21" viewBox="0 0 20 21" fill="none" xmlns="http://www.w3.org/2000/svg">
<path d="M18.6661 0.96875H1.3327C0.966016 0.96875 0.666016 1.26875 0.666016 1.63544V4.30206H19.3327V1.63544C19.3327 1.26875 19.0328 0.96875 18.6661 0.96875ZM7.99939 3.30206H3.99939C3.6327 3.30206 3.3327 3.00206 3.3327 2.63538C3.3327 2.26869 3.6327 1.96869 3.99939 1.96869H7.99939C8.36608 1.96869 8.66608 2.26869 8.66608 2.63538C8.66608 3.00206 8.36608 3.30206 7.99939 3.30206ZM11.9994 3.30206H10.6661C10.2994 3.30206 9.99939 3.00206 9.99939 2.63538C9.99939 2.26869 10.2994 1.96869 10.6661 1.96869H11.9994C12.3661 1.96869 12.6661 2.26869 12.6661 2.63538C12.6661 3.00206 12.3661 3.30206 11.9994 3.30206ZM15.9994 3.30206H14.6661C14.2994 3.30206 13.9994 3.00206 13.9994 2.63538C13.9994 2.26869 14.2994 1.96869 14.6661 1.96869H15.9994C16.3661 1.96869 16.6661 2.26869 16.6661 2.63538C16.6661 3.00206 16.3661 3.30206 15.9994 3.30206Z" fill="#F1D15B"/>
<path d="M19.3325 5.63672V7.02341C18.5992 7.02341 18.1992 7.21672 17.8792 7.37003C17.6125 7.49672 17.4259 7.58334 16.9925 7.58334C16.5658 7.58334 16.3725 7.49666 16.1125 7.37003C15.7925 7.21672 15.3925 7.02341 14.6592 7.02341C13.9259 7.02341 13.5259 7.21672 13.2059 7.37003C12.9459 7.49672 12.7593 7.58334 12.3259 7.58334C11.8925 7.58334 11.7059 7.49666 11.4459 7.37003C11.1259 7.21672 10.7259 7.02341 9.99258 7.02341C9.25926 7.02341 8.85927 7.21672 8.53927 7.37003C8.27927 7.49672 8.09264 7.58334 7.65927 7.58334C7.23258 7.58334 7.04595 7.49666 6.78595 7.37003C6.46595 7.21672 6.06595 7.02341 5.33264 7.02341C4.59264 7.02341 4.19933 7.21672 3.87933 7.37003C3.61933 7.49672 3.4327 7.58334 2.99933 7.58334C2.56595 7.58334 2.37933 7.49666 2.11933 7.37003C1.79933 7.21672 1.39933 7.02341 0.666016 7.02341V5.63672H19.3325Z" fill="#3E6B8E"/>
<path d="M15 14.6345C14.4466 14.6345 14 14.1878 14 13.6345V11.9678H16V13.6345C16 14.1878 15.5534 14.6345 15 14.6345Z" fill="#3E6B8E"/>
<path d="M18.4525 8.5678C18.1325 8.72112 17.7325 8.91443 16.9925 8.91443C16.2592 8.91443 15.8592 8.72112 15.5392 8.5678C15.2792 8.44112 15.0926 8.35449 14.6592 8.35449C14.2258 8.35449 14.0392 8.44118 13.7792 8.5678C13.4592 8.72112 13.0592 8.91443 12.3259 8.91443C11.5926 8.91443 11.1926 8.72112 10.8726 8.5678C10.6126 8.44112 10.426 8.35449 9.99258 8.35449C9.5592 8.35449 9.37258 8.44118 9.11258 8.5678C8.79258 8.72112 8.39258 8.91443 7.65927 8.91443C6.92595 8.91443 6.52595 8.72112 6.20595 8.5678C5.94595 8.44112 5.75933 8.35449 5.33264 8.35449C4.89927 8.35449 4.71264 8.44118 4.45264 8.5678C4.13264 8.72112 3.73264 8.91443 2.99933 8.91443C2.26602 8.91443 1.86602 8.72112 1.54602 8.5678C1.28602 8.44112 1.09939 8.35449 0.666016 8.35449V20.3011C0.666016 20.6678 0.966016 20.9678 1.3327 20.9678H18.6659C19.0326 20.9678 19.3326 20.6678 19.3326 20.3011V8.35449C18.8992 8.35449 18.7125 8.44118 18.4525 8.5678ZM7.33252 19.3011C4.7592 19.3011 2.66583 17.2078 2.66583 14.6344C2.66583 12.0611 4.75914 9.96774 7.33252 9.96774C9.90589 9.96774 11.9992 12.0611 11.9992 14.6344C11.9992 17.2078 9.90589 19.3011 7.33252 19.3011ZM17.3325 13.6344C17.3325 14.6878 16.6258 15.5811 15.6658 15.8677V17.9677H15.9991C16.3658 17.9677 16.6658 18.2677 16.6658 18.6344C16.6658 19.0011 16.3658 19.3011 15.9991 19.3011H13.9991C13.6325 19.3011 13.3325 19.0011 13.3325 18.6344C13.3325 18.2677 13.6325 17.9677 13.9991 17.9677H14.3325V15.8677C13.3725 15.5811 12.6658 14.6877 12.6658 13.6344V11.3011C12.6658 10.9344 12.9658 10.6344 13.3325 10.6344H16.6658C17.0325 10.6344 17.3325 10.9344 17.3325 11.3011L17.3325 13.6344Z" fill="#3E6B8E"/>
<path d="M7.33312 17.97C9.17396 17.97 10.6663 16.4777 10.6663 14.6368C10.6663 12.796 9.17396 11.3037 7.33312 11.3037C5.49229 11.3037 4 12.796 4 14.6368C4 16.4777 5.49229 17.97 7.33312 17.97Z" fill="#3E6B8E"/>
</svg>
