<svg width="20" height="21" viewBox="0 0 20 21" fill="none" xmlns="http://www.w3.org/2000/svg">
<g clip-path="url(#clip0_3256_5560)">
<path d="M18.6661 0.0898438H1.3327C0.966016 0.0898438 0.666016 0.389844 0.666016 0.756531V3.42316H19.3327V0.756531C19.3327 0.389844 19.0328 0.0898438 18.6661 0.0898438ZM7.99939 2.42316H3.99939C3.6327 2.42316 3.3327 2.12316 3.3327 1.75647C3.3327 1.38978 3.6327 1.08978 3.99939 1.08978H7.99939C8.36608 1.08978 8.66608 1.38978 8.66608 1.75647C8.66608 2.12316 8.36608 2.42316 7.99939 2.42316ZM11.9994 2.42316H10.6661C10.2994 2.42316 9.99939 2.12316 9.99939 1.75647C9.99939 1.38978 10.2994 1.08978 10.6661 1.08978H11.9994C12.3661 1.08978 12.6661 1.38978 12.6661 1.75647C12.6661 2.12316 12.3661 2.42316 11.9994 2.42316ZM15.9994 2.42316H14.6661C14.2994 2.42316 13.9994 2.12316 13.9994 1.75647C13.9994 1.38978 14.2994 1.08978 14.6661 1.08978H15.9994C16.3661 1.08978 16.6661 1.38978 16.6661 1.75647C16.6661 2.12316 16.3661 2.42316 15.9994 2.42316Z" fill="#F1D15B"/>
<path d="M19.3325 4.75781V6.1445C18.5992 6.1445 18.1992 6.33781 17.8792 6.49112C17.6125 6.61781 17.4259 6.70444 16.9925 6.70444C16.5658 6.70444 16.3725 6.61775 16.1125 6.49112C15.7925 6.33781 15.3925 6.1445 14.6592 6.1445C13.9259 6.1445 13.5259 6.33781 13.2059 6.49112C12.9459 6.61781 12.7593 6.70444 12.3259 6.70444C11.8925 6.70444 11.7059 6.61775 11.4459 6.49112C11.1259 6.33781 10.7259 6.1445 9.99258 6.1445C9.25926 6.1445 8.85927 6.33781 8.53927 6.49112C8.27927 6.61781 8.09264 6.70444 7.65927 6.70444C7.23258 6.70444 7.04595 6.61775 6.78595 6.49112C6.46595 6.33781 6.06595 6.1445 5.33264 6.1445C4.59264 6.1445 4.19933 6.33781 3.87933 6.49112C3.61933 6.61781 3.4327 6.70444 2.99933 6.70444C2.56595 6.70444 2.37933 6.61775 2.11933 6.49112C1.79933 6.33781 1.39933 6.1445 0.666016 6.1445V4.75781H19.3325Z" fill="#3E6B8E"/>
<path d="M15 13.7556C14.4466 13.7556 14 13.3089 14 12.7556V11.0889H16V12.7556C16 13.3089 15.5534 13.7556 15 13.7556Z" fill="#3E6B8E"/>
<path d="M18.4525 7.6889C18.1325 7.84221 17.7325 8.03552 16.9925 8.03552C16.2592 8.03552 15.8592 7.84221 15.5392 7.6889C15.2792 7.56221 15.0926 7.47559 14.6592 7.47559C14.2258 7.47559 14.0392 7.56227 13.7792 7.6889C13.4592 7.84221 13.0592 8.03552 12.3259 8.03552C11.5926 8.03552 11.1926 7.84221 10.8726 7.6889C10.6126 7.56221 10.426 7.47559 9.99258 7.47559C9.5592 7.47559 9.37258 7.56227 9.11258 7.6889C8.79258 7.84221 8.39258 8.03552 7.65927 8.03552C6.92595 8.03552 6.52595 7.84221 6.20595 7.6889C5.94595 7.56221 5.75933 7.47559 5.33264 7.47559C4.89927 7.47559 4.71264 7.56227 4.45264 7.6889C4.13264 7.84221 3.73264 8.03552 2.99933 8.03552C2.26602 8.03552 1.86602 7.84221 1.54602 7.6889C1.28602 7.56221 1.09939 7.47559 0.666016 7.47559V19.4222C0.666016 19.7889 0.966016 20.0889 1.3327 20.0889H18.6659C19.0326 20.0889 19.3326 19.7889 19.3326 19.4222V7.47559C18.8992 7.47559 18.7125 7.56227 18.4525 7.6889ZM7.33252 18.4222C4.7592 18.4222 2.66583 16.3289 2.66583 13.7555C2.66583 11.1821 4.75914 9.08884 7.33252 9.08884C9.90589 9.08884 11.9992 11.1821 11.9992 13.7555C11.9992 16.3289 9.90589 18.4222 7.33252 18.4222ZM17.3325 12.7555C17.3325 13.8089 16.6258 14.7021 15.6658 14.9888V17.0888H15.9991C16.3658 17.0888 16.6658 17.3888 16.6658 17.7555C16.6658 18.1222 16.3658 18.4222 15.9991 18.4222H13.9991C13.6325 18.4222 13.3325 18.1222 13.3325 17.7555C13.3325 17.3888 13.6325 17.0888 13.9991 17.0888H14.3325V14.9888C13.3725 14.7021 12.6658 13.8088 12.6658 12.7555V10.4222C12.6658 10.0555 12.9658 9.75552 13.3325 9.75552H16.6658C17.0325 9.75552 17.3325 10.0555 17.3325 10.4222L17.3325 12.7555Z" fill="#3E6B8E"/>
<path d="M7.33312 17.0911C9.17396 17.0911 10.6663 15.5988 10.6663 13.7579C10.6663 11.9171 9.17396 10.4248 7.33312 10.4248C5.49229 10.4248 4 11.9171 4 13.7579C4 15.5988 5.49229 17.0911 7.33312 17.0911Z" fill="#3E6B8E"/>
</g>
<defs>
<clipPath id="clip0_3256_5560">
<rect width="20" height="20" fill="white" transform="translate(0 0.0898438)"/>
</clipPath>
</defs>
</svg>
