<svg width="18" height="18" viewBox="0 0 18 18" fill="none" xmlns="http://www.w3.org/2000/svg">
<path d="M17.1836 0.890517C17.1738 0.529188 16.8945 0.255751 16.5332 0.249891C16.334 0.247938 16.1328 0.249891 15.9336 0.249891H1.56055C1.50586 0.249891 1.45313 0.247938 1.39844 0.253798C1.04688 0.288954 0.818359 0.578017 0.816406 0.921767V1.57802V2.57411H0.974609H17.1836V1.04286C17.1836 0.992079 17.1855 0.941298 17.1836 0.890517Z" fill="#F2727F"/>
<path d="M17.1842 16.8574V3.35547H0.817057V16.6191C0.817057 16.7832 0.811198 16.9492 0.817057 17.1113C0.828776 17.4746 1.10807 17.7461 1.4694 17.75H1.67253H16.5319H16.5495C16.5592 17.75 16.569 17.75 16.5768 17.748H16.5788C16.9342 17.7207 17.1823 17.4375 17.1842 17.082C17.1862 17.0078 17.1842 16.9336 17.1842 16.8574ZM14.3952 10.6992C14.3893 10.7715 14.3835 10.8418 14.3737 10.9141C14.3717 10.9297 14.3698 10.9473 14.3678 10.9629C14.3678 10.9609 14.3678 10.959 14.3678 10.959V10.9609V10.9648V10.9668V10.9688V10.9707V10.9746V10.9766C14.362 11.0137 14.3561 11.0508 14.3503 11.0859C14.3034 11.373 14.235 11.6562 14.1452 11.9316C14.1022 12.0645 14.0553 12.1934 14.0026 12.3223C13.9987 12.3301 13.9967 12.3379 13.9928 12.3457C13.9889 12.3535 13.9928 12.3477 13.9909 12.3477V12.3496V12.3516V12.3535V12.3555C13.9909 12.3574 13.9889 12.3594 13.9889 12.3613V12.3633C13.987 12.3652 13.987 12.3691 13.985 12.3691C13.9714 12.4004 13.9577 12.4316 13.9421 12.4629C13.9108 12.5293 13.8796 12.5957 13.8464 12.6602C13.7194 12.9121 13.5729 13.1562 13.4108 13.3867C13.3737 13.4395 13.3366 13.4902 13.2975 13.541V13.543C13.2975 13.5449 13.2956 13.5449 13.2936 13.5469C13.2936 13.5488 13.2917 13.5488 13.2917 13.5488L13.2897 13.5508C13.2897 13.5508 13.2897 13.5527 13.2878 13.5527C13.2878 13.5527 13.2878 13.5527 13.2858 13.5547C13.278 13.5645 13.2702 13.5723 13.2643 13.582C13.237 13.6152 13.2116 13.6484 13.1842 13.6816C13.0964 13.7871 13.0065 13.8887 12.9108 13.9863C12.8132 14.0879 12.7135 14.1855 12.6081 14.2793C12.5573 14.3242 12.5065 14.3691 12.4538 14.4121C12.4284 14.4336 12.401 14.4551 12.3757 14.4766C12.3659 14.4844 12.3249 14.5156 12.3151 14.5254C12.3053 14.5352 12.3132 14.5254 12.3132 14.5273C12.0924 14.6953 11.86 14.8477 11.6198 14.9805C11.4987 15.0469 11.3757 15.1094 11.2526 15.168C11.2214 15.1816 11.1901 15.1973 11.1589 15.2109C11.151 15.2148 11.1432 15.2168 11.1354 15.2207C11.1354 15.2207 11.1354 15.2207 11.1335 15.2207C11.1335 15.2207 11.1335 15.2207 11.1315 15.2207H11.1296C11.1296 15.2207 11.1296 15.2207 11.1276 15.2207C11.1276 15.2207 11.1276 15.2207 11.1257 15.2207C11.1237 15.2207 11.1237 15.2207 11.1217 15.2227C11.1217 15.2227 11.1217 15.2227 11.1198 15.2227H11.1178H11.1159C11.1139 15.2227 11.1139 15.2246 11.112 15.2246H11.11C11.1081 15.2246 11.1081 15.2246 11.1061 15.2266C11.0378 15.2539 10.9694 15.2813 10.901 15.3066C10.6335 15.4043 10.36 15.4824 10.0807 15.541C10.0104 15.5547 9.94206 15.5684 9.87174 15.5801C9.83659 15.5859 9.80143 15.5918 9.76628 15.5957C9.75651 15.5977 9.74675 15.5977 9.73698 15.5996C9.73503 15.5996 9.68815 15.6055 9.68425 15.6055C9.54167 15.623 9.39714 15.6348 9.2526 15.6406C8.95182 15.6543 8.64909 15.6426 8.35026 15.6094C8.33854 15.6074 8.29753 15.6035 8.2819 15.6016H8.28581C8.2819 15.6016 8.27995 15.6016 8.27995 15.5996C8.27995 15.5977 8.27995 15.5996 8.27799 15.5996C8.2487 15.5957 8.2194 15.5918 8.1901 15.5859C8.11979 15.5742 8.04948 15.5625 7.97917 15.5488C7.83073 15.5195 7.68425 15.4844 7.53971 15.4434C7.40495 15.4063 7.27018 15.3633 7.13932 15.3145C7.07487 15.291 7.00846 15.2656 6.94401 15.2383C6.93229 15.2324 6.91862 15.2285 6.9069 15.2227C6.90495 15.2227 6.90495 15.2207 6.903 15.2207C6.90104 15.2188 6.89714 15.2188 6.89518 15.2168C6.86003 15.2012 6.82292 15.1855 6.78776 15.1699C6.5319 15.0527 6.28581 14.918 6.05143 14.7637C5.93424 14.6875 5.81901 14.6074 5.70964 14.5234C5.70182 14.5176 5.67253 14.4941 5.66471 14.4883C5.63737 14.4668 5.61198 14.4453 5.58464 14.4238C5.52799 14.377 5.47331 14.3301 5.41862 14.2812C5.20768 14.0938 5.01042 13.8887 4.83073 13.6719C4.80924 13.6445 4.78776 13.6191 4.76628 13.5918C4.75846 13.584 4.73698 13.5547 4.72721 13.541C4.72721 13.541 4.72721 13.543 4.72917 13.543C4.72721 13.541 4.72721 13.5391 4.72526 13.5391C4.72526 13.5391 4.72526 13.5391 4.72331 13.5371C4.68424 13.4863 4.64714 13.4355 4.61003 13.3848C4.52604 13.2656 4.44596 13.1426 4.36979 13.0176C4.29948 12.8984 4.23112 12.7773 4.17057 12.6543C4.13932 12.5918 4.11003 12.5293 4.08073 12.4668C4.06706 12.4355 4.05143 12.4043 4.03776 12.3711C4.03385 12.3613 4.02995 12.3516 4.02409 12.3418C4.01823 12.332 4.02409 12.3398 4.02214 12.3398C4.02214 12.3398 4.02214 12.3379 4.02018 12.3379C4.01823 12.3379 4.02018 12.3359 4.01823 12.334C4.01823 12.334 4.01823 12.334 4.01823 12.332V12.3301C4.01628 12.3242 4.01237 12.3164 4.01042 12.3105C3.90299 12.0469 3.8151 11.7754 3.7487 11.498C3.71354 11.3516 3.68424 11.2031 3.66081 11.0527C3.6569 11.0234 3.65104 10.9941 3.64714 10.9648V10.9688C3.64714 10.9629 3.64518 10.9512 3.64518 10.9473V10.9492C3.64323 10.9336 3.64128 10.9199 3.63932 10.9043C3.63151 10.8281 3.6237 10.752 3.61784 10.6738C3.5944 10.3652 3.59635 10.0547 3.62174 9.74609C3.6276 9.67383 3.63542 9.60352 3.64323 9.53125C3.64323 9.5293 3.64323 9.52734 3.64323 9.52539C3.64323 9.52344 3.64323 9.52148 3.64323 9.52148C3.64323 9.51953 3.64323 9.51758 3.64323 9.51758V9.51563C3.64323 9.51367 3.64323 9.51367 3.64323 9.51172V9.50977C3.64518 9.5 3.64518 9.49219 3.64714 9.48242C3.65299 9.44727 3.6569 9.41211 3.66276 9.37695C3.68815 9.22852 3.71745 9.08203 3.75456 8.93555C3.82292 8.66406 3.91081 8.39844 4.01628 8.14062C4.12174 7.88281 4.01628 8.13867 4.01823 8.13672C4.01823 8.13672 4.01823 8.13477 4.02018 8.13281C4.02018 8.13086 4.02214 8.12891 4.02214 8.12695C4.02214 8.12695 4.02214 8.12695 4.02214 8.125C4.02214 8.12305 4.02409 8.12305 4.02409 8.12109C4.02995 8.10742 4.03581 8.09375 4.04167 8.08008C4.05534 8.04883 4.06901 8.01758 4.08464 7.98633C4.11589 7.91992 4.14714 7.85352 4.18034 7.78906C4.24284 7.66602 4.30924 7.54688 4.38151 7.42969C4.45573 7.30859 4.5319 7.19141 4.61393 7.07617C4.63346 7.04883 4.65299 7.02148 4.67448 6.99414C4.68424 6.98047 4.69401 6.9668 4.70573 6.95313C4.70768 6.95117 4.71159 6.94727 4.71549 6.94141C4.7194 6.93555 4.71549 6.94141 4.71745 6.93945C4.7194 6.9375 4.71745 6.93945 4.7194 6.9375C4.7194 6.9375 4.7194 6.93555 4.72135 6.93555C4.72331 6.93555 4.72135 6.93555 4.72135 6.93359C4.72135 6.93164 4.72135 6.93164 4.72331 6.93164C4.72526 6.93164 4.72331 6.93164 4.72526 6.92969C4.72526 6.92773 4.72721 6.92773 4.72721 6.92773C4.72721 6.92773 4.72721 6.92773 4.72721 6.92578C4.73112 6.91992 4.73503 6.91602 4.73698 6.91406C4.74675 6.90039 4.75846 6.88672 4.76823 6.87305C4.79167 6.84375 4.81706 6.81445 4.84049 6.78516C5.02214 6.57031 5.21745 6.36914 5.42839 6.18164C5.47917 6.13672 5.5319 6.0918 5.58464 6.04883C5.60807 6.0293 5.63151 6.01172 5.65495 5.99219C5.66862 5.98242 5.68229 5.9707 5.69401 5.96094C5.69596 5.95898 5.69792 5.95703 5.69987 5.95703C5.69987 5.95703 5.69792 5.95703 5.69792 5.95898C5.69987 5.95703 5.69987 5.95703 5.70182 5.95703C5.70378 5.95703 5.70573 5.95508 5.70768 5.95312C5.82096 5.86914 5.93425 5.78711 6.05339 5.71094C6.28581 5.5625 6.53581 5.42578 6.79362 5.30859C6.82292 5.29492 6.85221 5.28125 6.88346 5.26953H6.88151C6.88542 5.26758 6.89323 5.26367 6.89714 5.26172C6.89909 5.26172 6.89909 5.25977 6.90104 5.25977C6.91471 5.25391 6.92643 5.25 6.9401 5.24414C7.00846 5.2168 7.07682 5.18945 7.14714 5.16406C7.27799 5.11719 7.41081 5.07422 7.54557 5.03711C7.6862 4.99805 7.82682 4.96484 7.9694 4.93555C8.03971 4.92187 8.10807 4.91016 8.17839 4.89844C8.21159 4.89258 8.24674 4.88867 8.27995 4.88281C8.27799 4.88281 8.27604 4.88281 8.27409 4.88281C8.27995 4.88281 8.28971 4.88086 8.29362 4.88086C8.29362 4.88086 8.29167 4.88086 8.28971 4.88086C8.30925 4.87891 8.32878 4.875 8.35026 4.87305C8.64909 4.83984 8.94987 4.82813 9.2487 4.8418C9.39323 4.84766 9.53776 4.85937 9.68229 4.87695C9.69206 4.87891 9.69987 4.87891 9.70963 4.88086H9.71159H9.71354H9.71549H9.71745H9.7194H9.72135H9.72526H9.72721H9.72917H9.73112H9.73698C9.77214 4.88672 9.80729 4.89062 9.84245 4.89648C9.91667 4.9082 9.99089 4.92188 10.0651 4.9375C10.3483 4.99414 10.6276 5.07422 10.8991 5.17578C10.9596 5.19727 11.0202 5.22266 11.0807 5.24609C11.0827 5.24609 11.0846 5.24805 11.0866 5.24805H11.0885C11.1022 5.25391 11.1159 5.25977 11.1296 5.26562C11.1686 5.2832 11.2077 5.30078 11.2487 5.31836C11.3737 5.37695 11.4967 5.43945 11.6178 5.50586C11.7409 5.57422 11.862 5.64844 11.9811 5.72656C12.0378 5.76367 12.0944 5.80273 12.151 5.8418C12.1784 5.86133 12.2077 5.88086 12.235 5.90234C12.2428 5.9082 12.2936 5.94727 12.3014 5.95117C12.5202 6.12109 12.7253 6.30664 12.9147 6.50586C13.0085 6.60352 13.1003 6.70703 13.1882 6.8125C13.2096 6.83789 13.2311 6.86523 13.2526 6.89258C13.2585 6.89844 13.2839 6.93359 13.2936 6.94531C13.2936 6.94531 13.2936 6.94727 13.2956 6.94727V6.94922C13.3366 7.00195 13.3757 7.05664 13.4128 7.11133C13.5768 7.34375 13.7214 7.58789 13.8483 7.83984C13.8776 7.89844 13.9049 7.95703 13.9323 8.01562C13.946 8.04688 13.9616 8.07812 13.9753 8.10938C13.9792 8.11914 13.9831 8.12695 13.987 8.13477C13.9909 8.14258 13.9889 8.13672 13.9889 8.14062C13.9948 8.15234 14.0046 8.17773 14.0046 8.18164C14.0573 8.31055 14.1042 8.44141 14.1471 8.57422C14.235 8.85156 14.3034 9.13672 14.3483 9.42383C14.3522 9.45312 14.3581 9.48242 14.362 9.50977V9.51367V9.51563C14.3639 9.5332 14.3698 9.57422 14.3698 9.58398C14.3776 9.65625 14.3854 9.72852 14.3913 9.79883C14.403 9.94531 14.4069 10.0898 14.4069 10.2363C14.4108 10.4004 14.4049 10.5488 14.3952 10.6992Z" fill="#4D7EA5"/>
<path d="M7.46074 11.1643C7.3709 10.7385 7.1834 10.3518 7.01153 9.95533C6.9041 9.69166 6.82012 9.41822 6.7752 9.13697C6.75957 8.98072 6.75567 8.82252 6.77129 8.66627C6.78887 8.56275 6.81621 8.46314 6.85137 8.36549C6.88262 8.30299 6.91582 8.24439 6.95488 8.1858C6.9627 8.17603 6.97246 8.16822 6.98028 8.16041C7.20879 7.95533 7.20488 7.53736 6.98028 7.33228C6.73613 7.10767 6.39629 7.11353 6.15215 7.33228C5.95879 7.50611 5.83965 7.76002 5.74395 7.99635C5.54082 8.4983 5.56231 9.07642 5.67168 9.59595C5.76153 10.0217 5.94512 10.4085 6.11699 10.803C6.11699 10.803 6.11699 10.8049 6.11895 10.8049C6.22442 11.0667 6.31035 11.3362 6.35723 11.6135C6.3709 11.7522 6.37481 11.8909 6.36113 12.0295C6.34551 12.1135 6.32403 12.1956 6.29668 12.2737C6.2791 12.3088 6.26153 12.342 6.24004 12.3772C6.23418 12.385 6.23028 12.3928 6.22442 12.4006C6.17168 12.4553 6.0877 12.5198 6.20293 12.4319C6.20098 12.4338 6.19903 12.4358 6.19903 12.4378C6.10723 12.5159 6.03692 12.6018 5.99981 12.7307C5.96074 12.8713 5.97832 13.0569 6.0584 13.1819C6.13848 13.3069 6.25957 13.4163 6.40801 13.4514C6.55059 13.4846 6.73613 13.4846 6.85918 13.3928C7.54082 12.8772 7.62676 11.9475 7.46074 11.1643ZM6.94512 8.19166C6.88067 8.27955 6.9041 8.23853 6.94512 8.19166V8.19166ZM6.2166 12.4221C6.2166 12.4202 6.21856 12.4202 6.22051 12.4182C6.23028 12.4104 6.24004 12.4026 6.25371 12.3928C6.24004 12.4026 6.22832 12.4124 6.2166 12.4221Z" fill="#4D7EA5"/>
<path d="M9.89794 11.0745C9.80809 10.6487 9.62255 10.2639 9.45067 9.86939C9.45067 9.86744 9.45067 9.86744 9.44872 9.86549C9.34325 9.60181 9.25731 9.33033 9.21239 9.04908C9.19676 8.89088 9.19286 8.73267 9.20653 8.57447C9.22411 8.47291 9.25145 8.37135 9.28465 8.27369C9.3159 8.21119 9.35106 8.15064 9.38817 8.09205C9.39598 8.08228 9.40575 8.07447 9.41356 8.06666C9.64208 7.86158 9.63817 7.44361 9.41356 7.23853C9.16942 7.01392 8.82958 7.01978 8.58544 7.23853C8.39208 7.41236 8.27294 7.66627 8.17723 7.9026C7.97411 8.4065 7.99559 8.98267 8.10692 9.5022C8.19676 9.92994 8.38231 10.3186 8.55614 10.7151C8.66161 10.9749 8.74754 11.2444 8.79247 11.5217C8.80614 11.6604 8.81005 11.7991 8.79637 11.9397C8.78075 12.0237 8.75926 12.1038 8.73192 12.1838C8.71434 12.219 8.69676 12.2522 8.67528 12.2874C8.66942 12.2952 8.66551 12.303 8.65965 12.3108C8.60692 12.3655 8.52294 12.4299 8.63817 12.342C8.63622 12.344 8.63426 12.346 8.63426 12.3479C8.54247 12.426 8.4702 12.5139 8.43505 12.6409C8.39598 12.7815 8.41356 12.969 8.49364 13.092C8.57372 13.217 8.69481 13.3264 8.84325 13.3616C8.98583 13.3948 9.17137 13.3948 9.29442 13.303C9.97997 12.7874 10.064 11.8577 9.89794 11.0745ZM9.38622 8.09986C9.31786 8.19361 9.34325 8.14674 9.38622 8.09986V8.09986ZM8.6538 12.3323C8.6538 12.3303 8.65575 12.3303 8.6577 12.3284C8.66747 12.3206 8.67919 12.3128 8.6909 12.303C8.67723 12.3128 8.66551 12.3225 8.6538 12.3323Z" fill="#4D7EA5"/>
<path d="M12.3354 11.0374C12.2456 10.6116 12.06 10.2268 11.8882 9.83228C11.8882 9.83033 11.8882 9.83033 11.8862 9.82838C11.7807 9.56471 11.6948 9.29322 11.6499 9.01392C11.6343 8.85572 11.6304 8.69752 11.644 8.53931C11.6616 8.43775 11.689 8.33619 11.7241 8.23853C11.7554 8.17603 11.7905 8.11549 11.8276 8.05689C11.8354 8.04713 11.8432 8.03931 11.853 8.0315C12.0815 7.82642 12.0776 7.40845 11.853 7.20338C11.6089 6.97877 11.269 6.98463 11.0249 7.20338C10.8315 7.3772 10.7124 7.63111 10.6167 7.86744C10.4136 8.37135 10.435 8.94752 10.5464 9.46705C10.6362 9.89478 10.8218 10.2835 10.9936 10.6799C11.0991 10.9397 11.1831 11.2073 11.23 11.4827C11.2436 11.6233 11.2475 11.7639 11.2358 11.9026V11.9045C11.2202 11.9866 11.1987 12.0686 11.1714 12.1467C11.1538 12.1819 11.1362 12.2151 11.1147 12.2503C11.1089 12.2581 11.105 12.2659 11.0991 12.2737C11.0464 12.3284 10.9604 12.3928 11.0776 12.3049C11.0757 12.3069 11.0737 12.3088 11.0737 12.3108C10.9819 12.3889 10.9097 12.4768 10.8745 12.6038C10.8354 12.7444 10.853 12.9319 10.9331 13.0549C11.0132 13.1799 11.1343 13.2893 11.2827 13.3245C11.4253 13.3577 11.6108 13.3577 11.7339 13.2659C12.4175 12.7503 12.5015 11.8206 12.3354 11.0374ZM11.8198 8.0647C11.7554 8.1565 11.7807 8.11158 11.8198 8.0647V8.0647ZM11.0913 12.2952C11.0913 12.2932 11.0932 12.2932 11.0932 12.2913C11.103 12.2835 11.1147 12.2756 11.1265 12.2659C11.1147 12.2756 11.103 12.2854 11.0913 12.2952Z" fill="#4D7EA5"/>
</svg>
