<svg width="20" height="21" viewBox="0 0 20 21" fill="none" xmlns="http://www.w3.org/2000/svg">
<g clip-path="url(#clip0_3165_4074)">
<path d="M17.5953 0.929336C17.4957 0.730781 17.2932 0.605469 17.0712 0.605469H2.96961C2.74758 0.605469 2.50598 0.730781 2.40641 0.929336L1.39648 2.98828H18.6053L17.5953 0.929336Z" fill="#6B5E7A"/>
<path d="M19.4141 4.16016H0.585938C0.262344 4.16016 0 4.4225 0 4.74609V5.91797C0 6.24156 0.262344 6.50391 0.585938 6.50391H19.4141C19.7377 6.50391 20 6.24156 20 5.91797V4.74609C20 4.4225 19.7377 4.16016 19.4141 4.16016Z" fill="#6B5E7A"/>
<path d="M8.24219 17.4111C7.62078 18.1876 7.07031 19.0596 7.07031 19.4333C7.07031 20.0793 7.59617 20.6052 8.24219 20.6052C8.8882 20.6052 9.41406 20.0793 9.41406 19.4333C9.41406 19.0705 8.86477 18.1916 8.24219 17.4111Z" fill="#EA4B62"/>
<path d="M10 10.0195C7.08754 10.0195 4.72656 12.4196 4.72656 15.332V20.6055H6.22437C6.02254 20.2594 5.89844 19.8624 5.89844 19.4336C5.89844 18.2961 7.48746 16.4673 7.80617 16.1125C8.0282 15.8653 8.45621 15.8653 8.6782 16.1125C8.76684 16.2111 8.95699 16.4306 9.18066 16.7107C9.87695 15.7613 10.7242 14.949 10.769 14.9069C10.9945 14.6929 11.3493 14.6929 11.5747 14.9069C11.997 15.3068 14.1016 17.3759 14.1016 18.8477C14.1016 19.5097 13.8725 20.1143 13.5007 20.6055H15.3125V15.332C15.3125 12.4196 12.9125 10.0195 10 10.0195Z" fill="#6B5E7A"/>
<path d="M11.1737 16.1621C10.8152 16.5388 10.2964 17.1302 9.90625 17.7247C10.2761 18.3068 10.5855 18.9353 10.5855 19.434C10.5855 19.8628 10.4614 20.2598 10.2596 20.6059H11.1714C12.1407 20.6059 12.9293 19.8173 12.9293 18.848C12.9293 18.2323 12.0034 17.0296 11.1737 16.1621Z" fill="#EA4B62"/>
<path d="M19.4141 18.2617H16.4844V20.6055H19.4141C19.7377 20.6055 20 20.3431 20 20.0195V18.8477C20 18.5241 19.7377 18.2617 19.4141 18.2617Z" fill="#6B5E7A"/>
<path d="M0.585938 18.2617C0.262344 18.2617 0 18.5241 0 18.8477V20.0195C0 20.3431 0.262344 20.6055 0.585938 20.6055H3.55469V18.2617H0.585938Z" fill="#6B5E7A"/>
<path d="M1.17188 7.67578V17.0898H3.55469V15.332C3.55469 11.7781 6.44605 8.84766 10 8.84766C13.5539 8.84766 16.4844 11.7781 16.4844 15.332V17.0898H18.8281V7.67578H1.17188Z" fill="#6B5E7A"/>
</g>
<defs>
<clipPath id="clip0_3165_4074">
<rect width="20" height="20" fill="white" transform="translate(0 0.605469)"/>
</clipPath>
</defs>
</svg>
