<svg width="20" height="21" viewBox="0 0 20 21" fill="none" xmlns="http://www.w3.org/2000/svg">
<g clip-path="url(#clip0_3256_6067)">
<path d="M2.91602 18.3115H17.0827V19.9782H2.91602V18.3115Z" fill="#3E6B8E"/>
<path d="M15.8327 15.8115H4.16602V17.4782H15.8327V15.8115Z" fill="#3E6B8E"/>
<path d="M15.8327 8.31152H4.16602V10.8115H15.8327V8.31152Z" fill="#3E6B8E"/>
<path d="M13.3333 4.14453H6.66667L5 7.47786H15L13.3333 4.14453Z" fill="#3E6B8E"/>
<path d="M7.08398 0.811523H12.9173V3.31152H7.08398V0.811523Z" fill="#3E6B8E"/>
<path d="M10.0007 15.8115C11.6115 15.8115 12.9173 14.6922 12.9173 13.3115C12.9173 11.9308 11.6115 10.8115 10.0007 10.8115C8.38982 10.8115 7.08398 11.9308 7.08398 13.3115C7.08398 14.6922 8.38982 15.8115 10.0007 15.8115Z" fill="#EA4B62"/>
<path d="M17.916 12.8945H17.0827C16.9722 12.8945 16.8662 12.9384 16.7881 13.0166C16.7099 13.0947 16.666 13.2007 16.666 13.3112C16.666 13.4217 16.7099 13.5277 16.7881 13.6058C16.8662 13.684 16.9722 13.7279 17.0827 13.7279H17.916C18.0265 13.7279 18.1325 13.684 18.2106 13.6058C18.2888 13.5277 18.3327 13.4217 18.3327 13.3112C18.3327 13.2007 18.2888 13.0947 18.2106 13.0166C18.1325 12.9384 18.0265 12.8945 17.916 12.8945Z" fill="#EA4B62"/>
<path d="M17.0832 12.0619C17.3082 12.0619 17.3207 11.9994 18.2123 11.1078C18.2908 11.0293 18.3349 10.9229 18.3349 10.8119C18.3349 10.701 18.2908 10.5946 18.2123 10.5161C18.1339 10.4376 18.0274 10.3936 17.9165 10.3936C17.8055 10.3936 17.6991 10.4376 17.6207 10.5161L16.7873 11.3494C16.7286 11.4077 16.6885 11.4822 16.6722 11.5633C16.6559 11.6445 16.6642 11.7286 16.6959 11.805C16.7277 11.8815 16.7814 11.9467 16.8504 11.9925C16.9194 12.0382 17.0004 12.0624 17.0832 12.0619Z" fill="#EA4B62"/>
<path d="M17.3783 14.6821C17.2998 14.6036 17.1934 14.5596 17.0824 14.5596C16.9715 14.5596 16.8651 14.6036 16.7866 14.6821C16.7081 14.7606 16.6641 14.867 16.6641 14.9779C16.6641 15.0889 16.7081 15.1953 16.7866 15.2738C17.6949 16.1821 17.6908 16.2279 17.9158 16.2279C17.9985 16.2284 18.0796 16.2042 18.1485 16.1585C18.2175 16.1127 18.2713 16.0475 18.303 15.9711C18.3347 15.8946 18.343 15.8105 18.3267 15.7293C18.3104 15.6482 18.2704 15.5737 18.2116 15.5154L17.3783 14.6821Z" fill="#EA4B62"/>
<path d="M2.08268 13.7279H2.91602C3.02652 13.7279 3.1325 13.684 3.21064 13.6058C3.28878 13.5277 3.33268 13.4217 3.33268 13.3112C3.33268 13.2007 3.28878 13.0947 3.21064 13.0166C3.1325 12.9384 3.02652 12.8945 2.91602 12.8945H2.08268C1.97218 12.8945 1.86619 12.9384 1.78805 13.0166C1.70991 13.0947 1.66602 13.2007 1.66602 13.3112C1.66602 13.4217 1.70991 13.5277 1.78805 13.6058C1.86619 13.684 1.97218 13.7279 2.08268 13.7279Z" fill="#EA4B62"/>
<path d="M2.61993 11.9411C2.69839 12.0196 2.80481 12.0636 2.91577 12.0636C3.02673 12.0636 3.13314 12.0196 3.2116 11.9411C3.29006 11.8626 3.33414 11.7562 3.33414 11.6453C3.33414 11.5343 3.29006 11.4279 3.2116 11.3494L2.37827 10.5161C2.29981 10.4376 2.19339 10.3936 2.08243 10.3936C1.97148 10.3936 1.86506 10.4376 1.7866 10.5161C1.70814 10.5946 1.66406 10.701 1.66406 10.8119C1.66406 10.9229 1.70814 11.0293 1.7866 11.1078L2.61993 11.9411Z" fill="#EA4B62"/>
<path d="M2.62065 14.6821L1.78732 15.5154C1.72856 15.5737 1.68848 15.6482 1.6722 15.7293C1.65592 15.8105 1.66418 15.8946 1.69591 15.9711C1.72765 16.0475 1.78143 16.1127 1.8504 16.1585C1.91936 16.2042 2.00039 16.2284 2.08315 16.2279C2.30815 16.2279 2.32065 16.1654 3.21232 15.2738C3.29078 15.1953 3.33486 15.0889 3.33486 14.9779C3.33486 14.867 3.29078 14.7606 3.21232 14.6821C3.13386 14.6036 3.02744 14.5596 2.91649 14.5596C2.80553 14.5596 2.69911 14.6036 2.62065 14.6821Z" fill="#EA4B62"/>
</g>
<defs>
<clipPath id="clip0_3256_6067">
<rect width="20" height="20" fill="white" transform="translate(0 0.394531)"/>
</clipPath>
</defs>
</svg>
