<svg width="20" height="20" viewBox="0 0 20 20" fill="none" xmlns="http://www.w3.org/2000/svg">
<g clip-path="url(#clip0_3256_6018)">
<path d="M3.21188 12.8078H15.5555C16.5644 12.8078 17.3852 11.9869 17.3852 10.978C17.3852 9.96908 16.5644 9.14816 15.5555 9.14816H5.87454C5.51474 9.14816 5.22208 8.8555 5.22208 8.49585C5.22208 8.1362 5.51474 7.84354 5.87454 7.84354H14.8087C15.1337 7.84354 15.3974 7.57986 15.3974 7.25485C15.3974 6.92969 15.1337 6.66602 14.8087 6.66602H5.87454C4.86563 6.66602 4.04471 7.48694 4.04471 8.49585C4.04471 9.50476 4.86563 10.3257 5.87454 10.3257H15.5555C15.9151 10.3257 16.2078 10.6183 16.2078 10.978C16.2078 11.3376 15.9151 11.6303 15.5555 11.6303H3.21188C2.88672 11.6303 2.62305 11.894 2.62305 12.219C2.62305 12.5442 2.88672 12.8078 3.21188 12.8078Z" fill="#6B5E7A"/>
<path d="M4.25101 2.18159C4.3917 2.18159 4.53284 2.13139 4.64545 2.02976L4.77393 1.91364V5.14957C4.77393 5.47459 5.03745 5.73826 5.36261 5.73826C5.68778 5.73826 5.9513 5.47459 5.9513 5.14957V1.91364L6.07978 2.02976C6.32117 2.24766 6.69349 2.22858 6.91138 1.98734C7.12928 1.7461 7.11036 1.37379 6.86896 1.15589L5.75721 0.151863C5.53321 -0.050621 5.19217 -0.050621 4.96802 0.151863L3.85627 1.15589C3.61503 1.37379 3.59595 1.7461 3.81385 1.98734C3.93012 2.11613 4.09018 2.18159 4.25101 2.18159Z" fill="#EA4B62"/>
<path d="M9.28611 2.02976L9.41459 1.91364V5.14957C9.41459 5.47474 9.6781 5.73826 10.0033 5.73826C10.3283 5.73826 10.592 5.47474 10.592 5.14957V1.91364L10.7204 2.02976C10.833 2.13139 10.9742 2.18159 11.1149 2.18159C11.2755 2.18159 11.4358 2.11613 11.5519 1.98734C11.7699 1.7461 11.7509 1.37379 11.5096 1.15589L10.3979 0.151863C10.1737 -0.050621 9.83283 -0.050621 9.60868 0.151863L8.49692 1.15589C8.25553 1.37379 8.23661 1.7461 8.45466 1.98734C8.6724 2.22858 9.04471 2.24766 9.28611 2.02976Z" fill="#EA4B62"/>
<path d="M13.9266 2.02976L14.0551 1.91364V5.14957C14.0551 5.47474 14.3188 5.73826 14.6438 5.73826C14.9689 5.73826 15.2325 5.47474 15.2325 5.14957V1.91364L15.3611 2.02976C15.4737 2.13139 15.6148 2.18159 15.7555 2.18159C15.9162 2.18159 16.0763 2.11613 16.1925 1.98734C16.4104 1.7461 16.3915 1.37379 16.1503 1.15589L15.0384 0.151863C14.8142 -0.050621 14.4735 -0.050621 14.2493 0.151863L13.1374 1.15589C12.8962 1.37379 12.8773 1.7461 13.0952 1.98734C13.3129 2.22858 13.6852 2.24766 13.9266 2.02976Z" fill="#EA4B62"/>
<path d="M17.6549 13.7109H15.7892V16.0435C15.7892 16.3687 15.5255 16.6324 15.2003 16.6324H4.80652C4.48135 16.6324 4.21783 16.3687 4.21783 16.0435V13.7109H2.35199C1.37817 13.7109 0.585938 14.5032 0.585938 15.477V19.4113C0.585938 19.7365 0.849457 20 1.17462 20H18.8322C19.1574 20 19.4211 19.7365 19.4211 19.4113V15.477C19.4211 14.5032 18.6287 13.7109 17.6549 13.7109Z" fill="#6B5E7A"/>
<path d="M5.39453 13.7109H14.611V15.4549H5.39453V13.7109Z" fill="#6B5E7A"/>
</g>
<defs>
<clipPath id="clip0_3256_6018">
<rect width="20" height="20" fill="white"/>
</clipPath>
</defs>
</svg>
