<svg width="20" height="21" viewBox="0 0 20 21" fill="none" xmlns="http://www.w3.org/2000/svg">
<g clip-path="url(#clip0_3256_5510)">
<path d="M15.2547 9.07207C14.0531 9.07207 13.0535 8.19043 12.8687 7.04004H3.63164C3.44687 8.19043 2.44727 9.07207 1.2457 9.07207C1.07656 9.07207 0.911328 9.05449 0.751953 9.02129V9.15254C0.751953 9.33691 0.838672 9.51035 0.985937 9.6209L1.83281 10.2576L0.985937 10.8943C0.863281 10.976 0.751953 11.1658 0.751953 11.3627V14.2729C0.751953 14.5963 1.01445 14.8588 1.33789 14.8588H8.24297V17.1033H11.7586V14.8588H13.6633C13.8418 14.8588 14.0344 14.7611 14.1316 14.6248L14.7684 13.7775L15.4051 14.6248C15.516 14.7799 15.7266 14.8588 15.8734 14.8588H18.7613C19.0848 14.8588 19.3473 14.5963 19.3473 14.2729V11.4295H11.8074C11.484 11.4295 11.2215 11.167 11.2215 10.8436C11.2215 10.5201 11.484 10.2576 11.8074 10.2576H19.3473V7.04004H17.6406C17.4559 8.19043 16.4562 9.07207 15.2547 9.07207ZM7.41836 12.0865L6.68047 11.6607V12.5127C6.68047 12.8361 6.41797 13.0986 6.09453 13.0986C5.77109 13.0986 5.50859 12.8361 5.50859 12.5127V11.6607L4.7707 12.0865C4.49062 12.2482 4.13242 12.1525 3.97031 11.8721C3.80859 11.592 3.90469 11.2334 4.18477 11.0717L4.92266 10.6459L4.18477 10.2197C3.90469 10.058 3.80859 9.6998 3.97031 9.41934C4.13203 9.13926 4.49062 9.04316 4.7707 9.20488L5.50859 9.63105V8.7791C5.50859 8.45527 5.77109 8.19316 6.09453 8.19316C6.41797 8.19316 6.68047 8.45527 6.68047 8.7791V9.63105L7.41836 9.20488C7.69844 9.04316 8.05703 9.13926 8.21875 9.41934C8.38047 9.6998 8.28437 10.058 8.0043 10.2197L7.26641 10.6459L8.0043 11.0717C8.28437 11.2334 8.38047 11.592 8.21875 11.8721C8.05703 12.1525 7.69844 12.2486 7.41836 12.0865Z" fill="#4D7EA5"/>
<path d="M14.4013 18.2734H5.59894C4.81652 18.2734 4.08097 18.5781 3.52746 19.1312C3.20379 19.4549 2.96554 19.8411 2.82343 20.2624C2.70672 20.6085 2.96281 20.9674 3.32812 20.9674H16.6705C17.0335 20.9674 17.2931 20.6115 17.177 20.2676C16.7858 19.1095 15.6895 18.2734 14.4013 18.2734Z" fill="#4D7EA5"/>
<path d="M18.5802 3.37848H11.7578V1.92656C11.7578 1.39844 11.3281 0.96875 10.8 0.96875H9.2C8.67188 0.96875 8.24219 1.39844 8.24219 1.92656V3.37848H1.41984C0.635703 3.37848 0 4.01414 0 4.79832V6.65531C0 7.34281 0.557305 7.90012 1.2448 7.90012C1.9323 7.90012 2.48961 7.34281 2.48961 6.65531V5.86809H14.0091V6.65531C14.0091 7.34281 14.5664 7.90012 15.2539 7.90012C15.9414 7.90012 16.4987 7.34281 16.4987 6.65531V5.86809H19.5438C19.7957 5.86809 20 5.66387 20 5.41191V4.79832C20 4.01414 19.3643 3.37848 18.5802 3.37848Z" fill="#3E6B8E"/>
</g>
<defs>
<clipPath id="clip0_3256_5510">
<rect width="20" height="20" fill="white" transform="translate(0 0.96875)"/>
</clipPath>
</defs>
</svg>
