<svg width="16" height="18" viewBox="0 0 16 18" fill="none" xmlns="http://www.w3.org/2000/svg">
<path d="M14.5625 2.95859L13.3125 2.33359V0.964844H10.1875V2.33359L8.9375 2.95859V4.08984H14.5625V2.95859Z" fill="#F2727F"/>
<path d="M13.9375 12.2148H9.5625V15.0273H13.9375V12.2148ZM12.375 13.1523H11.125V12.5273H12.375V13.1523Z" fill="#F2727F"/>
<path d="M2.0625 15.3398H7.375V13.4648H2.0625V15.3398ZM3.9375 14.0898H5.1875V14.7148H3.9375V14.0898Z" fill="#F2727F"/>
<path d="M2.0625 12.8398H7.375V10.9648H2.0625V12.8398ZM3.9375 11.5898H5.1875V12.2148H3.9375V11.5898Z" fill="#F2727F"/>
<path d="M1.75 4.39707C1.5415 4.47079 1.36576 4.61584 1.25387 4.8066C1.14197 4.99735 1.1011 5.22152 1.1385 5.43949C1.1759 5.65745 1.28915 5.85518 1.45823 5.99773C1.62732 6.14027 1.84135 6.21845 2.0625 6.21845C2.28365 6.21845 2.49768 6.14027 2.66677 5.99773C2.83585 5.85518 2.9491 5.65745 2.9865 5.43949C3.0239 5.22152 2.98303 4.99735 2.87113 4.8066C2.75924 4.61584 2.5835 4.47079 2.375 4.39707V1.52832H5.1875V2.80645C4.72394 2.8848 4.30673 3.13445 4.01855 3.5059C3.73037 3.87736 3.59225 4.34353 3.63157 4.81202C3.67088 5.28051 3.88476 5.71714 4.23082 6.03537C4.57688 6.3536 5.02986 6.53022 5.5 6.53022C5.97014 6.53022 6.42312 6.3536 6.76918 6.03537C7.11524 5.71714 7.32912 5.28051 7.36843 4.81202C7.40775 4.34353 7.26963 3.87736 6.98145 3.5059C6.69327 3.13445 6.27606 2.8848 5.8125 2.80645V1.52832H7.375V0.90332H5.8125V0.27832H5.1875V0.90332H2.375V0.27832H1.75V0.90332H0.8125V1.52832H1.75V4.39707Z" fill="#6B5E7A"/>
<path d="M16 8.0918H13.2308V7.0918H12V7.75846H12.6154V8.0918H10.7692V7.75846H11.3846V7.0918H10.1538V8.0918H0V8.75846H0.307692V17.0918H15.6923V8.75846H16V8.0918ZM1.53846 9.75846H8V15.7585H1.53846V9.75846ZM14.4615 15.4251H8.92308V11.0918H14.4615V15.4251ZM11.8462 9.42513C11.9374 9.42513 12.0267 9.45445 12.1026 9.5094C12.1785 9.56434 12.2376 9.64243 12.2726 9.73379C12.3075 9.82515 12.3166 9.92569 12.2988 10.0227C12.281 10.1197 12.2371 10.2088 12.1725 10.2787C12.108 10.3486 12.0257 10.3962 11.9362 10.4155C11.8467 10.4348 11.7539 10.4249 11.6695 10.3871C11.5852 10.3492 11.5131 10.2851 11.4624 10.2029C11.4117 10.1207 11.3846 10.024 11.3846 9.92513C11.3846 9.79252 11.4332 9.66534 11.5198 9.57158C11.6064 9.47781 11.7237 9.42513 11.8462 9.42513ZM13.3846 9.42513C13.4759 9.42513 13.5651 9.45445 13.641 9.5094C13.7169 9.56434 13.7761 9.64243 13.811 9.73379C13.846 9.82515 13.8551 9.92569 13.8373 10.0227C13.8195 10.1197 13.7755 10.2088 13.711 10.2787C13.6464 10.3486 13.5642 10.3962 13.4747 10.4155C13.3851 10.4348 13.2923 10.4249 13.208 10.3871C13.1237 10.3492 13.0516 10.2851 13.0009 10.2029C12.9501 10.1207 12.9231 10.024 12.9231 9.92513C12.9231 9.79252 12.9717 9.66534 13.0583 9.57158C13.1448 9.47781 13.2622 9.42513 13.3846 9.42513Z" fill="#6B5E7A"/>
</svg>
