<svg width="20" height="20" viewBox="0 0 20 20" fill="none" xmlns="http://www.w3.org/2000/svg">
<g clip-path="url(#clip0_3165_3266)">
<path d="M0.5 0.578125V19.419H2.75254V13.2455H6.08947V19.419H12.4514V0.578125H0.5ZM5.3149 9.84366H2.83836V7.95538H5.3149V9.84366ZM5.3149 4.51797H2.83836V2.62759H5.3149V4.51797ZM10.113 15.1338H7.6386V13.2455H10.113V15.1338ZM10.113 9.84366H7.6386V7.95538H10.113V9.84366ZM10.113 4.51797H7.6386V2.62759H10.113V4.51797Z" fill="#3E6B8E"/>
<path d="M13.0801 5.91309V19.4199H19.5006V5.91309H13.0801ZM17.5265 15.1703H15.0521V13.282H17.5265V15.1703ZM17.5265 9.84456H15.0521V7.95628H17.5265V9.84456Z" fill="#C06A87"/>
</g>
<defs>
<clipPath id="clip0_3165_3266">
<rect width="20" height="20" fill="white" transform="translate(0 -0.000976562)"/>
</clipPath>
</defs>
</svg>
