<svg width="18" height="18" viewBox="0 0 18 18" fill="none" xmlns="http://www.w3.org/2000/svg">
<path d="M16.8042 18.0009V13.7653L13.5046 12.6289L10.2051 13.7653V18.0009H11.7814V14.671H15.2279V18.0009H16.8042Z" fill="#C06A87"/>
<path d="M12.8359 15.7256H14.173V18.0008H12.8359V15.7256Z" fill="#C06A87"/>
<path d="M2.50323 0.000976562L0 2.50421H2.50323V0.000976562Z" fill="#9BB997"/>
<path d="M9.00977 11.7083V13.0621L13.5052 11.5139L18.0007 13.0621V11.7083L13.5052 10.1465L9.00977 11.7083Z" fill="#C06A87"/>
<path d="M9.15033 14.1287L7.95442 14.5406V10.9579L12.9772 9.21286V0.000976562H3.55792V3.55889H0V18.001H9.15033V14.1287ZM4.65493 1.31825H11.9649V2.37293H4.65493V1.31825ZM6.62804 16.4307H1.26482V15.376H6.62808L6.62804 16.4307ZM6.62804 13.8057H1.26482V12.7511H6.62808L6.62804 13.8057ZM6.62804 11.1808H1.26482V10.1261H6.62808L6.62804 11.1808ZM6.62804 8.55583H1.26482V7.50114H6.62808L6.62804 8.55583ZM6.62804 5.93085H1.26482V4.87616H6.62808L6.62804 5.93085Z" fill="#9BB997"/>
</svg>
