<svg width="20" height="18" viewBox="0 0 20 18" fill="none" xmlns="http://www.w3.org/2000/svg">
<path d="M13.125 4.625H3.75C3.58424 4.625 3.42527 4.69085 3.30806 4.80806C3.19085 4.92527 3.125 5.08424 3.125 5.25V11.5C3.125 11.6658 3.19085 11.8247 3.30806 11.9419C3.42527 12.0592 3.58424 12.125 3.75 12.125H13.125C13.2908 12.125 13.4497 12.0592 13.5669 11.9419C13.6842 11.8247 13.75 11.6658 13.75 11.5V5.25C13.75 5.08424 13.6842 4.92527 13.5669 4.80806C13.4497 4.69085 13.2908 4.625 13.125 4.625ZM12.5 9C12.5 9.16576 12.4342 9.32473 12.3169 9.44194C12.1997 9.55915 12.0408 9.625 11.875 9.625C11.7092 9.625 11.5503 9.55915 11.4331 9.44194C11.3158 9.32473 11.25 9.16576 11.25 9V7.75C11.25 7.58424 11.3158 7.42527 11.4331 7.30806C11.5503 7.19085 11.7092 7.125 11.875 7.125C12.0408 7.125 12.1997 7.19085 12.3169 7.30806C12.4342 7.42527 12.5 7.58424 12.5 7.75V9Z" fill="#EA4B62"/>
<path d="M18.125 0.875H1.875C1.37772 0.875 0.900805 1.07254 0.549175 1.42417C0.197544 1.77581 0 2.25272 0 2.75L0 14.625C0 15.1223 0.197544 15.5992 0.549175 15.9508C0.900805 16.3025 1.37772 16.5 1.875 16.5H2.5C2.5 16.6658 2.56585 16.8247 2.68306 16.9419C2.80027 17.0592 2.95924 17.125 3.125 17.125C3.29076 17.125 3.44973 17.0592 3.56694 16.9419C3.68415 16.8247 3.75 16.6658 3.75 16.5H16.25C16.25 16.6658 16.3158 16.8247 16.4331 16.9419C16.5503 17.0592 16.7092 17.125 16.875 17.125C17.0408 17.125 17.1997 17.0592 17.3169 16.9419C17.4342 16.8247 17.5 16.6658 17.5 16.5H18.125C18.6223 16.5 19.0992 16.3025 19.4508 15.9508C19.8025 15.5992 20 15.1223 20 14.625V2.75C20 2.25272 19.8025 1.77581 19.4508 1.42417C19.0992 1.07254 18.6223 0.875 18.125 0.875ZM15 11.5C15 11.9973 14.8025 12.4742 14.4508 12.8258C14.0992 13.1775 13.6223 13.375 13.125 13.375H3.75C3.25272 13.375 2.77581 13.1775 2.42417 12.8258C2.07254 12.4742 1.875 11.9973 1.875 11.5V5.25C1.875 4.75272 2.07254 4.27581 2.42417 3.92417C2.77581 3.57254 3.25272 3.375 3.75 3.375H13.125C13.6223 3.375 14.0992 3.57254 14.4508 3.92417C14.8025 4.27581 15 4.75272 15 5.25V11.5ZM17.5 12.75C17.3764 12.75 17.2555 12.7133 17.1528 12.6447C17.05 12.576 16.9699 12.4784 16.9226 12.3642C16.8753 12.25 16.8629 12.1243 16.887 12.0031C16.9111 11.8818 16.9706 11.7705 17.0581 11.6831C17.1455 11.5956 17.2568 11.5361 17.3781 11.512C17.4993 11.4879 17.625 11.5003 17.7392 11.5476C17.8534 11.5949 17.951 11.675 18.0197 11.7778C18.0883 11.8805 18.125 12.0014 18.125 12.125C18.125 12.2908 18.0592 12.4497 17.9419 12.5669C17.8247 12.6842 17.6658 12.75 17.5 12.75ZM17.5 10.25C17.3764 10.25 17.2555 10.2133 17.1528 10.1447C17.05 10.076 16.9699 9.97838 16.9226 9.86418C16.8753 9.74997 16.8629 9.62431 16.887 9.50307C16.9111 9.38183 16.9706 9.27047 17.0581 9.18306C17.1455 9.09565 17.2568 9.03613 17.3781 9.01201C17.4993 8.98789 17.625 9.00027 17.7392 9.04757C17.8534 9.09488 17.951 9.17499 18.0197 9.27777C18.0883 9.38055 18.125 9.50139 18.125 9.625C18.125 9.79076 18.0592 9.94973 17.9419 10.0669C17.8247 10.1842 17.6658 10.25 17.5 10.25ZM17.5 7.75C17.3764 7.75 17.2555 7.71334 17.1528 7.64467C17.05 7.57599 16.9699 7.47838 16.9226 7.36418C16.8753 7.24997 16.8629 7.12431 16.887 7.00307C16.9111 6.88183 16.9706 6.77047 17.0581 6.68306C17.1455 6.59565 17.2568 6.53612 17.3781 6.51201C17.4993 6.48789 17.625 6.50027 17.7392 6.54757C17.8534 6.59488 17.951 6.67499 18.0197 6.77777C18.0883 6.88055 18.125 7.00139 18.125 7.125C18.125 7.29076 18.0592 7.44973 17.9419 7.56694C17.8247 7.68415 17.6658 7.75 17.5 7.75ZM17.5 5.25C17.3764 5.25 17.2555 5.21334 17.1528 5.14467C17.05 5.07599 16.9699 4.97838 16.9226 4.86418C16.8753 4.74997 16.8629 4.62431 16.887 4.50307C16.9111 4.38183 16.9706 4.27047 17.0581 4.18306C17.1455 4.09565 17.2568 4.03612 17.3781 4.01201C17.4993 3.98789 17.625 4.00027 17.7392 4.04758C17.8534 4.09488 17.951 4.17499 18.0197 4.27777C18.0883 4.38055 18.125 4.50139 18.125 4.625C18.125 4.79076 18.0592 4.94973 17.9419 5.06694C17.8247 5.18415 17.6658 5.25 17.5 5.25Z" fill="#6B5E7A"/>
</svg>
