<svg width="20" height="20" viewBox="0 0 20 20" fill="none" xmlns="http://www.w3.org/2000/svg">
<path d="M9.99935 17.5013V14.7726C9.8036 14.6633 9.6332 14.5138 9.49935 14.334C9.36776 14.159 9.27199 13.9597 9.21752 13.7477C9.16305 13.5356 9.15095 13.3149 9.18191 13.0981C9.21287 12.8814 9.28629 12.6729 9.39796 12.4846C9.50963 12.2962 9.65736 12.1318 9.83268 12.0006L13.166 9.50147C13.426 9.30112 13.7412 9.18535 14.069 9.16977C14.3968 9.1542 14.7216 9.23958 14.9993 9.41439V2.5013C14.9993 2.28029 14.9116 2.06833 14.7553 1.91205C14.599 1.75577 14.387 1.66797 14.166 1.66797H2.49935C2.27834 1.66797 2.06637 1.75577 1.91009 1.91205C1.75381 2.06833 1.66602 2.28029 1.66602 2.5013V17.5013C1.66595 17.6108 1.68746 17.7191 1.72932 17.8203C1.77117 17.9214 1.83255 18.0133 1.90995 18.0907C1.98734 18.1681 2.07923 18.2295 2.18037 18.2713C2.2815 18.3132 2.3899 18.3347 2.49935 18.3346H10.2313C10.0811 18.0825 10.001 17.7948 9.99935 17.5013ZM4.99935 5.0013H11.666C11.887 5.0013 12.099 5.0891 12.2553 5.24538C12.4116 5.40166 12.4993 5.61362 12.4993 5.83464C12.4993 6.05565 12.4116 6.26761 12.2553 6.42389C12.099 6.58017 11.887 6.66797 11.666 6.66797H4.99935C4.77834 6.66797 4.56637 6.58017 4.41009 6.42389C4.25381 6.26761 4.16602 6.05565 4.16602 5.83464C4.16602 5.61362 4.25381 5.40166 4.41009 5.24538C4.56637 5.0891 4.77834 5.0013 4.99935 5.0013ZM4.99935 8.33464H9.99935C10.2204 8.33464 10.4323 8.42243 10.5886 8.57871C10.7449 8.73499 10.8327 8.94696 10.8327 9.16797C10.8327 9.38898 10.7449 9.60094 10.5886 9.75723C10.4323 9.9135 10.2204 10.0013 9.99935 10.0013H4.99935C4.77834 10.0013 4.56637 9.9135 4.41009 9.75723C4.25381 9.60094 4.16602 9.38898 4.16602 9.16797C4.16602 8.94696 4.25381 8.73499 4.41009 8.57871C4.56637 8.42243 4.77834 8.33464 4.99935 8.33464ZM8.08852 13.0905L6.42185 14.7571C6.26557 14.9134 6.05363 15.0012 5.83264 15.0012C5.61165 15.0012 5.39971 14.9134 5.24343 14.7571L4.4101 13.9238C4.25775 13.7667 4.17329 13.556 4.17496 13.3372C4.17663 13.1184 4.2643 12.909 4.41903 12.7543C4.57377 12.5996 4.78315 12.5119 5.00196 12.5103C5.22077 12.5086 5.43146 12.5931 5.58852 12.7455L5.83268 12.9896L6.91018 11.9121C7.06725 11.7597 7.27794 11.6752 7.49675 11.6769C7.71557 11.6786 7.92494 11.7663 8.07966 11.921C8.23439 12.0757 8.32204 12.2851 8.3237 12.5039C8.32535 12.7227 8.24088 12.9334 8.08852 13.0905Z" fill="#9BB997"/>
<path d="M18.0003 12.6676L14.667 10.1676C14.5229 10.0594 14.3475 10.001 14.1673 10.001C13.9871 10.001 13.8118 10.0594 13.6677 10.1676L10.3343 12.6676C10.2466 12.7331 10.1726 12.8153 10.1167 12.9094C10.0608 13.0035 10.024 13.1078 10.0084 13.2162C9.99288 13.3246 9.99889 13.435 10.0261 13.541C10.0533 13.6471 10.1012 13.7468 10.167 13.8343C10.2452 13.9361 10.3463 14.0181 10.4622 14.0736C10.578 14.129 10.7053 14.1564 10.8337 14.1534V17.5009C10.8336 17.6104 10.8551 17.7188 10.897 17.8199C10.9388 17.921 11.0002 18.0129 11.0776 18.0903C11.155 18.1677 11.2469 18.2291 11.348 18.271C11.4491 18.3128 11.5575 18.3343 11.667 18.3343H16.667C16.7764 18.3343 16.8848 18.3128 16.986 18.271C17.0871 18.2291 17.179 18.1677 17.2564 18.0903C17.3338 18.0129 17.3952 17.921 17.437 17.8199C17.4789 17.7188 17.5004 17.6104 17.5003 17.5009V14.1676C17.6752 14.1676 17.8457 14.1126 17.9876 14.0103C18.1295 13.908 18.2356 13.7637 18.2909 13.5978C18.3462 13.4319 18.3479 13.2527 18.2958 13.0858C18.2436 12.9188 18.1403 12.7725 18.0003 12.6676ZM15.8337 16.6676H12.5003V13.3343C12.4952 13.2727 12.483 13.2119 12.4638 13.1531L14.167 11.8759L15.8702 13.1531C15.851 13.2119 15.8388 13.2727 15.8337 13.3343V16.6676Z" fill="#6B5E7A"/>
</svg>
