<svg width="20" height="21" viewBox="0 0 20 21" fill="none" xmlns="http://www.w3.org/2000/svg">
<g clip-path="url(#clip0_3256_5457)">
<path d="M2.5 9.81348V18.3277C2.5 19.5161 3.46664 20.4827 4.65485 20.4827H15.3242C16.5125 20.4827 17.4792 19.5161 17.4792 18.3277V9.81348H2.5ZM6.80984 14.876C6.80984 15.1995 6.54755 15.462 6.22391 15.462C5.90042 15.462 5.63797 15.1995 5.63797 14.876V11.7379C5.63797 11.4143 5.90042 11.152 6.22391 11.152C6.54755 11.152 6.80984 11.4143 6.80984 11.7379V14.876Z" fill="#F2727F"/>
<path d="M17.4791 8.64325V2.63922C17.4791 1.45102 16.5125 0.484375 15.3242 0.484375H4.65485C3.46664 0.484375 2.5 1.45102 2.5 2.63922V8.64325H17.4791ZM5.63797 4.20828C5.63797 3.8848 5.90042 3.62234 6.22391 3.62234C6.54755 3.62234 6.80984 3.8848 6.80984 4.20828V6.71881C6.80984 7.0423 6.54755 7.30475 6.22391 7.30475C5.90042 7.30475 5.63797 7.0423 5.63797 6.71881V4.20828Z" fill="#FFB6A3"/>
</g>
<defs>
<clipPath id="clip0_3256_5457">
<rect width="20" height="20" fill="white" transform="translate(0 0.484375)"/>
</clipPath>
</defs>
</svg>
