<svg width="20" height="20" viewBox="0 0 20 20" fill="none" xmlns="http://www.w3.org/2000/svg">
<path d="M10.001 15.8252C13.2181 15.8252 15.8262 13.2172 15.8262 10C15.8262 6.78283 13.2181 4.1748 10.001 4.1748C6.78381 4.1748 4.17578 6.78283 4.17578 10C4.17578 13.2172 6.78381 15.8252 10.001 15.8252Z" fill="#F1D15B"/>
<path d="M9.41406 0H10.5859V3.13977H9.41406V0Z" fill="#EA4B62"/>
<path d="M1.04688 5.50781L1.63281 4.49297L4.35185 6.06285L3.76591 7.0777L1.04688 5.50781Z" fill="#EA4B62"/>
<path d="M1.04688 14.4922L3.76591 12.9223L4.35185 13.9371L1.63281 15.507L1.04688 14.4922Z" fill="#EA4B62"/>
<path d="M9.41406 16.8604H10.5859V20.0001H9.41406V16.8604Z" fill="#EA4B62"/>
<path d="M15.6484 13.9385L16.2344 12.9236L18.9534 14.4935L18.3675 15.5084L15.6484 13.9385Z" fill="#EA4B62"/>
<path d="M15.6484 6.0625L18.3675 4.49262L18.9534 5.50746L16.2344 7.07734L15.6484 6.0625Z" fill="#EA4B62"/>
<path d="M4.58398 1.78906L5.59883 1.20312L6.60234 2.94121L5.5875 3.52715L4.58398 1.78906Z" fill="#EA4B62"/>
<path d="M0.181641 9.41406H2.18867V10.5859H0.181641V9.41406Z" fill="#EA4B62"/>
<path d="M4.58398 18.2109L5.5875 16.4728L6.60234 17.0588L5.59883 18.7969L4.58398 18.2109Z" fill="#EA4B62"/>
<path d="M13.3984 17.0576L14.4133 16.4717L15.4168 18.2098L14.402 18.7957L13.3984 17.0576Z" fill="#EA4B62"/>
<path d="M17.8125 9.41406H19.8195V10.5859H17.8125V9.41406Z" fill="#EA4B62"/>
<path d="M13.3984 2.94141L14.402 1.20332L15.4168 1.78925L14.4133 3.52734L13.3984 2.94141Z" fill="#EA4B62"/>
</svg>
