<svg width="20" height="21" viewBox="0 0 20 21" fill="none" xmlns="http://www.w3.org/2000/svg">
<g clip-path="url(#clip0_3256_6038)">
<path d="M0.78125 20.0781C0.78125 20.4017 1.04359 20.6641 1.36719 20.6641H13.0859C13.4095 20.6641 13.6719 20.4017 13.6719 20.0781V19.4141H0.78125V20.0781Z" fill="#4D7EA5"/>
<path d="M7.46465 12.9185C6.83051 13.2004 6.14969 13.3413 5.46887 13.3413C5.1177 13.3413 4.7666 13.3035 4.42188 13.2285C4.78563 14.433 5.90512 15.3128 7.22668 15.3128C8.70898 15.3128 9.93684 14.206 10.1293 12.7756C9.25879 12.4964 8.30762 12.5439 7.46465 12.9185Z" fill="#4D7EA5"/>
<path d="M0 6.52344V17.6562C0 17.9798 0.262344 18.2422 0.585938 18.2422H13.8672C14.1908 18.2422 14.4531 17.9798 14.4531 17.6562V6.52344H0ZM7.22656 16.4844C4.96496 16.4844 3.125 14.6444 3.125 12.3828C3.125 12.3805 3.12508 12.3783 3.12508 12.3761C3.12512 12.3736 3.12512 12.3712 3.12516 12.3688C3.13281 10.1136 4.96965 8.28125 7.22656 8.28125C9.48816 8.28125 11.3281 10.1212 11.3281 12.3828C11.3281 12.3851 11.328 12.3873 11.328 12.3895C11.328 12.392 11.328 12.3945 11.328 12.3969C11.3203 14.6521 9.48348 16.4844 7.22656 16.4844Z" fill="#C06A87"/>
<path d="M6.98887 11.8474C7.95012 11.4201 9.01848 11.317 10.0316 11.5374C9.66789 10.3329 8.5484 9.45312 7.22684 9.45312C5.74453 9.45312 4.51668 10.5599 4.32422 11.9903C5.19473 12.2696 6.1459 12.222 6.98887 11.8474Z" fill="#4D7EA5"/>
<path d="M13.8672 0.664062H0.585938C0.262344 0.664062 0 0.926406 0 1.25V5.35156H14.4531V1.25C14.4531 0.926406 14.1908 0.664062 13.8672 0.664062ZM2.92969 3.59375C2.60609 3.59375 2.34375 3.33141 2.34375 3.00781C2.34375 2.68422 2.60609 2.42188 2.92969 2.42188C3.25328 2.42188 3.51562 2.68422 3.51562 3.00781C3.51562 3.33141 3.25328 3.59375 2.92969 3.59375ZM5.46875 3.59375C5.14516 3.59375 4.88281 3.33141 4.88281 3.00781C4.88281 2.68422 5.14516 2.42188 5.46875 2.42188C5.79234 2.42188 6.05469 2.68422 6.05469 3.00781C6.05469 3.33141 5.79234 3.59375 5.46875 3.59375Z" fill="#C06A87"/>
<path d="M16.3847 14.0402C16.2348 14.0402 16.0848 13.983 15.9704 13.8686C15.7416 13.6398 15.7416 13.2688 15.9704 13.04C16.6558 12.3546 16.6558 11.2394 15.9704 10.554C15.7416 10.3252 15.7416 9.95417 15.9704 9.72535C16.1993 9.49652 16.5703 9.49648 16.7991 9.72535C17.9413 10.8676 17.9413 12.7263 16.7991 13.8686C16.6846 13.983 16.5347 14.0402 16.3847 14.0402Z" fill="#4D7EA5"/>
<path d="M18.041 15.6975C17.8911 15.6975 17.7411 15.6403 17.6267 15.5258C17.3979 15.297 17.3979 14.926 17.6267 14.6972C18.4014 13.9225 18.828 12.8925 18.828 11.7969C18.828 10.7014 18.4014 9.6714 17.6267 8.89671C17.3979 8.66792 17.3979 8.2969 17.6267 8.06808C17.8555 7.83929 18.2265 7.83929 18.4553 8.06808C19.4513 9.06409 19.9999 10.3883 19.9999 11.7969C19.9999 13.2055 19.4513 14.5298 18.4553 15.5258C18.3409 15.6402 18.191 15.6975 18.041 15.6975Z" fill="#4D7EA5"/>
</g>
<defs>
<clipPath id="clip0_3256_6038">
<rect width="20" height="20" fill="white" transform="translate(0 0.664062)"/>
</clipPath>
</defs>
</svg>
