<svg width="20" height="20" viewBox="0 0 20 20" fill="none" xmlns="http://www.w3.org/2000/svg">
<path d="M15.3125 0H4.6875C2.96445 0 1.5625 1.40195 1.5625 3.125V3.75H18.4375V3.125C18.4375 1.40195 17.0355 0 15.3125 0ZM5.22891 2.1875C4.98848 2.60391 4.38641 2.60371 4.14609 2.1875C3.90777 1.7757 4.2032 1.25 4.6875 1.25C5.17137 1.25 5.46742 1.77535 5.22891 2.1875ZM7.72891 2.1875C7.48848 2.60391 6.88641 2.60371 6.64609 2.1875C6.40777 1.7757 6.7032 1.25 7.1875 1.25C7.67137 1.25 7.96742 1.77535 7.72891 2.1875ZM11.4789 2.1875C11.3711 2.37422 11.1687 2.5 10.9375 2.5H9.6875C9.34398 2.5 9.0625 2.22191 9.0625 1.875C9.0625 1.52969 9.34219 1.25 9.6875 1.25H10.9375C11.4214 1.25 11.7174 1.77535 11.4789 2.1875Z" fill="#F1D15B"/>
<path d="M1.5625 5V19.375C1.5625 19.7203 1.84219 20 2.1875 20H17.8125C18.1578 20 18.4375 19.7203 18.4375 19.375V5C17.9118 5 1.95598 5 1.5625 5ZM4.13516 10.9457C4.13602 10.9448 4.13719 10.9273 4.14297 10.8984C4.60977 8.0875 7.05859 5.9375 10 5.9375C12.9414 5.9375 15.3902 8.0875 15.857 10.8984C16.5245 14.2318 13.828 17.8125 10 17.8125C6.38117 17.8125 3.5641 14.5734 4.13516 10.9457Z" fill="#4D7EA5"/>
<path d="M10.0004 16.5629C12.6717 16.5629 14.753 14.3347 14.6867 11.7844C14.236 12.0192 13.8019 12.5953 12.6566 12.5953C11.7922 12.5953 11.3332 12.2676 10.9648 12.0043C10.6629 11.7891 10.4637 11.6465 9.99998 11.6465C9.53631 11.6465 9.33709 11.7891 9.03553 12.0043C8.66717 12.2676 8.20857 12.5953 7.34412 12.5953C6.19932 12.5953 5.76533 12.0195 5.31404 11.7844C5.24771 14.3352 7.32947 16.5629 10.0004 16.5629Z" fill="#4D7EA5"/>
<path d="M7.34414 11.3449C7.80781 11.3449 8.00742 11.2023 8.30898 10.9871C8.67734 10.7238 9.13594 10.3961 10 10.3961C10.8641 10.3961 11.3227 10.7238 11.6914 10.9867C11.993 11.2023 12.1926 11.3449 12.6566 11.3449C13.4873 11.3449 13.612 10.7959 14.4871 10.5164C13.9031 8.5918 12.1129 7.1875 10.0004 7.1875C7.88789 7.1875 6.09766 8.5918 5.51367 10.5164C6.38555 10.7949 6.51078 11.3449 7.34414 11.3449Z" fill="#4D7EA5"/>
</svg>
