<svg width="18" height="20" viewBox="0 0 18 20" fill="none" xmlns="http://www.w3.org/2000/svg">
<path d="M12.5156 0H5.48438C2.57645 0 0.210938 2.36551 0.210938 5.27344V14.1016H2.55469V12.3438C2.55469 11.5798 3.04449 10.9281 3.72656 10.6861V5.27344C3.72656 4.94957 3.98863 4.6875 4.3125 4.6875H6.65625C6.98012 4.6875 7.24219 4.94957 7.24219 5.27344V10.6861C7.92426 10.9281 8.41406 11.5798 8.41406 12.3438V14.1016H9.58594V12.3438C9.58594 11.5798 10.0757 10.9281 10.7578 10.6861V5.27344C10.7578 4.94957 11.0199 4.6875 11.3438 4.6875H13.6875C14.0114 4.6875 14.2734 4.94957 14.2734 5.27344V10.6861C14.9555 10.9281 15.4453 11.5798 15.4453 12.3438V14.1016H17.7891V5.27344C17.7891 2.36551 15.4236 0 12.5156 0ZM11.9297 3.51562H6.07031C5.74645 3.51562 5.48438 3.25355 5.48438 2.92969C5.48438 2.60582 5.74645 2.34375 6.07031 2.34375H11.9297C12.2536 2.34375 12.5156 2.60582 12.5156 2.92969C12.5156 3.25355 12.2536 3.51562 11.9297 3.51562Z" fill="#F2727F"/>
<path d="M11.9297 5.85938H13.1016V7.03125H11.9297V5.85938Z" fill="#3E6B8E"/>
<path d="M11.9297 11.1719C11.9297 11.4957 11.6676 11.7578 11.3438 11.7578C11.0205 11.7578 10.7578 12.0205 10.7578 12.3438V14.1016H14.2734V12.3438C14.2734 12.0205 14.0108 11.7578 13.6875 11.7578C13.3636 11.7578 13.1016 11.4957 13.1016 11.1719V8.20312H11.9297V11.1719Z" fill="#3E6B8E"/>
<path d="M0.210938 19.4141C0.210938 19.7379 0.473008 20 0.796875 20H17.2031C17.527 20 17.7891 19.7379 17.7891 19.4141V15.2734H0.210938V19.4141Z" fill="#F2727F"/>
<path d="M4.89844 5.85938H6.07031V7.03125H4.89844V5.85938Z" fill="#3E6B8E"/>
<path d="M4.89844 11.1719C4.89844 11.4957 4.63637 11.7578 4.3125 11.7578C3.98922 11.7578 3.72656 12.0205 3.72656 12.3438V14.1016H7.24219V12.3438C7.24219 12.0205 6.97953 11.7578 6.65625 11.7578C6.33238 11.7578 6.07031 11.4957 6.07031 11.1719V8.20312H4.89844V11.1719Z" fill="#3E6B8E"/>
</svg>
