<svg width="13" height="11" viewBox="0 0 13 11" fill="none" xmlns="http://www.w3.org/2000/svg">
<path d="M11.5788 9.21089H12.698V10.2973H0.386719V9.21089H1.50593V1.06274C1.50593 0.918673 1.56489 0.780505 1.66983 0.678634C1.77478 0.576762 1.91712 0.519531 2.06554 0.519531H7.66159C7.81001 0.519531 7.95234 0.576762 8.05729 0.678634C8.16224 0.780505 8.2212 0.918673 8.2212 1.06274V9.21089H10.4596V4.86521H9.34041V3.77879H11.0192C11.1676 3.77879 11.31 3.83602 11.4149 3.93789C11.5199 4.03976 11.5788 4.17793 11.5788 4.322V9.21089ZM2.62514 1.60595V9.21089H7.10198V1.60595H2.62514ZM3.74435 4.86521H5.98277V5.95163H3.74435V4.86521ZM3.74435 2.69237H5.98277V3.77879H3.74435V2.69237Z" fill="#92A3B4"/>
</svg>
