<svg width="12" height="12" viewBox="0 0 12 12" fill="none" xmlns="http://www.w3.org/2000/svg">
<path fill-rule="evenodd" clip-rule="evenodd" d="M3.78113 11.1094C4.06911 11.2466 4.38408 11.3178 4.70309 11.3178H9.28547C10.3411 11.3178 11.2395 10.549 11.4026 9.506L11.939 6.0746C12.1015 5.03488 11.2977 4.09553 10.2453 4.09553H7.43069V2.07471C7.43069 1.30534 6.80699 0.681641 6.03762 0.681641C5.53336 0.681641 5.06847 0.954139 4.82211 1.39413L3.04154 4.57419C2.93408 4.7661 2.87765 4.98238 2.87765 5.20232V9.86728C2.87765 10.363 3.16267 10.8146 3.61019 11.0279L3.78113 11.1094ZM0.895037 4.73125C0.668536 4.73125 0.451313 4.82123 0.291153 4.98139C0.130993 5.14155 0.0410156 5.35877 0.0410156 5.58527L0.0410161 9.96748C0.0410161 10.194 0.130993 10.4112 0.291153 10.5714C0.451312 10.7315 0.668535 10.8215 0.895037 10.8215L1.32067 10.8214C1.55729 10.8213 1.74905 10.6294 1.74905 10.3928V5.15964C1.74905 5.04594 1.70387 4.9369 1.62346 4.85653C1.54305 4.77615 1.43399 4.73102 1.3203 4.73107L0.895037 4.73125Z" fill="white"/>
</svg>
