<svg width="40" height="33" viewBox="0 0 40 33" fill="none" xmlns="http://www.w3.org/2000/svg">
<rect x="0.368042" y="0.882812" width="38.99" height="31.7207" rx="5.28678" fill="#9BB997"/>
<path d="M17.4659 20.5583C17.5807 20.5722 17.6962 20.5795 17.8118 20.5802H19.822C20.1024 20.5809 20.3804 20.633 20.6421 20.7339C22.555 20.0785 23.7359 18.16 23.4593 16.1569C23.1828 14.1538 21.5263 12.627 19.5073 12.5144C17.4883 12.4018 15.6723 13.7349 15.1748 15.6949C14.6772 17.6548 15.6374 19.6927 17.4656 20.5568L17.4659 20.5583ZM19.2721 17.1217C18.499 17.1226 17.8459 16.5481 17.7484 15.7812C17.6508 15.0143 18.1391 14.2946 18.8878 14.1019V14.0474C18.8878 13.8351 19.0598 13.6631 19.2721 13.6631C19.4843 13.6631 19.6564 13.8351 19.6564 14.0474V14.1019C20.333 14.2766 20.8066 14.8857 20.8092 15.5845C20.8092 15.7967 20.6372 15.9688 20.4249 15.9688C20.2127 15.9688 20.0407 15.7967 20.0407 15.5845C20.0407 15.16 19.6965 14.8159 19.2721 14.8159C18.8476 14.8159 18.5035 15.16 18.5035 15.5845C18.5035 16.009 18.8476 16.3531 19.2721 16.3531C20.0451 16.3521 20.6982 16.9266 20.7958 17.6935C20.8934 18.4604 20.4051 19.1801 19.6564 19.3728V19.4274C19.6564 19.6396 19.4843 19.8117 19.2721 19.8117C19.0598 19.8117 18.8878 19.6396 18.8878 19.4274V19.3728C18.2112 19.1981 17.7375 18.589 17.7349 17.8902C17.7349 17.678 17.9069 17.5059 18.1192 17.5059C18.3315 17.5059 18.5035 17.678 18.5035 17.8902C18.5035 18.3147 18.8476 18.6588 19.2721 18.6588C19.6965 18.6588 20.0407 18.3147 20.0407 17.8902C20.0407 17.4658 19.6965 17.1217 19.2721 17.1217Z" fill="white"/>
<path d="M9.66444 19.043H11.5859C11.7981 19.043 11.9702 19.215 11.9702 19.4273V27.4973C11.9702 27.7095 11.7981 27.8816 11.5859 27.8816H9.66444C9.45219 27.8816 9.28015 27.7095 9.28015 27.4973V19.4273C9.28015 19.215 9.45219 19.043 9.66444 19.043Z" fill="white"/>
<path d="M30.6473 21.7796C30.4706 21.5656 30.1808 21.4819 29.9172 21.5687L22.8079 23.9393C22.6111 24.0061 22.4047 24.04 22.1969 24.0396H18.781C18.174 24.0399 17.5805 24.2194 17.0751 24.5557L16.7969 24.7433C16.6206 24.8617 16.3816 24.8147 16.2632 24.6384C16.1447 24.462 16.1917 24.223 16.3681 24.1046L16.649 23.9163C17.2806 23.496 18.0223 23.2715 18.781 23.2711H21.0176C21.2864 22.9378 21.3347 22.4778 21.1409 22.0959C20.8622 21.634 20.3627 21.3511 19.8232 21.3497H17.8122C16.9286 21.3486 16.0715 21.048 15.3808 20.4969C14.8271 20.0549 14.1399 19.8136 13.4313 19.8125H12.7396V27.4982H22.0777C22.5005 27.4984 22.9152 27.3822 23.2764 27.1623L30.4779 22.7776C30.6395 22.6806 30.7524 22.5196 30.7883 22.3345C30.8243 22.1494 30.7801 21.9578 30.6665 21.8073C30.6604 21.7981 30.6538 21.7893 30.6473 21.7796Z" fill="white"/>
<path d="M14.0684 15.0375C14.1195 15.0594 14.175 15.0705 14.2311 15.0702C14.8232 13.7274 15.9325 12.6518 17.3309 12.0645C17.7151 11.0845 17.9037 10.0448 17.8871 8.99872V7.02018C17.8856 6.79082 17.6993 6.60115 17.4593 6.58457C16.4046 6.53768 15.3814 6.22666 14.4929 5.68284C14.3301 5.57321 14.1121 5.57459 13.9509 5.68632C13.0689 6.23023 12.0502 6.5393 11.0005 6.58152C10.76 6.59748 10.573 6.78729 10.5714 7.01713L10.5751 8.99872C10.575 11.0835 11.181 13.8235 14.0684 15.0375ZM12.08 10.4061C12.2584 10.2361 12.5477 10.2361 12.7262 10.4061L13.2677 10.9223L15.6935 7.8391C15.7914 7.7146 15.9516 7.64938 16.1137 7.66796C16.2758 7.68659 16.4152 7.78621 16.4793 7.92934C16.5435 8.07246 16.5226 8.23731 16.4246 8.36181L13.6826 11.8467C13.6033 11.9481 13.4818 12.0117 13.3495 12.0209H13.317C13.1958 12.0209 13.0796 11.975 12.9939 11.8933L12.0799 11.0221C11.9015 10.852 11.9015 10.5763 12.08 10.4061Z" fill="white"/>
<path d="M27.9655 7.58998C26.4646 6.08948 24.0314 6.08984 22.5309 7.5908C21.0304 9.09177 21.0308 11.5249 22.5317 13.0254C24.0327 14.5259 26.4658 14.5256 27.9663 13.0246C28.687 12.3037 29.0917 11.3261 29.0915 10.3069C29.0913 9.28777 28.6862 8.31048 27.9655 7.58998ZM27.2256 11.8179C27.2255 11.8181 27.2253 11.8182 27.2251 11.8184V11.8171L27.0304 12.0105C26.7786 12.2655 26.4119 12.3705 26.0633 12.2872C25.7121 12.1932 25.3783 12.0436 25.0744 11.844C24.7921 11.6636 24.5305 11.4527 24.2943 11.2151C24.077 10.9994 23.8818 10.7625 23.7115 10.508C23.5252 10.2342 23.3778 9.93586 23.2734 9.62157C23.1537 9.25236 23.2529 8.84722 23.5296 8.57504L23.7576 8.34704C23.821 8.28336 23.924 8.28313 23.9876 8.34653C23.9878 8.34669 23.988 8.34686 23.9881 8.34704L24.708 9.06693C24.7717 9.13032 24.7719 9.23332 24.7085 9.29699C24.7084 9.29715 24.7082 9.29732 24.708 9.2975L24.2853 9.72021C24.164 9.84018 24.1488 10.0308 24.2495 10.1685C24.4024 10.3784 24.5715 10.5758 24.7554 10.7591C24.9605 10.965 25.1834 11.1523 25.4215 11.3189C25.5591 11.4148 25.7457 11.3987 25.8647 11.2804L26.2734 10.8654C26.3367 10.8017 26.4398 10.8015 26.5034 10.8649C26.5036 10.865 26.5037 10.8652 26.5039 10.8654L27.2251 11.5879C27.2888 11.6512 27.289 11.7542 27.2256 11.8179Z" fill="white"/>
</svg>
