<svg width="40" height="33" viewBox="0 0 40 33" fill="none" xmlns="http://www.w3.org/2000/svg">
<rect x="0.368042" y="0.402344" width="38.99" height="31.7207" rx="5.28678" fill="#C06A87"/>
<g clip-path="url(#clip0_4807_10742)">
<path d="M29.1093 13.1289H28.0789V17.759C28.0789 19.6249 26.5611 21.1358 24.7021 21.1358H17.6351V22.6466C17.6351 23.6214 18.4219 24.4082 19.3897 24.4082H26.8883L27.5428 25.731C27.8422 26.3368 28.4409 26.7058 29.1093 26.7058C30.0771 26.7058 30.8639 25.919 30.8639 24.9443V14.8904C30.8639 13.9157 30.0771 13.1289 29.1093 13.1289Z" fill="white"/>
<path d="M26.6863 17.7571V7.80072C26.6863 6.70761 25.7951 5.81641 24.702 5.81641H11.9606C10.8675 5.81641 9.97632 6.70761 9.97632 7.80072V20.5351C9.97632 21.6282 10.8675 22.5194 11.9606 22.5194C12.7195 22.5194 13.4019 22.1017 13.7361 21.4194L14.5785 19.7344H24.695C25.7882 19.7344 26.6794 18.8432 26.6794 17.7501L26.6863 17.7571ZM14.1538 10.342H14.5019C14.8849 10.342 15.1982 10.6553 15.1982 11.0383C15.1982 11.4212 14.8849 11.7345 14.5019 11.7345H14.1538C13.7709 11.7345 13.4576 11.4212 13.4576 11.0383C13.4576 10.6553 13.7709 10.342 14.1538 10.342ZM22.5088 15.2158H14.1538C13.7709 15.2158 13.4576 14.9025 13.4576 14.5195C13.4576 14.1366 13.7709 13.8233 14.1538 13.8233H22.5088C22.8918 13.8233 23.2051 14.1366 23.2051 14.5195C23.2051 14.9025 22.8918 15.2158 22.5088 15.2158ZM22.5088 11.7345H16.9388C16.5559 11.7345 16.2426 11.4212 16.2426 11.0383C16.2426 10.6553 16.5559 10.342 16.9388 10.342H22.5088C22.8918 10.342 23.2051 10.6553 23.2051 11.0383C23.2051 11.4212 22.8918 11.7345 22.5088 11.7345Z" fill="white"/>
</g>
<defs>
<clipPath id="clip0_4807_10742">
<rect width="22.28" height="22.28" fill="white" transform="translate(9.27991 5.12109)"/>
</clipPath>
</defs>
</svg>
