<svg width="40" height="32" viewBox="0 0 40 32" fill="none" xmlns="http://www.w3.org/2000/svg">
<rect x="0.368042" y="0.289062" width="38.99" height="31.7207" rx="5.28678" fill="#EA4B62"/>
<g clip-path="url(#clip0_4807_10624)">
<path d="M30.6241 14.2767H28.9654C28.745 13.2647 28.3455 12.3001 27.7859 11.4285L28.9591 10.2554C29.3244 9.89032 29.3246 9.29808 28.9595 8.93273C28.9594 8.93259 28.9592 8.93246 28.9591 8.93228L27.6359 7.60912C27.2708 7.24372 26.6785 7.24354 26.3132 7.60866C26.3131 7.6088 26.3129 7.60893 26.3127 7.60912L25.1392 8.78177C24.2676 8.222 23.3031 7.82241 22.291 7.60184V5.94357C22.2912 5.42704 21.8727 5.00809 21.3561 5.00781C21.356 5.00781 21.3558 5.00781 21.3557 5.00781H19.4841C18.9676 5.00781 18.5488 5.42659 18.5488 5.94312V5.94357V7.6023C17.5366 7.8236 16.5721 8.22395 15.7006 8.7845L14.5275 7.61139C14.1624 7.246 13.5702 7.24582 13.2048 7.61093C13.2047 7.61107 13.2046 7.61121 13.2044 7.61139L11.8812 8.93455C11.5158 9.29967 11.5156 9.89191 11.8808 10.2573L11.8812 10.2577L13.0539 11.4285C12.4941 12.3001 12.0945 13.2646 11.8739 14.2767H10.2157C9.69914 14.2765 9.28018 14.695 9.27991 15.2116V15.2121V17.0836C9.27991 17.6002 9.69863 18.0189 10.2152 18.0189H10.2157H11.8744C12.0957 19.0311 12.496 19.9957 13.0566 20.8671L11.8835 22.0402C11.5181 22.4053 11.5179 22.9975 11.883 23.3629C11.8832 23.363 11.8833 23.3632 11.8835 23.3633L13.2066 24.6865C13.5718 25.0519 14.164 25.0521 14.5293 24.687C14.5295 24.6868 14.5296 24.6867 14.5298 24.6865L15.7029 23.5134C16.5745 24.0732 17.539 24.4728 18.5511 24.6933V26.3521C18.5508 26.8679 18.9683 27.2865 19.4841 27.2878H21.3557C21.8722 27.2878 22.291 26.869 22.291 26.3525C22.291 26.3524 22.291 26.3522 22.291 26.3521V24.6933C23.303 24.4729 24.2676 24.0734 25.1392 23.5139L26.3123 24.687C26.6774 25.0524 27.2696 25.0525 27.635 24.6874C27.6351 24.6873 27.6353 24.6871 27.6354 24.687L28.9586 23.3638C29.324 22.9987 29.3242 22.4064 28.9591 22.0411C28.9589 22.041 28.9588 22.0408 28.9586 22.0406L27.7859 20.8671C28.3457 19.9955 28.7453 19.031 28.9659 18.0189H30.6246C31.1412 18.0189 31.5599 17.6001 31.5599 17.0836V15.2121C31.5599 14.6955 31.1411 14.2767 30.6246 14.2767C30.6245 14.2767 30.6243 14.2767 30.6241 14.2767ZM20.4199 22.6427C16.8329 22.6449 13.9232 19.7389 13.921 16.1519C13.9187 12.5649 16.8247 9.65524 20.4117 9.65297C23.9987 9.65069 26.9084 12.5567 26.9107 16.1437V16.1478C26.9119 19.7336 24.0061 22.6414 20.4204 22.6427C20.4202 22.6427 20.42 22.6427 20.4199 22.6427Z" fill="white"/>
<path d="M23.6121 17.3227C22.564 18.3685 20.7366 18.2426 19.5307 17.0367C18.3249 15.8309 18.1967 14.0035 19.2447 12.9554C19.8854 12.3152 20.8166 12.1137 21.7196 12.3293C21.9216 12.3768 22.0467 12.579 21.9992 12.7809C21.9832 12.8489 21.9486 12.911 21.8992 12.9604L20.7448 14.1149C20.517 14.3428 20.517 14.7122 20.7448 14.9401L21.6273 15.8227C21.8553 16.0504 22.2247 16.0504 22.4526 15.8227L23.6071 14.6682C23.7532 14.5209 23.991 14.52 24.1382 14.6661C24.1884 14.716 24.2236 14.7789 24.2396 14.8478C24.4537 15.7508 24.2523 16.6821 23.6121 17.3227Z" fill="white"/>
<path d="M20.15 17.532L17.8143 19.8677C17.5724 20.1099 17.18 20.1102 16.9378 19.8684C16.9376 19.8681 16.9374 19.8679 16.9372 19.8677L16.7003 19.6308C16.4581 19.389 16.4578 18.9966 16.6996 18.7544C16.6999 18.7541 16.7001 18.7539 16.7003 18.7537L19.036 16.418C19.3197 16.8677 19.7003 17.2483 20.15 17.532Z" fill="white"/>
</g>
<defs>
<clipPath id="clip0_4807_10624">
<rect width="22.28" height="22.28" fill="white" transform="translate(9.27991 5.00781)"/>
</clipPath>
</defs>
</svg>
