<svg width="54" height="41" viewBox="0 0 54 41" fill="none" xmlns="http://www.w3.org/2000/svg">
<path d="M1.11719 35.1484C1.13542 35.474 1.21224 35.7383 1.34766 35.9414C1.60547 36.3216 2.0599 36.5117 2.71094 36.5117C3.0026 36.5117 3.26823 36.4701 3.50781 36.3867C3.97135 36.2253 4.20312 35.9362 4.20312 35.5195C4.20312 35.207 4.10547 34.9844 3.91016 34.8516C3.71224 34.7214 3.40234 34.6081 2.98047 34.5117L2.20312 34.3359C1.69531 34.2214 1.33594 34.0951 1.125 33.957C0.760417 33.7174 0.578125 33.3594 0.578125 32.8828C0.578125 32.3672 0.75651 31.944 1.11328 31.6133C1.47005 31.2826 1.97526 31.1172 2.62891 31.1172C3.23047 31.1172 3.74089 31.263 4.16016 31.5547C4.58203 31.8438 4.79297 32.3073 4.79297 32.9453H4.0625C4.02344 32.638 3.9401 32.4023 3.8125 32.2383C3.57552 31.9388 3.17318 31.7891 2.60547 31.7891C2.14714 31.7891 1.81771 31.8854 1.61719 32.0781C1.41667 32.2708 1.31641 32.4948 1.31641 32.75C1.31641 33.0312 1.43359 33.237 1.66797 33.3672C1.82161 33.4505 2.16927 33.5547 2.71094 33.6797L3.51562 33.8633C3.90365 33.9518 4.20312 34.0729 4.41406 34.2266C4.77865 34.4948 4.96094 34.8841 4.96094 35.3945C4.96094 36.0299 4.72917 36.4844 4.26562 36.7578C3.80469 37.0312 3.26823 37.168 2.65625 37.168C1.94271 37.168 1.38411 36.9857 0.980469 36.6211C0.576823 36.2591 0.378906 35.7682 0.386719 35.1484H1.11719ZM7.46484 32.6953C7.9362 32.6953 8.31901 32.8099 8.61328 33.0391C8.91016 33.2682 9.08854 33.6628 9.14844 34.2227H8.46484C8.42318 33.9648 8.32812 33.7513 8.17969 33.582C8.03125 33.4102 7.79297 33.3242 7.46484 33.3242C7.01693 33.3242 6.69661 33.543 6.50391 33.9805C6.37891 34.2643 6.31641 34.6146 6.31641 35.0312C6.31641 35.4505 6.40495 35.8034 6.58203 36.0898C6.75911 36.3763 7.03776 36.5195 7.41797 36.5195C7.70964 36.5195 7.9401 36.431 8.10938 36.2539C8.28125 36.0742 8.39974 35.8294 8.46484 35.5195H9.14844C9.07031 36.0742 8.875 36.4805 8.5625 36.7383C8.25 36.9935 7.85026 37.1211 7.36328 37.1211C6.81641 37.1211 6.38021 36.9219 6.05469 36.5234C5.72917 36.1224 5.56641 35.6224 5.56641 35.0234C5.56641 34.2891 5.74479 33.7174 6.10156 33.3086C6.45833 32.8997 6.91276 32.6953 7.46484 32.6953ZM10.3906 35.8867C10.3906 36.0898 10.4648 36.25 10.6133 36.3672C10.7617 36.4844 10.9375 36.543 11.1406 36.543C11.388 36.543 11.6276 36.4857 11.8594 36.3711C12.25 36.181 12.4453 35.8698 12.4453 35.4375V34.8711C12.3594 34.9258 12.2487 34.9714 12.1133 35.0078C11.9779 35.0443 11.8451 35.0703 11.7148 35.0859L11.2891 35.1406C11.0339 35.1745 10.8424 35.2279 10.7148 35.3008C10.4987 35.4232 10.3906 35.6185 10.3906 35.8867ZM12.0938 34.4648C12.2552 34.444 12.3633 34.3763 12.418 34.2617C12.4492 34.1992 12.4648 34.1094 12.4648 33.9922C12.4648 33.7526 12.3789 33.5794 12.207 33.4727C12.0378 33.3633 11.7943 33.3086 11.4766 33.3086C11.1094 33.3086 10.849 33.4076 10.6953 33.6055C10.6094 33.7148 10.5534 33.8776 10.5273 34.0938H9.87109C9.88411 33.5781 10.0508 33.2201 10.3711 33.0195C10.694 32.8164 11.0677 32.7148 11.4922 32.7148C11.9844 32.7148 12.3841 32.8086 12.6914 32.9961C12.9961 33.1836 13.1484 33.4753 13.1484 33.8711V36.2812C13.1484 36.3542 13.1628 36.4128 13.1914 36.457C13.2227 36.5013 13.2865 36.5234 13.3828 36.5234C13.4141 36.5234 13.4492 36.5221 13.4883 36.5195C13.5273 36.5143 13.569 36.5078 13.6133 36.5V37.0195C13.5039 37.0508 13.4206 37.0703 13.3633 37.0781C13.306 37.0859 13.2279 37.0898 13.1289 37.0898C12.8867 37.0898 12.7109 37.0039 12.6016 36.832C12.5443 36.7409 12.5039 36.612 12.4805 36.4453C12.3372 36.6328 12.1315 36.7956 11.8633 36.9336C11.5951 37.0716 11.2995 37.1406 10.9766 37.1406C10.5885 37.1406 10.2708 37.0234 10.0234 36.7891C9.77865 36.5521 9.65625 36.2565 9.65625 35.9023C9.65625 35.5143 9.77734 35.2135 10.0195 35C10.2617 34.7865 10.5794 34.6549 10.9727 34.6055L12.0938 34.4648ZM14.3047 32.8164H14.9727V33.4102C15.1706 33.1654 15.3802 32.9896 15.6016 32.8828C15.8229 32.776 16.069 32.7227 16.3398 32.7227C16.9336 32.7227 17.3346 32.9297 17.543 33.3438C17.6576 33.5703 17.7148 33.8945 17.7148 34.3164V37H17V34.3633C17 34.1081 16.9622 33.9023 16.8867 33.7461C16.7617 33.4857 16.5352 33.3555 16.207 33.3555C16.0404 33.3555 15.9036 33.3724 15.7969 33.4062C15.6042 33.4635 15.4349 33.5781 15.2891 33.75C15.1719 33.888 15.0951 34.0312 15.0586 34.1797C15.0247 34.3255 15.0078 34.5352 15.0078 34.8086V37H14.3047V32.8164ZM26.3281 36.9844L25.9375 37.457L25.0508 36.7812C24.8372 36.8984 24.6055 36.9922 24.3555 37.0625C24.1081 37.1328 23.8372 37.168 23.543 37.168C22.6523 37.168 21.9544 36.8763 21.4492 36.293C21.0039 35.7253 20.7812 35.0143 20.7812 34.1602C20.7812 33.3841 20.974 32.7201 21.3594 32.168C21.8542 31.4596 22.5859 31.1055 23.5547 31.1055C24.5677 31.1055 25.3177 31.431 25.8047 32.082C26.1849 32.5898 26.375 33.2396 26.375 34.0312C26.375 34.401 26.3294 34.7565 26.2383 35.0977C26.1003 35.6185 25.8672 36.043 25.5391 36.3711L26.3281 36.9844ZM23.6367 36.4727C23.7982 36.4727 23.9492 36.4622 24.0898 36.4414C24.2305 36.418 24.3529 36.3737 24.457 36.3086L23.8281 35.8164L24.2188 35.3359L24.9688 35.918C25.2057 35.6471 25.3659 35.3438 25.4492 35.0078C25.5352 34.6719 25.5781 34.3503 25.5781 34.043C25.5781 33.3685 25.401 32.8255 25.0469 32.4141C24.6953 32.0026 24.2135 31.7969 23.6016 31.7969C22.9818 31.7969 22.4909 31.9948 22.1289 32.3906C21.7669 32.7839 21.5859 33.3906 21.5859 34.2109C21.5859 34.901 21.7591 35.4505 22.1055 35.8594C22.4544 36.2682 22.9648 36.4727 23.6367 36.4727ZM29.9727 33.8906C30.3372 33.8906 30.625 33.8177 30.8359 33.6719C31.0495 33.526 31.1562 33.263 31.1562 32.8828C31.1562 32.474 31.0078 32.1953 30.7109 32.0469C30.5521 31.9688 30.3398 31.9297 30.0742 31.9297H28.1758V33.8906H29.9727ZM27.3984 31.2617H30.0547C30.4922 31.2617 30.8529 31.3255 31.1367 31.4531C31.6758 31.6979 31.9453 32.1497 31.9453 32.8086C31.9453 33.1523 31.8737 33.4336 31.7305 33.6523C31.5898 33.8711 31.3919 34.0469 31.1367 34.1797C31.3607 34.2708 31.5286 34.3906 31.6406 34.5391C31.7552 34.6875 31.819 34.9284 31.832 35.2617L31.8594 36.0312C31.8672 36.25 31.8854 36.4128 31.9141 36.5195C31.9609 36.7018 32.0443 36.819 32.1641 36.8711V37H31.2109C31.1849 36.9505 31.1641 36.8867 31.1484 36.8086C31.1328 36.7305 31.1198 36.5794 31.1094 36.3555L31.0625 35.3984C31.0443 35.0234 30.9049 34.7721 30.6445 34.6445C30.4961 34.5742 30.263 34.5391 29.9453 34.5391H28.1758V37H27.3984V31.2617ZM37.7305 31.1055C38.457 31.1055 39.0208 31.2969 39.4219 31.6797C39.8229 32.0625 40.0456 32.4974 40.0898 32.9844H39.332C39.2461 32.6146 39.0742 32.3216 38.8164 32.1055C38.5612 31.8893 38.2018 31.7812 37.7383 31.7812C37.1732 31.7812 36.7161 31.9805 36.3672 32.3789C36.0208 32.7747 35.8477 33.3828 35.8477 34.2031C35.8477 34.875 36.0039 35.4206 36.3164 35.8398C36.6315 36.2565 37.1003 36.4648 37.7227 36.4648C38.2956 36.4648 38.7318 36.2448 39.0312 35.8047C39.1901 35.5729 39.3086 35.2682 39.3867 34.8906H40.1445C40.0768 35.4948 39.8529 36.0013 39.4727 36.4102C39.0169 36.9023 38.4023 37.1484 37.6289 37.1484C36.9622 37.1484 36.4023 36.9466 35.9492 36.543C35.3529 36.0091 35.0547 35.1849 35.0547 34.0703C35.0547 33.224 35.2786 32.5299 35.7266 31.9883C36.2109 31.3997 36.8789 31.1055 37.7305 31.1055ZM42.6602 36.5469C43.1263 36.5469 43.4453 36.3711 43.6172 36.0195C43.7917 35.6654 43.8789 35.2721 43.8789 34.8398C43.8789 34.4492 43.8164 34.1315 43.6914 33.8867C43.4935 33.5013 43.1523 33.3086 42.668 33.3086C42.2383 33.3086 41.9258 33.4727 41.7305 33.8008C41.5352 34.1289 41.4375 34.5247 41.4375 34.9883C41.4375 35.4336 41.5352 35.8047 41.7305 36.1016C41.9258 36.3984 42.2357 36.5469 42.6602 36.5469ZM42.6875 32.6953C43.2266 32.6953 43.6823 32.875 44.0547 33.2344C44.4271 33.5938 44.6133 34.1224 44.6133 34.8203C44.6133 35.4948 44.4492 36.0521 44.1211 36.4922C43.793 36.9323 43.2839 37.1523 42.5938 37.1523C42.0182 37.1523 41.5612 36.9583 41.2227 36.5703C40.8841 36.1797 40.7148 35.6562 40.7148 35C40.7148 34.2969 40.8932 33.737 41.25 33.3203C41.6068 32.9036 42.0859 32.6953 42.6875 32.6953ZM45.8984 34.957C45.8984 35.4049 45.9935 35.7799 46.1836 36.082C46.3737 36.3841 46.6784 36.5352 47.0977 36.5352C47.4232 36.5352 47.6901 36.3958 47.8984 36.1172C48.1094 35.8359 48.2148 35.4336 48.2148 34.9102C48.2148 34.3815 48.1068 33.9909 47.8906 33.7383C47.6745 33.4831 47.4076 33.3555 47.0898 33.3555C46.7357 33.3555 46.4479 33.4909 46.2266 33.7617C46.0078 34.0326 45.8984 34.431 45.8984 34.957ZM46.957 32.7422C47.2773 32.7422 47.5456 32.8099 47.7617 32.9453C47.8867 33.0234 48.0286 33.1602 48.1875 33.3555V31.2422H48.8633V37H48.2305V36.418C48.0664 36.6758 47.8724 36.862 47.6484 36.9766C47.4245 37.0911 47.168 37.1484 46.8789 37.1484C46.4128 37.1484 46.0091 36.9531 45.668 36.5625C45.3268 36.1693 45.1562 35.6471 45.1562 34.9961C45.1562 34.3867 45.3112 33.8594 45.6211 33.4141C45.9336 32.9661 46.3789 32.7422 46.957 32.7422ZM51.6484 32.7227C51.9453 32.7227 52.2331 32.793 52.5117 32.9336C52.7904 33.0716 53.0026 33.2513 53.1484 33.4727C53.2891 33.6836 53.3828 33.9297 53.4297 34.2109C53.4714 34.4036 53.4922 34.7109 53.4922 35.1328H50.4258C50.4388 35.5573 50.5391 35.8984 50.7266 36.1562C50.9141 36.4115 51.2044 36.5391 51.5977 36.5391C51.9648 36.5391 52.2578 36.418 52.4766 36.1758C52.6016 36.0352 52.6901 35.8724 52.7422 35.6875H53.4336C53.4154 35.8411 53.3542 36.013 53.25 36.2031C53.1484 36.3906 53.0339 36.5443 52.9062 36.6641C52.6927 36.8724 52.4284 37.013 52.1133 37.0859C51.944 37.1276 51.7526 37.1484 51.5391 37.1484C51.0182 37.1484 50.5768 36.9596 50.2148 36.582C49.8529 36.2018 49.6719 35.6706 49.6719 34.9883C49.6719 34.3164 49.8542 33.7708 50.2188 33.3516C50.5833 32.9323 51.0599 32.7227 51.6484 32.7227ZM52.7695 34.5742C52.7409 34.2695 52.6745 34.026 52.5703 33.8438C52.3776 33.5052 52.056 33.3359 51.6055 33.3359C51.2826 33.3359 51.0117 33.4531 50.793 33.6875C50.5742 33.9193 50.4583 34.2148 50.4453 34.5742H52.7695Z" fill="white"/>
<g clip-path="url(#clip0_7858_7315)">
<path d="M39 18.0556V25H14V18.0556H16.7778V22.2222H36.2222V18.0556H39ZM14 11.1111H39V13.8889H14V11.1111ZM39 6.94444H36.2222V2.77778H16.7778V6.94444H14V0H39V6.94444Z" fill="white"/>
</g>
<defs>
<clipPath id="clip0_7858_7315">
<rect width="25" height="25" fill="white" transform="translate(14)"/>
</clipPath>
</defs>
</svg>
