<svg width="40" height="32" viewBox="0 0 40 32" fill="none" xmlns="http://www.w3.org/2000/svg">
<rect x="0.368042" y="0.105469" width="38.99" height="31.7207" rx="5.28678" fill="#C06A87"/>
<path fill-rule="evenodd" clip-rule="evenodd" d="M18.9842 9.03025C20.1686 9.81369 21.0331 11.0029 21.4184 12.3791C21.8037 13.7552 21.684 15.2256 21.0812 16.5196C22.1574 17.3567 23.4675 17.8298 24.8252 17.8717C26.1829 17.9135 27.5191 17.522 28.6439 16.7529C29.7687 15.9837 30.6248 14.8759 31.0906 13.5871C31.5564 12.2982 31.6081 10.8939 31.2385 9.5736C30.8688 8.25334 30.0965 7.08438 29.0314 6.23288C27.9664 5.38138 26.6627 4.89067 25.3056 4.8305C23.9486 4.77033 22.6074 5.14376 21.4725 5.89772C20.3377 6.65168 19.467 7.74779 18.9842 9.03025ZM25.0251 10.7461C25.5748 10.7461 26.021 11.1967 26.021 11.752V14.6396C26.021 14.9064 25.9161 15.1623 25.7293 15.351C25.5425 15.5396 25.2892 15.6456 25.0251 15.6456C24.7609 15.6456 24.5076 15.5396 24.3208 15.351C24.1341 15.1623 24.0291 14.9064 24.0291 14.6396V11.752C24.0291 11.1967 24.4753 10.7461 25.0251 10.7461ZM23.857 8.20292C23.857 8.96103 24.4785 9.29422 24.9167 9.3425L25.0282 9.34894C25.4633 9.34894 26.1979 9.02703 26.1979 8.20292C26.1979 7.4432 25.5764 7.11002 25.1382 7.06173L25.0267 7.05529C24.5916 7.05529 23.857 7.37721 23.857 8.20292ZM15.7574 17.9216C16.2745 17.9321 16.7885 17.8384 17.2693 17.6458C17.7501 17.4532 18.188 17.1657 18.5574 16.8C18.9268 16.4344 19.2203 15.9979 19.4206 15.5163C19.621 15.0346 19.7242 14.5174 19.7242 13.995C19.7242 13.4726 19.621 12.9554 19.4206 12.4737C19.2203 11.9921 18.9268 11.5556 18.5574 11.19C18.188 10.8243 17.7501 10.5368 17.2693 10.3442C16.7885 10.1516 16.2745 10.0578 15.7574 10.0684C14.7401 10.0892 13.7713 10.5121 13.0591 11.2462C12.3469 11.9803 11.948 12.9672 11.948 13.995C11.948 15.0228 12.3469 16.0097 13.0591 16.7438C13.7713 17.4779 14.7401 17.9008 15.7574 17.9216ZM9.27992 25.7731C9.27727 24.13 9.88672 22.5461 10.9871 21.3361C12.0876 20.1261 13.5984 19.3786 15.2194 19.2421C16.8404 19.1057 18.4529 19.5902 19.7364 20.5995C21.02 21.6089 21.8806 23.069 22.1472 24.6898H30.3648C30.6818 24.6898 30.9857 24.817 31.2099 25.0434C31.434 25.2698 31.5599 25.5769 31.5599 25.897C31.5599 26.2172 31.434 26.5243 31.2099 26.7506C30.9857 26.977 30.6818 27.1042 30.3648 27.1042H10.5069C10.2043 27.1041 9.91305 26.9881 9.69184 26.7796C9.47063 26.5711 9.33595 26.2856 9.31497 25.9807C9.29262 25.9138 9.28132 25.8437 9.28151 25.7731H9.27992Z" fill="white"/>
</svg>
