<svg width="40" height="32" viewBox="0 0 40 32" fill="none" xmlns="http://www.w3.org/2000/svg">
<rect x="0.368042" y="0.175781" width="38.99" height="31.7207" rx="5.28678" fill="#F2727F"/>
<g clip-path="url(#clip0_4807_10700)">
<path d="M30.4211 14.5273C30.3758 14.355 30.2639 14.2078 30.1101 14.118L20.7545 8.77294C20.652 8.71699 20.5371 8.68767 20.4203 8.68767C20.3036 8.68767 20.1887 8.71699 20.0861 8.77294L10.7313 14.12C10.5778 14.2095 10.4658 14.3558 10.4195 14.5273C10.3731 14.6988 10.3962 14.8817 10.4837 15.0362C10.5401 15.1291 10.6183 15.2068 10.7114 15.2627C10.8046 15.3185 10.91 15.3509 11.0184 15.3569V25.3962C11.0189 25.5733 11.0895 25.7431 11.2148 25.8683C11.34 25.9936 11.5097 26.0642 11.6868 26.0647H15.3391C15.1655 25.8091 15.0724 25.5074 15.0718 25.1983V22.6421C15.0711 22.3723 15.1417 22.1071 15.2764 21.8733C15.4096 21.6403 15.6024 21.447 15.835 21.3132L17.905 20.1071C17.9831 20.0612 18.0718 20.0365 18.1623 20.0354C18.2529 20.0343 18.3421 20.0569 18.4213 20.1009C18.7953 20.3047 19.1959 20.4556 19.6114 20.5491C19.7056 20.5713 19.7919 20.6189 19.8609 20.6868C19.93 20.7546 19.9791 20.8401 20.0029 20.9339L20.4272 22.5794L20.863 20.9257C20.8872 20.8335 20.9358 20.7495 21.0037 20.6826C21.0717 20.6157 21.1564 20.5684 21.249 20.5457C21.6577 20.451 22.0516 20.3014 22.4201 20.1009C22.4994 20.0572 22.5887 20.0349 22.6793 20.0361C22.7695 20.036 22.8581 20.0595 22.9364 20.1043L25.0064 21.3105C25.239 21.4443 25.4318 21.6376 25.565 21.8706C25.6997 22.1043 25.7703 22.3696 25.7696 22.6394V25.1963C25.769 25.5053 25.6759 25.8071 25.5022 26.0627H29.16C29.3371 26.0622 29.5067 25.9915 29.6318 25.8662C29.7569 25.741 29.8274 25.5712 29.8277 25.3941V15.3637C29.937 15.3578 30.0431 15.3248 30.1365 15.2676C30.2298 15.2104 30.3075 15.1309 30.3624 15.0362C30.448 14.8809 30.4691 14.6981 30.4211 14.5273ZM22.7768 18.4875C22.466 18.9574 22.0229 19.3244 21.5034 19.5422C20.9849 19.7584 20.4136 19.8148 19.8628 19.7042C19.3119 19.5936 18.8067 19.321 18.4117 18.9214C18.1147 18.621 17.8874 18.2588 17.7461 17.8607C17.6047 17.4625 17.5527 17.0381 17.5938 16.6176C17.6349 16.1971 17.768 15.7908 17.9837 15.4275C18.1995 15.0642 18.4925 14.7529 18.8421 14.5157C19.3868 14.1478 20.043 13.9821 20.697 14.0474C21.351 14.1127 21.9616 14.4048 22.4228 14.8732C22.8881 15.3435 23.1773 15.9597 23.2418 16.6182C23.3063 17.2766 23.1421 17.9373 22.7768 18.4889V18.4875ZM30.4232 11.8531C30.3999 11.7683 30.3606 11.6889 30.3072 11.6191C30.2534 11.5492 30.1865 11.4906 30.1101 11.4465L29.0741 10.8584C29.0923 10.8044 29.1036 10.7482 29.1075 10.6913V7.3485C29.197 7.35136 29.2862 7.33619 29.3698 7.3039C29.4533 7.2716 29.5295 7.22284 29.5939 7.16051C29.6582 7.09818 29.7094 7.02355 29.7443 6.94105C29.7792 6.85855 29.7972 6.76987 29.7972 6.68028C29.7972 6.59068 29.7792 6.502 29.7443 6.41951C29.7094 6.33701 29.6582 6.26238 29.5939 6.20004C29.5295 6.13771 29.4533 6.08895 29.3698 6.05666C29.2862 6.02436 29.197 6.0092 29.1075 6.01206H25.0978C24.9243 6.01761 24.7598 6.09044 24.639 6.21514C24.5182 6.33985 24.4507 6.50666 24.4507 6.68028C24.4507 6.85389 24.5182 7.0207 24.639 7.14541C24.7598 7.27012 24.9243 7.34295 25.0978 7.3485V8.58874L20.7545 6.09938C20.652 6.04343 20.5371 6.01411 20.4203 6.01411C20.3036 6.01411 20.1887 6.04343 20.0861 6.09938L10.7313 11.4465C10.5771 11.5351 10.4643 11.6813 10.4179 11.853C10.3715 12.0247 10.3951 12.2078 10.4837 12.362C10.5722 12.5163 10.7184 12.629 10.8901 12.6754C11.0617 12.7219 11.2448 12.6982 11.399 12.6096L20.4203 7.44946L29.4417 12.6096C29.5182 12.6535 29.6025 12.682 29.69 12.6936C29.7771 12.7045 29.8656 12.6985 29.9505 12.6758C30.0356 12.6527 30.1153 12.6131 30.1851 12.5592C30.3257 12.4504 30.4176 12.2906 30.4409 12.1144C30.4521 12.0269 30.4461 11.9382 30.4232 11.8531Z" fill="white"/>
</g>
<defs>
<clipPath id="clip0_4807_10700">
<rect width="20.052" height="20.052" fill="white" transform="translate(10.3939 6.01172)"/>
</clipPath>
</defs>
</svg>
