<svg width="40" height="32" viewBox="0 0 40 32" fill="none" xmlns="http://www.w3.org/2000/svg">
<rect x="0.368042" y="-0.0078125" width="38.99" height="31.7207" rx="5.28678" fill="#F1D15B"/>
<path d="M13.0437 17.7966C13.5939 17.5886 13.8778 17.7075 16.0891 17.6734C16.5882 17.6734 17.0432 17.8654 17.3844 18.1793C17.7256 17.8654 18.1806 17.6734 18.6797 17.6734H21.0499C21.549 17.6734 22.0039 17.8654 22.3452 18.1793C22.6864 17.8654 23.1414 17.6734 23.6405 17.6734C25.8555 17.7076 26.1372 17.5893 26.6858 17.7966V13.7461H13.0437V17.7966Z" fill="white"/>
<path d="M27.9244 16.4297V20.233H26.6842V19.5853C26.6842 19.213 26.3813 18.9101 26.009 18.9101H23.6388C23.2665 18.9101 22.9636 19.213 22.9636 19.5853V20.233H21.7234V19.5853C21.7234 19.213 21.4205 18.9101 21.0482 18.9101H18.6781C18.3058 18.9101 18.0029 19.213 18.0029 19.5853V20.233H16.7627V19.5853C16.7627 19.213 16.4598 18.9101 16.0875 18.9101H13.7173C13.345 18.9101 13.0421 19.213 13.0421 19.5853V20.233H11.8019V16.4297H9.28015V23.9535H10.5617V26.4339H12.422L13.0421 23.9535H26.6817L27.3018 26.4339H29.1621V23.9535H30.4462C30.4462 22.0814 30.4462 17.9497 30.4462 16.4297H27.9244Z" fill="white"/>
<path d="M27.9244 10.5404C27.9244 9.21488 26.9951 8.10309 25.754 7.82024V5.26953H24.5138V7.82024C23.2727 8.10309 22.3435 9.21488 22.3435 10.5404V11.4705H27.9244V10.5404Z" fill="white"/>
<path d="M16.3677 5.26953H19.6955V7.75071H16.3677V5.26953Z" fill="white"/>
<path d="M11.8002 5.26953H15.128V7.75071H11.8002V5.26953Z" fill="white"/>
<path d="M11.8002 8.99219H15.128V11.4718H11.8002V8.99219Z" fill="white"/>
<path d="M16.3677 8.99219H19.6955V11.4718H16.3677V8.99219Z" fill="white"/>
</svg>
