<svg width="40" height="33" viewBox="0 0 40 33" fill="none" xmlns="http://www.w3.org/2000/svg">
<rect x="0.368042" y="0.585938" width="38.99" height="31.7207" rx="5.28678" fill="#FFB6A3"/>
<g clip-path="url(#clip0_4807_10635)">
<path d="M20.8242 23.9058C20.8242 25.9337 22.466 27.5834 24.4839 27.5834C26.5019 27.5834 28.1437 25.9337 28.1437 23.9058C28.1437 21.8879 26.5019 20.2461 24.4839 20.2461C22.466 20.2461 20.8242 21.8879 20.8242 23.9058ZM23.1326 23.4686L23.9539 24.2898L25.9721 22.2716L26.8952 23.1947L23.9539 26.1361L22.2095 24.3917L23.1326 23.4686Z" fill="white"/>
<path d="M9.27991 5.30469V27.5847H21.1369C20.143 26.6729 19.5186 25.3618 19.5186 23.9071C19.5186 21.831 20.7996 20.0487 22.6126 19.3083V5.30469H9.27991ZM17.9657 25.8264H14.1231V24.5209H17.9657V25.8264ZM18.6085 11.9945H17.3031V11.945C17.3031 11.4587 16.9075 11.0631 16.4212 11.0631H15.5363C15.05 11.0631 14.6544 11.4587 14.6544 11.945V11.9667C14.6544 12.453 15.05 12.8486 15.5363 12.8486H16.4212C17.6273 12.8486 18.6085 13.8298 18.6085 15.0359C18.6085 16.1711 17.7393 17.1067 16.6314 17.213V18.6685H15.326V17.213C14.2182 17.1067 13.3489 16.1711 13.3489 15.036V14.9709H14.6544V15.036C14.6544 15.5222 15.05 15.9178 15.5363 15.9178H16.4212C16.9075 15.9178 17.3031 15.5222 17.3031 15.036C17.3031 14.5497 16.9075 14.1541 16.4212 14.1541H15.5363C14.3302 14.1541 13.3489 13.1728 13.3489 11.9667V11.945C13.3489 10.8098 14.2181 9.87418 15.326 9.768V8.31244H16.6314V9.76795C17.7393 9.87413 18.6085 10.8098 18.6085 11.945V11.9945Z" fill="white"/>
<path d="M28.2871 12.8524L29.2102 13.7755L31.5608 11.4249L29.2102 9.07422L28.2871 9.99732L29.0619 10.7722H24.8555V12.0776H29.0619L28.2871 12.8524Z" fill="white"/>
<path d="M28.269 14.5833L27.3459 13.6602L24.9952 16.0108L27.3459 18.3615L28.269 17.4384L27.4942 16.6636H31.5603V15.3581H27.4942L28.269 14.5833Z" fill="white"/>
</g>
<defs>
<clipPath id="clip0_4807_10635">
<rect width="22.28" height="22.28" fill="white" transform="translate(9.27991 5.30469)"/>
</clipPath>
</defs>
</svg>
