<svg width="16" height="11" viewBox="0 0 16 11" fill="none" xmlns="http://www.w3.org/2000/svg">
<path d="M0.865234 10.8234V6.59747C0.865234 6.28053 0.933025 5.99293 1.06861 5.73467C1.20419 5.47642 1.38291 5.24752 1.60477 5.04796V3.07586C1.60477 2.48892 1.82047 1.99003 2.25187 1.57917C2.68327 1.16832 3.20711 0.962891 3.82339 0.962891H6.78154C7.06503 0.962891 7.33003 1.0129 7.57655 1.11291C7.82306 1.21292 8.05108 1.35074 8.26062 1.52635C8.47016 1.35027 8.69818 1.21246 8.94469 1.11291C9.19121 1.01337 9.45621 0.96336 9.7397 0.962891H12.6979C13.3141 0.962891 13.838 1.16832 14.2694 1.57917C14.7008 1.99003 14.9165 2.48892 14.9165 3.07586V5.04796C15.1383 5.24752 15.3171 5.47642 15.4526 5.73467C15.5882 5.99293 15.656 6.28053 15.656 6.59747V10.8234H14.1769V9.41476H2.34431V10.8234H0.865234ZM9.00016 4.4845H13.4374V3.07586C13.4374 2.8763 13.3664 2.70891 13.2244 2.57368C13.0824 2.43845 12.9069 2.37107 12.6979 2.37154H9.7397C9.53016 2.37154 9.3544 2.43915 9.21241 2.57438C9.07041 2.70961 8.99967 2.87677 9.00016 3.07586V4.4845ZM3.08385 4.4845H7.52108V3.07586C7.52108 2.8763 7.45009 2.70891 7.30809 2.57368C7.1661 2.43845 6.99059 2.37107 6.78154 2.37154H3.82339C3.61385 2.37154 3.43809 2.43915 3.2961 2.57438C3.15411 2.70961 3.08336 2.87677 3.08385 3.07586V4.4845ZM2.34431 8.00611H14.1769V6.59747C14.1769 6.39791 14.1059 6.23052 13.9639 6.09529C13.8219 5.96006 13.6464 5.89268 13.4374 5.89315H3.08385C2.87431 5.89315 2.69855 5.96076 2.55656 6.09599C2.41457 6.23122 2.34382 6.39838 2.34431 6.59747V8.00611Z" fill="#92A3B4"/>
</svg>
