<svg width="15" height="17" viewBox="0 0 15 17" fill="none" xmlns="http://www.w3.org/2000/svg">
<path d="M7.46821 0.386719C9.21166 0.386719 10.8837 1.09931 12.1165 2.36773C13.3493 3.63615 14.0419 5.3565 14.0419 7.15032C14.0419 10.0084 12.09 13.1231 8.23682 16.5278C8.02257 16.7172 7.7494 16.8212 7.46695 16.8209C7.18449 16.8207 6.9115 16.7162 6.69757 16.5264L6.44271 16.2989C2.76011 12.983 0.894531 9.94455 0.894531 7.15032C0.894531 5.3565 1.58711 3.63615 2.81992 2.36773C4.05272 1.09931 5.72476 0.386719 7.46821 0.386719ZM7.46821 4.54893C6.79765 4.54893 6.15456 4.82301 5.6804 5.31086C5.20625 5.79872 4.93987 6.46039 4.93987 7.15032C4.93987 7.84025 5.20625 8.50192 5.6804 8.98977C6.15456 9.47763 6.79765 9.7517 7.46821 9.7517C8.13876 9.7517 8.78186 9.47763 9.25601 8.98977C9.73017 8.50192 9.99654 7.84025 9.99654 7.15032C9.99654 6.46039 9.73017 5.79872 9.25601 5.31086C8.78186 4.82301 8.13876 4.54893 7.46821 4.54893Z" fill="#315D80"/>
</svg>
