<svg width="14" height="14" viewBox="0 0 14 14" fill="none" xmlns="http://www.w3.org/2000/svg">
<path d="M12.5134 8.56419V9.22156C12.5134 10.4771 11.81 11.5684 10.7714 12.1206L11.1987 13.8231H9.88395L9.55527 12.5084H3.63896L3.31028 13.8231H1.99554L2.42283 12.1206C1.8964 11.8413 1.45604 11.4238 1.14911 10.913C0.842174 10.4023 0.68027 9.81747 0.680805 9.22156V8.56419H0.0234375V7.24946H11.8561V2.64788C11.8561 2.47354 11.7868 2.30634 11.6635 2.18306C11.5402 2.05977 11.373 1.99052 11.1987 1.99052C10.87 1.99052 10.6202 2.21402 10.5413 2.50984C10.9555 2.86482 11.1987 3.39071 11.1987 3.96262H7.25448C7.25448 3.43959 7.46226 2.93797 7.8321 2.56813C8.20194 2.19829 8.70355 1.99052 9.22658 1.99052H9.33834C9.60786 1.22797 10.3375 0.675781 11.1987 0.675781C11.7217 0.675781 12.2233 0.883556 12.5932 1.2534C12.963 1.62324 13.1708 2.12485 13.1708 2.64788V8.56419H12.5134ZM11.1987 8.56419H1.99554V9.22156C1.99554 9.74459 2.20332 10.2462 2.57316 10.616C2.943 10.9859 3.44461 11.1937 3.96764 11.1937H9.22658C9.74962 11.1937 10.2512 10.9859 10.6211 10.616C10.9909 10.2462 11.1987 9.74459 11.1987 9.22156V8.56419Z" fill="#92A3B4"/>
</svg>
