<svg width="12" height="18" viewBox="0 0 12 18" fill="none" xmlns="http://www.w3.org/2000/svg">
<path d="M7.80312 0.286696C7.23168 0.108121 6.62453 0.000976562 5.99952 0.000976562C4.1602 0.000976562 2.51732 0.840277 1.41016 2.14387L4.24949 4.51891L7.80312 0.286696Z" fill="#1A73E8"/>
<path d="M1.41074 2.1416C0.535723 3.17733 0 4.5345 0 5.99881C0 7.12383 0.232147 8.03456 0.589295 8.856L4.23221 4.5345L1.41074 2.1416Z" fill="#EA4335"/>
<path d="M6.00003 3.69523C7.26791 3.69523 8.28578 4.7131 8.28578 5.98098C8.28578 6.55242 8.08935 7.07028 7.75006 7.46315C7.75006 7.46315 9.55366 5.3024 11.3215 3.21308C10.5894 1.8202 9.33937 0.748752 7.82149 0.266602L4.25 4.51667C4.66072 4.01666 5.28573 3.69523 6.00003 3.69523Z" fill="#4285F4"/>
<path d="M6.00037 8.2862C4.73249 8.2862 3.71462 7.26832 3.71462 6.00044C3.71462 5.44686 3.91105 4.929 4.25034 4.53613L0.607422 8.85763C1.21457 10.2327 2.25031 11.3398 3.32175 12.7327L7.7504 7.46475C7.33968 7.96476 6.69681 8.2862 6.00037 8.2862Z" fill="#FBBC04"/>
<path d="M7.65967 14.1781C9.6597 11.053 11.999 9.62441 11.999 5.99935C11.999 4.99933 11.749 4.07074 11.3204 3.23145L3.32031 12.7316C3.6596 13.178 3.99889 13.6423 4.33819 14.1781C5.55249 16.0531 5.2132 17.1781 5.99893 17.1781C6.78466 17.1781 6.44536 16.0531 7.65967 14.1781Z" fill="#34A853"/>
</svg>
