<svg width="66" height="19" viewBox="0 0 66 19" fill="none" xmlns="http://www.w3.org/2000/svg">
<path d="M12.9141 5.39355V10.7139C12.9141 11.3389 13.0312 11.8584 13.2656 12.2725C13.6133 12.8975 14.1992 13.21 15.0234 13.21C16.0117 13.21 16.6836 12.8721 17.0391 12.1963C17.2305 11.8291 17.3262 11.335 17.3262 10.7139V5.39355H18.5098V10.2275C18.5098 11.2861 18.3672 12.1006 18.082 12.6709C17.5586 13.71 16.5703 14.2295 15.1172 14.2295C13.6641 14.2295 12.6777 13.71 12.1582 12.6709C11.873 12.1006 11.7305 11.2861 11.7305 10.2275V5.39355H12.9141ZM20.1797 7.72559H21.1816V8.61621C21.4785 8.24902 21.793 7.98535 22.125 7.8252C22.457 7.66504 22.8262 7.58496 23.2324 7.58496C24.123 7.58496 24.7246 7.89551 25.0371 8.5166C25.209 8.85645 25.2949 9.34277 25.2949 9.97559V14.001H24.2227V10.0459C24.2227 9.66309 24.166 9.35449 24.0527 9.12012C23.8652 8.72949 23.5254 8.53418 23.0332 8.53418C22.7832 8.53418 22.5781 8.55957 22.418 8.61035C22.1289 8.69629 21.875 8.86816 21.6562 9.12598C21.4805 9.33301 21.3652 9.54785 21.3105 9.77051C21.2598 9.98926 21.2344 10.3037 21.2344 10.7139V14.001H20.1797V7.72559ZM27.375 7.72559L29.0508 12.835L30.8027 7.72559H31.957L29.5898 14.001H28.4648L26.1504 7.72559H27.375ZM35.4727 7.58496C35.918 7.58496 36.3496 7.69043 36.7676 7.90137C37.1855 8.1084 37.5039 8.37793 37.7227 8.70996C37.9336 9.02637 38.0742 9.39551 38.1445 9.81738C38.207 10.1064 38.2383 10.5674 38.2383 11.2002H33.6387C33.6582 11.8369 33.8086 12.3486 34.0898 12.7354C34.3711 13.1182 34.8066 13.3096 35.3965 13.3096C35.9473 13.3096 36.3867 13.1279 36.7148 12.7646C36.9023 12.5537 37.0352 12.3096 37.1133 12.0322H38.1504C38.123 12.2627 38.0312 12.5205 37.875 12.8057C37.7227 13.0869 37.5508 13.3174 37.3594 13.4971C37.0391 13.8096 36.6426 14.0205 36.1699 14.1299C35.916 14.1924 35.6289 14.2236 35.3086 14.2236C34.5273 14.2236 33.8652 13.9404 33.3223 13.374C32.7793 12.8037 32.5078 12.0068 32.5078 10.9834C32.5078 9.97559 32.7812 9.15723 33.3281 8.52832C33.875 7.89941 34.5898 7.58496 35.4727 7.58496ZM37.1543 10.3623C37.1113 9.90527 37.0117 9.54004 36.8555 9.2666C36.5664 8.75879 36.084 8.50488 35.4082 8.50488C34.9238 8.50488 34.5176 8.68066 34.1895 9.03223C33.8613 9.37988 33.6875 9.82324 33.668 10.3623H37.1543ZM39.5684 7.72559H40.5703V8.80957C40.6523 8.59863 40.8535 8.34277 41.1738 8.04199C41.4941 7.7373 41.8633 7.58496 42.2812 7.58496C42.3008 7.58496 42.334 7.58691 42.3809 7.59082C42.4277 7.59473 42.5078 7.60254 42.6211 7.61426V8.72754C42.5586 8.71582 42.5 8.70801 42.4453 8.7041C42.3945 8.7002 42.3379 8.69824 42.2754 8.69824C41.7441 8.69824 41.3359 8.87012 41.0508 9.21387C40.7656 9.55371 40.623 9.94629 40.623 10.3916V14.001H39.5684V7.72559ZM43.5352 7.75488H44.6074V14.001H43.5352V7.75488ZM43.5352 5.39355H44.6074V6.58887H43.5352V5.39355ZM46.4707 6.77051C46.4863 6.33301 46.5625 6.0127 46.6992 5.80957C46.9453 5.4502 47.4199 5.27051 48.123 5.27051C48.1895 5.27051 48.2578 5.27246 48.3281 5.27637C48.3984 5.28027 48.4785 5.28613 48.5684 5.29395V6.25488C48.459 6.24707 48.3789 6.24316 48.3281 6.24316C48.2812 6.23926 48.2363 6.2373 48.1934 6.2373C47.873 6.2373 47.6816 6.32129 47.6191 6.48926C47.5566 6.65332 47.5254 7.0752 47.5254 7.75488H48.5684V8.58691H47.5137V14.001H46.4707V8.58691H45.5977V7.75488H46.4707V6.77051ZM49.582 6.58887V5.39355H50.6367V6.58887H49.582ZM49.582 7.75488H50.6367V14.001H49.582V7.75488ZM54.8203 7.58496C55.2656 7.58496 55.6973 7.69043 56.1152 7.90137C56.5332 8.1084 56.8516 8.37793 57.0703 8.70996C57.2812 9.02637 57.4219 9.39551 57.4922 9.81738C57.5547 10.1064 57.5859 10.5674 57.5859 11.2002H52.9863C53.0059 11.8369 53.1562 12.3486 53.4375 12.7354C53.7188 13.1182 54.1543 13.3096 54.7441 13.3096C55.2949 13.3096 55.7344 13.1279 56.0625 12.7646C56.25 12.5537 56.3828 12.3096 56.4609 12.0322H57.498C57.4707 12.2627 57.3789 12.5205 57.2227 12.8057C57.0703 13.0869 56.8984 13.3174 56.707 13.4971C56.3867 13.8096 55.9902 14.0205 55.5176 14.1299C55.2637 14.1924 54.9766 14.2236 54.6562 14.2236C53.875 14.2236 53.2129 13.9404 52.6699 13.374C52.127 12.8037 51.8555 12.0068 51.8555 10.9834C51.8555 9.97559 52.1289 9.15723 52.6758 8.52832C53.2227 7.89941 53.9375 7.58496 54.8203 7.58496ZM56.502 10.3623C56.459 9.90527 56.3594 9.54004 56.2031 9.2666C55.9141 8.75879 55.4316 8.50488 54.7559 8.50488C54.2715 8.50488 53.8652 8.68066 53.5371 9.03223C53.209 9.37988 53.0352 9.82324 53.0156 10.3623H56.502ZM59.5547 10.9365C59.5547 11.6084 59.6973 12.1709 59.9824 12.624C60.2676 13.0771 60.7246 13.3037 61.3535 13.3037C61.8418 13.3037 62.2422 13.0947 62.5547 12.6768C62.8711 12.2549 63.0293 11.6514 63.0293 10.8662C63.0293 10.0732 62.8672 9.4873 62.543 9.1084C62.2188 8.72559 61.8184 8.53418 61.3418 8.53418C60.8105 8.53418 60.3789 8.7373 60.0469 9.14355C59.7188 9.5498 59.5547 10.1475 59.5547 10.9365ZM61.1426 7.61426C61.623 7.61426 62.0254 7.71582 62.3496 7.91895C62.5371 8.03613 62.75 8.24121 62.9883 8.53418V5.36426H64.002V14.001H63.0527V13.1279C62.8066 13.5146 62.5156 13.7939 62.1797 13.9658C61.8438 14.1377 61.459 14.2236 61.0254 14.2236C60.3262 14.2236 59.7207 13.9307 59.209 13.3447C58.6973 12.7549 58.4414 11.9717 58.4414 10.9951C58.4414 10.0811 58.6738 9.29004 59.1387 8.62207C59.6074 7.9502 60.2754 7.61426 61.1426 7.61426Z" fill="#F2727F"/>
<path d="M0.357895 10.7365C0.357895 8.46333 2.20063 6.62059 4.47376 6.62059C6.74689 6.62059 8.58962 8.46333 8.58962 10.7365C8.58962 13.0096 6.74689 14.8523 4.47376 14.8523C2.20063 14.8523 0.357895 13.0096 0.357895 10.7365Z" stroke="#F4B7C5" stroke-width="0.715789"/>
<path d="M4.39309 13.0417H5.43462V14.0518H4.39309V13.0417ZM3.11739 10.5252C3.14535 9.86117 3.37719 9.39051 3.81291 9.11323C4.08786 8.93615 4.42571 8.8476 4.82648 8.8476C5.35307 8.8476 5.78995 8.97343 6.13713 9.22507C6.48664 9.47672 6.66139 9.84952 6.66139 10.3435C6.66139 10.6464 6.58566 10.9015 6.43421 11.1089C6.34567 11.2347 6.17558 11.3955 5.92393 11.5912L5.67578 11.7835C5.54064 11.8883 5.45093 12.0106 5.40666 12.1504C5.3787 12.239 5.36356 12.3765 5.36123 12.5629H4.41756C4.43154 12.1691 4.46882 11.8976 4.5294 11.7485C4.58998 11.5971 4.74609 11.4235 4.99774 11.2277L5.25288 11.0285C5.33676 10.9656 5.40433 10.8969 5.45559 10.8223C5.54879 10.6942 5.59539 10.5532 5.59539 10.3994C5.59539 10.2223 5.54297 10.0616 5.43812 9.9171C5.33559 9.7703 5.14686 9.69691 4.87192 9.69691C4.60163 9.69691 4.4094 9.78661 4.29523 9.96603C4.18339 10.1454 4.12747 10.3318 4.12747 10.5252H3.11739Z" fill="#F4B7C5"/>
</svg>
