<svg width="222" height="221" viewBox="0 0 222 221" fill="none" xmlns="http://www.w3.org/2000/svg">
<g clip-path="url(#clip0_9_27400)">
<path d="M27.75 27.625H55.5V55.25H27.75V27.625Z" fill="#315D80"/>
<path d="M27.75 165.75H55.5V193.375H27.75V165.75Z" fill="#315D80"/>
<path d="M138.75 0V27.625H124.875V41.4375H138.75V55.25H124.875H111H97.125V69.0625H111V82.875V96.6875H124.875H138.75V110.5H152.625V124.312H166.5V110.5H180.375V96.6875H166.5H152.625V82.875H208.125V96.6875H222V82.875V0H138.75ZM138.75 82.875H124.875V69.0625H138.75V82.875ZM208.125 69.0625H152.625V13.8125H208.125V69.0625Z" fill="#315D80"/>
<path d="M166.5 27.625H194.25V55.25H166.5V27.625Z" fill="#315D80"/>
<path d="M27.75 96.6875H13.875V82.875H27.75V96.6875H41.625V110.5H55.5V96.6875V82.875H83.25V55.25H97.125V41.4375H83.25V13.8125H97.125V0H83.25H0V82.875V96.6875V110.5H13.875V124.312H27.75V110.5V96.6875ZM13.875 13.8125H69.375V69.0625H13.875V13.8125Z" fill="#315D80"/>
<path d="M111 110.5V124.312H124.875V138.125H138.75H152.625V124.312H138.75V110.5H124.875H111Z" fill="#315D80"/>
<path d="M111 207.188H124.875V221H111V207.188Z" fill="#315D80"/>
<path d="M180.375 193.375V207.188H194.25H208.125V193.375H194.25H180.375Z" fill="#315D80"/>
<path d="M208.125 207.188H222V221H208.125V207.188Z" fill="#315D80"/>
<path d="M208.125 179.562H222V193.375H208.125V179.562Z" fill="#315D80"/>
<path d="M180.375 124.312V138.125H166.5H152.625V151.938H138.75H124.875V138.125H111H97.125V124.312H83.25V138.125H55.5V124.312H41.625H27.75V138.125H0V221H83.25V179.562H97.125V165.75H83.25V151.938H97.125H111V165.75V179.562H97.125V193.375V207.188H111V193.375H124.875V179.562V165.75H138.75V179.562V193.375H124.875V207.188H138.75H152.625V221H166.5V207.188V193.375H152.625V179.562V165.75H166.5V151.938H180.375H194.25H208.125H222V138.125H208.125V124.312H194.25V110.5H180.375V124.312ZM69.375 207.188H13.875V151.938H69.375V207.188Z" fill="#315D80"/>
<path d="M194.25 96.6875H208.125V110.5H194.25V96.6875Z" fill="#315D80"/>
<path d="M97.125 82.875H83.25V96.6875H69.375V110.5H55.5V124.312H69.375H83.25V110.5H97.125H111V96.6875H97.125V82.875Z" fill="#315D80"/>
<path d="M166.5 193.375H180.375V179.562H194.25H208.125V165.75H194.25H180.375H166.5V179.562V193.375Z" fill="#315D80"/>
<path d="M97.125 41.4375H111V27.625H124.875V13.8125V0H111V13.8125H97.125V27.625V41.4375Z" fill="#315D80"/>
</g>
<defs>
<clipPath id="clip0_9_27400">
<rect width="222" height="221" fill="white"/>
</clipPath>
</defs>
</svg>
