<svg width="56" height="56" viewBox="0 0 56 56" fill="none" xmlns="http://www.w3.org/2000/svg">
<rect width="56" height="56" rx="28" fill="#EDF2FA"/>
<path d="M39.707 25.2468L31.707 17.2468C31.5671 17.107 31.389 17.0118 31.195 16.9732C31.0011 16.9347 30.8 16.9545 30.6173 17.0301C30.4346 17.1058 30.2785 17.234 30.1686 17.3984C30.0587 17.5628 30 17.7561 30 17.9538V21.4988C27.2683 21.7516 24.7292 23.0147 22.8797 25.0409C21.0302 27.067 20.0033 29.7104 20 32.4538V33.9538C20.0002 34.1614 20.0649 34.3638 20.1853 34.5329C20.3056 34.702 20.4756 34.8295 20.6717 34.8976C20.8678 34.9658 21.0802 34.9712 21.2795 34.9132C21.4788 34.8552 21.6551 34.7366 21.784 34.5738C22.7638 33.409 23.9659 32.4509 25.3201 31.7558C26.6743 31.0606 28.1533 30.6421 29.671 30.5248C29.721 30.5188 29.846 30.5088 30 30.4988V33.9538C30 34.1516 30.0587 34.3449 30.1686 34.5093C30.2785 34.6737 30.4346 34.8018 30.6173 34.8775C30.8 34.9532 31.0011 34.973 31.195 34.9344C31.389 34.8958 31.5671 34.8006 31.707 34.6608L39.707 26.6608C39.8945 26.4733 39.9998 26.219 39.9998 25.9538C39.9998 25.6887 39.8945 25.4344 39.707 25.2468ZM32 31.5398V29.4538C32 29.1886 31.8946 28.9343 31.7071 28.7467C31.5196 28.5592 31.2652 28.4538 31 28.4538C30.745 28.4538 29.704 28.5038 29.438 28.5388C26.7428 28.7869 24.1773 29.8109 22.052 31.4868C22.2932 29.2813 23.3395 27.2422 24.9906 25.76C26.6416 24.2778 28.7813 23.4567 31 23.4538C31.2652 23.4538 31.5196 23.3485 31.7071 23.1609C31.8946 22.9734 32 22.719 32 22.4538V20.3678L37.586 25.9538L32 31.5398Z" fill="#315D80"/>
</svg>
