<svg width="14" height="18" viewBox="0 0 14 18" fill="none" xmlns="http://www.w3.org/2000/svg">
<path d="M7.00065 0.666016C3.33398 0.666016 0.333984 3.66602 0.333984 7.33268C0.333984 11.8327 6.16732 16.916 6.41732 17.166C6.58398 17.2493 6.83398 17.3327 7.00065 17.3327C7.16732 17.3327 7.41732 17.2493 7.58398 17.166C7.83398 16.916 13.6673 11.8327 13.6673 7.33268C13.6673 3.66602 10.6673 0.666016 7.00065 0.666016ZM7.00065 15.416C5.25065 13.7493 2.00065 10.166 2.00065 7.33268C2.00065 4.58268 4.25065 2.33268 7.00065 2.33268C9.75065 2.33268 12.0007 4.58268 12.0007 7.33268C12.0007 10.0827 8.75065 13.7493 7.00065 15.416ZM7.00065 3.99935C5.16732 3.99935 3.66732 5.49935 3.66732 7.33268C3.66732 9.16602 5.16732 10.666 7.00065 10.666C8.83398 10.666 10.334 9.16602 10.334 7.33268C10.334 5.49935 8.83398 3.99935 7.00065 3.99935ZM7.00065 8.99935C6.08398 8.99935 5.33398 8.24935 5.33398 7.33268C5.33398 6.41602 6.08398 5.66602 7.00065 5.66602C7.91732 5.66602 8.66732 6.41602 8.66732 7.33268C8.66732 8.24935 7.91732 8.99935 7.00065 8.99935Z" fill="#92A3B4"/>
</svg>
