<svg width="17" height="17" viewBox="0 0 17 17" fill="none" xmlns="http://www.w3.org/2000/svg">
<path d="M1.95245e-05 0H6.94573L8.14949 5.41571L6.64377 6.92142C7.5287 8.29957 8.70022 9.47082 10.0786 10.3554L11.5843 8.85051L17 10.0543V17H16.1905C13.0741 17.0048 10.0232 16.1061 7.40715 14.4127C5.47826 13.1644 3.83559 11.5217 2.58725 9.59285C0.893852 6.97676 -0.0048301 3.92585 1.95245e-05 0.809523V0ZM1.64092 1.61905C1.77707 4.14474 2.57222 6.59075 3.94725 8.7137C5.07117 10.4501 6.54993 11.9288 8.2863 13.0527C10.4092 14.4278 12.8553 15.223 15.381 15.3591V11.3527L12.1 10.6242L10.3401 12.3849L9.80334 12.0797C7.76555 10.9216 6.07845 9.23445 4.9203 7.19666L4.61511 6.65995L6.37582 4.90004L5.64725 1.61905H1.64092Z" fill="#92A3B4"/>
</svg>
