<svg width="20" height="20" viewBox="0 0 20 20" fill="none" xmlns="http://www.w3.org/2000/svg">
<path d="M6.975 8.80833L13.025 5.69167M6.975 11.1917L13.025 14.3083M1.75 10C1.75 10.7293 2.03973 11.4288 2.55546 11.9445C3.07118 12.4603 3.77065 12.75 4.5 12.75C5.22935 12.75 5.92882 12.4603 6.44454 11.9445C6.96027 11.4288 7.25 10.7293 7.25 10C7.25 9.27065 6.96027 8.57118 6.44454 8.05546C5.92882 7.53973 5.22935 7.25 4.5 7.25C3.77065 7.25 3.07118 7.53973 2.55546 8.05546C2.03973 8.57118 1.75 9.27065 1.75 10ZM12.75 4.5C12.75 5.22935 13.0397 5.92882 13.5555 6.44454C14.0712 6.96027 14.7707 7.25 15.5 7.25C16.2293 7.25 16.9288 6.96027 17.4445 6.44454C17.9603 5.92882 18.25 5.22935 18.25 4.5C18.25 3.77065 17.9603 3.07118 17.4445 2.55546C16.9288 2.03973 16.2293 1.75 15.5 1.75C14.7707 1.75 14.0712 2.03973 13.5555 2.55546C13.0397 3.07118 12.75 3.77065 12.75 4.5ZM12.75 15.5C12.75 16.2293 13.0397 16.9288 13.5555 17.4445C14.0712 17.9603 14.7707 18.25 15.5 18.25C16.2293 18.25 16.9288 17.9603 17.4445 17.4445C17.9603 16.9288 18.25 16.2293 18.25 15.5C18.25 14.7707 17.9603 14.0712 17.4445 13.5555C16.9288 13.0397 16.2293 12.75 15.5 12.75C14.7707 12.75 14.0712 13.0397 13.5555 13.5555C13.0397 14.0712 12.75 14.7707 12.75 15.5Z" stroke="#92A3B4" stroke-width="2" stroke-linecap="round" stroke-linejoin="round"/>
</svg>
