<svg width="30" height="30" viewBox="0 0 30 30" fill="none" xmlns="http://www.w3.org/2000/svg">
<rect width="30" height="30" rx="15" fill="#20364D"/>
<path d="M13.6649 8C12.0226 8 10.7048 9.13065 10.7048 11.2915C10.7048 12.7027 11.2655 14.14 12.1168 15.0256C12.4488 15.9113 11.8501 16.2409 11.726 16.2878C10.0075 16.9197 8 18.0656 8 19.2039V19.6296C8 21.1809 10.947 21.5394 13.6812 21.5394C14.2771 21.5382 14.8728 21.5156 15.4672 21.4718C14.723 20.6844 14.3091 19.6404 14.311 18.5557C14.311 17.5783 14.6431 16.6829 15.195 15.9637C15.1134 15.7716 15.0807 15.4687 15.2293 15.0087C16.0757 14.122 16.6244 12.6972 16.6244 11.291C16.6244 9.13065 15.305 8.00055 13.6643 8.00055L13.6649 8ZM18.5639 15.1108C17.6526 15.1108 16.7786 15.4737 16.1342 16.1197C15.4898 16.7657 15.1278 17.6418 15.1278 18.5554C15.1278 19.469 15.4898 20.3451 16.1342 20.9911C16.7786 21.6371 17.6526 22 18.5639 22C19.4752 22 20.3492 21.6371 20.9936 20.9911C21.638 20.3451 22 19.469 22 18.5554C22 17.6418 21.638 16.7657 20.9936 16.1197C20.3492 15.4737 19.4752 15.1108 18.5639 15.1108ZM18.0876 16.6458H19.0402V18.0613H20.4522V19.05H19.0402V20.4655H18.0876V19.05H16.6587V18.0613H18.0876V16.6458Z" fill="white"/>
</svg>
