<svg width="20" height="20" viewBox="0 0 20 20" fill="none" xmlns="http://www.w3.org/2000/svg">
<path d="M10.0007 0.832031C4.94065 0.832031 0.833984 4.9387 0.833984 9.9987C0.833984 15.0587 4.94065 19.1654 10.0007 19.1654C15.0607 19.1654 19.1673 15.0587 19.1673 9.9987C19.1673 4.9387 15.0607 0.832031 10.0007 0.832031ZM2.66732 9.9987C2.66732 5.94703 5.94898 2.66536 10.0007 2.66536C11.6965 2.66536 13.2548 3.24286 14.4923 4.21453L4.21648 14.4904C3.20964 13.21 2.66386 11.6275 2.66732 9.9987ZM10.0007 17.332C8.30482 17.332 6.74648 16.7545 5.50898 15.7829L15.7848 5.50703C16.7917 6.78742 17.3374 8.36986 17.334 9.9987C17.334 14.0504 14.0523 17.332 10.0007 17.332Z" fill="#365B81"/>
</svg>
