<svg width="12" height="11" viewBox="0 0 12 11" fill="none" xmlns="http://www.w3.org/2000/svg">
<path d="M3.18024 4.95H4.30844V6.05H3.18024V4.95ZM11.0777 2.2V9.9C11.0777 10.505 10.57 11 9.94947 11H2.05203C1.75281 11 1.46585 10.8841 1.25427 10.6778C1.04269 10.4715 0.923828 10.1917 0.923828 9.9L0.929469 2.2C0.929469 1.595 1.42588 1.1 2.05203 1.1H2.61614V0H3.74434V1.1H8.25716V0H9.38537V1.1H9.94947C10.57 1.1 11.0777 1.595 11.0777 2.2ZM2.05203 3.3H9.94947V2.2H2.05203V3.3ZM9.94947 9.9V4.4H2.05203V9.9H9.94947ZM7.69306 6.05H8.82126V4.95H7.69306V6.05ZM5.43665 6.05H6.56485V4.95H5.43665V6.05Z" fill="#63829E"/>
</svg>
