<svg width="30" height="30" viewBox="0 0 30 30" fill="none" xmlns="http://www.w3.org/2000/svg">
<rect width="30" height="30" rx="6" fill="white"/>
<path d="M10.6415 13.65H12.3851V15.35H10.6415V13.65ZM22.8466 9.4V21.3C22.8466 22.235 22.062 23 21.103 23H8.89789C8.43546 23 7.99197 22.8209 7.66498 22.5021C7.338 22.1833 7.1543 21.7509 7.1543 21.3L7.16301 9.4C7.16301 8.465 7.93019 7.7 8.89789 7.7H9.76968V6H11.5133V7.7H18.4876V6H20.2312V7.7H21.103C22.062 7.7 22.8466 8.465 22.8466 9.4ZM8.89789 11.1H21.103V9.4H8.89789V11.1ZM21.103 21.3V12.8H8.89789V21.3H21.103ZM17.6158 15.35H19.3594V13.65H17.6158V15.35ZM14.1287 15.35H15.8722V13.65H14.1287V15.35Z" fill="#20364D"/>
</svg>
