<svg width="12" height="14" viewBox="0 0 12 14" fill="none" xmlns="http://www.w3.org/2000/svg">
<path d="M6 13.0146C4.4087 13.0146 2.88258 12.3811 1.75736 11.2534C0.632141 10.1257 0 8.59621 0 7.00143C0 5.40664 0.632141 3.87718 1.75736 2.74949C2.88258 1.62181 4.4087 0.988281 6 0.988281C7.5913 0.988281 9.11742 1.62181 10.2426 2.74949C11.3679 3.87718 12 5.40664 12 7.00143C12 8.59621 11.3679 10.1257 10.2426 11.2534C9.11742 12.3811 7.5913 13.0146 6 13.0146ZM6 11.8119C7.27304 11.8119 8.49394 11.3051 9.39411 10.403C10.2943 9.50083 10.8 8.27726 10.8 7.00143C10.8 5.7256 10.2943 4.50203 9.39411 3.59988C8.49394 2.69773 7.27304 2.19091 6 2.19091C4.72696 2.19091 3.50606 2.69773 2.60589 3.59988C1.70571 4.50203 1.2 5.7256 1.2 7.00143C1.2 8.27726 1.70571 9.50083 2.60589 10.403C3.50606 11.3051 4.72696 11.8119 6 11.8119ZM5.4 7.24797V3.39354H6.6V6.75489L8.97 9.13008L8.124 9.97794L5.4 7.24797Z" fill="#63829E"/>
</svg>
