<svg width="26" height="25" viewBox="0 0 26 25" fill="none" xmlns="http://www.w3.org/2000/svg">
<path d="M1.77734 12.5C1.77734 9.45001 2.98895 6.52494 5.14562 4.36827C7.30228 2.2116 10.2274 1 13.2773 1C16.3273 1 19.2524 2.2116 21.4091 4.36827C23.5657 6.52494 24.7773 9.45001 24.7773 12.5V19.8169C24.7773 21.0359 24.7773 21.6425 24.5962 22.1298C24.4522 22.516 24.2268 22.8666 23.9354 23.1581C23.644 23.4495 23.2933 23.6749 22.9072 23.8189C22.4198 24 21.8118 24 20.5942 24H13.2773C10.2274 24 7.30228 22.7884 5.14562 20.6317C2.98895 18.4751 1.77734 15.55 1.77734 12.5Z" stroke="#20364D" stroke-width="1.8"/>
<path d="M8.96484 11.0625H17.5898M13.2773 16.8125H17.5898" stroke="#20364D" stroke-width="1.8" stroke-linecap="round" stroke-linejoin="round"/>
</svg>
