<svg width="18" height="16" viewBox="0 0 18 16" fill="none" xmlns="http://www.w3.org/2000/svg">
<path d="M14.5993 10.2999C14.891 9.59158 15.0493 8.83325 15.0493 7.99991C15.0493 7.39991 14.9577 6.82491 14.7993 6.29158C14.2577 6.41658 13.691 6.48325 13.0993 6.48325C11.8877 6.48455 10.6934 6.19452 9.61729 5.6376C8.54117 5.08068 7.61471 4.27321 6.91601 3.28325C6.16931 5.0922 4.75911 6.54712 2.97435 7.34991C2.94102 7.55825 2.94102 7.78325 2.94102 7.99991C2.94102 8.79551 3.09772 9.58331 3.40218 10.3183C3.70664 11.0534 4.15289 11.7212 4.71546 12.2838C5.85162 13.42 7.39258 14.0582 8.99935 14.0582C9.87435 14.0582 10.716 13.8666 11.4743 13.5249C11.9493 14.4332 12.166 14.8832 12.1493 14.8832C10.7827 15.3416 9.72435 15.5666 8.99935 15.5666C6.98268 15.5666 5.05768 14.7749 3.64102 13.3499C2.77856 12.4915 2.13791 11.4362 1.77435 10.2749H0.666016V6.48325H1.57435C1.84955 5.14368 2.48226 3.90359 3.40534 2.89457C4.32842 1.88556 5.50744 1.14525 6.81729 0.752213C8.12714 0.359173 9.51896 0.328058 10.8451 0.66217C12.1712 0.996283 13.3821 1.68316 14.3493 2.64991C15.3992 3.69623 16.1154 5.03015 16.4077 6.48325H17.3327V10.2749H17.2827L14.316 12.9999L9.89935 12.4999V11.1082H13.9243L14.5993 10.2999ZM6.72435 7.80825C6.97435 7.80825 7.21601 7.90825 7.39101 8.09158C7.56689 8.26889 7.66557 8.50851 7.66557 8.75825C7.66557 9.00799 7.56689 9.24761 7.39101 9.42491C7.21601 9.59991 6.97435 9.69991 6.72435 9.69991C6.19935 9.69991 5.77435 9.28325 5.77435 8.75825C5.77435 8.23325 6.19935 7.80825 6.72435 7.80825ZM11.266 7.80825C11.791 7.80825 12.2077 8.23325 12.2077 8.75825C12.2077 9.28325 11.791 9.69991 11.266 9.69991C10.741 9.69991 10.316 9.28325 10.316 8.75825C10.316 8.50629 10.4161 8.26466 10.5943 8.0865C10.7724 7.90834 11.0141 7.80825 11.266 7.80825Z" fill="#365B81"/>
</svg>
