<svg width="12" height="12" viewBox="0 0 12 12" fill="none" xmlns="http://www.w3.org/2000/svg">
<path d="M3.33203 10C4.4366 10 5.33203 9.10457 5.33203 8C5.33203 6.89543 4.4366 6 3.33203 6C2.22746 6 1.33203 6.89543 1.33203 8C1.33203 9.10457 2.22746 10 3.33203 10Z" stroke="#20364D" stroke-width="2"/>
<path d="M10.1384 2.1386C10.2598 2.01286 10.327 1.84446 10.3255 1.66966C10.324 1.49487 10.2539 1.32766 10.1303 1.20405C10.0067 1.08045 9.83945 1.01033 9.66465 1.00881C9.48985 1.0073 9.32145 1.07449 9.19571 1.19593L10.1384 2.1386ZM10.1957 4.47193L10.667 4.94326L11.6097 4.0006L11.1384 3.52926L10.1957 4.47193ZM8.86238 4.47193L9.33371 4.94326L10.2764 4.0006L9.80505 3.52926L8.86238 4.47193ZM4.19571 6.19593C4.13204 6.25743 4.08125 6.33099 4.04631 6.41233C4.01137 6.49366 3.99298 6.58114 3.99221 6.66966C3.99144 6.75818 4.00831 6.84597 4.04183 6.9279C4.07535 7.00983 4.12486 7.08426 4.18745 7.14686C4.25005 7.20946 4.32448 7.25896 4.40641 7.29248C4.48834 7.326 4.57613 7.34287 4.66465 7.3421C4.75317 7.34133 4.84065 7.32294 4.92198 7.288C5.00332 7.25306 5.07688 7.20227 5.13838 7.1386L4.19571 6.19593ZM8.52905 5.47193L9.00038 5.94326L9.94305 5.0006L9.47171 4.52926L8.52905 5.47193ZM9.47171 2.80526L10.1384 2.1386L9.19571 1.19593L8.52905 1.8626L9.47171 2.80526ZM8.52905 2.80526L10.1957 4.47193L11.1384 3.52926L9.47171 1.8626L8.52905 2.80526ZM8.80505 3.47193L9.47171 2.80526L8.52905 1.8626L7.86238 2.52926L8.80505 3.47193ZM7.86238 3.47193L8.86238 4.47193L9.80505 3.52926L8.80505 2.52926L7.86238 3.47193ZM5.13838 7.1386L8.13838 4.1386L7.19571 3.19593L4.19571 6.19593L5.13838 7.1386ZM8.13838 4.1386L8.80505 3.47193L7.86238 2.52926L7.19571 3.19593L8.13838 4.1386ZM7.19571 4.1386L8.52905 5.47193L9.47171 4.52926L8.13838 3.19593L7.19571 4.1386Z" fill="#20364D"/>
</svg>
