<svg width="17" height="18" viewBox="0 0 17 18" fill="none" xmlns="http://www.w3.org/2000/svg">
<path d="M8.79709 2.77734L15.9082 2.77734M1.68598 15.2218L4.35265 15.2218M1.68598 2.77734L5.24153 2.77734M7.9082 15.2218L15.9082 15.2218M13.2415 8.99957L15.9082 8.99957M1.68598 8.99957L9.68598 8.99957" stroke="#A7BBCE" stroke-width="1.5" stroke-linecap="round"/>
<path d="M5.24132 2.77778C5.24132 3.75962 6.03726 4.55556 7.0191 4.55556C8.00094 4.55556 8.79687 3.75962 8.79687 2.77778C8.79687 1.79594 8.00094 1 7.0191 1C6.03726 1 5.24132 1.79594 5.24132 2.77778Z" stroke="#A7BBCE" stroke-width="1.5" stroke-linecap="round"/>
<path d="M9.68663 9.00043C9.68663 9.98227 10.4826 10.7782 11.4644 10.7782C12.4462 10.7782 13.2422 9.98227 13.2422 9.00043C13.2422 8.01859 12.4462 7.22266 11.4644 7.22266C10.4826 7.22266 9.68663 8.01859 9.68663 9.00043Z" stroke="#A7BBCE" stroke-width="1.5" stroke-linecap="round"/>
<path d="M4.35265 15.2192C4.35265 16.201 5.14859 16.997 6.13042 16.997C7.11226 16.997 7.9082 16.201 7.9082 15.2192C7.9082 14.2373 7.11226 13.4414 6.13043 13.4414C5.14859 13.4414 4.35265 14.2373 4.35265 15.2192Z" stroke="#A7BBCE" stroke-width="1.5" stroke-linecap="round"/>
</svg>
