<svg width="12" height="13" viewBox="0 0 12 13" fill="none" xmlns="http://www.w3.org/2000/svg">
<path d="M6 1C9.03757 1 11.5 3.46243 11.5 6.5C11.5 9.53757 9.03757 12 6 12C2.96243 12 0.5 9.53757 0.5 6.5C0.5 3.46243 2.96243 1 6 1Z" stroke="#63829E"/>
<path d="M5.43984 8.33546H6.61538V9.5H5.43984V8.33546ZM4 5.43418C4.03156 4.66857 4.29323 4.12592 4.78501 3.80625C5.09533 3.60208 5.47666 3.5 5.92899 3.5C6.52334 3.5 7.01644 3.64506 7.40828 3.93519C7.80276 4.22532 8 4.65514 8 5.22465C8 5.57388 7.91453 5.86803 7.74359 6.10712C7.64366 6.25218 7.45168 6.43754 7.16765 6.6632L6.88757 6.88482C6.73504 7.00571 6.63379 7.14674 6.58383 7.30792C6.55227 7.41001 6.53517 7.5685 6.53254 7.78341H5.46746C5.48323 7.32942 5.52531 7.01645 5.59369 6.84453C5.66206 6.66991 5.83826 6.46978 6.12229 6.24412L6.41026 6.01444C6.50493 5.94191 6.5812 5.86266 6.63905 5.7767C6.74425 5.62895 6.79684 5.46642 6.79684 5.28912C6.79684 5.08496 6.73767 4.8996 6.61933 4.73304C6.50362 4.5638 6.2906 4.47918 5.98028 4.47918C5.67521 4.47918 5.45825 4.58261 5.32939 4.78946C5.20316 4.99631 5.14004 5.21122 5.14004 5.43418H4Z" fill="#63829E"/>
</svg>
