<svg width="19" height="21" viewBox="0 0 19 21" fill="none" xmlns="http://www.w3.org/2000/svg">
<path d="M5.9375 2.33556C5.62256 2.33556 5.32051 2.45844 5.09781 2.67717C4.87511 2.89591 4.75 3.19257 4.75 3.50191C4.75 3.81124 4.87511 4.10791 5.09781 4.32664C5.32051 4.54537 5.62256 4.66825 5.9375 4.66825C6.25244 4.66825 6.55449 4.54537 6.77719 4.32664C6.99989 4.10791 7.125 3.81124 7.125 3.50191C7.125 3.19257 6.99989 2.89591 6.77719 2.67717C6.55449 2.45844 6.25244 2.33556 5.9375 2.33556ZM2.57688 2.33556C2.82221 1.65262 3.27719 1.06124 3.87909 0.642938C4.48098 0.224634 5.20017 0 5.9375 0C6.67483 0 7.39402 0.224634 7.99591 0.642938C8.59781 1.06124 9.05278 1.65262 9.29813 2.33556L17.8125 2.33556C18.1274 2.33556 18.4295 2.45844 18.6522 2.67717C18.8749 2.89591 19 3.19257 19 3.50191C19 3.81124 18.8749 4.10791 18.6522 4.32664C18.4295 4.54537 18.1274 4.66825 17.8125 4.66825L9.29813 4.66825C9.05278 5.35119 8.59781 5.94257 7.99591 6.36087C7.39402 6.77918 6.67483 7.00381 5.9375 7.00381C5.20017 7.00381 4.48098 6.77918 3.87909 6.36087C3.27719 5.94257 2.82221 5.35119 2.57688 4.66825H1.1875C0.872555 4.66825 0.57051 4.54537 0.347811 4.32664C0.125111 4.10791 0 3.81124 0 3.50191C0 3.19257 0.125111 2.89591 0.347811 2.67717C0.57051 2.45844 0.872555 2.33556 1.1875 2.33556L2.57688 2.33556ZM13.0625 9.33365C12.7476 9.33365 12.4455 9.45653 12.2228 9.67527C12.0001 9.894 11.875 10.1907 11.875 10.5C11.875 10.8093 12.0001 11.106 12.2228 11.3247C12.4455 11.5435 12.7476 11.6663 13.0625 11.6663C13.3774 11.6663 13.6795 11.5435 13.9022 11.3247C14.1249 11.106 14.25 10.8093 14.25 10.5C14.25 10.1907 14.1249 9.894 13.9022 9.67527C13.6795 9.45653 13.3774 9.33365 13.0625 9.33365ZM9.70187 9.33365C9.94722 8.65071 10.4022 8.05934 11.0041 7.64103C11.606 7.22273 12.3252 6.99809 13.0625 6.99809C13.7998 6.99809 14.519 7.22273 15.1209 7.64103C15.7228 8.05934 16.1778 8.65071 16.4231 9.33365L17.8125 9.33365C18.1274 9.33365 18.4295 9.45653 18.6522 9.67527C18.8749 9.894 19 10.1907 19 10.5C19 10.8093 18.8749 11.106 18.6522 11.3247C18.4295 11.5435 18.1274 11.6663 17.8125 11.6663L16.4231 11.6663C16.1778 12.3493 15.7228 12.9407 15.1209 13.359C14.519 13.7773 13.7998 14.0019 13.0625 14.0019C12.3252 14.0019 11.606 13.7773 11.0041 13.359C10.4022 12.9407 9.94722 12.3493 9.70187 11.6663L1.1875 11.6663C0.872555 11.6663 0.57051 11.5435 0.347811 11.3247C0.125111 11.106 0 10.8093 0 10.5C0 10.1907 0.125111 9.894 0.347811 9.67527C0.57051 9.45653 0.872555 9.33365 1.1875 9.33365L9.70187 9.33365ZM5.9375 16.3317C5.62256 16.3317 5.32051 16.4546 5.09781 16.6734C4.87511 16.8921 4.75 17.1888 4.75 17.4981C4.75 17.8074 4.87511 18.1041 5.09781 18.3228C5.32051 18.5416 5.62256 18.6644 5.9375 18.6644C6.25244 18.6644 6.55449 18.5416 6.77719 18.3228C6.99989 18.1041 7.125 17.8074 7.125 17.4981C7.125 17.1888 6.99989 16.8921 6.77719 16.6734C6.55449 16.4546 6.25244 16.3317 5.9375 16.3317ZM2.57688 16.3317C2.82221 15.6488 3.27719 15.0574 3.87909 14.6391C4.48098 14.2208 5.20017 13.9962 5.9375 13.9962C6.67483 13.9962 7.39402 14.2208 7.99591 14.6391C8.59781 15.0574 9.05278 15.6488 9.29813 16.3317L17.8125 16.3317C18.1274 16.3317 18.4295 16.4546 18.6522 16.6734C18.8749 16.8921 19 17.1888 19 17.4981C19 17.8074 18.8749 18.1041 18.6522 18.3228C18.4295 18.5416 18.1274 18.6644 17.8125 18.6644L9.29813 18.6644C9.05278 19.3474 8.59781 19.9388 7.99591 20.3571C7.39402 20.7754 6.67483 21 5.9375 21C5.20017 21 4.48098 20.7754 3.87909 20.3571C3.27719 19.9388 2.82221 19.3474 2.57688 18.6644H1.1875C0.872555 18.6644 0.57051 18.5416 0.347811 18.3228C0.125111 18.1041 0 17.8074 0 17.4981C0 17.1888 0.125111 16.8921 0.347811 16.6734C0.57051 16.4546 0.872555 16.3317 1.1875 16.3317H2.57688Z" fill="#A7BBCE"/>
</svg>
