<svg width="25" height="24" viewBox="0 0 25 24" fill="none" xmlns="http://www.w3.org/2000/svg">
<path d="M12.7013 2.43091L12.0257 3.15365C12.2098 3.32019 12.4506 3.41261 12.7006 3.41261C12.9506 3.41261 13.1914 3.32019 13.3755 3.15365L12.7013 2.43091ZM10.8289 9.09532C9.91126 8.43673 8.93117 7.63543 8.19178 6.79092C7.42845 5.92023 7.04945 5.14905 7.04945 4.5376H5.05469C5.05469 5.86917 5.82334 7.09599 6.68108 8.07405C7.56277 9.07961 8.67717 9.98172 9.65327 10.6822L10.8289 9.09532ZM7.04945 4.5376C7.04945 3.15103 7.74096 2.36021 8.57344 2.08525C9.4405 1.7972 10.7331 1.98312 12.0257 3.15365L13.3755 1.70817C11.6773 0.171033 9.64796 -0.342218 7.93778 0.223406C6.1917 0.802123 5.05469 2.41782 5.05469 4.5376H7.04945ZM15.7493 10.6822C16.7254 9.98303 17.8398 9.07961 18.7215 8.07405C19.5792 7.09599 20.3478 5.86917 20.3478 4.5376H18.3531C18.3531 5.14905 17.9754 5.92023 17.2108 6.79092C16.4714 7.63543 15.4926 8.43673 14.575 9.09532L15.7493 10.6822ZM20.3478 4.5376C20.3478 2.41782 19.2108 0.802123 17.4661 0.223406C15.7559 -0.342218 13.7252 0.171033 12.027 1.70817L13.3768 3.15365C14.6694 1.98312 15.9634 1.7972 16.8304 2.08525C17.6616 2.36021 18.3531 3.15103 18.3531 4.5376H20.3478ZM9.65327 10.6822C10.6573 11.4023 11.4539 12.0151 12.7013 12.0151V10.0511C12.2159 10.0511 11.9499 9.90055 10.8289 9.09532L9.65327 10.6822ZM14.5737 9.09532C13.4526 9.90055 13.1867 10.0511 12.7013 10.0511V12.0151C13.9487 12.0151 14.7452 11.4036 15.7493 10.6822L14.5737 9.09532Z" fill="#20364D"/>
<path d="M5.41797 21.1501H7.83834C8.92 21.1501 10.0156 21.2604 11.0683 21.4706C12.948 21.8445 14.8817 21.8861 16.7766 21.5933C17.7062 21.4477 18.6186 21.224 19.4454 20.837C20.1908 20.4864 21.1043 19.9943 21.718 19.4418C22.3306 18.8904 22.9688 17.9884 23.4208 17.283C23.8106 16.6775 23.6221 15.9357 23.0074 15.4852C22.6618 15.2416 22.2457 15.1104 21.8186 15.1104C21.3916 15.1104 20.9755 15.2416 20.6299 15.4852L18.6946 16.9053C17.945 17.4567 17.1257 17.9634 16.15 18.1143C16.0322 18.1323 15.9091 18.1486 15.7806 18.1632M15.7806 18.1632L15.6628 18.1757M15.7806 18.1632C15.952 18.1181 16.1091 18.0322 16.2379 17.9135C16.3995 17.778 16.5315 17.6124 16.6261 17.4265C16.7207 17.2406 16.7759 17.0381 16.7885 16.8311C16.801 16.6241 16.7707 16.4167 16.6993 16.2213C16.628 16.0258 16.5169 15.8463 16.3728 15.6933C16.2333 15.5428 16.0707 15.414 15.8909 15.3115C12.8954 13.5751 8.23352 14.8974 5.41797 16.8377M15.7806 18.1632C15.7419 18.1716 15.7024 18.1757 15.6628 18.1757M15.6628 18.1757C15.0169 18.2385 14.3662 18.2399 13.72 18.1798" stroke="#20364D" stroke-width="1.8" stroke-linecap="round"/>
<path d="M5.41857 16.0968C5.41857 15.2171 4.60346 14.5039 3.59796 14.5039C2.59246 14.5039 1.77734 15.2171 1.77734 16.0968V21.4065C1.77734 22.2863 2.59246 22.9994 3.59796 22.9994C4.60346 22.9994 5.41857 22.2863 5.41857 21.4065V16.0968Z" stroke="#20364D" stroke-width="1.8"/>
</svg>
