<svg width="24" height="26" viewBox="0 0 24 26" fill="none" xmlns="http://www.w3.org/2000/svg">
<path d="M3.84362 24.9971C2.27316 24.9971 1 23.6906 1 22.0775V10.3431C1 9.45656 1.39328 8.61668 2.06652 8.06342L9.88814 1.64028C10.3879 1.22645 11.0164 1 11.6652 1C12.3141 1 12.9426 1.22645 13.4423 1.64028L21.2626 8.06342C21.9372 8.61668 22.3305 9.45656 22.3305 10.3431V22.0775C22.3305 23.6906 21.0573 24.9971 19.4868 24.9971H3.84362Z" stroke="#20364D" stroke-width="1.8" stroke-linecap="round" stroke-linejoin="round"/>
<path d="M8.33203 24.9987V17.6663C8.33203 16.9592 8.61295 16.281 9.11298 15.7809C9.613 15.2809 10.2912 15 10.9983 15H12.3315C13.0386 15 13.7168 15.2809 14.2169 15.7809C14.7169 16.281 14.9978 16.9592 14.9978 17.6663V24.9987" stroke="#20364D" stroke-width="1.8" stroke-linecap="round" stroke-linejoin="round"/>
</svg>
