<svg width="10" height="12" viewBox="0 0 10 12" fill="none" xmlns="http://www.w3.org/2000/svg">
<path d="M3.12121 11.4V4.065C2.25021 3.845 1.53934 3.405 0.988621 2.745C0.437898 2.085 0.109857 1.335 0.00449741 0.495004C-0.0164905 0.355004 0.0359793 0.237604 0.161907 0.142804C0.287835 0.048004 0.43475 0.000404054 0.602653 4.05405e-06C0.770557 -0.000395946 0.917472 0.0422041 1.0434 0.127804C1.16933 0.213404 1.24279 0.330804 1.26377 0.480004C1.37921 1.2 1.70452 1.8 2.23971 2.28C2.7749 2.76 3.43602 3 4.22307 3H5.79717C6.11199 3 6.40582 3.055 6.67866 3.165C6.9515 3.275 7.19811 3.435 7.41848 3.645L9.82685 5.94C9.94228 6.05 10 6.19 10 6.36C10 6.53 9.94228 6.67 9.82685 6.78C9.71142 6.89 9.5645 6.945 9.3861 6.945C9.20771 6.945 9.06079 6.89 8.94536 6.78L6.89903 4.83V11.4C6.89903 11.57 6.83859 11.7126 6.7177 11.8278C6.59681 11.943 6.44737 12.0004 6.2694 12C6.09142 11.9996 5.94198 11.942 5.82109 11.8272C5.7002 11.7124 5.63976 11.57 5.63976 11.4V8.4H4.38048V11.4C4.38048 11.57 4.32004 11.7126 4.19915 11.8278C4.07826 11.943 3.92882 12.0004 3.75084 12C3.57287 11.9996 3.42343 11.942 3.30254 11.8272C3.18165 11.7124 3.12121 11.57 3.12121 11.4ZM5.01012 2.4C4.66382 2.4 4.36747 2.2826 4.12107 2.0478C3.87467 1.813 3.75126 1.5304 3.75084 1.2C3.75042 0.869604 3.87383 0.587204 4.12107 0.352804C4.36831 0.118404 4.66466 0.000804054 5.01012 4.05405e-06C5.35558 -0.000795946 5.65214 0.116804 5.8998 0.352804C6.14746 0.588804 6.27066 0.871204 6.2694 1.2C6.26814 1.5288 6.14494 1.8114 5.8998 2.0478C5.65466 2.2842 5.3581 2.4016 5.01012 2.4Z" fill="#A7BBCE"/>
</svg>
