<svg width="11" height="16" viewBox="0 0 11 16" fill="none" xmlns="http://www.w3.org/2000/svg">
<path d="M10.3739 3.0078C10.3739 3.0078 10.3493 2.95788 10.3493 2.9454L10.3002 2.85803C9.61272 1.62246 8.48326 0.698908 7.14509 0.26209H7.13281C6.61719 0.099844 6.06473 0 5.5 0C3.81808 0 2.30804 0.773791 1.28906 1.99688C0.491071 2.95788 0 4.21841 0 5.59126C0 6.62715 0.208705 7.47582 0.540179 8.24961H0.552455C1.11719 9.52262 2.0625 10.5585 3.03237 11.8565H3.04464C3.35156 12.2683 3.65848 12.7051 3.97768 13.2044C5.08259 14.9516 4.77567 16 5.5 16C6.22433 16 5.90513 14.9516 7.02232 13.2044C8.85156 10.2964 11 8.961 11 5.59126C11 4.65523 10.7667 3.79407 10.3739 3.0078ZM5.48772 7.76287C4.30915 7.76287 3.35156 6.78939 3.35156 5.57878C3.35156 4.36817 4.30915 3.3947 5.48772 3.3947C6.66629 3.3947 7.63616 4.38066 7.63616 5.57878C7.63616 6.77691 6.67857 7.76287 5.48772 7.76287Z" fill="#A7BBCE"/>
</svg>
