<svg width="12" height="11" viewBox="0 0 12 11" fill="none" xmlns="http://www.w3.org/2000/svg">
<path d="M2.703 2.89498C2.84794 2.89498 2.98693 2.83405 3.08942 2.72559C3.1919 2.61714 3.24948 2.47004 3.24948 2.31666V1.97544L4.82333 3.64102C5.13072 3.96593 5.54741 4.14842 5.98186 4.14842C6.41631 4.14842 6.833 3.96593 7.14039 3.64102L9.64872 0.986507C9.7505 0.878151 9.80763 0.731573 9.80763 0.578787C9.80763 0.426002 9.7505 0.279424 9.64872 0.171068C9.59792 0.116862 9.53748 0.0738381 9.47088 0.0444773C9.40429 0.0151164 9.33286 0 9.26072 0C9.18858 0 9.11715 0.0151164 9.05056 0.0444773C8.98396 0.0738381 8.92352 0.116862 8.87272 0.171068L6.36986 2.8198C6.31906 2.87401 6.25862 2.91703 6.19202 2.94639C6.12543 2.97575 6.054 2.99087 5.98186 2.99087C5.90972 2.99087 5.83829 2.97575 5.7717 2.94639C5.7051 2.91703 5.64466 2.87401 5.59386 2.8198L4.02001 1.16H4.34243C4.48736 1.16 4.62636 1.09907 4.72885 0.990617C4.83133 0.88216 4.88891 0.735061 4.88891 0.581679C4.88891 0.428298 4.83133 0.281198 4.72885 0.172741C4.62636 0.0642839 4.48736 0.00335333 4.34243 0.00335333H2.703C2.59573 0.00344585 2.49086 0.0369459 2.40146 0.0996783C2.31206 0.162411 2.24208 0.251601 2.20024 0.356132C2.17283 0.427874 2.15801 0.504308 2.15652 0.581679V2.31666C2.15652 2.47004 2.2141 2.61714 2.31658 2.72559C2.41907 2.83405 2.55807 2.89498 2.703 2.89498ZM11.4138 7.15146C9.8577 5.88059 7.94748 5.19127 5.98186 5.19127C4.01624 5.19127 2.10602 5.88059 0.549883 7.15146C0.386012 7.29176 0.252448 7.46759 0.158183 7.6671C0.0639189 7.86662 0.0111419 8.08519 0.00340616 8.30811C-0.0108644 8.52834 0.0198168 8.74923 0.0933657 8.95579C0.166915 9.16236 0.281609 9.34975 0.429658 9.50525L1.39146 10.5462C1.63723 10.8062 1.96236 10.9653 2.30874 10.9949C2.65512 11.0246 3.00019 10.923 3.28227 10.7082L3.53911 10.5231C3.71388 10.4034 3.8965 10.2971 4.08559 10.205C4.31788 10.0965 4.50307 9.89935 4.60432 9.6529C4.70557 9.40645 4.71547 9.1287 4.63206 8.87487L4.58288 8.73607C5.51859 8.48195 6.49978 8.48195 7.43549 8.73607L7.3863 8.87487C7.30289 9.1287 7.3128 9.40645 7.41405 9.6529C7.5153 9.89935 7.70049 10.0965 7.93278 10.205C8.12186 10.2971 8.30449 10.4034 8.47926 10.5231L8.7361 10.7082C8.98004 10.8976 9.2751 10.999 9.57768 10.9973C9.97075 10.9978 10.348 10.8336 10.6269 10.5404L11.616 9.4879C11.7546 9.32858 11.8598 9.14011 11.9247 8.93482C11.9897 8.72952 12.013 8.51202 11.9931 8.29655C11.9802 8.07278 11.9218 7.85461 11.8218 7.65696C11.7218 7.45932 11.5827 7.28689 11.4138 7.15146ZM10.7909 8.67824L9.8072 9.72501C9.74741 9.79093 9.66779 9.83276 9.58203 9.84331C9.49627 9.85386 9.40971 9.83248 9.33723 9.78284C9.2334 9.70188 9.12957 9.62669 9.01481 9.55151C8.82217 9.42305 8.62335 9.3053 8.41915 9.19873L8.63774 8.56836C8.68695 8.42418 8.68006 8.26521 8.61858 8.1264C8.5571 7.9876 8.44605 7.8803 8.30985 7.8281C6.80969 7.24994 5.16496 7.24994 3.6648 7.8281C3.5286 7.8803 3.41755 7.9876 3.35607 8.1264C3.29459 8.26521 3.2877 8.42418 3.33691 8.56836L3.5555 9.20452C3.34847 9.30677 3.1477 9.42266 2.95438 9.55151L2.63742 9.78284C2.56476 9.83802 2.47531 9.86265 2.38645 9.85196C2.29758 9.84128 2.21564 9.79603 2.15652 9.72501L1.17287 8.67824C1.13742 8.64133 1.10945 8.59718 1.09066 8.54845C1.07187 8.49973 1.06265 8.44747 1.06357 8.39486C1.06811 8.33546 1.08401 8.27766 1.11032 8.22497C1.13662 8.17227 1.17278 8.12579 1.21658 8.08835C2.58237 6.97504 4.25789 6.37132 5.98186 6.37132C7.70583 6.37132 9.38135 6.97504 10.7471 8.08835C10.7909 8.12579 10.8271 8.17227 10.8534 8.22497C10.8797 8.27766 10.8956 8.33546 10.9002 8.39486C10.9011 8.44747 10.8919 8.49973 10.8731 8.54845C10.8543 8.59718 10.8263 8.64133 10.7909 8.67824Z" fill="#EA4B61"/>
</svg>
