<svg width="10" height="12" viewBox="0 0 10 12" fill="none" xmlns="http://www.w3.org/2000/svg">
<path d="M8.33333 12C7.875 12 7.48277 11.8323 7.15666 11.4969C6.83055 11.1614 6.66722 10.7577 6.66666 10.2857V1.71429C6.66666 1.24286 6.83 0.83943 7.15666 0.504001C7.48333 0.168573 7.87555 0.000572881 8.33333 1.45279e-06C8.79111 -0.000569976 9.18361 0.16743 9.51083 0.504001C9.83805 0.840572 10.0011 1.244 9.99999 1.71429V10.2857C9.99999 10.7571 9.83694 11.1609 9.51083 11.4969C9.18472 11.8329 8.79222 12.0006 8.33333 12ZM1.66667 12C1.20833 12 0.816111 11.8323 0.49 11.4969C0.163889 11.1614 0.000555555 10.7577 0 10.2857V1.71429C0 1.24286 0.163333 0.83943 0.49 0.504001C0.816666 0.168573 1.20889 0.000572881 1.66667 1.45279e-06C2.12444 -0.000569976 2.51694 0.16743 2.84417 0.504001C3.17139 0.840572 3.33444 1.244 3.33333 1.71429V10.2857C3.33333 10.7571 3.17028 11.1609 2.84417 11.4969C2.51805 11.8329 2.12555 12.0006 1.66667 12Z" fill="#20364D"/>
</svg>
