<svg width="10" height="10" viewBox="0 0 10 10" fill="none" xmlns="http://www.w3.org/2000/svg">
<path d="M3.6382 4.17633L4.52748 3.58379C4.71535 3.45847 4.85442 3.27237 4.92135 3.05668C4.98828 2.841 4.97902 2.60886 4.89511 2.3992L4.18299 0.618624C4.10991 0.435992 3.98379 0.279446 3.8209 0.16918C3.658 0.0589141 3.4658 -1.31862e-05 3.2691 2.21328e-09H1.03383C0.586482 2.21328e-09 0.165708 0.310542 0.0923804 0.795796C-0.0749448 1.89918 -0.301818 5.15815 2.27007 7.73009C4.84195 10.302 8.10086 10.0747 9.20422 9.90783C9.68946 9.83401 10 9.41372 10 8.96636V6.81471C10 6.58171 9.9174 6.35625 9.76682 6.17845C9.61624 6.00065 9.40747 5.88204 9.17765 5.84371L6.99454 5.48002C6.78691 5.44536 6.57364 5.47818 6.38603 5.57367C6.19843 5.66915 6.04638 5.82227 5.95221 6.01055L5.78193 6.3516C5.72175 6.33663 5.66216 6.3194 5.60328 6.29993C5.29816 6.19854 4.87444 5.98988 4.44234 5.55777C4.01025 5.12567 3.80159 4.70194 3.70021 4.39632C3.67631 4.32398 3.65529 4.25057 3.6382 4.17633Z" fill="#A7BBCE"/>
</svg>
