<svg width="18" height="18" viewBox="0 0 18 18" fill="none" xmlns="http://www.w3.org/2000/svg">
<path d="M2.19432 2.33366H5.93599L7.14182 5.34866L5.20432 6.64033C5.09022 6.71645 4.99668 6.81956 4.93199 6.94051C4.8673 7.06145 4.83347 7.1965 4.83349 7.33366C4.83599 7.41199 4.83349 7.33449 4.83349 7.33449V7.35199C4.8339 7.38926 4.83557 7.4265 4.83849 7.46366C4.84293 7.53255 4.85265 7.62421 4.86765 7.73866C4.90015 7.96366 4.96265 8.27366 5.08432 8.63866C5.32932 9.37199 5.80932 10.3212 6.74432 11.2562C7.67932 12.1912 8.62849 12.6712 9.36099 12.9162C9.72682 13.0378 10.036 13.0995 10.2627 13.1328C10.3905 13.1514 10.5193 13.1625 10.6485 13.1662L10.6593 13.167H10.666C10.666 13.167 10.7593 13.162 10.6668 13.167C10.8215 13.1669 10.9732 13.1238 11.1048 13.0424C11.2363 12.961 11.3427 12.8446 11.4118 12.7062L11.9702 11.5895L15.6668 12.2062V15.8062C13.9077 16.0603 9.15598 16.3112 5.42265 12.5778C1.68932 8.84449 1.93932 4.09199 2.19432 2.33366ZM6.56099 7.73866L8.06682 6.73533C8.38494 6.52314 8.62042 6.20801 8.73376 5.8428C8.8471 5.47759 8.83141 5.08451 8.68932 4.72949L7.48349 1.71449C7.35975 1.40525 7.14618 1.14017 6.87035 0.95346C6.59452 0.76675 6.26907 0.66697 5.93599 0.666992H2.15099C1.39349 0.666992 0.680986 1.19283 0.556819 2.01449C0.273486 3.88283 -0.110681 9.40116 4.24432 13.7562C8.59932 18.1112 14.1177 17.7262 15.986 17.4437C16.8077 17.3187 17.3335 16.607 17.3335 15.8495V12.2062C17.3335 11.8116 17.1936 11.4299 16.9386 11.1288C16.6837 10.8277 16.3301 10.6269 15.941 10.562L12.2443 9.94616C11.8927 9.88747 11.5316 9.94305 11.2139 10.1047C10.8962 10.2664 10.6388 10.5257 10.4793 10.8445L10.191 11.422C10.0891 11.3966 9.98818 11.3675 9.88849 11.3345C9.37182 11.1628 8.65432 10.8095 7.92265 10.0778C7.19099 9.34616 6.83765 8.62866 6.66599 8.11116C6.62552 7.98867 6.59076 7.86437 6.56182 7.73866H6.56099Z" fill="#A7BBCE"/>
</svg>
