<svg width="16" height="20" viewBox="0 0 16 20" fill="none" xmlns="http://www.w3.org/2000/svg">
<path d="M8 -0.000976562C3.6 -0.000976562 0 3.59902 0 7.99902C0 13.399 7 19.499 7.3 19.799C7.5 19.899 7.8 19.999 8 19.999C8.2 19.999 8.5 19.899 8.7 19.799C9 19.499 16 13.399 16 7.99902C16 3.59902 12.4 -0.000976562 8 -0.000976562ZM8 17.699C5.9 15.699 2 11.399 2 7.99902C2 4.69902 4.7 1.99902 8 1.99902C11.3 1.99902 14 4.69902 14 7.99902C14 11.299 10.1 15.699 8 17.699ZM8 3.99902C5.8 3.99902 4 5.79902 4 7.99902C4 10.199 5.8 11.999 8 11.999C10.2 11.999 12 10.199 12 7.99902C12 5.79902 10.2 3.99902 8 3.99902ZM8 9.99902C6.9 9.99902 6 9.09902 6 7.99902C6 6.89902 6.9 5.99902 8 5.99902C9.1 5.99902 10 6.89902 10 7.99902C10 9.09902 9.1 9.99902 8 9.99902Z" fill="#A7BBCE"/>
</svg>
