<svg width="8" height="22" viewBox="0 0 8 22" fill="none" xmlns="http://www.w3.org/2000/svg">
<path d="M3.99985 0C2.13831 0 0.615234 1.52308 0.615234 3.38462C0.615234 5.24615 2.13831 6.76923 3.99985 6.76923C5.86139 6.76923 7.38447 5.24615 7.38447 3.38462C7.38447 1.52308 5.86139 0 3.99985 0ZM3.99985 5.07692C3.06908 5.07692 2.30754 4.31538 2.30754 3.38462C2.30754 2.45385 3.06908 1.69231 3.99985 1.69231C4.93062 1.69231 5.69216 2.45385 5.69216 3.38462C5.69216 4.31538 4.93062 5.07692 3.99985 5.07692Z" fill="#A7BBCE"/>
<path d="M3.99985 7.61523C2.13831 7.61523 0.615234 9.13831 0.615234 10.9998C0.615234 12.8614 2.13831 14.3845 3.99985 14.3845C5.86139 14.3845 7.38447 12.8614 7.38447 10.9998C7.38447 9.13831 5.86139 7.61523 3.99985 7.61523ZM3.99985 12.6922C3.06908 12.6922 2.30754 11.9306 2.30754 10.9998C2.30754 10.0691 3.06908 9.30754 3.99985 9.30754C4.93062 9.30754 5.69216 10.0691 5.69216 10.9998C5.69216 11.9306 4.93062 12.6922 3.99985 12.6922Z" fill="#A7BBCE"/>
<path d="M3.99985 15.2305C2.13831 15.2305 0.615234 16.7535 0.615234 18.6151C0.615234 20.4766 2.13831 21.9997 3.99985 21.9997C5.86139 21.9997 7.38447 20.4766 7.38447 18.6151C7.38447 16.7535 5.86139 15.2305 3.99985 15.2305ZM3.99985 20.3074C3.06908 20.3074 2.30754 19.5459 2.30754 18.6151C2.30754 17.6843 3.06908 16.9228 3.99985 16.9228C4.93062 16.9228 5.69216 17.6843 5.69216 18.6151C5.69216 19.5459 4.93062 20.3074 3.99985 20.3074Z" fill="#A7BBCE"/>
</svg>
