<svg width="21" height="22" viewBox="0 0 21 22" fill="none" xmlns="http://www.w3.org/2000/svg">
<path d="M17.85 2.2H15.75V1.1C15.75 0.808262 15.6394 0.528472 15.4425 0.322183C15.2455 0.115892 14.9785 0 14.7 0C14.4215 0 14.1545 0.115892 13.9575 0.322183C13.7606 0.528472 13.65 0.808262 13.65 1.1V2.2H7.35V1.1C7.35 0.808262 7.23937 0.528472 7.04246 0.322183C6.84555 0.115892 6.57848 0 6.3 0C6.02152 0 5.75445 0.115892 5.55754 0.322183C5.36062 0.528472 5.25 0.808262 5.25 1.1V2.2H3.15C2.31457 2.2 1.51335 2.54768 0.922614 3.16655C0.331874 3.78542 0 4.62479 0 5.5V18.7C0 19.5752 0.331874 20.4146 0.922614 21.0335C1.51335 21.6523 2.31457 22 3.15 22H17.85C18.6854 22 19.4866 21.6523 20.0774 21.0335C20.6681 20.4146 21 19.5752 21 18.7V5.5C21 4.62479 20.6681 3.78542 20.0774 3.16655C19.4866 2.54768 18.6854 2.2 17.85 2.2ZM18.9 18.7C18.9 18.9917 18.7894 19.2715 18.5925 19.4778C18.3955 19.6841 18.1285 19.8 17.85 19.8H3.15C2.87152 19.8 2.60445 19.6841 2.40754 19.4778C2.21062 19.2715 2.1 18.9917 2.1 18.7V11H18.9V18.7ZM18.9 8.8H2.1V5.5C2.1 5.20826 2.21062 4.92847 2.40754 4.72218C2.60445 4.51589 2.87152 4.4 3.15 4.4H5.25V5.5C5.25 5.79174 5.36062 6.07153 5.55754 6.27782C5.75445 6.48411 6.02152 6.6 6.3 6.6C6.57848 6.6 6.84555 6.48411 7.04246 6.27782C7.23937 6.07153 7.35 5.79174 7.35 5.5V4.4H13.65V5.5C13.65 5.79174 13.7606 6.07153 13.9575 6.27782C14.1545 6.48411 14.4215 6.6 14.7 6.6C14.9785 6.6 15.2455 6.48411 15.4425 6.27782C15.6394 6.07153 15.75 5.79174 15.75 5.5V4.4H17.85C18.1285 4.4 18.3955 4.51589 18.5925 4.72218C18.7894 4.92847 18.9 5.20826 18.9 5.5V8.8Z" fill="#A7BBCE"/>
</svg>
