<svg width="20" height="20" viewBox="0 0 20 20" fill="none" xmlns="http://www.w3.org/2000/svg">
<path d="M10 0.000976562C15.523 0.000976562 20 4.47798 20 10.001C20 15.524 15.523 20.001 10 20.001H2C1.46957 20.001 0.960859 19.7903 0.585786 19.4152C0.210714 19.0401 0 18.5314 0 18.001V10.001C0 4.47798 4.477 0.000976562 10 0.000976562ZM10 2.00098C7.87827 2.00098 5.84344 2.84383 4.34315 4.34412C2.84285 5.84441 2 7.87924 2 10.001V18.001H10C12.1217 18.001 14.1566 17.1581 15.6569 15.6578C17.1571 14.1575 18 12.1227 18 10.001C18 7.87924 17.1571 5.84441 15.6569 4.34412C14.1566 2.84383 12.1217 2.00098 10 2.00098ZM10 12.001C10.2549 12.0013 10.5 12.0989 10.6854 12.2738C10.8707 12.4488 10.9822 12.6879 10.9972 12.9424C11.0121 13.1968 10.9293 13.4474 10.7657 13.6428C10.6021 13.8383 10.3701 13.9639 10.117 13.994L10 14.001H7C6.74512 14.0007 6.49997 13.9031 6.31463 13.7281C6.1293 13.5532 6.01776 13.314 6.00283 13.0596C5.98789 12.8051 6.07067 12.5546 6.23426 12.3591C6.39785 12.1637 6.6299 12.0381 6.883 12.008L7 12.001H10ZM13 8.00098C13.2652 8.00098 13.5196 8.10633 13.7071 8.29387C13.8946 8.48141 14 8.73576 14 9.00098C14 9.26619 13.8946 9.52055 13.7071 9.70808C13.5196 9.89562 13.2652 10.001 13 10.001H7C6.73478 10.001 6.48043 9.89562 6.29289 9.70808C6.10536 9.52055 6 9.26619 6 9.00098C6 8.73576 6.10536 8.48141 6.29289 8.29387C6.48043 8.10633 6.73478 8.00098 7 8.00098H13Z" fill="#A7BBCE"/>
</svg>
