<svg width="13" height="8" viewBox="0 0 13 8" fill="none" xmlns="http://www.w3.org/2000/svg">
<g clip-path="url(#clip0_14522_15696)">
<path d="M4.67127 6.82007L4.34127 7.18007L3.80127 7.76007C3.66127 7.92007 3.46127 8.00007 3.26127 8.00007H3.25127C3.05127 8.00007 2.86127 7.92007 2.72127 7.78007L0.221266 5.28007C-0.0687341 4.99007 -0.0787341 4.52007 0.221266 4.22007C0.521266 3.92007 0.991266 3.93007 1.28127 4.22007L3.23127 6.17007L8.71127 0.240074C8.99127 -0.0599258 9.46127 -0.0899258 9.76127 0.200074C10.0613 0.480074 10.0913 0.950074 9.80127 1.25007L6.51127 4.82007L5.70127 5.70007L4.68127 6.80007L4.67127 6.82007Z" fill="#D2DFEB"/>
<path d="M12.5089 0.450035C12.8189 0.730035 12.8289 1.21003 12.5489 1.51003L6.70891 7.76004C6.57891 7.91004 6.37891 7.99003 6.17891 7.99003C6.01891 8.01003 5.77891 7.91003 5.63891 7.77003L4.87891 7.01004L5.88891 5.90003L6.15891 6.17003L11.4589 0.490035C11.7389 0.190035 12.2189 0.170035 12.5089 0.450035Z" fill="#D2DFEB"/>
</g>
<defs>
<clipPath id="clip0_14522_15696">
<rect width="12.75" height="8" fill="white"/>
</clipPath>
</defs>
</svg>
