<svg width="18" height="18" viewBox="0 0 18 18" fill="none" xmlns="http://www.w3.org/2000/svg">
<path d="M9 18C6.61305 18 4.32387 17.0518 2.63604 15.364C0.948211 13.6761 0 11.3869 0 9C0 6.61305 0.948211 4.32387 2.63604 2.63604C4.32387 0.948211 6.61305 0 9 0C11.3869 0 13.6761 0.948211 15.364 2.63604C17.0518 4.32387 18 6.61305 18 9C18 11.3869 17.0518 13.6761 15.364 15.364C13.6761 17.0518 11.3869 18 9 18ZM9 16.2C10.9096 16.2 12.7409 15.4414 14.0912 14.0912C15.4414 12.7409 16.2 10.9096 16.2 9C16.2 7.09044 15.4414 5.25909 14.0912 3.90883C12.7409 2.55857 10.9096 1.8 9 1.8C7.09044 1.8 5.25909 2.55857 3.90883 3.90883C2.55857 5.25909 1.8 7.09044 1.8 9C1.8 10.9096 2.55857 12.7409 3.90883 14.0912C5.25909 15.4414 7.09044 16.2 9 16.2ZM8.1 9.369V3.6H9.9V8.631L13.455 12.186L12.186 13.455L8.1 9.369Z" fill="#20364D"/>
</svg>
