<svg width="16" height="17" viewBox="0 0 16 17" fill="none" xmlns="http://www.w3.org/2000/svg">
<path d="M3.55556 7.65H5.33333V9.35H3.55556V7.65ZM16 3.4V15.3C16 16.235 15.2 17 14.2222 17H1.77778C1.30628 17 0.854097 16.8209 0.520699 16.5021C0.187301 16.1833 0 15.7509 0 15.3L0.00888888 3.4C0.00888888 2.465 0.791111 1.7 1.77778 1.7H2.66667V0H4.44444V1.7H11.5556V0H13.3333V1.7H14.2222C15.2 1.7 16 2.465 16 3.4ZM1.77778 5.1H14.2222V3.4H1.77778V5.1ZM14.2222 15.3V6.8H1.77778V15.3H14.2222ZM10.6667 9.35H12.4444V7.65H10.6667V9.35ZM7.11111 9.35H8.88889V7.65H7.11111V9.35Z" fill="#20364D"/>
</svg>
