<svg width="16" height="16" viewBox="0 0 16 16" fill="none" xmlns="http://www.w3.org/2000/svg">
<path d="M6.39556 2.13322C6.23323 2.27156 6.15205 2.34073 6.06536 2.39884C5.86663 2.53204 5.64343 2.62448 5.40872 2.67082C5.30633 2.69104 5.20001 2.69952 4.98737 2.71649C4.45312 2.75912 4.18599 2.78044 3.96313 2.85916C3.44766 3.04123 3.04221 3.44668 2.86014 3.96215C2.78142 4.18501 2.76011 4.45214 2.71747 4.98639C2.70051 5.19902 2.69202 5.30535 2.6718 5.40774C2.62546 5.64246 2.53301 5.86565 2.39981 6.06438C2.34171 6.15108 2.27253 6.23226 2.13417 6.3946C1.78655 6.80254 1.61272 7.00648 1.5108 7.21974C1.27505 7.71301 1.27505 8.28634 1.5108 8.77961C1.61273 8.99288 1.78654 9.19681 2.13417 9.60474C2.27249 9.76708 2.34171 9.84828 2.39981 9.93494C2.53301 10.1337 2.62546 10.3569 2.6718 10.5916C2.69202 10.694 2.7005 10.8003 2.71747 11.0129C2.7601 11.5472 2.78142 11.8143 2.86014 12.0372C3.04221 12.5527 3.44766 12.9581 3.96313 13.1402C4.18598 13.2189 4.4531 13.2402 4.98732 13.2829C5.19995 13.2998 5.30633 13.3083 5.40872 13.3285C5.64343 13.3749 5.86663 13.4673 6.06536 13.6005C6.15206 13.6586 6.23323 13.7278 6.39559 13.8661C6.80352 14.2138 7.00745 14.3876 7.22072 14.4895C7.71399 14.7253 8.28732 14.7253 8.78059 14.4895C8.99385 14.3876 9.19779 14.2138 9.60572 13.8661C9.76805 13.7278 9.84925 13.6586 9.93592 13.6005C10.1347 13.4673 10.3579 13.3749 10.5926 13.3285C10.695 13.3083 10.8013 13.2998 11.0139 13.2829C11.5481 13.2402 11.8153 13.2189 12.0382 13.1402C12.5537 12.9581 12.9591 12.5527 13.1412 12.0372C13.2199 11.8143 13.2412 11.5472 13.2839 11.013C13.3008 10.8004 13.3093 10.694 13.3295 10.5916C13.3759 10.3569 13.4683 10.1337 13.6015 9.93494C13.6596 9.84828 13.7288 9.76708 13.8671 9.60474C14.2148 9.19681 14.3886 8.99288 14.4905 8.77961C14.7263 8.28634 14.7263 7.71301 14.4905 7.21974C14.3886 7.00648 14.2148 6.80254 13.8671 6.39461C13.7288 6.23226 13.6596 6.15108 13.6015 6.06438C13.4683 5.86565 13.3759 5.64246 13.3295 5.40774C13.3093 5.30535 13.3008 5.19903 13.2839 4.9864C13.2412 4.45218 13.2199 4.185 13.1412 3.96215C12.9591 3.44668 12.5537 3.04123 12.0382 2.85916C11.8153 2.78044 11.5482 2.75913 11.0139 2.7165C10.8013 2.69953 10.695 2.69104 10.5926 2.67082C10.3579 2.62448 10.1347 2.53204 9.93592 2.39884C9.84925 2.34073 9.76805 2.27155 9.60572 2.13319C9.19779 1.78556 8.99385 1.61175 8.78059 1.50982C8.28732 1.27407 7.71399 1.27407 7.22072 1.50982C7.00745 1.61174 6.80349 1.78559 6.39556 2.13322Z" fill="#3A9A76"/>
<path d="M11.0052 6.6628L11.0052 6.6628C11.2652 6.40278 11.2652 5.9812 11.0052 5.72118L11.0052 5.72117C10.7451 5.46116 10.3235 5.46114 10.0635 5.72118L6.91715 8.86755L5.94112 7.89144L5.94111 7.89143C5.68109 7.63144 5.25952 7.63144 4.9995 7.89143L4.99948 7.89145C4.73948 8.1515 4.73946 8.57307 4.99949 8.83308C4.9995 8.83308 4.9995 8.83308 4.9995 8.83309L6.44635 10.2799L6.44636 10.28C6.70639 10.5399 7.12796 10.54 7.38796 10.2799L11.0052 6.6628Z" fill="white" stroke="white" stroke-width="0.246513"/>
</svg>
