<svg width="13" height="8" viewBox="0 0 13 8" fill="none" xmlns="http://www.w3.org/2000/svg">
<path d="M8.66667 2.66667L11.9549 1.14933C12.065 1.09856 12.1873 1.07459 12.3103 1.0797C12.4332 1.08481 12.5527 1.11883 12.6574 1.17854C12.7621 1.23824 12.8485 1.32165 12.9085 1.42085C12.9684 1.52004 12.9999 1.63174 13 1.74533V6.25467C12.9999 6.36826 12.9684 6.47996 12.9085 6.57915C12.8485 6.67835 12.7621 6.76176 12.6574 6.82146C12.5527 6.88117 12.4332 6.91519 12.3103 6.9203C12.1873 6.92541 12.065 6.90144 11.9549 6.85067L8.66667 5.33333V2.66667ZM0 1.33333C0 0.979711 0.152182 0.640573 0.423068 0.390524C0.693954 0.140476 1.06135 0 1.44444 0H7.22222C7.60531 0 7.97271 0.140476 8.2436 0.390524C8.51448 0.640573 8.66667 0.979711 8.66667 1.33333V6.66667C8.66667 7.02029 8.51448 7.35943 8.2436 7.60948C7.97271 7.85952 7.60531 8 7.22222 8H1.44444C1.06135 8 0.693954 7.85952 0.423068 7.60948C0.152182 7.35943 0 7.02029 0 6.66667V1.33333Z" fill="#A7BBCE"/>
</svg>
