<svg width="15" height="10" viewBox="0 0 15 10" fill="none" xmlns="http://www.w3.org/2000/svg">
<path d="M9.69401 3.66667L12.9823 2.14933C13.0924 2.09856 13.2147 2.07459 13.3376 2.0797C13.4606 2.08481 13.58 2.11883 13.6847 2.17854C13.7894 2.23824 13.8758 2.32165 13.9358 2.42085C13.9958 2.52004 14.0273 2.63174 14.0273 2.74533V7.25467C14.0273 7.36826 13.9958 7.47996 13.9358 7.57915C13.8758 7.67835 13.7894 7.76176 13.6847 7.82146C13.58 7.88117 13.4606 7.91519 13.3376 7.9203C13.2147 7.92541 13.0924 7.90144 12.9823 7.85067L9.69401 6.33333V3.66667ZM1.02734 2.33333C1.02734 1.97971 1.17953 1.64057 1.45041 1.39052C1.7213 1.14048 2.0887 1 2.47179 1H8.24957C8.63266 1 9.00006 1.14048 9.27094 1.39052C9.54183 1.64057 9.69401 1.97971 9.69401 2.33333V7.66667C9.69401 8.02029 9.54183 8.35943 9.27094 8.60948C9.00006 8.85952 8.63266 9 8.24957 9H2.47179C2.0887 9 1.7213 8.85952 1.45041 8.60948C1.17953 8.35943 1.02734 8.02029 1.02734 7.66667V2.33333Z" stroke="#20364D" stroke-width="1.2" stroke-linecap="round" stroke-linejoin="round"/>
<path d="M4.15936 5.2886L6.31041 3.16741C6.53341 2.94468 6.8949 2.94467 7.1179 3.1674C7.34091 3.39039 7.34091 3.75215 7.1179 3.97515L4.98392 6.07945L6.68299 6.08659C6.914 6.08145 7.12758 6.28968 7.16268 6.56152L7.16268 6.65527C7.15725 6.88626 6.96595 7.22726 6.73525 7.23242L3.64023 7.21413C3.63568 7.2147 3.63254 7.21641 3.62854 7.21641L3.41983 7.22127C3.30474 7.22443 3.20111 7.17901 3.12745 7.10451C3.05207 7.03055 3.02523 6.92719 3.02751 6.81127L3.05007 6.60227C3.05007 6.59827 3.03465 6.59541 3.03465 6.59143L3.04636 3.46901C3.05121 3.23831 3.33528 3.10125 3.56656 3.09554L3.58609 3.09554C3.81708 3.09014 4.1802 3.29058 4.17506 3.52157L4.15936 5.2886Z" fill="#20364D"/>
</svg>
