<svg width="14" height="14" viewBox="0 0 14 14" fill="none" xmlns="http://www.w3.org/2000/svg">
<path d="M1.82567 3.16011C2.09151 5.22314 3.03349 7.13993 4.50433 8.61078C5.97518 10.0816 7.89197 11.0236 9.955 11.2894C10.1768 11.3129 10.4011 11.2885 10.6127 11.2179C10.8243 11.1474 11.0184 11.0324 11.1818 10.8805C11.3482 10.7355 11.4814 10.5563 11.5724 10.3552C11.6634 10.1542 11.7101 9.93583 11.7093 9.7151L11.7256 8.25934C11.7256 7.89159 11.5947 7.53585 11.3565 7.25568C11.1183 6.97551 10.7882 6.78918 10.4253 6.72998L10.1022 6.66864C9.88683 6.62247 9.67501 6.56098 9.46839 6.48463C9.2178 6.38757 8.93987 6.38836 8.68984 6.48686C8.43981 6.58536 8.23601 6.77434 8.11895 7.01623L8.05761 7.15117C7.17775 6.63068 6.44354 5.89647 5.92305 5.01661L6.05799 4.95527C6.29989 4.83821 6.48887 4.63441 6.58736 4.38438C6.68586 4.13435 6.68665 3.85642 6.58959 3.60583C6.51324 3.39921 6.45175 3.18739 6.40558 2.97201L6.34424 2.64896C6.29567 2.33246 6.14656 2.03999 5.91896 1.81476C5.6252 1.52027 5.22675 1.35413 4.81079 1.35268L3.32641 1.35677C3.1101 1.36576 2.89812 1.42031 2.70434 1.51685C2.51056 1.61338 2.33934 1.74974 2.20188 1.91699C2.0533 2.08486 1.94277 2.28285 1.87783 2.49741C1.8129 2.71197 1.79511 2.93803 1.82567 3.16011ZM3.37139 2.54673L4.84759 2.54264C4.93894 2.54077 5.02809 2.57077 5.09972 2.62748C5.17136 2.68419 5.22101 2.76408 5.24015 2.85342C5.2606 2.98836 5.28514 3.11922 5.31785 3.25825C5.37116 3.49322 5.43668 3.72526 5.51413 3.95342L4.90484 4.23557C4.76606 4.30069 4.65882 4.41824 4.60668 4.5624C4.55454 4.70655 4.56177 4.86551 4.62677 5.00434C5.34052 6.53569 6.57125 7.76642 8.1026 8.48016C8.24142 8.54517 8.40038 8.5524 8.54454 8.50026C8.68869 8.44811 8.80625 8.34087 8.87136 8.2021L9.15761 7.58871C9.38483 7.67133 9.61701 7.73962 9.85277 7.79317L10.2535 7.86678C10.3469 7.88214 10.4313 7.93166 10.4902 8.00571C10.5491 8.07976 10.5785 8.17307 10.5725 8.26752L10.5684 9.74372C10.5688 9.79634 10.5585 9.8485 10.5381 9.89701C10.5177 9.94552 10.4877 9.98937 10.4498 10.0259C10.4044 10.0645 10.3516 10.0935 10.2947 10.111C10.2377 10.1286 10.1778 10.1344 10.1186 10.1281C8.30938 9.8933 6.62874 9.06642 5.33872 7.7764C4.04869 6.48638 3.22181 4.80573 2.987 2.99654C2.9807 2.93728 2.98651 2.87736 3.00409 2.82042C3.02166 2.76348 3.05063 2.71071 3.08923 2.66532C3.12575 2.62743 3.1696 2.59737 3.21811 2.57698C3.26662 2.55659 3.31877 2.5463 3.37139 2.54673Z" fill="#EA4B61"/>
<path d="M11.1258 2.94382L8.97474 5.06501C8.75175 5.28774 8.39026 5.28775 8.16726 5.06503C7.94425 4.84203 7.94425 4.48027 8.16726 4.25727L10.3012 2.15297L8.60216 2.14583C8.37115 2.15097 8.15758 1.94274 8.12248 1.6709L8.12248 1.57715C8.1279 1.34616 8.31921 1.00516 8.54991 1L11.6449 1.01829C11.6495 1.01772 11.6526 1.01601 11.6566 1.01601L11.8653 1.01115C11.9804 1.00799 12.084 1.05341 12.1577 1.12792C12.2331 1.20187 12.2599 1.30523 12.2576 1.42115L12.2351 1.63016C12.2351 1.63415 12.2505 1.63701 12.2505 1.64099L12.2388 4.76341C12.2339 4.99411 11.9499 5.13117 11.7186 5.13688L11.6991 5.13688C11.4681 5.14229 11.105 4.94185 11.1101 4.71086L11.1258 2.94382Z" fill="#EA4B61"/>
</svg>
