<svg width="84" height="84" viewBox="0 0 84 84" fill="none" xmlns="http://www.w3.org/2000/svg">
<path d="M68.5506 73.5H10.4995C9.57123 73.5 8.68101 73.1311 8.02462 72.4748C7.36823 71.8186 6.9995 70.9282 6.9995 70V21C6.9995 20.0717 7.36823 19.1815 8.02462 18.5251C8.68101 17.8687 9.57123 17.5 10.4995 17.5H12.5505L4.875 9.82799L9.8275 4.87549L79.1241 74.1755L74.1716 79.1245L68.5506 73.5ZM26.4455 31.395C22.8259 35.3899 20.8812 40.6234 21.0139 46.0124C21.1465 51.4013 23.3465 56.533 27.1583 60.3449C30.97 64.1564 36.1018 66.3565 41.4907 66.4891C46.8797 66.6218 52.1132 64.6772 56.1081 61.0575L51.1486 56.098C48.4725 58.4118 45.0198 59.6267 41.4848 59.4982C37.9494 59.3701 34.5938 57.9085 32.0924 55.4071C29.591 52.9056 28.1293 49.5502 28.0011 46.0148C27.8729 42.4795 29.0878 39.0271 31.4015 36.351L26.442 31.395H26.4455ZM76.9996 62.2475L62.8421 48.09C63.2366 44.9186 62.9023 41.6986 61.8642 38.676C60.8261 35.6534 59.1118 32.9074 56.8519 30.6475C54.5919 28.3876 51.8462 26.6733 48.8236 25.6353C45.8006 24.5973 42.581 24.2628 39.4096 24.6575L28.3705 13.622L31.4995 10.5H52.4996L59.4996 17.5H73.4996C74.4278 17.5 75.3179 17.8687 75.9745 18.5251C76.6307 19.1815 76.9996 20.0717 76.9996 21V62.2475ZM47.2776 32.5255C49.007 33.2317 50.5781 34.2759 51.899 35.5967C53.2199 36.918 54.2643 38.4891 54.9706 40.2185L47.2776 32.5255Z" fill="#F2727F"/>
</svg>
