<svg width="19" height="21" viewBox="0 0 19 21" fill="none" xmlns="http://www.w3.org/2000/svg">
<path d="M4.75317 11.5521C4.61319 11.5521 4.47895 11.6074 4.37997 11.7059C4.28099 11.8043 4.22539 11.9379 4.22539 12.0771V15.2271C4.22539 15.3663 4.28099 15.4999 4.37997 15.5983C4.47895 15.6968 4.61319 15.7521 4.75317 15.7521C4.89314 15.7521 5.02738 15.6968 5.12636 15.5983C5.22534 15.4999 5.28094 15.3663 5.28094 15.2271V14.7021H5.80556C6.22548 14.7021 6.62821 14.5362 6.92514 14.2408C7.22207 13.9454 7.38889 13.5448 7.38889 13.1271C7.38889 12.7094 7.22207 12.3088 6.92514 12.0134C6.62821 11.718 6.22548 11.5521 5.80556 11.5521H4.75317ZM5.80556 13.6521H5.28094V12.6021H5.80556C5.94553 12.6021 6.07977 12.6574 6.17875 12.7559C6.27773 12.8543 6.33333 12.9879 6.33333 13.1271C6.33333 13.2663 6.27773 13.3999 6.17875 13.4983C6.07977 13.5968 5.94553 13.6521 5.80556 13.6521ZM12.6646 12.0771C12.6646 11.9379 12.7202 11.8043 12.8191 11.7059C12.9181 11.6074 13.0524 11.5521 13.1923 11.5521H14.7809C14.9209 11.5521 15.0552 11.6074 15.1541 11.7059C15.2531 11.8043 15.3087 11.9379 15.3087 12.0771C15.3087 12.2163 15.2531 12.3499 15.1541 12.4483C15.0552 12.5468 14.9209 12.6021 14.7809 12.6021H13.7191L13.718 13.6542H14.7809C14.9209 13.6542 15.0552 13.7095 15.1541 13.808C15.2531 13.9064 15.3087 14.04 15.3087 14.1792C15.3087 14.3184 15.2531 14.452 15.1541 14.5504C15.0552 14.6489 14.9209 14.7042 14.7809 14.7042H13.718L13.7201 15.226C13.7203 15.295 13.7067 15.3633 13.6803 15.427C13.6539 15.4908 13.6152 15.5487 13.5663 15.5976C13.4675 15.6962 13.3334 15.7518 13.1934 15.7521C13.0534 15.7524 12.9191 15.6973 12.8199 15.5991C12.7207 15.5008 12.6648 15.3674 12.6646 15.2281L12.6614 14.1802V14.1781L12.6646 12.0771ZM8.97222 11.5521H9.49789C10.0578 11.5521 10.5948 11.7733 10.9907 12.1672C11.3866 12.561 11.609 13.0951 11.609 13.6521C11.609 14.2091 11.3866 14.7432 10.9907 15.137C10.5948 15.5309 10.0578 15.7521 9.49789 15.7521H8.97222C8.83225 15.7521 8.698 15.6968 8.59903 15.5983C8.50005 15.4999 8.44444 15.3663 8.44444 15.2271V12.0771C8.44444 11.9379 8.50005 11.8043 8.59903 11.7059C8.698 11.6074 8.83225 11.5521 8.97222 11.5521ZM9.5 14.7021C9.77995 14.7021 10.0484 14.5915 10.2464 14.3946C10.4443 14.1976 10.5556 13.9306 10.5556 13.6521C10.5556 13.3736 10.4443 13.1066 10.2464 12.9096C10.0484 12.7127 9.77995 12.6021 9.5 12.6021V14.7021ZM9.5 6.3V0H3.16667C2.60677 0 2.0698 0.221249 1.67389 0.615076C1.27798 1.0089 1.05556 1.54305 1.05556 2.1V9.1014C0.431722 9.39645 0 10.0296 0 10.7625V16.5375C0 17.2704 0.431722 17.9025 1.05556 18.1986V18.9C1.05556 19.457 1.27798 19.9911 1.67389 20.3849C2.0698 20.7787 2.60677 21 3.16667 21H15.8333C16.3932 21 16.9302 20.7787 17.3261 20.3849C17.722 19.9911 17.9444 19.457 17.9444 18.9V18.1986C18.5683 17.9035 19 17.2704 19 16.5375V10.7625C19 10.0296 18.5683 9.3975 17.9444 9.1014V8.4H11.6111C11.0512 8.4 10.5142 8.17875 10.1183 7.78492C9.72242 7.3911 9.5 6.85695 9.5 6.3ZM1.84722 10.5H17.1528C17.2228 10.5 17.2899 10.5277 17.3394 10.5769C17.3889 10.6261 17.4167 10.6929 17.4167 10.7625V16.5375C17.4167 16.6071 17.3889 16.6739 17.3394 16.7231C17.2899 16.7723 17.2228 16.8 17.1528 16.8H1.84722C1.77723 16.8 1.71011 16.7723 1.66062 16.7231C1.61114 16.6739 1.58333 16.6071 1.58333 16.5375V10.7625C1.58333 10.6929 1.61114 10.6261 1.66062 10.5769C1.71011 10.5277 1.77723 10.5 1.84722 10.5ZM11.0833 6.3V0.525L17.4167 6.825H11.6111C11.4711 6.825 11.3369 6.76969 11.2379 6.67123C11.1389 6.57277 11.0833 6.43924 11.0833 6.3Z" fill="#315D80"/>
</svg>
