<svg width="20" height="20" viewBox="0 0 20 20" fill="none" xmlns="http://www.w3.org/2000/svg">
<path d="M18.1836 1.89052C18.1738 1.52919 17.8945 1.25575 17.5332 1.24989C17.334 1.24794 17.1328 1.24989 16.9336 1.24989H2.56055C2.50586 1.24989 2.45313 1.24794 2.39844 1.2538C2.04688 1.28895 1.81836 1.57802 1.81641 1.92177V2.57802V3.57411H1.97461H18.1836V2.04286C18.1836 1.99208 18.1855 1.9413 18.1836 1.89052Z" fill="#F2727F"/>
<path d="M18.1842 17.8574V4.35547H1.81706V17.6191C1.81706 17.7832 1.8112 17.9492 1.81706 18.1113C1.82878 18.4746 2.10807 18.7461 2.4694 18.75H2.67253H17.5319H17.5495C17.5592 18.75 17.569 18.75 17.5768 18.748H17.5788C17.9342 18.7207 18.1823 18.4375 18.1842 18.082C18.1862 18.0078 18.1842 17.9336 18.1842 17.8574ZM15.3952 11.6992C15.3893 11.7715 15.3835 11.8418 15.3737 11.9141C15.3717 11.9297 15.3698 11.9473 15.3678 11.9629C15.3678 11.9609 15.3678 11.959 15.3678 11.959V11.9609V11.9648V11.9668V11.9688V11.9707V11.9746V11.9766C15.362 12.0137 15.3561 12.0508 15.3503 12.0859C15.3034 12.373 15.235 12.6562 15.1452 12.9316C15.1022 13.0645 15.0553 13.1934 15.0026 13.3223C14.9987 13.3301 14.9967 13.3379 14.9928 13.3457C14.9889 13.3535 14.9928 13.3477 14.9909 13.3477V13.3496V13.3516V13.3535V13.3555C14.9909 13.3574 14.9889 13.3594 14.9889 13.3613V13.3633C14.987 13.3652 14.987 13.3691 14.985 13.3691C14.9714 13.4004 14.9577 13.4316 14.9421 13.4629C14.9108 13.5293 14.8796 13.5957 14.8464 13.6602C14.7194 13.9121 14.5729 14.1562 14.4108 14.3867C14.3737 14.4395 14.3366 14.4902 14.2975 14.541V14.543C14.2975 14.5449 14.2956 14.5449 14.2936 14.5469C14.2936 14.5488 14.2917 14.5488 14.2917 14.5488L14.2897 14.5508C14.2897 14.5508 14.2897 14.5527 14.2878 14.5527C14.2878 14.5527 14.2878 14.5527 14.2858 14.5547C14.278 14.5645 14.2702 14.5723 14.2643 14.582C14.237 14.6152 14.2116 14.6484 14.1842 14.6816C14.0964 14.7871 14.0065 14.8887 13.9108 14.9863C13.8132 15.0879 13.7135 15.1855 13.6081 15.2793C13.5573 15.3242 13.5065 15.3691 13.4538 15.4121C13.4284 15.4336 13.401 15.4551 13.3757 15.4766C13.3659 15.4844 13.3249 15.5156 13.3151 15.5254C13.3053 15.5352 13.3132 15.5254 13.3132 15.5273C13.0924 15.6953 12.86 15.8477 12.6198 15.9805C12.4987 16.0469 12.3757 16.1094 12.2526 16.168C12.2214 16.1816 12.1901 16.1973 12.1589 16.2109C12.151 16.2148 12.1432 16.2168 12.1354 16.2207C12.1354 16.2207 12.1354 16.2207 12.1335 16.2207C12.1335 16.2207 12.1335 16.2207 12.1315 16.2207H12.1296C12.1296 16.2207 12.1296 16.2207 12.1276 16.2207C12.1276 16.2207 12.1276 16.2207 12.1257 16.2207C12.1237 16.2207 12.1237 16.2207 12.1217 16.2227C12.1217 16.2227 12.1217 16.2227 12.1198 16.2227H12.1178H12.1159C12.1139 16.2227 12.1139 16.2246 12.112 16.2246H12.11C12.1081 16.2246 12.1081 16.2246 12.1061 16.2266C12.0378 16.2539 11.9694 16.2813 11.901 16.3066C11.6335 16.4043 11.36 16.4824 11.0807 16.541C11.0104 16.5547 10.9421 16.5684 10.8717 16.5801C10.8366 16.5859 10.8014 16.5918 10.7663 16.5957C10.7565 16.5977 10.7467 16.5977 10.737 16.5996C10.735 16.5996 10.6882 16.6055 10.6842 16.6055C10.5417 16.623 10.3971 16.6348 10.2526 16.6406C9.95182 16.6543 9.64909 16.6426 9.35026 16.6094C9.33854 16.6074 9.29753 16.6035 9.2819 16.6016H9.28581C9.2819 16.6016 9.27995 16.6016 9.27995 16.5996C9.27995 16.5977 9.27995 16.5996 9.27799 16.5996C9.2487 16.5957 9.2194 16.5918 9.1901 16.5859C9.11979 16.5742 9.04948 16.5625 8.97917 16.5488C8.83073 16.5195 8.68425 16.4844 8.53971 16.4434C8.40495 16.4063 8.27018 16.3633 8.13932 16.3145C8.07487 16.291 8.00846 16.2656 7.94401 16.2383C7.93229 16.2324 7.91862 16.2285 7.9069 16.2227C7.90495 16.2227 7.90495 16.2207 7.903 16.2207C7.90104 16.2188 7.89714 16.2188 7.89518 16.2168C7.86003 16.2012 7.82292 16.1855 7.78776 16.1699C7.5319 16.0527 7.28581 15.918 7.05143 15.7637C6.93424 15.6875 6.81901 15.6074 6.70964 15.5234C6.70182 15.5176 6.67253 15.4941 6.66471 15.4883C6.63737 15.4668 6.61198 15.4453 6.58464 15.4238C6.52799 15.377 6.47331 15.3301 6.41862 15.2812C6.20768 15.0938 6.01042 14.8887 5.83073 14.6719C5.80924 14.6445 5.78776 14.6191 5.76628 14.5918C5.75846 14.584 5.73698 14.5547 5.72721 14.541C5.72721 14.541 5.72721 14.543 5.72917 14.543C5.72721 14.541 5.72721 14.5391 5.72526 14.5391C5.72526 14.5391 5.72526 14.5391 5.72331 14.5371C5.68424 14.4863 5.64714 14.4355 5.61003 14.3848C5.52604 14.2656 5.44596 14.1426 5.36979 14.0176C5.29948 13.8984 5.23112 13.7773 5.17057 13.6543C5.13932 13.5918 5.11003 13.5293 5.08073 13.4668C5.06706 13.4355 5.05143 13.4043 5.03776 13.3711C5.03385 13.3613 5.02995 13.3516 5.02409 13.3418C5.01823 13.332 5.02409 13.3398 5.02214 13.3398C5.02214 13.3398 5.02214 13.3379 5.02018 13.3379C5.01823 13.3379 5.02018 13.3359 5.01823 13.334C5.01823 13.334 5.01823 13.334 5.01823 13.332V13.3301C5.01628 13.3242 5.01237 13.3164 5.01042 13.3105C4.90299 13.0469 4.8151 12.7754 4.7487 12.498C4.71354 12.3516 4.68424 12.2031 4.66081 12.0527C4.6569 12.0234 4.65104 11.9941 4.64714 11.9648V11.9688C4.64714 11.9629 4.64518 11.9512 4.64518 11.9473V11.9492C4.64323 11.9336 4.64128 11.9199 4.63932 11.9043C4.63151 11.8281 4.6237 11.752 4.61784 11.6738C4.5944 11.3652 4.59635 11.0547 4.62174 10.7461C4.6276 10.6738 4.63542 10.6035 4.64323 10.5312C4.64323 10.5293 4.64323 10.5273 4.64323 10.5254C4.64323 10.5234 4.64323 10.5215 4.64323 10.5215C4.64323 10.5195 4.64323 10.5176 4.64323 10.5176V10.5156C4.64323 10.5137 4.64323 10.5137 4.64323 10.5117V10.5098C4.64518 10.5 4.64518 10.4922 4.64714 10.4824C4.65299 10.4473 4.6569 10.4121 4.66276 10.377C4.68815 10.2285 4.71745 10.082 4.75456 9.93555C4.82292 9.66406 4.91081 9.39844 5.01628 9.14062C5.12174 8.88281 5.01628 9.13867 5.01823 9.13672C5.01823 9.13672 5.01823 9.13477 5.02018 9.13281C5.02018 9.13086 5.02214 9.12891 5.02214 9.12695C5.02214 9.12695 5.02214 9.12695 5.02214 9.125C5.02214 9.12305 5.02409 9.12305 5.02409 9.12109C5.02995 9.10742 5.03581 9.09375 5.04167 9.08008C5.05534 9.04883 5.06901 9.01758 5.08464 8.98633C5.11589 8.91992 5.14714 8.85352 5.18034 8.78906C5.24284 8.66602 5.30924 8.54688 5.38151 8.42969C5.45573 8.30859 5.5319 8.19141 5.61393 8.07617C5.63346 8.04883 5.65299 8.02148 5.67448 7.99414C5.68424 7.98047 5.69401 7.9668 5.70573 7.95313C5.70768 7.95117 5.71159 7.94727 5.71549 7.94141C5.7194 7.93555 5.71549 7.94141 5.71745 7.93945C5.7194 7.9375 5.71745 7.93945 5.7194 7.9375C5.7194 7.9375 5.7194 7.93555 5.72135 7.93555C5.72331 7.93555 5.72135 7.93555 5.72135 7.93359C5.72135 7.93164 5.72135 7.93164 5.72331 7.93164C5.72526 7.93164 5.72331 7.93164 5.72526 7.92969C5.72526 7.92773 5.72721 7.92773 5.72721 7.92773C5.72721 7.92773 5.72721 7.92773 5.72721 7.92578C5.73112 7.91992 5.73503 7.91602 5.73698 7.91406C5.74675 7.90039 5.75846 7.88672 5.76823 7.87305C5.79167 7.84375 5.81706 7.81445 5.84049 7.78516C6.02214 7.57031 6.21745 7.36914 6.42839 7.18164C6.47917 7.13672 6.5319 7.0918 6.58464 7.04883C6.60807 7.0293 6.63151 7.01172 6.65495 6.99219C6.66862 6.98242 6.68229 6.9707 6.69401 6.96094C6.69596 6.95898 6.69792 6.95703 6.69987 6.95703C6.69987 6.95703 6.69792 6.95703 6.69792 6.95898C6.69987 6.95703 6.69987 6.95703 6.70182 6.95703C6.70378 6.95703 6.70573 6.95508 6.70768 6.95312C6.82096 6.86914 6.93425 6.78711 7.05339 6.71094C7.28581 6.5625 7.53581 6.42578 7.79362 6.30859C7.82292 6.29492 7.85221 6.28125 7.88346 6.26953H7.88151C7.88542 6.26758 7.89323 6.26367 7.89714 6.26172C7.89909 6.26172 7.89909 6.25977 7.90104 6.25977C7.91471 6.25391 7.92643 6.25 7.9401 6.24414C8.00846 6.2168 8.07682 6.18945 8.14714 6.16406C8.27799 6.11719 8.41081 6.07422 8.54557 6.03711C8.6862 5.99805 8.82682 5.96484 8.9694 5.93555C9.03971 5.92187 9.10807 5.91016 9.17839 5.89844C9.21159 5.89258 9.24674 5.88867 9.27995 5.88281C9.27799 5.88281 9.27604 5.88281 9.27409 5.88281C9.27995 5.88281 9.28971 5.88086 9.29362 5.88086C9.29362 5.88086 9.29167 5.88086 9.28971 5.88086C9.30925 5.87891 9.32878 5.875 9.35026 5.87305C9.64909 5.83984 9.94987 5.82813 10.2487 5.8418C10.3932 5.84766 10.5378 5.85937 10.6823 5.87695C10.6921 5.87891 10.6999 5.87891 10.7096 5.88086H10.7116H10.7135H10.7155H10.7174H10.7194H10.7214H10.7253H10.7272H10.7292H10.7311H10.737C10.7721 5.88672 10.8073 5.89062 10.8424 5.89648C10.9167 5.9082 10.9909 5.92188 11.0651 5.9375C11.3483 5.99414 11.6276 6.07422 11.8991 6.17578C11.9596 6.19727 12.0202 6.22266 12.0807 6.24609C12.0827 6.24609 12.0846 6.24805 12.0866 6.24805H12.0885C12.1022 6.25391 12.1159 6.25977 12.1296 6.26562C12.1686 6.2832 12.2077 6.30078 12.2487 6.31836C12.3737 6.37695 12.4967 6.43945 12.6178 6.50586C12.7409 6.57422 12.862 6.64844 12.9811 6.72656C13.0378 6.76367 13.0944 6.80273 13.151 6.8418C13.1784 6.86133 13.2077 6.88086 13.235 6.90234C13.2428 6.9082 13.2936 6.94727 13.3014 6.95117C13.5202 7.12109 13.7253 7.30664 13.9147 7.50586C14.0085 7.60352 14.1003 7.70703 14.1882 7.8125C14.2096 7.83789 14.2311 7.86523 14.2526 7.89258C14.2585 7.89844 14.2839 7.93359 14.2936 7.94531C14.2936 7.94531 14.2936 7.94727 14.2956 7.94727V7.94922C14.3366 8.00195 14.3757 8.05664 14.4128 8.11133C14.5768 8.34375 14.7214 8.58789 14.8483 8.83984C14.8776 8.89844 14.9049 8.95703 14.9323 9.01562C14.946 9.04688 14.9616 9.07812 14.9753 9.10938C14.9792 9.11914 14.9831 9.12695 14.987 9.13477C14.9909 9.14258 14.9889 9.13672 14.9889 9.14062C14.9948 9.15234 15.0046 9.17773 15.0046 9.18164C15.0573 9.31055 15.1042 9.44141 15.1471 9.57422C15.235 9.85156 15.3034 10.1367 15.3483 10.4238C15.3522 10.4531 15.3581 10.4824 15.362 10.5098V10.5137V10.5156C15.3639 10.5332 15.3698 10.5742 15.3698 10.584C15.3776 10.6563 15.3854 10.7285 15.3913 10.7988C15.403 10.9453 15.4069 11.0898 15.4069 11.2363C15.4108 11.4004 15.4049 11.5488 15.3952 11.6992Z" fill="#4D7EA5"/>
<path d="M8.46074 12.1643C8.3709 11.7385 8.1834 11.3518 8.01153 10.9553C7.9041 10.6917 7.82012 10.4182 7.7752 10.137C7.75957 9.98072 7.75567 9.82252 7.77129 9.66627C7.78887 9.56275 7.81621 9.46314 7.85137 9.36549C7.88262 9.30299 7.91582 9.24439 7.95488 9.1858C7.9627 9.17603 7.97246 9.16822 7.98028 9.16041C8.20879 8.95533 8.20488 8.53736 7.98028 8.33228C7.73613 8.10767 7.39629 8.11353 7.15215 8.33228C6.95879 8.50611 6.83965 8.76002 6.74395 8.99635C6.54082 9.4983 6.56231 10.0764 6.67168 10.596C6.76153 11.0217 6.94512 11.4085 7.11699 11.803C7.11699 11.803 7.11699 11.8049 7.11895 11.8049C7.22442 12.0667 7.31035 12.3362 7.35723 12.6135C7.3709 12.7522 7.37481 12.8909 7.36113 13.0295C7.34551 13.1135 7.32403 13.1956 7.29668 13.2737C7.2791 13.3088 7.26153 13.342 7.24004 13.3772C7.23418 13.385 7.23028 13.3928 7.22442 13.4006C7.17168 13.4553 7.0877 13.5198 7.20293 13.4319C7.20098 13.4338 7.19903 13.4358 7.19903 13.4378C7.10723 13.5159 7.03692 13.6018 6.99981 13.7307C6.96074 13.8713 6.97832 14.0569 7.0584 14.1819C7.13848 14.3069 7.25957 14.4163 7.40801 14.4514C7.55059 14.4846 7.73613 14.4846 7.85918 14.3928C8.54082 13.8772 8.62676 12.9475 8.46074 12.1643ZM7.94512 9.19166C7.88067 9.27955 7.9041 9.23853 7.94512 9.19166V9.19166ZM7.2166 13.4221C7.2166 13.4202 7.21856 13.4202 7.22051 13.4182C7.23028 13.4104 7.24004 13.4026 7.25371 13.3928C7.24004 13.4026 7.22832 13.4124 7.2166 13.4221Z" fill="#4D7EA5"/>
<path d="M10.8979 12.0745C10.8081 11.6487 10.6225 11.2639 10.4507 10.8694C10.4507 10.8674 10.4507 10.8674 10.4487 10.8655C10.3432 10.6018 10.2573 10.3303 10.2124 10.0491C10.1968 9.89088 10.1929 9.73267 10.2065 9.57447C10.2241 9.47291 10.2515 9.37135 10.2847 9.27369C10.3159 9.21119 10.3511 9.15064 10.3882 9.09205C10.396 9.08228 10.4057 9.07447 10.4136 9.06666C10.6421 8.86158 10.6382 8.44361 10.4136 8.23853C10.1694 8.01392 9.82958 8.01978 9.58544 8.23853C9.39208 8.41236 9.27294 8.66627 9.17723 8.9026C8.97411 9.4065 8.99559 9.98267 9.10692 10.5022C9.19676 10.9299 9.38231 11.3186 9.55614 11.7151C9.66161 11.9749 9.74754 12.2444 9.79247 12.5217C9.80614 12.6604 9.81005 12.7991 9.79637 12.9397C9.78075 13.0237 9.75926 13.1038 9.73192 13.1838C9.71434 13.219 9.69676 13.2522 9.67528 13.2874C9.66942 13.2952 9.66551 13.303 9.65965 13.3108C9.60692 13.3655 9.52294 13.4299 9.63817 13.342C9.63622 13.344 9.63426 13.346 9.63426 13.3479C9.54247 13.426 9.4702 13.5139 9.43505 13.6409C9.39598 13.7815 9.41356 13.969 9.49364 14.092C9.57372 14.217 9.69481 14.3264 9.84325 14.3616C9.98583 14.3948 10.1714 14.3948 10.2944 14.303C10.98 13.7874 11.064 12.8577 10.8979 12.0745ZM10.3862 9.09986C10.3179 9.19361 10.3432 9.14674 10.3862 9.09986V9.09986ZM9.6538 13.3323C9.6538 13.3303 9.65575 13.3303 9.6577 13.3284C9.66747 13.3206 9.67919 13.3128 9.6909 13.303C9.67723 13.3128 9.66551 13.3225 9.6538 13.3323Z" fill="#4D7EA5"/>
<path d="M13.3354 12.0374C13.2456 11.6116 13.06 11.2268 12.8882 10.8323C12.8882 10.8303 12.8882 10.8303 12.8862 10.8284C12.7807 10.5647 12.6948 10.2932 12.6499 10.0139C12.6343 9.85572 12.6304 9.69752 12.644 9.53931C12.6616 9.43775 12.689 9.33619 12.7241 9.23853C12.7554 9.17603 12.7905 9.11549 12.8276 9.05689C12.8354 9.04713 12.8432 9.03931 12.853 9.0315C13.0815 8.82642 13.0776 8.40845 12.853 8.20338C12.6089 7.97877 12.269 7.98463 12.0249 8.20338C11.8315 8.3772 11.7124 8.63111 11.6167 8.86744C11.4136 9.37135 11.435 9.94752 11.5464 10.467C11.6362 10.8948 11.8218 11.2835 11.9936 11.6799C12.0991 11.9397 12.1831 12.2073 12.23 12.4827C12.2436 12.6233 12.2475 12.7639 12.2358 12.9026V12.9045C12.2202 12.9866 12.1987 13.0686 12.1714 13.1467C12.1538 13.1819 12.1362 13.2151 12.1147 13.2503C12.1089 13.2581 12.105 13.2659 12.0991 13.2737C12.0464 13.3284 11.9604 13.3928 12.0776 13.3049C12.0757 13.3069 12.0737 13.3088 12.0737 13.3108C11.9819 13.3889 11.9097 13.4768 11.8745 13.6038C11.8354 13.7444 11.853 13.9319 11.9331 14.0549C12.0132 14.1799 12.1343 14.2893 12.2827 14.3245C12.4253 14.3577 12.6108 14.3577 12.7339 14.2659C13.4175 13.7503 13.5015 12.8206 13.3354 12.0374ZM12.8198 9.0647C12.7554 9.1565 12.7807 9.11158 12.8198 9.0647V9.0647ZM12.0913 13.2952C12.0913 13.2932 12.0932 13.2932 12.0932 13.2913C12.103 13.2835 12.1147 13.2756 12.1265 13.2659C12.1147 13.2756 12.103 13.2854 12.0913 13.2952Z" fill="#4D7EA5"/>
</svg>
