<svg width="20" height="20" viewBox="0 0 20 20" fill="none" xmlns="http://www.w3.org/2000/svg">
<path d="M4.96449 7.90191H6.27855C6.23305 7.14785 6.13629 6.39449 5.98648 5.64539L5.8141 4.78355L6.67594 4.9559C8.82406 5.38559 11.0025 5.38559 13.1506 4.9559L14.0125 4.78355L13.8401 5.64539C13.6903 6.39449 13.5935 7.14781 13.548 7.90191H15.1696C16.5936 7.90191 17.7855 8.91453 18.0632 10.2575V0.775391H1.93555V10.374C1.9359 10.3739 1.93625 10.3739 1.9366 10.3739C2.22375 8.9652 3.47227 7.90191 4.96449 7.90191Z" fill="#F1D15B"/>
<path d="M13.5851 10.3549H16.8807C16.6632 9.61562 15.979 9.07422 15.1702 9.07422H13.5195C13.5244 9.50168 13.5466 9.92879 13.5851 10.3549Z" fill="#695F7E"/>
<path d="M7.41969 10.3546H12.4085C12.2934 8.98949 12.3388 7.61586 12.545 6.25195C10.7958 6.51633 9.03242 6.51633 7.2832 6.25195C7.48934 7.6159 7.53473 8.98953 7.41969 10.3546Z" fill="#695F7E"/>
<path d="M6.24277 10.3549C6.28129 9.92875 6.30344 9.50168 6.30832 9.07422H4.96516C4.1309 9.07422 3.41969 9.60973 3.15625 10.3549H6.24277Z" fill="#695F7E"/>
<path d="M17.6984 11.4873H2.3016C1.0325 11.4873 0 12.5198 0 13.7889V14.7352H20V13.7889C20 12.5198 18.9675 11.4873 17.6984 11.4873Z" fill="#F1D15B"/>
<path d="M20 17.6418V15.9072H0V17.6418H1.49387V19.225H2.66574V17.6418H17.3343V19.225H18.5061V17.6418H20Z" fill="#695F7E"/>
</svg>
