<svg width="20" height="20" viewBox="0 0 20 20" fill="none" xmlns="http://www.w3.org/2000/svg">
<g clip-path="url(#clip0_6478_4253)">
<path d="M19.8897 4.20415L17.2812 0.291407C17.1602 0.110117 16.9566 0.000976562 16.7386 0.000976562H3.26141C3.04341 0.000976562 2.83985 0.110117 2.71883 0.291407L0.110353 4.20415C-0.178358 4.63724 0.133283 5.21798 0.652932 5.21798C0.976566 5.21798 19.0209 5.21798 19.3471 5.21798C19.8678 5.21798 20.1779 4.63642 19.8897 4.20415Z" fill="#F1D15B"/>
<path d="M1.30859 6.52246C1.30859 6.60945 1.30859 19.2606 1.30859 19.3476C1.30859 19.7076 1.59613 19.9997 1.95637 19.9997C2.51633 19.9997 17.3078 19.9997 18.0421 19.9997C18.4023 19.9997 18.6942 19.7076 18.6942 19.3476C18.6942 19.2607 18.6942 6.60945 18.6942 6.52246H1.30859ZM5.22134 15.6522H2.60852C2.60852 15.3752 2.60852 13.3123 2.60852 13.0437C4.15129 13.0437 4.98411 13.0437 5.22138 13.0437V15.6522H5.22134ZM7.39075 11.7395H4.78227C4.42204 11.7395 4.13016 11.4474 4.13016 11.0874V8.47887C4.13016 8.11887 4.42204 7.82676 4.78227 7.82676H7.39075C7.75099 7.82676 8.04724 8.11887 8.04724 8.47887V11.0874C8.04724 11.4474 7.75099 11.7395 7.39075 11.7395ZM11.96 18.6955H8.04287V16.3043H8.69498C9.05521 16.3043 9.34709 16.0122 9.34709 15.6522C9.34709 15.2922 9.05521 15.0001 8.69498 15.0001H8.04287V13.0437H11.9599V18.6955H11.96ZM12.1773 11.7395H9.99924C9.639 11.7395 9.34713 11.4474 9.34713 11.0874V8.47887C9.34713 8.11887 9.639 7.82676 9.99924 7.82676H12.1773V11.7395ZM13.4773 7.82672H15.2162C15.5765 7.82672 15.8727 8.11883 15.8727 8.47883V11.0873C15.8727 11.4473 15.5765 11.7394 15.2162 11.7394H13.4773V7.82672ZM17.3943 15.6522H14.7815V13.0437C15.0958 13.0437 17.0813 13.0437 17.3943 13.0437C17.3943 13.3207 17.3943 15.3836 17.3943 15.6522Z" fill="#315D80"/>
</g>
<defs>
<clipPath id="clip0_6478_4253">
<rect width="20" height="20" fill="white"/>
</clipPath>
</defs>
</svg>
