<svg width="20" height="21" viewBox="0 0 20 21" fill="none" xmlns="http://www.w3.org/2000/svg">
<g clip-path="url(#clip0_6478_3163)">
<path d="M19.4141 1.77734C19.7379 1.77734 20 1.51527 20 1.19141C20 0.867539 19.7379 0.605469 19.4141 0.605469H17.0703C16.7464 0.605469 16.4844 0.867539 16.4844 1.19141C16.4844 1.51527 16.7464 1.77734 17.0703 1.77734H17.6562V19.4336H17.0703C16.7464 19.4336 16.4844 19.6957 16.4844 20.0195C16.4844 20.3434 16.7464 20.6055 17.0703 20.6055H19.4141C19.7379 20.6055 20 20.3434 20 20.0195C20 19.6957 19.7379 19.4336 19.4141 19.4336H18.8281V1.77734H19.4141Z" fill="#F2727F"/>
<path d="M4.10156 0.605469H7.03125V5.33203H4.10156V0.605469Z" fill="#F2727F"/>
<path d="M0 6.50391H7.03125V10.0195H0V6.50391Z" fill="#F2727F"/>
<path d="M8.20312 10.0195H15.3125V1.19141C15.3125 0.867539 15.0504 0.605469 14.7266 0.605469H8.20312V10.0195Z" fill="#315D80"/>
<path d="M2.92969 0.605469H0.585938C0.26207 0.605469 0 0.867539 0 1.19141V5.33203H2.92969V0.605469Z" fill="#F2727F"/>
<path d="M0.585938 20.6055H14.7266C15.0504 20.6055 15.3125 20.3434 15.3125 20.0195V11.1914H0V20.0195C0 20.3434 0.26207 20.6055 0.585938 20.6055Z" fill="#315D80"/>
</g>
<defs>
<clipPath id="clip0_6478_3163">
<rect width="20" height="20" fill="white" transform="translate(0 0.605469)"/>
</clipPath>
</defs>
</svg>
