<svg width="20" height="21" viewBox="0 0 20 21" fill="none" xmlns="http://www.w3.org/2000/svg">
<g clip-path="url(#clip0_6478_3120)">
<path d="M15.2734 10.1758C15.2734 9.52961 14.7477 9.00391 14.1016 9.00391H12.9297C12.2835 9.00391 11.7578 9.52961 11.7578 10.1758V14.2773H15.2734V10.1758Z" fill="#695F7E"/>
<path d="M2.38281 3.53516C2.38281 2.56602 3.17148 1.77734 4.14062 1.77734H5.3125C6.10445 1.77734 6.77562 2.30406 6.99469 3.02547C5.69695 3.32633 4.72656 4.49102 4.72656 5.87891V6.46484H10.5859V5.87891C10.5859 4.44656 9.55246 3.25184 8.19219 2.99922C7.93957 1.63883 6.74469 0.605469 5.3125 0.605469H4.14062C2.52539 0.605469 1.21094 1.91953 1.21094 3.53516V9.00391H2.38281V3.53516Z" fill="#695F7E"/>
<path d="M16.4453 15.4492H10.5859V13.6914H1.21094V15.4492C1.21094 16.9825 2.05664 18.3216 3.30594 19.0253L2.55445 19.7768L3.38305 20.6055L4.51566 19.4729C4.77352 19.5238 5.03992 19.5508 5.3125 19.5508H14.6875C14.9601 19.5508 15.2265 19.5238 15.4843 19.4729L16.617 20.6055L17.4456 19.7768L16.6941 19.0254C17.9434 18.3216 18.7891 16.9825 18.7891 15.4492V13.6914H16.4453V15.4492Z" fill="#695F7E"/>
<path d="M18.8281 10.1758H16.4453V12.5195H18.8281C19.4742 12.5195 20 11.9938 20 11.3477C20 10.7016 19.4742 10.1758 18.8281 10.1758Z" fill="#F0D46F"/>
<path d="M10.5859 10.1758H1.17188C0.525781 10.1758 0 10.7016 0 11.3477C0 11.9938 0.525781 12.5195 1.17188 12.5195H10.5859V10.1758Z" fill="#F0D46F"/>
</g>
<defs>
<clipPath id="clip0_6478_3120">
<rect width="20" height="20" fill="white" transform="translate(0 0.605469)"/>
</clipPath>
</defs>
</svg>
