<svg width="20" height="20" viewBox="0 0 20 20" fill="none" xmlns="http://www.w3.org/2000/svg">
<g clip-path="url(#clip0_6478_3304)">
<path d="M18.9184 10.9582C19.0767 10.9582 19.1966 10.8126 19.1635 10.6577C18.9095 9.46666 18.1151 8.434 16.9972 7.90566C14.1607 6.56562 10.7862 6.51083 7.85046 7.89733C6.72558 8.42845 5.92633 9.46433 5.67154 10.6577C5.63845 10.8125 5.75833 10.9582 5.91666 10.9582H18.9184Z" fill="#4D7EA5"/>
<path d="M5.58398 11.875V12.3333C5.58398 12.8856 6.03169 13.3333 6.58399 13.3333H18.2507C18.803 13.3333 19.2507 12.8856 19.2507 12.3333V11.875C19.2507 11.7369 19.1388 11.625 19.0007 11.625H5.83399C5.6959 11.625 5.58398 11.7369 5.58398 11.875Z" fill="#4D7EA5"/>
<path d="M15.1257 6.37533C15.1257 6.46533 15.0449 6.52162 14.9665 6.50341C13.3557 6.12945 11.6143 6.10153 9.86757 6.50083C9.78644 6.51937 9.70898 6.45853 9.70898 6.37533C9.70898 5.63895 10.3059 5.04199 11.0423 5.04199H13.7923C14.5287 5.04199 15.1257 5.63895 15.1257 6.37533Z" fill="#C06A87"/>
<path d="M13.1436 4.375H11.0293C10.9079 4.375 10.7945 4.30979 10.7374 4.20263C10.2365 3.26179 9.24411 2.625 8.11627 2.625H6.3421C4.70343 2.625 3.37501 3.95342 3.37501 5.59208V19.6667C3.37501 19.8507 3.22576 20 3.04167 20H1.08333C0.89925 20 0.75 19.8507 0.75 19.6667V5.59C0.75 2.50275 3.25276 0 6.34002 0H8.11836C10.6695 0 12.7748 1.698 13.4631 3.94604C13.5285 4.15946 13.3667 4.375 13.1436 4.375Z" fill="#C06A87"/>
<path d="M12.4173 16.0417C12.2332 16.0417 12.084 15.8924 12.084 15.7083V15.2083C12.084 15.0243 12.2332 14.875 12.4173 14.875C12.6014 14.875 12.7507 15.0243 12.7507 15.2083V15.7083C12.7507 15.8924 12.6014 16.0417 12.4173 16.0417Z" fill="#4D7EA5"/>
<path d="M12.4173 18.1055C12.2332 18.1055 12.084 17.9563 12.084 17.7722V17.1029C12.084 16.9188 12.2332 16.7695 12.4173 16.7695C12.6014 16.7695 12.7507 16.9188 12.7507 17.1029V17.7722C12.7507 17.9563 12.6014 18.1055 12.4173 18.1055Z" fill="#4D7EA5"/>
<path d="M12.4173 19.9997C12.2332 19.9997 12.084 19.8504 12.084 19.6663V19.1663C12.084 18.9823 12.2332 18.833 12.4173 18.833C12.6014 18.833 12.7507 18.9823 12.7507 19.1663V19.6663C12.7507 19.8504 12.6014 19.9997 12.4173 19.9997Z" fill="#4D7EA5"/>
<path d="M9.70833 16.8753C9.52425 16.8753 9.375 16.7261 9.375 16.542V15.6253C9.375 15.4412 9.52425 15.292 9.70833 15.292C9.89242 15.292 10.0417 15.4412 10.0417 15.6253V16.542C10.0417 16.7261 9.89242 16.8753 9.70833 16.8753Z" fill="#4D7EA5"/>
<path d="M9.70833 20.0003C9.52425 20.0003 9.375 19.8511 9.375 19.667V18.7503C9.375 18.5662 9.52425 18.417 9.70833 18.417C9.89242 18.417 10.0417 18.5662 10.0417 18.7503V19.667C10.0417 19.8511 9.89242 20.0003 9.70833 20.0003Z" fill="#4D7EA5"/>
<path d="M6.99935 15.6247C6.81527 15.6247 6.66602 15.4754 6.66602 15.2913V14.7913C6.66602 14.6073 6.81527 14.458 6.99935 14.458C7.18343 14.458 7.33268 14.6073 7.33268 14.7913V15.2913C7.33268 15.4754 7.18343 15.6247 6.99935 15.6247Z" fill="#4D7EA5"/>
<path d="M6.99935 17.6885C6.81527 17.6885 6.66602 17.5393 6.66602 17.3552V16.6859C6.66602 16.5018 6.81527 16.3525 6.99935 16.3525C7.18343 16.3525 7.33268 16.5018 7.33268 16.6859V17.3552C7.33268 17.5393 7.18343 17.6885 6.99935 17.6885Z" fill="#4D7EA5"/>
<path d="M6.99935 19.5837C6.81527 19.5837 6.66602 19.4344 6.66602 19.2503V18.7503C6.66602 18.5662 6.81527 18.417 6.99935 18.417C7.18343 18.417 7.33268 18.5662 7.33268 18.7503V19.2503C7.33268 19.4344 7.18343 19.5837 6.99935 19.5837Z" fill="#4D7EA5"/>
<path d="M15.1244 16.0413C14.9403 16.0413 14.791 15.8921 14.791 15.708V14.7913C14.791 14.6073 14.9403 14.458 15.1244 14.458C15.3084 14.458 15.4577 14.6073 15.4577 14.7913V15.708C15.4577 15.8921 15.3084 16.0413 15.1244 16.0413Z" fill="#4D7EA5"/>
<path d="M15.1244 19.1663C14.9403 19.1663 14.791 19.0171 14.791 18.833V17.9163C14.791 17.7323 14.9403 17.583 15.1244 17.583C15.3084 17.583 15.4577 17.7323 15.4577 17.9163V18.833C15.4577 19.0171 15.3084 19.1663 15.1244 19.1663Z" fill="#4D7EA5"/>
<path d="M17.8333 15.6247C17.6493 15.6247 17.5 15.4754 17.5 15.2913V14.7913C17.5 14.6073 17.6493 14.458 17.8333 14.458C18.0174 14.458 18.1667 14.6073 18.1667 14.7913V15.2913C18.1667 15.4754 18.0174 15.6247 17.8333 15.6247Z" fill="#4D7EA5"/>
<path d="M17.8333 17.6885C17.6493 17.6885 17.5 17.5393 17.5 17.3552V16.6859C17.5 16.5018 17.6493 16.3525 17.8333 16.3525C18.0174 16.3525 18.1667 16.5018 18.1667 16.6859V17.3552C18.1667 17.5393 18.0174 17.6885 17.8333 17.6885Z" fill="#4D7EA5"/>
<path d="M17.8333 19.5837C17.6493 19.5837 17.5 19.4344 17.5 19.2503V18.7503C17.5 18.5662 17.6493 18.417 17.8333 18.417C18.0174 18.417 18.1667 18.5662 18.1667 18.7503V19.2503C18.1667 19.4344 18.0174 19.5837 17.8333 19.5837Z" fill="#4D7EA5"/>
</g>
<defs>
<clipPath id="clip0_6478_3304">
<rect width="20.0001" height="20" fill="white"/>
</clipPath>
</defs>
</svg>
