<svg width="20" height="20" viewBox="0 0 20 20" fill="none" xmlns="http://www.w3.org/2000/svg">
<g clip-path="url(#clip0_6478_3325)">
<path d="M9.9796 14.9061C9.9796 16.1247 8.98815 17.1161 7.76955 17.1161C7.10685 17.1161 6.51181 16.8225 6.10638 16.3591C5.70095 16.8225 5.10591 17.1161 4.44321 17.1161H4.42317C3.76047 17.1161 3.16543 16.8225 2.76 16.359C2.53024 16.6217 2.23961 16.8295 1.91016 16.9604C2.44766 17.7561 3.24239 18.3642 4.17395 18.6651V19.9955H5.34583V18.8707C5.39802 18.8726 5.45036 18.8739 5.50298 18.8739H14.4963C14.5489 18.8739 14.6012 18.8726 14.6534 18.8707V19.9955H15.8253V18.6651C17.5661 18.1027 18.829 16.4668 18.829 14.5412V14.1348H9.9796V14.9061Z" fill="#4D7EA5"/>
<path d="M9.98047 10.1908V13.0018H20.0005V12.5481C20.0005 11.4491 19.2445 10.5235 18.2253 10.2636V9.10676V3.14453C18.2253 1.69277 17.0442 0.511719 15.5924 0.511719C14.8969 0.511719 14.2408 0.780469 13.7452 1.26848C13.265 1.74129 12.9891 2.36797 12.9625 3.03559C12.4232 3.21008 11.9743 3.62207 11.7672 4.16766L11.0555 6.04219H16.2075L15.2555 4.02977C15.0311 3.55539 14.6199 3.20176 14.1353 3.04055C14.1893 2.2852 14.8265 1.68355 15.5924 1.68355C16.398 1.68355 17.0533 2.33891 17.0533 3.14449V9.05789V10.1907H9.98047V10.1908Z" fill="#4D7EA5"/>
<path d="M5.5202 1.0866H6.67048V0.00390625H5.51692V1.08625H3.3457V14.9059C3.3457 15.5009 3.82801 15.9831 4.42293 15.9831H4.44293C5.0379 15.9831 5.52016 15.5008 5.52016 14.9059V1.0866H5.5202Z" fill="#F1D15B"/>
<path d="M8.83973 0.00390625H7.68617V1.08625H6.69336V14.9059C6.69336 15.5009 7.17567 15.9831 7.77059 15.9831C8.36551 15.9831 8.84782 15.5008 8.84782 14.9059L8.83973 0.00390625Z" fill="#F1D15B"/>
<path d="M2.1745 1.08621H1.15356V0.00390625H0V14.9059C0 15.5009 0.482306 15.9831 1.07723 15.9831H1.09723C1.69219 15.9831 2.17446 15.5008 2.17446 14.9059L2.1745 1.08621Z" fill="#F1D15B"/>
<path d="M2.1875 0.00390625H3.34106V1.0866H2.1875V0.00390625Z" fill="#F1D15B"/>
</g>
<defs>
<clipPath id="clip0_6478_3325">
<rect width="20.0001" height="20" fill="white"/>
</clipPath>
</defs>
</svg>
