<svg width="20" height="20" viewBox="0 0 20 20" fill="none" xmlns="http://www.w3.org/2000/svg">
<g clip-path="url(#clip0_6478_4045)">
<path d="M5.85639 6.1875C4.40306 6.1875 3.2207 7.36985 3.2207 8.82318C3.2207 10.2765 4.40306 11.4589 5.85639 11.4589C7.30971 11.4589 8.49211 10.2765 8.49211 8.82318C8.49211 7.36985 7.30971 6.1875 5.85639 6.1875Z" fill="#6B5E7A"/>
<path d="M10.1774 18.2785V14.6926C10.1774 12.9096 8.72676 11.459 6.94377 11.459H6.44268V16.6997H5.27199V11.459H4.7709C2.9879 11.459 1.53731 12.9095 1.53731 14.6926V18.2785H0V19.4492H19.9797V18.2785H10.1774Z" fill="#6B5E7A"/>
<path d="M19.5516 5.6261C18.8619 3.70137 17.464 2.16044 15.6153 1.28718C13.7666 0.41393 11.6885 0.312782 9.76384 1.00251C8.55382 1.43609 7.46641 2.1709 6.61914 3.12746L7.49548 3.90371C8.2126 3.09406 9.13354 2.47196 10.1587 2.1046C11.789 1.52042 13.5493 1.60604 15.1153 2.34576C16.6812 3.08551 17.8654 4.39075 18.4495 6.02109C19.4878 8.91861 18.3299 12.0781 15.8401 13.6705L16.4588 12.1297L15.3724 11.6935L13.9491 15.238L17.5727 16.3349L17.9118 15.2144L16.34 14.7386C19.3695 12.8868 20.7954 9.09718 19.5516 5.6261Z" fill="#EA4B62"/>
<path d="M11.7012 7.93992C11.9367 7.62797 12.0512 7.31376 12.0512 6.97926C12.0512 6.62524 11.9528 6.3337 11.7586 6.11275C11.5228 5.8442 11.1898 5.70801 10.7689 5.70801C10.4223 5.70801 10.1203 5.82426 9.86935 6.05535C9.62394 6.2875 9.48966 6.57588 9.47023 6.91249L9.46039 7.08333L10.3045 7.24414L10.3252 7.03135C10.355 6.7249 10.5208 6.54197 10.7688 6.54197C10.9645 6.54197 11.0427 6.60916 11.0832 6.65821C11.1519 6.74313 11.1839 6.84513 11.1839 6.97922C11.1839 7.16067 11.1428 7.29928 10.909 7.59687L9.38672 9.54684V10.0254H12.1233V9.19146H10.7336L11.7012 7.93992Z" fill="#EA4B62"/>
<path d="M14.8523 8.36457V5.75195H14.0228L12.2988 8.7573V9.19853H13.985V10.025H14.8523V9.19853H15.3349V8.36457H14.8523ZM13.4594 8.36457L13.9851 7.4265V8.36457H13.4594Z" fill="#EA4B62"/>
</g>
<defs>
<clipPath id="clip0_6478_4045">
<rect width="20" height="20" fill="white"/>
</clipPath>
</defs>
</svg>
