<svg width="24" height="20" viewBox="0 0 24 20" fill="none" xmlns="http://www.w3.org/2000/svg">
<path fill-rule="evenodd" clip-rule="evenodd" d="M23.2941 19.1762H13.4118C13.0219 19.1762 12.7059 18.8602 12.7059 18.4703V12.8232C12.7059 12.4334 13.0219 12.1174 13.4118 12.1174H23.2942C23.684 12.1174 24 12.4334 24 12.8232V18.4703C24 18.8602 23.684 19.1762 23.2941 19.1762ZM16.5671 14.5973C16.6882 14.4459 16.6643 14.2253 16.5083 14.1005L15.9623 13.6637C15.8086 13.5408 15.5871 13.5624 15.4635 13.7169L14.2724 15.2059C14.0661 15.4637 14.0661 15.83 14.2724 16.0878L15.4635 17.5767C15.5854 17.729 15.8063 17.7547 15.9623 17.6299L16.5083 17.1931C16.662 17.0702 16.6888 16.8484 16.5671 16.6963L15.7275 15.6468L16.5671 14.5973ZM20.1388 16.6962C20.0176 16.8477 20.0416 17.0683 20.1975 17.1931L20.7436 17.6299C20.8972 17.7528 21.1188 17.7311 21.2423 17.5767L22.4335 16.0877C22.6398 15.8299 22.6398 15.4636 22.4335 15.2058L21.2423 13.7168C21.1205 13.5645 20.8996 13.5388 20.7436 13.6636L20.1975 14.1004C20.0439 14.2234 20.0171 14.4452 20.1388 14.5973L20.9784 15.6468L20.1388 16.6962ZM18.3428 17.48C18.5358 17.5186 18.7225 17.3982 18.7612 17.2051L19.3291 14.3653C19.3672 14.1749 19.2446 13.9898 19.0487 13.9506L18.363 13.8135C18.1701 13.7749 17.9834 13.8953 17.9447 14.0884L17.3768 16.9282C17.3387 17.1186 17.4613 17.3037 17.6572 17.3429L18.3428 17.48ZM16.7977 11.0585H13.4118C12.4372 11.0585 11.6471 11.8486 11.6471 12.8232V14.9409H0.705891C0.316031 14.9409 0 14.6249 0 14.235V14.2068L6.76861 8.40509L9.82678 10.5754C10.0715 10.749 10.3992 10.749 10.6439 10.5754L13.702 8.40509L16.7977 11.0585ZM20.4706 11.0585H18.967L14.8887 7.56288L20.4706 3.60157V11.0585ZM0 12.3473V3.60157L5.58187 7.56288L0 12.3473ZM20.4706 1.87038L10.2353 9.13413L0 1.87038V1.52913C0 1.13927 0.316031 0.823242 0.705891 0.823242H19.7647C20.1546 0.823242 20.4706 1.13927 20.4706 1.52913V1.87038Z" fill="#315D80"/>
</svg>
