<svg width="20" height="20" viewBox="0 0 20 20" fill="none" xmlns="http://www.w3.org/2000/svg">
<g clip-path="url(#clip0_6478_4242)">
<path d="M10.5126 2.80334C10.5126 2.47986 10.2503 2.21741 9.92667 2.21741H9.41473V0.585938C9.41473 0.262299 9.15228 0 8.8288 0C8.50516 0 8.24286 0.262299 8.24286 0.585938V2.21741H7.73047C7.40683 2.21741 7.14453 2.47986 7.14453 2.80334V4.56329H10.5126V2.80334Z" fill="#F2727F"/>
<path d="M19.9995 11.4336C19.9995 11.11 19.7372 10.8477 19.4136 10.8477H12.5391V13.1914H19.9995V11.4336Z" fill="#F2727F"/>
<path d="M1.05469 14.168V16.1211C1.05469 17.0903 1.84326 17.8789 2.8125 17.8789C3.78174 17.8789 4.57031 17.0903 4.57031 16.1211V14.168C4.57031 13.1987 3.78174 12.4102 2.8125 12.4102C1.84326 12.4102 1.05469 13.1987 1.05469 14.168Z" fill="#F2727F"/>
<path d="M14.8341 8.94727C14.8341 8.62363 14.5718 8.36133 14.2482 8.36133H12.5391V9.5332H14.2482C14.5718 9.5332 14.8341 9.2709 14.8341 8.94727Z" fill="#F2727F"/>
<path d="M19.9998 19.4115V14.3631H12.5394V18.8279H11.3675V5.14941C11.3675 4.82578 11.105 4.56348 10.7816 4.56348H6.87531C6.55167 4.56348 6.28937 4.82578 6.28937 5.14941V18.8279H0.585938C0.262299 18.8279 0 19.0901 0 19.4138C0 19.7374 0.262299 19.9997 0.585938 19.9997H6.28937V20.0002H11.3675V19.9997H12.5394V20.0002H19.4139C19.6971 20.0002 19.9333 19.7994 19.9879 19.5323C19.9959 19.494 20 19.4544 20 19.4138C20 19.413 19.9998 19.4123 19.9998 19.4115ZM8.24219 6.90936C8.24219 6.58572 8.50449 6.32343 8.82812 6.32343C9.15161 6.32343 9.41406 6.58572 9.41406 6.90936V7.69138C9.41406 8.01501 9.15161 8.27731 8.82812 8.27731C8.50449 8.27731 8.24219 8.01501 8.24219 7.69138V6.90936ZM8.24219 10.0373C8.24219 9.71362 8.50449 9.45132 8.82812 9.45132C9.15161 9.45132 9.41406 9.71362 9.41406 10.0373V10.8193C9.41406 11.1428 9.15161 11.4052 8.82812 11.4052C8.50449 11.4052 8.24219 11.1428 8.24219 10.8193V10.0373ZM8.24219 13.165C8.24219 12.8415 8.50449 12.5791 8.82812 12.5791C9.15161 12.5791 9.41406 12.8415 9.41406 13.165V13.947C9.41406 14.2707 9.15161 14.533 8.82812 14.533C8.50449 14.533 8.24219 14.2707 8.24219 13.947V13.165ZM8.20953 17.0748C8.20953 16.7513 8.47183 16.4888 8.79547 16.4888C9.11896 16.4888 9.38141 16.7513 9.38141 17.0748V18.8279H8.20953V17.0748ZM8.79547 20C8.79288 20 8.79044 19.9997 8.78784 19.9997H8.80295C8.80051 19.9997 8.79791 20 8.79547 20ZM16.8538 16.2892C16.8538 15.9656 17.1161 15.7033 17.4397 15.7033C17.7634 15.7033 18.0257 15.9656 18.0257 16.2892V17.0705C18.0257 17.394 17.7634 17.6564 17.4397 17.6564C17.1161 17.6564 16.8538 17.394 16.8538 17.0705V16.2892ZM14.51 16.2892C14.51 15.9656 14.7723 15.7033 15.096 15.7033C15.4196 15.7033 15.6819 15.9656 15.6819 16.2892V17.0705C15.6819 17.394 15.4196 17.6564 15.096 17.6564C14.7723 17.6564 14.51 17.394 14.51 17.0705V16.2892Z" fill="#9BB997"/>
</g>
<defs>
<clipPath id="clip0_6478_4242">
<rect width="20" height="20" fill="white"/>
</clipPath>
</defs>
</svg>
