<svg width="20" height="20" viewBox="0 0 20 20" fill="none" xmlns="http://www.w3.org/2000/svg">
<g clip-path="url(#clip0_6478_4301)">
<path d="M9.11154 17.6562H6.08008C5.43295 17.6562 4.9082 18.1808 4.9082 18.828V19.4139C4.9082 19.7376 5.1705 19.9998 5.49414 19.9998H9.69733C10.021 19.9998 10.2833 19.7376 10.2833 19.4139V18.828C10.2833 18.1808 9.75867 17.6562 9.11154 17.6562Z" fill="#315D80"/>
<path d="M19.4948 5.96481L17.3142 5.80582L7.89933 0.0851386C7.68921 -0.0425776 7.42158 -0.0253351 7.22931 0.128321L0.259094 5.70099C0.255585 5.70373 0.252381 5.70663 0.249481 5.70938C0.120697 5.81726 0.0390625 5.9787 0.0390625 6.1586V8.11157C0.0390625 8.43521 0.301361 8.69751 0.625 8.69751H5.83741V16.4969C5.9169 16.4888 5.99762 16.4845 6.07941 16.4845H9.11072C9.19251 16.4845 9.27323 16.4888 9.35273 16.4969V8.69751H19.4521C19.7757 8.69751 20.038 8.43521 20.038 8.11157V6.54922C20.038 6.24222 19.801 5.98724 19.4948 5.96481ZM9.24302 5.21713L8.47123 1.80389L14.7498 5.61874L9.24302 5.21713ZM2.45087 5.44891L6.65467 2.08786L5.94773 5.21438L2.45087 5.44891Z" fill="#FFB6A3"/>
<path d="M17.7173 14.7677V14.3485H17.8774C18.201 14.3485 18.4633 14.0862 18.4633 13.7626C18.4633 13.4391 18.201 13.1766 17.8774 13.1766H17.7173V9.86914H16.5454V13.1766H16.3419C16.0183 13.1766 15.756 13.4391 15.756 13.7626C15.756 14.0862 16.0183 14.3485 16.3419 14.3485H16.5454V15.2532C16.5454 15.5768 16.8077 15.8391 17.1314 15.8391C17.4544 15.8391 17.7173 16.1019 17.7173 16.4251C17.7173 16.7481 17.4544 17.0109 17.1314 17.0109C16.9748 17.0109 16.8277 16.95 16.7171 16.8394C16.4882 16.6105 16.1173 16.6105 15.8884 16.8394C15.6595 17.0681 15.6597 17.4392 15.8884 17.6679C16.2204 17.9999 16.6619 18.1827 17.1314 18.1827C18.1006 18.1827 18.889 17.3942 18.889 16.4251C18.889 15.6612 18.3994 15.0095 17.7173 14.7677Z" fill="#315D80"/>
<path d="M0.0390625 9.76855V12.0818C0.0390625 12.4054 0.301361 12.6677 0.625 12.6677H3.26386C3.5875 12.6677 3.8498 12.4054 3.8498 12.0818V9.86942H0.625153C0.419617 9.86942 0.222473 9.83371 0.0390625 9.76855Z" fill="#315D80"/>
</g>
<defs>
<clipPath id="clip0_6478_4301">
<rect width="20" height="20" fill="white"/>
</clipPath>
</defs>
</svg>
