<svg width="20" height="20" viewBox="0 0 20 20" fill="none" xmlns="http://www.w3.org/2000/svg">
<g clip-path="url(#clip0_6478_4060)">
<path d="M7.55902 4.81785H8.53926C8.2182 3.98297 7.40828 3.38867 6.46168 3.38867C5.23461 3.38867 4.23633 4.38695 4.23633 5.61402V8.44281C4.23633 9.66988 5.23461 10.6682 6.46168 10.6682C7.40375 10.6682 8.21035 10.0795 8.53453 9.2509H7.55898C6.3368 9.2509 5.34246 8.25656 5.34246 7.03438C5.34246 5.81219 6.33684 4.81785 7.55902 4.81785Z" fill="#EA4B61"/>
<path d="M14.4249 13.2598L13.6465 14.1357C13.9238 14.3821 14.0827 14.7347 14.0827 15.1032C14.0827 15.4717 13.9238 15.8243 13.6465 16.0707L14.4249 16.9466C14.9522 16.4781 15.2546 15.8062 15.2546 15.1032C15.2546 14.4002 14.9522 13.7283 14.4249 13.2598Z" fill="#EA4B61"/>
<path d="M15.9171 11.5889L15.1387 12.4648C15.8938 13.1359 16.3269 14.0976 16.3269 15.1033C16.3269 16.1091 15.8938 17.0707 15.1387 17.7418L15.9171 18.6178C16.9223 17.7245 17.4988 16.4436 17.4988 15.1033C17.4988 13.7631 16.9223 12.4821 15.9171 11.5889Z" fill="#EA4B61"/>
<path d="M7.55832 5.9502C6.9598 5.9502 6.47461 6.43539 6.47461 7.03391C6.47461 7.63242 6.9598 8.11762 7.55832 8.11762H19.0557V5.9502H7.55832Z" fill="#EA4B61"/>
<path d="M6.46121 11.8397C4.58797 11.8397 3.06398 10.3157 3.06398 8.4425V5.61367C3.06398 3.74043 4.58797 2.21645 6.46121 2.21645C8.06031 2.21645 9.40473 3.32711 9.76402 4.8175H11.9331C11.5888 2.10453 9.26617 0 6.46121 0C3.41973 0 0.945312 2.47441 0.945312 5.51594V14.4841C0.945312 17.5256 3.41973 20 6.46125 20C9.50273 20 11.9771 17.5256 11.9771 14.4841V9.25055H9.76113C9.39754 10.7349 8.05605 11.8397 6.46121 11.8397ZM7.04715 16.251H5.87527V13.5805H7.04715V16.251Z" fill="#C06A87"/>
</g>
<defs>
<clipPath id="clip0_6478_4060">
<rect width="20" height="20" fill="white"/>
</clipPath>
</defs>
</svg>
