<svg width="20" height="20" viewBox="0 0 20 20" fill="none" xmlns="http://www.w3.org/2000/svg">
<g clip-path="url(#clip0_6478_4038)">
<path d="M9.16667 17.0833C9.16667 17.775 8.60833 18.3333 7.91667 18.3333H4.58333C2.05833 18.3333 0 16.275 0 13.75V4.58333C0 2.05833 2.05833 0 4.58333 0H13.75C16.275 0 18.3333 2.05833 18.3333 4.58333C18.3333 5.275 17.775 5.83333 17.0833 5.83333C16.3917 5.83333 15.8333 5.275 15.8333 4.58333C15.8333 3.43333 14.9 2.5 13.75 2.5H4.58333C3.43333 2.5 2.5 3.43333 2.5 4.58333V13.75C2.5 14.9 3.43333 15.8333 4.58333 15.8333H7.91667C8.60833 15.8333 9.16667 16.3917 9.16667 17.0833ZM7.91667 11.6667H6.66667V8.01667L8.38333 6.3C8.74167 5.94167 8.85 5.40833 8.65833 4.94167C8.46667 4.475 8.00833 4.16667 7.5 4.16667H5.41667C4.725 4.16667 4.16667 4.725 4.16667 5.41667V12.0833C4.16667 13.2333 5.1 14.1667 6.25 14.1667H7.91667C8.60833 14.1667 9.16667 13.6083 9.16667 12.9167C9.16667 12.225 8.60833 11.6667 7.91667 11.6667ZM12.0833 6.66667C12.775 6.66667 13.3333 6.10833 13.3333 5.41667C13.3333 4.725 12.775 4.16667 12.0833 4.16667H11.25C10.5583 4.16667 10 4.725 10 5.41667C10 6.10833 10.5583 6.66667 11.25 6.66667H12.0833ZM20 15V17.5C20 18.8833 18.8833 20 17.5 20H13.3333C11.95 20 10.8333 18.8833 10.8333 17.5V15C10.8333 14.2583 11.1583 13.5917 11.6667 13.1333V11.25C11.6667 9.18333 13.35 7.5 15.4167 7.5C17.4833 7.5 19.1667 9.18333 19.1667 11.25V13.1333C19.675 13.5917 20 14.2583 20 15ZM14.1667 11.25V12.5H16.6667V11.25C16.6667 10.5583 16.1083 10 15.4167 10C14.725 10 14.1667 10.5583 14.1667 11.25ZM16.6667 16.25C16.6667 15.5583 16.1083 15 15.4167 15C14.725 15 14.1667 15.5583 14.1667 16.25C14.1667 16.9417 14.725 17.5 15.4167 17.5C16.1083 17.5 16.6667 16.9417 16.6667 16.25Z" fill="#F2727F"/>
<path d="M13.3333 5.41667C13.3333 6.10833 12.775 6.66667 12.0833 6.66667H11.25C10.5583 6.66667 10 6.10833 10 5.41667C10 4.725 10.5583 4.16667 11.25 4.16667H12.0833C12.775 4.16667 13.3333 4.725 13.3333 5.41667Z" fill="#F1D15B"/>
<path d="M6.66667 11.6667H7.91667C8.60833 11.6667 9.16667 12.225 9.16667 12.9167C9.16667 13.6083 8.60833 14.1667 7.91667 14.1667H6.25C5.1 14.1667 4.16667 13.2333 4.16667 12.0833V5.41667C4.16667 4.725 4.725 4.16667 5.41667 4.16667H7.5C8.00833 4.16667 8.46667 4.475 8.65833 4.94167C8.85 5.40833 8.74167 5.94167 8.38333 6.3L6.66667 8.01667V11.6667Z" fill="#F1D15B"/>
</g>
<defs>
<clipPath id="clip0_6478_4038">
<rect width="20" height="20" fill="white"/>
</clipPath>
</defs>
</svg>
