<svg width="20" height="20" viewBox="0 0 20 20" fill="none" xmlns="http://www.w3.org/2000/svg">
<g clip-path="url(#clip0_6721_2816)">
<path d="M1.97266 6.14398H5.32906C5.32312 6.06758 5.31926 5.99082 5.31926 5.91371V4.91781C5.31926 4.86273 5.32191 4.80777 5.32582 4.75293H1.9759C1.9798 4.80777 1.98246 4.86273 1.98246 4.91781V5.91371C1.98246 5.99082 1.97859 6.06758 1.97266 6.14398Z" fill="#EA4B61"/>
<path d="M4.96145 9.01125C5.34344 8.62926 5.76246 8.29559 6.21387 8.01227C6.20434 8.00289 6.19496 7.99336 6.18535 7.9841C5.98059 7.78656 5.81019 7.56051 5.6759 7.31543H1.6259C1.4916 7.56051 1.32121 7.78656 1.11645 7.9841C0.428125 8.64809 0 9.57996 0 10.6119V14.0458C0 15.0875 0.436289 16.0273 1.13605 16.6924H3.38254C3.04594 15.8513 2.875 14.9626 2.875 14.0484C2.875 13.0872 3.06352 12.1542 3.43527 11.2752C3.79414 10.4268 4.30762 9.66508 4.96145 9.01125Z" fill="#EA4B61"/>
<path d="M5.69414 3.58061C5.7552 3.38202 5.78828 3.1712 5.78828 2.95257V2.17018C5.78828 0.995028 4.85348 0.0154572 3.67836 0.000183745C2.48445 -0.015285 1.51172 0.947918 1.51172 2.13831V2.95257C1.51172 3.1712 1.5448 3.38202 1.60586 3.58061H5.69414Z" fill="#EA4B61"/>
<path d="M14.6719 6.14398H18.0283C18.0223 6.06758 18.0185 5.99082 18.0185 5.91371V4.91781C18.0185 4.86273 18.0211 4.80777 18.025 4.75293H14.6751C14.679 4.80777 14.6817 4.86273 14.6817 4.91781V5.91371C14.6817 5.99082 14.6778 6.06758 14.6719 6.14398Z" fill="#EA4B61"/>
<path d="M18.8826 7.9841C18.6778 7.78656 18.5074 7.56051 18.3731 7.31543H14.3231C14.1888 7.56051 14.0184 7.78656 13.8137 7.9841C13.8041 7.9934 13.7947 8.00289 13.7852 8.01227C14.2366 8.29559 14.6556 8.62926 15.0376 9.01125C15.6914 9.66508 16.2049 10.4268 16.5638 11.2752C16.9355 12.1542 17.124 13.0872 17.124 14.0484C17.124 14.9626 16.9531 15.8513 16.6165 16.6924H18.863C19.5627 16.0273 19.999 15.0875 19.999 14.0458V10.6119C19.999 9.57996 19.5709 8.64809 18.8826 7.9841Z" fill="#EA4B61"/>
<path d="M18.3934 3.58061C18.4545 3.38202 18.4875 3.1712 18.4875 2.95257V2.13831C18.4875 0.947918 17.5148 -0.015285 16.3209 0.000183745C15.1458 0.0154181 14.2109 0.994989 14.2109 2.17018V2.95257C14.2109 3.1712 14.244 3.38202 14.3051 3.58061H18.3934Z" fill="#EA4B61"/>
<path d="M9.99856 8.09668C6.71152 8.09668 4.04688 10.7613 4.04688 14.0484C4.04688 17.3354 6.71152 20 9.99856 20C13.2856 20 15.9502 17.3354 15.9502 14.0484C15.9502 10.7613 13.2856 8.09668 9.99856 8.09668ZM8.24074 10.2995H9.41262V11.4714H8.24074V10.2995ZM10.5845 13.8152H9.41262V12.6433H10.5845V13.8152ZM11.7564 11.4714H10.5845V10.2995H11.7564V11.4714Z" fill="#9BB997"/>
</g>
<defs>
<clipPath id="clip0_6721_2816">
<rect width="20" height="20" fill="white"/>
</clipPath>
</defs>
</svg>
