<svg width="14" height="14" viewBox="0 0 14 14" fill="none" xmlns="http://www.w3.org/2000/svg">
<path d="M14.0013 1.98628V3.56336H-0.000238829V1.98628C-0.00096811 1.759 0.0734121 1.53783 0.211339 1.35718C0.349266 1.17652 0.543012 1.0465 0.76246 0.987309C0.847356 0.964501 0.934893 0.953007 1.0228 0.953126H2.87526V1.96167C2.87319 2.08044 2.89478 2.19843 2.9388 2.30876C2.98281 2.41909 3.04836 2.51955 3.13162 2.60427C3.21487 2.689 3.31417 2.75629 3.42371 2.80223C3.53325 2.84816 3.65085 2.87182 3.76963 2.87182C3.88842 2.87182 4.00601 2.84816 4.11556 2.80223C4.2251 2.75629 4.3244 2.689 4.40765 2.60427C4.49091 2.51955 4.55646 2.41909 4.60047 2.30876C4.64449 2.19843 4.66608 2.08044 4.66401 1.96167V0.953126H9.337V1.96167C9.337 2.19891 9.43125 2.42643 9.599 2.59418C9.76675 2.76194 9.99428 2.85618 10.2315 2.85618C10.4688 2.85618 10.6963 2.76194 10.864 2.59418C11.0318 2.42643 11.126 2.19891 11.126 1.96167V0.953126H12.9782C13.2509 0.954501 13.5118 1.06412 13.7037 1.25786C13.8955 1.45161 14.0026 1.71362 14.0013 1.98628Z" fill="#315D80"/>
<path d="M-0.000238623 4.19141V12.9757C-0.000981917 13.203 0.073388 13.4242 0.211313 13.6049C0.349237 13.7856 0.542991 13.9157 0.76246 13.9749C0.847368 13.9977 0.934905 14.0091 1.0228 14.0089H12.9782C13.2509 14.0075 13.5118 13.8979 13.7037 13.7041C13.8955 13.5104 14.0026 13.2484 14.0013 12.9757V4.19141H-0.000238623ZM6.20335 7.10656C6.18545 7.08877 6.17124 7.06761 6.16155 7.04431C6.15186 7.02101 6.14687 6.99602 6.14687 6.97078C6.14687 6.94555 6.15186 6.92056 6.16155 6.89726C6.17124 6.87395 6.18545 6.8528 6.20335 6.83501L6.44072 6.59764C6.45851 6.57974 6.47967 6.56553 6.50297 6.55584C6.52627 6.54614 6.55126 6.54115 6.5765 6.54115C6.60173 6.54115 6.62672 6.54614 6.65002 6.55584C6.67333 6.56553 6.69448 6.57974 6.71227 6.59764L7.00051 6.88615L7.28874 6.59791C7.30653 6.58001 7.32769 6.56581 7.35099 6.55611C7.37429 6.54642 7.39928 6.54143 7.42452 6.54143C7.44975 6.54143 7.47474 6.54642 7.49804 6.55611C7.52135 6.56581 7.5425 6.58001 7.56029 6.59791L7.79794 6.83556C7.81584 6.85335 7.83004 6.8745 7.83974 6.8978C7.84943 6.9211 7.85442 6.94609 7.85442 6.97133C7.85442 6.99657 7.84943 7.02156 7.83974 7.04486C7.83004 7.06816 7.81584 7.08932 7.79794 7.10711L7.50943 7.39534L7.79794 7.68358C7.81584 7.70137 7.83004 7.72252 7.83974 7.74582C7.84943 7.76912 7.85442 7.79411 7.85442 7.81935C7.85442 7.84459 7.84943 7.86958 7.83974 7.89288C7.83004 7.91618 7.81584 7.93734 7.79794 7.95513L7.56057 8.1925C7.54278 8.2104 7.52162 8.2246 7.49832 8.2343C7.47502 8.24399 7.45003 8.24898 7.42479 8.24898C7.39955 8.24898 7.37456 8.24399 7.35126 8.2343C7.32796 8.2246 7.3068 8.2104 7.28901 8.1925L7.00051 7.90399L6.71227 8.1925C6.69448 8.2104 6.67333 8.2246 6.65002 8.2343C6.62672 8.24399 6.60173 8.24898 6.5765 8.24898C6.55126 8.24898 6.52627 8.24399 6.50297 8.2343C6.47967 8.2246 6.45851 8.2104 6.44072 8.1925L6.20308 7.95485C6.18518 7.93706 6.17097 7.91591 6.16128 7.89261C6.15158 7.8693 6.14659 7.84432 6.14659 7.81908C6.14659 7.79384 6.15158 7.76885 6.16128 7.74555C6.17097 7.72225 6.18518 7.70109 6.20308 7.6833L6.49158 7.39507L6.20335 7.10656ZM3.01309 7.10656C2.99519 7.08877 2.98098 7.06761 2.97129 7.04431C2.96159 7.02101 2.9566 6.99602 2.9566 6.97078C2.9566 6.94555 2.96159 6.92056 2.97129 6.89726C2.98098 6.87395 2.99519 6.8528 3.01309 6.83501L3.25046 6.59764C3.26825 6.57974 3.2894 6.56553 3.31271 6.55584C3.33601 6.54614 3.361 6.54115 3.38623 6.54115C3.41147 6.54115 3.43646 6.54614 3.45976 6.55584C3.48307 6.56553 3.50422 6.57974 3.52201 6.59764L3.81024 6.88615L4.09848 6.59791C4.11627 6.58001 4.13742 6.56581 4.16073 6.55611C4.18403 6.54642 4.20902 6.54143 4.23425 6.54143C4.25949 6.54143 4.28448 6.54642 4.30778 6.55611C4.33109 6.56581 4.35224 6.58001 4.37003 6.59791L4.60767 6.83556C4.62557 6.85335 4.63978 6.8745 4.64947 6.8978C4.65917 6.9211 4.66416 6.94609 4.66416 6.97133C4.66416 6.99657 4.65917 7.02156 4.64947 7.04486C4.63978 7.06816 4.62557 7.08932 4.60767 7.10711L4.32053 7.39507L4.60904 7.6833C4.62694 7.70109 4.64115 7.72225 4.65084 7.74555C4.66054 7.76885 4.66553 7.79384 4.66553 7.81908C4.66553 7.84432 4.66054 7.8693 4.65084 7.89261C4.64115 7.91591 4.62694 7.93706 4.60904 7.95485L4.37167 8.19222C4.35388 8.21012 4.33273 8.22433 4.30942 8.23402C4.28612 8.24372 4.26113 8.24871 4.2359 8.24871C4.21066 8.24871 4.18567 8.24372 4.16237 8.23402C4.13906 8.22433 4.11791 8.21012 4.10012 8.19222L3.81161 7.90399L3.52201 8.1925C3.50422 8.2104 3.48307 8.2246 3.45976 8.2343C3.43646 8.24399 3.41147 8.24898 3.38623 8.24898C3.361 8.24898 3.33601 8.24399 3.31271 8.2343C3.2894 8.2246 3.26825 8.2104 3.25046 8.1925L3.01282 7.95485C2.99492 7.93706 2.98071 7.91591 2.97102 7.89261C2.96132 7.8693 2.95633 7.84432 2.95633 7.81908C2.95633 7.79384 2.96132 7.76885 2.97102 7.74555C2.98071 7.72225 2.99492 7.70109 3.01282 7.6833L3.30132 7.39507L3.01309 7.10656ZM5.03674 11.0401C5.03674 11.1144 5.02211 11.1879 4.99369 11.2565C4.96527 11.3251 4.92362 11.3875 4.8711 11.44C4.81859 11.4925 4.75625 11.5342 4.68763 11.5626C4.61902 11.591 4.54548 11.6056 4.47121 11.6056H3.15037C3.00038 11.6056 2.85654 11.5461 2.75048 11.44C2.64442 11.3339 2.58484 11.1901 2.58484 11.0401V10.0767C2.58484 10.0024 2.59947 9.92888 2.62789 9.86026C2.65631 9.79165 2.69797 9.72931 2.75048 9.67679C2.80299 9.62428 2.86534 9.58262 2.93395 9.5542C3.00256 9.52578 3.0761 9.51115 3.15037 9.51115H4.47012C4.54439 9.51115 4.61793 9.52578 4.68654 9.5542C4.75515 9.58262 4.81749 9.62428 4.87001 9.67679C4.92252 9.72931 4.96418 9.79165 4.9926 9.86026C5.02102 9.92888 5.03565 10.0024 5.03565 10.0767L5.03674 11.0401ZM8.227 11.0401C8.227 11.1144 8.21238 11.1879 8.18396 11.2565C8.15553 11.3251 8.11388 11.3875 8.06136 11.44C8.00885 11.4925 7.94651 11.5342 7.87789 11.5626C7.80928 11.591 7.73574 11.6056 7.66148 11.6056H6.34063C6.19064 11.6056 6.0468 11.5461 5.94074 11.44C5.83468 11.3339 5.7751 11.1901 5.7751 11.0401V10.0767C5.7751 9.92669 5.83468 9.78285 5.94074 9.67679C6.0468 9.57073 6.19064 9.51115 6.34063 9.51115H7.66038C7.81037 9.51115 7.95421 9.57073 8.06027 9.67679C8.16633 9.78285 8.22591 9.92669 8.22591 10.0767L8.227 11.0401ZM11.4173 11.0401C11.4173 11.1144 11.4026 11.1879 11.3742 11.2565C11.3458 11.3251 11.3041 11.3875 11.2516 11.44C11.1991 11.4925 11.1368 11.5342 11.0682 11.5626C10.9995 11.591 10.926 11.6056 10.8517 11.6056H9.53089C9.38091 11.6056 9.23706 11.5461 9.131 11.44C9.02495 11.3339 8.96536 11.1901 8.96536 11.0401V10.0767C8.96536 9.92669 9.02495 9.78285 9.131 9.67679C9.23706 9.57073 9.38091 9.51115 9.53089 9.51115H10.8506C10.9249 9.51115 10.9984 9.52578 11.0671 9.5542C11.1357 9.58262 11.198 9.62428 11.2505 9.67679C11.303 9.72931 11.3447 9.79165 11.3731 9.86026C11.4015 9.92888 11.4162 10.0024 11.4162 10.0767L11.4173 11.0401ZM11.4173 7.87692C11.4173 7.95118 11.4026 8.02472 11.3742 8.09333C11.3458 8.16195 11.3041 8.22429 11.2516 8.27681C11.1991 8.32932 11.1368 8.37098 11.0682 8.3994C10.9995 8.42782 10.926 8.44245 10.8517 8.44245H9.53089C9.38091 8.44245 9.23706 8.38286 9.131 8.27681C9.02495 8.17075 8.96536 8.0269 8.96536 7.87692V6.91322C8.96536 6.76323 9.02495 6.61939 9.131 6.51333C9.23706 6.40727 9.38091 6.34769 9.53089 6.34769H10.8506C10.9249 6.34769 10.9984 6.36232 11.0671 6.39074C11.1357 6.41916 11.198 6.46082 11.2505 6.51333C11.303 6.56584 11.3447 6.62819 11.3731 6.6968C11.4015 6.76541 11.4162 6.83895 11.4162 6.91322L11.4173 7.87692Z" fill="#315D80"/>
<path d="M10.2302 2.50409C10.0865 2.50337 9.94908 2.44564 9.848 2.34359C9.74693 2.24154 9.69051 2.10353 9.69117 1.9599V0.550721C9.69117 0.407769 9.74796 0.270672 9.84904 0.169589C9.95012 0.0685064 10.0872 0.0117188 10.2302 0.0117188C10.3731 0.0117188 10.5102 0.0685064 10.6113 0.169589C10.7124 0.270672 10.7692 0.407769 10.7692 0.550721V1.9599C10.7698 2.10353 10.7134 2.24154 10.6123 2.34359C10.5113 2.44564 10.3738 2.50337 10.2302 2.50409Z" fill="#315D80"/>
<path d="M3.77132 2.50451C3.70019 2.50419 3.62982 2.48986 3.56423 2.46233C3.49864 2.43481 3.43912 2.39463 3.38907 2.34409C3.33901 2.29355 3.2994 2.23365 3.27251 2.1678C3.24561 2.10195 3.23195 2.03145 3.23231 1.96032V0.551143C3.2307 0.479356 3.24344 0.40797 3.26979 0.341177C3.29615 0.274384 3.33558 0.213529 3.38578 0.162187C3.43598 0.110845 3.49593 0.0700501 3.56211 0.0421986C3.62829 0.014347 3.69938 0 3.77118 0C3.84298 0 3.91407 0.014347 3.98025 0.0421986C4.04643 0.0700501 4.10638 0.110845 4.15658 0.162187C4.20678 0.213529 4.24621 0.274384 4.27257 0.341177C4.29892 0.40797 4.31166 0.479356 4.31005 0.551143V1.96032C4.31041 2.03142 4.29676 2.1019 4.26988 2.16773C4.243 2.23357 4.20342 2.29346 4.15339 2.34399C4.10337 2.39453 4.04388 2.43471 3.97832 2.46225C3.91276 2.4898 3.84242 2.50416 3.77132 2.50451Z" fill="#315D80"/>
</svg>
