<svg width="23" height="15" viewBox="0 0 23 15" fill="none" xmlns="http://www.w3.org/2000/svg">
<path d="M22.3711 10.1791L11.7039 2.14025C11.4799 1.97148 11.1882 1.97148 10.9643 2.14025L0.297067 10.1791C-0.00939665 10.4101 -0.0922462 10.8782 0.112078 11.2246L1.22144 13.1056L10.9643 5.76331C11.1882 5.59459 11.4799 5.59459 11.7039 5.76331L21.4467 13.1056L22.556 11.2246C22.7603 10.8782 22.6775 10.41 22.3711 10.1791Z" fill="#695F7E"/>
<path d="M2.3479 14.069H20.3203L11.3341 7.29688L2.3479 14.069Z" fill="#695F7E"/>
<path d="M16.2233 1.50731H16.4456V3.90201L20.4458 6.91663V1.50731H20.6681C21.0363 1.50731 21.3348 1.16987 21.3348 0.753653C21.3348 0.337436 21.0363 0 20.6681 0H16.2233C15.8551 0 15.5566 0.337436 15.5566 0.753653C15.5566 1.16987 15.8551 1.50731 16.2233 1.50731Z" fill="#F2727F"/>
</svg>
