<svg width="20" height="21" viewBox="0 0 20 21" fill="none" xmlns="http://www.w3.org/2000/svg">
<path d="M20.0096 4.45312H16.0074V5.96507L18.5187 7.89944C18.7174 8.0525 18.7967 8.31511 18.7158 8.55256C18.635 8.79002 18.4119 8.94968 18.1611 8.94968H12.6224C12.3704 8.94968 12.1467 8.78861 12.0667 8.54967C11.9867 8.31074 12.0684 8.04743 12.2696 7.89577L14.8354 5.96128V4.45312H10.5898V14.4744H20.0096V4.45312Z" fill="#C06A87"/>
<path d="M5.35547 14.4743H9.42076V0.605469H5.35547V14.4743ZM6.93535 8.14181C7.27887 8.14181 7.5573 8.42028 7.5573 8.76376C7.52679 9.58788 6.34375 9.58769 6.31336 8.76376C6.31336 8.42024 6.59183 8.14181 6.93535 8.14181Z" fill="#C06A87"/>
<path d="M16.442 7.77584L15.4195 6.98828L14.375 7.77584H16.442Z" fill="#C06A87"/>
<path d="M4.18246 14.4743V0.605469H0.757279C0.339064 0.605469 0 0.944494 0 1.36275V14.4743H4.18246ZM2.53456 8.14181C2.87808 8.14181 3.15651 8.42028 3.15651 8.76376C3.126 9.58788 1.94297 9.58769 1.91257 8.76376C1.91261 8.42024 2.19108 8.14181 2.53456 8.14181Z" fill="#C06A87"/>
<path d="M10.5898 3.28095H20.0096V1.36275C20.0096 0.944494 19.6705 0.605469 19.2523 0.605469H10.5898V3.28095Z" fill="#C06A87"/>
<path d="M10.5898 15.6484H14.8114V18.8605H10.5898V15.6484Z" fill="#315D80"/>
<path d="M5.35547 15.6484H9.42076V18.8605H5.35547V15.6484Z" fill="#315D80"/>
<path d="M0 18.8605H0.00449273V20.024C0.0333243 20.8007 1.14795 20.8001 1.17651 20.024V18.8605H4.18246V15.6484H0L0 18.8605Z" fill="#315D80"/>
<path d="M20.0106 15.6484H15.9844V18.8605H18.8339V20.024C18.8627 20.8007 19.9774 20.8001 20.0059 20.024V18.8605H20.0106V15.6484Z" fill="#315D80"/>
</svg>
