<svg width="18" height="18" viewBox="0 0 18 18" fill="none" xmlns="http://www.w3.org/2000/svg">
<path d="M17.5209 3.36914H14.0168V4.69292L16.2155 6.38656C16.3895 6.52058 16.4589 6.75051 16.3881 6.95841C16.3173 7.16631 16.1221 7.3061 15.9024 7.3061H11.053C10.8324 7.3061 10.6365 7.16507 10.5665 6.95587C10.4965 6.74667 10.568 6.51613 10.7442 6.38335L12.9906 4.6896V3.36914H9.27344V12.1433H17.5209V3.36914Z" fill="#C06A87"/>
<path d="M4.68823 12.1428H8.2476V0H4.68823V12.1428ZM6.07149 6.59844C6.37226 6.59844 6.61604 6.84226 6.61604 7.14299C6.58933 7.86455 5.55352 7.86438 5.52691 7.14299C5.52691 6.84222 5.77073 6.59844 6.07149 6.59844Z" fill="#C06A87"/>
<path d="M14.3957 6.27939L13.5005 5.58984L12.5859 6.27939H14.3957Z" fill="#C06A87"/>
<path d="M3.66195 12.1428V0H0.663036C0.296868 0 0 0.296834 0 0.663035V12.1428H3.66195ZM2.21914 6.59844C2.5199 6.59844 2.76369 6.84226 2.76369 7.14299C2.73697 7.86455 1.70117 7.86438 1.67455 7.14299C1.67459 6.84222 1.9184 6.59844 2.21914 6.59844Z" fill="#C06A87"/>
<path d="M9.27344 2.34252H17.5209V0.663036C17.5209 0.296834 17.224 0 16.8579 0H9.27344V2.34252Z" fill="#C06A87"/>
<path d="M9.27344 13.1699H12.9696V15.9822H9.27344V13.1699Z" fill="#315D80"/>
<path d="M4.68823 13.1699H8.2476V15.9822H4.68823V13.1699Z" fill="#315D80"/>
<path d="M0 15.9822H0.00393361V17.001C0.0291771 17.681 1.00509 17.6805 1.03009 17.001V15.9822H3.66195V13.1699H0L0 15.9822Z" fill="#315D80"/>
<path d="M17.5215 13.1699H13.9963V15.9822H16.4912V17.001C16.5165 17.681 17.4924 17.6805 17.5174 17.001V15.9822H17.5215V13.1699Z" fill="#315D80"/>
</svg>
