<svg width="11" height="12" viewBox="0 0 11 12" fill="none" xmlns="http://www.w3.org/2000/svg">
<path d="M2.33333 5.4H3.5V6.6H2.33333V5.4ZM10.5 2.4V10.8C10.5 11.46 9.975 12 9.33333 12H1.16667C0.857247 12 0.560501 11.8736 0.341709 11.6485C0.122916 11.4235 0 11.1183 0 10.8L0.00583333 2.4C0.00583333 1.74 0.519167 1.2 1.16667 1.2H1.75V0H2.91667V1.2H7.58333V0H8.75V1.2H9.33333C9.975 1.2 10.5 1.74 10.5 2.4ZM1.16667 3.6H9.33333V2.4H1.16667V3.6ZM9.33333 10.8V4.8H1.16667V10.8H9.33333ZM7 6.6H8.16667V5.4H7V6.6ZM4.66667 6.6H5.83333V5.4H4.66667V6.6Z" fill="#315D80" fill-opacity="0.52"/>
</svg>
