<svg width="20" height="20" viewBox="0 0 20 20" fill="none" xmlns="http://www.w3.org/2000/svg">
<path d="M15.6679 3.36328C15.6679 3.14754 15.493 2.97266 15.2772 2.97266H10.5859V9.22988H15.6679V3.36328Z" fill="#4D7EA5"/>
<path d="M9.41395 2.97266H4.72266C4.50691 2.97266 4.33203 3.14754 4.33203 3.36328V6.61699L6.21207 4.73641C6.44086 4.50754 6.81188 4.5075 7.0407 4.73629C7.26957 4.96508 7.26961 5.33609 7.04082 5.56492L4.33203 8.27449V9.22988H9.41395V2.97266ZM8.22957 7.57641L7.72852 8.07766C7.6141 8.19211 7.4641 8.24934 7.31414 8.24934C7.16422 8.24934 7.0143 8.19215 6.89988 8.07777C6.67102 7.84902 6.67094 7.47801 6.89973 7.24914L7.40078 6.74789C7.62949 6.51902 8.00055 6.51895 8.22941 6.74773C8.45828 6.97656 8.45836 7.34758 8.22957 7.57641Z" fill="#4D7EA5"/>
<path d="M9.41395 10.4014H4.33203V14.9008H9.41395V10.4014Z" fill="#4D7EA5"/>
<path d="M15.6679 10.4014H10.5859V14.9008H15.6679V10.4014Z" fill="#4D7EA5"/>
<path d="M3.15977 2.97227C3.15977 2.32504 3.68445 1.80039 4.33164 1.80039H15.6673C16.3145 1.80039 16.8392 2.32504 16.8392 2.97227V14.9008H18.5986V0.782227C18.5986 0.350742 18.2488 0.000976562 17.8173 0.000976562H2.18164C1.75016 0.000976562 1.40039 0.350742 1.40039 0.782227V14.9008H3.15977V2.97227Z" fill="#4D7EA5"/>
<path d="M19.4141 16.0723H0.585938C0.262344 16.0723 0 16.3346 0 16.6582V16.6803C0 18.5111 1.48949 20.0006 3.32031 20.0006H16.6797C18.5105 20.0006 20 18.5111 20 16.6803V16.6582C20 16.3346 19.7377 16.0723 19.4141 16.0723Z" fill="#FFB6A3"/>
</svg>
