<svg width="20" height="20" viewBox="0 0 20 20" fill="none" xmlns="http://www.w3.org/2000/svg">
<g clip-path="url(#clip0_6479_3174)">
<path d="M31.3895 10.8311H29.1678C29.0145 10.8311 28.89 10.9244 28.89 11.0394L28.8906 12.0807C28.8906 12.3111 28.6423 12.4977 28.335 12.4977C28.0284 12.4977 27.7795 12.3115 27.7795 12.0815L27.7789 11.0394C27.7789 10.9244 27.6545 10.8311 27.5011 10.8311H25.8345C25.6811 10.8311 25.5567 10.9244 25.5567 11.0394L25.5572 12.9144C25.5572 13.1444 25.3089 13.331 25.0016 13.331C24.695 13.331 24.4461 13.1448 24.4461 12.9144L24.445 11.0394C24.445 10.9244 24.3206 10.8311 24.1672 10.8311H22.5005C22.3472 10.8311 22.2227 10.9244 22.2227 11.0394L22.2233 12.0811C22.2233 12.311 21.975 12.4977 21.6678 12.4977C21.3612 12.4977 21.1123 12.3115 21.1123 12.0811L21.1117 11.0394C21.1117 10.9244 20.9873 10.8311 20.8339 10.8311H19.1673C19.014 10.8311 18.8895 10.9244 18.8895 11.0394L18.8901 12.9144C18.8901 13.1444 18.6418 13.331 18.3345 13.331C18.0279 13.331 17.779 13.1448 17.779 12.9144L17.7784 11.0394C17.7784 10.9244 17.654 10.8311 17.5006 10.8311H15.834C15.6806 10.8311 15.5562 10.9244 15.5562 11.0394L15.5567 12.0811C15.5567 12.311 15.3084 12.4977 15.0012 12.4977C14.6946 12.4977 14.4457 12.3115 14.4457 12.0811L14.4451 11.0394C14.4451 10.9244 14.3207 10.8311 14.1673 10.8311H12.5006C12.3473 10.8311 12.2228 10.9244 12.2228 11.0394L12.2233 12.9144C12.2233 13.1444 11.975 13.331 11.6678 13.331C11.3612 13.331 11.1123 13.1448 11.1123 12.9144L11.1117 11.0394C11.1117 10.9244 10.9873 10.8311 10.8339 10.8311H9.16723C9.01391 10.8311 8.88943 10.9244 8.88943 11.0394L8.88995 12.0811C8.88995 12.311 8.64165 12.4977 8.33442 12.4977C8.02778 12.4977 7.77889 12.3115 7.77889 12.0811L7.7783 11.0394C7.7783 10.9244 7.65389 10.8311 7.5005 10.8311H5.83384C5.68052 10.8311 5.55604 10.9244 5.55604 11.0394L5.55663 12.9144C5.55663 13.1444 5.30832 13.331 5.00109 13.331C4.69445 13.331 4.44556 13.1448 4.44556 12.9144L4.44504 11.0394C4.44504 10.9244 4.32063 10.8311 4.16724 10.8311H2.50064C2.34732 10.8311 2.22284 10.9244 2.22284 11.0394V12.0811C2.22284 12.3115 1.97454 12.4977 1.66731 12.4977C1.36009 12.4977 1.11178 12.3115 1.11178 12.0811V11.0394C1.11178 10.9244 0.987365 10.8311 0.83398 10.8311H-1.38822C-1.5416 10.8311 -1.66602 10.9244 -1.66602 11.0394V16.456C-1.66602 16.571 -1.5416 16.6644 -1.38822 16.6644H31.3895C31.5428 16.6644 31.6673 16.5711 31.6673 16.456V11.0394C31.6673 10.9244 31.5428 10.8311 31.3895 10.8311Z" fill="#C06A87"/>
<path d="M19.8872 4.7245L17.4527 2.15321C17.3211 2.01435 17.105 1.96423 16.9126 2.02464C16.7202 2.08637 16.5918 2.24747 16.5918 2.42791V3.4993L3.40824 3.4993V2.42751C3.40824 2.24707 3.27975 2.08596 3.08736 2.02469C2.89491 1.96343 2.67941 2.014 2.5473 2.15326L0.112756 4.72495C0.0377903 4.80425 0 4.90193 0 4.9992C0 5.09648 0.0377288 5.19421 0.112756 5.27391L2.5473 7.8452C2.64168 7.94463 2.77957 7.99902 2.92114 7.99902C2.97675 7.99902 3.03286 7.99043 3.08687 7.97331C3.27932 7.91159 3.40775 7.75048 3.40775 7.57049V6.4991L16.5912 6.49911V7.57049C16.5912 7.75093 16.7197 7.91204 16.9121 7.97331C16.9661 7.99044 17.0222 7.99902 17.0778 7.99902C17.2194 7.99902 17.3573 7.94458 17.4522 7.8452L19.8868 5.27391C19.9623 5.19421 20 5.09693 20 4.9992C20 4.90147 19.9622 4.80425 19.8872 4.7245Z" fill="#9BB997"/>
</g>
<defs>
<clipPath id="clip0_6479_3174">
<rect width="20" height="20" fill="white" transform="translate(0 -0.000976562)"/>
</clipPath>
</defs>
</svg>
