<svg width="20" height="20" viewBox="0 0 20 20" fill="none" xmlns="http://www.w3.org/2000/svg">
<g clip-path="url(#clip0_6479_3089)">
<path d="M16.9908 0.535156H3.0092C1.34728 0.535156 0 1.88244 0 3.54436V6.30569H20V3.54436C20 1.88244 18.6527 0.535156 16.9908 0.535156ZM11.5854 3.28364H8.46088C8.14448 3.28364 7.87135 3.04053 7.85741 2.72445C7.84261 2.38892 8.11028 2.11223 8.44253 2.11223H11.567C11.8834 2.11223 12.1566 2.35534 12.1705 2.67142C12.1853 3.00695 11.9176 3.28364 11.5854 3.28364Z" fill="#F1D15B"/>
<path d="M17.3867 14.3535C17.1355 14.3966 16.8774 14.4193 16.614 14.4193H14.4355L17.2039 19.2541C17.2782 19.3837 17.4161 19.4637 17.5654 19.4637H18.5749C18.8614 19.4637 19.0624 19.1812 18.9684 18.9105L17.3867 14.3535Z" fill="#4D7EA5"/>
<path d="M20 10.2389V7.47754H0V10.2389C0 11.9008 1.34728 13.2481 3.0092 13.2481H16.9908C18.6527 13.2481 20 11.9008 20 10.2389ZM11.5854 10.1591H8.46088C8.14448 10.1591 7.87135 9.91595 7.85741 9.59987C7.84261 9.26433 8.11028 8.98765 8.44253 8.98765H11.567C11.8834 8.98765 12.1566 9.23075 12.1705 9.54684C12.1853 9.88237 11.9176 10.1591 11.5854 10.1591Z" fill="#4D7EA5"/>
<path d="M3.38661 14.4189C3.11008 14.4189 2.83928 14.3941 2.57618 14.3467L0.992122 18.9107C0.898175 19.1813 1.09915 19.4638 1.38564 19.4638H2.43413C2.58349 19.4638 2.7214 19.3838 2.79563 19.2542L5.56434 14.4189H3.38661V14.4189Z" fill="#4D7EA5"/>
</g>
<defs>
<clipPath id="clip0_6479_3089">
<rect width="20" height="20" fill="white"/>
</clipPath>
</defs>
</svg>
