<svg width="20" height="20" viewBox="0 0 20 20" fill="none" xmlns="http://www.w3.org/2000/svg">
<g clip-path="url(#clip0_6479_3256)">
<path d="M19.8897 4.20317L17.2812 0.29043C17.1602 0.109141 16.9566 0 16.7386 0H3.26141C3.04341 0 2.83985 0.109141 2.71883 0.29043L0.110353 4.20317C-0.178358 4.63626 0.133283 5.217 0.652932 5.217C0.976566 5.217 19.0209 5.217 19.3471 5.217C19.8678 5.217 20.1779 4.63544 19.8897 4.20317Z" fill="#FFB6A3"/>
<path d="M1.30859 6.52148C1.30859 6.60848 1.30859 19.2596 1.30859 19.3466C1.30859 19.7066 1.59613 19.9987 1.95637 19.9987C2.51633 19.9987 17.3078 19.9987 18.0421 19.9987C18.4023 19.9987 18.6942 19.7066 18.6942 19.3466C18.6942 19.2597 18.6942 6.60848 18.6942 6.52148H1.30859ZM5.22134 15.6512H2.60852C2.60852 15.3742 2.60852 13.3113 2.60852 13.0427C4.15129 13.0427 4.98411 13.0427 5.22138 13.0427V15.6512H5.22134ZM7.39075 11.7385H4.78227C4.42204 11.7385 4.13016 11.4464 4.13016 11.0864V8.47789C4.13016 8.11789 4.42204 7.82578 4.78227 7.82578H7.39075C7.75099 7.82578 8.04724 8.11789 8.04724 8.47789V11.0864C8.04724 11.4464 7.75099 11.7385 7.39075 11.7385ZM11.96 18.6945H8.04287V16.3033H8.69498C9.05521 16.3033 9.34709 16.0112 9.34709 15.6512C9.34709 15.2912 9.05521 14.9991 8.69498 14.9991H8.04287V13.0427H11.9599V18.6945H11.96ZM12.1773 11.7385H9.99924C9.639 11.7385 9.34713 11.4464 9.34713 11.0864V8.47789C9.34713 8.11789 9.639 7.82578 9.99924 7.82578H12.1773V11.7385ZM13.4773 7.82575H15.2162C15.5765 7.82575 15.8727 8.11786 15.8727 8.47786V11.0863C15.8727 11.4463 15.5765 11.7384 15.2162 11.7384H13.4773V7.82575ZM17.3943 15.6512H14.7815V13.0427C15.0958 13.0427 17.0813 13.0427 17.3943 13.0427C17.3943 13.3197 17.3943 15.3826 17.3943 15.6512Z" fill="#4D7EA5"/>
</g>
<defs>
<clipPath id="clip0_6479_3256">
<rect width="20" height="20" fill="white" transform="translate(0 -0.000976562)"/>
</clipPath>
</defs>
</svg>
