<svg width="20" height="20" viewBox="0 0 20 20" fill="none" xmlns="http://www.w3.org/2000/svg">
<g clip-path="url(#clip0_6479_3479)">
<path d="M0.5 0.577148V19.418H2.75254V13.2445H6.08947V19.418H12.4514V0.577148H0.5ZM5.3149 9.84268H2.83836V7.9544H5.3149V9.84268ZM5.3149 4.51699H2.83836V2.62661H5.3149V4.51699ZM10.113 15.1328H7.6386V13.2445H10.113V15.1328ZM10.113 9.84268H7.6386V7.9544H10.113V9.84268ZM10.113 4.51699H7.6386V2.62661H10.113V4.51699Z" fill="#3E6B8E"/>
<path d="M13.0801 5.91211V19.4189H19.5006V5.91211H13.0801ZM17.5265 15.1693H15.0521V13.281H17.5265V15.1693ZM17.5265 9.84358H15.0521V7.9553H17.5265V9.84358Z" fill="#C06A87"/>
</g>
<defs>
<clipPath id="clip0_6479_3479">
<rect width="20" height="20" fill="white" transform="translate(0 -0.00195312)"/>
</clipPath>
</defs>
</svg>
