<svg width="20" height="20" viewBox="0 0 20 20" fill="none" xmlns="http://www.w3.org/2000/svg">
<g clip-path="url(#clip0_6479_3466)">
<path d="M10.0004 7.07695C10.3674 7.07695 10.6648 6.77947 10.6648 6.4125C10.6648 6.04553 10.3674 5.74805 10.0004 5.74805C9.63342 5.74805 9.33594 6.04553 9.33594 6.4125C9.33594 6.77947 9.63342 7.07695 10.0004 7.07695Z" fill="#F1D15B"/>
<path d="M10.0008 9.57812C11.6082 9.57812 12.9156 8.27031 12.9156 6.66289V2.17773C12.0004 1.86992 11.0199 1.70312 10.0008 1.70312C8.98164 1.70312 8.00117 1.86992 7.08594 2.17773V6.66289C7.08594 8.27031 8.39336 9.57812 10.0008 9.57812ZM10.0008 4.57656C11.0133 4.57656 11.8371 5.40039 11.8371 6.41289C11.8371 7.42539 11.0133 8.24922 10.0008 8.24922C8.98828 8.24922 8.16445 7.42539 8.16445 6.41289C8.16445 5.40039 8.98828 4.57656 10.0008 4.57656Z" fill="#F1D15B"/>
<path d="M10.0004 19.9996C13.5758 19.9996 16.6719 17.9488 18.1766 14.959H1.82422C3.32891 17.9488 6.425 19.9996 10.0004 19.9996ZM9.41445 16.2484H10.5863V18.1242H9.41445V16.2484Z" fill="#6B5E7A"/>
<path d="M14.0867 2.66504V6.66309C14.0867 8.9166 12.2535 10.7502 10 10.7502C7.74648 10.7502 5.91328 8.9166 5.91328 6.66309V2.66504C2.91211 4.16582 0.851562 7.26816 0.851562 10.8518C0.851562 11.8787 1.0207 12.8662 1.33281 13.7877H18.6672C18.9793 12.8662 19.1484 11.8787 19.1484 10.8518C19.1484 7.26816 17.0879 4.16582 14.0867 2.66504Z" fill="#6B5E7A"/>
<path d="M4.41406 1.17188V0C1.98012 0 0 1.98012 0 4.41406H1.17188C1.17188 2.62629 2.62633 1.17188 4.41406 1.17188Z" fill="#F1D15B"/>
<path d="M18.8281 4.41406H20C20 1.98012 18.0199 0 15.5859 0V1.17188C17.3737 1.17188 18.8281 2.62629 18.8281 4.41406Z" fill="#F1D15B"/>
</g>
<defs>
<clipPath id="clip0_6479_3466">
<rect width="20" height="20" fill="white"/>
</clipPath>
</defs>
</svg>
