<svg width="20" height="20" viewBox="0 0 20 20" fill="none" xmlns="http://www.w3.org/2000/svg">
<g clip-path="url(#clip0_6479_3507)">
<path d="M4.63484 7.86719C4.81313 7.63137 5.00934 7.40988 5.22078 7.20395V5.03559C6.02637 4.7859 6.61148 4.03496 6.61148 3.14731V0.731445C5.89141 0.731445 5.21633 0.924063 4.63484 1.26043C4.05336 0.924063 3.37832 0.731445 2.6582 0.731445V3.14731C2.6582 4.03496 3.24332 4.7859 4.04891 5.03559V7.20395C4.26035 7.40988 4.45656 7.63137 4.63484 7.86719Z" fill="#EA4B62"/>
<path d="M15.3653 7.86719C15.5436 7.63137 15.7398 7.40988 15.9512 7.20395V5.03559C16.7568 4.7859 17.3419 4.03496 17.3419 3.14731V0.731445C16.6218 0.731445 15.9468 0.924063 15.3653 1.26043C14.7838 0.924063 14.1088 0.731445 13.3887 0.731445V3.14731C13.3887 4.03496 13.9738 4.7859 14.7794 5.03559V7.20395C14.9908 7.40988 15.187 7.63137 15.3653 7.86719Z" fill="#EA4B62"/>
<path d="M9.26887 6.72754C6.70953 6.72754 4.63477 8.80231 4.63477 11.3616C7.1941 11.3616 9.26887 9.28688 9.26887 6.72754Z" fill="#9BB997"/>
<path d="M4.6341 11.3616C4.6341 8.80231 2.55934 6.72754 0 6.72754C0 9.28688 2.07477 11.3616 4.6341 11.3616Z" fill="#9BB997"/>
<path d="M19.9993 6.72754C17.44 6.72754 15.3652 8.80231 15.3652 11.3616C17.9246 11.3616 19.9993 9.28688 19.9993 6.72754Z" fill="#9BB997"/>
<path d="M15.3665 11.3616C15.3665 8.80231 13.2918 6.72754 10.7324 6.72754C10.7324 9.28688 12.8072 11.3616 15.3665 11.3616Z" fill="#9BB997"/>
<path d="M2.04973 12.5332C1.12316 12.5332 0.338672 13.1514 0.0859375 13.9968H19.9143C19.6616 13.1514 18.8771 12.5332 17.9506 12.5332H2.04973Z" fill="#9BB997"/>
<path d="M0 15.1689H1.46363V19.2681H0V15.1689Z" fill="#9BB997"/>
<path d="M2.63477 17.8037H17.3638V19.2673H2.63477V17.8037Z" fill="#9BB997"/>
<path d="M18.5371 15.1689H20.0007V19.2681H18.5371V15.1689Z" fill="#9BB997"/>
<path d="M2.63477 15.1689H17.3638V16.6326H2.63477V15.1689Z" fill="#9BB997"/>
</g>
<defs>
<clipPath id="clip0_6479_3507">
<rect width="20" height="20" fill="white"/>
</clipPath>
</defs>
</svg>
