<svg width="21" height="20" viewBox="0 0 21 20" fill="none" xmlns="http://www.w3.org/2000/svg">
<path d="M20.0281 10.0207C20.0281 10.2248 19.947 10.4206 19.8027 10.5649C19.6584 10.7092 19.4626 10.7903 19.2585 10.7903H18.0403L18.7793 11.5283C18.8507 11.5997 18.9074 11.6845 18.946 11.7778C18.9846 11.871 19.0045 11.971 19.0045 12.072C19.0045 12.173 18.9846 12.2729 18.946 12.3662C18.9074 12.4595 18.8507 12.5442 18.7793 12.6156C18.7079 12.687 18.6232 12.7437 18.5299 12.7823C18.4366 12.8209 18.3366 12.8408 18.2357 12.8408C18.1347 12.8408 18.0347 12.8209 17.9415 12.7823C17.8482 12.7437 17.7634 12.687 17.692 12.6156L15.8646 10.7882H11.3712L15.026 14.4431H17.5905C17.7946 14.4431 17.9903 14.5241 18.1347 14.6684C18.279 14.8128 18.36 15.0085 18.36 15.2126C18.36 15.4167 18.279 15.6124 18.1347 15.7567C17.9903 15.9011 17.7946 15.9821 17.5905 15.9821H16.5611L17.423 16.8431C17.4952 16.9141 17.5529 16.9986 17.5925 17.0918C17.6518 17.2324 17.6673 17.3876 17.6371 17.5372C17.6069 17.6868 17.5322 17.8238 17.423 17.9304C17.3525 18.003 17.2678 18.0603 17.1743 18.0989C17.0335 18.1572 16.8786 18.1723 16.7293 18.1423C16.58 18.1123 16.443 18.0385 16.3357 17.9304L15.4748 17.0694V18.0948C15.4748 18.2989 15.3937 18.4947 15.2494 18.639C15.1051 18.7833 14.9093 18.8644 14.7052 18.8644C14.5011 18.8644 14.3054 18.7833 14.1611 18.639C14.0168 18.4947 13.9357 18.2989 13.9357 18.0948V15.508L10.7976 12.37V7.33341L13.9357 4.19534V1.63087C13.9357 1.42677 14.0168 1.23104 14.1611 1.08672C14.3054 0.942404 14.5011 0.861328 14.7052 0.861328C14.9093 0.861328 15.1051 0.942404 15.2494 1.08672C15.3937 1.23104 15.4748 1.42677 15.4748 1.63087V2.65727L16.3357 1.79534C16.4069 1.72218 16.4922 1.66417 16.5864 1.62478C16.7758 1.54436 16.9894 1.54217 17.1804 1.61869C17.2745 1.65744 17.3604 1.71397 17.4331 1.78518C17.5061 1.85624 17.564 1.94116 17.6037 2.03493C17.664 2.17621 17.681 2.33224 17.6524 2.48319C17.6239 2.63413 17.5511 2.77318 17.4433 2.88265L16.5824 3.74356H17.6078C17.8119 3.74356 18.0076 3.82464 18.1519 3.96895C18.2962 4.11327 18.3773 4.30901 18.3773 4.5131C18.3773 4.7172 18.2962 4.91294 18.1519 5.05725C18.0076 5.20157 17.8119 5.28265 17.6078 5.28265H15.023L11.0534 9.23087H15.8636L17.691 7.40346C17.7998 7.30228 17.9356 7.23477 18.082 7.20908C18.2283 7.1834 18.379 7.20064 18.5158 7.25872C18.6526 7.3168 18.7696 7.41324 18.8528 7.53639C18.9359 7.65953 18.9816 7.80413 18.9844 7.9527C18.9881 8.15143 18.9154 8.344 18.7814 8.49077L18.0423 9.22884H19.2606V9.25016C19.3616 9.24989 19.4617 9.26958 19.5551 9.30809C19.6485 9.34661 19.7334 9.40319 19.8049 9.4746C19.8764 9.546 19.9331 9.63082 19.9718 9.72419C20.0104 9.81756 20.0302 9.91764 20.0301 10.0187L20.0281 10.0207Z" fill="#F0D15C"/>
<path d="M6.84819 18.886L7.3558 18.0048V18.0353C7.40711 17.9483 7.44078 17.852 7.45487 17.752C7.46897 17.652 7.46322 17.5502 7.43795 17.4525C7.41268 17.3547 7.36839 17.2629 7.30761 17.1822C7.24683 17.1016 7.17075 17.0337 7.08372 16.9825C6.9961 16.9322 6.89956 16.8995 6.79946 16.886C6.64812 16.8653 6.49405 16.89 6.35672 16.9569C6.21939 17.0237 6.10496 17.1298 6.02789 17.2616L5.52027 18.1439C5.42622 18.3188 5.4036 18.5233 5.45718 18.7145C5.51075 18.9057 5.63635 19.0687 5.80758 19.1693C5.9234 19.2341 6.05356 19.269 6.18626 19.2708C6.32175 19.2695 6.45454 19.2328 6.57152 19.1644C6.6885 19.096 6.78561 18.9983 6.85327 18.8809L6.84819 18.886Z" fill="#F0D15C"/>
<path d="M1.82321 14.6476L2.62321 14.1045C2.70417 14.0382 2.79778 13.9892 2.89834 13.9603C2.9973 13.9323 3.10092 13.9247 3.2029 13.938C3.30655 13.9517 3.40635 13.9862 3.49631 14.0395C3.58584 14.0934 3.66381 14.1645 3.72575 14.2486C3.83176 14.4108 3.87168 14.6074 3.83732 14.7981C3.80296 14.9888 3.69693 15.159 3.54098 15.274L2.70037 15.8588C2.57347 15.955 2.41794 16.0057 2.25874 16.0029C2.1354 16.0043 2.01365 15.975 1.90443 15.9177C1.79507 15.8605 1.70186 15.7767 1.63336 15.674C1.52735 15.5118 1.48743 15.3152 1.52179 15.1246C1.55615 14.9339 1.66218 14.7636 1.81813 14.6486L1.82321 14.6476Z" fill="#F0D15C"/>
<path d="M6.49495 2.98716C6.39738 2.96104 6.30591 2.91595 6.22577 2.85446C6.14564 2.79296 6.07842 2.71627 6.02794 2.62878L5.52033 1.73639C5.41828 1.55963 5.39063 1.34957 5.44347 1.15241C5.4963 0.955263 5.62529 0.787175 5.80206 0.685127C5.97882 0.583079 6.18889 0.555429 6.38604 0.608263C6.58319 0.661097 6.75128 0.790086 6.85332 0.966852L7.36094 1.85924C7.43703 1.99108 7.47232 2.14252 7.46233 2.29441C7.45234 2.4463 7.39753 2.59182 7.30483 2.71256C7.21213 2.8333 7.08571 2.92384 6.94155 2.97272C6.79738 3.02159 6.64197 3.02662 6.49495 2.98716Z" fill="#F0D15C"/>
<path d="M3.06333 5.90171C2.90968 5.91177 2.75647 5.87647 2.62272 5.80019L1.82272 5.16364C1.6686 5.04966 1.56494 4.88012 1.53375 4.69098C1.50256 4.50184 1.54628 4.30799 1.65564 4.15055C1.765 3.99312 1.9314 3.88448 2.11953 3.84769C2.30765 3.8109 2.50272 3.84885 2.66333 3.95349L3.50495 4.54841C3.65871 4.66503 3.76304 4.83516 3.79726 5.02508C3.83148 5.215 3.7931 5.41084 3.68972 5.57379C3.62095 5.67643 3.52763 5.76027 3.41825 5.81771C3.30886 5.87515 3.18687 5.90437 3.06333 5.90273V5.90171Z" fill="#F0D15C"/>
<path d="M2.55891 9.70376C2.60043 9.79997 2.62218 9.90355 2.62287 10.0083H2.59241C2.58952 10.2114 2.50748 10.4054 2.36376 10.5489C2.22004 10.6925 2.02597 10.7742 1.82287 10.7769H0.797489C0.694147 10.7806 0.591108 10.7635 0.494527 10.7265C0.397946 10.6896 0.309803 10.6335 0.235365 10.5618C0.160927 10.49 0.101721 10.4039 0.0612815 10.3088C0.0208421 10.2136 0 10.1112 0 10.0078C0 9.90442 0.0208421 9.80206 0.0612815 9.70689C0.101721 9.61171 0.160927 9.52567 0.235365 9.45388C0.309803 9.3821 0.397946 9.32606 0.494527 9.2891C0.591108 9.25214 0.694147 9.23503 0.797489 9.23879H1.82287C1.92681 9.23578 2.03033 9.25338 2.12744 9.29057C2.32139 9.36692 2.47724 9.51693 2.56094 9.70782L2.55891 9.70376Z" fill="#F0D15C"/>
<path d="M10.7974 0.769542V19.2305C10.7974 19.4346 10.7163 19.6303 10.572 19.7746C10.4277 19.9189 10.232 20 10.0279 20C9.82378 20 9.62804 19.9189 9.48373 19.7746C9.33941 19.6303 9.25833 19.4346 9.25833 19.2305V16.8822C7.56193 16.6977 5.99346 15.8931 4.85396 14.6229C3.71446 13.3527 3.08423 11.7064 3.08423 10C3.08423 8.29359 3.71446 6.6473 4.85396 5.3771C5.99346 4.10691 7.56193 3.30232 9.25833 3.11777V0.769542C9.25833 0.565446 9.33941 0.369711 9.48373 0.225393C9.62804 0.0810759 9.82378 0 10.0279 0C10.232 0 10.4277 0.0810759 10.572 0.225393C10.7163 0.369711 10.7974 0.565446 10.7974 0.769542Z" fill="#EA4B62"/>
</svg>
