<svg width="20" height="20" viewBox="0 0 20 20" fill="none" xmlns="http://www.w3.org/2000/svg">
<g clip-path="url(#clip0_6479_3926)">
<path d="M15.3125 10.625H4.6875C4.5125 10.625 4.375 10.7625 4.375 10.9375V16.25H15.625V10.9375C15.625 10.7625 15.4875 10.625 15.3125 10.625ZM13.125 12.5C13.125 13.1875 12.5625 13.75 11.875 13.75H8.125C7.4375 13.75 6.875 13.1875 6.875 12.5V11.875C6.875 11.5312 7.15625 11.25 7.5 11.25C7.84375 11.25 8.125 11.5312 8.125 11.875V12.5H11.875V11.875C11.875 11.5312 12.1562 11.25 12.5 11.25C12.8438 11.25 13.125 11.5312 13.125 11.875V12.5Z" fill="#F2727F"/>
<path d="M0.625 16.25H3.125V10.9375C3.125 10.075 3.825 9.375 4.6875 9.375H15.3125C16.175 9.375 16.875 10.075 16.875 10.9375V16.25H19.375V8.125H0.625V16.25Z" fill="#F1D15B"/>
<path d="M18.75 18.125H18.125V17.5H1.875V18.125H1.25C0.90625 18.125 0.625 18.4062 0.625 18.75C0.625 19.0938 0.90625 19.375 1.25 19.375H18.75C19.0938 19.375 19.375 19.0938 19.375 18.75C19.375 18.4062 19.0938 18.125 18.75 18.125Z" fill="#F1D15B"/>
<path d="M0.625 3.75V6.875H19.375V3.75H0.625ZM4.375 5.9375H3.75C3.40625 5.9375 3.125 5.65625 3.125 5.3125C3.125 4.96875 3.40625 4.6875 3.75 4.6875H4.375C4.71875 4.6875 5 4.96875 5 5.3125C5 5.65625 4.71875 5.9375 4.375 5.9375ZM6.875 5.9375H6.25C5.90625 5.9375 5.625 5.65625 5.625 5.3125C5.625 4.96875 5.90625 4.6875 6.25 4.6875H6.875C7.21875 4.6875 7.5 4.96875 7.5 5.3125C7.5 5.65625 7.21875 5.9375 6.875 5.9375ZM16.25 5.9375H12.5C12.1562 5.9375 11.875 5.65625 11.875 5.3125C11.875 4.96875 12.1562 4.6875 12.5 4.6875H16.25C16.5938 4.6875 16.875 4.96875 16.875 5.3125C16.875 5.65625 16.5938 5.9375 16.25 5.9375Z" fill="#F2727F"/>
<path d="M16.8555 1.1C16.7867 0.825 16.5367 0.625 16.2492 0.625H12.4992C12.2117 0.625 11.9617 0.81875 11.893 1.1L11.543 2.5H17.2055L16.8555 1.1Z" fill="#F2727F"/>
<path d="M8.10547 1.1C8.03672 0.825 7.78672 0.625 7.49922 0.625H3.74922C3.46172 0.625 3.21172 0.81875 3.14297 1.1L2.79297 2.5H8.45547L8.10547 1.1Z" fill="#F2727F"/>
</g>
<defs>
<clipPath id="clip0_6479_3926">
<rect width="20" height="20" fill="white"/>
</clipPath>
</defs>
</svg>
