<svg width="20" height="20" viewBox="0 0 20 20" fill="none" xmlns="http://www.w3.org/2000/svg">
<path d="M7.76358 16.4934C7.48945 16.8468 8.06347 17.4846 8.06939 17.4912C8.18353 17.6381 8.26083 17.6749 8.30623 17.6806C8.31937 17.6824 8.33274 17.6814 8.34548 17.6778C8.35822 17.6741 8.37006 17.6678 8.38024 17.6593C8.40481 17.6386 8.42141 17.61 8.42717 17.5784C8.57531 16.8805 9.15086 16.4702 9.33452 16.355C9.22614 16.2179 9.16304 16.0505 9.15393 15.876C8.223 15.9595 7.76807 16.4879 7.76358 16.4934Z" fill="#C06A87"/>
<path d="M12.3939 16.3233C12.3636 16.3124 12.3305 16.3124 12.3002 16.3233C11.6223 16.5437 10.9792 16.2507 10.7876 16.1494C10.7224 16.3115 10.6091 16.4497 10.4629 16.5454C11.0007 17.3093 11.6857 17.4391 11.6927 17.4404C12.1376 17.5005 12.4012 16.6851 12.4038 16.6768C12.474 16.5043 12.4671 16.419 12.4493 16.3769C12.4443 16.3646 12.4368 16.3535 12.4273 16.3443C12.4177 16.3351 12.4064 16.3279 12.3939 16.3233Z" fill="#C06A87"/>
<path d="M10.001 16.5732C10.4093 16.5732 10.7402 16.2423 10.7402 15.834C10.7402 15.4257 10.4093 15.0947 10.001 15.0947C9.59269 15.0947 9.26172 15.4257 9.26172 15.834C9.26172 16.2423 9.59269 16.5732 10.001 16.5732Z" fill="#C06A87"/>
<path d="M9.53738 15.1238C8.99955 14.3598 8.31457 14.23 8.30755 14.2287C7.8626 14.1691 7.59911 14.9842 7.59648 14.9923C7.52631 15.1648 7.53321 15.2501 7.55098 15.2922C7.55594 15.3044 7.56338 15.3154 7.57281 15.3246C7.58225 15.3338 7.59348 15.3409 7.6058 15.3456C7.6361 15.3565 7.66925 15.3565 7.69955 15.3456C8.3774 15.1251 9.02049 15.4182 9.21216 15.5195C9.27748 15.3574 9.39101 15.2193 9.53738 15.1238Z" fill="#C06A87"/>
<path d="M10.0005 16.6815C9.86704 16.6815 9.73551 16.6497 9.61673 16.5889C9.22254 17.4392 9.45401 18.0949 9.45642 18.102C9.62583 18.5164 10.4652 18.338 10.4732 18.3361C10.6575 18.3108 10.7281 18.262 10.7557 18.2256C10.7638 18.2151 10.7696 18.2031 10.7728 18.1902C10.776 18.1774 10.7765 18.164 10.7743 18.1509C10.7686 18.1193 10.7521 18.0905 10.7276 18.0697C10.1973 17.5926 10.1299 16.8888 10.1219 16.6724C10.0817 16.6783 10.0411 16.6814 10.0005 16.6815Z" fill="#C06A87"/>
<path d="M9.99976 14.9825C10.1332 14.9825 10.2648 15.0143 10.3835 15.0751C10.7777 14.2248 10.5463 13.5691 10.5438 13.562C10.3744 13.1476 9.53507 13.326 9.52695 13.3279C9.34274 13.3532 9.27213 13.402 9.24461 13.4384C9.23651 13.4489 9.23067 13.4609 9.22746 13.4738C9.22425 13.4866 9.22375 13.5 9.22597 13.513C9.23167 13.5447 9.24817 13.5734 9.27268 13.5943C9.80294 14.0714 9.87038 14.7752 9.87838 14.9916C9.91857 14.9856 9.95914 14.9826 9.99976 14.9825Z" fill="#C06A87"/>
<path d="M12.237 15.1723C12.5105 14.8189 11.9371 14.1811 11.9311 14.1745C11.817 14.0276 11.7397 13.9908 11.6943 13.9851C11.6812 13.9835 11.6678 13.9845 11.6551 13.9882C11.6424 13.9918 11.6305 13.998 11.6203 14.0064C11.5957 14.0271 11.5791 14.0557 11.5734 14.0873C11.4252 14.7853 10.8497 15.1956 10.666 15.3107C10.7744 15.4478 10.8375 15.6152 10.8466 15.7898C11.7775 15.7062 12.2325 15.1778 12.237 15.1723Z" fill="#C06A87"/>
<path d="M13.425 11.667H6.57631C6.37954 11.6673 6.19093 11.7457 6.05179 11.8848C5.91265 12.0239 5.83433 12.2125 5.83398 12.4093V19.258C5.83433 19.4548 5.91265 19.6434 6.05179 19.7825C6.19093 19.9217 6.37954 20 6.57631 20.0003H13.425C13.6218 20 13.8104 19.9217 13.9495 19.7825C14.0886 19.6434 14.167 19.4548 14.1673 19.258V12.4093C14.167 12.2125 14.0886 12.0239 13.9495 11.8848C13.8104 11.7457 13.6218 11.6673 13.425 11.667ZM6.85306 12.2091C6.93523 12.2091 7.01556 12.2335 7.08388 12.2791C7.1522 12.3248 7.20545 12.3897 7.2369 12.4656C7.26834 12.5415 7.27657 12.625 7.26054 12.7056C7.24451 12.7862 7.20494 12.8602 7.14684 12.9183C7.08874 12.9764 7.01471 13.016 6.93412 13.032C6.85352 13.0481 6.76999 13.0398 6.69407 13.0084C6.61816 12.9769 6.55327 12.9237 6.50762 12.8554C6.46197 12.7871 6.4376 12.7067 6.4376 12.6246C6.43775 12.5144 6.48157 12.4088 6.55945 12.3309C6.63733 12.2531 6.74292 12.2092 6.85306 12.2091ZM6.85306 19.4582C6.77089 19.4582 6.69057 19.4339 6.62225 19.3882C6.55392 19.3426 6.50067 19.2777 6.46923 19.2017C6.43778 19.1258 6.42956 19.0423 6.44559 18.9617C6.46162 18.8811 6.50119 18.8071 6.55929 18.749C6.61739 18.6909 6.69142 18.6513 6.77201 18.6353C6.8526 18.6193 6.93614 18.6275 7.01205 18.6589C7.08797 18.6904 7.15285 18.7436 7.19851 18.8119C7.24416 18.8803 7.26852 18.9606 7.26852 19.0428C7.26838 19.1529 7.22456 19.2585 7.14668 19.3364C7.0688 19.4143 6.96321 19.4581 6.85306 19.4582ZM10.0007 19.243C9.32348 19.243 8.66151 19.0421 8.09847 18.6659C7.53543 18.2897 7.0966 17.7549 6.83747 17.1293C6.57833 16.5037 6.51054 15.8152 6.64265 15.1511C6.77477 14.4869 7.10086 13.8768 7.5797 13.398C8.05853 12.9192 8.6686 12.5931 9.33276 12.461C9.99693 12.3289 10.6853 12.3966 11.311 12.6558C11.9366 12.9149 12.4714 13.3537 12.8476 13.9168C13.2238 14.4798 13.4246 15.1418 13.4247 15.819C13.4236 16.7267 13.0625 17.5971 12.4206 18.239C11.7787 18.8809 10.9084 19.2419 10.0007 19.243ZM13.1482 19.4582C13.0661 19.4581 12.9858 19.4337 12.9176 19.3879C12.8493 19.3422 12.7962 19.2773 12.7648 19.2014C12.7334 19.1254 12.7253 19.0419 12.7414 18.9614C12.7575 18.8808 12.7971 18.8068 12.8552 18.7488C12.9133 18.6907 12.9874 18.6512 13.0679 18.6352C13.1485 18.6193 13.232 18.6275 13.3079 18.659C13.3838 18.6904 13.4486 18.7437 13.4943 18.812C13.5399 18.8803 13.5642 18.9606 13.5642 19.0428C13.5641 19.153 13.5202 19.2587 13.4422 19.3366C13.3642 19.4145 13.2585 19.4582 13.1482 19.4582ZM13.1482 13.04C13.0661 13.0399 12.9858 13.0155 12.9176 12.9697C12.8493 12.924 12.7962 12.8591 12.7648 12.7832C12.7334 12.7072 12.7253 12.6237 12.7414 12.5432C12.7575 12.4626 12.7971 12.3886 12.8552 12.3306C12.9133 12.2725 12.9874 12.233 13.0679 12.217C13.1485 12.2011 13.232 12.2093 13.3079 12.2408C13.3838 12.2722 13.4486 12.3255 13.4943 12.3938C13.5399 12.4621 13.5642 12.5424 13.5642 12.6246C13.5641 12.7348 13.5202 12.8405 13.4422 12.9184C13.3642 12.9963 13.2585 13.04 13.1482 13.04Z" fill="#C06A87"/>
<path d="M18.834 6.38L14.834 4.38V0H4.83398V4.38L0.833984 6.38V10H18.834V6.38Z" fill="#6B5E7A"/>
</svg>
