<svg width="20" height="20" viewBox="0 0 20 20" fill="none" xmlns="http://www.w3.org/2000/svg">
<g clip-path="url(#clip0_6479_3843)">
<path d="M7.97254 10.7588H4.79688V16.3964H6.16785L7.97254 10.7588Z" fill="#F2727F"/>
<path d="M12.0156 16.3964H15.1775V10.7588H13.8203L12.0156 16.3964Z" fill="#F2727F"/>
<path d="M7.39844 16.3964H10.786L12.5907 10.7588H9.20312L7.39844 16.3964Z" fill="#F2727F"/>
<path d="M0 7.83203V19.3291H20V7.83203H0ZM3.62426 9.58648H16.3494V17.5679H3.62426V9.58648Z" fill="#6B5E7A"/>
<path d="M0 4.70703H20V6.66023H0V4.70703Z" fill="#6B5E7A"/>
<path d="M3.62426 3.53457V2.34832H4.79613V3.53457H10.3782V2.34832H11.5501V3.53457H12.7779V2.34832H13.9498V3.53457H15.1775V2.34832H16.3494V3.53457H20V0.670898H0V3.53457H3.62426Z" fill="#F2727F"/>
</g>
<defs>
<clipPath id="clip0_6479_3843">
<rect width="20" height="20" fill="white"/>
</clipPath>
</defs>
</svg>
