<svg width="20" height="20" viewBox="0 0 20 20" fill="none" xmlns="http://www.w3.org/2000/svg">
<path d="M13.5156 0H6.48438C3.57645 0 1.21094 2.36551 1.21094 5.27344V14.1016H3.55469V12.3438C3.55469 11.5798 4.04449 10.9281 4.72656 10.6861V5.27344C4.72656 4.94957 4.98863 4.6875 5.3125 4.6875H7.65625C7.98012 4.6875 8.24219 4.94957 8.24219 5.27344V10.6861C8.92426 10.9281 9.41406 11.5798 9.41406 12.3438V14.1016H10.5859V12.3438C10.5859 11.5798 11.0757 10.9281 11.7578 10.6861V5.27344C11.7578 4.94957 12.0199 4.6875 12.3438 4.6875H14.6875C15.0114 4.6875 15.2734 4.94957 15.2734 5.27344V10.6861C15.9555 10.9281 16.4453 11.5798 16.4453 12.3438V14.1016H18.7891V5.27344C18.7891 2.36551 16.4236 0 13.5156 0ZM12.9297 3.51562H7.07031C6.74645 3.51562 6.48438 3.25355 6.48438 2.92969C6.48438 2.60582 6.74645 2.34375 7.07031 2.34375H12.9297C13.2536 2.34375 13.5156 2.60582 13.5156 2.92969C13.5156 3.25355 13.2536 3.51562 12.9297 3.51562Z" fill="#F2727F"/>
<path d="M12.9297 5.85938H14.1016V7.03125H12.9297V5.85938Z" fill="#3E6B8E"/>
<path d="M12.9297 11.1719C12.9297 11.4957 12.6676 11.7578 12.3438 11.7578C12.0205 11.7578 11.7578 12.0205 11.7578 12.3438V14.1016H15.2734V12.3438C15.2734 12.0205 15.0108 11.7578 14.6875 11.7578C14.3636 11.7578 14.1016 11.4957 14.1016 11.1719V8.20312H12.9297V11.1719Z" fill="#3E6B8E"/>
<path d="M1.21094 19.4141C1.21094 19.7379 1.47301 20 1.79688 20H18.2031C18.527 20 18.7891 19.7379 18.7891 19.4141V15.2734H1.21094V19.4141Z" fill="#F2727F"/>
<path d="M5.89844 5.85938H7.07031V7.03125H5.89844V5.85938Z" fill="#3E6B8E"/>
<path d="M5.89844 11.1719C5.89844 11.4957 5.63637 11.7578 5.3125 11.7578C4.98922 11.7578 4.72656 12.0205 4.72656 12.3438V14.1016H8.24219V12.3438C8.24219 12.0205 7.97953 11.7578 7.65625 11.7578C7.33238 11.7578 7.07031 11.4957 7.07031 11.1719V8.20312H5.89844V11.1719Z" fill="#3E6B8E"/>
</svg>
