<svg width="20" height="20" viewBox="0 0 20 20" fill="none" xmlns="http://www.w3.org/2000/svg">
<path d="M7.26562 2.34375H12.7344C13.7052 2.34375 14.4922 1.55676 14.4922 0.585938C14.4922 0.262344 14.2298 0 13.9062 0H6.09375C5.77016 0 5.50781 0.262344 5.50781 0.585938C5.50781 1.55676 6.2948 2.34375 7.26562 2.34375Z" fill="#C06A87"/>
<path d="M10 17.2656C9.67641 17.2656 9.41406 17.528 9.41406 17.8516V19.4141C9.41406 19.7377 9.67641 20 10 20C10.3236 20 10.5859 19.7377 10.5859 19.4141V17.8516C10.5859 17.528 10.3236 17.2656 10 17.2656Z" fill="#4D7EA5"/>
<path d="M14.7112 18.9997C14.0707 18.3592 13.7109 17.4906 13.7109 16.5849V16.289C13.7109 15.9654 13.4486 15.7031 13.125 15.7031C12.8014 15.7031 12.5391 15.9654 12.5391 16.289V16.5849C12.5391 17.8014 13.0223 18.9681 13.8826 19.8284C14.1114 20.0572 14.4824 20.0572 14.7112 19.8284L14.7113 19.8283C14.94 19.5995 14.94 19.2285 14.7112 18.9997Z" fill="#4D7EA5"/>
<path d="M19.2152 18.8755C17.7718 18.2569 16.8359 16.8377 16.8359 15.2673V14.7266C16.8359 14.403 16.5736 14.1406 16.25 14.1406C15.9264 14.1406 15.6641 14.403 15.6641 14.7266V15.2673C15.6641 17.3064 16.8793 19.1494 18.7536 19.9526C19.051 20.0801 19.3954 19.9423 19.5229 19.6449V19.6448C19.6504 19.3474 19.5127 19.003 19.2152 18.8755Z" fill="#4D7EA5"/>
<path d="M6.87499 15.7031H6.87495C6.55136 15.7031 6.28905 15.9654 6.28905 16.289V16.5849C6.28905 17.4907 5.92925 18.3593 5.28882 18.9997L5.28878 18.9998C5.05999 19.2286 5.05999 19.5995 5.28878 19.8284L5.28882 19.8284C5.51761 20.0572 5.88862 20.0572 6.11741 19.8284C6.97761 18.9682 7.46089 17.8014 7.46089 16.5849V16.2891C7.46089 15.9654 7.19858 15.7031 6.87499 15.7031Z" fill="#4D7EA5"/>
<path d="M3.75014 14.1406C3.42654 14.1406 3.1642 14.4029 3.1642 14.7265V15.2673C3.1642 16.8376 2.22834 18.2569 0.784942 18.8755C0.487521 19.0029 0.349747 19.3474 0.477208 19.6448L0.477247 19.6449C0.604708 19.9423 0.949161 20.0801 1.24658 19.9526C3.1208 19.1494 4.33604 17.3064 4.33604 15.2673V14.7265C4.33604 14.4029 4.07373 14.1406 3.75014 14.1406Z" fill="#4D7EA5"/>
<path d="M7.65625 10.2344C7.65625 11.5267 8.70766 12.5781 10 12.5781C11.2923 12.5781 12.3438 11.5267 12.3438 10.2344V8.28125H7.65625V10.2344Z" fill="#C06A87"/>
<path d="M18.1571 7.62839L13.5156 8.11441V10.7076L18.2437 10.9551C19.1985 11.0051 20 10.2444 20 9.28835C20 8.29781 19.1423 7.52523 18.1571 7.62839Z" fill="#C06A87"/>
<path d="M1.75633 10.9552L6.48438 10.7076V8.11445L1.84285 7.62839C0.857695 7.52523 0 8.29781 0 9.28835C0 10.2444 0.801563 11.0051 1.75633 10.9552Z" fill="#C06A87"/>
<path d="M9.41406 3.51562V5.9375C8.98258 5.9375 8.63281 6.28727 8.63281 6.71875V7.10938H11.3672V6.71875C11.3672 6.28727 11.0174 5.9375 10.5859 5.9375V3.51562H9.41406Z" fill="#C06A87"/>
<path d="M11.514 13.4062C11.055 13.6263 10.5414 13.7496 9.99933 13.7496C9.4573 13.7496 8.94363 13.6263 8.48469 13.4062L8.38246 14.2752C8.26859 15.243 9.0248 16.0934 9.99933 16.0934C10.9739 16.0934 11.7301 15.243 11.6162 14.2752L11.514 13.4062Z" fill="#4D7EA5"/>
</svg>
