<svg width="20" height="21" viewBox="0 0 20 21" fill="none" xmlns="http://www.w3.org/2000/svg">
<g clip-path="url(#clip0_6479_3938)">
<path d="M18.6661 0.484375H1.3327C0.966016 0.484375 0.666016 0.784375 0.666016 1.15106V3.81769H19.3327V1.15106C19.3327 0.784375 19.0328 0.484375 18.6661 0.484375ZM7.99939 2.81769H3.99939C3.6327 2.81769 3.3327 2.51769 3.3327 2.151C3.3327 1.78431 3.6327 1.48431 3.99939 1.48431H7.99939C8.36608 1.48431 8.66608 1.78431 8.66608 2.151C8.66608 2.51769 8.36608 2.81769 7.99939 2.81769ZM11.9994 2.81769H10.6661C10.2994 2.81769 9.99939 2.51769 9.99939 2.151C9.99939 1.78431 10.2994 1.48431 10.6661 1.48431H11.9994C12.3661 1.48431 12.6661 1.78431 12.6661 2.151C12.6661 2.51769 12.3661 2.81769 11.9994 2.81769ZM15.9994 2.81769H14.6661C14.2994 2.81769 13.9994 2.51769 13.9994 2.151C13.9994 1.78431 14.2994 1.48431 14.6661 1.48431H15.9994C16.3661 1.48431 16.6661 1.78431 16.6661 2.151C16.6661 2.51769 16.3661 2.81769 15.9994 2.81769Z" fill="#F1D15B"/>
<path d="M19.3325 5.15234V6.53903C18.5992 6.53903 18.1992 6.73234 17.8792 6.88566C17.6125 7.01234 17.4259 7.09897 16.9925 7.09897C16.5658 7.09897 16.3725 7.01228 16.1125 6.88566C15.7925 6.73234 15.3925 6.53903 14.6592 6.53903C13.9259 6.53903 13.5259 6.73234 13.2059 6.88566C12.9459 7.01234 12.7593 7.09897 12.3259 7.09897C11.8925 7.09897 11.7059 7.01228 11.4459 6.88566C11.1259 6.73234 10.7259 6.53903 9.99258 6.53903C9.25926 6.53903 8.85927 6.73234 8.53927 6.88566C8.27927 7.01234 8.09264 7.09897 7.65927 7.09897C7.23258 7.09897 7.04595 7.01228 6.78595 6.88566C6.46595 6.73234 6.06595 6.53903 5.33264 6.53903C4.59264 6.53903 4.19933 6.73234 3.87933 6.88566C3.61933 7.01234 3.4327 7.09897 2.99933 7.09897C2.56595 7.09897 2.37933 7.01228 2.11933 6.88566C1.79933 6.73234 1.39933 6.53903 0.666016 6.53903V5.15234H19.3325Z" fill="#3E6B8E"/>
<path d="M15 14.1501C14.4466 14.1501 14 13.7035 14 13.1501V11.4834H16V13.1501C16 13.7035 15.5534 14.1501 15 14.1501Z" fill="#3E6B8E"/>
<path d="M18.4525 8.08343C18.1325 8.23674 17.7325 8.43005 16.9925 8.43005C16.2592 8.43005 15.8592 8.23674 15.5392 8.08343C15.2792 7.95674 15.0926 7.87012 14.6592 7.87012C14.2258 7.87012 14.0392 7.9568 13.7792 8.08343C13.4592 8.23674 13.0592 8.43005 12.3259 8.43005C11.5926 8.43005 11.1926 8.23674 10.8726 8.08343C10.6126 7.95674 10.426 7.87012 9.99258 7.87012C9.5592 7.87012 9.37258 7.9568 9.11258 8.08343C8.79258 8.23674 8.39258 8.43005 7.65927 8.43005C6.92595 8.43005 6.52595 8.23674 6.20595 8.08343C5.94595 7.95674 5.75933 7.87012 5.33264 7.87012C4.89927 7.87012 4.71264 7.9568 4.45264 8.08343C4.13264 8.23674 3.73264 8.43005 2.99933 8.43005C2.26602 8.43005 1.86602 8.23674 1.54602 8.08343C1.28602 7.95674 1.09939 7.87012 0.666016 7.87012V19.8167C0.666016 20.1834 0.966016 20.4834 1.3327 20.4834H18.6659C19.0326 20.4834 19.3326 20.1834 19.3326 19.8167V7.87012C18.8992 7.87012 18.7125 7.9568 18.4525 8.08343ZM7.33252 18.8167C4.7592 18.8167 2.66583 16.7234 2.66583 14.1501C2.66583 11.5767 4.75914 9.48337 7.33252 9.48337C9.90589 9.48337 11.9992 11.5767 11.9992 14.1501C11.9992 16.7234 9.90589 18.8167 7.33252 18.8167ZM17.3325 13.1501C17.3325 14.2034 16.6258 15.0967 15.6658 15.3834V17.4834H15.9991C16.3658 17.4834 16.6658 17.7834 16.6658 18.1501C16.6658 18.5167 16.3658 18.8167 15.9991 18.8167H13.9991C13.6325 18.8167 13.3325 18.5167 13.3325 18.1501C13.3325 17.7834 13.6325 17.4834 13.9991 17.4834H14.3325V15.3834C13.3725 15.0967 12.6658 14.2034 12.6658 13.1501V10.8167C12.6658 10.4501 12.9658 10.1501 13.3325 10.1501H16.6658C17.0325 10.1501 17.3325 10.4501 17.3325 10.8167L17.3325 13.1501Z" fill="#3E6B8E"/>
<path d="M7.33312 17.4856C9.17396 17.4856 10.6663 15.9933 10.6663 14.1525C10.6663 12.3116 9.17396 10.8193 7.33312 10.8193C5.49229 10.8193 4 12.3116 4 14.1525C4 15.9933 5.49229 17.4856 7.33312 17.4856Z" fill="#3E6B8E"/>
</g>
<defs>
<clipPath id="clip0_6479_3938">
<rect width="20" height="20" fill="white" transform="translate(0 0.484375)"/>
</clipPath>
</defs>
</svg>
