<svg width="20" height="21" viewBox="0 0 20 21" fill="none" xmlns="http://www.w3.org/2000/svg">
<path d="M15.2547 8.4666C14.0531 8.4666 13.0535 7.58496 12.8687 6.43457H3.63164C3.44687 7.58496 2.44727 8.4666 1.2457 8.4666C1.07656 8.4666 0.911328 8.44902 0.751953 8.41582V8.54707C0.751953 8.73145 0.838672 8.90488 0.985937 9.01543L1.83281 9.65215L0.985937 10.2889C0.863281 10.3705 0.751953 10.5604 0.751953 10.7572V13.6674C0.751953 13.9908 1.01445 14.2533 1.33789 14.2533H8.24297V16.4979H11.7586V14.2533H13.6633C13.8418 14.2533 14.0344 14.1557 14.1316 14.0193L14.7684 13.1721L15.4051 14.0193C15.516 14.1744 15.7266 14.2533 15.8734 14.2533H18.7613C19.0848 14.2533 19.3473 13.9908 19.3473 13.6674V10.824H11.8074C11.484 10.824 11.2215 10.5615 11.2215 10.2381C11.2215 9.91465 11.484 9.65215 11.8074 9.65215H19.3473V6.43457H17.6406C17.4559 7.58496 16.4562 8.4666 15.2547 8.4666ZM7.41836 11.4811L6.68047 11.0553V11.9072C6.68047 12.2307 6.41797 12.4932 6.09453 12.4932C5.77109 12.4932 5.50859 12.2307 5.50859 11.9072V11.0553L4.7707 11.4811C4.49062 11.6428 4.13242 11.5471 3.97031 11.2666C3.80859 10.9865 3.90469 10.6279 4.18477 10.4662L4.92266 10.0404L4.18477 9.61426C3.90469 9.45254 3.80859 9.09434 3.97031 8.81387C4.13203 8.53379 4.49062 8.4377 4.7707 8.59941L5.50859 9.02559V8.17363C5.50859 7.8498 5.77109 7.5877 6.09453 7.5877C6.41797 7.5877 6.68047 7.8498 6.68047 8.17363V9.02559L7.41836 8.59941C7.69844 8.4377 8.05703 8.53379 8.21875 8.81387C8.38047 9.09434 8.28437 9.45254 8.0043 9.61426L7.26641 10.0404L8.0043 10.4662C8.28437 10.6279 8.38047 10.9865 8.21875 11.2666C8.05703 11.5471 7.69844 11.6432 7.41836 11.4811Z" fill="#4D7EA5"/>
<path d="M14.4013 17.668H5.59894C4.81652 17.668 4.08097 17.9727 3.52746 18.5258C3.20379 18.8495 2.96554 19.2356 2.82343 19.6569C2.70672 20.003 2.96281 20.3619 3.32812 20.3619H16.6705C17.0335 20.3619 17.2931 20.006 17.177 19.6621C16.7858 18.504 15.6895 17.668 14.4013 17.668Z" fill="#4D7EA5"/>
<path d="M18.5802 2.77301H11.7578V1.32109C11.7578 0.792969 11.3281 0.363281 10.8 0.363281H9.2C8.67188 0.363281 8.24219 0.792969 8.24219 1.32109V2.77301H1.41984C0.635703 2.77301 0 3.40867 0 4.19285V6.04984C0 6.73734 0.557305 7.29465 1.2448 7.29465C1.9323 7.29465 2.48961 6.73734 2.48961 6.04984V5.26262H14.0091V6.04984C14.0091 6.73734 14.5664 7.29465 15.2539 7.29465C15.9414 7.29465 16.4987 6.73734 16.4987 6.04984V5.26262H19.5438C19.7957 5.26262 20 5.0584 20 4.80645V4.19285C20 3.40867 19.3643 2.77301 18.5802 2.77301Z" fill="#3E6B8E"/>
</svg>
