<svg width="16" height="18" viewBox="0 0 16 18" fill="none" xmlns="http://www.w3.org/2000/svg">
<path d="M14.5625 3.35313L13.3125 2.72813V1.35938H10.1875V2.72813L8.9375 3.35313V4.48438H14.5625V3.35313Z" fill="#F2727F"/>
<path d="M13.9375 12.6094H9.5625V15.4219H13.9375V12.6094ZM12.375 13.5469H11.125V12.9219H12.375V13.5469Z" fill="#F2727F"/>
<path d="M2.0625 15.7344H7.375V13.8594H2.0625V15.7344ZM3.9375 14.4844H5.1875V15.1094H3.9375V14.4844Z" fill="#F2727F"/>
<path d="M2.0625 13.2344H7.375V11.3594H2.0625V13.2344ZM3.9375 11.9844H5.1875V12.6094H3.9375V11.9844Z" fill="#F2727F"/>
<path d="M1.75 4.7916C1.5415 4.86532 1.36576 5.01037 1.25387 5.20113C1.14197 5.39188 1.1011 5.61605 1.1385 5.83402C1.1759 6.05199 1.28915 6.24971 1.45823 6.39226C1.62732 6.5348 1.84135 6.61298 2.0625 6.61298C2.28365 6.61298 2.49768 6.5348 2.66677 6.39226C2.83585 6.24971 2.9491 6.05199 2.9865 5.83402C3.0239 5.61605 2.98303 5.39188 2.87113 5.20113C2.75924 5.01037 2.5835 4.86532 2.375 4.7916V1.92285H5.1875V3.20098C4.72394 3.27933 4.30673 3.52898 4.01855 3.90044C3.73037 4.27189 3.59225 4.73806 3.63157 5.20655C3.67088 5.67504 3.88476 6.11167 4.23082 6.4299C4.57688 6.74813 5.02986 6.92475 5.5 6.92475C5.97014 6.92475 6.42312 6.74813 6.76918 6.4299C7.11524 6.11167 7.32912 5.67504 7.36843 5.20655C7.40775 4.73806 7.26963 4.27189 6.98145 3.90044C6.69327 3.52898 6.27606 3.27933 5.8125 3.20098V1.92285H7.375V1.29785H5.8125V0.672852H5.1875V1.29785H2.375V0.672852H1.75V1.29785H0.8125V1.92285H1.75V4.7916Z" fill="#6B5E7A"/>
<path d="M16 8.48633H13.2308V7.48633H12V8.15299H12.6154V8.48633H10.7692V8.15299H11.3846V7.48633H10.1538V8.48633H0V9.15299H0.307692V17.4863H15.6923V9.15299H16V8.48633ZM1.53846 10.153H8V16.153H1.53846V10.153ZM14.4615 15.8197H8.92308V11.4863H14.4615V15.8197ZM11.8462 9.81966C11.9374 9.81966 12.0267 9.84899 12.1026 9.90393C12.1785 9.95887 12.2376 10.037 12.2726 10.1283C12.3075 10.2197 12.3166 10.3202 12.2988 10.4172C12.281 10.5142 12.2371 10.6033 12.1725 10.6732C12.108 10.7431 12.0257 10.7908 11.9362 10.8101C11.8467 10.8293 11.7539 10.8194 11.6695 10.7816C11.5852 10.7438 11.5131 10.6797 11.4624 10.5974C11.4117 10.5152 11.3846 10.4186 11.3846 10.3197C11.3846 10.1871 11.4332 10.0599 11.5198 9.96611C11.6064 9.87234 11.7237 9.81966 11.8462 9.81966ZM13.3846 9.81966C13.4759 9.81966 13.5651 9.84899 13.641 9.90393C13.7169 9.95887 13.7761 10.037 13.811 10.1283C13.846 10.2197 13.8551 10.3202 13.8373 10.4172C13.8195 10.5142 13.7755 10.6033 13.711 10.6732C13.6464 10.7431 13.5642 10.7908 13.4747 10.8101C13.3851 10.8293 13.2923 10.8194 13.208 10.7816C13.1237 10.7438 13.0516 10.6797 13.0009 10.5974C12.9501 10.5152 12.9231 10.4186 12.9231 10.3197C12.9231 10.1871 12.9717 10.0599 13.0583 9.96611C13.1448 9.87234 13.2622 9.81966 13.3846 9.81966Z" fill="#6B5E7A"/>
</svg>
