<svg width="20" height="21" viewBox="0 0 20 21" fill="none" xmlns="http://www.w3.org/2000/svg">
<g clip-path="url(#clip0_6479_3787)">
<path d="M6.50977 18.7715H13.4907V20.3599H6.50977V18.7715Z" fill="#4D7EA5"/>
<path d="M13.4907 15.2368V11.9834H12.1876V11.5247L13.2157 10.9742L12.6626 9.94109L12.1876 10.1954V9.14941H7.81285V10.1954L7.33785 9.94109L6.78473 10.9742L7.81285 11.5247V11.9834H6.50977V15.2368H13.4907ZM12.5889 13.7133C12.603 14.0297 12.3094 14.2992 12.0029 14.2992C11.6745 14.2992 11.4312 14.0307 11.417 13.7133C11.4028 13.3968 11.6964 13.1273 12.0029 13.1273C12.3314 13.1273 12.5746 13.3958 12.5889 13.7133ZM8.12367 13.1273C8.45215 13.1273 8.69539 13.3958 8.70961 13.7133C8.72379 14.0297 8.43016 14.2992 8.12367 14.2992C7.7952 14.2992 7.55195 14.0307 7.53773 13.7133C7.52356 13.3968 7.81719 13.1273 8.12367 13.1273Z" fill="#4D7EA5"/>
<path d="M14.6621 20.3612H19.9998V11.9844H14.6621V20.3612ZM17.0506 15.1986V16.7611H15.8787V15.1986H17.0506Z" fill="#6B5E7A"/>
<path d="M6.50977 16.4082H13.4907V17.5996H6.50977V16.4082Z" fill="#4D7EA5"/>
<path d="M2.42188 11.9823V9.68949C2.42188 9.42023 2.6409 9.20117 2.91016 9.20117C3.17941 9.20117 3.39848 9.42023 3.39848 9.68949V10.2949H4.57035V9.68949C4.57035 8.77402 3.82563 8.0293 2.91016 8.0293C1.99473 8.0293 1.25 8.77402 1.25 9.68949V11.9823H0V20.3591H5.33766V11.9823H2.42188ZM3.1641 16.759V15.1965H4.33598V16.759H3.1641Z" fill="#6B5E7A"/>
<path d="M0 0.366211H6.00168V4.57367H0V0.366211Z" fill="#4D7EA5"/>
<path d="M14.0898 0.366211H20.0008V4.57367H14.0898V0.366211Z" fill="#4D7EA5"/>
<path d="M7.17383 0.366211H12.9174V3.16688H7.17383V0.366211Z" fill="#6B5E7A"/>
<path d="M7.13379 4.33789L5.87891 7.39566H14.1195L12.9164 4.46391V4.33789H7.13379Z" fill="#6B5E7A"/>
</g>
<defs>
<clipPath id="clip0_6479_3787">
<rect width="20" height="20" fill="white" transform="translate(0 0.363281)"/>
</clipPath>
</defs>
</svg>
