<svg width="20" height="20" viewBox="0 0 20 20" fill="none" xmlns="http://www.w3.org/2000/svg">
<g clip-path="url(#clip0_6479_3824)">
<path d="M7.86988 8.56884H7.97474C8.03641 8.56905 8.09723 8.55448 8.1521 8.52634C8.20698 8.49821 8.25431 8.45734 8.29014 8.40714C8.32597 8.35695 8.34924 8.2989 8.35802 8.23786C8.36679 8.17682 8.36081 8.11457 8.34057 8.05632C8.16819 7.57317 8.0048 6.82079 8.28991 6.12098C8.63441 5.56866 8.91852 4.9809 9.13735 4.36784C9.15239 4.32161 9.18034 4.28065 9.21791 4.2498C9.25548 4.21895 9.30109 4.19949 9.34936 4.19373C9.39763 4.18796 9.44654 4.19613 9.49032 4.21727C9.53409 4.2384 9.57091 4.27163 9.59641 4.31301C10.0419 5.0068 10.2985 5.80486 10.341 6.62826C10.3416 6.66866 10.352 6.70832 10.3712 6.74389C10.3903 6.77947 10.4178 6.80992 10.4511 6.8327C10.4845 6.85547 10.5229 6.8699 10.563 6.87478C10.6031 6.87966 10.6438 6.87484 10.6817 6.86072C11.0089 6.73092 11.306 6.53543 11.5547 6.28633C11.5914 6.24929 11.6385 6.22429 11.6897 6.21464C11.741 6.205 11.7939 6.21116 11.8416 6.23232C11.8892 6.25347 11.9293 6.28862 11.9565 6.3331C11.9837 6.37757 11.9968 6.42927 11.9939 6.48133C11.9653 7.00967 11.8235 7.52569 11.5781 7.99448C11.5452 8.0529 11.528 8.11893 11.5284 8.18602C11.5288 8.25311 11.5467 8.31893 11.5804 8.37697C11.614 8.43501 11.6623 8.48324 11.7203 8.5169C11.7783 8.55055 11.8442 8.56846 11.9112 8.56884H11.9213C12.0161 8.56944 12.1076 8.53458 12.178 8.47112C13.962 6.83357 13.383 4.71614 12.9454 3.70004C12.9251 3.6532 12.8913 3.6135 12.8483 3.58607C12.8052 3.55864 12.755 3.54474 12.7039 3.54615C12.6529 3.54757 12.6035 3.56424 12.5621 3.59401C12.5206 3.62378 12.4891 3.66529 12.4714 3.71318C11.9766 5.07999 11.1143 5.12202 11.1143 5.12202C11.4607 2.72591 9.89085 1.04704 8.83801 0.211097C8.79467 0.177007 8.7415 0.157804 8.68638 0.15634C8.63126 0.154877 8.57714 0.171231 8.53205 0.202973C8.48697 0.234716 8.45333 0.280154 8.43612 0.332539C8.41892 0.384924 8.41907 0.441461 8.43655 0.493753C8.69545 1.26099 8.76904 2.48367 7.69226 4.00098C6.11931 6.21741 7.18073 7.92493 7.56748 8.42161C7.60332 8.46759 7.6492 8.50476 7.70162 8.53027C7.75403 8.55579 7.81158 8.56898 7.86988 8.56884Z" fill="#EA4B62"/>
<path d="M1.18137 11.8482H18.8171C18.8833 11.8482 18.9482 11.8309 19.0056 11.798C19.063 11.765 19.1107 11.7177 19.1441 11.6605C19.1774 11.6034 19.1953 11.5386 19.1958 11.4724C19.1963 11.4063 19.1794 11.3412 19.1469 11.2836L15.5659 4.9334C15.5109 4.83596 15.4311 4.75488 15.3345 4.69846C15.2379 4.64204 15.1281 4.6123 15.0162 4.6123H13.8955C14.0773 5.39126 14.0626 6.2032 13.8526 6.97504C14.1921 7.13339 14.4899 7.36896 14.7222 7.66291H14.1561C14.0722 7.66188 13.9889 7.67766 13.9111 7.70931C13.8333 7.74096 13.7626 7.78784 13.7032 7.8472C13.6439 7.90656 13.5969 7.9772 13.5652 8.05495C13.5335 8.13271 13.5177 8.21603 13.5187 8.29999C13.5253 8.45694 13.5924 8.60525 13.7059 8.71379C13.8195 8.82233 13.9707 8.88268 14.1277 8.88216H14.6578C14.0596 9.60158 12.5008 10.138 10.6089 10.2339V9.61227C10.6097 9.52892 10.5941 9.44623 10.5629 9.36894C10.5317 9.29166 10.4855 9.22131 10.427 9.16193C10.3685 9.10255 10.2988 9.05533 10.222 9.02296C10.1452 8.9906 10.0628 8.97374 9.9794 8.97335C9.82107 8.97797 9.67079 9.04425 9.56062 9.15806C9.45045 9.27188 9.38908 9.42422 9.38961 9.58263V10.2339C7.49642 10.138 5.93891 9.60157 5.34065 8.88216H5.84246C5.92642 8.88318 6.00975 8.8674 6.08752 8.83575C6.1653 8.80409 6.23595 8.7572 6.29534 8.69782C6.35472 8.63845 6.40163 8.5678 6.4333 8.49004C6.46497 8.41227 6.48077 8.32895 6.47976 8.24498C6.47262 8.08803 6.40517 7.93989 6.29147 7.83145C6.17778 7.72301 6.02662 7.66263 5.86951 7.66291H5.27503C5.5378 7.33701 5.87677 7.08083 6.26202 6.91699C6.15273 6.13124 6.27374 5.33065 6.61038 4.6123H4.98228C4.87042 4.6123 4.76057 4.64204 4.66399 4.69846C4.5674 4.75488 4.48754 4.83596 4.4326 4.9334L0.851555 11.2836C0.819069 11.3412 0.802241 11.4063 0.802745 11.4724C0.80325 11.5386 0.821068 11.6034 0.854428 11.6605C0.887788 11.7176 0.935525 11.765 0.992887 11.7979C1.05025 11.8309 1.11523 11.8482 1.18137 11.8482Z" fill="#6B5E7A"/>
<path d="M18.9606 12.7344H1.03808C0.971777 12.7344 0.906124 12.7474 0.844868 12.7728C0.783613 12.7982 0.727954 12.8354 0.681072 12.8822C0.634189 12.9291 0.597 12.9848 0.571629 13.046C0.546257 13.1073 0.5332 13.1729 0.533203 13.2392V16.1422C0.533204 16.2085 0.546264 16.2741 0.571637 16.3354C0.59701 16.3966 0.634199 16.4523 0.681081 16.4992C0.727963 16.546 0.78362 16.5832 0.844873 16.6086C0.906127 16.634 0.971778 16.647 1.03808 16.647H3.33689C3.56947 16.647 3.79959 16.6946 4.0131 16.7869C4.22661 16.8791 4.41898 17.0141 4.57838 17.1834C4.73779 17.3528 4.93016 17.4878 5.14367 17.58C5.35717 17.6723 5.5873 17.7198 5.81988 17.7198H14.1787C14.4113 17.7198 14.6414 17.6723 14.8549 17.58C15.0684 17.4878 15.2608 17.3528 15.4202 17.1834C15.5796 17.0141 15.772 16.8791 15.9855 16.7869C16.199 16.6946 16.4291 16.647 16.6617 16.647H18.9606C19.0945 16.647 19.2229 16.5938 19.3175 16.4992C19.4122 16.4045 19.4654 16.2761 19.4654 16.1422V13.2392C19.4654 13.1729 19.4524 13.1073 19.427 13.046C19.4016 12.9848 19.3644 12.9291 19.3176 12.8822C19.2707 12.8354 19.215 12.7982 19.1538 12.7728C19.0925 12.7474 19.0269 12.7344 18.9606 12.7344ZM2.33176 14.9886C2.20844 14.9886 2.0879 14.952 1.98537 14.8835C1.88284 14.815 1.80292 14.7176 1.75574 14.6036C1.70855 14.4897 1.6962 14.3644 1.72026 14.2434C1.74432 14.1225 1.80371 14.0114 1.89091 13.9242C1.9781 13.837 2.0892 13.7776 2.21014 13.7535C2.33109 13.7295 2.45645 13.7418 2.57038 13.789C2.68431 13.8362 2.78168 13.9161 2.85019 14.0187C2.9187 14.1212 2.95527 14.2417 2.95527 14.3651C2.9553 14.447 2.9392 14.528 2.90787 14.6037C2.87655 14.6794 2.83062 14.7481 2.77272 14.806C2.71481 14.8639 2.64606 14.9098 2.5704 14.9412C2.49474 14.9725 2.41365 14.9886 2.33176 14.9886ZM4.62887 14.9886C4.50556 14.9886 4.38501 14.952 4.28248 14.8835C4.17994 14.815 4.10003 14.7176 4.05284 14.6037C4.00565 14.4897 3.9933 14.3644 4.01736 14.2434C4.04142 14.1225 4.1008 14.0114 4.188 13.9242C4.27519 13.837 4.38629 13.7776 4.50723 13.7535C4.62818 13.7295 4.75354 13.7418 4.86747 13.789C4.9814 13.8362 5.07878 13.9161 5.14729 14.0187C5.2158 14.1212 5.25237 14.2417 5.25237 14.3651C5.2524 14.4469 5.2363 14.528 5.20498 14.6037C5.17366 14.6794 5.12773 14.7481 5.06983 14.806C5.01193 14.8639 4.94318 14.9098 4.86752 14.9412C4.79185 14.9725 4.71076 14.9886 4.62887 14.9886ZM11.4547 15.4801C11.4017 15.7878 11.2528 16.0708 11.0292 16.2887C10.8056 16.5065 10.5188 16.6481 10.2098 16.693C9.90091 16.7379 9.58568 16.6839 9.3093 16.5387C9.03292 16.3936 8.80957 16.1647 8.67121 15.8848C8.53286 15.605 8.48661 15.2885 8.53907 14.9808C8.59154 14.673 8.74004 14.3898 8.96331 14.1716C9.18658 13.9534 9.47317 13.8114 9.78204 13.766C10.0909 13.7206 10.4062 13.7742 10.6828 13.9189L9.83288 14.7688C9.79174 14.8098 9.75909 14.8585 9.73679 14.9122C9.71449 14.9658 9.70298 15.0233 9.70293 15.0814C9.70288 15.1394 9.71428 15.1969 9.73648 15.2506C9.75868 15.3043 9.79124 15.353 9.83231 15.3941C9.87337 15.4352 9.92213 15.4677 9.9758 15.4899C10.0295 15.5121 10.087 15.5235 10.1451 15.5235C10.2031 15.5234 10.2606 15.5119 10.3142 15.4896C10.3679 15.4673 10.4166 15.4347 10.4576 15.3935L11.3075 14.5436C11.4583 14.831 11.5101 15.1603 11.4547 15.4801Z" fill="#6B5E7A"/>
<path d="M1.25 19.34C1.25001 19.4739 1.3032 19.6023 1.39788 19.6969C1.49256 19.7916 1.62098 19.8448 1.75488 19.8448H2.84241C2.9763 19.8448 3.10471 19.7916 3.19939 19.6969C3.29407 19.6023 3.34726 19.4738 3.34726 19.3399V17.4678H1.25V19.34Z" fill="#EA4B62"/>
<path d="M16.6543 19.34C16.6543 19.4063 16.6674 19.4719 16.6927 19.5332C16.7181 19.5944 16.7553 19.6501 16.8022 19.6969C16.849 19.7438 16.9047 19.781 16.966 19.8064C17.0272 19.8317 17.0929 19.8448 17.1592 19.8448H18.2467C18.3806 19.8448 18.509 19.7916 18.6037 19.6969C18.6984 19.6023 18.7516 19.4738 18.7516 19.3399V17.4678H16.6543V19.34Z" fill="#EA4B62"/>
</g>
<defs>
<clipPath id="clip0_6479_3824">
<rect width="20" height="20" fill="white"/>
</clipPath>
</defs>
</svg>
