<svg width="21" height="20" viewBox="0 0 21 20" fill="none" xmlns="http://www.w3.org/2000/svg">
<path d="M20.0273 10.0188C20.0273 10.2229 19.9463 10.4186 19.8019 10.5629C19.6576 10.7072 19.4619 10.7883 19.2578 10.7883H18.0395L18.7786 11.5264C18.85 11.5978 18.9066 11.6825 18.9453 11.7758C18.9839 11.8691 19.0038 11.9691 19.0038 12.07C19.0038 12.171 18.9839 12.271 18.9453 12.3643C18.9066 12.4575 18.85 12.5423 18.7786 12.6137C18.7072 12.6851 18.6225 12.7417 18.5292 12.7804C18.4359 12.819 18.3359 12.8389 18.2349 12.8389C18.134 12.8389 18.034 12.819 17.9407 12.7804C17.8474 12.7417 17.7627 12.6851 17.6913 12.6137L15.8639 10.7863H11.3705L15.0253 14.4411H17.5898C17.7939 14.4411 17.9896 14.5222 18.1339 14.6665C18.2782 14.8108 18.3593 15.0065 18.3593 15.2106C18.3593 15.4147 18.2782 15.6105 18.1339 15.7548C17.9896 15.8991 17.7939 15.9802 17.5898 15.9802H16.5603L17.4223 16.8411C17.4945 16.9121 17.5521 16.9966 17.5918 17.0898C17.6511 17.2305 17.6666 17.3857 17.6364 17.5353C17.6061 17.6849 17.5315 17.8219 17.4223 17.9284C17.3517 18.001 17.2671 18.0584 17.1735 18.0969C17.0328 18.1552 16.8779 18.1703 16.7286 18.1403C16.5793 18.1103 16.4422 18.0365 16.3349 17.9284L15.474 17.0675V18.0929C15.474 18.297 15.393 18.4927 15.2486 18.637C15.1043 18.7813 14.9086 18.8624 14.7045 18.8624C14.5004 18.8624 14.3047 18.7813 14.1603 18.637C14.016 18.4927 13.9349 18.297 13.9349 18.0929V15.5061L10.7969 12.368V7.33146L13.9349 4.19338V1.62892C13.9349 1.42482 14.016 1.22909 14.1603 1.08477C14.3047 0.940451 14.5004 0.859375 14.7045 0.859375C14.9086 0.859375 15.1043 0.940451 15.2486 1.08477C15.393 1.22909 15.474 1.42482 15.474 1.62892V2.65531L16.3349 1.79338C16.4062 1.72023 16.4915 1.66222 16.5857 1.62283C16.7751 1.54241 16.9886 1.54022 17.1796 1.61673C17.2738 1.65549 17.3596 1.71201 17.4324 1.78323C17.5053 1.85429 17.5633 1.9392 17.603 2.03298C17.6633 2.17426 17.6803 2.33029 17.6517 2.48123C17.6231 2.63218 17.5503 2.77123 17.4426 2.8807L16.5816 3.74161H17.607C17.8111 3.74161 18.0069 3.82268 18.1512 3.967C18.2955 4.11132 18.3766 4.30706 18.3766 4.51115C18.3766 4.71525 18.2955 4.91098 18.1512 5.0553C18.0069 5.19962 17.8111 5.28069 17.607 5.28069H15.0223L11.0527 9.22892H15.8629L17.6903 7.40151C17.7991 7.30033 17.9349 7.23281 18.0813 7.20713C18.2276 7.18145 18.3783 7.19869 18.5151 7.25677C18.6518 7.31485 18.7689 7.41129 18.852 7.53443C18.9352 7.65758 18.9809 7.80217 18.9837 7.95074C18.9873 8.14947 18.9147 8.34205 18.7806 8.48882L18.0415 9.22689H19.2598V9.24821C19.3609 9.24794 19.461 9.26763 19.5544 9.30614C19.6478 9.34466 19.7327 9.40124 19.8042 9.47264C19.8757 9.54405 19.9324 9.62887 19.971 9.72224C20.0097 9.81561 20.0295 9.91569 20.0294 10.0167L20.0273 10.0188Z" fill="#F0D15C"/>
<path d="M6.84917 18.886L7.35678 18.0048V18.0353C7.40809 17.9483 7.44176 17.852 7.45585 17.752C7.46995 17.652 7.4642 17.5502 7.43893 17.4525C7.41366 17.3547 7.36937 17.2629 7.30859 17.1822C7.24781 17.1016 7.17173 17.0337 7.0847 16.9825C6.99708 16.9322 6.90054 16.8995 6.80043 16.886C6.6491 16.8653 6.49503 16.89 6.3577 16.9569C6.22037 17.0237 6.10594 17.1298 6.02886 17.2616L5.52125 18.1439C5.42719 18.3188 5.40458 18.5233 5.45815 18.7145C5.51173 18.9057 5.63732 19.0687 5.80856 19.1693C5.92438 19.2341 6.05453 19.269 6.18724 19.2708C6.32272 19.2695 6.45552 19.2328 6.5725 19.1644C6.68948 19.096 6.78659 18.9983 6.85424 18.8809L6.84917 18.886Z" fill="#F0D15C"/>
<path d="M1.82126 14.6457L2.62126 14.1025C2.70221 14.0363 2.79583 13.9872 2.89638 13.9584C2.99535 13.9304 3.09896 13.9228 3.20095 13.936C3.30459 13.9497 3.40439 13.9843 3.49435 14.0375C3.58388 14.0914 3.66186 14.1625 3.72379 14.2467C3.8298 14.4089 3.86972 14.6054 3.83537 14.7961C3.80101 14.9868 3.69497 15.1571 3.53902 15.2721L2.69841 15.8568C2.57151 15.953 2.41599 16.0038 2.25679 16.001C2.13345 16.0023 2.0117 15.973 1.90247 15.9157C1.79312 15.8585 1.69991 15.7747 1.63141 15.6721C1.5254 15.5099 1.48548 15.3133 1.51984 15.1226C1.5542 14.9319 1.66023 14.7616 1.81618 14.6467L1.82126 14.6457Z" fill="#F0D15C"/>
<path d="M6.49568 2.98716C6.39811 2.96104 6.30664 2.91595 6.22651 2.85446C6.14637 2.79296 6.07915 2.71627 6.02868 2.62878L5.52106 1.73639C5.41902 1.55963 5.39137 1.34957 5.4442 1.15241C5.49703 0.955263 5.62602 0.787175 5.80279 0.685127C5.97955 0.583079 6.18962 0.555429 6.38677 0.608263C6.58392 0.661097 6.75201 0.790086 6.85406 0.966852L7.36167 1.85924C7.43776 1.99108 7.47305 2.14252 7.46306 2.29441C7.45308 2.4463 7.39826 2.59182 7.30556 2.71256C7.21286 2.8333 7.08644 2.92384 6.94228 2.97272C6.79812 3.02159 6.6427 3.02662 6.49568 2.98716Z" fill="#F0D15C"/>
<path d="M3.06284 5.90367C2.90919 5.91373 2.75598 5.87842 2.62223 5.80214L1.82223 5.16559C1.66811 5.05161 1.56446 4.88207 1.53326 4.69293C1.50207 4.50379 1.54579 4.30994 1.65515 4.15251C1.76451 3.99507 1.93091 3.88643 2.11904 3.84964C2.30717 3.81285 2.50223 3.8508 2.66284 3.95544L3.50446 4.55037C3.65822 4.66698 3.76255 4.83711 3.79677 5.02703C3.83099 5.21695 3.79261 5.4128 3.68924 5.57575C3.62046 5.67838 3.52714 5.76222 3.41776 5.81966C3.30837 5.87711 3.18638 5.90633 3.06284 5.90468V5.90367Z" fill="#F0D15C"/>
<path d="M2.55891 9.70376C2.60043 9.79997 2.62218 9.90355 2.62287 10.0083H2.59241C2.58952 10.2114 2.50748 10.4054 2.36376 10.5489C2.22004 10.6925 2.02597 10.7742 1.82287 10.7769H0.797489C0.694147 10.7806 0.591108 10.7635 0.494527 10.7265C0.397946 10.6896 0.309803 10.6335 0.235365 10.5618C0.160927 10.49 0.101721 10.4039 0.0612815 10.3088C0.0208421 10.2136 0 10.1112 0 10.0078C0 9.90442 0.0208421 9.80206 0.0612815 9.70689C0.101721 9.61171 0.160927 9.52567 0.235365 9.45388C0.309803 9.3821 0.397946 9.32606 0.494527 9.2891C0.591108 9.25214 0.694147 9.23503 0.797489 9.23879H1.82287C1.92681 9.23578 2.03033 9.25338 2.12744 9.29057C2.32139 9.36692 2.47724 9.51693 2.56094 9.70782L2.55891 9.70376Z" fill="#F0D15C"/>
<path d="M10.7991 0.769542V19.2305C10.7991 19.4346 10.718 19.6303 10.5737 19.7746C10.4294 19.9189 10.2337 20 10.0296 20C9.82549 20 9.62975 19.9189 9.48544 19.7746C9.34112 19.6303 9.26004 19.4346 9.26004 19.2305V16.8822C7.56364 16.6977 5.99517 15.8931 4.85567 14.6229C3.71617 13.3527 3.08594 11.7064 3.08594 10C3.08594 8.29359 3.71617 6.6473 4.85567 5.3771C5.99517 4.10691 7.56364 3.30232 9.26004 3.11777V0.769542C9.26004 0.565446 9.34112 0.369711 9.48544 0.225393C9.62975 0.0810759 9.82549 0 10.0296 0C10.2337 0 10.4294 0.0810759 10.5737 0.225393C10.718 0.369711 10.7991 0.565446 10.7991 0.769542Z" fill="#EA4B62"/>
</svg>
