<svg width="20" height="20" viewBox="0 0 20 20" fill="none" xmlns="http://www.w3.org/2000/svg">
<g clip-path="url(#clip0_6478_2932)">
<path fill-rule="evenodd" clip-rule="evenodd" d="M18.3025 7.03191H9.96652C9.16902 8.77445 7.41031 9.9852 5.36863 9.9852C3.36695 9.9852 1.63719 8.82148 0.818633 7.13379C0.598086 7.26324 0.449219 7.50297 0.449219 7.77582V12.8436C0.449219 13.9943 1.3907 14.9357 2.54141 14.9357H16.9542C18.1049 14.9357 19.0463 13.9943 19.0463 12.8436V7.77578C19.0463 7.36664 18.7116 7.03191 18.3025 7.03191ZM16.9542 12.7704H7.05109C6.85695 12.7704 6.69953 12.9278 6.69953 13.122C6.69953 13.3162 6.85695 13.4736 7.05109 13.4736H16.9542V13.575C16.9542 13.9366 16.6582 14.2326 16.2966 14.2326H3.19898C2.8373 14.2326 2.54137 13.9366 2.54137 13.575V13.4736H4.35453C4.54867 13.4736 4.70609 13.3162 4.70609 13.122C4.70609 12.9278 4.54867 12.7704 4.35453 12.7704H2.54137V12.0114H16.9542L16.9542 12.7704ZM16.9542 8.72742H15.6989C15.5048 8.72742 15.3473 8.57004 15.3473 8.37586C15.3473 8.18168 15.5048 8.0243 15.6989 8.0243H16.9542C17.1484 8.0243 17.3058 8.18168 17.3058 8.37586C17.3058 8.57004 17.1484 8.72742 16.9542 8.72742ZM5.26992 13.122C5.26992 12.9278 5.42734 12.7704 5.62148 12.7704H5.65637C5.85051 12.7704 6.00793 12.9278 6.00793 13.122C6.00793 13.3162 5.85051 13.4736 5.65637 13.4736H5.62148C5.42734 13.4736 5.26992 13.3162 5.26992 13.122ZM19.4208 3.03414C19.3569 3.0873 19.278 3.11309 19.199 3.11309C19.0976 3.11309 18.9961 3.06855 18.9266 2.98344C18.2313 2.1275 17.3068 1.65645 16.3259 1.65645C15.345 1.65645 14.4224 2.12754 13.7271 2.98344C13.605 3.13395 13.3832 3.15652 13.2329 3.03418C13.0807 2.91168 13.0581 2.69012 13.1821 2.5398C14.0127 1.51664 15.1308 0.953477 16.3259 0.953477C17.521 0.953477 18.6409 1.51664 19.4715 2.5398C19.5955 2.69016 19.5711 2.91164 19.4208 3.03414ZM16.3259 3.30926C15.7077 3.30926 15.1214 3.60879 14.6779 4.15336C14.5558 4.30367 14.3341 4.3268 14.1838 4.2041C14.0334 4.08156 14.0109 3.86004 14.133 3.70973C14.7118 2.99793 15.4916 2.60613 16.3259 2.60613C17.1602 2.60613 17.9419 2.99793 18.5207 3.70973C18.6428 3.86004 18.6203 4.0816 18.4699 4.2041C18.4041 4.25727 18.3252 4.28301 18.2482 4.28301C18.1448 4.28301 18.0434 4.23887 17.9739 4.15336C17.5323 3.60879 16.946 3.30926 16.3259 3.30926ZM16.3265 4.37109C16.7922 4.37109 17.1696 4.74855 17.1696 5.21418C17.1696 5.6798 16.7922 6.05727 16.3265 6.05727C15.8609 6.05727 15.4834 5.6798 15.4834 5.21418C15.4834 4.74855 15.8609 4.37109 16.3265 4.37109ZM5.79356 16.389C5.49289 17.5011 4.83145 18.4932 3.82801 19.3379C3.76035 19.3933 3.68145 19.4202 3.60063 19.4202C3.50102 19.4202 3.40145 19.3777 3.33191 19.2948C3.20602 19.1464 3.22668 18.9245 3.37512 18.7995C4.26582 18.0492 4.85207 17.1765 5.11516 16.205C5.1659 16.0178 5.35945 15.907 5.54734 15.9577C5.73336 16.0084 5.84426 16.2014 5.79356 16.389ZM8.05223 16.3296C7.96578 17.2577 7.6332 18.151 7.06383 18.9848C6.9943 19.0844 6.88531 19.1381 6.77254 19.1381C6.70488 19.1381 6.63539 19.1184 6.57523 19.0769C6.41363 18.9671 6.3723 18.7484 6.48316 18.5883C6.98301 17.8543 7.27613 17.0726 7.35129 16.2645C7.37008 16.0711 7.54109 15.9288 7.73461 15.9473C7.92816 15.9653 8.06914 16.1363 8.05223 16.3296ZM13.013 18.5883C13.122 18.7484 13.0807 18.9671 12.921 19.0768C12.8609 19.1184 12.7913 19.1381 12.7237 19.1381C12.6109 19.1381 12.5 19.0843 12.4324 18.9848C11.863 18.151 11.5305 17.2577 11.444 16.3296C11.4252 16.1362 11.568 15.9652 11.7616 15.9472C11.9552 15.9288 12.1261 16.071 12.143 16.2644C12.2201 17.0726 12.5113 17.8543 13.013 18.5883ZM16.1643 19.2948C16.0948 19.3777 15.9952 19.4202 15.8956 19.4202C15.8148 19.4202 15.734 19.3933 15.6682 19.3379C14.6648 18.4932 14.0033 17.501 13.7027 16.389C13.65 16.2014 13.7609 16.0085 13.9488 15.9577C14.1368 15.907 14.3303 16.0179 14.381 16.205C14.6441 17.1765 15.2285 18.0492 16.1211 18.7995C16.2695 18.9245 16.2883 19.1464 16.1643 19.2948ZM10.0986 16.2971V18.5406C10.0986 18.7347 9.94258 18.8921 9.74715 18.8921C9.55359 18.8921 9.39578 18.7347 9.39578 18.5406V16.2971C9.39578 16.1032 9.55363 15.9457 9.74715 15.9457C9.94258 15.9457 10.0986 16.1032 10.0986 16.2971ZM5.36856 9.28207C7.765 9.28207 9.71953 7.32754 9.71953 4.93109C9.71953 2.53465 7.76504 0.580078 5.36859 0.580078C2.97215 0.580078 1.01762 2.53461 1.01762 4.93106C1.01762 7.3275 2.97215 9.28207 5.36856 9.28207ZM3.84094 4.46395L2.81871 4.73773C2.63078 4.78773 2.43914 4.67684 2.3884 4.48895C2.33766 4.30141 2.44852 4.10879 2.63645 4.05844L2.97844 3.96672L2.59133 3.74348C2.4241 3.64633 2.36582 3.43156 2.46355 3.26297C2.56125 3.09516 2.77551 3.0373 2.94461 3.13461L3.3298 3.35805L3.23773 3.01531C3.18887 2.82797 3.29973 2.63535 3.48766 2.585C3.67559 2.53504 3.86723 2.6459 3.91797 2.83379L4.1923 3.85488L5.00031 4.32203V3.35016L4.25242 2.60246C4.11523 2.46547 4.11523 2.24281 4.25242 2.10527C4.38957 1.96809 4.6132 1.96809 4.75039 2.10527L5.00031 2.35613V1.94707C5.00031 1.75258 5.15816 1.59547 5.35168 1.59547C5.54711 1.59547 5.70309 1.75258 5.70309 1.94707V2.35613L5.95488 2.10527C6.09207 1.96809 6.31379 1.96809 6.45098 2.10527C6.58813 2.24281 6.58813 2.46551 6.45098 2.60246L5.70309 3.35016V4.32203L6.54492 3.83609L6.81926 2.81461C6.86812 2.62707 7.06168 2.51621 7.24957 2.56621C7.4375 2.61656 7.54836 2.80918 7.49762 2.99672L7.40742 3.33891L7.7607 3.13465C7.92793 3.0373 8.14402 3.0952 8.24176 3.26301C8.33762 3.43156 8.28121 3.64633 8.11211 3.74352L7.75887 3.94797L8.10086 4.03969C8.28691 4.09004 8.39965 4.28266 8.34891 4.4702C8.29816 4.65773 8.10649 4.76918 7.91859 4.71898L6.89637 4.4452L6.05453 4.93113L6.89637 5.41707L7.91859 5.14328C8.10652 5.09328 8.29816 5.20418 8.34891 5.39207C8.39965 5.57961 8.28691 5.77223 8.10086 5.82258L7.75887 5.91426L8.11211 6.11871C8.28125 6.21586 8.33762 6.43066 8.24176 6.59918C8.14406 6.76699 7.92793 6.82449 7.7607 6.72774L7.40742 6.52289L7.49762 6.86547C7.54836 7.05301 7.4375 7.24563 7.24957 7.29598C7.06168 7.34598 6.86812 7.23512 6.81926 7.04719L6.54492 6.02609L5.70309 5.54016V6.47406L6.45098 7.22176C6.58813 7.3593 6.58813 7.58199 6.45098 7.71895C6.31383 7.85648 6.09207 7.85648 5.95488 7.71895L5.70309 7.46867V7.91516C5.70309 8.10926 5.54711 8.26672 5.35168 8.26672C5.15813 8.26672 5.00031 8.10926 5.00031 7.91516V7.46867L4.75039 7.71895C4.61324 7.85648 4.38961 7.85648 4.25242 7.71895C4.11523 7.58195 4.11523 7.3593 4.25242 7.22176L5.00031 6.47406V5.54016L4.1923 6.0073L3.91797 7.0284C3.86723 7.21594 3.67559 7.32719 3.48766 7.27719C3.29977 7.22684 3.18887 7.03387 3.23773 6.84629L3.3298 6.5041L2.94461 6.72774C2.77551 6.82488 2.56125 6.76699 2.46355 6.59918C2.36586 6.43063 2.4241 6.21586 2.59133 6.11871L2.97844 5.89547L2.63645 5.80379C2.44855 5.75344 2.3377 5.56082 2.3884 5.37328C2.43914 5.18555 2.63078 5.07449 2.81871 5.12449L3.84094 5.39828L4.64895 4.93113L3.84094 4.46395Z" fill="#6B5E7A"/>
<path d="M19.199 3.11309C19.278 3.11309 19.3569 3.0873 19.4208 3.03414C19.5711 2.91164 19.5955 2.69016 19.4715 2.5398C18.6409 1.51664 17.521 0.953477 16.3259 0.953477C15.1308 0.953477 14.0127 1.51664 13.1821 2.5398C13.0581 2.69012 13.0807 2.91168 13.2329 3.03418C13.3832 3.15652 13.605 3.13395 13.7271 2.98344C14.4224 2.12754 15.345 1.65645 16.3259 1.65645C17.3068 1.65645 18.2313 2.1275 18.9266 2.98344C18.9961 3.06855 19.0976 3.11309 19.199 3.11309Z" fill="#4D7EA5"/>
<path d="M14.6779 4.15336C15.1214 3.60879 15.7077 3.30926 16.3259 3.30926C16.946 3.30926 17.5323 3.60879 17.9739 4.15336C18.0434 4.23887 18.1448 4.28301 18.2482 4.28301C18.3252 4.28301 18.4041 4.25727 18.4699 4.2041C18.6203 4.0816 18.6428 3.86004 18.5207 3.70973C17.9419 2.99793 17.1602 2.60613 16.3259 2.60613C15.4916 2.60613 14.7118 2.99793 14.133 3.70973C14.0109 3.86004 14.0334 4.08156 14.1838 4.2041C14.3341 4.3268 14.5558 4.30367 14.6779 4.15336Z" fill="#4D7EA5"/>
<path d="M17.1696 5.21418C17.1696 4.74855 16.7922 4.37109 16.3265 4.37109C15.8609 4.37109 15.4834 4.74855 15.4834 5.21418C15.4834 5.6798 15.8609 6.05727 16.3265 6.05727C16.7922 6.05727 17.1696 5.6798 17.1696 5.21418Z" fill="#4D7EA5"/>
</g>
<defs>
<clipPath id="clip0_6478_2932">
<rect width="20" height="20" fill="white"/>
</clipPath>
</defs>
</svg>
