<svg width="27" height="27" viewBox="0 0 27 27" fill="none" xmlns="http://www.w3.org/2000/svg">
<path d="M4.75317 15.8185C5.44806 15.5559 5.80652 15.706 8.59918 15.6629C9.22948 15.6629 9.80408 15.9054 10.235 16.3018C10.666 15.9054 11.2405 15.6629 11.8708 15.6629H14.8641C15.4944 15.6629 16.069 15.9054 16.5 16.3017C16.9309 15.9054 17.5055 15.6629 18.1358 15.6629C20.9332 15.7061 21.2889 15.5566 21.9818 15.8185V10.7031H4.75317V15.8185Z" fill="#315D80"/>
<path d="M23.546 14.0977V18.9008H21.9798V18.0828C21.9798 17.6127 21.5973 17.2301 21.1271 17.2301H18.1338C17.6636 17.2301 17.2811 17.6127 17.2811 18.0828V18.9008H15.7148V18.0828C15.7148 17.6127 15.3323 17.2301 14.8621 17.2301H11.8688C11.3986 17.2301 11.0161 17.6127 11.0161 18.0828V18.9008H9.44988V18.0828C9.44988 17.6127 9.06736 17.2301 8.59717 17.2301H5.60388C5.1337 17.2301 4.75117 17.6127 4.75117 18.0828V18.9008H3.18493V14.0977H0.000244141V23.5995H1.61869V26.732H3.96805L4.75117 23.5995H21.9766L22.7597 26.732H25.109V23.5995H26.7307C26.7307 21.2352 26.7307 16.0173 26.7307 14.0977H23.546Z" fill="#315D80"/>
<path d="M23.5464 6.65651C23.5464 4.98257 22.3728 3.57849 20.8054 3.22128V0H19.2392V3.22128C17.6718 3.57849 16.4983 4.98257 16.4983 6.65651V7.83119H23.5464V6.65651Z" fill="#315D80"/>
<path d="M8.95142 0H13.1542V3.13347H8.95142V0Z" fill="#315D80"/>
<path d="M3.18335 0H7.38609V3.13347H3.18335V0Z" fill="#315D80"/>
<path d="M3.18335 4.69922H7.38609V7.8307H3.18335V4.69922Z" fill="#315D80"/>
<path d="M8.95142 4.69922H13.1542V7.8307H8.95142V4.69922Z" fill="#315D80"/>
</svg>
