<svg width="14" height="17" viewBox="0 0 14 17" fill="none" xmlns="http://www.w3.org/2000/svg">
<path fill-rule="evenodd" clip-rule="evenodd" d="M13.8248 4.128L9.99809 0.168L9.58976 0H0.583089L-0.000244141 0.6V7.2H1.16642V1.2H8.16642V5.4L8.74976 6H12.8331V7.2H13.9998V4.56L13.8248 4.128ZM9.33309 4.8V1.2L12.8331 4.8H9.33309ZM0.583089 8.4L-0.000244141 9V16.2L0.583089 16.8H13.4164L13.9998 16.2V9L13.4164 8.4H0.583089ZM12.8331 14.4V15.6H1.16642V9.6H12.8331V14.4ZM3.49976 13.2H3.12642V14.4H2.33309V10.8H3.56976C4.44476 10.8 4.88809 11.232 4.88809 12C4.89035 12.1632 4.85814 12.325 4.79368 12.4742C4.72922 12.6233 4.63406 12.7563 4.51476 12.864C4.22563 13.0958 3.86605 13.2148 3.49976 13.2ZM3.42976 11.46H3.12642V12.576H3.42976C3.84976 12.576 4.05976 12.384 4.05976 12.012C4.05976 11.64 3.84976 11.46 3.42976 11.46ZM8.16642 13.896C8.33872 13.7214 8.47345 13.5116 8.56188 13.2801C8.65031 13.0486 8.69047 12.8005 8.67976 12.552C8.67976 11.352 8.06142 10.8 6.81309 10.8H5.57642V14.4H6.81309C7.05987 14.4123 7.30657 14.3741 7.53888 14.2876C7.77119 14.201 7.9845 14.0679 8.16642 13.896ZM6.35809 13.74V11.46H6.74309C6.89189 11.4503 7.04106 11.4719 7.18148 11.5234C7.32189 11.575 7.45061 11.6555 7.55975 11.76C7.65864 11.8668 7.73546 11.9931 7.78559 12.1313C7.83572 12.2695 7.85811 12.4167 7.85142 12.564C7.8689 12.8803 7.76405 13.1909 7.55975 13.428C7.45295 13.5331 7.32658 13.615 7.18824 13.6686C7.0499 13.7222 6.90245 13.7465 6.75476 13.74H6.35809ZM11.5498 13.008H10.4181V14.4H9.62476V10.8H11.6548V11.46H10.4181V12.348H11.5498V13.008Z" fill="#315D80"/>
</svg>
