<svg width="18" height="19" viewBox="0 0 18 19" fill="none" xmlns="http://www.w3.org/2000/svg">
<path d="M17.9773 7.88049C17.9366 7.72584 17.8362 7.59368 17.6981 7.51306L9.29996 2.71498C9.20794 2.66476 9.10479 2.63844 8.99996 2.63844C8.89514 2.63844 8.79198 2.66476 8.69996 2.71498L0.302413 7.5149C0.164677 7.5952 0.064117 7.72655 0.0225184 7.88049C-0.0190803 8.03443 0.00163151 8.19857 0.0801676 8.33734C0.130809 8.42068 0.200975 8.49044 0.284604 8.54059C0.368233 8.59073 0.462811 8.61976 0.560167 8.62516V17.6371C0.560652 17.7961 0.624022 17.9485 0.736439 18.0609C0.848856 18.1734 1.00119 18.2368 1.16017 18.2372H4.43874C4.28285 18.0078 4.19926 17.7369 4.19874 17.4595V15.1649C4.19814 14.9227 4.2615 14.6846 4.38241 14.4747C4.502 14.2656 4.67506 14.0921 4.88384 13.9719L6.742 12.8892C6.8121 12.8481 6.89172 12.8259 6.97301 12.8249C7.05429 12.824 7.13442 12.8442 7.20547 12.8837C7.54124 13.0667 7.90081 13.2021 8.27384 13.2861C8.35839 13.306 8.43585 13.3487 8.49781 13.4096C8.55977 13.4705 8.60386 13.5473 8.62527 13.6315L9.00609 15.1085L9.39731 13.6241C9.419 13.5413 9.46265 13.4659 9.52365 13.4059C9.58465 13.3458 9.66072 13.3034 9.74384 13.283C10.1107 13.198 10.4643 13.0637 10.7951 12.8837C10.8663 12.8445 10.9464 12.8244 11.0277 12.8255C11.1087 12.8255 11.1883 12.8466 11.2585 12.8868L13.1167 13.9695C13.3255 14.0896 13.4985 14.2631 13.6181 14.4723C13.739 14.6821 13.8024 14.9202 13.8018 15.1624V17.4577C13.8013 17.7351 13.7177 18.006 13.5618 18.2354H16.8453C17.0042 18.2349 17.1565 18.1715 17.2688 18.0591C17.3811 17.9466 17.4443 17.7942 17.4447 17.6353V8.63129C17.5428 8.62598 17.638 8.59633 17.7218 8.54501C17.8056 8.4937 17.8753 8.42233 17.9247 8.33734C18.0014 8.19786 18.0204 8.03379 17.9773 7.88049ZM11.1153 11.4354C10.8363 11.8572 10.4385 12.1867 9.97221 12.3822C9.50672 12.5763 8.99389 12.6269 8.49944 12.5276C8.00498 12.4284 7.55143 12.1837 7.1969 11.8249C6.93026 11.5552 6.72625 11.2301 6.59935 10.8727C6.47246 10.5153 6.42579 10.1343 6.46267 9.75686C6.49954 9.37937 6.61905 9.01464 6.81272 8.68855C7.00638 8.36247 7.26944 8.08303 7.58323 7.87008C8.07217 7.53979 8.66125 7.39106 9.24833 7.44967C9.83542 7.50828 10.3835 7.77054 10.7975 8.19098C11.2152 8.61312 11.4748 9.16626 11.5327 9.75736C11.5906 10.3485 11.4432 10.9415 11.1153 11.4366V11.4354ZM17.9791 5.47992C17.9583 5.40386 17.923 5.33253 17.8751 5.26987C17.8268 5.20714 17.7667 5.1545 17.6981 5.11494L16.7681 4.58706C16.7845 4.53853 16.7946 4.48811 16.7981 4.43702V1.43631C16.8785 1.43888 16.9586 1.42526 17.0336 1.39627C17.1086 1.36728 17.177 1.32351 17.2347 1.26756C17.2925 1.21161 17.3384 1.14461 17.3698 1.07056C17.4011 0.9965 17.4173 0.916895 17.4173 0.83647C17.4173 0.756045 17.4011 0.67644 17.3698 0.602385C17.3384 0.52833 17.2925 0.461336 17.2347 0.405382C17.177 0.349428 17.1086 0.305656 17.0336 0.276667C16.9586 0.247679 16.8785 0.234066 16.7981 0.236634H13.1987C13.043 0.241612 12.8953 0.306989 12.7869 0.418937C12.6785 0.530885 12.6179 0.680621 12.6179 0.83647C12.6179 0.992319 12.6785 1.14206 12.7869 1.254C12.8953 1.36595 13.043 1.43133 13.1987 1.43631V2.54963L9.29996 0.31502C9.20794 0.264797 9.10479 0.238479 8.99996 0.238479C8.89514 0.238479 8.79198 0.264797 8.69996 0.31502L0.302413 5.11494C0.163986 5.19444 0.0628035 5.32569 0.0211245 5.47981C-0.0205545 5.63394 0.000683862 5.79831 0.0801676 5.93677C0.159651 6.07523 0.29087 6.17643 0.444956 6.21812C0.599042 6.25981 0.763373 6.23857 0.9018 6.15906L8.99996 1.52694L17.0981 6.15906C17.1668 6.19843 17.2425 6.22402 17.321 6.23439C17.3992 6.2442 17.4787 6.23879 17.5549 6.21847C17.6313 6.19775 17.7028 6.16217 17.7655 6.11375C17.8916 6.01614 17.9742 5.87263 17.9951 5.71447C18.0051 5.636 17.9997 5.55632 17.9791 5.47992Z" fill="#315D80"/>
</svg>
