<svg width="20" height="20" viewBox="0 0 20 20" fill="none" xmlns="http://www.w3.org/2000/svg">
<path d="M3.05172 6.50269H9.84547C10.0444 6.50083 10.2383 6.44041 10.4031 6.32898C10.5679 6.21755 10.6961 6.06006 10.7719 5.87615C10.8477 5.69225 10.8677 5.4901 10.8293 5.29493C10.7909 5.09976 10.6958 4.92024 10.556 4.77877L7.35102 1.61577C7.11324 1.38189 6.79323 1.25056 6.4597 1.25C6.12616 1.24944 5.80571 1.37968 5.56714 1.61277L2.34417 4.77579C2.20416 4.91718 2.10887 5.09665 2.07015 5.29183C2.03144 5.48701 2.05102 5.68927 2.12646 5.87339C2.2019 6.05752 2.32986 6.21537 2.4944 6.32727C2.65893 6.43918 2.85276 6.50018 3.05172 6.50269Z" fill="#F2727F"/>
<path d="M10.0709 12.3881C10.0251 12.382 9.97906 12.379 9.93294 12.3791H2.96832C2.51446 12.3695 2.02787 12.6679 2.04191 13.0447C2.00044 13.4675 2.41663 13.7866 2.96833 13.7912H3.54205V18.2308C3.54334 18.2554 3.5543 18.2785 3.57256 18.2951C3.59081 18.3117 3.61488 18.3204 3.63953 18.3194H4.41528C4.43993 18.3204 4.464 18.3117 4.48225 18.2951C4.50051 18.2785 4.51147 18.2554 4.51276 18.2308V17.3576C4.52779 17.362 4.54316 17.3651 4.5587 17.3669H8.33956C8.35511 17.3651 8.37047 17.362 8.3855 17.3576V18.2308C8.38679 18.2554 8.39775 18.2785 8.41601 18.2951C8.43426 18.3117 8.45833 18.3204 8.48298 18.3194H9.25873C9.28337 18.3204 9.30745 18.3117 9.3257 18.2951C9.34396 18.2785 9.35492 18.2554 9.35621 18.2308V13.7912H9.93294C11.0664 13.7989 11.2082 12.5163 10.0709 12.3881ZM8.3855 16.7765C8.37047 16.7722 8.3551 16.7691 8.33956 16.7673H4.55869C4.54315 16.7691 4.52778 16.7722 4.51275 16.7765V15.6709C4.52778 15.6752 4.54315 15.6783 4.55869 15.6801H8.33956C8.35511 15.6783 8.37047 15.6752 8.3855 15.6709L8.3855 16.7765ZM8.3855 15.0898C8.37047 15.0854 8.3551 15.0823 8.33956 15.0805H4.55869C4.54315 15.0823 4.52778 15.0854 4.51275 15.0898V13.7912H8.3855V15.0898Z" fill="#6B5E7A"/>
<path d="M17.6819 17.4816C17.2809 17.4829 16.1326 17.4752 15.7133 17.4696C15.4982 17.4692 15.2883 17.4037 15.1112 17.2816C14.934 17.1596 14.798 16.9868 14.7209 16.786L12.4843 10.8737C12.3723 10.5776 12.1728 10.3226 11.9123 10.1427C11.6519 9.96275 11.3428 9.86637 11.0262 9.86637H10.1248C10.1246 9.45372 10.125 7.52584 10.1248 7.07812C9.98228 7.12043 2.91592 7.11959 2.77344 7.07818V11.7912C2.89477 11.7726 3.24366 11.7805 3.37309 11.7792C5.39937 11.7907 8.10377 11.7571 10.1248 11.7911V11.1705H10.6705C10.8132 11.171 10.9525 11.2148 11.0697 11.2962C11.187 11.3776 11.2767 11.4927 11.3271 11.6263L13.5846 17.5655C13.7178 17.9128 13.9528 18.2117 14.2589 18.423C14.5649 18.6343 14.9277 18.7482 15.2996 18.7498H17.3443C17.5073 18.7498 17.6636 18.685 17.7789 18.5698C17.8941 18.4545 17.9589 18.2982 17.9589 18.1352C17.9487 17.8923 18.0393 17.4964 17.6819 17.4816ZM6.44913 11.2605C6.0002 11.2594 5.56996 11.0806 5.25252 10.7632C4.93507 10.4457 4.75627 10.0155 4.75521 9.56656C4.83487 7.32466 8.06374 7.32524 8.14307 9.56658C8.142 10.0155 7.96319 10.4457 7.64574 10.7632C7.3283 11.0806 6.89806 11.2594 6.44913 11.2605Z" fill="#F2727F"/>
</svg>
