<svg width="20" height="20" viewBox="0 0 20 20" fill="none" xmlns="http://www.w3.org/2000/svg">
<path d="M6.44744 6.08369C6.44744 6.29522 6.27436 6.4683 6.06283 6.4683H4.17438L2.93975 7.67215H4.38591C4.59744 7.67215 4.77052 7.84523 4.77052 8.05677C4.77052 8.27215 4.59744 8.44138 4.38591 8.44138H2.14744L1.47052 9.10291C1.23591 9.32984 1.39744 9.72599 1.72438 9.72599H6.30514L8.68976 2.06445L4.96283 5.69907H6.06283C6.27436 5.69907 6.44744 5.87215 6.44744 6.08369Z" fill="#9BB997"/>
<path d="M12.7902 9.72547C11.8234 6.62556 11.1424 4.44202 10.1248 1.17933C10.0095 1.14856 9.88637 1.14856 9.77096 1.17933C8.99367 3.67882 7.92559 7.11339 7.11328 9.72547H12.7902Z" fill="#9BB997"/>
<path d="M18.1743 9.72599C18.5012 9.72599 18.6628 9.32984 18.4282 9.10291L17.7512 8.44138H15.5128C15.3012 8.44138 15.1282 8.27215 15.1282 8.05677C15.1282 7.84523 15.3012 7.67215 15.5128 7.67215H16.9589L15.7243 6.4683H13.8359C13.6205 6.4683 13.4512 6.29522 13.4512 6.08369C13.4512 5.87215 13.6205 5.69907 13.8359 5.69907H14.9359L11.2051 2.06445L13.5935 9.72599H18.1743Z" fill="#9BB997"/>
<path d="M18.7945 18.4607H16.0593V15.5111H16.8193C17.0317 15.5111 17.2039 15.3388 17.2039 15.1264C17.2039 14.914 17.0317 14.7418 16.8193 14.7418H16.0593V12.0874H17.09C17.3015 12.0874 17.4746 11.9143 17.4746 11.7028V10.4951H2.42459V11.7028C2.42459 11.9143 2.59765 12.0874 2.8092 12.0874H3.83915V14.7418C3.83913 14.7418 3.83917 14.7418 3.83915 14.7418L3.07921 14.7418C2.86681 14.7418 2.6946 14.914 2.6946 15.1264C2.6946 15.3388 2.86681 15.5111 3.07921 15.5111H3.83905C3.83903 15.5111 3.83908 15.5111 3.83905 15.5111L3.83915 18.4607H1.10337C0.890963 18.4607 0.71875 18.6329 0.71875 18.8453C0.71875 19.0577 0.890963 19.2299 1.10337 19.2299H18.7945C19.0069 19.2299 19.1792 19.0577 19.1792 18.8453C19.1792 18.6329 19.0069 18.4607 18.7945 18.4607ZM14.0226 12.0874V14.7418C14.0226 14.7418 14.0226 14.7418 14.0226 14.7418L5.87582 14.7418V12.0874H14.0226ZM5.87582 15.5111H14.0225C14.0225 15.5111 14.0226 15.5111 14.0225 15.5111L14.0226 18.4607H5.87582V15.5111Z" fill="#6B5E7A"/>
<path d="M1.3468 3.21675C1.34981 3.21562 1.69442 3.14031 1.92072 3.32041C2.15936 3.51076 2.17176 3.90673 2.17688 4.17453C2.18101 4.38449 2.35229 4.55182 2.56131 4.55182H2.56882C2.78122 4.54769 2.95005 4.37228 2.94611 4.15988C2.94066 3.87574 2.97991 3.50014 3.19795 3.32304C3.42162 3.14144 3.76473 3.21468 3.77788 3.2175C3.98221 3.26745 4.18991 3.14163 4.24118 2.93655C4.29264 2.73053 4.16719 2.5217 3.96098 2.47043C3.88868 2.4524 3.23964 2.3061 2.72188 2.71889C2.66096 2.76741 2.61328 2.8291 2.5625 2.88772C2.51187 2.828 2.46163 2.76788 2.40017 2.71889C1.88241 2.3061 1.23299 2.4524 1.16088 2.47043C0.954674 2.5217 0.829224 2.73053 0.880681 2.93655C0.931951 3.14276 1.14078 3.26858 1.3468 3.21675Z" fill="#9BB997"/>
<path d="M19.0272 0.880491C18.9906 0.867345 18.1126 0.558038 17.4384 1.0405C17.3259 1.12113 17.2277 1.21771 17.1432 1.32919C17.0584 1.21795 16.9604 1.12109 16.8478 1.0405C16.1737 0.557475 15.2956 0.867157 15.259 0.880491C15.0599 0.952419 14.9574 1.17121 15.0283 1.37065C15.0991 1.56972 15.3183 1.67357 15.5185 1.60465C15.6686 1.55225 16.1187 1.46211 16.4025 1.66775C16.7101 1.89048 16.7655 2.41107 16.7578 2.80845C16.7539 3.02085 16.9227 3.19626 17.1351 3.20039H17.1426C17.3516 3.20039 17.5229 3.03306 17.527 2.8231C17.5279 2.77953 17.5253 2.73946 17.5248 2.6972H17.5289C17.5337 2.31848 17.604 1.87036 17.8837 1.66775C18.1678 1.46192 18.6176 1.55225 18.7673 1.60446C18.9665 1.67545 19.1861 1.57235 19.2582 1.3729C19.3305 1.17327 19.227 0.952794 19.0272 0.880491Z" fill="#9BB997"/>
</svg>
