<svg width="20" height="20" viewBox="0 0 20 20" fill="none" xmlns="http://www.w3.org/2000/svg">
<path d="M16.9955 8.63309C16.5487 7.90399 16.0939 7.16152 15.6277 6.39996C15.083 5.51027 14.1723 5 13.1291 5H6.88754C5.84453 5 4.93391 5.51016 4.38914 6.39965C4.15078 6.78883 3.61914 7.65645 3.02344 8.62859C3.03289 8.62852 3.0423 8.62824 3.0518 8.62824H16.793C16.8609 8.62824 16.9284 8.62996 16.9955 8.63309Z" fill="#6B5E7A"/>
<path d="M17.7812 13.9275H19.8118V13.266C19.8118 13.1137 19.7622 12.9994 19.6511 12.8953C19.5399 12.7912 19.4225 12.7492 19.2706 12.7593C18.5673 12.8056 17.9859 13.2859 17.7812 13.9275Z" fill="#6B5E7A"/>
<path d="M6.70336 13.5998C6.80297 13.8169 6.99711 13.9414 7.23594 13.9414H12.6074C12.8464 13.9414 13.0405 13.8168 13.1401 13.5996C13.2729 13.3098 13.4059 13.0201 13.5391 12.7305H6.30469L6.70336 13.5998Z" fill="#6B5E7A"/>
<path d="M0.549024 12.7593C0.397422 12.7492 0.279688 12.7912 0.168555 12.8953C0.0573438 12.9994 0.0078125 13.1137 0.0078125 13.266V13.9275H2.03836C1.83379 13.2859 1.2523 12.8056 0.549024 12.7593Z" fill="#6B5E7A"/>
<path d="M16.5322 14.5113V14.4331C16.5322 12.936 17.7019 11.6862 19.1952 11.5878C19.3341 11.5786 19.4695 11.5858 19.6004 11.6082C19.1348 10.5467 18.0516 9.80078 16.7924 9.80078H3.05125C1.79363 9.80078 0.711524 10.545 0.245078 11.6045C0.36875 11.5852 0.49625 11.5791 0.626992 11.5878C2.12027 11.6862 3.28996 12.936 3.28996 14.4331V14.5113C3.28996 14.8348 3.02762 15.0972 2.70402 15.0972H0V15.1133C0 16.0825 0.806719 16.8711 1.79836 16.8711H18.0454C19.037 16.8711 19.8438 16.0825 19.8438 15.1133V15.0972H17.1181C16.7945 15.0972 16.5322 14.8348 16.5322 14.5113ZM14.9853 12.3898C14.7246 12.9554 14.4642 13.5214 14.2047 14.0877C13.9149 14.7203 13.3025 15.1132 12.6067 15.1132H7.23524C6.53973 15.1132 5.9275 14.7205 5.63754 14.0883L4.85805 12.3888C4.77484 12.2073 4.78973 11.9961 4.8975 11.8281C5.00527 11.6602 5.19113 11.5586 5.39067 11.5586H14.4532C14.6529 11.5586 14.8389 11.6604 14.9466 11.8286C15.0543 11.9968 15.0689 12.2083 14.9853 12.3898Z" fill="#6B5E7A"/>
<path d="M14.4219 18.0435V18.4731C14.4219 19.3157 15.1074 20.0012 15.9499 20.0012H17.6985C18.5411 20.0012 19.2266 19.3157 19.2266 18.4731V17.8008C18.8641 17.9566 18.4644 18.0435 18.0444 18.0435H14.4219Z" fill="#6B5E7A"/>
<path d="M0.789062 17.8672V18.4709C0.789062 19.3135 1.47453 19.999 2.31707 19.999H4.0657C4.90824 19.999 5.59375 19.3135 5.59375 18.4709V18.0413H1.79746C1.44359 18.0413 1.10406 17.9797 0.789062 17.8672Z" fill="#6B5E7A"/>
<path d="M19.4219 3.16406H18.4482V1.99219H19.4219C19.7455 1.99219 20.0078 1.72984 20.0078 1.40625C20.0078 1.08266 19.7455 0.820313 19.4219 0.820313H18.4482V0.585938C18.4482 0.262344 18.1858 0 17.8623 0H17.0362C15.8163 0 14.7923 0.851992 14.5261 1.99203L2.8987 1.98773C2.89831 1.98773 2.89796 1.98773 2.8976 1.98773C1.31467 1.98773 0.0184241 3.27563 0.00787726 4.85914C0.00276008 5.6332 0.301041 6.36273 0.84776 6.91328C1.23221 7.30043 1.70639 7.56496 2.22346 7.68871C2.46092 7.30121 2.69546 6.91848 2.89249 6.59688C2.43374 6.59426 2.00315 6.41371 1.67932 6.08758C1.35413 5.76008 1.17671 5.32656 1.17975 4.86688C1.186 3.92531 1.95651 3.15957 2.8976 3.15957H2.89827L14.5261 3.16383C14.7921 4.30402 15.8162 5.15617 17.0363 5.15617H17.8623C18.1859 5.15617 18.4482 4.89383 18.4482 4.57023V4.33586H19.4219C19.7455 4.33586 20.0079 4.07352 20.0079 3.74992C20.0079 3.42633 19.7455 3.16406 19.4219 3.16406Z" fill="#EA4B62"/>
</svg>
