<svg width="20" height="20" viewBox="0 0 20 20" fill="none" xmlns="http://www.w3.org/2000/svg">
<g clip-path="url(#clip0_6478_3486)">
<path d="M6.68945 18.4023V19.4136C6.68945 19.7372 6.9518 19.9995 7.27539 19.9995H9.61484C9.93844 19.9995 10.2008 19.7372 10.2008 19.4136V18.3623C10.0589 18.3881 9.91309 18.4023 9.76387 18.4023H6.68945Z" fill="#6B5E7A"/>
<path d="M0.830078 18.3623V19.4136C0.830078 19.7372 1.09242 19.9995 1.41602 19.9995H3.75547C4.07906 19.9995 4.34141 19.7372 4.34141 19.4136V18.4023H1.26695C1.11777 18.4023 0.971914 18.3881 0.830078 18.3623Z" fill="#6B5E7A"/>
<path d="M9.01258 4.65039H2.0166C0.904648 4.65039 0 5.55504 0 6.66699V6.95508H11.0292V6.66699C11.0292 5.55504 10.1245 4.65039 9.01258 4.65039Z" fill="#6B5E7A"/>
<path d="M0 8.12695H11.0292V12.0723H0V8.12695Z" fill="#6B5E7A"/>
<path d="M0 15.9647C0 16.6629 0.567969 17.2308 1.26613 17.2308H9.76301C10.4612 17.2308 11.0291 16.6629 11.0291 15.9647V13.2441H0V15.9647ZM8.00039 15.1167C8.22742 14.6831 8.87473 14.7143 9.05781 15.1686C9.22117 15.5453 8.9268 15.9844 8.5168 15.9784C8.0798 15.9822 7.79051 15.5004 8.00039 15.1167ZM2.02695 15.1167C2.24113 14.7061 2.84586 14.7064 3.06016 15.1167C3.26977 15.5005 2.98059 15.9824 2.54336 15.9784C2.10625 15.9822 1.8173 15.5002 2.02695 15.1167Z" fill="#6B5E7A"/>
<path d="M17.9821 0H2.02055C0.905703 0 0.00195312 0.90375 0.00195312 2.01859V2.90715C0.00195312 3.23074 0.264297 3.49309 0.587891 3.49309H18.8288V16.4451H17.6126V11.3727C17.6126 11.0491 17.3503 10.7868 17.0267 10.7868C16.7031 10.7868 16.4407 11.0491 16.4407 11.3727V13.5089H14.6964C14.3729 13.5089 14.1105 13.7712 14.1105 14.0948V16.4451H12.8061C12.4825 16.4451 12.2202 16.7075 12.2202 17.0311V19.4141C12.2202 19.7377 12.4825 20 12.8061 20H20.0007V2.01859C20.0007 0.90375 19.0969 0 17.9821 0ZM15.2824 14.6807H16.4407V16.4451H15.2824V14.6807Z" fill="#C06A87"/>
</g>
<defs>
<clipPath id="clip0_6478_3486">
<rect width="20" height="20" fill="white"/>
</clipPath>
</defs>
</svg>
