<svg width="20" height="20" viewBox="0 0 20 20" fill="none" xmlns="http://www.w3.org/2000/svg">
<path d="M15.8629 18.6204H16.8975C17.0879 18.6204 17.2424 18.4656 17.2424 18.2755V17.9307H15.7422C15.8188 18.1466 15.8629 18.3784 15.8629 18.6204Z" fill="#6B5E7A"/>
<path d="M15.7424 19.3105C15.651 19.5678 15.5107 19.8009 15.332 20.0003H17.2426V19.2471C17.1343 19.2857 17.0191 19.3105 16.8977 19.3105L15.7424 19.3105Z" fill="#6B5E7A"/>
<path d="M13.7936 17.2412C13.0328 17.2412 12.4141 17.8599 12.4141 18.6207C12.4141 19.3815 13.0328 20.0002 13.7936 20.0002C14.5543 20.0002 15.173 19.3815 15.173 18.6207C15.173 17.8599 14.5543 17.2412 13.7936 17.2412ZM13.7936 19.3104C13.4125 19.3104 13.1038 19.0018 13.1038 18.6207C13.1038 18.2396 13.4125 17.931 13.7936 17.931C14.1746 17.931 14.4833 18.2396 14.4833 18.6207C14.4833 19.0014 14.1746 19.3104 13.7936 19.3104Z" fill="#FFB6A3"/>
<path d="M11.8464 17.9307H8.15625C8.23316 18.1469 8.27695 18.3783 8.27695 18.6204H11.7257C11.7257 18.3783 11.7695 18.1466 11.8464 17.9307Z" fill="#6B5E7A"/>
<path d="M3.64137 19.3099C3.3141 19.3099 3.00992 19.2088 2.75781 19.0371V19.9996H4.6684C4.48941 19.8003 4.34906 19.5671 4.25801 19.3099H3.64137Z" fill="#6B5E7A"/>
<path d="M8.15648 19.3105C8.06508 19.5678 7.92473 19.8009 7.74609 20.0003H12.2573C12.0784 19.8009 11.938 19.5678 11.847 19.3105H8.15648Z" fill="#6B5E7A"/>
<path d="M4.13797 18.6204C4.13797 18.3783 4.18211 18.1469 4.25867 17.9307H2.78125C2.86988 18.3248 3.22129 18.6204 3.64168 18.6204H4.13797Z" fill="#6B5E7A"/>
<path d="M6.20762 17.2412C5.44684 17.2412 4.82812 17.8599 4.82812 18.6207C4.82812 19.3815 5.44684 20.0002 6.20762 20.0002C6.9684 20.0002 7.58711 19.3815 7.58711 18.6207C7.58707 17.8599 6.9684 17.2412 6.20762 17.2412ZM6.20762 19.3104C5.82652 19.3104 5.51789 19.0018 5.51789 18.6207C5.51789 18.2396 5.82656 17.931 6.20762 17.931C6.58867 17.931 6.89734 18.2396 6.89734 18.6207C6.89734 19.0014 6.58871 19.3104 6.20762 19.3104Z" fill="#FFB6A3"/>
<path d="M2.75781 15.4968C3.20027 14.8763 3.91898 14.4825 4.7184 14.4825H5.62852L6.40066 12.5512C6.76934 11.6294 7.64945 11.0338 8.64231 11.0338H13.4767C14.623 11.0338 15.619 11.8501 15.8439 12.9744L16.1494 14.5025C16.5681 14.5608 16.9426 14.7498 17.2423 15.0202V9.6543H2.75781V15.4968Z" fill="#6B5E7A"/>
<path d="M10.4339 0.132422C10.178 -0.0441406 9.82348 -0.0441406 9.56758 0.132422L0.0136719 6.72117C0.0902344 7.17812 0.466836 7.53438 0.933437 7.57957L10.0007 1.30187L19.068 7.57988C19.5346 7.53469 19.9112 7.17813 19.9878 6.72148L10.4339 0.132422Z" fill="#6B5E7A"/>
<path d="M1.37891 8.10996V19.9997H2.06863V8.96387H17.9326V16.551V18.2753V19.9997H18.6223V8.10996L10.0006 2.14062L1.37891 8.10996ZM10.0006 8.27414C9.4302 8.27414 8.96602 7.80996 8.96602 7.23953C8.96602 6.6691 9.4302 6.20492 10.0006 6.20492C10.5711 6.20492 11.0352 6.6691 11.0352 7.23953C11.0352 7.80996 10.5711 8.27414 10.0006 8.27414ZM11.2197 6.02008C10.8942 5.69453 10.461 5.5152 10.0006 5.5152C9.54024 5.5152 9.10707 5.69453 8.78152 6.02008L8.29387 5.53242C8.74977 5.07652 9.3557 4.82543 10.0006 4.82543C10.6455 4.82543 11.2515 5.07648 11.7074 5.53242L11.2197 6.02008ZM12.1954 5.04445C10.9849 3.8343 9.01606 3.8343 7.80555 5.04445L7.31789 4.5568C8.79703 3.07766 11.2039 3.07766 12.683 4.5568L12.1954 5.04445Z" fill="#6B5E7A"/>
<path d="M15.8636 15.1723H15.5808L15.1687 13.11C15.0076 12.3068 14.2968 11.7236 13.4778 11.7236H8.64273C7.93332 11.7236 7.305 12.1492 7.04152 12.8075L6.09555 15.1723H4.71879C3.92594 15.1723 3.23828 15.7093 3.04582 16.4783L2.85547 17.2415H4.66949C5.04852 16.8194 5.59648 16.5518 6.20762 16.5518C6.81875 16.5518 7.36637 16.8194 7.74574 17.2415H12.257C12.636 16.8194 13.184 16.5518 13.7951 16.5518C14.4062 16.5518 14.9539 16.8194 15.3332 17.2415H17.2438V16.5518C17.2431 15.791 16.6244 15.1723 15.8636 15.1723ZM7.58672 14.8274V14.4825L8.10297 13.1917C8.20781 12.9299 8.46129 12.7582 8.7434 12.7582H10.6905V14.8274H7.58672V14.8274ZM11.3803 14.8274V12.7582H13.555C13.8923 12.7582 14.1799 13.002 14.2355 13.3345L14.4841 14.8274H11.3803Z" fill="#FFB6A3"/>
</svg>
