<svg width="22" height="20" viewBox="0 0 22 20" fill="none" xmlns="http://www.w3.org/2000/svg">
<path d="M4.01742 5.23604H6.63967L8.16346 2.56938H13.1698L14.6936 5.23604H17.3159L17.908 14.8472H20.4904L20.6433 14.4438C21.1012 13.2363 21.3333 11.9655 21.3333 10.6667C21.3333 7.8175 20.2238 5.13888 18.2092 3.12417C16.1945 1.10954 13.5158 0 10.6667 0C7.8175 0 5.13883 1.10954 3.12417 3.12421C1.10954 5.13888 0 7.8175 0 10.6667C0 11.9655 0.232125 13.2363 0.689958 14.4438L0.842917 14.8472H3.42525L4.01742 5.23604Z" fill="#315D80"/>
<path d="M13.9685 6.48698L12.4447 3.82031H8.88915L7.36535 6.48698H5.19306L4.91406 11.0147H16.4198L16.1409 6.48698H13.9685Z" fill="#EA4B61"/>
<path d="M7.2199 17.0613C8.28548 17.5847 9.46398 17.8628 10.6681 17.8628C11.8723 17.8628 13.0508 17.5847 14.1164 17.0613L15.2721 20.0018H17.0629L15.5498 16.152C15.614 16.1007 15.6778 16.0487 15.7405 15.9952L16.6786 15.1962L16.498 12.2656H4.83831L4.65777 15.1962L5.59581 15.9952C5.65856 16.0487 5.72231 16.1007 5.78656 16.152L4.27344 20.0018H6.06419L7.2199 17.0613ZM14.1404 14.9322H12.8904V13.6822H14.1404V14.9322ZM7.19594 13.6822H8.44594V14.9322H7.19594V13.6822Z" fill="#EA4B61"/>
</svg>
