<svg width="20" height="20" viewBox="0 0 20 20" fill="none" xmlns="http://www.w3.org/2000/svg">
<g clip-path="url(#clip0_6721_2577)">
<path d="M20 16V16.6667C20 17.4021 19.4017 18 18.6667 18H1.33333C0.598333 18 0 17.4021 0 16.6667V16C0 15.2646 0.598333 14.6667 1.33333 14.6667H18.6667C19.4017 14.6667 20 15.2646 20 16ZM6.375 5.34917V13.6667C6.375 13.8507 6.22575 14 6.04167 14H3.375C3.19092 14 3.04167 13.8507 3.04167 13.6667V5.34917C3.04167 5.16508 3.19092 5.01583 3.375 5.01583H6.04167C6.22575 5.01583 6.375 5.16508 6.375 5.34917ZM5.16667 8.83333C5.16667 8.64925 5.01742 8.5 4.83333 8.5C4.64925 8.5 4.5 8.64925 4.5 8.83333V11.5C4.5 11.6841 4.64925 11.8333 4.83333 11.8333C5.01742 11.8333 5.16667 11.6841 5.16667 11.5V8.83333ZM12.9583 2.33333V13.6667C12.9583 13.8507 12.8091 14 12.625 14H7.375C7.19092 14 7.04167 13.8507 7.04167 13.6667V2.33333C7.04167 2.14925 7.19092 2 7.375 2H12.625C12.8091 2 12.9583 2.14925 12.9583 2.33333ZM9.66667 4.29167C9.66667 4.47575 9.81592 4.625 10 4.625C10.1841 4.625 10.3333 4.47575 10.3333 4.29167V3.95833C10.3333 3.77425 10.1841 3.625 10 3.625C9.81592 3.625 9.66667 3.77425 9.66667 3.95833V4.29167ZM10.3333 12.2083C10.3333 12.0243 10.1841 11.875 10 11.875C9.81592 11.875 9.66667 12.0243 9.66667 12.2083V12.5417C9.66667 12.7257 9.81592 12.875 10 12.875C10.1841 12.875 10.3333 12.7257 10.3333 12.5417V12.2083ZM11.2917 7C11.2917 6.28779 10.7122 5.70833 10 5.70833C9.28775 5.70833 8.70833 6.28779 8.70833 7V9.5C8.70833 10.2122 9.28775 10.7917 10 10.7917C10.7122 10.7917 11.2917 10.2122 11.2917 9.5V7ZM10 6.375C9.65537 6.375 9.375 6.65538 9.375 7V9.5C9.375 9.84462 9.65537 10.125 10 10.125C10.3446 10.125 10.625 9.84462 10.625 9.5V7C10.625 6.65538 10.3446 6.375 10 6.375ZM16.9425 7.04167H13.9583C13.7743 7.04167 13.625 7.19092 13.625 7.375V12.2083C13.625 12.3924 13.7743 12.5417 13.9583 12.5417H16.9425C17.1266 12.5417 17.2758 12.3924 17.2758 12.2083V7.375C17.2758 7.19092 17.1266 7.04167 16.9425 7.04167ZM13.625 13.5417V13.6667C13.625 13.8507 13.7743 14 13.9583 14H16.9425C17.1266 14 17.2758 13.8507 17.2758 13.6667V13.5417C17.2758 13.3576 17.1266 13.2083 16.9425 13.2083H13.9583C13.7743 13.2083 13.625 13.3576 13.625 13.5417ZM17.2758 6.04167V4.58333C17.2758 4.39925 17.1266 4.25 16.9425 4.25H13.9583C13.7743 4.25 13.625 4.39925 13.625 4.58333V6.04167C13.625 6.22575 13.7743 6.375 13.9583 6.375H16.9425C17.1266 6.375 17.2758 6.22575 17.2758 6.04167Z" fill="#F1D15B"/>
<path d="M20 16.6667V16C20 15.2646 19.4017 14.6667 18.6667 14.6667H1.33333C0.598333 14.6667 0 15.2646 0 16V16.6667C0 17.4021 0.598333 18 1.33333 18H18.6667C19.4017 18 20 17.4021 20 16.6667Z" fill="#F2727F"/>
</g>
<defs>
<clipPath id="clip0_6721_2577">
<rect width="20" height="20" fill="white"/>
</clipPath>
</defs>
</svg>
