<svg width="20" height="20" viewBox="0 0 20 20" fill="none" xmlns="http://www.w3.org/2000/svg">
<g clip-path="url(#clip0_6721_2694)">
<path fill-rule="evenodd" clip-rule="evenodd" d="M0.843139 0.955044C0.759975 0.829419 0.794389 0.660122 0.920053 0.576958C1.04568 0.493794 1.21497 0.528208 1.29814 0.653872C2.12794 1.90086 1.71892 2.64833 1.3099 3.39579C0.979936 3.99879 0.649936 4.6018 1.29814 5.57594C1.3813 5.70157 1.34689 5.87086 1.22122 5.95403C1.0956 6.03719 0.926303 6.00278 0.843139 5.87711C0.0133342 4.63012 0.422358 3.88262 0.831381 3.1352C1.16138 2.53219 1.49138 1.92918 0.843139 0.955044ZM18.6652 12.8562V16.9313C18.6652 18.3561 14.7856 19.5111 9.99966 19.5111C5.21376 19.5111 1.33408 18.3561 1.33408 16.9313V12.8562C1.97318 13.4728 3.03037 13.8497 3.71611 14.0538C5.67693 14.6376 7.96107 14.8322 9.99966 14.8322C12.0383 14.8322 14.3224 14.6376 16.2832 14.0538C16.969 13.8497 18.0261 13.4729 18.6652 12.8562ZM12.3932 8.06879L14.5151 8.61844C14.7124 8.66958 14.8615 8.8127 14.9285 8.98993L15.7216 11.092C15.8392 11.4042 15.6814 11.7526 15.3692 11.8702C15.057 11.9877 14.7087 11.8299 14.5911 11.5178L13.9088 9.70817L12.1887 9.26258C12.1014 10.2649 12.0145 11.2673 11.9274 12.2697C11.4073 12.3029 10.8623 12.3206 10.3007 12.3206C9.53478 12.3206 8.79962 12.2877 8.11646 12.2274C8.20888 11.1629 8.30115 10.0984 8.39388 9.03399L6.4197 9.58641L4.17736 11.2481C3.90958 11.4466 3.53154 11.3905 3.33302 11.1227C3.13447 10.8549 3.1906 10.4769 3.45837 10.2784L5.79044 8.55024C6.02517 8.37622 7.87986 7.92418 8.29607 7.8077C8.72291 7.68981 12.0271 7.97395 12.3932 8.06879ZM10.4573 4.24887C11.2638 4.24887 11.9176 4.90266 11.9176 5.70915C11.9176 6.51563 11.2638 7.16946 10.4573 7.16946C9.6508 7.16946 8.99701 6.51567 8.99701 5.70915C8.99701 4.90266 9.6508 4.24887 10.4573 4.24887ZM15.816 9.79317L16.1327 10.6325C16.4264 10.7282 16.7169 10.8367 16.9851 10.9547C17.6333 11.2398 17.6333 12.1711 16.9851 12.4563C16.4785 12.6792 15.892 12.8683 15.3552 13.0007C13.6289 13.4267 11.7748 13.5726 9.99966 13.5726C8.22451 13.5726 6.37044 13.4267 4.64412 13.0007C4.10732 12.8683 3.52083 12.6792 3.01427 12.4563C2.50169 12.2308 2.36224 11.5656 2.73576 11.1545C2.63212 10.8681 2.6479 10.5536 2.77283 10.2817C1.86392 10.6898 1.33408 11.1792 1.33408 11.7055C1.33408 13.1303 5.21376 14.2853 9.99966 14.2853C14.7856 14.2853 18.6652 13.1303 18.6652 11.7055C18.6652 10.9471 17.566 10.2652 15.816 9.79317ZM3.23451 11.9558C3.78396 12.1975 4.48982 12.3994 4.77513 12.4698C7.8172 13.2205 12.2981 13.2441 15.3299 12.4427C14.8041 12.523 14.2744 12.2278 14.0794 11.7107L13.6751 10.6384C13.329 10.5865 12.9796 10.5437 12.6292 10.509C12.5769 11.1117 12.5246 11.7144 12.4723 12.3171L12.4316 12.7856C11.7182 12.8311 11.0171 12.8675 10.3008 12.8675C9.36083 12.8675 8.45755 12.8066 7.52443 12.7241L7.71951 10.477C7.07548 10.5311 6.43193 10.6114 5.80345 10.7238L4.50298 11.6875C4.06654 12.0109 3.47623 11.9794 3.07783 11.6443C3.07349 11.664 3.07126 11.6845 3.07126 11.7056C3.07119 11.8163 3.13302 11.9111 3.23451 11.9558ZM15.596 12.3684C15.9343 12.2697 16.3866 12.1222 16.7648 11.9557C16.9815 11.8604 16.9815 11.5506 16.7648 11.4552C16.6195 11.3913 16.4633 11.3302 16.3069 11.2735C16.3192 11.7384 16.0463 12.1825 15.596 12.3684ZM16.0178 0.911724C15.9347 0.786099 15.9691 0.616802 16.0947 0.533638C16.2204 0.450474 16.3897 0.484888 16.4728 0.610552C17.3026 1.85758 16.8936 2.60504 16.4846 3.35251C16.1546 3.95551 15.8246 4.55852 16.4728 5.53266C16.556 5.65829 16.5216 5.82758 16.3959 5.91075C16.2703 5.99391 16.101 5.9595 16.0178 5.83383C15.1879 4.5868 15.597 3.83934 16.006 3.09188C16.336 2.48887 16.666 1.88586 16.0178 0.911724ZM18.7012 0.911724C18.618 0.786099 18.6524 0.616802 18.7781 0.533638C18.9037 0.450474 19.073 0.484888 19.1562 0.610552C19.986 1.85758 19.577 2.60504 19.168 3.35251C18.838 3.95551 18.508 4.55852 19.1562 5.53266C19.2394 5.65829 19.205 5.82758 19.0793 5.91075C18.9537 5.99391 18.7844 5.9595 18.7012 5.83383C17.8714 4.5868 18.2804 3.8393 18.6895 3.09188C19.0194 2.48887 19.3494 1.88586 18.7012 0.911724ZM6.20986 0.955044C6.12669 0.829419 6.16111 0.660122 6.28677 0.576958C6.4124 0.493794 6.58169 0.528208 6.66486 0.653872C7.49466 1.9009 7.08564 2.64837 6.67662 3.39583C6.34662 3.99883 6.01665 4.60184 6.66486 5.57598C6.74802 5.70161 6.71361 5.8709 6.58794 5.95407C6.46228 6.03723 6.29302 6.00282 6.20982 5.87715C5.37997 4.63012 5.78904 3.88262 6.19806 3.1352C6.52806 2.53219 6.85806 1.92918 6.20986 0.955044ZM3.5265 0.911724C3.44333 0.786099 3.47775 0.616802 3.60341 0.533638C3.72908 0.450474 3.89833 0.484888 3.98154 0.610552C4.81134 1.85758 4.40232 2.60504 3.9933 3.35251C3.66333 3.95551 3.33333 4.55852 3.98154 5.53266C4.0647 5.65829 4.03029 5.82758 3.90462 5.91075C3.779 5.99391 3.6097 5.9595 3.52654 5.83383C2.69669 4.5868 3.10576 3.83934 3.51478 3.09188C3.8447 2.48887 4.1747 1.88586 3.5265 0.911724Z" fill="#F1D15B"/>
<path d="M0.920053 0.576958C0.794389 0.660122 0.759975 0.829419 0.843139 0.955044C1.49138 1.92918 1.16138 2.53219 0.831381 3.1352C0.422358 3.88262 0.0133342 4.63012 0.843139 5.87711C0.926303 6.00278 1.0956 6.03719 1.22122 5.95403C1.34689 5.87086 1.3813 5.70157 1.29814 5.57594C0.649936 4.6018 0.979936 3.99879 1.3099 3.39579C1.71892 2.64833 2.12794 1.90086 1.29814 0.653872C1.21497 0.528208 1.04568 0.493794 0.920053 0.576958Z" fill="#315D80"/>
<path d="M6.28677 0.576958C6.16111 0.660122 6.12669 0.829419 6.20986 0.955044C6.85806 1.92918 6.52806 2.53219 6.19806 3.1352C5.78904 3.88262 5.37997 4.63012 6.20982 5.87715C6.29302 6.00282 6.46228 6.03723 6.58794 5.95407C6.71361 5.8709 6.74802 5.70161 6.66486 5.57598C6.01665 4.60184 6.34662 3.99883 6.67662 3.39583C7.08564 2.64837 7.49466 1.9009 6.66486 0.653872C6.58169 0.528208 6.4124 0.493794 6.28677 0.576958Z" fill="#315D80"/>
<path d="M3.60341 0.533638C3.47775 0.616802 3.44333 0.786099 3.5265 0.911724C4.1747 1.88586 3.8447 2.48887 3.51478 3.09188C3.10576 3.83934 2.69669 4.5868 3.52654 5.83383C3.6097 5.9595 3.779 5.99391 3.90462 5.91075C4.03029 5.82758 4.0647 5.65829 3.98154 5.53266C3.33333 4.55852 3.66333 3.95551 3.9933 3.35251C4.40232 2.60504 4.81134 1.85758 3.98154 0.610552C3.89833 0.484888 3.72908 0.450474 3.60341 0.533638Z" fill="#315D80"/>
<path d="M16.0947 0.533638C15.9691 0.616802 15.9347 0.786099 16.0178 0.911724C16.666 1.88586 16.336 2.48887 16.006 3.09188C15.597 3.83934 15.1879 4.5868 16.0178 5.83383C16.101 5.9595 16.2703 5.99391 16.3959 5.91075C16.5216 5.82758 16.556 5.65829 16.4728 5.53266C15.8246 4.55852 16.1546 3.95551 16.4846 3.35251C16.8936 2.60504 17.3026 1.85758 16.4728 0.610552C16.3897 0.484888 16.2204 0.450474 16.0947 0.533638Z" fill="#315D80"/>
<path d="M18.7781 0.533638C18.6524 0.616802 18.618 0.786099 18.7012 0.911724C19.3494 1.88586 19.0194 2.48887 18.6895 3.09188C18.2804 3.8393 17.8714 4.5868 18.7012 5.83383C18.7844 5.9595 18.9537 5.99391 19.0793 5.91075C19.205 5.82758 19.2394 5.65829 19.1562 5.53266C18.508 4.55852 18.838 3.95551 19.168 3.35251C19.577 2.60504 19.986 1.85758 19.1562 0.610552C19.073 0.484888 18.9037 0.450474 18.7781 0.533638Z" fill="#315D80"/>
<path d="M11.9176 5.70915C11.9176 4.90266 11.2638 4.24887 10.4573 4.24887C9.6508 4.24887 8.99701 4.90266 8.99701 5.70915C8.99701 6.51567 9.6508 7.16946 10.4573 7.16946C11.2638 7.16946 11.9176 6.51563 11.9176 5.70915Z" fill="#315D80"/>
</g>
<defs>
<clipPath id="clip0_6721_2694">
<rect width="20" height="20" fill="white"/>
</clipPath>
</defs>
</svg>
