<svg width="20" height="20" viewBox="0 0 20 20" fill="none" xmlns="http://www.w3.org/2000/svg">
<g clip-path="url(#clip0_6721_2713)">
<path d="M19.4252 15.1939L17.7908 1.20812C17.7214 0.519336 17.1471 0 16.4549 0H3.54558C2.85336 0 2.27906 0.519336 2.20973 1.20812L0.575233 15.1939C0.495585 15.9853 1.11836 16.6709 1.91109 16.6709H9.0432V16.3949H15.5695V16.6709H18.0894C18.8848 16.6709 19.5046 15.9827 19.4252 15.1939Z" fill="#6C7ED6"/>
<path d="M2.06555 15.1939L3.7 1.20812C3.76937 0.519336 4.34367 0 5.03586 0H3.54558C2.85336 0 2.27906 0.519336 2.20973 1.20812L0.575233 15.1939C0.495585 15.9853 1.11836 16.6709 1.91109 16.6709H3.40137C2.60867 16.6709 1.9859 15.9853 2.06555 15.1939Z" fill="#4F67D2"/>
<path d="M18.0209 14.923L16.461 1.67844C16.4434 1.50336 16.2961 1.37012 16.1201 1.37012H3.88104C3.7051 1.37012 3.55776 1.50336 3.54014 1.67844L1.98026 14.923C1.96002 15.1249 2.11858 15.3 2.32116 15.3H17.68C17.8829 15.3 18.0411 15.1246 18.0209 14.923Z" fill="#60B8FE"/>
<path d="M3.77772 14.923L5.33761 1.67844C5.35523 1.50336 5.50257 1.37012 5.67851 1.37012H3.88105C3.70511 1.37012 3.55776 1.50336 3.54015 1.67844L1.98026 14.923C1.95999 15.1249 2.11862 15.3 2.32116 15.3H4.11862C3.91605 15.3 3.75745 15.1249 3.77772 14.923Z" fill="#23A8FE"/>
<path d="M10.0001 6.50804C9.18401 7.37843 7.80405 7.37944 6.98702 6.508C6.61433 6.90472 6.09851 7.14038 5.55253 7.15937C5.3855 7.16511 5.2462 7.0348 5.24042 6.86819C5.23464 6.70159 5.36499 6.56187 5.53155 6.55608C5.95472 6.5414 6.33698 6.353 6.60796 6.02565C6.80519 5.7873 7.16835 5.78675 7.36612 6.02565C7.95354 6.73542 9.03456 6.73417 9.62093 6.02569C9.8187 5.78675 10.1819 5.78726 10.3792 6.02573C10.9666 6.73554 12.0476 6.73413 12.634 6.02569C12.8317 5.78679 13.1949 5.78726 13.3922 6.02569C13.6631 6.35304 14.0454 6.54144 14.4686 6.55612C14.6352 6.5619 14.7655 6.70163 14.7598 6.86823C14.754 7.03483 14.6143 7.16507 14.4476 7.1594C13.9016 7.14042 13.3858 6.90476 13.0131 6.50804C12.1971 7.37831 10.8171 7.37952 10.0001 6.50804Z" fill="#0193FA"/>
<path d="M9.99926 8.98421C9.18328 9.85448 7.80328 9.85565 6.98625 8.98425C6.5332 9.46764 5.88211 9.70428 5.21902 9.62038C5.05367 9.59944 4.93656 9.44846 4.9575 9.28307C4.9784 9.11768 5.12945 9.00046 5.2948 9.02155C5.7948 9.08475 6.28543 8.89053 6.60715 8.50186C6.80438 8.2635 7.16754 8.26296 7.36531 8.50186C7.95266 9.21159 9.03375 9.21042 9.62012 8.5019C9.77996 8.30878 10.0048 8.32163 9.9993 8.32288C10.1461 8.32292 10.2842 8.38819 10.3784 8.50194C10.9657 9.21171 12.0468 9.21042 12.6331 8.5019C12.8308 8.26299 13.194 8.26346 13.3913 8.5019C13.713 8.89057 14.2035 9.08467 14.7037 9.02159C14.8689 9.00073 15.02 9.11772 15.041 9.28311C15.0619 9.44846 14.9448 9.59948 14.7794 9.62042C14.1164 9.70444 13.4652 9.46772 13.0122 8.98428C12.1964 9.85444 10.8163 9.85565 9.99926 8.98421Z" fill="#0193FA"/>
<path d="M9.99909 4.01487C9.18315 4.88511 7.80323 4.88636 6.98616 4.01495C6.69542 4.32589 6.32487 4.53522 5.90706 4.62323C5.74393 4.65769 5.58385 4.55323 5.54952 4.39015C5.51514 4.22702 5.61952 4.06694 5.7826 4.03261C6.10788 3.96405 6.39292 3.79112 6.60702 3.53249C6.80424 3.29413 7.16741 3.29358 7.36518 3.53249C7.9526 4.24226 9.03362 4.24101 9.61999 3.53253C9.81776 3.29358 10.1809 3.29409 10.3782 3.53257C10.9656 4.24237 12.0467 4.24097 12.633 3.53253C12.8307 3.29362 13.1939 3.29409 13.3912 3.53253C13.6053 3.79116 13.8904 3.96409 14.2156 4.03261C14.3788 4.06694 14.4831 4.22702 14.4488 4.39015C14.4144 4.55323 14.2544 4.65776 14.0912 4.62327C13.6734 4.53526 13.3028 4.32589 13.0121 4.01499C12.1961 4.88511 10.8162 4.88636 9.99909 4.01487Z" fill="#0193FA"/>
<path d="M12.9918 11.5493C11.6072 11.5756 10.5117 12.7355 10.5117 14.1202V15.341H11.9802V14.1039C11.9802 13.5295 12.4259 13.0398 12.9998 13.018C13.6031 12.9952 14.1012 13.4794 14.1012 14.0778V15.3153C14.4124 15.38 14.6462 15.6557 14.6462 15.9861C14.6462 16.3165 14.4124 16.5921 14.1012 16.6569V18.0564C14.4124 18.1211 14.6462 18.3968 14.6462 18.7272C14.6462 19.0576 14.4124 19.3332 14.1012 19.398V19.7732C14.1012 19.8987 14.203 20.0005 14.3285 20.0005H15.3423C15.4679 20.0005 15.5696 19.8987 15.5696 19.7732V14.0779C15.5696 12.667 14.4086 11.5224 12.9918 11.5493Z" fill="#DFEBFA"/>
<path d="M14.0005 15.3008H10.4707V16.6713H14.0005C14.3789 16.6713 14.6857 16.3645 14.6857 15.986C14.6857 15.6076 14.3789 15.3008 14.0005 15.3008Z" fill="#B1DBFC"/>
<path d="M14.0005 18.041H10.4707V19.4115H14.0005C14.3789 19.4115 14.6857 19.1047 14.6857 18.7263C14.6857 18.3478 14.3789 18.041 14.0005 18.041Z" fill="#B1DBFC"/>
<path d="M10.4707 15.3008H11.9999V16.6713H10.4707V15.3008Z" fill="#8BCAFF"/>
<path d="M10.4707 18.041H11.9999V19.4115H10.4707V18.041Z" fill="#8BCAFF"/>
<path d="M7.9332 11.5493C6.54867 11.5755 5.45312 12.7354 5.45312 14.1202V15.3008H6.92156V14.1038C6.92156 13.5295 7.36727 13.0398 7.94113 13.018C8.54445 12.9952 9.04258 13.4794 9.04258 14.0778V19.7731C9.04258 19.8986 9.14434 20.0004 9.26988 20.0004H10.2837C10.4092 20.0004 10.511 19.8986 10.511 19.7731V14.0778C10.511 12.667 9.34992 11.5224 7.9332 11.5493Z" fill="#DFEBFA"/>
</g>
<defs>
<clipPath id="clip0_6721_2713">
<rect width="20" height="20" fill="white"/>
</clipPath>
</defs>
</svg>
