<svg width="20" height="20" viewBox="0 0 20 20" fill="none" xmlns="http://www.w3.org/2000/svg">
<path d="M17.6336 15.3037C16.3334 15.3037 15.2793 16.3578 15.2793 17.658C15.4033 20.7809 19.8643 20.78 19.9879 17.658C19.9879 16.3578 18.9338 15.3037 17.6336 15.3037Z" fill="#9BB997"/>
<path d="M19.9343 6.46744C20.1703 4.53233 19.6294 2.79569 18.4111 1.57742C17.1928 0.359109 15.4559 -0.181947 13.521 0.0541494C11.6395 0.283575 9.78712 1.2262 8.30501 2.70834C7.05088 3.96247 6.18316 5.48174 5.80683 7.05939L4.36914 12.5066L5.33236 13.4698L5.98823 10.9849C6.25367 11.6733 6.65131 12.2917 7.17405 12.8144C7.69678 13.3371 8.31498 13.7348 9.00318 14.0003L6.51861 14.6561L7.48179 15.6193L12.9294 14.1815C16.3709 13.4237 19.5759 9.95082 19.9343 6.46744ZM17.7311 9.2211L15.9139 7.40394L17.1625 6.15538L18.5113 7.50423C18.3308 8.08437 18.0699 8.66302 17.7311 9.2211ZM11.3359 6.98778L12.5845 5.73922L14.2492 7.40398L13.0007 8.65254L11.3359 6.98778ZM12.1683 9.4849L10.9198 10.7334L9.25501 9.0687L10.5036 7.82014L12.1683 9.4849ZM13.4169 4.90686L14.6654 3.6583L16.3302 5.32306L15.0816 6.57162L13.4169 4.90686ZM18.7176 4.60033C18.8123 5.08433 18.8356 5.5951 18.7896 6.11775L17.9949 5.32306L18.7176 4.60033ZM16.621 1.70267C16.9704 1.88826 17.2924 2.1235 17.5787 2.40978C17.8649 2.69602 18.1002 3.01809 18.2858 3.36743L17.1625 4.4907L15.4978 2.82594L16.621 1.70267ZM15.3881 1.27089L14.6654 1.99358L13.8707 1.19889C14.3934 1.15286 14.9041 1.17621 15.3881 1.27089ZM12.4842 1.47708L13.833 2.82594L12.5845 4.0745L10.7673 2.25738C11.3254 1.91859 11.9041 1.65766 12.4842 1.47708ZM9.13741 3.5407C9.34898 3.32913 9.56797 3.13145 9.79277 2.9475L11.7522 4.9069L10.5036 6.15546L8.54401 4.19586C8.72894 3.97016 8.92678 3.75125 9.13741 3.5407ZM7.85314 5.16968L9.67125 6.98778L8.42269 8.23634L7.07371 6.88733C7.25586 6.29805 7.51828 5.72058 7.85314 5.16968ZM6.86826 9.79076C6.77562 9.3148 6.75114 8.80655 6.79779 8.27617L7.59032 9.0687L6.86826 9.79076ZM8.96437 12.6889C8.61154 12.5014 8.28982 12.2653 8.00645 11.9819C7.72307 11.6986 7.48709 11.3769 7.29961 11.0241L8.42269 9.90106L10.0874 11.5658L8.96437 12.6889ZM10.1977 13.1202L10.9198 12.3981L11.7123 13.1907C11.1819 13.2374 10.6737 13.2129 10.1977 13.1202ZM13.1011 12.9148L11.7521 11.5658L13.0007 10.3173L14.8188 12.1353C14.2678 12.4701 13.6904 12.7326 13.1011 12.9148ZM16.4478 10.851C16.2372 11.0616 16.0183 11.2595 15.7926 11.4445L13.833 9.4849L15.0816 8.23634L17.041 10.1957C16.857 10.4205 16.6593 10.6395 16.4478 10.851Z" fill="#C06A87"/>
<path d="M0.00976562 17.4785L3.84224 13.646L6.33897 16.1428L2.50649 19.9752L0.00976562 17.4785Z" fill="#C06A87"/>
</svg>
