<svg width="20" height="20" viewBox="0 0 20 20" fill="none" xmlns="http://www.w3.org/2000/svg">
<g clip-path="url(#clip0_6721_2565)">
<path d="M15.0766 9.04293C15.9474 9.04293 16.6533 8.33705 16.6533 7.46629C16.6533 6.59554 15.9474 5.88965 15.0766 5.88965C14.2059 5.88965 13.5 6.59554 13.5 7.46629C13.5 8.33705 14.2059 9.04293 15.0766 9.04293Z" fill="#F2727F"/>
<path d="M16.0515 9.73526C15.884 9.66894 15.6774 9.59829 15.4224 9.52636C14.9069 9.38111 14.5494 9.34977 14.3108 9.35894C14.2891 9.35411 14.2676 9.34859 14.2449 9.34672C14.2325 9.34573 14.2183 9.34494 14.2024 9.34494C14.2022 9.34494 14.1788 9.34514 14.1281 9.3408C13.948 9.32622 13.4997 9.24709 13.132 8.9495C12.7683 8.64935 12.4175 8.1528 12.4093 7.05901C12.4093 6.77216 12.4359 6.4456 12.4974 6.07548C12.5422 5.80706 12.3606 5.55341 12.0923 5.50868C11.8239 5.46414 11.5701 5.64555 11.5255 5.91397C11.456 6.33119 11.424 6.71156 11.4238 7.05911C11.4234 7.81373 11.5771 8.41847 11.8299 8.88949C12.209 9.59957 12.7993 9.97166 13.277 10.1475C13.3571 10.1771 13.4343 10.2018 13.508 10.2226C13.3431 10.5846 13.1624 11.0539 13.0399 11.5936C12.717 12.841 12.4965 14.6595 12.9147 15.734C12.9464 15.8214 13.1589 15.8303 13.4767 15.7869C13.6427 16.7929 14.0369 18.1133 14.9527 19.4197C15.0774 19.5972 15.2758 19.692 15.4774 19.692C15.6046 19.692 15.7331 19.6542 15.8452 19.5755C16.1346 19.3722 16.2044 18.9726 16.001 18.6832C15.2012 17.5482 14.8656 16.3782 14.7298 15.5105C14.9264 15.4571 15.128 15.3991 15.3285 15.3385C15.3807 15.4753 15.4446 15.6185 15.5238 15.7645C15.7288 16.1389 16.0449 16.5316 16.5122 16.8241C16.9769 17.1167 17.5806 17.297 18.3058 17.297H18.3143C18.3721 17.297 18.4301 17.2958 18.4886 17.2938C18.8421 17.2813 19.1186 16.9845 19.1059 16.6309C19.0934 16.2775 18.7966 16.001 18.4432 16.0135C18.3985 16.0151 18.3556 16.0159 18.3143 16.0159C17.7875 16.0143 17.4445 15.8948 17.1927 15.7385C16.8654 15.5345 16.6669 15.2321 16.5455 14.9344C17.1388 14.7167 17.556 14.524 17.529 14.4499C16.9937 13.4507 16.729 11.5156 16.7006 10.6206C16.9479 10.5621 17.2445 10.4711 17.5538 10.3273C17.9368 10.148 18.3419 9.88366 18.6719 9.48674C19.0022 9.0915 19.2456 8.55978 19.3015 7.91089C19.3256 7.63971 19.1254 7.40055 18.8543 7.3766C18.5834 7.35236 18.3442 7.5527 18.3202 7.82358C18.2774 8.28327 18.1238 8.60156 17.9135 8.85756C17.6001 9.23901 17.1228 9.47245 16.7111 9.5975C16.5066 9.66047 16.3218 9.69703 16.1918 9.71703C16.1323 9.7259 16.0849 9.73171 16.0515 9.73526Z" fill="#F2727F"/>
<path d="M4.93587 9.72775C5.87397 9.56298 6.50089 8.66893 6.33613 7.73083C6.17136 6.79273 5.27731 6.16581 4.33921 6.33058C3.40111 6.49534 2.77419 7.38939 2.93896 8.32749C3.10372 9.26559 3.99777 9.89251 4.93587 9.72775Z" fill="#F2727F"/>
<path d="M6.59749 19.9761C6.66184 19.9923 6.72638 19.9999 6.78974 19.9999C7.14281 19.9999 7.46415 19.761 7.55372 19.4029C7.71503 18.7589 7.785 18.168 7.785 17.631C7.78716 16.3392 7.37379 15.3717 6.94681 14.7484C6.79309 14.5229 6.63937 14.3409 6.5025 14.1976C6.1644 13.302 5.97807 12.3494 5.95757 11.3923C6.23604 11.2859 6.62823 11.0996 7.04368 10.7836C7.80401 10.2097 8.62564 9.17591 8.86943 7.50831C8.90944 7.2393 8.72379 6.98861 8.45448 6.9486C8.18546 6.9084 7.93478 7.09424 7.89477 7.36336C7.67995 8.7778 7.03639 9.54435 6.44623 10.0001C6.15061 10.2258 5.86612 10.3672 5.66027 10.4506C5.56489 10.4892 5.48763 10.5149 5.43324 10.5312C4.77657 10.4319 4.1198 10.3327 3.46303 10.2332C3.33542 10.1765 2.93367 9.97733 2.55389 9.60199C2.10642 9.15511 1.68438 8.49943 1.68073 7.46219C1.68073 7.2051 1.70773 6.92308 1.77011 6.61376C1.82391 6.34701 1.65127 6.08726 1.38472 6.03326C1.11797 5.97946 0.858018 6.152 0.804215 6.41875C0.729522 6.78838 0.695328 7.13622 0.695328 7.46219C0.691682 8.8321 1.31258 9.7906 1.91949 10.3593C2.28862 10.7077 2.64997 10.9263 2.88617 11.0482C2.88726 12.446 3.12513 13.8433 3.58551 15.1631C3.59418 15.2491 3.60226 15.3631 3.60216 15.487C3.6066 15.7505 3.55358 16.0525 3.4782 16.1812C3.44164 16.2481 3.41563 16.2708 3.39129 16.2869C3.36547 16.3011 3.32586 16.325 3.19273 16.3268C3.00846 16.3291 2.64465 16.2557 2.11174 15.9914C1.72123 15.7993 1.24853 15.96 1.05638 16.3507C0.864029 16.7412 1.02495 17.2137 1.41546 17.4061C2.08543 17.7339 2.6549 17.9008 3.19263 17.9035H3.20308C3.57704 17.9035 3.93809 17.8069 4.22996 17.6219C4.67803 17.3394 4.91354 16.9099 5.03188 16.5337C5.1523 16.1513 5.17762 15.789 5.17891 15.487C5.17891 15.4826 5.17881 15.4783 5.17881 15.4739C5.25803 15.4308 5.33716 15.3878 5.41639 15.3447C5.50221 15.4402 5.59957 15.5629 5.69516 15.7139C5.95254 16.124 6.20668 16.7305 6.20845 17.6311C6.20845 18.0315 6.15672 18.4916 6.02448 19.0202C5.91855 19.4424 6.17515 19.8704 6.59749 19.9761Z" fill="#F2727F"/>
<path d="M8.776 4.92701C10.1366 4.92701 11.2395 3.82405 11.2395 2.4635C11.2395 1.10296 10.1366 0 8.776 0C7.41546 0 6.3125 1.10296 6.3125 2.4635C6.3125 3.82405 7.41546 4.92701 8.776 4.92701ZM7.07668 3.8071C7.18172 2.86456 7.90028 2.16897 8.07883 2.00953C8.17304 2.06974 8.28537 2.10501 8.40628 2.10501C8.49329 2.10501 8.57577 2.08649 8.65036 2.05397C8.78645 2.55781 9.13715 3.75172 9.58078 4.47599C9.33177 4.57591 9.06039 4.63148 8.776 4.63148C8.0879 4.63148 7.47409 4.30877 7.07668 3.8071ZM10.9422 2.39186C10.4776 1.86921 9.39769 1.54383 9.00058 1.43829C8.98353 1.31522 8.92766 1.20455 8.84518 1.11794C8.97279 0.990821 9.33867 0.634993 9.60591 0.460872C10.3698 0.778664 10.9137 1.52116 10.9422 2.39186ZM8.09598 0.405493L8.16998 0.978011C7.96728 1.06305 7.82282 1.25432 7.80804 1.48017L6.84048 1.48904C7.09747 0.980671 7.54859 0.586806 8.09598 0.405493Z" fill="#315D80"/>
</g>
<defs>
<clipPath id="clip0_6721_2565">
<rect width="20" height="20" fill="white"/>
</clipPath>
</defs>
</svg>
