<svg width="20" height="20" viewBox="0 0 20 20" fill="none" xmlns="http://www.w3.org/2000/svg">
<g clip-path="url(#clip0_6721_2665)">
<path fill-rule="evenodd" clip-rule="evenodd" d="M9.92535 10.9503C10.6488 10.9503 11.356 11.1648 11.9575 11.5667C12.559 11.9687 13.0278 12.5399 13.3046 13.2083C13.5815 13.8766 13.6539 14.6121 13.5128 15.3216C13.3716 16.0311 13.0233 16.6828 12.5117 17.1944C12.0002 17.7059 11.3485 18.0543 10.6389 18.1954C9.92941 18.3366 9.19397 18.2641 8.52561 17.9873C7.85726 17.7104 7.286 17.2416 6.88409 16.6401C6.48218 16.0386 6.26766 15.3314 6.26766 14.608C6.26766 13.6379 6.65302 12.7076 7.33897 12.0216C8.02492 11.3357 8.95527 10.9503 9.92535 10.9503ZM14.0713 5.58246V6.17727H18.3757C18.4274 6.17716 18.4771 6.15655 18.5137 6.11995C18.5503 6.08334 18.5709 6.03372 18.571 5.98195V5.77777C18.5709 5.726 18.5503 5.67639 18.5137 5.63978C18.4771 5.60317 18.4274 5.58256 18.3757 5.58246H14.0713ZM9.62469 2.43012H10.3753C10.4271 2.43022 10.4767 2.45083 10.5133 2.48744C10.5499 2.52404 10.5705 2.57366 10.5706 2.62543V3.3341H11.2791C11.3309 3.33419 11.3805 3.3548 11.4171 3.39141C11.4538 3.42802 11.4744 3.47764 11.4745 3.52941V4.28C11.4744 4.33177 11.4538 4.3814 11.4171 4.418C11.3805 4.45461 11.3309 4.47522 11.2791 4.47531H10.5706V5.18383C10.5705 5.2356 10.5499 5.28521 10.5133 5.32182C10.4767 5.35843 10.4271 5.37904 10.3753 5.37914H9.62469C9.57292 5.37904 9.5233 5.35843 9.4867 5.32182C9.45009 5.28521 9.42948 5.2356 9.42937 5.18383V4.47531H8.72086C8.66909 4.47522 8.61946 4.45461 8.58286 4.418C8.54625 4.3814 8.52564 4.33177 8.52555 4.28V3.52941C8.52564 3.47764 8.54625 3.42802 8.58286 3.39141C8.61946 3.3548 8.66909 3.33419 8.72086 3.3341H9.42937V2.62559C9.42948 2.57382 9.45009 2.5242 9.4867 2.48759C9.5233 2.45099 9.57292 2.43022 9.62469 2.43012ZM13.3291 0.625H6.67086C6.61909 0.625103 6.56947 0.645714 6.53287 0.68232C6.49626 0.718926 6.47565 0.768544 6.47555 0.820312V12.2044C6.81632 11.715 7.25736 11.3037 7.76934 10.9979C8.28132 10.6921 8.85253 10.4987 9.445 10.4307C9.33355 10.2646 9.18291 10.1285 9.00639 10.0345C8.82987 9.94044 8.6329 9.89131 8.43289 9.89144C8.36037 9.89144 8.29082 9.86264 8.23954 9.81136C8.18826 9.76008 8.15945 9.69053 8.15945 9.61801C8.15945 9.54549 8.18826 9.47594 8.23954 9.42466C8.29082 9.37338 8.36037 9.34457 8.43289 9.34457C8.73079 9.34442 9.02388 9.4197 9.28485 9.56337C9.54581 9.70705 9.76616 9.91445 9.92535 10.1663C10.0846 9.91442 10.3049 9.707 10.5659 9.56332C10.8269 9.41965 11.12 9.34439 11.418 9.34457C11.4905 9.34457 11.56 9.37338 11.6113 9.42466C11.6626 9.47594 11.6914 9.54549 11.6914 9.61801C11.6914 9.69053 11.6626 9.76008 11.6113 9.81136C11.56 9.86264 11.4905 9.89144 11.418 9.89144C11.218 9.89131 11.021 9.94044 10.8445 10.0345C10.668 10.1285 10.5173 10.2646 10.4059 10.4307C11.0442 10.5041 11.6572 10.7228 12.1978 11.0699C12.7384 11.4171 13.1923 11.8835 13.5246 12.4334V0.820312C13.5245 0.76851 13.5039 0.718862 13.4672 0.682251C13.4306 0.645639 13.3809 0.625052 13.3291 0.625ZM10 6.4798C9.49069 6.4798 8.99282 6.32878 8.56934 6.04582C8.14587 5.76286 7.81581 5.36068 7.6209 4.89014C7.426 4.4196 7.375 3.90183 7.47436 3.40231C7.57372 2.90278 7.81898 2.44394 8.17912 2.0838C8.53925 1.72367 8.9981 1.47841 9.49762 1.37905C9.99714 1.27969 10.5149 1.33068 10.9855 1.52559C11.456 1.72049 11.8582 2.05055 12.1411 2.47403C12.4241 2.8975 12.5751 3.39538 12.5751 3.90469C12.5751 4.58765 12.3038 5.24264 11.8209 5.72557C11.338 6.2085 10.683 6.4798 10 6.4798ZM15.5352 10.8338H16.7048C16.7566 10.8339 16.8062 10.8545 16.8428 10.8911C16.8794 10.9278 16.9 10.9774 16.9001 11.0291V12.1988C16.9 12.2506 16.8794 12.3002 16.8428 12.3368C16.8062 12.3734 16.7566 12.394 16.7048 12.3941H15.5352C15.4834 12.394 15.4338 12.3734 15.3972 12.3368C15.3605 12.3002 15.3399 12.2506 15.3398 12.1988V11.0291C15.3399 10.9774 15.3605 10.9277 15.3972 10.8911C15.4338 10.8545 15.4834 10.8339 15.5352 10.8338ZM3.29492 10.8338H4.46484C4.51661 10.8339 4.56623 10.8545 4.60284 10.8911C4.63944 10.9278 4.66005 10.9774 4.66016 11.0291V12.1988C4.66005 12.2506 4.63944 12.3002 4.60284 12.3368C4.56623 12.3734 4.51661 12.394 4.46484 12.3941H3.29504C3.24327 12.394 3.19365 12.3734 3.15705 12.3368C3.12044 12.3002 3.09983 12.2506 3.09973 12.1988V11.0291C3.09983 10.9774 3.12044 10.9278 3.15705 10.8911C3.19365 10.8545 3.24315 10.8339 3.29492 10.8338ZM3.29492 7.86215H4.46484C4.51661 7.86225 4.56623 7.88286 4.60284 7.91947C4.63944 7.95607 4.66005 8.00569 4.66016 8.05746V9.22711C4.66006 9.27888 4.63946 9.32851 4.60285 9.36511C4.56624 9.40172 4.51662 9.42233 4.46484 9.42242H3.29504C3.24327 9.42233 3.19364 9.40172 3.15703 9.36511C3.12043 9.32851 3.09982 9.27888 3.09973 9.22711V8.05746C3.09983 8.00569 3.12044 7.95607 3.15705 7.91947C3.19365 7.88286 3.24315 7.86225 3.29492 7.86215ZM15.5352 7.86215H16.7048C16.7566 7.86225 16.8062 7.88286 16.8428 7.91947C16.8794 7.95607 16.9 8.00569 16.9001 8.05746V9.22711C16.9 9.27888 16.8794 9.32851 16.8428 9.36511C16.8062 9.40172 16.7566 9.42233 16.7048 9.42242H15.5352C15.4834 9.42234 15.4338 9.40173 15.3971 9.36512C15.3605 9.32851 15.3399 9.27888 15.3398 9.22711V8.05746C15.3399 8.00569 15.3605 7.95606 15.3972 7.91946C15.4338 7.88285 15.4834 7.86224 15.5352 7.86215ZM5.92867 6.72414H1.83105V18.2333H5.92871V16.1877C5.52918 16.1592 5.15527 15.9804 4.88229 15.6873C4.60932 15.3942 4.45754 15.0085 4.45754 14.608C4.45754 14.2074 4.60932 13.8218 4.88229 13.5287C5.15527 13.2355 5.52918 13.0567 5.92871 13.0283L5.92867 6.72414ZM18.1689 18.2333V6.72414H14.0713V13.046C14.4408 13.1079 14.7764 13.2988 15.0185 13.5848C15.2606 13.8708 15.3934 14.2333 15.3934 14.608C15.3934 14.9826 15.2606 15.3452 15.0185 15.6312C14.7764 15.9171 14.4408 16.108 14.0713 16.1699V18.2333H18.1689ZM13.5244 18.2333V16.7826C13.1623 17.3801 12.6576 17.8786 12.0557 18.2333H13.5244ZM6.47559 17.0117V18.2334H7.79512C7.27274 17.9255 6.82272 17.5089 6.47559 17.0117ZM19.375 19.1797V18.9755C19.3749 18.9237 19.3543 18.8741 19.3177 18.8375C19.2811 18.8009 19.2315 18.7803 19.1797 18.7802H10.4482C10.101 18.8232 9.74971 18.8232 9.40246 18.7802H0.820312C0.768544 18.7803 0.718926 18.8009 0.68232 18.8375C0.645714 18.8741 0.625103 18.9237 0.625 18.9755V19.1797C0.625103 19.2315 0.645714 19.2811 0.68232 19.3177C0.718926 19.3543 0.768544 19.3749 0.820312 19.375H19.1797C19.2315 19.3749 19.2811 19.3543 19.3177 19.3177C19.3543 19.2811 19.3749 19.2315 19.375 19.1797ZM5.92867 5.58246H1.62434C1.57257 5.58256 1.52295 5.60317 1.48634 5.63978C1.44974 5.67639 1.42913 5.726 1.42902 5.77777V5.98195C1.42913 6.03372 1.44974 6.08334 1.48634 6.11995C1.52295 6.15655 1.57257 6.17716 1.62434 6.17727H5.92867V5.58246ZM14.0055 13.5898C14.2421 13.6354 14.4556 13.7619 14.609 13.9477C14.7625 14.1335 14.8465 14.367 14.8465 14.608C14.8465 14.849 14.7625 15.0825 14.609 15.2683C14.4556 15.4541 14.2421 15.5806 14.0055 15.6261C14.1711 14.9575 14.1711 14.2585 14.0055 13.5898ZM5.84531 13.5898C5.67969 14.2585 5.67969 14.9575 5.84531 15.6261C5.60864 15.5806 5.39522 15.4541 5.24174 15.2683C5.08825 15.0825 5.00429 14.849 5.00429 14.608C5.00429 14.367 5.08825 14.1335 5.24174 13.9477C5.39522 13.7619 5.60864 13.6354 5.84531 13.5898ZM8.52023 16.0261C8.65967 16.2764 8.86345 16.4849 9.11049 16.6301C9.35754 16.7753 9.63888 16.8518 9.92543 16.8518C10.212 16.8518 10.4933 16.7753 10.7404 16.6301C10.9874 16.4849 11.1912 16.2764 11.3306 16.0261C11.365 15.9629 11.3731 15.8888 11.3531 15.8198C11.3331 15.7507 11.2866 15.6924 11.2238 15.6574C11.1609 15.6225 11.0869 15.6138 11.0177 15.6332C10.9485 15.6527 10.8897 15.6987 10.8543 15.7612C10.7617 15.9261 10.6268 16.0635 10.4636 16.159C10.3003 16.2546 10.1146 16.305 9.92543 16.305C9.73627 16.305 9.55051 16.2546 9.38727 16.159C9.22403 16.0635 9.08918 15.9261 8.9966 15.7612C8.96114 15.6987 8.90241 15.6527 8.8332 15.6332C8.764 15.6138 8.68992 15.6225 8.6271 15.6574C8.56428 15.6924 8.5178 15.7507 8.49779 15.8198C8.47777 15.8888 8.48584 15.9629 8.52023 16.0261ZM9.20187 14.5165C9.20187 14.274 9.10555 14.0415 8.93409 13.87C8.76264 13.6986 8.53009 13.6022 8.28762 13.6022C8.04514 13.6022 7.8126 13.6986 7.64114 13.87C7.46968 14.0415 7.37336 14.274 7.37336 14.5165C7.37336 14.589 7.40217 14.6586 7.45345 14.7098C7.50473 14.7611 7.57428 14.7899 7.6468 14.7899C7.71932 14.7899 7.78887 14.7611 7.84015 14.7098C7.89143 14.6586 7.92023 14.589 7.92023 14.5165C7.92023 14.419 7.95894 14.3256 8.02784 14.2567C8.09674 14.1878 8.19018 14.1491 8.28762 14.1491C8.38505 14.1491 8.4785 14.1878 8.5474 14.2567C8.61629 14.3256 8.655 14.419 8.655 14.5165C8.655 14.589 8.68381 14.6586 8.73509 14.7098C8.78637 14.7611 8.85592 14.7899 8.92844 14.7899C9.00096 14.7899 9.07051 14.7611 9.12179 14.7098C9.17307 14.6586 9.20187 14.589 9.20187 14.5165ZM12.4775 14.5165C12.4775 14.274 12.3812 14.0415 12.2097 13.87C12.0383 13.6986 11.8057 13.6022 11.5632 13.6022C11.3208 13.6022 11.0882 13.6986 10.9168 13.87C10.7453 14.0415 10.649 14.274 10.649 14.5165C10.649 14.589 10.6778 14.6586 10.7291 14.7098C10.7804 14.7611 10.8499 14.7899 10.9224 14.7899C10.9949 14.7899 11.0645 14.7611 11.1158 14.7098C11.1671 14.6586 11.1959 14.589 11.1959 14.5165C11.1959 14.4682 11.2054 14.4205 11.2238 14.3759C11.2423 14.3313 11.2693 14.2908 11.3035 14.2567C11.3376 14.2226 11.3781 14.1955 11.4227 14.1771C11.4672 14.1586 11.515 14.1491 11.5632 14.1491C11.6115 14.1491 11.6593 14.1586 11.7038 14.1771C11.7484 14.1955 11.7889 14.2226 11.823 14.2567C11.8571 14.2908 11.8842 14.3313 11.9027 14.3759C11.9211 14.4205 11.9306 14.4682 11.9306 14.5165C11.9306 14.589 11.9594 14.6586 12.0107 14.7098C12.062 14.7611 12.1315 14.7899 12.2041 14.7899C12.2766 14.7899 12.3461 14.7611 12.3974 14.7098C12.4487 14.6586 12.4775 14.589 12.4775 14.5165Z" fill="#6B5E7A"/>
<path d="M9.11054 16.6291C8.86349 16.4839 8.65971 16.2754 8.52028 16.0251C8.48588 15.9619 8.47781 15.8878 8.49783 15.8188C8.51784 15.7497 8.56432 15.6914 8.62714 15.6565C8.68997 15.6215 8.76404 15.6128 8.83325 15.6323C8.90245 15.6517 8.96118 15.6977 8.99664 15.7602C9.08923 15.9251 9.22407 16.0625 9.38731 16.158C9.55056 16.2536 9.73631 16.304 9.92547 16.304C10.1146 16.304 10.3004 16.2536 10.4636 16.158C10.6269 16.0625 10.7617 15.9251 10.8543 15.7602C10.8898 15.6977 10.9485 15.6517 11.0177 15.6323C11.0869 15.6128 11.161 15.6215 11.2238 15.6565C11.2866 15.6914 11.3331 15.7497 11.3531 15.8188C11.3731 15.8878 11.3651 15.9619 11.3307 16.0251C11.1912 16.2754 10.9875 16.4839 10.7404 16.6291C10.4934 16.7743 10.212 16.8508 9.92547 16.8508C9.63893 16.8508 9.35758 16.7743 9.11054 16.6291Z" fill="#F8B195"/>
<path d="M8.93414 13.869C9.10559 14.0405 9.20192 14.273 9.20192 14.5155C9.20192 14.588 9.17311 14.6576 9.12183 14.7088C9.07055 14.7601 9.001 14.7889 8.92848 14.7889C8.85596 14.7889 8.78641 14.7601 8.73513 14.7088C8.68385 14.6576 8.65504 14.588 8.65504 14.5155C8.65504 14.4181 8.61634 14.3246 8.54744 14.2557C8.47854 14.1868 8.3851 14.1481 8.28766 14.1481C8.19023 14.1481 8.09678 14.1868 8.02788 14.2557C7.95898 14.3246 7.92028 14.4181 7.92028 14.5155C7.92028 14.588 7.89147 14.6576 7.84019 14.7088C7.78891 14.7601 7.71936 14.7889 7.64684 14.7889C7.57432 14.7889 7.50477 14.7601 7.45349 14.7088C7.40221 14.6576 7.3734 14.588 7.3734 14.5155C7.3734 14.273 7.46973 14.0405 7.64118 13.869C7.81264 13.6976 8.04519 13.6012 8.28766 13.6012C8.53014 13.6012 8.76268 13.6976 8.93414 13.869Z" fill="#F8B195"/>
<path d="M12.2098 13.869C12.3812 14.0405 12.4775 14.273 12.4775 14.5155C12.4775 14.588 12.4487 14.6576 12.3975 14.7088C12.3462 14.7601 12.2766 14.7889 12.2041 14.7889C12.1316 14.7889 12.062 14.7601 12.0108 14.7088C11.9595 14.6576 11.9307 14.588 11.9307 14.5155C11.9307 14.4672 11.9212 14.4195 11.9027 14.3749C11.8842 14.3303 11.8572 14.2898 11.8231 14.2557C11.789 14.2216 11.7485 14.1945 11.7039 14.1761C11.6593 14.1576 11.6115 14.1481 11.5633 14.1481C11.515 14.1481 11.4673 14.1576 11.4227 14.1761C11.3781 14.1945 11.3376 14.2216 11.3035 14.2557C11.2694 14.2898 11.2423 14.3303 11.2239 14.3749C11.2054 14.4195 11.1959 14.4672 11.1959 14.5155C11.1959 14.588 11.1671 14.6576 11.1158 14.7088C11.0645 14.7601 10.995 14.7889 10.9225 14.7889C10.8499 14.7889 10.7804 14.7601 10.7291 14.7088C10.6778 14.6576 10.649 14.588 10.649 14.5155C10.649 14.273 10.7454 14.0405 10.9168 13.869C11.0883 13.6976 11.3208 13.6012 11.5633 13.6012C11.8058 13.6012 12.0383 13.6976 12.2098 13.869Z" fill="#F8B195"/>
<path d="M14.609 13.9477C14.4556 13.7619 14.2421 13.6354 14.0055 13.5898C14.1711 14.2585 14.1711 14.9575 14.0055 15.6261C14.2421 15.5806 14.4556 15.4541 14.609 15.2683C14.7625 15.0825 14.8465 14.849 14.8465 14.608C14.8465 14.367 14.7625 14.1335 14.609 13.9477Z" fill="#F8B195"/>
<path fill-rule="evenodd" clip-rule="evenodd" d="M9.92535 10.9503C10.6488 10.9503 11.356 11.1648 11.9575 11.5667C12.559 11.9687 13.0278 12.5399 13.3046 13.2083C13.5815 13.8766 13.6539 14.6121 13.5128 15.3216C13.3716 16.0311 13.0233 16.6828 12.5117 17.1944C12.0002 17.7059 11.3485 18.0543 10.6389 18.1954C9.92941 18.3366 9.19397 18.2641 8.52561 17.9873C7.85726 17.7104 7.286 17.2416 6.88409 16.6401C6.48218 16.0386 6.26766 15.3314 6.26766 14.608C6.26766 13.6379 6.65302 12.7076 7.33897 12.0216C8.02492 11.3357 8.95527 10.9503 9.92535 10.9503ZM14.0713 5.58246V6.17727H18.3757C18.4274 6.17716 18.4771 6.15655 18.5137 6.11995C18.5503 6.08334 18.5709 6.03372 18.571 5.98195V5.77777C18.5709 5.726 18.5503 5.67639 18.5137 5.63978C18.4771 5.60317 18.4274 5.58256 18.3757 5.58246H14.0713ZM9.62469 2.43012H10.3753C10.4271 2.43022 10.4767 2.45083 10.5133 2.48744C10.5499 2.52404 10.5705 2.57366 10.5706 2.62543V3.3341H11.2791C11.3309 3.33419 11.3805 3.3548 11.4171 3.39141C11.4538 3.42802 11.4744 3.47764 11.4745 3.52941V4.28C11.4744 4.33177 11.4538 4.3814 11.4171 4.418C11.3805 4.45461 11.3309 4.47522 11.2791 4.47531H10.5706V5.18383C10.5705 5.2356 10.5499 5.28521 10.5133 5.32182C10.4767 5.35843 10.4271 5.37904 10.3753 5.37914H9.62469C9.57292 5.37904 9.5233 5.35843 9.4867 5.32182C9.45009 5.28521 9.42948 5.2356 9.42937 5.18383V4.47531H8.72086C8.66909 4.47522 8.61946 4.45461 8.58286 4.418C8.54625 4.3814 8.52564 4.33177 8.52555 4.28V3.52941C8.52564 3.47764 8.54625 3.42802 8.58286 3.39141C8.61946 3.3548 8.66909 3.33419 8.72086 3.3341H9.42937V2.62559C9.42948 2.57382 9.45009 2.5242 9.4867 2.48759C9.5233 2.45099 9.57292 2.43022 9.62469 2.43012ZM13.3291 0.625H6.67086C6.61909 0.625103 6.56947 0.645714 6.53287 0.68232C6.49626 0.718926 6.47565 0.768544 6.47555 0.820312V12.2044C6.81632 11.715 7.25736 11.3037 7.76934 10.9979C8.28132 10.6921 8.85253 10.4987 9.445 10.4307C9.33355 10.2646 9.18291 10.1285 9.00639 10.0345C8.82987 9.94044 8.6329 9.89131 8.43289 9.89144C8.36037 9.89144 8.29082 9.86264 8.23954 9.81136C8.18826 9.76008 8.15945 9.69053 8.15945 9.61801C8.15945 9.54549 8.18826 9.47594 8.23954 9.42466C8.29082 9.37338 8.36037 9.34457 8.43289 9.34457C8.73079 9.34442 9.02388 9.4197 9.28485 9.56337C9.54581 9.70705 9.76616 9.91445 9.92535 10.1663C10.0846 9.91442 10.3049 9.707 10.5659 9.56332C10.8269 9.41965 11.12 9.34439 11.418 9.34457C11.4905 9.34457 11.56 9.37338 11.6113 9.42466C11.6626 9.47594 11.6914 9.54549 11.6914 9.61801C11.6914 9.69053 11.6626 9.76008 11.6113 9.81136C11.56 9.86264 11.4905 9.89144 11.418 9.89144C11.218 9.89131 11.021 9.94044 10.8445 10.0345C10.668 10.1285 10.5173 10.2646 10.4059 10.4307C11.0442 10.5041 11.6572 10.7228 12.1978 11.0699C12.7384 11.4171 13.1923 11.8835 13.5246 12.4334V0.820312C13.5245 0.76851 13.5039 0.718862 13.4672 0.682251C13.4306 0.645639 13.3809 0.625052 13.3291 0.625ZM10 6.4798C9.49069 6.4798 8.99282 6.32878 8.56934 6.04582C8.14587 5.76286 7.81581 5.36068 7.6209 4.89014C7.426 4.4196 7.375 3.90183 7.47436 3.40231C7.57372 2.90278 7.81898 2.44394 8.17912 2.0838C8.53925 1.72367 8.9981 1.47841 9.49762 1.37905C9.99714 1.27969 10.5149 1.33068 10.9855 1.52559C11.456 1.72049 11.8582 2.05055 12.1411 2.47403C12.4241 2.8975 12.5751 3.39538 12.5751 3.90469C12.5751 4.58765 12.3038 5.24264 11.8209 5.72557C11.338 6.2085 10.683 6.4798 10 6.4798ZM15.5352 10.8338H16.7048C16.7566 10.8339 16.8062 10.8545 16.8428 10.8911C16.8794 10.9278 16.9 10.9774 16.9001 11.0291V12.1988C16.9 12.2506 16.8794 12.3002 16.8428 12.3368C16.8062 12.3734 16.7566 12.394 16.7048 12.3941H15.5352C15.4834 12.394 15.4338 12.3734 15.3972 12.3368C15.3605 12.3002 15.3399 12.2506 15.3398 12.1988V11.0291C15.3399 10.9774 15.3605 10.9277 15.3972 10.8911C15.4338 10.8545 15.4834 10.8339 15.5352 10.8338ZM3.29492 10.8338H4.46484C4.51661 10.8339 4.56623 10.8545 4.60284 10.8911C4.63944 10.9278 4.66005 10.9774 4.66016 11.0291V12.1988C4.66005 12.2506 4.63944 12.3002 4.60284 12.3368C4.56623 12.3734 4.51661 12.394 4.46484 12.3941H3.29504C3.24327 12.394 3.19365 12.3734 3.15705 12.3368C3.12044 12.3002 3.09983 12.2506 3.09973 12.1988V11.0291C3.09983 10.9774 3.12044 10.9278 3.15705 10.8911C3.19365 10.8545 3.24315 10.8339 3.29492 10.8338ZM3.29492 7.86215H4.46484C4.51661 7.86225 4.56623 7.88286 4.60284 7.91947C4.63944 7.95607 4.66005 8.00569 4.66016 8.05746V9.22711C4.66006 9.27888 4.63946 9.32851 4.60285 9.36511C4.56624 9.40172 4.51662 9.42233 4.46484 9.42242H3.29504C3.24327 9.42233 3.19364 9.40172 3.15703 9.36511C3.12043 9.32851 3.09982 9.27888 3.09973 9.22711V8.05746C3.09983 8.00569 3.12044 7.95607 3.15705 7.91947C3.19365 7.88286 3.24315 7.86225 3.29492 7.86215ZM15.5352 7.86215H16.7048C16.7566 7.86225 16.8062 7.88286 16.8428 7.91947C16.8794 7.95607 16.9 8.00569 16.9001 8.05746V9.22711C16.9 9.27888 16.8794 9.32851 16.8428 9.36511C16.8062 9.40172 16.7566 9.42233 16.7048 9.42242H15.5352C15.4834 9.42234 15.4338 9.40173 15.3971 9.36512C15.3605 9.32851 15.3399 9.27888 15.3398 9.22711V8.05746C15.3399 8.00569 15.3605 7.95606 15.3972 7.91946C15.4338 7.88285 15.4834 7.86224 15.5352 7.86215ZM5.92867 6.72414H1.83105V18.2333H5.92871V16.1877C5.52918 16.1592 5.15527 15.9804 4.88229 15.6873C4.60932 15.3942 4.45754 15.0085 4.45754 14.608C4.45754 14.2074 4.60932 13.8218 4.88229 13.5287C5.15527 13.2355 5.52918 13.0567 5.92871 13.0283L5.92867 6.72414ZM18.1689 18.2333V6.72414H14.0713V13.046C14.4408 13.1079 14.7764 13.2988 15.0185 13.5848C15.2606 13.8708 15.3934 14.2333 15.3934 14.608C15.3934 14.9826 15.2606 15.3452 15.0185 15.6312C14.7764 15.9171 14.4408 16.108 14.0713 16.1699V18.2333H18.1689ZM13.5244 18.2333V16.7826C13.1623 17.3801 12.6576 17.8786 12.0557 18.2333H13.5244ZM6.47559 17.0117V18.2334H7.79512C7.27274 17.9255 6.82272 17.5089 6.47559 17.0117ZM19.375 19.1797V18.9755C19.3749 18.9237 19.3543 18.8741 19.3177 18.8375C19.2811 18.8009 19.2315 18.7803 19.1797 18.7802H10.4482C10.101 18.8232 9.74971 18.8232 9.40246 18.7802H0.820312C0.768544 18.7803 0.718926 18.8009 0.68232 18.8375C0.645714 18.8741 0.625103 18.9237 0.625 18.9755V19.1797C0.625103 19.2315 0.645714 19.2811 0.68232 19.3177C0.718926 19.3543 0.768544 19.3749 0.820312 19.375H19.1797C19.2315 19.3749 19.2811 19.3543 19.3177 19.3177C19.3543 19.2811 19.3749 19.2315 19.375 19.1797ZM5.92867 5.58246H1.62434C1.57257 5.58256 1.52295 5.60317 1.48634 5.63978C1.44974 5.67639 1.42913 5.726 1.42902 5.77777V5.98195C1.42913 6.03372 1.44974 6.08334 1.48634 6.11995C1.52295 6.15655 1.57257 6.17716 1.62434 6.17727H5.92867V5.58246ZM14.0055 13.5898C14.2421 13.6354 14.4556 13.7619 14.609 13.9477C14.7625 14.1335 14.8465 14.367 14.8465 14.608C14.8465 14.849 14.7625 15.0825 14.609 15.2683C14.4556 15.4541 14.2421 15.5806 14.0055 15.6261C14.1711 14.9575 14.1711 14.2585 14.0055 13.5898ZM5.84531 13.5898C5.67969 14.2585 5.67969 14.9575 5.84531 15.6261C5.60864 15.5806 5.39522 15.4541 5.24174 15.2683C5.08825 15.0825 5.00429 14.849 5.00429 14.608C5.00429 14.367 5.08825 14.1335 5.24174 13.9477C5.39522 13.7619 5.60864 13.6354 5.84531 13.5898ZM8.52023 16.0261C8.65967 16.2764 8.86345 16.4849 9.11049 16.6301C9.35754 16.7753 9.63888 16.8518 9.92543 16.8518C10.212 16.8518 10.4933 16.7753 10.7404 16.6301C10.9874 16.4849 11.1912 16.2764 11.3306 16.0261C11.365 15.9629 11.3731 15.8888 11.3531 15.8198C11.3331 15.7507 11.2866 15.6924 11.2238 15.6574C11.1609 15.6225 11.0869 15.6138 11.0177 15.6332C10.9485 15.6527 10.8897 15.6987 10.8543 15.7612C10.7617 15.9261 10.6268 16.0635 10.4636 16.159C10.3003 16.2546 10.1146 16.305 9.92543 16.305C9.73627 16.305 9.55051 16.2546 9.38727 16.159C9.22403 16.0635 9.08918 15.9261 8.9966 15.7612C8.96114 15.6987 8.90241 15.6527 8.8332 15.6332C8.764 15.6138 8.68992 15.6225 8.6271 15.6574C8.56428 15.6924 8.5178 15.7507 8.49779 15.8198C8.47777 15.8888 8.48584 15.9629 8.52023 16.0261ZM9.20187 14.5165C9.20187 14.274 9.10555 14.0415 8.93409 13.87C8.76264 13.6986 8.53009 13.6022 8.28762 13.6022C8.04514 13.6022 7.8126 13.6986 7.64114 13.87C7.46968 14.0415 7.37336 14.274 7.37336 14.5165C7.37336 14.589 7.40217 14.6586 7.45345 14.7098C7.50473 14.7611 7.57428 14.7899 7.6468 14.7899C7.71932 14.7899 7.78887 14.7611 7.84015 14.7098C7.89143 14.6586 7.92023 14.589 7.92023 14.5165C7.92023 14.419 7.95894 14.3256 8.02784 14.2567C8.09674 14.1878 8.19018 14.1491 8.28762 14.1491C8.38505 14.1491 8.4785 14.1878 8.5474 14.2567C8.61629 14.3256 8.655 14.419 8.655 14.5165C8.655 14.589 8.68381 14.6586 8.73509 14.7098C8.78637 14.7611 8.85592 14.7899 8.92844 14.7899C9.00096 14.7899 9.07051 14.7611 9.12179 14.7098C9.17307 14.6586 9.20187 14.589 9.20187 14.5165ZM12.4775 14.5165C12.4775 14.274 12.3812 14.0415 12.2097 13.87C12.0383 13.6986 11.8057 13.6022 11.5632 13.6022C11.3208 13.6022 11.0882 13.6986 10.9168 13.87C10.7453 14.0415 10.649 14.274 10.649 14.5165C10.649 14.589 10.6778 14.6586 10.7291 14.7098C10.7804 14.7611 10.8499 14.7899 10.9224 14.7899C10.9949 14.7899 11.0645 14.7611 11.1158 14.7098C11.1671 14.6586 11.1959 14.589 11.1959 14.5165C11.1959 14.4682 11.2054 14.4205 11.2238 14.3759C11.2423 14.3313 11.2693 14.2908 11.3035 14.2567C11.3376 14.2226 11.3781 14.1955 11.4227 14.1771C11.4672 14.1586 11.515 14.1491 11.5632 14.1491C11.6115 14.1491 11.6593 14.1586 11.7038 14.1771C11.7484 14.1955 11.7889 14.2226 11.823 14.2567C11.8571 14.2908 11.8842 14.3313 11.9027 14.3759C11.9211 14.4205 11.9306 14.4682 11.9306 14.5165C11.9306 14.589 11.9594 14.6586 12.0107 14.7098C12.062 14.7611 12.1315 14.7899 12.2041 14.7899C12.2766 14.7899 12.3461 14.7611 12.3974 14.7098C12.4487 14.6586 12.4775 14.589 12.4775 14.5165Z" fill="#6B5E7A"/>
<path d="M14.609 13.9477C14.4556 13.7619 14.2421 13.6354 14.0055 13.5898C14.1711 14.2585 14.1711 14.9575 14.0055 15.6261C14.2421 15.5806 14.4556 15.4541 14.609 15.2683C14.7625 15.0825 14.8465 14.849 14.8465 14.608C14.8465 14.367 14.7625 14.1335 14.609 13.9477Z" fill="#F8B195"/>
<path d="M5.84529 15.6268C5.67966 14.9581 5.67966 14.2592 5.84529 13.5905C5.60862 13.636 5.3952 13.7625 5.24172 13.9484C5.08823 14.1342 5.00427 14.3676 5.00427 14.6086C5.00427 14.8496 5.08823 15.0831 5.24172 15.2689C5.3952 15.4547 5.60862 15.5813 5.84529 15.6268Z" fill="#F8B195"/>
</g>
<defs>
<clipPath id="clip0_6721_2665">
<rect width="20" height="20" fill="white"/>
</clipPath>
</defs>
</svg>
