<svg width="24" height="24" viewBox="0 0 24 24" fill="none" xmlns="http://www.w3.org/2000/svg">
<path d="M19.5 12.75C19.5 12.1533 19.2629 11.581 18.841 11.159C18.419 10.7371 17.8467 10.5 17.25 10.5H6.75C6.15326 10.4543 5.56279 10.6474 5.10849 11.037C4.65418 11.4266 4.37325 11.9808 4.3275 12.5775C4.28175 13.1742 4.47493 13.7647 4.86453 14.219C5.25414 14.6733 5.80826 14.9543 6.405 15C6.675 15.3375 7.5 16.8675 7.5 21.75C7.5 21.9489 7.57902 22.1397 7.71967 22.2803C7.86032 22.421 8.05109 22.5 8.25 22.5C8.44891 22.5 8.63968 22.421 8.78033 22.2803C8.92098 22.1397 9 21.9489 9 21.75C9 21.4875 9 21.2475 9 21H11.25V21.75C11.25 21.9489 11.329 22.1397 11.4697 22.2803C11.6103 22.421 11.8011 22.5 12 22.5C12.1989 22.5 12.3897 22.421 12.5303 22.2803C12.671 22.1397 12.75 21.9489 12.75 21.75V21H15V21.75C15 21.9489 15.079 22.1397 15.2197 22.2803C15.3603 22.421 15.5511 22.5 15.75 22.5C15.9489 22.5 16.1397 22.421 16.2803 22.2803C16.421 22.1397 16.5 21.9489 16.5 21.75C16.5 16.8675 17.325 15.3375 17.595 15C18.1301 14.917 18.6174 14.6438 18.9673 14.2305C19.3173 13.8172 19.5064 13.2915 19.5 12.75ZM15.8925 15C15.6995 15.4854 15.5514 15.9875 15.45 16.5H12.75V15H15.8925ZM8.1075 15H11.25V16.5H8.55C8.44863 15.9875 8.30051 15.4854 8.1075 15ZM8.9325 19.5C8.9325 18.945 8.8575 18.4575 8.7975 18H11.25V19.5H8.9325ZM12.75 19.5V18H15.2025C15.1425 18.4575 15.0975 18.945 15.0675 19.5H12.75ZM15.75 6V9H8.25V6H15.75ZM22.5 3.75V15.75C22.5 16.3467 22.2629 16.919 21.841 17.341C21.419 17.7629 20.8467 18 20.25 18H18.225C18.2979 17.3975 18.4337 16.8043 18.63 16.23C19.437 15.906 20.1064 15.3116 20.5235 14.5485C20.9406 13.7854 21.0795 12.9011 20.9164 12.0469C20.7534 11.1927 20.2985 10.4217 19.6297 9.86586C18.9608 9.31004 18.1196 9.00396 17.25 9V5.25C17.25 5.05109 17.171 4.86032 17.0303 4.71967C16.8897 4.57902 16.6989 4.5 16.5 4.5H7.5C7.30109 4.5 7.11032 4.57902 6.96967 4.71967C6.82902 4.86032 6.75 5.05109 6.75 5.25V9C5.88037 9.00396 5.03915 9.31004 4.37032 9.86586C3.70149 10.4217 3.24662 11.1927 3.08358 12.0469C2.92053 12.9011 3.05944 13.7854 3.47653 14.5485C3.89363 15.3116 4.56297 15.906 5.37 16.23C5.56631 16.8043 5.70205 17.3975 5.775 18H3.75C3.15326 18 2.58097 17.7629 2.15901 17.341C1.73705 16.919 1.5 16.3467 1.5 15.75V3.75C1.5 3.15326 1.73705 2.58097 2.15901 2.15901C2.58097 1.73705 3.15326 1.5 3.75 1.5H20.25C20.8467 1.5 21.419 1.73705 21.841 2.15901C22.2629 2.58097 22.5 3.15326 22.5 3.75Z" fill="#C06A87"/>
<path d="M15.75 9V6H8.25V9H15.75Z" fill="#315D80"/>
</svg>
