<svg width="20" height="20" viewBox="0 0 20 20" fill="none" xmlns="http://www.w3.org/2000/svg">
<g clip-path="url(#clip0_6721_2776)">
<path d="M1.79297 13.1842L4.85137 19.0463L7.48791 17.9198L3.15968 9.98438L1.79297 13.1842Z" fill="#F1D15B"/>
<path d="M0.176286 16.9704C-0.4343 18.3992 0.615984 19.9995 2.17616 19.9995C2.47145 19.9995 2.75893 19.9405 3.0304 19.8245L3.77137 19.5081L1.19849 14.5771L0.176286 16.9704Z" fill="#F1D15B"/>
<path d="M4.55581 6.7168L3.74609 8.61277L8.57078 17.4579L13.283 15.4451C10.031 14.288 5.71151 9.97553 4.55581 6.7168Z" fill="#C06A87"/>
<path d="M12.7116 10.7276C12.4831 10.4987 12.4831 10.1277 12.7116 9.89877L14.1444 8.46645C13.3914 7.55846 12.4879 6.64738 11.5355 5.85763L10.1032 7.29035C9.87573 7.51787 9.50407 7.5201 9.27436 7.29035C9.04586 7.06146 9.04586 6.69039 9.27436 6.4615L10.6016 5.13463C9.3199 4.21266 6.96103 2.83868 5.83708 3.96166C4.53951 5.25962 6.42689 8.50472 8.96188 11.0401C10.9301 13.0083 13.3264 14.586 14.9072 14.586C15.3622 14.586 15.7501 14.4551 16.0403 14.1649C17.1624 13.0418 15.7917 10.6853 14.8674 9.40037L13.5405 10.7276C13.313 10.9551 12.9414 10.9573 12.7116 10.7276Z" fill="#F1D15B"/>
<path d="M12.06 5.33105C13.1139 4.27721 13.2787 2.61248 12.4522 1.37232C11.8878 0.525894 10.8453 0.122795 9.85784 0.369654C9.54419 0.448165 9.35319 0.766113 9.4317 1.08016C9.51021 1.39381 9.82816 1.58481 10.1422 1.5063C10.65 1.37935 11.1867 1.58676 11.4773 2.02267C11.9948 2.79919 11.8917 3.84248 11.2316 4.50259L10.6004 5.1338C10.9101 5.35605 11.2226 5.59783 11.5343 5.8568L12.06 5.33105Z" fill="#C06A87"/>
<path d="M17.9787 8.52285C18.4146 8.81346 18.622 9.35014 18.495 9.85792C18.4165 10.172 18.6075 10.4899 18.9212 10.5684C19.2352 10.6469 19.5532 10.4563 19.6317 10.1423C19.8785 9.15484 19.4754 8.11233 18.629 7.54791C17.3889 6.7214 15.7241 6.88624 14.6703 7.94008L14.1445 8.46582C14.4035 8.77752 14.6453 9.09 14.8675 9.39975L15.4987 8.76854C16.1589 8.10842 17.2021 8.00492 17.9787 8.52285Z" fill="#C06A87"/>
<path d="M15.4143 5.41504L18.3828 2.44648C18.6116 2.21767 18.6116 1.84671 18.3828 1.6179C18.154 1.38909 17.783 1.38909 17.5542 1.6179L14.5857 4.58646C14.3569 4.81527 14.3569 5.18622 14.5857 5.41504C14.8144 5.64385 15.1854 5.64389 15.4143 5.41504Z" fill="#F1D15B"/>
<path d="M3.12692 2.14928H3.47846V2.50082C3.47846 2.82439 3.74078 3.08672 4.06436 3.08672C4.38793 3.08672 4.65025 2.82439 4.65025 2.50082V2.14928H5.0018C5.32537 2.14928 5.58769 1.88695 5.58769 1.56338C5.58769 1.2398 5.32537 0.977476 5.0018 0.977476H4.65025V0.586876C4.65025 0.263303 4.38793 0.000976562 4.06436 0.000976562C3.74078 0.000976562 3.47846 0.263303 3.47846 0.586876V0.977476H3.12692C2.80334 0.977476 2.54102 1.2398 2.54102 1.56338C2.54102 1.88695 2.80334 2.14928 3.12692 2.14928Z" fill="#F1D15B"/>
<path d="M19.4139 14.7265H19.0233V14.375C19.0233 14.0514 18.761 13.7891 18.4374 13.7891C18.1138 13.7891 17.8515 14.0514 17.8515 14.375V14.7265H17.5C17.1764 14.7265 16.9141 14.9888 16.9141 15.3124C16.9141 15.636 17.1764 15.8983 17.5 15.8983H17.8515V16.2498C17.8515 16.5734 18.1138 16.8357 18.4374 16.8357C18.761 16.8357 19.0233 16.5734 19.0233 16.2498V15.8983H19.4139C19.7375 15.8983 19.9998 15.636 19.9998 15.3124C19.9998 14.9888 19.7375 14.7265 19.4139 14.7265Z" fill="#F1D15B"/>
<path d="M15.3127 1.17278C15.6362 1.17278 15.8986 0.910449 15.8986 0.586876C15.8986 0.263303 15.6362 0.000976562 15.3127 0.000976562C14.9854 0.000976562 14.7266 0.266467 14.7266 0.586876C14.7266 0.910449 14.9891 1.17278 15.3127 1.17278Z" fill="#F1D15B"/>
<path d="M18.1641 5.31344C18.1641 5.63701 18.4266 5.89934 18.7502 5.89934C19.0737 5.89934 19.3361 5.63701 19.3361 5.31344C19.3361 4.99256 19.0765 4.72754 18.7498 4.72754C18.4262 4.72754 18.1641 4.98987 18.1641 5.31344Z" fill="#F1D15B"/>
</g>
<defs>
<clipPath id="clip0_6721_2776">
<rect width="20" height="20" fill="white"/>
</clipPath>
</defs>
</svg>
