<svg width="20" height="20" viewBox="0 0 20 20" fill="none" xmlns="http://www.w3.org/2000/svg">
<g clip-path="url(#clip0_6721_2701)">
<path d="M12.3326 14.8332C12.3326 15.5999 11.1589 15.9999 9.99926 15.9999C8.83959 15.9999 7.66592 15.5999 7.66592 14.8332C7.66944 14.6733 7.72516 14.5189 7.82459 14.3936C6.68346 14.4522 5.54668 14.5768 4.41992 14.7666C5.60465 16.1556 7.26652 17.0507 9.07826 17.2756C9.15481 17.0946 9.28299 16.9401 9.44679 16.8316C9.61059 16.723 9.80274 16.6651 9.99926 16.6651C10.1958 16.6651 10.3879 16.723 10.5517 16.8316C10.7155 16.9401 10.8437 17.0946 10.9203 17.2756C12.732 17.0507 14.3939 16.1556 15.5786 14.7666C14.4518 14.5771 13.315 14.4529 12.1739 14.3946C12.2731 14.5196 12.3289 14.6736 12.3326 14.8332Z" fill="#9BB997"/>
<path d="M11 8.48429L14.2937 6.99996L11 5.51562V8.48429Z" fill="#F1D15B"/>
<path d="M2.72461 10.9213C2.87051 12.089 3.29637 13.2042 3.96594 14.1719C5.62796 13.8746 7.31111 13.7107 8.99928 13.6819V5.00025C9.00152 4.75656 9.09268 4.52207 9.25563 4.34085C9.41857 4.15963 9.64209 4.04415 9.88418 4.01611C10.1263 3.98807 10.3703 4.0494 10.5703 4.18857C10.7704 4.32775 10.9127 4.53519 10.9706 4.77192L14.6233 6.41792C14.7353 6.46854 14.8304 6.5504 14.8971 6.65369C14.9637 6.75698 14.9992 6.87731 14.9992 7.00025C14.9992 7.1232 14.9637 7.24353 14.8971 7.34682C14.8304 7.45011 14.7353 7.53197 14.6233 7.58259L10.9993 9.21559V13.6823C12.6874 13.711 14.3706 13.8749 16.0326 14.1723C16.7027 13.2046 17.129 12.0894 17.2753 10.9216C17.0944 10.845 16.9401 10.7168 16.8316 10.553C16.7231 10.3893 16.6652 10.1972 16.6652 10.0008C16.6652 9.80432 16.7231 9.61223 16.8316 9.44847C16.9401 9.2847 17.0944 9.15652 17.2753 9.07992C17.0746 7.46443 16.3405 5.96212 15.1893 4.81108C14.0382 3.66004 12.5358 2.9261 10.9203 2.72559C10.8437 2.90657 10.7155 3.06099 10.5517 3.16956C10.3879 3.27812 10.1958 3.33602 9.99928 3.33602C9.80277 3.33602 9.61061 3.27812 9.44681 3.16956C9.28301 3.06099 9.15483 2.90657 9.07828 2.72559C7.46306 2.92636 5.96102 3.66037 4.81012 4.81132C3.65923 5.96228 2.9253 7.46436 2.72461 9.07959C2.9055 9.15619 3.05982 9.28437 3.16831 9.44813C3.2768 9.61189 3.33465 9.80398 3.33465 10.0004C3.33465 10.1969 3.2768 10.3889 3.16831 10.5527C3.05982 10.7165 2.9055 10.8447 2.72461 10.9213Z" fill="#9BB997"/>
<path d="M1.35835 9.358C1.3522 9.44212 1.31438 9.52078 1.25252 9.57812C1.19066 9.63546 1.10937 9.66722 1.02502 9.667C0.977735 9.66399 0.930348 9.67098 0.885949 9.68752C0.841551 9.70406 0.80114 9.72978 0.767353 9.763C0.735152 9.79354 0.709548 9.83036 0.69212 9.87118C0.674692 9.91199 0.665809 9.95595 0.666019 10.0003C0.666019 10.0887 0.701138 10.1735 0.76365 10.236C0.826162 10.2985 0.910947 10.3337 0.999353 10.3337C1.08655 10.3328 1.17108 10.3638 1.23714 10.4207C1.30321 10.4776 1.34629 10.5566 1.35835 10.643C1.51852 12.7112 2.41258 14.654 3.87923 16.121C5.34589 17.5879 7.28854 18.4824 9.35669 18.643C9.44087 18.6491 9.51961 18.6869 9.57702 18.7487C9.63443 18.8106 9.66624 18.8919 9.66602 18.9763C9.66311 19.0236 9.67012 19.0709 9.6866 19.1153C9.70307 19.1597 9.72865 19.2001 9.76169 19.234C9.79244 19.2659 9.82938 19.2912 9.87024 19.3083C9.91111 19.3255 9.95504 19.3341 9.99935 19.3337C10.0878 19.3337 10.1725 19.2985 10.2351 19.236C10.2976 19.1735 10.3327 19.0887 10.3327 19.0003C10.3318 18.9131 10.3628 18.8286 10.4197 18.7625C10.4766 18.6965 10.5557 18.6534 10.642 18.6413C12.7102 18.4812 14.653 17.5871 16.12 16.1205C17.587 14.6538 18.4814 12.7111 18.642 10.643C18.6481 10.5588 18.6859 10.4801 18.7477 10.4227C18.8096 10.3653 18.891 10.3334 18.9754 10.3337C19.0226 10.3367 19.07 10.3297 19.1144 10.3131C19.1588 10.2966 19.1992 10.2709 19.233 10.2377C19.2649 10.207 19.2902 10.1701 19.3074 10.1293C19.3245 10.0885 19.3331 10.0446 19.3327 10.0003C19.3327 9.91193 19.2976 9.82714 19.2351 9.76463C19.1725 9.70212 19.0878 9.667 18.9994 9.667H18.9727C18.8883 9.66722 18.807 9.63546 18.7452 9.57812C18.6833 9.52078 18.6455 9.44212 18.6394 9.358C18.4789 7.29025 17.5848 5.34789 16.1184 3.88129C14.652 2.41468 12.7097 1.52037 10.642 1.35966C10.5578 1.35359 10.4791 1.3158 10.4217 1.25394C10.3643 1.19207 10.3325 1.11073 10.3327 1.02633C10.3355 0.979039 10.3285 0.931673 10.312 0.887252C10.2956 0.842831 10.27 0.802329 10.237 0.76833C10.2064 0.736104 10.1696 0.710487 10.1287 0.693059C10.0878 0.675631 10.0438 0.666761 9.99935 0.666997C9.91095 0.666997 9.82616 0.702116 9.76365 0.764628C9.70114 0.82714 9.66602 0.911925 9.66602 1.00033C9.66687 1.08757 9.63595 1.17214 9.57903 1.23826C9.52211 1.30438 9.44308 1.34753 9.35669 1.35966C7.28878 1.52014 5.3463 2.41435 3.87967 3.88098C2.41304 5.34761 1.51883 7.29009 1.35835 9.358ZM9.30402 2.03166C9.3487 2.02748 9.39376 2.03251 9.43642 2.04645C9.47908 2.06038 9.51842 2.08292 9.55202 2.11266C9.5859 2.14218 9.61347 2.17824 9.63306 2.21869C9.65265 2.25913 9.66386 2.30311 9.66602 2.348C9.66602 2.4364 9.70114 2.52119 9.76365 2.5837C9.82616 2.64621 9.91095 2.68133 9.99935 2.68133C10.0878 2.68133 10.1725 2.64621 10.2351 2.5837C10.2976 2.52119 10.3327 2.4364 10.3327 2.348C10.3348 2.30318 10.346 2.25926 10.3655 2.21885C10.385 2.17845 10.4124 2.14239 10.4462 2.11286C10.48 2.08332 10.5194 2.0609 10.562 2.04695C10.6046 2.033 10.6497 2.0278 10.6944 2.03166C12.5699 2.19109 14.3287 3.00859 15.6597 4.3396C16.9908 5.67062 17.8083 7.42942 17.9677 9.305C17.9716 9.3497 17.9664 9.39473 17.9525 9.43738C17.9386 9.48004 17.9162 9.51946 17.8867 9.55326C17.8572 9.58706 17.8212 9.61456 17.7808 9.6341C17.7404 9.65365 17.6965 9.66483 17.6517 9.667C17.5633 9.667 17.4785 9.70212 17.416 9.76463C17.3535 9.82714 17.3184 9.91193 17.3184 10.0003C17.3184 10.0887 17.3535 10.1735 17.416 10.236C17.4785 10.2985 17.5633 10.3337 17.6517 10.3337C17.6965 10.3358 17.7404 10.3469 17.7808 10.3664C17.8212 10.3859 17.8573 10.4134 17.8868 10.4472C17.9164 10.4809 17.9388 10.5203 17.9527 10.563C17.9667 10.6056 17.9719 10.6506 17.968 10.6953C17.8086 12.5709 16.9911 14.3297 15.6601 15.6607C14.3291 16.9917 12.5703 17.8092 10.6947 17.9687C10.6851 17.9692 10.6756 17.9692 10.666 17.9687C10.5803 17.9688 10.4978 17.9358 10.4357 17.8766C10.3736 17.8175 10.3367 17.7367 10.3327 17.651C10.3327 17.5626 10.2976 17.4778 10.2351 17.4153C10.1725 17.3528 10.0878 17.3177 9.99935 17.3177C9.91095 17.3177 9.82616 17.3528 9.76365 17.4153C9.70114 17.4778 9.66602 17.5626 9.66602 17.651C9.6639 17.6959 9.65274 17.7398 9.63321 17.7803C9.61368 17.8207 9.58618 17.8568 9.55235 17.8863C9.51893 17.9164 9.47961 17.9391 9.4369 17.953C9.3942 17.967 9.34905 17.9718 9.30435 17.9673C7.42877 17.8079 5.66998 16.9904 4.33896 15.6594C3.00794 14.3284 2.19044 12.5696 2.03102 10.694C2.02734 10.6494 2.03267 10.6046 2.04669 10.5621C2.06071 10.5197 2.08313 10.4804 2.11261 10.4468C2.14209 10.4132 2.17804 10.3859 2.21831 10.3664C2.25858 10.347 2.30235 10.3358 2.34702 10.3337C2.43542 10.3337 2.52021 10.2985 2.58272 10.236C2.64523 10.1735 2.68035 10.0887 2.68035 10.0003C2.68035 9.91193 2.64523 9.82714 2.58272 9.76463C2.52021 9.70212 2.43542 9.667 2.34702 9.667C2.3022 9.66488 2.25828 9.65373 2.21787 9.63422C2.17747 9.61472 2.14142 9.58726 2.11188 9.55349C2.08234 9.51972 2.05993 9.48033 2.04597 9.43769C2.03202 9.39505 2.02682 9.35003 2.03069 9.30533C2.19004 7.42969 3.0075 5.67082 4.33853 4.33973C5.66955 3.00864 7.42839 2.1911 9.30402 2.03166Z" fill="#9BB997"/>
<path d="M10.3327 15.3197V5.00033C10.3327 4.91192 10.2976 4.82714 10.2351 4.76462C10.1725 4.70211 10.0878 4.66699 9.99935 4.66699C9.91094 4.66699 9.82616 4.70211 9.76365 4.76462C9.70113 4.82714 9.66602 4.91192 9.66602 5.00033V15.3197C9.77202 15.3277 9.88102 15.3337 9.99935 15.3337C10.1177 15.3337 10.2267 15.3277 10.3327 15.3197Z" fill="#F1D15B"/>
<path d="M9.00065 14.458C8.53965 14.5833 8.33398 14.7647 8.33398 14.8337C8.33398 14.9143 8.56098 15.091 9.00065 15.211V14.458Z" fill="#F1D15B"/>
<path d="M11 14.458V15.211C11.4397 15.091 11.6667 14.9143 11.6667 14.8337C11.6667 14.7647 11.461 14.5833 11 14.458Z" fill="#F1D15B"/>
</g>
<defs>
<clipPath id="clip0_6721_2701">
<rect width="20" height="20" fill="white"/>
</clipPath>
</defs>
</svg>
