<svg width="20" height="20" viewBox="0 0 20 20" fill="none" xmlns="http://www.w3.org/2000/svg">
<g clip-path="url(#clip0_6721_2800)">
<path d="M7.07031 12.3438C7.39365 12.3438 7.65625 12.0811 7.65625 11.7578C7.65625 11.4345 7.39365 11.1719 7.07031 11.1719C6.74698 11.1719 6.48438 11.4345 6.48438 11.7578C6.48438 12.0811 6.74698 12.3438 7.07031 12.3438Z" fill="#9BB997"/>
<path d="M7.07031 14.6875C7.39365 14.6875 7.65625 14.4249 7.65625 14.1016C7.65625 13.7782 7.39365 13.5156 7.07031 13.5156C6.74698 13.5156 6.48438 13.7782 6.48438 14.1016C6.48438 14.4249 6.74698 14.6875 7.07031 14.6875Z" fill="#9BB997"/>
<path d="M7.07031 17.0312C9.33167 17.0312 11.1719 15.191 11.1719 12.9297C11.1719 10.6683 9.33167 8.82812 7.07031 8.82812C4.80896 8.82812 2.96875 10.6683 2.96875 12.9297C2.96875 15.191 4.80896 17.0312 7.07031 17.0312ZM5.3125 11.7578C5.3125 10.7886 6.10107 10 7.07031 10C8.03955 10 8.82812 10.7886 8.82812 11.7578C8.82812 12.2096 8.65204 12.618 8.37097 12.9297C8.65204 13.2414 8.82812 13.6497 8.82812 14.1016C8.82812 15.0708 8.03955 15.8594 7.07031 15.8594C6.10107 15.8594 5.3125 15.0708 5.3125 14.1016C5.3125 13.6497 5.48859 13.2414 5.76965 12.9297C5.48859 12.618 5.3125 12.2096 5.3125 11.7578Z" fill="#6B5E7A"/>
<path d="M7.07031 20C10.9535 20 14.1016 16.8129 14.1016 12.9297C14.1016 9.04648 10.9535 5.89844 7.07031 5.89844C3.1871 5.89844 0 9.04648 0 12.9297C0 16.8129 3.1871 20 7.07031 20ZM7.07031 7.65625C9.97818 7.65625 12.3438 10.0218 12.3438 12.9297C12.3438 15.8376 9.97818 18.2031 7.07031 18.2031C4.16245 18.2031 1.79688 15.8376 1.79688 12.9297C1.79688 10.0218 4.16245 7.65625 7.07031 7.65625Z" fill="#9BB997"/>
<path d="M12.9299 0C9.85498 0 7.24786 2.0163 6.29297 4.76593C6.54916 4.74167 6.80811 4.72656 7.07056 4.72656C7.44928 4.72656 7.81931 4.76135 8.18475 4.8114C9.03421 3.03543 10.8334 1.79688 12.9299 1.79688C15.8378 1.79688 18.2034 4.16245 18.2034 7.07031C18.2034 9.16687 16.9648 10.966 15.1888 11.8155C15.2389 12.1809 15.2737 12.551 15.2737 12.9297C15.2737 13.1921 15.2586 13.4511 15.2343 13.7073C17.9839 12.7524 20.0002 10.1453 20.0002 7.07031C20.0002 3.1871 16.8131 0 12.9299 0Z" fill="#9BB997"/>
<path d="M17.0306 7.07031C17.0306 4.80896 15.1904 2.96875 12.9291 2.96875C11.4008 2.96875 10.0806 3.81912 9.375 5.0621C10.4782 5.38605 11.4853 5.93323 12.3431 6.65527V4.72656H13.515V7.87201C14.1518 8.68179 14.6399 9.61151 14.9373 10.6244C16.1803 9.91882 17.0306 8.59863 17.0306 7.07031Z" fill="#6B5E7A"/>
</g>
<defs>
<clipPath id="clip0_6721_2800">
<rect width="20" height="20" fill="white"/>
</clipPath>
</defs>
</svg>
