<svg width="20" height="20" viewBox="0 0 20 20" fill="none" xmlns="http://www.w3.org/2000/svg">
<path d="M3.42464 4.84934C3.39723 4.87767 3.37566 4.91113 3.36118 4.9478C3.3467 4.98447 3.33958 5.02363 3.34023 5.06305C3.34089 5.10247 3.3493 5.14137 3.36499 5.17754C3.38068 5.21371 3.40334 5.24643 3.43168 5.27384C3.91216 5.65869 4.35882 4.55784 4.27719 4.26857C4.2585 4.12278 4.21126 3.98211 4.13817 3.85459C4.06508 3.72707 3.96757 3.61521 3.85122 3.52539C3.74981 3.43504 3.66883 3.32409 3.61371 3.19995C3.55858 3.07582 3.53057 2.94135 3.53155 2.80552C3.53252 2.6697 3.56246 2.53565 3.61937 2.41232C3.67627 2.28898 3.75883 2.17921 3.86153 2.09032C3.92751 2.04673 3.97365 1.97889 3.98994 1.90151C4.00623 1.82413 3.99136 1.74345 3.94856 1.67695C3.69418 1.27424 3.03015 1.82275 2.93066 2.66111C2.91664 2.89781 2.95315 3.13478 3.03777 3.35628C3.12238 3.57778 3.25317 3.77874 3.42144 3.9458C3.71933 4.16102 3.80032 4.4825 3.42464 4.84934Z" fill="#C06A87"/>
<path d="M15.8805 4.84936C15.853 4.87769 15.8315 4.91115 15.817 4.94782C15.8025 4.98449 15.7954 5.02365 15.7961 5.06307C15.7967 5.10249 15.8051 5.14139 15.8208 5.17756C15.8365 5.21373 15.8592 5.24645 15.8875 5.27386C16.3678 5.65878 16.8147 4.55788 16.733 4.2689C16.7144 4.12304 16.6672 3.98229 16.5941 3.85471C16.521 3.72713 16.4235 3.61522 16.3071 3.52541C16.2057 3.43504 16.1247 3.32409 16.0696 3.19996C16.0145 3.07582 15.9865 2.94136 15.9875 2.80555C15.9885 2.66974 16.0184 2.53569 16.0753 2.41236C16.1321 2.28903 16.2147 2.17925 16.3173 2.09034C16.3823 2.04613 16.4273 1.97824 16.4427 1.90124C16.4582 1.82423 16.4428 1.74424 16.4 1.67842C16.3571 1.6126 16.2902 1.56619 16.2135 1.54915C16.1368 1.5321 16.0565 1.54579 15.9898 1.58726C15.812 1.72445 15.6662 1.89863 15.5623 2.09776C15.4585 2.29689 15.3992 2.5162 15.3885 2.74052C15.3778 2.96484 15.4159 3.1888 15.5003 3.39691C15.5847 3.60502 15.7134 3.79231 15.8773 3.94581C16.1751 4.16065 16.2564 4.48297 15.8805 4.84936Z" fill="#C06A87"/>
<path d="M4.25615 12.0108C3.11838 11.5546 2.46093 10.9812 2.46093 10.4408C2.46093 9.48013 4.42127 8.52548 7.14714 8.15323C6.99569 7.77796 6.89474 7.38426 6.84692 6.98242C2.83857 7.53572 -0.172521 9.52602 1.95051 11.9779L2.29582 15.5623C2.29582 16.3158 2.97426 16.9793 4.25613 17.4896C4.25439 16.3454 4.25739 13.1907 4.25615 12.0108Z" fill="#315D80"/>
<path d="M7.26416 12.7441C7.26416 12.7441 7.26306 17.4913 7.26416 18.2259C8.01599 18.3221 8.77281 18.3742 9.53073 18.382C9.53073 18.382 9.53067 13.7379 9.53073 12.9032C8.77275 12.8944 8.01594 12.8413 7.26416 12.7441Z" fill="#315D80"/>
<path d="M10.1309 12.9032V18.382C10.8878 18.3743 11.6436 18.3222 12.3944 18.2259C12.3992 17.0157 12.3872 13.9235 12.3974 12.7441C11.6458 12.8428 10.8889 12.8959 10.1309 12.9032Z" fill="#315D80"/>
<path d="M12.7106 7.5739C12.6617 7.77136 12.5985 7.965 12.5215 8.15329C15.2473 8.52555 17.2077 9.47719 17.2077 10.4409C17.2077 10.9842 16.5502 11.5546 15.4064 12.0139C15.4066 12.331 15.4064 15.6494 15.4064 15.6494C15.6191 15.2551 15.8972 14.8998 16.229 14.5987C16.2693 14.5611 16.3218 14.5392 16.3769 14.537C16.432 14.5347 16.4861 14.5524 16.5292 14.5867C16.8665 14.8818 17.1473 15.2358 17.3578 15.6314L17.715 11.9809C17.9283 11.7841 18.0997 11.5462 18.2188 11.2816C18.338 11.017 18.4025 10.731 18.4085 10.4409C18.4085 8.79574 16.28 7.48385 12.8247 6.97949C12.7976 7.17958 12.7596 7.37801 12.7106 7.5739Z" fill="#315D80"/>
<path d="M4.85578 12.2246C4.85578 12.2246 4.85508 16.9285 4.85578 17.7063C5.44719 17.8923 6.05114 18.0358 6.66301 18.1357C6.663 17.2742 6.66301 12.6539 6.66301 12.6539C6.28225 12.593 5.92301 12.5164 5.55826 12.4257C5.3121 12.3657 5.07794 12.2967 4.85578 12.2246Z" fill="#315D80"/>
<path d="M9.27826 3.73621C8.66945 3.50617 8.02541 3.3833 7.37467 3.37305C6.69619 4.15714 6.48337 5.42909 7.04377 6.29288C7.34833 5.64857 8.09512 4.31018 9.27826 3.73621Z" fill="#315D80"/>
<path d="M12.6135 6.22526C12.9268 5.70688 13.3661 4.53251 12.1156 3.20588C11.5364 2.67092 10.7898 2.35317 10.0028 2.30671C9.21572 2.26025 8.4369 2.48794 7.79883 2.95104C8.55351 3.01692 9.28938 3.22251 9.96893 3.55732C11.121 4.12996 12.051 5.06814 12.6135 6.22526Z" fill="#315D80"/>
<path d="M9.84481 3.98828C8.3413 4.43424 7.42728 6.41484 7.32617 6.79094C7.36007 8.42279 8.78992 10.4952 10.6151 9.69904C11.7336 9.20875 12.2585 7.92167 12.3487 6.75874C11.8846 5.55792 10.9927 4.57116 9.84481 3.98828Z" fill="#C06A87"/>
<path d="M12.5523 11.1549C12.1463 11.0349 11.7474 10.8921 11.3574 10.7273C11.2364 10.6523 11.1368 10.5475 11.068 10.4228C10.9993 10.2982 10.9638 10.158 10.965 10.0156C10.6198 10.2097 10.2305 10.3116 9.83452 10.3116C9.43855 10.3116 9.04925 10.2097 8.70408 10.0156C8.70672 10.1558 8.67337 10.2942 8.60723 10.4178C8.54109 10.5414 8.44436 10.6459 8.32629 10.7214C8.30995 10.7644 7.30541 11.0929 7.00257 11.1988C6.61886 11.3509 6.27663 11.5918 6.00391 11.9017C8.52944 12.4385 11.1396 12.4385 13.6652 11.9017C13.3637 11.5622 12.9807 11.3052 12.5523 11.1549Z" fill="#C06A87"/>
<path d="M13.6191 15.6619C13.6284 15.6105 13.6554 15.564 13.6954 15.5305C13.7355 15.497 13.7861 15.4787 13.8383 15.4787C14.1644 15.4821 14.4889 15.5244 14.8049 15.6048C14.8049 15.6048 14.8053 12.538 14.8049 12.2275C14.2047 12.4156 13.5917 12.56 12.9707 12.6598C13.031 12.9688 12.9952 17.8319 12.9947 18.1356C13.355 18.0755 13.7002 18.0065 14.0244 17.9254C13.9112 17.7546 13.8204 17.57 13.7542 17.376C13.5766 16.8229 13.5304 16.236 13.6191 15.6619Z" fill="#315D80"/>
<path d="M17.0958 16.1541C16.9386 15.7454 16.696 15.3749 16.3843 15.0674C16.0733 15.3778 15.8309 15.7501 15.6728 16.1601C15.3936 16.9497 15.6368 17.7062 16.3843 18.4087C17.1348 17.7032 17.3749 16.9467 17.0958 16.1541Z" fill="#C06A87"/>
<path d="M15.1929 16.1927C14.8224 16.0546 14.4344 15.9687 14.0402 15.9375C14.0071 16.3248 14.0011 17.2014 14.4995 17.8108C14.8313 18.1923 15.301 18.4266 15.8054 18.4622C15.5145 18.17 15.3049 17.8069 15.1975 17.4088C15.0901 17.0108 15.0885 16.5916 15.1929 16.1927Z" fill="#C06A87"/>
<path d="M18.7311 15.9375C18.3358 15.9699 17.9468 16.0568 17.5753 16.1957C17.6797 16.5941 17.6781 17.0128 17.5706 17.4104C17.4632 17.808 17.2537 18.1706 16.9629 18.4622C18.4311 18.3499 18.8455 16.9423 18.7311 15.9375Z" fill="#C06A87"/>
</svg>
