<svg width="16" height="18" viewBox="0 0 16 18" fill="none" xmlns="http://www.w3.org/2000/svg">
<path d="M0.619148 15.1834H2.02853L1.67967 17.0761H3.11356L3.88346 15.1834H12.1173L12.8872 17.0761H14.3211L13.9723 15.1834H15.3816L15.5848 13.9678H0.416016L0.619148 15.1834Z" fill="#F1D15B"/>
<path d="M2.16328 10.4992C2.38516 10.2867 2.52577 10.0055 2.55703 9.71172C2.5914 9.4211 2.5164 9.16172 2.3539 8.97736C2.21327 8.81798 2.01328 8.7336 1.79453 8.7336H1.16327C1.14765 8.7336 1.13203 8.7336 1.11639 8.73047L0.800781 10.8211H1.41953C1.68203 10.8211 1.94452 10.7086 2.16328 10.4992Z" fill="#9BB997"/>
<path d="M7.6879 7.68282C6.55352 7.62344 5.61602 7.24531 5.10352 6.67969H1.4254L1.20978 8.10781H1.79415C2.19414 8.10781 2.55665 8.26719 2.81914 8.56094C3.1004 8.87657 3.23164 9.32032 3.17852 9.7797C3.12851 10.2203 2.92227 10.6359 2.59728 10.9516C2.25977 11.2703 1.84101 11.4453 1.41915 11.4453H0.750393C0.734772 11.4453 0.719151 11.4453 0.706638 11.4422L0.416016 13.3422H7.6879V7.68282Z" fill="#9BB997"/>
<path d="M13.6469 8.97736C13.4844 9.16172 13.4094 9.4211 13.4437 9.7086C13.475 10.0055 13.6156 10.2867 13.8375 10.5024C14.0562 10.7086 14.3187 10.8211 14.5812 10.8211H15.2L14.8844 8.73047C14.8687 8.7336 14.8531 8.7336 14.8375 8.7336H14.2062C13.9875 8.7336 13.7875 8.81798 13.6469 8.97736Z" fill="#9BB997"/>
<path d="M8.3125 13.3422H15.5844L15.2938 11.4422C15.2812 11.4453 15.2656 11.4453 15.25 11.4453H14.5812C14.1594 11.4453 13.7406 11.2703 13.4062 10.9516C13.0781 10.6359 12.8719 10.2203 12.8219 9.7797C12.7688 9.32032 12.9 8.87657 13.1813 8.56094C13.4437 8.26719 13.8063 8.10781 14.2062 8.10781H14.7906L14.575 6.67969H10.8969C10.3844 7.24531 9.44688 7.62344 8.3125 7.68282V13.3422Z" fill="#9BB997"/>
<path d="M8.00079 5.2414C9.49142 5.2414 10.7008 4.60389 10.7008 3.8164C10.7008 3.32265 10.2164 2.88203 9.48516 2.62891V3.69799C9.48516 3.95371 9.3291 4.18353 9.09141 4.27787C8.73204 4.41848 8.36641 4.49036 8.00079 4.49036C7.63517 4.49036 7.26953 4.41848 6.91016 4.27787C6.67247 4.18353 6.51641 3.95371 6.51641 3.69799V2.62891C5.78515 2.88203 5.30078 3.32265 5.30078 3.8164C5.30078 4.60389 6.51015 5.2414 8.00079 5.2414Z" fill="#F1D15B"/>
<path d="M8.00001 7.06673C9.49064 7.06673 10.7031 6.42924 10.7031 5.64174L10.7 5.64486V4.92871C10.2031 5.35058 9.44376 5.75682 8.54375 5.83808C8.4625 5.84746 7.53751 5.84746 7.45626 5.83808C6.55626 5.75682 5.79689 5.35058 5.3 4.92871V5.64486L5.29688 5.64174C5.29688 6.42924 6.50938 7.06673 8.00001 7.06673Z" fill="#F1D15B"/>
<path d="M8.86021 3.78531V1.78557C8.86021 1.31018 8.47483 0.924805 7.99944 0.924805C7.52405 0.924805 7.13867 1.31018 7.13867 1.78557V3.78531C7.71252 4.01105 8.28636 4.01105 8.86021 3.78531Z" fill="#F1D15B"/>
</svg>
