<svg width="20" height="20" viewBox="0 0 20 20" fill="none" xmlns="http://www.w3.org/2000/svg">
<g clip-path="url(#clip0_6721_2761)">
<path d="M1.74871 15.2194C1.62507 15.2681 1.51918 15.3533 1.44511 15.4636C1.37104 15.5739 1.3323 15.7042 1.33404 15.8371V17.6664H5.33404V15.8371C5.33578 15.7042 5.29704 15.5739 5.22297 15.4636C5.1489 15.3533 5.04301 15.2681 4.91937 15.2194C4.4074 15.0559 3.87116 14.9816 3.33404 14.9997C2.79692 14.9816 2.26068 15.0559 1.74871 15.2194Z" fill="#6B5E7A"/>
<path d="M14.918 13.5531C14.4065 13.3897 13.8707 13.3155 13.334 13.3338C12.7974 13.3155 12.2615 13.3897 11.75 13.5531C11.6262 13.6015 11.52 13.6866 11.4457 13.7969C11.3714 13.9071 11.3324 14.0375 11.334 14.1704V14.4608C11.4984 14.4939 11.6602 14.5385 11.8184 14.5941C12.0695 14.6906 12.2852 14.8613 12.4369 15.0835C12.5886 15.3057 12.669 15.5688 12.6674 15.8378V17.6671H14.0007V15.8378C13.9993 15.5689 14.0798 15.3061 14.2315 15.0841C14.3831 14.8621 14.5988 14.6916 14.8497 14.5951C15.0078 14.5395 15.1697 14.4949 15.334 14.4618V14.1704C15.3356 14.0375 15.2967 13.9071 15.2224 13.7969C15.1481 13.6866 15.0419 13.6015 14.918 13.5531Z" fill="#6B5E7A"/>
<path d="M8.41472 15.2194C8.29108 15.2681 8.1852 15.3533 8.11113 15.4636C8.03706 15.5739 7.99832 15.7042 8.00006 15.8371V17.6664H12.0001V15.8371C12.0018 15.7042 11.9631 15.5739 11.889 15.4636C11.8149 15.3533 11.709 15.2681 11.5854 15.2194C11.0734 15.0559 10.5372 14.9816 10.0001 14.9997C9.46293 14.9816 8.92669 15.0559 8.41472 15.2194Z" fill="#6B5E7A"/>
<path d="M14.6661 15.8371V17.6664H18.6661V15.8371C18.6678 15.7042 18.6291 15.5739 18.555 15.4636C18.4809 15.3533 18.375 15.2681 18.2514 15.2194C17.7394 15.0559 17.2032 14.9816 16.6661 14.9997C16.1289 14.9816 15.5927 15.0559 15.0807 15.2194C14.9571 15.2681 14.8512 15.3533 14.7771 15.4636C14.7031 15.5739 14.6643 15.7042 14.6661 15.8371Z" fill="#6B5E7A"/>
<path d="M8.25006 13.5531C7.73856 13.3897 7.20274 13.3155 6.66606 13.3338C6.12939 13.3155 5.59357 13.3897 5.08206 13.5531C4.9582 13.6015 4.85204 13.6866 4.77772 13.7969C4.7034 13.9071 4.66445 14.0375 4.66606 14.1704V14.4608C4.83041 14.4939 4.99225 14.5385 5.1504 14.5941C5.4015 14.6906 5.61725 14.8613 5.76892 15.0835C5.92059 15.3057 6.00098 15.5688 5.9994 15.8378V17.6671H7.33273V15.8378C7.33135 15.5689 7.41184 15.3061 7.5635 15.0841C7.71515 14.8621 7.93079 14.6916 8.18173 14.5951C8.33988 14.5395 8.50172 14.4949 8.66606 14.4618V14.1704C8.66768 14.0375 8.62873 13.9071 8.55441 13.7969C8.48009 13.6866 8.37393 13.6015 8.25006 13.5531Z" fill="#6B5E7A"/>
<path d="M18.9993 18.333H0.999349C0.815254 18.333 0.666016 18.4822 0.666016 18.6663V18.9997C0.666016 19.1838 0.815254 19.333 0.999349 19.333H18.9993C19.1834 19.333 19.3327 19.1838 19.3327 18.9997V18.6663C19.3327 18.4822 19.1834 18.333 18.9993 18.333Z" fill="#6B5E7A"/>
<path d="M18.9993 0.666992H0.999349C0.910943 0.666992 0.826159 0.702111 0.763647 0.764623C0.701135 0.827135 0.666016 0.91192 0.666016 1.00033V11.0003C0.666016 11.0887 0.701135 11.1735 0.763647 11.236C0.826159 11.2985 0.910943 11.3337 0.999349 11.3337H18.9993C19.0878 11.3337 19.1725 11.2985 19.2351 11.236C19.2976 11.1735 19.3327 11.0887 19.3327 11.0003V1.00033C19.3327 0.91192 19.2976 0.827135 19.2351 0.764623C19.1725 0.702111 19.0878 0.666992 18.9993 0.666992ZM9.99935 10.0003C9.20822 10.0003 8.43486 9.76573 7.77707 9.3262C7.11927 8.88668 6.60658 8.26196 6.30383 7.53106C6.00108 6.80016 5.92187 5.99589 6.07621 5.21996C6.23055 4.44404 6.61151 3.73131 7.17092 3.1719C7.73033 2.61249 8.44306 2.23153 9.21899 2.07718C9.99491 1.92284 10.7992 2.00206 11.5301 2.30481C12.261 2.60756 12.8857 3.12025 13.3252 3.77805C13.7648 4.43584 13.9993 5.2092 13.9993 6.00033C13.9982 7.06084 13.5764 8.07759 12.8265 8.82749C12.0766 9.57738 11.0599 9.99918 9.99935 10.0003Z" fill="#EA4B62"/>
<path d="M11.5 5.68798L9.58367 4.39965C9.52738 4.36181 9.46187 4.33997 9.39414 4.33644C9.3264 4.33292 9.25898 4.34785 9.19907 4.37963C9.13915 4.41142 9.08899 4.45888 9.05393 4.51694C9.01887 4.575 9.00023 4.64149 9 4.70932V7.28998C8.99993 7.35795 9.01835 7.42465 9.05329 7.48295C9.08823 7.54125 9.13837 7.58895 9.19833 7.62094C9.2583 7.65292 9.32584 7.668 9.39372 7.66454C9.4616 7.66108 9.52726 7.63923 9.58367 7.60132L11.501 6.31132C11.552 6.27689 11.5938 6.23047 11.6227 6.17613C11.6516 6.12179 11.6667 6.06119 11.6667 5.99965C11.6667 5.93811 11.6516 5.87751 11.6227 5.82317C11.5938 5.76883 11.552 5.72241 11.501 5.68798H11.5Z" fill="#EA4B62"/>
<path d="M9.99935 2.66699C9.34008 2.66699 8.69561 2.86249 8.14745 3.22876C7.59929 3.59503 7.17204 4.11563 6.91975 4.72471C6.66746 5.3338 6.60145 6.00402 6.73007 6.65063C6.85868 7.29723 7.17615 7.89117 7.64233 8.35735C8.1085 8.82352 8.70245 9.14099 9.34905 9.26961C9.99565 9.39823 10.6659 9.33222 11.275 9.07992C11.884 8.82763 12.4046 8.40039 12.7709 7.85223C13.1372 7.30406 13.3327 6.6596 13.3327 6.00033C13.3317 5.11657 12.9802 4.26929 12.3553 3.64437C11.7304 3.01946 10.8831 2.66796 9.99935 2.66699ZM11.8724 6.86499L9.95535 8.15499C9.79863 8.26044 9.61619 8.32128 9.42754 8.33099C9.2389 8.3407 9.05117 8.29891 8.88446 8.21011C8.71774 8.12131 8.57832 7.98883 8.48113 7.82687C8.38393 7.6649 8.33262 7.47955 8.33268 7.29066V4.70999C8.33262 4.5211 8.38393 4.33575 8.48113 4.17378C8.57832 4.01182 8.71774 3.87934 8.88446 3.79054C9.05117 3.70174 9.2389 3.65995 9.42754 3.66966C9.61619 3.67937 9.79863 3.74021 9.95535 3.84566L11.8724 5.13566C12.014 5.23104 12.1301 5.35978 12.2104 5.51056C12.2906 5.66133 12.3326 5.82952 12.3326 6.00033C12.3326 6.17113 12.2906 6.33932 12.2104 6.49009C12.1301 6.64087 12.014 6.76961 11.8724 6.86499Z" fill="#EA4B62"/>
</g>
<defs>
<clipPath id="clip0_6721_2761">
<rect width="20" height="20" fill="white"/>
</clipPath>
</defs>
</svg>
