<svg width="20" height="20" viewBox="0 0 20 20" fill="none" xmlns="http://www.w3.org/2000/svg">
<path d="M12.1822 9.50166H7.73305V8.54827C7.73305 8.37273 7.87531 8.23047 8.05085 8.23047H11.8644C12.0398 8.23047 12.1822 8.37273 12.1822 8.54827V9.50166ZM7.41525 10.1372H16.9492V10.7728H2.9661V10.1372H7.41525ZM6.46186 18.1204L4.19905 18.4C4.09403 18.4129 4.00229 18.4772 3.95437 18.5715L3.72236 19.0356H2.45117L2.87387 17.7644H6.46186V18.1204ZM10.2754 19.3534H9.63983V17.7644H10.2754V19.3534ZM17.4607 19.0356H16.1895L15.9575 18.5747C15.9097 18.4804 15.8179 18.4161 15.7128 18.4031L13.4534 18.1204V17.7644H17.038L17.4607 19.0356ZM16.161 16.3152C16.0911 16.7864 15.6839 17.1339 15.2076 17.1288H4.69487C4.21842 17.1339 3.81124 16.7864 3.74148 16.3152L3.017 11.4084H16.8983L16.161 16.3152Z" fill="#6B5E7A"/>
<path d="M9.32227 6.95951H9.95786V6.32392C9.95786 5.97285 10.2424 5.68833 10.5935 5.68833H10.9112V5.05273H10.5935C9.89144 5.05273 9.32227 5.62191 9.32227 6.32392V6.95951Z" fill="#EA4B62"/>
<path d="M11.2285 6.95951H11.8641V6.32392C11.8641 5.97285 12.1486 5.68833 12.4997 5.68833H12.8175V5.05273H12.4997C11.7977 5.05273 11.2285 5.62191 11.2285 6.32392V6.95951Z" fill="#EA4B62"/>
<path d="M12.8172 4.41767H13.4528C13.4528 3.71566 12.8836 3.14648 12.1816 3.14648V3.78208C12.5326 3.78208 12.8172 4.0666 12.8172 4.41767Z" fill="#EA4B62"/>
<path d="M10.911 4.41767H11.5466C11.5466 3.71566 10.9774 3.14648 10.2754 3.14648V3.78208C10.6263 3.78208 10.911 4.0666 10.911 4.41767Z" fill="#EA4B62"/>
<path d="M9.00473 4.41767H9.64033C9.64033 3.71566 9.07115 3.14648 8.36914 3.14648V3.78208C8.72008 3.78208 9.00473 4.0666 9.00473 4.41767Z" fill="#EA4B62"/>
<path d="M8.05161 6.32392C8.05161 5.97285 8.33614 5.68833 8.6872 5.68833H9.005V5.05273H8.6872C7.98519 5.05273 7.41602 5.62191 7.41602 6.32392V6.95951H8.05161V6.32392Z" fill="#EA4B62"/>
<path d="M18.5374 11.4086H16.9484V10.773H18.2196V9.50182C18.2196 4.93846 14.5203 1.23911 9.9569 1.23911C5.39354 1.23911 1.69419 4.93846 1.69419 9.50182V10.773H2.96537V11.4086H1.37639C1.20086 11.4086 1.05859 11.2663 1.05859 11.0908V9.50182C1.05859 4.58739 5.04247 0.603516 9.9569 0.603516C14.8712 0.603516 18.8552 4.58739 18.8552 9.50182V11.0908C18.8552 11.2663 18.7128 11.4086 18.5374 11.4086Z" fill="#EA4B62"/>
</svg>
