<svg width="26" height="26" viewBox="0 0 26 26" fill="none" xmlns="http://www.w3.org/2000/svg">
<path d="M10.8333 3.25065H0V1.08398H10.8333V3.25065ZM8.66667 5.41732H0V7.58398H8.66667V5.41732ZM6.5 9.75065H0V11.9173H6.5V9.75065ZM13 1.08398V5.41732H10.8333V9.75065H8.66667V14.084H0V19.5007H16.25V4.33398C16.25 2.54215 14.7918 1.08398 13 1.08398ZM21.125 24.9173C22.6211 24.9173 23.8333 23.7051 23.8333 22.209C23.8333 22.0227 23.8073 21.8428 23.7705 21.6673H18.4784C18.4416 21.8428 18.4156 22.0227 18.4156 22.209C18.4156 23.7051 19.6289 24.9173 21.125 24.9173ZM5.95725 24.9173C7.45333 24.9173 8.66558 23.7051 8.66558 22.209C8.66558 22.0227 8.63958 21.8428 8.60275 21.6673H3.31283C3.276 21.8428 3.25 22.0227 3.25 22.209C3.25 23.7051 4.46117 24.9173 5.95725 24.9173ZM18.4167 19.5007H26V14.084H18.4167V19.5007ZM20.5833 5.41732H18.4167V11.9173H26V10.834C26 7.84723 23.5701 5.41732 20.5833 5.41732Z" fill="#315D80"/>
</svg>
