<svg width="22" height="20" viewBox="0 0 22 20" fill="none" xmlns="http://www.w3.org/2000/svg">
<path d="M0.166016 2.41667C0.166016 1.39529 0.166016 0.884606 0.483313 0.567298C0.800622 0.25 1.3113 0.25 2.33268 0.25H19.666C20.6874 0.25 21.1981 0.25 21.5154 0.567298C21.8327 0.884606 21.8327 1.39529 21.8327 2.41667C21.8327 3.43804 21.8327 3.94873 21.5154 4.26604C21.1981 4.58333 20.6874 4.58333 19.666 4.58333H2.33268C1.3113 4.58333 0.800622 4.58333 0.483313 4.26604C0.166016 3.94873 0.166016 3.43804 0.166016 2.41667Z" fill="#FFB6A3"/>
<path d="M19.7407 6.20859C19.8936 6.20864 20.0507 6.20871 20.2077 6.20654V11.0835C20.2077 15.1691 20.2077 17.2118 18.9384 18.481C17.6693 19.7502 15.6265 19.7502 11.541 19.7502H10.4577C6.37217 19.7502 4.32943 19.7502 3.06022 18.481C1.79102 17.2118 1.79102 15.1691 1.79102 11.0835V6.20654C1.94797 6.20871 2.10517 6.20864 2.25808 6.20859L10.1868 6.20857V13.2995L8.35329 11.2622C8.05309 10.9287 7.53937 10.9016 7.20582 11.2018C6.87228 11.502 6.84524 12.0157 7.14543 12.3493L10.3954 15.9604C10.5495 16.1316 10.769 16.2294 10.9993 16.2294C11.2297 16.2294 11.4491 16.1316 11.6033 15.9604L14.8533 12.3493C15.1535 12.0157 15.1264 11.502 14.7929 11.2018C14.4593 10.9016 13.9456 10.9287 13.6454 11.2622L11.8118 13.2995V6.20857L19.7407 6.20859Z" fill="#4D7EA5"/>
</svg>
