<svg width="18" height="18" viewBox="0 0 18 18" fill="none" xmlns="http://www.w3.org/2000/svg">
<path d="M2.125 12.126H15.875V14.626H2.125V12.126Z" fill="#C06A87"/>
<path d="M4 9.00098H14V11.501H4V9.00098Z" fill="#C06A87"/>
<path d="M5.875 6.50098H12.125V8.37598H5.875V6.50098Z" fill="#C06A87"/>
<path d="M0.25 15.251H17.75V17.751H0.25V15.251Z" fill="#C06A87"/>
<path d="M6.69775 0.28329C6.44354 0.197841 6.16156 0.285731 6.00012 0.501186L0.375122 8.00119C0.293945 8.10922 0.25 8.24044 0.25 8.37594V14.6259H1.5V8.58407L2.125 7.75075V11.5009H3.375V6.08415L4 5.25086V8.37594H5.25V3.58426L5.875 2.75094V5.87594H7.125V0.875941C7.125 0.606776 6.95288 0.368129 6.69775 0.28329Z" fill="#FFB6A3"/>
<path d="M11.3022 0.28329C11.5565 0.197841 11.8384 0.285731 11.9999 0.501186L17.6249 8.00119C17.7061 8.10922 17.75 8.24044 17.75 8.37594V14.6259H16.5V8.58407L15.875 7.75075V11.5009H14.625V6.08415L14 5.25086V8.37594H12.75V3.58426L12.125 2.75094V5.87594H10.875V0.875941C10.875 0.606776 11.0471 0.368129 11.3022 0.28329Z" fill="#FFB6A3"/>
</svg>
