<svg width="13" height="13" viewBox="0 0 13 13" fill="none" xmlns="http://www.w3.org/2000/svg">
<path d="M8.75 0H4.08333C3.00037 0 1.96175 0.430207 1.19598 1.19598C0.430207 1.96175 0 3.00037 0 4.08333V8.75C0 9.83297 0.430207 10.8716 1.19598 11.6374C1.96175 12.4031 3.00037 12.8333 4.08333 12.8333H5.83333V4.90817L3.32908 7.41242C3.21907 7.51868 3.07171 7.57747 2.91877 7.57614C2.76582 7.57481 2.61951 7.51347 2.51136 7.40531C2.4032 7.29716 2.34185 7.15085 2.34052 6.9979C2.33919 6.84495 2.39799 6.6976 2.50425 6.58758L6.00425 3.08758C6.11364 2.97823 6.26199 2.91679 6.41667 2.91679C6.57135 2.91679 6.71969 2.97823 6.82908 3.08758L10.3291 6.58758C10.3848 6.64139 10.4292 6.70576 10.4598 6.77693C10.4904 6.8481 10.5065 6.92465 10.5071 7.0021C10.5078 7.07955 10.4931 7.15637 10.4637 7.22806C10.4344 7.29975 10.3911 7.36488 10.3363 7.41965C10.2815 7.47442 10.2164 7.51773 10.1447 7.54706C10.073 7.57639 9.99622 7.59115 9.91877 7.59048C9.84131 7.58981 9.76477 7.57372 9.6936 7.54314C9.62243 7.51257 9.55806 7.46813 9.50425 7.41242L7 4.90817V12.8333H8.75C9.83297 12.8333 10.8716 12.4031 11.6374 11.6374C12.4031 10.8716 12.8333 9.83297 12.8333 8.75V4.08333C12.8333 3.00037 12.4031 1.96175 11.6374 1.19598C10.8716 0.430207 9.83297 0 8.75 0Z" fill="white"/>
</svg>
