<svg width="12" height="13" viewBox="0 0 12 13" fill="none" xmlns="http://www.w3.org/2000/svg">
<path d="M2.94244 7.1513C2.85578 7.1513 2.77268 7.18554 2.71141 7.24649C2.65014 7.30744 2.61572 7.3901 2.61572 7.4763V9.4263C2.61572 9.5125 2.65014 9.59516 2.71141 9.65611C2.77268 9.71706 2.85578 9.7513 2.94244 9.7513C3.02909 9.7513 3.11219 9.71706 3.17346 9.65611C3.23473 9.59516 3.26916 9.5125 3.26916 9.4263V9.1013H3.59392C3.85387 9.1013 4.10318 8.99858 4.28699 8.81573C4.47081 8.63288 4.57407 8.38489 4.57407 8.1263C4.57407 7.86771 4.47081 7.61972 4.28699 7.43687C4.10318 7.25402 3.85387 7.1513 3.59392 7.1513H2.94244ZM3.59392 8.4513H3.26916V7.8013H3.59392C3.68057 7.8013 3.76367 7.83554 3.82494 7.89649C3.88621 7.95744 3.92063 8.0401 3.92063 8.1263C3.92063 8.21249 3.88621 8.29516 3.82494 8.35611C3.76367 8.41706 3.68057 8.4513 3.59392 8.4513ZM7.83996 7.4763C7.83996 7.3901 7.87438 7.30744 7.93566 7.24649C7.99693 7.18554 8.08003 7.1513 8.16668 7.1513H9.15011C9.23676 7.1513 9.31986 7.18554 9.38113 7.24649C9.44241 7.30744 9.47683 7.3901 9.47683 7.4763C9.47683 7.56249 9.44241 7.64516 9.38113 7.70611C9.31986 7.76706 9.23676 7.8013 9.15011 7.8013H8.49275L8.4921 8.4526H9.15011C9.23676 8.4526 9.31986 8.48684 9.38113 8.54779C9.44241 8.60874 9.47683 8.6914 9.47683 8.7776C9.47683 8.8638 9.44241 8.94646 9.38113 9.00741C9.31986 9.06836 9.23676 9.1026 9.15011 9.1026H8.4921L8.4934 9.42565C8.49349 9.46833 8.48512 9.51061 8.46878 9.55007C8.45244 9.58953 8.42845 9.62541 8.39817 9.65565C8.33702 9.71672 8.25399 9.75113 8.16734 9.7513C8.08068 9.75147 7.99751 9.7174 7.93612 9.65657C7.87472 9.59574 7.84014 9.51315 7.83996 9.42695L7.838 8.77825V8.77695L7.83996 7.4763ZM5.55423 7.1513H5.87965C6.22625 7.1513 6.55866 7.28826 6.80375 7.53206C7.04884 7.77586 7.18652 8.10652 7.18652 8.4513C7.18652 8.79608 7.04884 9.12674 6.80375 9.37054C6.55866 9.61434 6.22625 9.7513 5.87965 9.7513H5.55423C5.46758 9.7513 5.38448 9.71706 5.32321 9.65611C5.26194 9.59516 5.22751 9.5125 5.22751 9.4263V7.4763C5.22751 7.3901 5.26194 7.30744 5.32321 7.24649C5.38448 7.18554 5.46758 7.1513 5.55423 7.1513ZM5.88095 9.1013C6.05426 9.1013 6.22046 9.03282 6.343 8.91092C6.46555 8.78902 6.53439 8.62369 6.53439 8.4513C6.53439 8.27891 6.46555 8.11358 6.343 7.99168C6.22046 7.86978 6.05426 7.8013 5.88095 7.8013V9.1013ZM5.88095 3.9V0H1.96032C1.61371 0 1.2813 0.136964 1.03621 0.380761C0.791128 0.624558 0.653439 0.955218 0.653439 1.3V5.6342C0.267257 5.81685 0 6.2088 0 6.6625V10.2375C0 10.6912 0.267257 11.0825 0.653439 11.2658V11.7C0.653439 12.0448 0.791128 12.3754 1.03621 12.6192C1.2813 12.863 1.61371 13 1.96032 13H9.80159C10.1482 13 10.4806 12.863 10.7257 12.6192C10.9708 12.3754 11.1085 12.0448 11.1085 11.7V11.2658C11.4946 11.0831 11.7619 10.6912 11.7619 10.2375V6.6625C11.7619 6.2088 11.4946 5.8175 11.1085 5.6342V5.2H7.18783C6.84123 5.2 6.50882 5.06304 6.26373 4.81924C6.01864 4.57544 5.88095 4.24478 5.88095 3.9ZM1.14352 6.5H10.6184C10.6617 6.5 10.7033 6.51712 10.7339 6.54759C10.7645 6.57807 10.7817 6.6194 10.7817 6.6625V10.2375C10.7817 10.2806 10.7645 10.3219 10.7339 10.3524C10.7033 10.3829 10.6617 10.4 10.6184 10.4H1.14352C1.10019 10.4 1.05864 10.3829 1.02801 10.3524C0.99737 10.3219 0.980159 10.2806 0.980159 10.2375V6.6625C0.980159 6.6194 0.99737 6.57807 1.02801 6.54759C1.05864 6.51712 1.10019 6.5 1.14352 6.5ZM6.86111 3.9V0.325L10.7817 4.225H7.18783C7.10118 4.225 7.01808 4.19076 6.9568 4.12981C6.89553 4.06886 6.86111 3.9862 6.86111 3.9Z" fill="white"/>
</svg>
