<svg width="18" height="17" viewBox="0 0 18 17" fill="none" xmlns="http://www.w3.org/2000/svg">
<path d="M7.18506 9.96609L3.89496 5.89258L0 10.715V13.4326C1.6527 12.8392 3.40635 12.4454 5.35236 12.2352L7.18506 9.96609Z" fill="#9BB997"/>
<path d="M17.5211 14.7597C14.9754 13.8018 12.179 13.3444 8.76056 13.3242C5.34209 13.3444 2.54566 13.8018 0 14.7597V16.3902C2.56294 15.4701 5.36827 15.0298 8.75816 15.01H8.76056H8.76295C12.1528 15.0298 14.9581 15.4701 17.5211 16.3902V14.7597Z" fill="#315D80"/>
<path d="M0 0V8.9187L3.89496 4.09631L7.91095 9.0686L13.4405 2.22236L17.5211 7.27456V0C15.3476 0.720617 12.2116 1.12804 8.76056 1.12804C5.30948 1.12804 2.17351 0.720617 0 0ZM9.20998 4.54801H8.18335V3.27693H9.20998V4.54801Z" fill="#315D80"/>
<path d="M8.76309 12.0528C12.153 12.0726 14.9582 12.5133 17.5212 13.4334V9.07169L13.4407 4.01953L6.90674 12.1093C7.50492 12.0754 8.12107 12.0565 8.7583 12.0528H8.76309Z" fill="#9BB997"/>
</svg>
