<svg width="75" height="75" viewBox="0 0 75 75" fill="none" xmlns="http://www.w3.org/2000/svg">
<rect width="75" height="75" rx="20" fill="#F8FAFF"/>
<path d="M17.21 62.2803H19.0361L18.1377 59.4482L17.21 62.2803ZM17.3027 57.8027H19.002L21.5508 65H19.9199L19.4561 63.5205H16.8047L16.3066 65H14.7344L17.3027 57.8027ZM24.3193 59.5508C24.6416 59.5508 24.9281 59.6224 25.1787 59.7656C25.4294 59.9056 25.6328 60.1009 25.7891 60.3516V57.8125H27.2002V65H25.8477V64.2627C25.6491 64.5785 25.4229 64.8079 25.1689 64.9512C24.915 65.0944 24.5993 65.166 24.2217 65.166C23.5999 65.166 23.0758 64.9154 22.6494 64.4141C22.2262 63.9095 22.0146 63.2633 22.0146 62.4756C22.0146 61.5674 22.223 60.8529 22.6396 60.332C23.0596 59.8112 23.6195 59.5508 24.3193 59.5508ZM24.6221 63.9941C25.016 63.9941 25.3154 63.8477 25.5205 63.5547C25.7256 63.2617 25.8281 62.8825 25.8281 62.417C25.8281 61.766 25.6637 61.3005 25.335 61.0205C25.1331 60.8512 24.8988 60.7666 24.6318 60.7666C24.2249 60.7666 23.9255 60.9212 23.7334 61.2305C23.5446 61.5365 23.4502 61.9173 23.4502 62.373C23.4502 62.8646 23.5462 63.2585 23.7383 63.5547C23.9336 63.8477 24.2282 63.9941 24.6221 63.9941ZM30.4326 59.5508C30.7549 59.5508 31.0413 59.6224 31.292 59.7656C31.5426 59.9056 31.7461 60.1009 31.9023 60.3516V57.8125H33.3135V65H31.9609V64.2627C31.7624 64.5785 31.5361 64.8079 31.2822 64.9512C31.0283 65.0944 30.7126 65.166 30.335 65.166C29.7132 65.166 29.1891 64.9154 28.7627 64.4141C28.3395 63.9095 28.1279 63.2633 28.1279 62.4756C28.1279 61.5674 28.3363 60.8529 28.7529 60.332C29.1729 59.8112 29.7327 59.5508 30.4326 59.5508ZM30.7354 63.9941C31.1292 63.9941 31.4287 63.8477 31.6338 63.5547C31.8389 63.2617 31.9414 62.8825 31.9414 62.417C31.9414 61.766 31.777 61.3005 31.4482 61.0205C31.2464 60.8512 31.012 60.7666 30.7451 60.7666C30.3382 60.7666 30.0387 60.9212 29.8467 61.2305C29.6579 61.5365 29.5635 61.9173 29.5635 62.373C29.5635 62.8646 29.6595 63.2585 29.8516 63.5547C30.0469 63.8477 30.3415 63.9941 30.7354 63.9941ZM37.166 61.46C37.166 60.2035 37.5029 59.235 38.1768 58.5547C38.7627 57.9622 39.5081 57.666 40.4131 57.666C41.624 57.666 42.5094 58.0632 43.0693 58.8574C43.3786 59.3034 43.5446 59.751 43.5674 60.2002H42.0635C41.9658 59.8551 41.8405 59.5947 41.6875 59.4189C41.4141 59.1064 41.0088 58.9502 40.4717 58.9502C39.9248 58.9502 39.4935 59.1715 39.1777 59.6143C38.862 60.0537 38.7041 60.6771 38.7041 61.4844C38.7041 62.2917 38.8701 62.8971 39.2021 63.3008C39.5374 63.7012 39.9622 63.9014 40.4766 63.9014C41.0039 63.9014 41.4059 63.7288 41.6826 63.3838C41.8356 63.1982 41.9626 62.9199 42.0635 62.5488H43.5527C43.4225 63.3333 43.0889 63.9714 42.5518 64.4629C42.0179 64.9544 41.3327 65.2002 40.4961 65.2002C39.4609 65.2002 38.6471 64.8682 38.0547 64.2041C37.4622 63.5368 37.166 62.6221 37.166 61.46ZM47.5273 62.4121C47.4395 62.4674 47.3499 62.513 47.2588 62.5488C47.1709 62.5814 47.0488 62.6123 46.8926 62.6416L46.5801 62.7002C46.2871 62.7523 46.0771 62.8158 45.9502 62.8906C45.7354 63.0176 45.6279 63.2145 45.6279 63.4814C45.6279 63.7191 45.693 63.8916 45.8232 63.999C45.9567 64.1032 46.1178 64.1553 46.3066 64.1553C46.6061 64.1553 46.8812 64.0674 47.1318 63.8916C47.3857 63.7158 47.5176 63.3952 47.5273 62.9297V62.4121ZM46.6826 61.7627C46.9398 61.7301 47.1237 61.6895 47.2344 61.6406C47.4329 61.556 47.5322 61.4242 47.5322 61.2451C47.5322 61.027 47.4557 60.8773 47.3027 60.7959C47.153 60.7113 46.9316 60.6689 46.6387 60.6689C46.3099 60.6689 46.0771 60.7503 45.9404 60.9131C45.8428 61.0335 45.7777 61.1963 45.7451 61.4014H44.4023C44.4316 60.9359 44.5618 60.5534 44.793 60.2539C45.1608 59.7852 45.7923 59.5508 46.6875 59.5508C47.2702 59.5508 47.7878 59.6663 48.2402 59.8975C48.6927 60.1286 48.9189 60.5648 48.9189 61.2061V63.6475C48.9189 63.8167 48.9222 64.0218 48.9287 64.2627C48.9385 64.445 48.9661 64.5687 49.0117 64.6338C49.0573 64.6989 49.1257 64.7526 49.2168 64.7949V65H47.7031C47.6608 64.8926 47.6315 64.7917 47.6152 64.6973C47.599 64.6029 47.5859 64.4954 47.5762 64.375C47.3841 64.5833 47.1628 64.7607 46.9121 64.9072C46.6126 65.0798 46.2741 65.166 45.8965 65.166C45.4147 65.166 45.016 65.0293 44.7002 64.7559C44.3877 64.4792 44.2314 64.0885 44.2314 63.584C44.2314 62.9297 44.4837 62.4561 44.9883 62.1631C45.265 62.0036 45.6719 61.8896 46.209 61.8213L46.6826 61.7627ZM53.0498 59.5508C53.0758 59.5508 53.097 59.5524 53.1133 59.5557C53.1328 59.5557 53.1735 59.5573 53.2354 59.5605V60.9863C53.1475 60.9766 53.0693 60.9701 53.001 60.9668C52.9326 60.9635 52.8773 60.9619 52.835 60.9619C52.2751 60.9619 51.8991 61.1442 51.707 61.5088C51.5996 61.7139 51.5459 62.0296 51.5459 62.4561V65H50.1445V59.6777H51.4727V60.6055C51.6875 60.2507 51.8747 60.0081 52.0342 59.8779C52.2946 59.6598 52.6331 59.5508 53.0498 59.5508ZM56.0186 59.5508C56.3408 59.5508 56.6273 59.6224 56.8779 59.7656C57.1286 59.9056 57.332 60.1009 57.4883 60.3516V57.8125H58.8994V65H57.5469V64.2627C57.3483 64.5785 57.1221 64.8079 56.8682 64.9512C56.6143 65.0944 56.2985 65.166 55.9209 65.166C55.2992 65.166 54.7751 64.9154 54.3486 64.4141C53.9255 63.9095 53.7139 63.2633 53.7139 62.4756C53.7139 61.5674 53.9222 60.8529 54.3389 60.332C54.7588 59.8112 55.3187 59.5508 56.0186 59.5508ZM56.3213 63.9941C56.7152 63.9941 57.0146 63.8477 57.2197 63.5547C57.4248 63.2617 57.5273 62.8825 57.5273 62.417C57.5273 61.766 57.363 61.3005 57.0342 61.0205C56.8324 60.8512 56.598 60.7666 56.3311 60.7666C55.9242 60.7666 55.6247 60.9212 55.4326 61.2305C55.2438 61.5365 55.1494 61.9173 55.1494 62.373C55.1494 62.8646 55.2454 63.2585 55.4375 63.5547C55.6328 63.8477 55.9274 63.9941 56.3213 63.9941Z" fill="#C9D7E5"/>
<path d="M47.8995 37.8995H28.1005" stroke="#C9D7E5" stroke-width="2" stroke-linecap="round" stroke-linejoin="round"/>
<path d="M38 28V47.799" stroke="#C9D7E5" stroke-width="2" stroke-linecap="round" stroke-linejoin="round"/>
</svg>
