<svg width="20" height="20" viewBox="0 0 20 20" fill="none" xmlns="http://www.w3.org/2000/svg">
<path d="M1.25977 7.09961V8.29844H18.7395V7.09961C18.7395 6.46152 19.2615 5.93945 19.8996 5.93945H0.0996094C0.737695 5.93945 1.25977 6.46152 1.25977 7.09961Z" fill="#63829E"/>
<path d="M1.83984 16.4194H5.32031C5.00026 16.4194 4.74023 16.1594 4.74023 15.8394V10.0386C4.74023 9.71853 5.00026 9.4585 5.32031 9.4585H1.83984C2.15989 9.4585 2.41992 9.71853 2.41992 10.0386V15.8394C2.41992 16.1594 2.15989 16.4194 1.83984 16.4194Z" fill="#63829E"/>
<path d="M18.7395 17.5796H1.25977V18.7397H0.0996094V19.8999H19.8996V18.7397H18.7395V17.5796Z" fill="#63829E"/>
<path d="M14.6797 16.4194H18.1602C17.8401 16.4194 17.5801 16.1594 17.5801 15.8394V10.0386C17.5801 9.71853 17.8401 9.4585 18.1602 9.4585H14.6797C14.9997 9.4585 15.2598 9.71853 15.2598 10.0386V15.8394C15.2598 16.1594 14.9997 16.4194 14.6797 16.4194Z" fill="#63829E"/>
<path d="M10 14.6792C9.67995 14.6792 9.41992 14.4192 9.41992 14.0991H8.25977C8.25977 14.8544 8.74618 15.4922 9.41992 15.7325V16.4194H10.5801V15.7325C11.2538 15.4923 11.7402 14.8544 11.7402 14.0991C11.7402 13.1395 10.9596 12.3589 10 12.3589C9.67995 12.3589 9.41992 12.0989 9.41992 11.7788C9.41992 11.4588 9.67995 11.1987 10 11.1987C10.32 11.1987 10.5801 11.4588 10.5801 11.7788H11.7402C11.7402 11.0235 11.2538 10.3857 10.5801 10.1454V9.4585H9.41992V10.1454C8.74618 10.3857 8.25977 11.0235 8.25977 11.7788C8.25977 12.7384 9.0404 13.519 10 13.519C10.32 13.519 10.5801 13.7791 10.5801 14.0991C10.5801 14.4192 10.32 14.6792 10 14.6792Z" fill="#63829E"/>
<path d="M0.0996094 2.58542V4.77939H19.8996V2.58542L9.99961 0.100098L0.0996094 2.58542ZM10.5797 3.03916H9.41953V1.879H10.5797V3.03916Z" fill="#63829E"/>
</svg>
