<svg width="22" height="22" viewBox="0 0 22 22" fill="none" xmlns="http://www.w3.org/2000/svg">
<path d="M2.25977 8.09961V9.29844H19.7395V8.09961C19.7395 7.46152 20.2615 6.93945 20.8996 6.93945H1.09961C1.7377 6.93945 2.25977 7.46152 2.25977 8.09961Z" fill="white"/>
<path d="M2.83984 17.4194H6.32031C6.00026 17.4194 5.74023 17.1594 5.74023 16.8394V11.0386C5.74023 10.7185 6.00026 10.4585 6.32031 10.4585H2.83984C3.15989 10.4585 3.41992 10.7185 3.41992 11.0386V16.8394C3.41992 17.1594 3.15989 17.4194 2.83984 17.4194Z" fill="white"/>
<path d="M19.7395 18.5796H2.25977V19.7397H1.09961V20.8999H20.8996V19.7397H19.7395V18.5796Z" fill="white"/>
<path d="M15.6797 17.4194H19.1602C18.8401 17.4194 18.5801 17.1594 18.5801 16.8394V11.0386C18.5801 10.7185 18.8401 10.4585 19.1602 10.4585H15.6797C15.9997 10.4585 16.2598 10.7185 16.2598 11.0386V16.8394C16.2598 17.1594 15.9997 17.4194 15.6797 17.4194Z" fill="white"/>
<path d="M11 15.6792C10.68 15.6792 10.4199 15.4192 10.4199 15.0991H9.25977C9.25977 15.8544 9.74618 16.4922 10.4199 16.7325V17.4194H11.5801V16.7325C12.2538 16.4923 12.7402 15.8544 12.7402 15.0991C12.7402 14.1395 11.9596 13.3589 11 13.3589C10.68 13.3589 10.4199 13.0989 10.4199 12.7788C10.4199 12.4588 10.68 12.1987 11 12.1987C11.32 12.1987 11.5801 12.4588 11.5801 12.7788H12.7402C12.7402 12.0235 12.2538 11.3857 11.5801 11.1454V10.4585H10.4199V11.1454C9.74618 11.3857 9.25977 12.0235 9.25977 12.7788C9.25977 13.7384 10.0404 14.519 11 14.519C11.32 14.519 11.5801 14.7791 11.5801 15.0991C11.5801 15.4192 11.32 15.6792 11 15.6792Z" fill="white"/>
<path d="M1.09961 3.58542V5.77939H20.8996V3.58542L10.9996 1.1001L1.09961 3.58542ZM11.5797 4.03916H10.4195V2.879H11.5797V4.03916Z" fill="white"/>
</svg>
