<svg width="20" height="20" viewBox="0 0 20 20" fill="none" xmlns="http://www.w3.org/2000/svg">
<path d="M16.3512 3.97425H19.9989L15.8613 0V3.49661C15.8613 3.75995 16.0809 3.97425 16.3512 3.97425Z" fill="#315D80"/>
<path d="M5.71286 0H14.8816V3.4256L13.4636 2.0637C13.1819 1.79336 12.7613 1.71407 12.3969 1.86278C12.358 1.87838 12.3211 1.89685 12.2855 1.91691C12.141 1.83539 11.9737 1.78859 11.7949 1.78859H5.22266V0.477636C5.22266 0.213981 5.44227 0 5.71286 0Z" fill="#315D80"/>
<path d="M19.9993 4.9292V15.8253C19.9993 16.089 19.7796 16.303 19.5091 16.303H17.893V7.67306C17.893 7.49888 17.845 7.33585 17.7613 7.1951C17.7832 7.15848 17.8028 7.12027 17.8198 7.08015C17.9705 6.72161 17.8842 6.30957 17.6009 6.03731L16.4473 4.9292H19.9993Z" fill="#315D80"/>
<path d="M7.43078 7.36084H1.74413C0.780725 7.36084 0 8.12155 0 9.06027V14.6037C0 15.5424 0.780725 16.3031 1.74413 16.3031H7.43078C8.39419 16.3031 9.17524 15.5424 9.17524 14.6037V9.06027C9.17524 8.12155 8.39419 7.36084 7.43078 7.36084ZM5.13141 14.2203V14.6938C5.13141 14.9868 4.88795 15.224 4.58762 15.224C4.28729 15.224 4.0435 14.9865 4.0435 14.6938V14.27C4.0435 14.27 3.19186 14.3961 3.11767 13.7398C3.08467 13.4491 3.36114 13.21 3.66147 13.21H4.75102C4.97651 13.21 5.16017 13.031 5.16017 12.8113C5.16017 12.5916 4.97651 12.4126 4.75102 12.4126H4.42389C3.59839 12.4126 2.92715 11.7586 2.92715 10.9543C2.92715 10.2782 3.40199 9.70985 4.0435 9.54523V8.97015C4.0435 8.6772 4.28729 8.43998 4.58762 8.43998C4.88795 8.43998 5.13141 8.67752 5.13141 8.97015V9.49587C5.13141 9.49587 6.03894 9.34335 6.05757 10.0257C6.06541 10.3184 5.81377 10.5559 5.51344 10.5559H4.42389C4.1984 10.5559 4.01507 10.7349 4.01507 10.9546C4.01507 11.1743 4.1984 11.3529 4.42389 11.3529H4.75102C5.57652 11.3529 6.24809 12.0073 6.24809 12.8116C6.24809 13.4873 5.77292 14.0557 5.13141 14.2203Z" fill="#9BB997"/>
<path d="M13.2633 6.71839H16.9111L12.7734 2.74414V6.24075C12.7734 6.50409 12.993 6.71839 13.2633 6.71839Z" fill="#315D80"/>
<path d="M11.7937 6.24075V2.74414H2.62497C2.35438 2.74414 2.13477 2.95812 2.13477 3.22178V6.43817H7.6103C9.09462 6.43817 10.3022 7.61475 10.3022 9.06103V14.6045C10.3022 16.0507 9.09462 17.2273 7.6103 17.2273H2.13477V18.5698C2.13477 18.8335 2.35438 19.0474 2.62497 19.0474H16.4215C16.6921 19.0474 16.9117 18.8335 16.9117 18.5698V7.67366H13.2639C12.4531 7.67366 11.7937 7.03076 11.7937 6.24075Z" fill="#315D80"/>
</svg>
