<svg width="20" height="20" viewBox="0 0 20 20" fill="none" xmlns="http://www.w3.org/2000/svg">
<path d="M1.25977 7.09961V8.29844H18.7395V7.09961C18.7395 6.46152 19.2615 5.93945 19.8996 5.93945H0.0996094C0.737695 5.93945 1.25977 6.46152 1.25977 7.09961Z" fill="#315D80"/>
<path d="M1.83984 16.4197H5.32031C5.00026 16.4197 4.74023 16.1596 4.74023 15.8396V10.0388C4.74023 9.71877 5.00026 9.45874 5.32031 9.45874H1.83984C2.15989 9.45874 2.41992 9.71877 2.41992 10.0388V15.8396C2.41992 16.1596 2.15989 16.4197 1.83984 16.4197Z" fill="#315D80"/>
<path d="M18.7395 17.5798H1.25977V18.74H0.0996094V19.9001H19.8996V18.74H18.7395V17.5798Z" fill="#315D80"/>
<path d="M14.6797 16.4197H18.1602C17.8401 16.4197 17.5801 16.1596 17.5801 15.8396V10.0388C17.5801 9.71877 17.8401 9.45874 18.1602 9.45874H14.6797C14.9997 9.45874 15.2598 9.71877 15.2598 10.0388V15.8396C15.2598 16.1596 14.9997 16.4197 14.6797 16.4197Z" fill="#315D80"/>
<path d="M10 14.6794C9.67995 14.6794 9.41992 14.4194 9.41992 14.0994H8.25977C8.25977 14.8546 8.74618 15.4925 9.41992 15.7327V16.4197H10.5801V15.7327C11.2538 15.4925 11.7402 14.8546 11.7402 14.0994C11.7402 13.1398 10.9596 12.3591 10 12.3591C9.67995 12.3591 9.41992 12.0991 9.41992 11.7791C9.41992 11.459 9.67995 11.199 10 11.199C10.32 11.199 10.5801 11.459 10.5801 11.7791H11.7402C11.7402 11.0238 11.2538 10.3859 10.5801 10.1457V9.45874H9.41992V10.1457C8.74618 10.3859 8.25977 11.0238 8.25977 11.7791C8.25977 12.7387 9.0404 13.5193 10 13.5193C10.32 13.5193 10.5801 13.7793 10.5801 14.0994C10.5801 14.4194 10.32 14.6794 10 14.6794Z" fill="#315D80"/>
<path d="M0.0996094 2.58542V4.77939H19.8996V2.58542L9.99961 0.100098L0.0996094 2.58542ZM10.5797 3.03916H9.41953V1.879H10.5797V3.03916Z" fill="#315D80"/>
</svg>
