<svg width="23" height="23" viewBox="0 0 23 23" fill="none" xmlns="http://www.w3.org/2000/svg">
<path d="M11.5 0C5.16152 0 0 5.15703 0 11.5C0 17.843 5.15703 23 11.5 23C17.843 23 23 17.8385 23 11.5C23 5.16152 17.8385 0 11.5 0ZM16.1764 13.6248C16.1539 14.7209 15.6732 15.5834 14.7254 16.2033C14.1279 16.5941 13.4227 16.8502 12.6096 16.9715V17.9104C12.6096 18.2158 12.3625 18.4629 12.057 18.4629H11.0463C10.7408 18.4629 10.4938 18.2158 10.4938 17.9104V16.9715C9.59531 16.8367 8.7418 16.4729 8.02305 15.9158C7.56934 15.5744 7.20996 15.215 6.94043 14.8377C6.86406 14.7568 6.82363 14.6535 6.81914 14.5457C6.81465 14.3795 6.9 14.2447 7.07969 14.1414L8.11289 13.535H8.11738C8.11738 13.535 8.31504 13.4451 8.41836 13.4451C8.59355 13.4406 8.76426 13.5215 8.86758 13.6652C9.37969 14.2178 9.91875 14.5951 10.4938 14.7973V12.4164C9.16406 12.2098 8.20723 11.7156 7.61426 10.9205C7.26387 10.4578 7.0707 9.8918 7.0707 9.3123C7.04824 8.08145 7.71758 7.15605 9.07871 6.53164C9.52793 6.32949 10.0086 6.19473 10.4982 6.13184V5.08965C10.4982 4.78418 10.7453 4.53711 11.0463 4.53711H12.057C12.3625 4.53711 12.6096 4.78418 12.6096 5.08965V6.16328C13.7236 6.35645 14.6355 6.85508 15.3453 7.65918C15.4396 7.74004 15.4936 7.85684 15.4936 7.97813C15.4891 8.13086 15.4127 8.25664 15.2555 8.35098L14.1189 9.06074H14.1145C14.1145 9.06074 13.9123 9.16406 13.7686 9.15957C13.5934 9.15957 13.4271 9.10117 13.2969 8.98887C13.0902 8.80469 12.8566 8.65195 12.6051 8.53516V10.4398C13.9617 10.633 14.959 11.1092 15.6014 11.8729C16.0012 12.358 16.1898 12.9375 16.1764 13.6248Z" fill="#9BB997"/>
</svg>
