<svg width="30" height="30" viewBox="0 0 30 30" fill="none" xmlns="http://www.w3.org/2000/svg">
<path d="M29.7391 13.6154L24.3362 1.60883C23.7358 0.258086 22.235 -0.34222 20.8842 0.258086L1.52363 8.81277C0.47308 9.41308 -0.127296 10.4637 0.0228335 11.6643C0.0228335 11.8144 0.0228335 11.8144 0.0228335 11.9645V26.9727C0.0228335 28.6236 1.37357 29.9744 3.0245 29.9744H25.5368C27.1878 29.9744 28.5385 28.6236 28.5385 26.9727V17.0673C29.8892 16.467 30.3395 14.8161 29.7391 13.6154ZM25.5368 26.9728H3.0245V17.9678H25.5368V26.9728ZM25.5368 14.9662H3.0245V11.9645H25.5368V14.9662Z" fill="#315D80"/>
<path d="M16.5311 20.9692H6.02539V23.9709H16.5311V20.9692Z" fill="#315D80"/>
<path d="M21.034 23.9713C21.8629 23.9713 22.5348 23.2994 22.5348 22.4705C22.5348 21.6417 21.8629 20.9697 21.034 20.9697C20.2051 20.9697 19.5332 21.6417 19.5332 22.4705C19.5332 23.2994 20.2051 23.9713 21.034 23.9713Z" fill="#315D80"/>
</svg>
