<svg width="22" height="22" viewBox="0 0 22 22" fill="none" xmlns="http://www.w3.org/2000/svg">
<g clip-path="url(#clip0_6990_6022)">
<path d="M19.2494 7.3335H17.416C16.9095 7.3335 16.4994 6.92347 16.4994 6.41665C16.4994 5.9101 16.9095 5.50007 17.416 5.50007H19.2494C19.7563 5.50007 20.166 5.9101 20.166 6.41665H21.9994C21.9994 4.89835 20.7677 3.66665 19.2494 3.66665V1.8335H17.416V3.66665C15.8977 3.66665 14.666 4.89781 14.666 6.41665C14.666 7.93495 15.8977 9.16665 17.416 9.16665H19.2494C19.7563 9.16665 20.166 9.57668 20.166 10.0835H20.1643C20.1643 10.59 19.7543 11.0001 19.2475 11.0001H17.416C16.9095 11.0001 16.4994 10.59 16.4994 10.0835H14.666C14.666 11.6018 15.8977 12.8335 17.416 12.8335V14.6666H19.2494V12.8335C20.7677 12.8316 21.9986 11.6018 21.9986 10.0835H21.9994C21.9994 8.56525 20.7677 7.3335 19.2494 7.3335Z" fill="#315D80"/>
<path d="M0 0V18.3334C0 20.3583 1.64173 22 3.66658 22C5.69143 22 7.33342 20.3583 7.33342 18.3334V14.6666H12.8334V0H0ZM1.83342 1.83342H7.33342V3.66658H1.83342V1.83342ZM5.5 14.6666H1.83342V12.8334H5.5V14.6666ZM9.16658 11H1.83342V9.16658H9.16658V11ZM11 7.33342H1.83342V5.5H11V7.33342Z" fill="#315D80"/>
<path d="M9.16656 16.5V18.3334C9.16656 19.7423 8.6295 21.026 7.75391 22H15.5834C17.6083 22 19.25 20.3583 19.25 18.3334V16.5H9.16656Z" fill="#315D80"/>
</g>
<defs>
<clipPath id="clip0_6990_6022">
<rect width="22" height="22" fill="white"/>
</clipPath>
</defs>
</svg>
