<svg width="12" height="16" viewBox="0 0 12 16" fill="none" xmlns="http://www.w3.org/2000/svg">
<path d="M3.67805 0.230593L0.2519 3.43117C0.172038 3.50578 0.108688 3.59435 0.0654666 3.69182C0.0222454 3.7893 -5.2918e-07 3.89377 -5.24568e-07 3.99928C-5.15254e-07 4.21235 0.0906109 4.41671 0.2519 4.56738C0.413189 4.71805 0.631945 4.80269 0.860042 4.80269C1.08814 4.80269 1.30689 4.71805 1.46818 4.56738L3.42966 2.72704L3.42966 12.0007C3.42966 12.2129 3.5199 12.4165 3.68053 12.5665C3.84116 12.7166 4.05903 12.8009 4.28619 12.8009C4.51336 12.8009 4.73123 12.7166 4.89186 12.5665C5.05249 12.4165 5.14273 12.2129 5.14273 12.0007L5.14273 0.798694C5.14189 0.640726 5.09101 0.486524 4.9965 0.355525C4.902 0.224525 4.7681 0.122588 4.61168 0.0625608C4.45569 0.00128631 4.28377 -0.0154535 4.11762 0.0144508C3.95146 0.0443552 3.7985 0.119566 3.67805 0.230593ZM6.85581 3.99927L6.85581 15.2013C6.85665 15.3593 6.90753 15.5135 7.00204 15.6445C7.09654 15.7755 7.23044 15.8774 7.38686 15.9374C7.54285 15.9987 7.71476 16.0155 7.88092 15.9856C8.04708 15.9556 8.20004 15.8804 8.32049 15.7694L11.7466 12.5688C11.8269 12.4944 11.8906 12.4059 11.9341 12.3084C11.9776 12.2109 12 12.1064 12 12.0007C12 11.8951 11.9776 11.7905 11.9341 11.693C11.8906 11.5955 11.8269 11.507 11.7466 11.4326C11.667 11.3576 11.5723 11.2981 11.4679 11.2575C11.3635 11.2169 11.2516 11.1959 11.1385 11.1959C11.0254 11.1959 10.9135 11.2169 10.8091 11.2575C10.7047 11.2981 10.61 11.3576 10.5304 11.4326L8.56888 13.273L8.56888 3.99927C8.56888 3.78706 8.47864 3.58354 8.31801 3.43349C8.15738 3.28343 7.93951 3.19913 7.71234 3.19913C7.48518 3.19913 7.26731 3.28343 7.10668 3.43349C6.94605 3.58354 6.85581 3.78706 6.85581 3.99927Z" fill="white"/>
</svg>
