<svg width="16" height="18" viewBox="0 0 16 18" fill="none" xmlns="http://www.w3.org/2000/svg">
<path fill-rule="evenodd" clip-rule="evenodd" d="M16 2.37378C16 2.94831 15.5474 3.41406 14.9891 3.41406L8 3.41406C7.44168 3.41406 6.98908 2.94831 6.98908 2.37378C6.98908 1.79925 7.44168 1.3335 8 1.3335L14.9891 1.3335C15.5474 1.3335 16 1.79925 16 2.37378ZM16 8.66683C16 9.24136 15.5474 9.70711 14.9891 9.70711L12.3682 9.70711C11.8099 9.70711 11.3573 9.24136 11.3573 8.66683C11.3573 8.0923 11.8099 7.62655 12.3682 7.62655L14.9891 7.62655C15.5474 7.62655 16 8.0923 16 8.66683ZM16 14.9599C16 15.5344 15.5474 16.0002 14.9891 16.0002L7.12636 16.0002C6.56805 16.0002 6.11544 15.5344 6.11544 14.9599C6.11544 14.3854 6.56805 13.9196 7.12636 13.9196L14.9891 13.9196C15.5474 13.9196 16 14.3854 16 14.9599ZM9.88456 8.66683C9.88455 9.24136 9.43195 9.70711 8.87363 9.70711L1.01092 9.70711C0.452605 9.70711 6.08011e-07 9.24136 6.33124e-07 8.66683C6.58238e-07 8.0923 0.452605 7.62655 1.01092 7.62655L8.87363 7.62655C9.43195 7.62655 9.88456 8.0923 9.88456 8.66683ZM5.51638 2.37378C5.51638 2.94831 5.06378 3.41406 4.50546 3.41406L1.01092 3.41406C0.452605 3.41406 8.83089e-07 2.94831 9.08202e-07 2.37378C9.33316e-07 1.79924 0.452605 1.3335 1.01092 1.3335L4.50546 1.3335C5.06378 1.3335 5.51638 1.79924 5.51638 2.37378ZM4.64275 14.9599C4.64275 15.5344 4.19014 16.0002 3.63182 16.0002L1.01092 16.0002C0.452605 16.0002 3.32932e-07 15.5344 3.58046e-07 14.9599C3.8316e-07 14.3854 0.452605 13.9196 1.01092 13.9196L3.63182 13.9196C4.19014 13.9196 4.64275 14.3854 4.64275 14.9599Z" fill="#97B1C7"/>
<path fill-rule="evenodd" clip-rule="evenodd" d="M7.37923 2.66667C7.37923 2.27349 7.0605 1.95475 6.66732 1.95475C6.27414 1.95475 5.9554 2.27349 5.9554 2.66667C5.9554 3.05985 6.27414 3.37858 6.66732 3.37858C7.0605 3.37858 7.37923 3.05985 7.37923 2.66667ZM6.66732 -1.16564e-07C8.14008 -5.21873e-08 9.33398 1.19391 9.33398 2.66667C9.33398 4.13943 8.14008 5.33333 6.66732 5.33333C5.19456 5.33333 4.00065 4.13943 4.00065 2.66667C4.00065 1.19391 5.19456 -1.8094e-07 6.66732 -1.16564e-07Z" fill="#97B1C7"/>
<path fill-rule="evenodd" clip-rule="evenodd" d="M11.3792 8.00016C11.3792 7.60698 11.0605 7.28825 10.6673 7.28825C10.2741 7.28825 9.9554 7.60698 9.9554 8.00016C9.9554 8.39334 10.2741 8.71208 10.6673 8.71208C11.0605 8.71208 11.3792 8.39334 11.3792 8.00016ZM10.6673 5.3335C12.1401 5.3335 13.334 6.5274 13.334 8.00016C13.334 9.47292 12.1401 10.6668 10.6673 10.6668C9.19456 10.6668 8.00065 9.47292 8.00065 8.00016C8.00065 6.5274 9.19456 5.3335 10.6673 5.3335Z" fill="#97B1C7"/>
<path fill-rule="evenodd" clip-rule="evenodd" d="M6.04525 14.6667C6.04525 14.2735 5.72651 13.9548 5.33333 13.9548C4.94015 13.9548 4.62142 14.2735 4.62142 14.6667C4.62142 15.0598 4.94015 15.3786 5.33333 15.3786C5.72651 15.3786 6.04525 15.0598 6.04525 14.6667ZM5.33333 12C6.80609 12 8 13.1939 8 14.6667C8 16.1394 6.80609 17.3333 5.33333 17.3333C3.86057 17.3333 2.66667 16.1394 2.66667 14.6667C2.66667 13.1939 3.86057 12 5.33333 12Z" fill="#97B1C7"/>
</svg>
