<svg width="22" height="15" viewBox="0 0 22 15" fill="none" xmlns="http://www.w3.org/2000/svg">
<path d="M0.251953 14.5004V8.30564C0.251953 7.84103 0.351328 7.41944 0.550078 7.04087C0.748828 6.66229 1.01082 6.32674 1.33604 6.03421V3.1433C1.33604 2.28291 1.65224 1.55158 2.28462 0.949308C2.91701 0.347035 3.68491 0.0458984 4.58832 0.0458984H8.92468C9.34025 0.0458984 9.72871 0.119203 10.0901 0.265814C10.4514 0.412424 10.7857 0.614444 11.0929 0.871873C11.4 0.613756 11.7343 0.411736 12.0956 0.265814C12.457 0.119892 12.8455 0.0465867 13.261 0.0458984H17.5974C18.5008 0.0458984 19.2687 0.347035 19.9011 0.949308C20.5335 1.55158 20.8497 2.28291 20.8497 3.1433V6.03421C21.1749 6.32674 21.4369 6.66229 21.6356 7.04087C21.8344 7.41944 21.9338 7.84103 21.9338 8.30564V14.5004H19.7656V12.4355H2.42014V14.5004H0.251953ZM12.177 5.20824H18.6815V3.1433C18.6815 2.85077 18.5774 2.60539 18.3693 2.40715C18.1611 2.20892 17.9038 2.11015 17.5974 2.11083H13.261C12.9539 2.11083 12.6962 2.20995 12.4881 2.40818C12.2799 2.60642 12.1762 2.85146 12.177 3.1433V5.20824ZM3.50423 5.20824H10.0088V3.1433C10.0088 2.85077 9.9047 2.60539 9.69655 2.40715C9.48841 2.20892 9.23112 2.11015 8.92468 2.11083H4.58832C4.28116 2.11083 4.02351 2.20995 3.81536 2.40818C3.60721 2.60642 3.5035 2.85146 3.50423 3.1433V5.20824ZM2.42014 10.3706H19.7656V8.30564C19.7656 8.01311 19.6615 7.76772 19.4534 7.56949C19.2452 7.37126 18.9879 7.27248 18.6815 7.27317H3.50423C3.19707 7.27317 2.93941 7.37229 2.73127 7.57052C2.52312 7.76876 2.41941 8.01379 2.42014 8.30564V10.3706Z" fill="#92A3B4"/>
</svg>
