<svg width="19" height="13" viewBox="0 0 19 13" fill="none" xmlns="http://www.w3.org/2000/svg">
<path d="M1.77273 13V11.8182H4.72727V6.5L0 1.18182V0H10.6364V1.18182L5.90909 6.5V11.8182H8.86364V13H1.77273ZM2.62955 2.36364H8.00682L9.07046 1.18182H1.56591L2.62955 2.36364Z" fill="white"/>
<path d="M14.1817 8.58886V0H18.909V1.77273H15.3635V10.6364C15.3634 11.1567 15.1916 11.6624 14.8748 12.0751C14.558 12.4878 14.1138 12.7845 13.6112 12.919C13.1087 13.0536 12.5757 13.0186 12.095 12.8194C11.6144 12.6202 11.2129 12.268 10.9528 11.8174C10.6927 11.3668 10.5885 10.843 10.6565 10.3271C10.7244 9.81128 10.9607 9.33228 11.3286 8.9644C11.6965 8.59651 12.1756 8.36031 12.6914 8.29241C13.2073 8.22451 13.7311 8.32872 14.1817 8.58886Z" fill="white"/>
</svg>
