<svg width="18" height="16" viewBox="0 0 18 16" fill="none" xmlns="http://www.w3.org/2000/svg">
<path d="M12.3789 16C10.9053 16 9.65263 15.5333 8.62105 14.6C7.58947 13.6667 7.07368 12.5333 7.07368 11.2C7.07368 9.86667 7.58947 8.73333 8.62105 7.8C9.65263 6.86667 10.9053 6.4 12.3789 6.4C13.8526 6.4 15.1053 6.86667 16.1368 7.8C17.1684 8.73333 17.6842 9.86667 17.6842 11.2C17.6842 12.5333 17.1684 13.6667 16.1368 14.6C15.1053 15.5333 13.8526 16 12.3789 16ZM12.3789 14.4C13.3516 14.4 14.1842 14.0867 14.8768 13.46C15.5695 12.8333 15.9158 12.08 15.9158 11.2C15.9158 10.32 15.5695 9.56667 14.8768 8.94C14.1842 8.31333 13.3516 8 12.3789 8C11.4063 8 10.5737 8.31333 9.88105 8.94C9.18842 9.56667 8.8421 10.32 8.8421 11.2C8.8421 12.08 9.18842 12.8333 9.88105 13.46C10.5737 14.0867 11.4063 14.4 12.3789 14.4ZM1.76842 14.4C1.28211 14.4 0.865937 14.2435 0.519916 13.9304C0.173895 13.6173 0.000589474 13.2405 0 12.8V6.72C0 6.61333 0.0112001 6.50667 0.0336001 6.4C0.0560001 6.29333 0.0890106 6.18667 0.132632 6.08L1.90105 2.4H1.76842C1.51789 2.4 1.30804 2.3232 1.13886 2.1696C0.969684 2.016 0.8848 1.82613 0.88421 1.6V0.8C0.88421 0.573333 0.969095 0.383467 1.13886 0.2304C1.30863 0.0773334 1.51848 0.000533333 1.76842 0H7.95789C8.20842 0 8.41857 0.0768001 8.58834 0.2304C8.7581 0.384 8.84269 0.573867 8.8421 0.8V1.6C8.8421 1.82667 8.75722 2.0168 8.58745 2.1704C8.41768 2.324 8.20783 2.40053 7.95789 2.4H7.82526L9.28421 5.44C9.00421 5.57333 8.73895 5.71333 8.48842 5.86C8.23789 6.00667 8.0021 6.17333 7.78105 6.36L5.92421 2.4H3.80211L1.76842 6.72V12.8H5.52632C5.6 13.08 5.69933 13.3568 5.82429 13.6304C5.94926 13.904 6.10046 14.1605 6.27789 14.4H1.76842ZM12.3789 5.6C11.76 5.6 11.2368 5.40667 10.8095 5.02C10.3821 4.63333 10.1684 4.16 10.1684 3.6C10.1684 3.04 10.3821 2.56667 10.8095 2.18C11.2368 1.79333 11.76 1.6 12.3789 1.6V5.6ZM12.3789 5.6C12.3789 5.04 12.5926 4.56667 13.02 4.18C13.4474 3.79333 13.9705 3.6 14.5895 3.6C15.2084 3.6 15.7316 3.79333 16.1589 4.18C16.5863 4.56667 16.8 5.04 16.8 5.6H12.3789Z" fill="#315D80"/>
</svg>
