<svg width="31" height="21" viewBox="0 0 31 21" fill="none" xmlns="http://www.w3.org/2000/svg">
<path d="M2.86364 21V19.0909H7.63636V10.5L0 1.90909V0H17.1818V1.90909L9.54546 10.5V19.0909H14.3182V21H2.86364ZM4.24773 3.81818H12.9341L14.6523 1.90909H2.52955L4.24773 3.81818Z" fill="white"/>
<path d="M22.9109 13.8743V0H30.5472V2.86364H24.82V17.1818C24.8198 18.0223 24.5423 18.8392 24.0305 19.5059C23.5187 20.1726 22.8013 20.6518 21.9894 20.8692C21.1775 21.0866 20.3166 21.03 19.5401 20.7083C18.7637 20.3866 18.1151 19.8176 17.6949 19.0897C17.2748 18.3618 17.1065 17.5155 17.2163 16.6823C17.3261 15.849 17.7077 15.0752 18.3021 14.4809C18.8964 13.8867 19.6702 13.5051 20.5035 13.3954C21.3368 13.2858 22.183 13.4541 22.9109 13.8743Z" fill="white"/>
</svg>
