<svg width="15" height="12" viewBox="0 0 15 12" fill="none" xmlns="http://www.w3.org/2000/svg">
<path d="M13.6364 10.6667H15V12H0V10.6667H1.36364V0.666667C1.36364 0.489856 1.43547 0.320286 1.56334 0.195262C1.6912 0.0702379 1.86463 0 2.04545 0H8.86364C9.04447 0 9.21789 0.0702379 9.34575 0.195262C9.47362 0.320286 9.54545 0.489856 9.54545 0.666667V10.6667H12.2727V5.33333H10.9091V4H12.9545C13.1354 4 13.3088 4.07024 13.4367 4.19526C13.5645 4.32029 13.6364 4.48986 13.6364 4.66667V10.6667ZM2.72727 1.33333V10.6667H8.18182V1.33333H2.72727ZM4.09091 5.33333H6.81818V6.66667H4.09091V5.33333ZM4.09091 2.66667H6.81818V4H4.09091V2.66667Z" fill="#92A3B4"/>
</svg>
