<svg width="12" height="18" viewBox="0 0 12 18" fill="none" xmlns="http://www.w3.org/2000/svg">
<path d="M7.80361 0.285719C7.23217 0.107145 6.62502 0 6.00001 0C4.16069 0 2.51781 0.8393 1.41064 2.14289L4.24998 4.51793L7.80361 0.285719Z" fill="#1A73E8"/>
<path d="M1.41074 2.14258C0.535723 3.17831 0 4.53547 0 5.99978C0 7.1248 0.232147 8.03553 0.589295 8.85698L4.23221 4.53547L1.41074 2.14258Z" fill="#EA4335"/>
<path d="M6.00003 3.69621C7.26791 3.69621 8.28578 4.71408 8.28578 5.98196C8.28578 6.5534 8.08935 7.07126 7.75006 7.46413C7.75006 7.46413 9.55366 5.30338 11.3215 3.21406C10.5894 1.82118 9.33937 0.749729 7.82149 0.267578L4.25 4.51765C4.66072 4.01764 5.28573 3.69621 6.00003 3.69621Z" fill="#4285F4"/>
<path d="M5.99988 8.28522C4.732 8.28522 3.71413 7.26734 3.71413 5.99947C3.71413 5.44589 3.91056 4.92802 4.24985 4.53516L0.606934 8.85666C1.21409 10.2317 2.24982 11.3388 3.32126 12.7317L7.74991 7.46378C7.33919 7.96378 6.69632 8.28522 5.99988 8.28522Z" fill="#FBBC04"/>
<path d="M7.66065 14.179C9.66068 11.054 12 9.62538 12 6.00032C12 5.00031 11.75 4.07172 11.3214 3.23242L3.32129 12.7326C3.66058 13.179 3.99987 13.6433 4.33916 14.179C5.55347 16.0541 5.21418 17.1791 5.9999 17.1791C6.78563 17.1791 6.44634 16.0541 7.66065 14.179Z" fill="#34A853"/>
</svg>
