<svg width="21" height="14" viewBox="0 0 21 14" fill="none" xmlns="http://www.w3.org/2000/svg">
<path d="M1.90909 14V12.7273H5.09091V7L0 1.27273V0H11.4545V1.27273L6.36364 7V12.7273H9.54546V14H1.90909ZM2.83182 2.54545H8.62273L9.76818 1.27273H1.68636L2.83182 2.54545Z" fill="white"/>
<path d="M15.2733 9.24955V0H20.3642V1.90909H16.546V11.4545C16.5459 12.0149 16.3609 12.5595 16.0197 13.0039C15.6785 13.4484 15.2002 13.7679 14.6589 13.9128C14.1177 14.0577 13.5437 14.02 13.0261 13.8055C12.5085 13.591 12.0761 13.2117 11.796 12.7265C11.5159 12.2412 11.4037 11.677 11.4769 11.1215C11.5501 10.566 11.8045 10.0501 12.2007 9.65397C12.597 9.25778 13.1128 9.00341 13.6684 8.93029C14.2239 8.85717 14.788 8.96939 15.2733 9.24955Z" fill="white"/>
</svg>
