<svg width="31" height="21" viewBox="0 0 31 21" fill="none" xmlns="http://www.w3.org/2000/svg">
<path d="M2.86364 21V19.0909H7.63636V10.5L0 1.90909V0H17.1818V1.90909L9.54546 10.5V19.0909H14.3182V21H2.86364ZM4.24773 3.81818H12.9341L14.6523 1.90909H2.52955L4.24773 3.81818Z" fill="#315D80"/>
<path d="M22.9092 13.8743V0H30.5455V2.86364H24.8183V17.1818C24.8181 18.0223 24.5406 18.8392 24.0288 19.5059C23.517 20.1726 22.7995 20.6518 21.9877 20.8692C21.1758 21.0866 20.3149 21.03 19.5384 20.7083C18.762 20.3866 18.1134 19.8176 17.6932 19.0897C17.2731 18.3618 17.1048 17.5155 17.2146 16.6823C17.3244 15.849 17.706 15.0752 18.3004 14.4809C18.8947 13.8867 19.6685 13.5051 20.5018 13.3954C21.3351 13.2858 22.1813 13.4541 22.9092 13.8743Z" fill="#315D80"/>
</svg>
