<svg width="29" height="23" viewBox="0 0 29 23" fill="none" xmlns="http://www.w3.org/2000/svg">
<path d="M28.242 16.8111C28.4467 17.2528 28.549 17.7117 28.549 18.1879V18.9332C28.549 19.4577 28.4043 19.9373 28.115 20.3721C27.8256 20.8068 27.4374 21.1312 26.9505 21.3451C26.7317 21.8213 26.4 22.2008 25.9553 22.4838C25.5107 22.7667 25.0202 22.9082 24.4838 22.9082C23.9969 22.9082 23.5452 22.7909 23.1288 22.5563C22.7124 22.3216 22.3807 21.9973 22.1337 21.5832H14.6385C14.3915 21.9973 14.0598 22.3216 13.6434 22.5563C13.227 22.7909 12.7753 22.9082 12.2883 22.9082C11.8013 22.9082 11.3496 22.7909 10.9332 22.5563C10.5168 22.3216 10.1851 21.9973 9.93812 21.5832H8.22313C8.03257 21.5832 7.85613 21.5487 7.69381 21.4797C7.53148 21.4107 7.39033 21.3175 7.27035 21.2002C7.15037 21.0829 7.05157 20.9414 6.97393 20.7758C6.8963 20.6102 6.86101 20.4376 6.86807 20.2582V17.6082C6.86807 17.0561 6.97393 16.5385 7.18566 16.0555C7.39739 15.5724 7.68675 15.1514 8.05375 14.7926C8.42074 14.4337 8.85125 14.1508 9.34529 13.9437C9.83932 13.7367 10.3686 13.6332 10.9332 13.6332H11.3249L14.7973 10.2379C14.9878 10.0516 15.2066 9.91009 15.4536 9.81348C15.7007 9.71686 15.9618 9.6651 16.237 9.6582H25.8389V10.9832H25.5319L28.242 16.8111ZM20.4187 10.9832V13.6332H25.2778L24.2298 11.3662C24.1733 11.2489 24.0886 11.1557 23.9757 11.0867C23.8628 11.0177 23.7393 10.9832 23.6052 10.9832H20.4187ZM16.237 10.9832C16.0535 10.9832 15.8947 11.0488 15.7606 11.1799L13.2517 13.6332H19.0636V10.9832H16.237ZM12.2883 21.5832C12.4789 21.5832 12.6553 21.5487 12.8176 21.4797C12.9799 21.4107 13.1211 21.3175 13.2411 21.2002C13.3611 21.0829 13.4599 20.9414 13.5375 20.7758C13.6151 20.6102 13.6504 20.4376 13.6434 20.2582C13.6434 20.0719 13.6081 19.8993 13.5375 19.7406C13.4669 19.5819 13.3716 19.4439 13.2517 19.3266C13.1317 19.2092 12.987 19.1126 12.8176 19.0367C12.6482 18.9608 12.4718 18.9263 12.2883 18.9332C12.0977 18.9332 11.9213 18.9677 11.759 19.0367C11.5967 19.1057 11.4555 19.1989 11.3355 19.3162C11.2155 19.4335 11.1167 19.575 11.0391 19.7406C10.9615 19.9062 10.9262 20.0788 10.9332 20.2582C10.9332 20.4445 10.9685 20.6171 11.0391 20.7758C11.1097 20.9345 11.205 21.0725 11.3249 21.1898C11.4449 21.3072 11.5896 21.4038 11.759 21.4797C11.9284 21.5556 12.1048 21.5901 12.2883 21.5832ZM12.2883 17.6082C12.6624 17.6082 13.0117 17.6772 13.3364 17.8152C13.661 17.9533 13.9504 18.143 14.2044 18.3846C14.4585 18.6261 14.6526 18.9056 14.7867 19.223C14.9208 19.5405 14.9914 19.8855 14.9984 20.2582H19.0636V14.9582H10.9332C10.5592 14.9582 10.2098 15.0272 9.88519 15.1652C9.56054 15.3033 9.27118 15.493 9.01711 15.7346C8.76303 15.9761 8.56895 16.2556 8.43486 16.573C8.30076 16.8905 8.23019 17.2355 8.22313 17.6082V20.2582H9.57819C9.57819 19.8924 9.64876 19.5508 9.78992 19.2334C9.93107 18.916 10.1252 18.633 10.3722 18.3846C10.6192 18.1361 10.905 17.9464 11.2297 17.8152C11.5543 17.6841 11.9072 17.6151 12.2883 17.6082ZM24.4838 21.5832C24.6744 21.5832 24.8508 21.5487 25.0132 21.4797C25.1755 21.4107 25.3166 21.3175 25.4366 21.2002C25.5566 21.0829 25.6554 20.9414 25.733 20.7758C25.8107 20.6102 25.8459 20.4376 25.8389 20.2582C25.8389 20.0719 25.8036 19.8993 25.733 19.7406C25.6625 19.5819 25.5672 19.4439 25.4472 19.3266C25.3272 19.2092 25.1825 19.1126 25.0132 19.0367C24.8438 18.9608 24.6673 18.9263 24.4838 18.9332C24.2933 18.9332 24.1168 18.9677 23.9545 19.0367C23.7922 19.1057 23.651 19.1989 23.5311 19.3162C23.4111 19.4335 23.3123 19.575 23.2346 19.7406C23.157 19.9062 23.1217 20.0788 23.1288 20.2582C23.1288 20.4445 23.1641 20.6171 23.2346 20.7758C23.3052 20.9345 23.4005 21.0725 23.5205 21.1898C23.6404 21.3072 23.7851 21.4038 23.9545 21.4797C24.1239 21.5556 24.3003 21.5901 24.4838 21.5832ZM27.194 18.1879C27.194 17.9049 27.134 17.6289 27.014 17.3598L25.8918 14.9582H20.4187V20.2582H21.7737C21.7737 19.8924 21.8443 19.5508 21.9854 19.2334C22.1266 18.916 22.3207 18.633 22.5677 18.3846C22.8147 18.1361 23.1005 17.9464 23.4252 17.8152C23.7498 17.6841 24.1027 17.6151 24.4838 17.6082C24.7803 17.6082 25.0661 17.6531 25.3413 17.7428C25.6166 17.8325 25.8671 17.9602 26.093 18.1258C26.3188 18.2914 26.5164 18.4881 26.6858 18.7158C26.8552 18.9436 26.9858 19.1989 27.0775 19.4818C27.1551 19.2955 27.194 19.1126 27.194 18.9332V18.1879Z" fill="#92A3B4"/>
<path fill-rule="evenodd" clip-rule="evenodd" d="M7.46875 0.0214844C11.1277 0.0214844 14.0938 2.9875 14.0938 6.64648C14.0938 10.3055 11.1277 13.2715 7.46875 13.2715C3.80976 13.2715 0.84375 10.3055 0.84375 6.64648C0.84375 2.9875 3.80976 0.0214844 7.46875 0.0214844ZM7.46875 1.34648C6.0631 1.34648 4.71503 1.90488 3.72108 2.89882C2.72714 3.89276 2.16875 5.24084 2.16875 6.64648C2.16875 8.05213 2.72714 9.40021 3.72108 10.3942C4.71503 11.3881 6.0631 11.9465 7.46875 11.9465C8.8744 11.9465 10.2225 11.3881 11.2164 10.3942C12.2104 9.40021 12.7688 8.05213 12.7688 6.64648C12.7688 5.24084 12.2104 3.89276 11.2164 2.89882C10.2225 1.90488 8.8744 1.34648 7.46875 1.34648ZM8.4625 3.33398C9.06703 3.33311 9.648 3.56837 10.0816 3.98962C10.5152 4.41087 10.7671 4.98481 10.7837 5.58911C10.8003 6.19342 10.5802 6.78031 10.1704 7.22471C9.76056 7.66911 9.19337 7.93588 8.5897 7.96817L8.4625 7.97148H6.80625V9.29648C6.80606 9.46534 6.74141 9.62776 6.62549 9.75054C6.50957 9.87333 6.35114 9.94722 6.18258 9.95711C6.01401 9.96701 5.84802 9.91216 5.71854 9.80378C5.58905 9.69541 5.50583 9.54167 5.48589 9.374L5.48125 9.29648V4.65898C5.48114 4.3247 5.60739 4.00273 5.83469 3.75762C6.06199 3.51251 6.37354 3.36237 6.70688 3.3373L6.80625 3.33398H8.4625ZM8.4625 4.65898H6.80625V6.64648H8.4625C8.71771 6.64636 8.96308 6.54805 9.14778 6.37194C9.33248 6.19582 9.44235 5.9554 9.45461 5.70049C9.46687 5.44558 9.3806 5.19572 9.21366 5.00269C9.04672 4.80966 8.81192 4.68825 8.5579 4.66362L8.4625 4.65898Z" fill="#92A3B4"/>
</svg>
