<svg width="16" height="16" viewBox="0 0 16 16" fill="none" xmlns="http://www.w3.org/2000/svg">
<path fill-rule="evenodd" clip-rule="evenodd" d="M3.20929 4.06776V3.96753C3.20929 2.91527 3.71404 1.90612 4.61251 1.16206C5.51098 0.418006 6.72957 0 8.00019 0C9.27082 0 10.4894 0.418006 11.3879 1.16206C12.2863 1.90612 12.7911 2.91527 12.7911 3.96753V4.06776H14.305C14.8809 4.06776 15.3701 4.41774 15.4548 4.88967L15.6747 6.13672C16.1084 8.59074 16.1084 11.0849 15.6747 13.5389C15.5728 14.1151 15.2419 14.6467 14.7342 15.0497C14.2266 15.4527 13.5713 15.7041 12.8718 15.764L12.2374 15.8183C9.42016 16.0606 6.58023 16.0606 3.76302 15.8183L3.1286 15.764C2.42914 15.7041 1.77377 15.4527 1.26614 15.0497C0.75851 14.6467 0.427575 14.1151 0.325667 13.5389C-0.108556 11.0846 -0.108556 8.59101 0.325667 6.13672L0.546553 4.88967C0.586996 4.66127 0.725317 4.45256 0.936245 4.30165C1.14717 4.15074 1.41662 4.06773 1.69536 4.06776H3.20929ZM7.18322 1.33894C7.66746 1.23573 8.1738 1.22564 8.66348 1.30943C9.15315 1.39322 9.6132 1.56866 10.0084 1.82235C10.4036 2.07603 10.7235 2.40122 10.9436 2.77304C11.1637 3.14486 11.2781 3.55344 11.2782 3.96753V4.06776H4.72221V3.96753C4.72231 3.3654 4.96414 2.78039 5.40965 2.30454C5.85517 1.82869 6.47908 1.489 7.18322 1.33894ZM3.20929 5.32066V7.20002C3.20929 7.36617 3.28899 7.52551 3.43085 7.64299C3.57271 7.76047 3.76512 7.82647 3.96575 7.82647C4.16637 7.82647 4.35878 7.76047 4.50064 7.64299C4.64251 7.52551 4.72221 7.36617 4.72221 7.20002V5.32066H11.2782V7.20002C11.2782 7.36617 11.3579 7.52551 11.4997 7.64299C11.6416 7.76047 11.834 7.82647 12.0346 7.82647C12.2353 7.82647 12.4277 7.76047 12.5695 7.64299C12.7114 7.52551 12.7911 7.36617 12.7911 7.20002V5.32066H14.0014L14.1779 6.31798C14.5905 8.65209 14.5905 11.0235 14.1779 13.3576C14.1249 13.6583 13.9523 13.9358 13.6874 14.146C13.4225 14.3563 13.0805 14.4875 12.7155 14.5186L12.081 14.5721C9.36787 14.806 6.63252 14.806 3.91935 14.5721L3.28393 14.5178C2.9191 14.4864 2.57731 14.3553 2.31262 14.145C2.04793 13.9347 1.87545 13.6574 1.82245 13.3568C1.40957 11.023 1.40957 8.65179 1.82245 6.31798L1.99895 5.32066H3.20929Z" fill="#315D80"/>
</svg>
