<svg width="20" height="20" viewBox="0 0 20 20" fill="none" xmlns="http://www.w3.org/2000/svg">
<path d="M18.9673 11.7912V12.7548C18.9673 14.5954 17.9362 16.195 16.4137 17.0044L17.04 19.5003H15.1127L14.6309 17.573H5.9582L5.47639 19.5003H3.54911L4.17548 17.0044C3.40378 16.5951 2.75826 15.9831 2.30833 15.2344C1.85839 14.4856 1.62105 13.6284 1.62184 12.7548V11.7912H0.658203V9.8639H18.0037V3.11845C18.0037 2.86288 17.9021 2.61777 17.7214 2.43705C17.5407 2.25634 17.2956 2.15481 17.04 2.15481C16.5582 2.15481 16.192 2.48245 16.0764 2.91608C16.6835 3.43645 17.04 4.20736 17.04 5.04572H11.2582C11.2582 4.279 11.5628 3.54369 12.1049 3.00154C12.6471 2.45939 13.3824 2.15481 14.1491 2.15481H14.3129C14.708 1.03699 15.7777 0.227539 17.04 0.227539C17.8067 0.227539 18.5421 0.532116 19.0842 1.07427C19.6264 1.61642 19.9309 2.35173 19.9309 3.11845V11.7912H18.9673ZM17.04 11.7912H3.54911V12.7548C3.54911 13.5215 3.85369 14.2568 4.39584 14.799C4.93799 15.3411 5.6733 15.6457 6.44002 15.6457H14.1491C14.9158 15.6457 15.6511 15.3411 16.1933 14.799C16.7354 14.2568 17.04 13.5215 17.04 12.7548V11.7912Z" fill="#92A3B4"/>
</svg>
