<svg width="13" height="13" viewBox="0 0 13 13" fill="none" xmlns="http://www.w3.org/2000/svg">
<path d="M9.11701 0H6.88086V1.33222H6.11914V0H3.88299V3.88299H0V6.11914H1.33222V6.88086H0V9.11701H3.88299V13H6.11914V11.6678H6.88086V13H9.11701V9.11701H13V6.88086H11.6678V6.11914H13V3.88299H9.11701V0ZM6.11914 2.63131H6.88086V4.34439H6.11914V2.63131ZM4.34439 6.88086H2.63131V6.11914H4.34439V6.88086ZM6.88086 10.3687H6.11914V8.65561H6.88086V10.3687ZM7.35653 6.88086H5.64345V6.11914H7.35653V6.88086ZM10.3687 6.11914V6.88086H8.65561V6.11914H10.3687Z" fill="#9BB997"/>
</svg>
