<svg width="89" height="24" viewBox="0 0 89 24" fill="none" xmlns="http://www.w3.org/2000/svg">
<path d="M74.5924 3.20031C74.3489 3.40782 74.2271 3.51158 74.0971 3.59874C73.799 3.79854 73.4642 3.93721 73.1121 4.00672C72.9585 4.03705 72.799 4.04977 72.4801 4.07522C71.6787 4.13917 71.278 4.17115 70.9437 4.28923C70.1705 4.56233 69.5623 5.17051 69.2892 5.94371C69.1712 6.278 69.1392 6.67869 69.0752 7.48007C69.0498 7.79902 69.0371 7.95851 69.0067 8.1121C68.9372 8.46417 68.7985 8.79896 68.5987 9.09706C68.5116 9.2271 68.4078 9.34887 68.2003 9.59239C67.6788 10.2043 67.4181 10.5102 67.2652 10.8301C66.9116 11.57 66.9116 12.43 67.2652 13.1699C67.4181 13.4898 67.6788 13.7957 68.2003 14.4076C68.4078 14.6511 68.5116 14.7729 68.5987 14.9029C68.7985 15.201 68.9372 15.5358 69.0067 15.8879C69.0371 16.0415 69.0498 16.201 69.0752 16.5199C69.1392 17.3213 69.1712 17.722 69.2892 18.0563C69.5623 18.8295 70.1705 19.4377 70.9437 19.7108C71.278 19.8288 71.6787 19.8608 72.48 19.9248C72.799 19.9502 72.9585 19.963 73.1121 19.9933C73.4642 20.0628 73.799 20.2015 74.0971 20.4013C74.2271 20.4884 74.3489 20.5922 74.5924 20.7997C75.2043 21.3212 75.5102 21.5819 75.8301 21.7348C76.57 22.0884 77.43 22.0884 78.1699 21.7348C78.4898 21.5819 78.7957 21.3212 79.4076 20.7997C79.6511 20.5922 79.7729 20.4884 79.9029 20.4013C80.201 20.2015 80.5358 20.0628 80.8879 19.9933C81.0415 19.963 81.201 19.9502 81.5199 19.9248C82.3212 19.8608 82.722 19.8288 83.0563 19.7108C83.8295 19.4377 84.4377 18.8295 84.7108 18.0563C84.8288 17.722 84.8608 17.3213 84.9248 16.52C84.9502 16.2011 84.963 16.0415 84.9933 15.8879C85.0628 15.5358 85.2015 15.201 85.4013 14.9029C85.4884 14.7729 85.5922 14.6511 85.7997 14.4076C86.3212 13.7957 86.5819 13.4898 86.7348 13.1699C87.0884 12.43 87.0884 11.57 86.7348 10.8301C86.5819 10.5102 86.3212 10.2043 85.7997 9.5924C85.5922 9.34887 85.4884 9.22711 85.4013 9.09706C85.2015 8.79896 85.0628 8.46417 84.9933 8.1121C84.963 7.95851 84.9502 7.79903 84.9248 7.48008C84.8608 6.67875 84.8288 6.27799 84.7108 5.94371C84.4377 5.17051 83.8295 4.56233 83.0563 4.28923C82.722 4.17115 82.3213 4.13918 81.5199 4.07523C81.201 4.04978 81.0415 4.03705 80.8879 4.00672C80.5358 3.93721 80.201 3.79854 79.9029 3.59874C79.7729 3.51158 79.6511 3.40781 79.4076 3.20027C78.7957 2.67883 78.4898 2.41811 78.1699 2.26522C77.43 1.91159 76.57 1.91159 75.8301 2.26522C75.5102 2.4181 75.2043 2.67887 74.5924 3.20031Z" fill="#315D80"/>
<path d="M81.4801 9.96905L81.4802 9.96904C81.8565 9.59264 81.8565 8.98236 81.4802 8.60595L81.4801 8.60594C81.1037 8.22954 80.4934 8.22952 80.117 8.60595L75.3728 13.3502L73.8841 11.8613L73.8841 11.8613C73.5077 11.485 72.8974 11.485 72.521 11.8613L72.521 11.8613C72.1446 12.2378 72.1446 12.8481 72.521 13.2245C72.521 13.2245 72.521 13.2245 72.521 13.2245L74.6913 15.3948L74.6913 15.3948C75.0677 15.7711 75.678 15.7712 76.0543 15.3948L81.4801 9.96905Z" fill="white" stroke="white" stroke-width="0.3"/>
<path d="M16.032 17L12.224 7.116H14.576L17.474 15.11H16.508L19.448 7.116H21.772L17.922 17H16.032ZM24.825 17.154C24.0877 17.154 23.4297 17.0047 22.851 16.706C22.2817 16.398 21.8337 15.9733 21.507 15.432C21.1803 14.8907 21.017 14.2793 21.017 13.598C21.017 12.9167 21.1757 12.31 21.493 11.778C21.8197 11.2367 22.2583 10.812 22.809 10.504C23.3597 10.196 23.9803 10.042 24.671 10.042C25.343 10.042 25.9357 10.1867 26.449 10.476C26.9623 10.7653 27.3637 11.1667 27.653 11.68C27.9517 12.1933 28.101 12.7813 28.101 13.444C28.101 13.5653 28.0917 13.696 28.073 13.836C28.0637 13.9667 28.0403 14.1207 28.003 14.298L22.137 14.312V12.842L27.093 12.828L26.169 13.444C26.1597 13.052 26.099 12.73 25.987 12.478C25.875 12.2167 25.707 12.0207 25.483 11.89C25.2683 11.75 25.0023 11.68 24.685 11.68C24.349 11.68 24.055 11.7593 23.803 11.918C23.5603 12.0673 23.369 12.282 23.229 12.562C23.0983 12.842 23.033 13.1827 23.033 13.584C23.033 13.9853 23.103 14.3307 23.243 14.62C23.3923 14.9 23.5977 15.1193 23.859 15.278C24.1297 15.4273 24.447 15.502 24.811 15.502C25.147 15.502 25.4503 15.446 25.721 15.334C25.9917 15.2127 26.2297 15.0353 26.435 14.802L27.611 15.978C27.275 16.37 26.869 16.664 26.393 16.86C25.917 17.056 25.3943 17.154 24.825 17.154ZM29.1349 17V10.196H31.2769V17H29.1349ZM31.2769 13.262L30.3809 12.562C30.5582 11.7687 30.8569 11.1527 31.2769 10.714C31.6969 10.2753 32.2802 10.056 33.0269 10.056C33.3536 10.056 33.6382 10.1073 33.8809 10.21C34.1329 10.3033 34.3522 10.4527 34.5389 10.658L33.2649 12.268C33.1716 12.1653 33.0549 12.086 32.9149 12.03C32.7749 11.974 32.6162 11.946 32.4389 11.946C32.0842 11.946 31.7996 12.058 31.5849 12.282C31.3796 12.4967 31.2769 12.8233 31.2769 13.262ZM35.1095 17V10.196H37.2515V17H35.1095ZM36.1875 9.258C35.8515 9.258 35.5715 9.146 35.3475 8.922C35.1328 8.68867 35.0255 8.40867 35.0255 8.082C35.0255 7.746 35.1328 7.466 35.3475 7.242C35.5715 7.018 35.8515 6.906 36.1875 6.906C36.5235 6.906 36.7988 7.018 37.0135 7.242C37.2282 7.466 37.3355 7.746 37.3355 8.082C37.3355 8.40867 37.2282 8.68867 37.0135 8.922C36.7988 9.146 36.5235 9.258 36.1875 9.258ZM39.6279 17V9.468C39.6279 8.94533 39.7446 8.474 39.9779 8.054C40.2112 7.634 40.5379 7.30267 40.9579 7.06C41.3872 6.808 41.8959 6.682 42.4839 6.682C42.8012 6.682 43.0906 6.724 43.3519 6.808C43.6132 6.892 43.8652 7.02733 44.1079 7.214L43.0439 8.782C42.9506 8.71667 42.8572 8.67 42.7639 8.642C42.6799 8.614 42.5866 8.6 42.4839 8.6C42.2506 8.6 42.0732 8.67 41.9519 8.81C41.8306 8.94067 41.7699 9.12267 41.7699 9.356V17H39.6279ZM38.1299 12.016V10.196H44.9759V12.016H38.1299ZM44.0799 17V10.196H46.2219V17H44.0799ZM45.1579 9.706C44.8406 9.706 44.5746 9.59867 44.3599 9.384C44.1546 9.16 44.0519 8.88933 44.0519 8.572C44.0519 8.25467 44.1546 7.98867 44.3599 7.774C44.5746 7.55933 44.8406 7.452 45.1579 7.452C45.4846 7.452 45.7506 7.55933 45.9559 7.774C46.1612 7.98867 46.2639 8.25467 46.2639 8.572C46.2639 8.88933 46.1612 9.16 45.9559 9.384C45.7506 9.59867 45.4846 9.706 45.1579 9.706ZM51.075 17.154C50.3377 17.154 49.6797 17.0047 49.101 16.706C48.5317 16.398 48.0837 15.9733 47.757 15.432C47.4303 14.8907 47.267 14.2793 47.267 13.598C47.267 12.9167 47.4257 12.31 47.743 11.778C48.0697 11.2367 48.5083 10.812 49.059 10.504C49.6097 10.196 50.2303 10.042 50.921 10.042C51.593 10.042 52.1857 10.1867 52.699 10.476C53.2123 10.7653 53.6137 11.1667 53.903 11.68C54.2017 12.1933 54.351 12.7813 54.351 13.444C54.351 13.5653 54.3417 13.696 54.323 13.836C54.3137 13.9667 54.2903 14.1207 54.253 14.298L48.387 14.312V12.842L53.343 12.828L52.419 13.444C52.4097 13.052 52.349 12.73 52.237 12.478C52.125 12.2167 51.957 12.0207 51.733 11.89C51.5183 11.75 51.2523 11.68 50.935 11.68C50.599 11.68 50.305 11.7593 50.053 11.918C49.8103 12.0673 49.619 12.282 49.479 12.562C49.3483 12.842 49.283 13.1827 49.283 13.584C49.283 13.9853 49.353 14.3307 49.493 14.62C49.6423 14.9 49.8477 15.1193 50.109 15.278C50.3797 15.4273 50.697 15.502 51.061 15.502C51.397 15.502 51.7003 15.446 51.971 15.334C52.2417 15.2127 52.4797 15.0353 52.685 14.802L53.861 15.978C53.525 16.37 53.119 16.664 52.643 16.86C52.167 17.056 51.6443 17.154 51.075 17.154ZM58.2829 17.14C57.6389 17.14 57.0649 16.986 56.5609 16.678C56.0662 16.37 55.6742 15.95 55.3849 15.418C55.1049 14.886 54.9649 14.2793 54.9649 13.598C54.9649 12.9167 55.1049 12.31 55.3849 11.778C55.6742 11.246 56.0662 10.826 56.5609 10.518C57.0649 10.21 57.6389 10.056 58.2829 10.056C58.7496 10.056 59.1696 10.1447 59.5429 10.322C59.9256 10.4993 60.2382 10.7467 60.4809 11.064C60.7329 11.372 60.8729 11.7267 60.9009 12.128V14.998C60.8729 15.3993 60.7376 15.7633 60.4949 16.09C60.2522 16.4073 59.9396 16.664 59.5569 16.86C59.1742 17.0467 58.7496 17.14 58.2829 17.14ZM58.6609 15.208C58.9689 15.208 59.2349 15.1427 59.4589 15.012C59.6829 14.872 59.8602 14.6807 59.9909 14.438C60.1216 14.1953 60.1869 13.9153 60.1869 13.598C60.1869 13.2807 60.1216 13.0053 59.9909 12.772C59.8696 12.5293 59.6922 12.338 59.4589 12.198C59.2349 12.058 58.9736 11.988 58.6749 11.988C58.3762 11.988 58.1102 12.058 57.8769 12.198C57.6529 12.338 57.4709 12.5293 57.3309 12.772C57.2002 13.0147 57.1349 13.29 57.1349 13.598C57.1349 13.906 57.2002 14.1813 57.3309 14.424C57.4616 14.6667 57.6436 14.858 57.8769 14.998C58.1102 15.138 58.3716 15.208 58.6609 15.208ZM62.2029 17H60.1029V15.166L60.4249 13.514L60.0609 11.862V6.836H62.2029V17Z" fill="#315D80"/>
<path d="M0.4 12C0.4 9.45949 2.45949 7.4 5 7.4C7.54051 7.4 9.6 9.45949 9.6 12C9.6 14.5405 7.54051 16.6 5 16.6C2.45949 16.6 0.4 14.5405 0.4 12Z" stroke="#315D80" stroke-opacity="0.34" stroke-width="0.8"/>
<path d="M4.656 13.048L4.624 11.512H4.904C5.05867 11.512 5.192 11.4853 5.304 11.432C5.42133 11.3733 5.512 11.2907 5.576 11.184C5.64 11.0773 5.672 10.9547 5.672 10.816C5.672 10.6773 5.64 10.5573 5.576 10.456C5.51733 10.3547 5.432 10.2773 5.32 10.224C5.208 10.1653 5.07467 10.136 4.92 10.136C4.70667 10.136 4.51467 10.1973 4.344 10.32C4.17333 10.4373 4.03733 10.6053 3.936 10.824L3.224 10.2C3.384 9.864 3.61333 9.60267 3.912 9.416C4.216 9.224 4.57067 9.128 4.976 9.128C5.31733 9.128 5.61867 9.2 5.88 9.344C6.14667 9.48267 6.352 9.67467 6.496 9.92C6.64533 10.16 6.72 10.4347 6.72 10.744C6.72 11.0427 6.656 11.304 6.528 11.528C6.4 11.752 6.224 11.936 6 12.08C5.776 12.224 5.51467 12.3253 5.216 12.384L5.592 11.952L5.52 13.048H4.656ZM5.08 15.08C4.89333 15.08 4.736 15.016 4.608 14.888C4.48533 14.76 4.424 14.6027 4.424 14.416C4.424 14.2293 4.48533 14.072 4.608 13.944C4.736 13.816 4.89333 13.752 5.08 13.752C5.272 13.752 5.42933 13.816 5.552 13.944C5.67467 14.072 5.736 14.2293 5.736 14.416C5.736 14.6027 5.67467 14.76 5.552 14.888C5.42933 15.016 5.272 15.08 5.08 15.08Z" fill="#315D80" fill-opacity="0.34"/>
</svg>
