<svg width="16" height="20" viewBox="0 0 16 20" fill="none" xmlns="http://www.w3.org/2000/svg">
<path d="M8 0C10.1217 0 12.1566 0.867206 13.6569 2.41084C15.1571 3.95448 16 6.0481 16 8.23113C16 11.7093 13.6246 15.4999 8.93538 19.6433C8.67464 19.8737 8.3422 20.0003 7.99847 20C7.65473 19.9997 7.3225 19.8725 7.06215 19.6416L6.752 19.3647C2.27036 15.3293 0 11.6316 0 8.23113C0 6.0481 0.842855 3.95448 2.34315 2.41084C3.84344 0.867206 5.87827 0 8 0ZM8 5.06531C7.18395 5.06531 6.40132 5.39885 5.82429 5.99256C5.24725 6.58626 4.92308 7.3915 4.92308 8.23113C4.92308 9.07076 5.24725 9.876 5.82429 10.4697C6.40132 11.0634 7.18395 11.3969 8 11.3969C8.81605 11.3969 9.59868 11.0634 10.1757 10.4697C10.7527 9.876 11.0769 9.07076 11.0769 8.23113C11.0769 7.3915 10.7527 6.58626 10.1757 5.99256C9.59868 5.39885 8.81605 5.06531 8 5.06531Z" fill="#315D80"/>
</svg>
