<svg width="34" height="17" viewBox="0 0 34 17" fill="none" xmlns="http://www.w3.org/2000/svg">
<g filter="url(#filter0_i_1766_4268)">
<path d="M-1.19833e-07 8.5C-5.36511e-08 3.80558 3.80558 -6.39665e-08 8.5 -1.42873e-07L25.5 -4.2862e-07C30.1944 -5.07526e-07 34 3.80558 34 8.5C34 13.1944 30.1944 17 25.5 17L8.5 17C3.80558 17 -1.86015e-07 13.1944 -1.19833e-07 8.5Z" fill="url(#paint0_linear_1766_4268)"/>
</g>
<path d="M7.06863 12V4.97H8.01863L8.42863 6.33V12H7.06863ZM11.9286 12L7.75863 6.6L8.01863 4.97L12.1886 10.37L11.9286 12ZM11.9286 12L11.5386 10.68V4.97H12.9086V12H11.9286ZM16.5043 12.1C15.9976 12.1 15.5476 11.9933 15.1543 11.78C14.7609 11.56 14.4476 11.26 14.2143 10.88C13.9876 10.5 13.8743 10.0667 13.8743 9.58C13.8743 9.1 13.9843 8.67333 14.2043 8.3C14.4309 7.92 14.7376 7.62 15.1243 7.4C15.5109 7.17333 15.9409 7.06 16.4143 7.06C16.8809 7.06 17.2909 7.16667 17.6443 7.38C18.0043 7.58667 18.2843 7.87333 18.4843 8.24C18.6909 8.6 18.7943 9.01 18.7943 9.47C18.7943 9.55667 18.7876 9.64667 18.7743 9.74C18.7676 9.82667 18.7509 9.92667 18.7243 10.04L14.6643 10.05V9.07L18.1143 9.06L17.5843 9.47C17.5709 9.18333 17.5176 8.94333 17.4243 8.75C17.3376 8.55667 17.2076 8.41 17.0343 8.31C16.8676 8.20333 16.6609 8.15 16.4143 8.15C16.1543 8.15 15.9276 8.21 15.7343 8.33C15.5409 8.44333 15.3909 8.60667 15.2843 8.82C15.1843 9.02667 15.1343 9.27333 15.1343 9.56C15.1343 9.85333 15.1876 10.11 15.2943 10.33C15.4076 10.5433 15.5676 10.71 15.7743 10.83C15.9809 10.9433 16.2209 11 16.4943 11C16.7409 11 16.9643 10.96 17.1643 10.88C17.3643 10.7933 17.5376 10.6667 17.6843 10.5L18.4543 11.27C18.2209 11.5433 17.9343 11.75 17.5943 11.89C17.2609 12.03 16.8976 12.1 16.5043 12.1ZM20.8358 12L19.0258 7.17H20.3458L21.5258 10.68L21.1258 10.69L22.3358 7.17H23.2858L24.4958 10.69L24.0958 10.68L25.2758 7.17H26.5958L24.7958 12H23.8458L22.6258 8.66H22.9958L21.7758 12H20.8358Z" fill="white"/>
<defs>
<filter id="filter0_i_1766_4268" x="0" y="0" width="38" height="20" filterUnits="userSpaceOnUse" color-interpolation-filters="sRGB">
<feFlood flood-opacity="0" result="BackgroundImageFix"/>
<feBlend mode="normal" in="SourceGraphic" in2="BackgroundImageFix" result="shape"/>
<feColorMatrix in="SourceAlpha" type="matrix" values="0 0 0 0 0 0 0 0 0 0 0 0 0 0 0 0 0 0 127 0" result="hardAlpha"/>
<feOffset dx="4" dy="3"/>
<feGaussianBlur stdDeviation="7.5"/>
<feComposite in2="hardAlpha" operator="arithmetic" k2="-1" k3="1"/>
<feColorMatrix type="matrix" values="0 0 0 0 0.379167 0 0 0 0 0.0742535 0 0 0 0 0.0742535 0 0 0 0.45 0"/>
<feBlend mode="normal" in2="shape" result="effect1_innerShadow_1766_4268"/>
</filter>
<linearGradient id="paint0_linear_1766_4268" x1="28.5357" y1="35.5847" x2="1.4399" y2="25.2788" gradientUnits="userSpaceOnUse">
<stop stop-color="#F8B195"/>
<stop offset="1" stop-color="#F2727F"/>
</linearGradient>
</defs>
</svg>
