<svg width="10" height="10" viewBox="0 0 10 10" fill="none" xmlns="http://www.w3.org/2000/svg">
<path d="M0.4 5C0.4 2.45949 2.45949 0.4 5 0.4C7.54051 0.4 9.6 2.45949 9.6 5C9.6 7.54051 7.54051 9.6 5 9.6C2.45949 9.6 0.4 7.54051 0.4 5Z" stroke="#F4B7C5" stroke-width="0.8"/>
<path d="M4.656 6.048L4.624 4.512H4.904C5.05867 4.512 5.192 4.48533 5.304 4.432C5.42133 4.37333 5.512 4.29067 5.576 4.184C5.64 4.07733 5.672 3.95467 5.672 3.816C5.672 3.67733 5.64 3.55733 5.576 3.456C5.51733 3.35467 5.432 3.27733 5.32 3.224C5.208 3.16533 5.07467 3.136 4.92 3.136C4.70667 3.136 4.51467 3.19733 4.344 3.32C4.17333 3.43733 4.03733 3.60533 3.936 3.824L3.224 3.2C3.384 2.864 3.61333 2.60267 3.912 2.416C4.216 2.224 4.57067 2.128 4.976 2.128C5.31733 2.128 5.61867 2.2 5.88 2.344C6.14667 2.48267 6.352 2.67467 6.496 2.92C6.64533 3.16 6.72 3.43467 6.72 3.744C6.72 4.04267 6.656 4.304 6.528 4.528C6.4 4.752 6.224 4.936 6 5.08C5.776 5.224 5.51467 5.32533 5.216 5.384L5.592 4.952L5.52 6.048H4.656ZM5.08 8.08C4.89333 8.08 4.736 8.016 4.608 7.888C4.48533 7.76 4.424 7.60267 4.424 7.416C4.424 7.22933 4.48533 7.072 4.608 6.944C4.736 6.816 4.89333 6.752 5.08 6.752C5.272 6.752 5.42933 6.816 5.552 6.944C5.67467 7.072 5.736 7.22933 5.736 7.416C5.736 7.60267 5.67467 7.76 5.552 7.888C5.42933 8.016 5.272 8.08 5.08 8.08Z" fill="#F4B7C5"/>
</svg>
