<svg width="29" height="29" viewBox="0 0 29 29" fill="none" xmlns="http://www.w3.org/2000/svg">
<g filter="url(#filter0_b_1766_4271)">
<rect width="29" height="29" rx="14.5" fill="#F2727F" fill-opacity="0.7"/>
</g>
<g clip-path="url(#clip0_1766_4271)">
<g filter="url(#filter1_di_1766_4271)">
<path d="M21.4685 9.20887C21.0854 8.82562 20.6306 8.5216 20.13 8.31418C19.6294 8.10676 19.0928 8 18.551 8C18.0091 8 17.4725 8.10676 16.972 8.31418C16.4714 8.5216 16.0165 8.82562 15.6335 9.20887L14.8385 10.0039L14.0435 9.20887C13.2697 8.4351 12.2202 8.0004 11.126 8.0004C10.0317 8.0004 8.98224 8.4351 8.20847 9.20887C7.4347 9.98264 7 11.0321 7 12.1264C7 13.2206 7.4347 14.2701 8.20847 15.0439L9.00347 15.8389L14.8385 21.6739L20.6735 15.8389L21.4685 15.0439C21.8517 14.6608 22.1557 14.206 22.3632 13.7054C22.5706 13.2048 22.6773 12.6682 22.6773 12.1264C22.6773 11.5845 22.5706 11.0479 22.3632 10.5474C22.1557 10.0468 21.8517 9.59194 21.4685 9.20887Z" fill="#FF8490"/>
</g>
</g>
<defs>
<filter id="filter0_b_1766_4271" x="-4" y="-4" width="37" height="37" filterUnits="userSpaceOnUse" color-interpolation-filters="sRGB">
<feFlood flood-opacity="0" result="BackgroundImageFix"/>
<feGaussianBlur in="BackgroundImageFix" stdDeviation="2"/>
<feComposite in2="SourceAlpha" operator="in" result="effect1_backgroundBlur_1766_4271"/>
<feBlend mode="normal" in="SourceGraphic" in2="effect1_backgroundBlur_1766_4271" result="shape"/>
</filter>
<filter id="filter1_di_1766_4271" x="-3" y="-1" width="35.6777" height="33.6738" filterUnits="userSpaceOnUse" color-interpolation-filters="sRGB">
<feFlood flood-opacity="0" result="BackgroundImageFix"/>
<feColorMatrix in="SourceAlpha" type="matrix" values="0 0 0 0 0 0 0 0 0 0 0 0 0 0 0 0 0 0 127 0" result="hardAlpha"/>
<feOffset dy="1"/>
<feGaussianBlur stdDeviation="5"/>
<feComposite in2="hardAlpha" operator="out"/>
<feColorMatrix type="matrix" values="0 0 0 0 0.833333 0 0 0 0 0.3125 0 0 0 0 0.365397 0 0 0 0.8 0"/>
<feBlend mode="normal" in2="BackgroundImageFix" result="effect1_dropShadow_1766_4271"/>
<feBlend mode="normal" in="SourceGraphic" in2="effect1_dropShadow_1766_4271" result="shape"/>
<feColorMatrix in="SourceAlpha" type="matrix" values="0 0 0 0 0 0 0 0 0 0 0 0 0 0 0 0 0 0 127 0" result="hardAlpha"/>
<feOffset dx="2" dy="2"/>
<feGaussianBlur stdDeviation="2"/>
<feComposite in2="hardAlpha" operator="arithmetic" k2="-1" k3="1"/>
<feColorMatrix type="matrix" values="0 0 0 0 1 0 0 0 0 0.8875 0 0 0 0 0.898926 0 0 0 0.55 0"/>
<feBlend mode="normal" in2="shape" result="effect2_innerShadow_1766_4271"/>
</filter>
<clipPath id="clip0_1766_4271">
<rect width="29" height="29" fill="white"/>
</clipPath>
</defs>
</svg>
