<svg width="128" height="24" viewBox="0 0 128 24" fill="none" xmlns="http://www.w3.org/2000/svg">
<path d="M113.592 3.20031C113.349 3.40782 113.227 3.51158 113.097 3.59874C112.799 3.79854 112.464 3.93721 112.112 4.00672C111.959 4.03705 111.799 4.04977 111.48 4.07522C110.679 4.13917 110.278 4.17115 109.944 4.28923C109.171 4.56233 108.562 5.17051 108.289 5.94371C108.171 6.278 108.139 6.67869 108.075 7.48007C108.05 7.79902 108.037 7.95851 108.007 8.1121C107.937 8.46417 107.799 8.79896 107.599 9.09706C107.512 9.2271 107.408 9.34887 107.2 9.59239C106.679 10.2043 106.418 10.5102 106.265 10.8301C105.912 11.57 105.912 12.43 106.265 13.1699C106.418 13.4898 106.679 13.7957 107.2 14.4076C107.408 14.6511 107.512 14.7729 107.599 14.9029C107.799 15.201 107.937 15.5358 108.007 15.8879C108.037 16.0415 108.05 16.201 108.075 16.5199C108.139 17.3213 108.171 17.722 108.289 18.0563C108.562 18.8295 109.171 19.4377 109.944 19.7108C110.278 19.8288 110.679 19.8608 111.48 19.9248C111.799 19.9502 111.959 19.963 112.112 19.9933C112.464 20.0628 112.799 20.2015 113.097 20.4013C113.227 20.4884 113.349 20.5922 113.592 20.7997C114.204 21.3212 114.51 21.5819 114.83 21.7348C115.57 22.0884 116.43 22.0884 117.17 21.7348C117.49 21.5819 117.796 21.3212 118.408 20.7997C118.651 20.5922 118.773 20.4884 118.903 20.4013C119.201 20.2015 119.536 20.0628 119.888 19.9933C120.042 19.963 120.201 19.9502 120.52 19.9248C121.321 19.8608 121.722 19.8288 122.056 19.7108C122.829 19.4377 123.438 18.8295 123.711 18.0563C123.829 17.722 123.861 17.3213 123.925 16.52C123.95 16.2011 123.963 16.0415 123.993 15.8879C124.063 15.5358 124.201 15.201 124.401 14.9029C124.488 14.7729 124.592 14.6511 124.8 14.4076C125.321 13.7957 125.582 13.4898 125.735 13.1699C126.088 12.43 126.088 11.57 125.735 10.8301C125.582 10.5102 125.321 10.2043 124.8 9.5924C124.592 9.34887 124.488 9.22711 124.401 9.09706C124.201 8.79896 124.063 8.46417 123.993 8.1121C123.963 7.95851 123.95 7.79903 123.925 7.48008C123.861 6.67875 123.829 6.27799 123.711 5.94371C123.438 5.17051 122.829 4.56233 122.056 4.28923C121.722 4.17115 121.321 4.13918 120.52 4.07523C120.201 4.04978 120.042 4.03705 119.888 4.00672C119.536 3.93721 119.201 3.79854 118.903 3.59874C118.773 3.51158 118.651 3.40781 118.408 3.20027C117.796 2.67883 117.49 2.41811 117.17 2.26522C116.43 1.91159 115.57 1.91159 114.83 2.26522C114.51 2.4181 114.204 2.67887 113.592 3.20031Z" fill="#9BB997"/>
<path d="M120.48 9.96905L120.48 9.96904C120.857 9.59264 120.857 8.98236 120.48 8.60595L120.48 8.60594C120.104 8.22954 119.493 8.22952 119.117 8.60595L114.373 13.3502L112.884 11.8613L112.884 11.8613C112.508 11.485 111.897 11.485 111.521 11.8613L111.521 11.8613C111.145 12.2378 111.145 12.8481 111.521 13.2245C111.521 13.2245 111.521 13.2245 111.521 13.2245L113.691 15.3948L113.691 15.3948C114.068 15.7711 114.678 15.7712 115.054 15.3948L120.48 9.96905Z" fill="white" stroke="white" stroke-width="0.3"/>
<path d="M14.632 12.926V11.302H16.718C17.1567 11.302 17.4927 11.19 17.726 10.966C17.9687 10.742 18.09 10.4387 18.09 10.056C18.09 9.70133 17.9733 9.40733 17.74 9.174C17.5067 8.94067 17.1707 8.824 16.732 8.824H14.632V7.116H16.984C17.6373 7.116 18.2113 7.242 18.706 7.494C19.2007 7.73667 19.588 8.07733 19.868 8.516C20.148 8.95467 20.288 9.45867 20.288 10.028C20.288 10.6067 20.148 11.1153 19.868 11.554C19.588 11.9833 19.196 12.3193 18.692 12.562C18.188 12.8047 17.5953 12.926 16.914 12.926H14.632ZM12.952 17V7.116H15.15V17H12.952ZM18.328 17L15.248 12.744L17.264 12.198L20.932 17H18.328ZM24.4666 13.318L20.6586 7.116H23.2066L26.1326 12.128H24.4946L27.4206 7.116H29.9126L26.0766 13.318H24.4666ZM24.2006 17V12.31H26.3986V17H24.2006ZM32.3781 13.402V11.694H34.5061C34.7768 11.694 35.0241 11.638 35.2481 11.526C35.4721 11.414 35.6494 11.2507 35.7801 11.036C35.9108 10.8213 35.9761 10.56 35.9761 10.252C35.9761 9.95333 35.9108 9.69667 35.7801 9.482C35.6494 9.26733 35.4721 9.104 35.2481 8.992C35.0241 8.88 34.7768 8.824 34.5061 8.824H32.3781V7.116H34.8281C35.4534 7.116 36.0181 7.242 36.5221 7.494C37.0261 7.746 37.4228 8.11 37.7121 8.586C38.0108 9.05267 38.1601 9.608 38.1601 10.252C38.1601 10.896 38.0108 11.456 37.7121 11.932C37.4228 12.3987 37.0261 12.7627 36.5221 13.024C36.0181 13.276 35.4534 13.402 34.8281 13.402H32.3781ZM30.6981 17V7.116H32.8961V17H30.6981ZM39.3934 17V7.116H40.9614L44.8534 13.178H44.0554L47.9334 7.116H49.5154V17H47.3174V10.826L47.7094 10.924L45.1754 14.872H43.7194L41.1994 10.924L41.5774 10.826V17H39.3934ZM57.157 17L53.349 7.116H55.701L58.599 15.11H57.633L60.573 7.116H62.897L59.047 17H57.157ZM65.95 17.154C65.2127 17.154 64.5547 17.0047 63.976 16.706C63.4067 16.398 62.9587 15.9733 62.632 15.432C62.3053 14.8907 62.142 14.2793 62.142 13.598C62.142 12.9167 62.3007 12.31 62.618 11.778C62.9447 11.2367 63.3833 10.812 63.934 10.504C64.4847 10.196 65.1053 10.042 65.796 10.042C66.468 10.042 67.0607 10.1867 67.574 10.476C68.0873 10.7653 68.4887 11.1667 68.778 11.68C69.0767 12.1933 69.226 12.7813 69.226 13.444C69.226 13.5653 69.2167 13.696 69.198 13.836C69.1887 13.9667 69.1653 14.1207 69.128 14.298L63.262 14.312V12.842L68.218 12.828L67.294 13.444C67.2847 13.052 67.224 12.73 67.112 12.478C67 12.2167 66.832 12.0207 66.608 11.89C66.3933 11.75 66.1273 11.68 65.81 11.68C65.474 11.68 65.18 11.7593 64.928 11.918C64.6853 12.0673 64.494 12.282 64.354 12.562C64.2233 12.842 64.158 13.1827 64.158 13.584C64.158 13.9853 64.228 14.3307 64.368 14.62C64.5173 14.9 64.7227 15.1193 64.984 15.278C65.2547 15.4273 65.572 15.502 65.936 15.502C66.272 15.502 66.5753 15.446 66.846 15.334C67.1167 15.2127 67.3547 15.0353 67.56 14.802L68.736 15.978C68.4 16.37 67.994 16.664 67.518 16.86C67.042 17.056 66.5193 17.154 65.95 17.154ZM70.2599 17V10.196H72.4019V17H70.2599ZM72.4019 13.262L71.5059 12.562C71.6832 11.7687 71.9819 11.1527 72.4019 10.714C72.8219 10.2753 73.4052 10.056 74.1519 10.056C74.4786 10.056 74.7632 10.1073 75.0059 10.21C75.2579 10.3033 75.4772 10.4527 75.6639 10.658L74.3899 12.268C74.2966 12.1653 74.1799 12.086 74.0399 12.03C73.8999 11.974 73.7412 11.946 73.5639 11.946C73.2092 11.946 72.9246 12.058 72.7099 12.282C72.5046 12.4967 72.4019 12.8233 72.4019 13.262ZM76.2345 17V10.196H78.3765V17H76.2345ZM77.3125 9.258C76.9765 9.258 76.6965 9.146 76.4725 8.922C76.2578 8.68867 76.1505 8.40867 76.1505 8.082C76.1505 7.746 76.2578 7.466 76.4725 7.242C76.6965 7.018 76.9765 6.906 77.3125 6.906C77.6485 6.906 77.9238 7.018 78.1385 7.242C78.3532 7.466 78.4605 7.746 78.4605 8.082C78.4605 8.40867 78.3532 8.68867 78.1385 8.922C77.9238 9.146 77.6485 9.258 77.3125 9.258ZM80.7529 17V9.468C80.7529 8.94533 80.8696 8.474 81.1029 8.054C81.3362 7.634 81.6629 7.30267 82.0829 7.06C82.5122 6.808 83.0209 6.682 83.6089 6.682C83.9262 6.682 84.2156 6.724 84.4769 6.808C84.7382 6.892 84.9902 7.02733 85.2329 7.214L84.1689 8.782C84.0756 8.71667 83.9822 8.67 83.8889 8.642C83.8049 8.614 83.7116 8.6 83.6089 8.6C83.3756 8.6 83.1982 8.67 83.0769 8.81C82.9556 8.94067 82.8949 9.12267 82.8949 9.356V17H80.7529ZM79.2549 12.016V10.196H86.1009V12.016H79.2549ZM85.2049 17V10.196H87.3469V17H85.2049ZM86.2829 9.706C85.9656 9.706 85.6996 9.59867 85.4849 9.384C85.2796 9.16 85.1769 8.88933 85.1769 8.572C85.1769 8.25467 85.2796 7.98867 85.4849 7.774C85.6996 7.55933 85.9656 7.452 86.2829 7.452C86.6096 7.452 86.8756 7.55933 87.0809 7.774C87.2862 7.98867 87.3889 8.25467 87.3889 8.572C87.3889 8.88933 87.2862 9.16 87.0809 9.384C86.8756 9.59867 86.6096 9.706 86.2829 9.706ZM92.2 17.154C91.4627 17.154 90.8047 17.0047 90.226 16.706C89.6567 16.398 89.2087 15.9733 88.882 15.432C88.5553 14.8907 88.392 14.2793 88.392 13.598C88.392 12.9167 88.5507 12.31 88.868 11.778C89.1947 11.2367 89.6333 10.812 90.184 10.504C90.7347 10.196 91.3553 10.042 92.046 10.042C92.718 10.042 93.3107 10.1867 93.824 10.476C94.3373 10.7653 94.7387 11.1667 95.028 11.68C95.3267 12.1933 95.476 12.7813 95.476 13.444C95.476 13.5653 95.4667 13.696 95.448 13.836C95.4387 13.9667 95.4153 14.1207 95.378 14.298L89.512 14.312V12.842L94.468 12.828L93.544 13.444C93.5347 13.052 93.474 12.73 93.362 12.478C93.25 12.2167 93.082 12.0207 92.858 11.89C92.6433 11.75 92.3773 11.68 92.06 11.68C91.724 11.68 91.43 11.7593 91.178 11.918C90.9353 12.0673 90.744 12.282 90.604 12.562C90.4733 12.842 90.408 13.1827 90.408 13.584C90.408 13.9853 90.478 14.3307 90.618 14.62C90.7673 14.9 90.9727 15.1193 91.234 15.278C91.5047 15.4273 91.822 15.502 92.186 15.502C92.522 15.502 92.8253 15.446 93.096 15.334C93.3667 15.2127 93.6047 15.0353 93.81 14.802L94.986 15.978C94.65 16.37 94.244 16.664 93.768 16.86C93.292 17.056 92.7693 17.154 92.2 17.154ZM99.4079 17.14C98.7639 17.14 98.1899 16.986 97.6859 16.678C97.1912 16.37 96.7992 15.95 96.5099 15.418C96.2299 14.886 96.0899 14.2793 96.0899 13.598C96.0899 12.9167 96.2299 12.31 96.5099 11.778C96.7992 11.246 97.1912 10.826 97.6859 10.518C98.1899 10.21 98.7639 10.056 99.4079 10.056C99.8746 10.056 100.295 10.1447 100.668 10.322C101.051 10.4993 101.363 10.7467 101.606 11.064C101.858 11.372 101.998 11.7267 102.026 12.128V14.998C101.998 15.3993 101.863 15.7633 101.62 16.09C101.377 16.4073 101.065 16.664 100.682 16.86C100.299 17.0467 99.8746 17.14 99.4079 17.14ZM99.7859 15.208C100.094 15.208 100.36 15.1427 100.584 15.012C100.808 14.872 100.985 14.6807 101.116 14.438C101.247 14.1953 101.312 13.9153 101.312 13.598C101.312 13.2807 101.247 13.0053 101.116 12.772C100.995 12.5293 100.817 12.338 100.584 12.198C100.36 12.058 100.099 11.988 99.7999 11.988C99.5012 11.988 99.2352 12.058 99.0019 12.198C98.7779 12.338 98.5959 12.5293 98.4559 12.772C98.3252 13.0147 98.2599 13.29 98.2599 13.598C98.2599 13.906 98.3252 14.1813 98.4559 14.424C98.5866 14.6667 98.7686 14.858 99.0019 14.998C99.2352 15.138 99.4966 15.208 99.7859 15.208ZM103.328 17H101.228V15.166L101.55 13.514L101.186 11.862V6.836H103.328V17Z" fill="#9BB997"/>
<path d="M0.4 12C0.4 9.45949 2.45949 7.4 5 7.4C7.54051 7.4 9.6 9.45949 9.6 12C9.6 14.5405 7.54051 16.6 5 16.6C2.45949 16.6 0.4 14.5405 0.4 12Z" stroke="#9BB997" stroke-opacity="0.34" stroke-width="0.8"/>
<path d="M4.656 13.048L4.624 11.512H4.904C5.05867 11.512 5.192 11.4853 5.304 11.432C5.42133 11.3733 5.512 11.2907 5.576 11.184C5.64 11.0773 5.672 10.9547 5.672 10.816C5.672 10.6773 5.64 10.5573 5.576 10.456C5.51733 10.3547 5.432 10.2773 5.32 10.224C5.208 10.1653 5.07467 10.136 4.92 10.136C4.70667 10.136 4.51467 10.1973 4.344 10.32C4.17333 10.4373 4.03733 10.6053 3.936 10.824L3.224 10.2C3.384 9.864 3.61333 9.60267 3.912 9.416C4.216 9.224 4.57067 9.128 4.976 9.128C5.31733 9.128 5.61867 9.2 5.88 9.344C6.14667 9.48267 6.352 9.67467 6.496 9.92C6.64533 10.16 6.72 10.4347 6.72 10.744C6.72 11.0427 6.656 11.304 6.528 11.528C6.4 11.752 6.224 11.936 6 12.08C5.776 12.224 5.51467 12.3253 5.216 12.384L5.592 11.952L5.52 13.048H4.656ZM5.08 15.08C4.89333 15.08 4.736 15.016 4.608 14.888C4.48533 14.76 4.424 14.6027 4.424 14.416C4.424 14.2293 4.48533 14.072 4.608 13.944C4.736 13.816 4.89333 13.752 5.08 13.752C5.272 13.752 5.42933 13.816 5.552 13.944C5.67467 14.072 5.736 14.2293 5.736 14.416C5.736 14.6027 5.67467 14.76 5.552 14.888C5.42933 15.016 5.272 15.08 5.08 15.08Z" fill="#9BB997" fill-opacity="0.34"/>
</svg>
