<svg width="66" height="19" viewBox="0 0 66 19" fill="none" xmlns="http://www.w3.org/2000/svg">
<path d="M12.9141 5.39258V10.7129C12.9141 11.3379 13.0312 11.8574 13.2656 12.2715C13.6133 12.8965 14.1992 13.209 15.0234 13.209C16.0117 13.209 16.6836 12.8711 17.0391 12.1953C17.2305 11.8281 17.3262 11.334 17.3262 10.7129V5.39258H18.5098V10.2266C18.5098 11.2852 18.3672 12.0996 18.082 12.6699C17.5586 13.709 16.5703 14.2285 15.1172 14.2285C13.6641 14.2285 12.6777 13.709 12.1582 12.6699C11.873 12.0996 11.7305 11.2852 11.7305 10.2266V5.39258H12.9141ZM20.1797 7.72461H21.1816V8.61523C21.4785 8.24805 21.793 7.98438 22.125 7.82422C22.457 7.66406 22.8262 7.58398 23.2324 7.58398C24.123 7.58398 24.7246 7.89453 25.0371 8.51562C25.209 8.85547 25.2949 9.3418 25.2949 9.97461V14H24.2227V10.0449C24.2227 9.66211 24.166 9.35352 24.0527 9.11914C23.8652 8.72852 23.5254 8.5332 23.0332 8.5332C22.7832 8.5332 22.5781 8.55859 22.418 8.60938C22.1289 8.69531 21.875 8.86719 21.6562 9.125C21.4805 9.33203 21.3652 9.54688 21.3105 9.76953C21.2598 9.98828 21.2344 10.3027 21.2344 10.7129V14H20.1797V7.72461ZM27.375 7.72461L29.0508 12.834L30.8027 7.72461H31.957L29.5898 14H28.4648L26.1504 7.72461H27.375ZM35.4727 7.58398C35.918 7.58398 36.3496 7.68945 36.7676 7.90039C37.1855 8.10742 37.5039 8.37695 37.7227 8.70898C37.9336 9.02539 38.0742 9.39453 38.1445 9.81641C38.207 10.1055 38.2383 10.5664 38.2383 11.1992H33.6387C33.6582 11.8359 33.8086 12.3477 34.0898 12.7344C34.3711 13.1172 34.8066 13.3086 35.3965 13.3086C35.9473 13.3086 36.3867 13.127 36.7148 12.7637C36.9023 12.5527 37.0352 12.3086 37.1133 12.0312H38.1504C38.123 12.2617 38.0312 12.5195 37.875 12.8047C37.7227 13.0859 37.5508 13.3164 37.3594 13.4961C37.0391 13.8086 36.6426 14.0195 36.1699 14.1289C35.916 14.1914 35.6289 14.2227 35.3086 14.2227C34.5273 14.2227 33.8652 13.9395 33.3223 13.373C32.7793 12.8027 32.5078 12.0059 32.5078 10.9824C32.5078 9.97461 32.7812 9.15625 33.3281 8.52734C33.875 7.89844 34.5898 7.58398 35.4727 7.58398ZM37.1543 10.3613C37.1113 9.9043 37.0117 9.53906 36.8555 9.26562C36.5664 8.75781 36.084 8.50391 35.4082 8.50391C34.9238 8.50391 34.5176 8.67969 34.1895 9.03125C33.8613 9.37891 33.6875 9.82227 33.668 10.3613H37.1543ZM39.5684 7.72461H40.5703V8.80859C40.6523 8.59766 40.8535 8.3418 41.1738 8.04102C41.4941 7.73633 41.8633 7.58398 42.2812 7.58398C42.3008 7.58398 42.334 7.58594 42.3809 7.58984C42.4277 7.59375 42.5078 7.60156 42.6211 7.61328V8.72656C42.5586 8.71484 42.5 8.70703 42.4453 8.70312C42.3945 8.69922 42.3379 8.69727 42.2754 8.69727C41.7441 8.69727 41.3359 8.86914 41.0508 9.21289C40.7656 9.55273 40.623 9.94531 40.623 10.3906V14H39.5684V7.72461ZM43.5352 7.75391H44.6074V14H43.5352V7.75391ZM43.5352 5.39258H44.6074V6.58789H43.5352V5.39258ZM46.4707 6.76953C46.4863 6.33203 46.5625 6.01172 46.6992 5.80859C46.9453 5.44922 47.4199 5.26953 48.123 5.26953C48.1895 5.26953 48.2578 5.27148 48.3281 5.27539C48.3984 5.2793 48.4785 5.28516 48.5684 5.29297V6.25391C48.459 6.24609 48.3789 6.24219 48.3281 6.24219C48.2812 6.23828 48.2363 6.23633 48.1934 6.23633C47.873 6.23633 47.6816 6.32031 47.6191 6.48828C47.5566 6.65234 47.5254 7.07422 47.5254 7.75391H48.5684V8.58594H47.5137V14H46.4707V8.58594H45.5977V7.75391H46.4707V6.76953ZM49.582 6.58789V5.39258H50.6367V6.58789H49.582ZM49.582 7.75391H50.6367V14H49.582V7.75391ZM54.8203 7.58398C55.2656 7.58398 55.6973 7.68945 56.1152 7.90039C56.5332 8.10742 56.8516 8.37695 57.0703 8.70898C57.2812 9.02539 57.4219 9.39453 57.4922 9.81641C57.5547 10.1055 57.5859 10.5664 57.5859 11.1992H52.9863C53.0059 11.8359 53.1562 12.3477 53.4375 12.7344C53.7188 13.1172 54.1543 13.3086 54.7441 13.3086C55.2949 13.3086 55.7344 13.127 56.0625 12.7637C56.25 12.5527 56.3828 12.3086 56.4609 12.0312H57.498C57.4707 12.2617 57.3789 12.5195 57.2227 12.8047C57.0703 13.0859 56.8984 13.3164 56.707 13.4961C56.3867 13.8086 55.9902 14.0195 55.5176 14.1289C55.2637 14.1914 54.9766 14.2227 54.6562 14.2227C53.875 14.2227 53.2129 13.9395 52.6699 13.373C52.127 12.8027 51.8555 12.0059 51.8555 10.9824C51.8555 9.97461 52.1289 9.15625 52.6758 8.52734C53.2227 7.89844 53.9375 7.58398 54.8203 7.58398ZM56.502 10.3613C56.459 9.9043 56.3594 9.53906 56.2031 9.26562C55.9141 8.75781 55.4316 8.50391 54.7559 8.50391C54.2715 8.50391 53.8652 8.67969 53.5371 9.03125C53.209 9.37891 53.0352 9.82227 53.0156 10.3613H56.502ZM59.5547 10.9355C59.5547 11.6074 59.6973 12.1699 59.9824 12.623C60.2676 13.0762 60.7246 13.3027 61.3535 13.3027C61.8418 13.3027 62.2422 13.0938 62.5547 12.6758C62.8711 12.2539 63.0293 11.6504 63.0293 10.8652C63.0293 10.0723 62.8672 9.48633 62.543 9.10742C62.2188 8.72461 61.8184 8.5332 61.3418 8.5332C60.8105 8.5332 60.3789 8.73633 60.0469 9.14258C59.7188 9.54883 59.5547 10.1465 59.5547 10.9355ZM61.1426 7.61328C61.623 7.61328 62.0254 7.71484 62.3496 7.91797C62.5371 8.03516 62.75 8.24023 62.9883 8.5332V5.36328H64.002V14H63.0527V13.127C62.8066 13.5137 62.5156 13.793 62.1797 13.9648C61.8438 14.1367 61.459 14.2227 61.0254 14.2227C60.3262 14.2227 59.7207 13.9297 59.209 13.3438C58.6973 12.7539 58.4414 11.9707 58.4414 10.9941C58.4414 10.0801 58.6738 9.28906 59.1387 8.62109C59.6074 7.94922 60.2754 7.61328 61.1426 7.61328Z" fill="#F2727F"/>
<path d="M0.357895 10.7355C0.357895 8.46235 2.20063 6.61961 4.47376 6.61961C6.74689 6.61961 8.58962 8.46235 8.58962 10.7355C8.58962 13.0086 6.74689 14.8513 4.47376 14.8513C2.20063 14.8513 0.357895 13.0086 0.357895 10.7355Z" stroke="#F4B7C5" stroke-width="0.715789"/>
<path d="M4.39309 13.0407H5.43462V14.0508H4.39309V13.0407ZM3.11739 10.5243C3.14535 9.8602 3.37719 9.38953 3.81291 9.11225C4.08786 8.93517 4.42571 8.84663 4.82648 8.84663C5.35307 8.84663 5.78995 8.97245 6.13713 9.2241C6.48664 9.47574 6.66139 9.84855 6.66139 10.3425C6.66139 10.6454 6.58566 10.9006 6.43421 11.1079C6.34567 11.2338 6.17558 11.3945 5.92393 11.5903L5.67578 11.7825C5.54064 11.8873 5.45093 12.0097 5.40666 12.1495C5.3787 12.238 5.36356 12.3755 5.36123 12.5619H4.41756C4.43154 12.1681 4.46882 11.8967 4.5294 11.7475C4.58998 11.5961 4.74609 11.4225 4.99774 11.2268L5.25288 11.0275C5.33676 10.9646 5.40433 10.8959 5.45559 10.8213C5.54879 10.6932 5.59539 10.5522 5.59539 10.3984C5.59539 10.2214 5.54297 10.0606 5.43812 9.91612C5.33559 9.76933 5.14686 9.69593 4.87192 9.69593C4.60163 9.69593 4.4094 9.78564 4.29523 9.96505C4.18339 10.1445 4.12747 10.3309 4.12747 10.5243H3.11739Z" fill="#F4B7C5"/>
</svg>
