<svg width="64" height="20" viewBox="0 0 64 20" fill="none" xmlns="http://www.w3.org/2000/svg">
<path d="M51.434 2.62681C51.2339 2.79732 51.1339 2.88258 51.027 2.9542C50.7821 3.11838 50.507 3.23233 50.2177 3.28945C50.0915 3.31437 49.9604 3.32482 49.6983 3.34573C49.0398 3.39828 48.7106 3.42456 48.4359 3.52159C47.8006 3.746 47.3008 4.24574 47.0764 4.88109C46.9794 5.15578 46.9531 5.48503 46.9006 6.14353C46.8796 6.40561 46.8692 6.53667 46.8443 6.66288C46.7871 6.95217 46.6732 7.22727 46.509 7.47223C46.4374 7.57908 46.3521 7.67914 46.1816 7.87924C45.7531 8.38205 45.5389 8.63342 45.4132 8.89628C45.1227 9.50426 45.1227 10.2109 45.4132 10.8189C45.5389 11.0818 45.7531 11.3331 46.1816 11.8359C46.3521 12.036 46.4374 12.1361 46.509 12.2429C46.6732 12.4879 46.7871 12.763 46.8443 13.0523C46.8692 13.1785 46.8796 13.3096 46.9005 13.5716C46.9531 14.2302 46.9794 14.5594 47.0764 14.8341C47.3008 15.4695 47.8006 15.9692 48.4359 16.1936C48.7106 16.2906 49.0398 16.3169 49.6983 16.3695C49.9604 16.3904 50.0915 16.4009 50.2177 16.4258C50.507 16.4829 50.7821 16.5968 51.027 16.761C51.1339 16.8326 51.234 16.9179 51.4341 17.0884C51.9369 17.5169 52.1882 17.7311 52.4511 17.8568C53.0591 18.1473 53.7657 18.1473 54.3737 17.8568C54.6366 17.7311 54.888 17.5169 55.3908 17.0884C55.5908 16.9179 55.6909 16.8326 55.7977 16.761C56.0427 16.5968 56.3178 16.4829 56.6071 16.4258C56.7333 16.4009 56.8644 16.3904 57.1265 16.3695C57.7849 16.3169 58.1142 16.2906 58.3889 16.1936C59.0243 15.9692 59.524 15.4695 59.7484 14.8341C59.8454 14.5594 59.8717 14.2302 59.9243 13.5717C59.9452 13.3097 59.9557 13.1785 59.9806 13.0523C60.0377 12.763 60.1517 12.4879 60.3158 12.2429C60.3874 12.1361 60.4727 12.036 60.6432 11.8359C61.0717 11.3331 61.2859 11.0818 61.4116 10.8189C61.7021 10.2109 61.7021 9.50426 61.4116 8.89628C61.2859 8.63342 61.0717 8.38206 60.6432 7.87925C60.4727 7.67914 60.3874 7.57909 60.3158 7.47223C60.1517 7.22727 60.0377 6.95217 59.9806 6.66288C59.9557 6.53667 59.9452 6.40562 59.9243 6.14354C59.8717 5.48508 59.8454 5.15577 59.7484 4.88109C59.524 4.24574 59.0243 3.746 58.3889 3.52159C58.1142 3.42456 57.785 3.39829 57.1265 3.34574C56.8644 3.32483 56.7333 3.31437 56.6071 3.28945C56.3178 3.23233 56.0427 3.11838 55.7977 2.9542C55.6909 2.88258 55.5908 2.79732 55.3908 2.62678C54.888 2.19831 54.6366 1.98407 54.3737 1.85844C53.7657 1.56786 53.0591 1.56786 52.4511 1.85844C52.1882 1.98406 51.9368 2.19834 51.434 2.62681Z" fill="#9BB997"/>
<path d="M57.0956 8.19352L57.0956 8.19351C57.4048 7.88422 57.4048 7.38275 57.0956 7.07345L57.0955 7.07344C56.7862 6.76415 56.2847 6.76413 55.9755 7.07345L52.0771 10.9718L50.8538 9.74843L50.8538 9.74843C50.5445 9.43916 50.043 9.43916 49.7337 9.74843L49.7337 9.74844C49.4244 10.0578 49.4244 10.5592 49.7337 10.8685C49.7337 10.8685 49.7337 10.8685 49.7337 10.8685L51.5171 12.6519L51.5171 12.6519C51.8264 12.9612 52.3278 12.9612 52.6371 12.6519L57.0956 8.19352Z" fill="white" stroke="white" stroke-width="0.246513"/>
<path d="M1.59375 6.21289L4.06641 13.543L6.50977 6.21289H7.81641L4.67578 14.8203H3.43945L0.304688 6.21289H1.59375ZM10.7344 8.4043C11.1797 8.4043 11.6113 8.50977 12.0293 8.7207C12.4473 8.92773 12.7656 9.19727 12.9844 9.5293C13.1953 9.8457 13.3359 10.2148 13.4062 10.6367C13.4688 10.9258 13.5 11.3867 13.5 12.0195H8.90039C8.91992 12.6562 9.07031 13.168 9.35156 13.5547C9.63281 13.9375 10.0684 14.1289 10.6582 14.1289C11.209 14.1289 11.6484 13.9473 11.9766 13.584C12.1641 13.373 12.2969 13.1289 12.375 12.8516H13.4121C13.3848 13.082 13.293 13.3398 13.1367 13.625C12.9844 13.9062 12.8125 14.1367 12.6211 14.3164C12.3008 14.6289 11.9043 14.8398 11.4316 14.9492C11.1777 15.0117 10.8906 15.043 10.5703 15.043C9.78906 15.043 9.12695 14.7598 8.58398 14.1934C8.04102 13.623 7.76953 12.8262 7.76953 11.8027C7.76953 10.7949 8.04297 9.97656 8.58984 9.34766C9.13672 8.71875 9.85156 8.4043 10.7344 8.4043ZM12.416 11.1816C12.373 10.7246 12.2734 10.3594 12.1172 10.0859C11.8281 9.57812 11.3457 9.32422 10.6699 9.32422C10.1855 9.32422 9.7793 9.5 9.45117 9.85156C9.12305 10.1992 8.94922 10.6426 8.92969 11.1816H12.416ZM14.8301 8.54492H15.832V9.62891C15.9141 9.41797 16.1152 9.16211 16.4355 8.86133C16.7559 8.55664 17.125 8.4043 17.543 8.4043C17.5625 8.4043 17.5957 8.40625 17.6426 8.41016C17.6895 8.41406 17.7695 8.42188 17.8828 8.43359V9.54688C17.8203 9.53516 17.7617 9.52734 17.707 9.52344C17.6562 9.51953 17.5996 9.51758 17.5371 9.51758C17.0059 9.51758 16.5977 9.68945 16.3125 10.0332C16.0273 10.373 15.8848 10.7656 15.8848 11.2109V14.8203H14.8301V8.54492ZM18.7969 8.57422H19.8691V14.8203H18.7969V8.57422ZM18.7969 6.21289H19.8691V7.4082H18.7969V6.21289ZM21.7324 7.58984C21.748 7.15234 21.8242 6.83203 21.9609 6.62891C22.207 6.26953 22.6816 6.08984 23.3848 6.08984C23.4512 6.08984 23.5195 6.0918 23.5898 6.0957C23.6602 6.09961 23.7402 6.10547 23.8301 6.11328V7.07422C23.7207 7.06641 23.6406 7.0625 23.5898 7.0625C23.543 7.05859 23.498 7.05664 23.4551 7.05664C23.1348 7.05664 22.9434 7.14062 22.8809 7.30859C22.8184 7.47266 22.7871 7.89453 22.7871 8.57422H23.8301V9.40625H22.7754V14.8203H21.7324V9.40625H20.8594V8.57422H21.7324V7.58984ZM24.8438 7.4082V6.21289H25.8984V7.4082H24.8438ZM24.8438 8.57422H25.8984V14.8203H24.8438V8.57422ZM30.082 8.4043C30.5273 8.4043 30.959 8.50977 31.377 8.7207C31.7949 8.92773 32.1133 9.19727 32.332 9.5293C32.543 9.8457 32.6836 10.2148 32.7539 10.6367C32.8164 10.9258 32.8477 11.3867 32.8477 12.0195H28.248C28.2676 12.6562 28.418 13.168 28.6992 13.5547C28.9805 13.9375 29.416 14.1289 30.0059 14.1289C30.5566 14.1289 30.9961 13.9473 31.3242 13.584C31.5117 13.373 31.6445 13.1289 31.7227 12.8516H32.7598C32.7324 13.082 32.6406 13.3398 32.4844 13.625C32.332 13.9062 32.1602 14.1367 31.9688 14.3164C31.6484 14.6289 31.252 14.8398 30.7793 14.9492C30.5254 15.0117 30.2383 15.043 29.918 15.043C29.1367 15.043 28.4746 14.7598 27.9316 14.1934C27.3887 13.623 27.1172 12.8262 27.1172 11.8027C27.1172 10.7949 27.3906 9.97656 27.9375 9.34766C28.4844 8.71875 29.1992 8.4043 30.082 8.4043ZM31.7637 11.1816C31.7207 10.7246 31.6211 10.3594 31.4648 10.0859C31.1758 9.57812 30.6934 9.32422 30.0176 9.32422C29.5332 9.32422 29.127 9.5 28.7988 9.85156C28.4707 10.1992 28.2969 10.6426 28.2773 11.1816H31.7637ZM34.8164 11.7559C34.8164 12.4277 34.959 12.9902 35.2441 13.4434C35.5293 13.8965 35.9863 14.123 36.6152 14.123C37.1035 14.123 37.5039 13.9141 37.8164 13.4961C38.1328 13.0742 38.291 12.4707 38.291 11.6855C38.291 10.8926 38.1289 10.3066 37.8047 9.92773C37.4805 9.54492 37.0801 9.35352 36.6035 9.35352C36.0723 9.35352 35.6406 9.55664 35.3086 9.96289C34.9805 10.3691 34.8164 10.9668 34.8164 11.7559ZM36.4043 8.43359C36.8848 8.43359 37.2871 8.53516 37.6113 8.73828C37.7988 8.85547 38.0117 9.06055 38.25 9.35352V6.18359H39.2637V14.8203H38.3145V13.9473C38.0684 14.334 37.7773 14.6133 37.4414 14.7852C37.1055 14.957 36.7207 15.043 36.2871 15.043C35.5879 15.043 34.9824 14.75 34.4707 14.1641C33.959 13.5742 33.7031 12.791 33.7031 11.8145C33.7031 10.9004 33.9355 10.1094 34.4004 9.44141C34.8691 8.76953 35.5371 8.43359 36.4043 8.43359Z" fill="#9BB997"/>
</svg>
