<svg width="16" height="16" viewBox="0 0 16 16" fill="none" xmlns="http://www.w3.org/2000/svg">
<g clip-path="url(#clip0_1721_1755)">
<path d="M3.40732 4.56363L3.03413 3.26311C2.66598 1.98002 3.3665 0.69863 4.51061 0.488308C5.65933 0.277147 6.7656 1.23103 6.87745 2.55659L6.99121 3.90479C7.07958 4.95218 6.45184 5.86964 5.53102 6.03892C4.6104 6.20814 3.69726 5.57417 3.40732 4.56363Z" fill="#F2727F"/>
<path d="M9.36886 6.03882C8.44804 5.86953 7.8203 4.95207 7.90867 3.90469L8.0224 2.55652C8.13471 1.22622 9.24529 0.277881 10.3892 0.488235C11.5408 0.699945 12.2318 1.9874 11.8657 3.26307L11.4926 4.56356C11.2027 5.57387 10.2896 6.2081 9.36886 6.03882Z" fill="#F2727F"/>
<path d="M1.06393 7.66006L0.481454 7.08729C-0.166289 6.45032 -0.166515 5.40084 0.517686 4.83853C1.20189 4.27622 2.23146 4.47974 2.73089 5.23859L3.18002 5.92099C3.58586 6.53759 3.48246 7.33907 2.93954 7.78527C2.39652 8.2315 1.5902 8.17765 1.06393 7.66006Z" fill="#F2727F"/>
<path d="M11.9603 7.78526C11.4174 7.33907 11.314 6.53759 11.7198 5.92095L12.1689 5.23859C12.6684 4.4797 13.6979 4.27625 14.3822 4.83853C15.0664 5.40087 15.066 6.45035 14.4184 7.08729L13.8359 7.66008C13.3097 8.17745 12.5034 8.23165 11.9603 7.78526Z" fill="#F2727F"/>
<path d="M11.7547 8.69117C10.8131 7.2658 9.20137 6.37695 7.45113 6.37695C4.6049 6.37695 2.28906 8.69634 2.28906 11.5474C2.28906 13.2077 3.65146 14.412 5.13691 14.412C5.71152 14.412 6.05434 14.2602 6.70037 14.0355C8.06332 13.5616 8.59285 14.5065 9.96635 14.4024C10.6013 15.1005 11.5166 15.5396 12.5325 15.5396C14.4451 15.5396 16.0008 13.9839 16.0008 12.0714C16.0008 9.84561 13.9225 8.19049 11.7547 8.69117ZM12.5325 14.5072C11.1894 14.5072 10.0967 13.4145 10.0967 12.0714C10.0967 10.7283 11.1894 9.63551 12.5325 9.63551C13.8757 9.63551 14.9684 10.7283 14.9684 12.0714C14.9684 13.4145 13.8757 14.5072 12.5325 14.5072Z" fill="#F2727F"/>
<path d="M11.7955 13.2915L11.1825 12.6785C10.9808 12.4769 10.9808 12.1501 11.1825 11.9485C11.384 11.7469 11.7109 11.7469 11.9125 11.9485L12.1605 12.1965L13.2312 11.1258C13.4328 10.9242 13.7596 10.9242 13.9612 11.1258C14.1628 11.3274 14.1628 11.6543 13.9612 11.8558L12.5255 13.2915C12.3239 13.4931 11.997 13.4931 11.7955 13.2915Z" fill="#F1D15B"/>
</g>
<defs>
<clipPath id="clip0_1721_1755">
<rect width="16" height="16" fill="white"/>
</clipPath>
</defs>
</svg>
