<svg width="16" height="16" viewBox="0 0 16 16" fill="none" xmlns="http://www.w3.org/2000/svg">
<path d="M7.72698 1.76328C7.56652 1.6007 7.37536 1.4716 7.1646 1.38349C6.95384 1.29537 6.72767 1.25 6.49923 1.25C6.2708 1.25 6.04463 1.29537 5.83387 1.38349C5.62311 1.4716 5.43195 1.6007 5.27148 1.76328L5.62673 2.11478C5.74071 1.99914 5.87654 1.9073 6.02632 1.84461C6.17611 1.78193 6.33686 1.74965 6.49923 1.74965C6.66161 1.74965 6.82236 1.78193 6.97215 1.84461C7.12193 1.9073 7.25776 1.99914 7.37173 2.11478L7.72698 1.76328Z" fill="#315D80"/>
<path d="M6.49977 0.75003C6.79247 0.749585 7.08232 0.807553 7.35233 0.92054C7.62235 1.03353 7.86711 1.19926 8.07227 1.40803L8.42727 1.05653C8.17546 0.801074 7.87538 0.59822 7.54448 0.459761C7.21358 0.321302 6.85846 0.25 6.49977 0.25C6.14107 0.25 5.78595 0.321302 5.45505 0.459761C5.12415 0.59822 4.82407 0.801074 4.57227 1.05653L4.92727 1.40803C5.13242 1.19926 5.37718 1.03353 5.6472 0.92054C5.91721 0.807553 6.20706 0.749585 6.49977 0.75003Z" fill="#315D80"/>
<path d="M6.51758 3.5C6.79372 3.5 7.01758 3.27614 7.01758 3C7.01758 2.72386 6.79372 2.5 6.51758 2.5C6.24144 2.5 6.01758 2.72386 6.01758 3C6.01758 3.27614 6.24144 3.5 6.51758 3.5Z" fill="#315D80"/>
<path d="M11.25 5.25C11.25 5.11739 11.1973 4.99021 11.1036 4.89645C11.0098 4.80268 10.8826 4.75 10.75 4.75H2.25C2.11739 4.75 1.99021 4.80268 1.89645 4.89645C1.80268 4.99021 1.75 5.11739 1.75 5.25V7.25H11.25V5.25ZM6.5 6.5H2.5V5.5H6.5V6.5ZM8 6.5C7.90111 6.5 7.80444 6.47068 7.72221 6.41573C7.63999 6.36079 7.5759 6.2827 7.53806 6.19134C7.50022 6.09998 7.49031 5.99945 7.50961 5.90245C7.5289 5.80546 7.57652 5.71637 7.64645 5.64645C7.71637 5.57652 7.80546 5.5289 7.90245 5.50961C7.99945 5.49031 8.09998 5.50022 8.19134 5.53806C8.2827 5.5759 8.36079 5.63999 8.41574 5.72221C8.47068 5.80444 8.5 5.90111 8.5 6C8.5 6.13261 8.44732 6.25979 8.35355 6.35355C8.25979 6.44732 8.13261 6.5 8 6.5ZM10 6.5C9.90111 6.5 9.80444 6.47068 9.72221 6.41573C9.63999 6.36079 9.5759 6.2827 9.53806 6.19134C9.50022 6.09998 9.49031 5.99945 9.50961 5.90245C9.5289 5.80546 9.57652 5.71637 9.64645 5.64645C9.71637 5.57652 9.80546 5.5289 9.90245 5.50961C9.99944 5.49031 10.1 5.50022 10.1913 5.53806C10.2827 5.5759 10.3608 5.63999 10.4157 5.72221C10.4707 5.80444 10.5 5.90111 10.5 6C10.5 6.13261 10.4473 6.25979 10.3536 6.35355C10.2598 6.44732 10.1326 6.5 10 6.5Z" fill="#315D80"/>
<path d="M6.5 13C7.4665 13 8.25 12.2165 8.25 11.25C8.25 10.2835 7.4665 9.5 6.5 9.5C5.5335 9.5 4.75 10.2835 4.75 11.25C4.75 12.2165 5.5335 13 6.5 13Z" fill="#315D80"/>
<path d="M13.5 9.75H11C10.8674 9.75 10.7402 9.80268 10.6464 9.89645C10.5527 9.99021 10.5 10.1174 10.5 10.25V14.75C10.5 14.8826 10.5527 15.0098 10.6464 15.1036C10.7402 15.1973 10.8674 15.25 11 15.25H13.5C13.6326 15.25 13.7598 15.1973 13.8536 15.1036C13.9473 15.0098 14 14.8826 14 14.75V10.25C14 10.1174 13.9473 9.99021 13.8536 9.89645C13.7598 9.80268 13.6326 9.75 13.5 9.75ZM12 11.25H12.5V12.25H12V11.25ZM12.25 13.75C11.9961 13.75 11.7482 13.6727 11.5394 13.5283C11.3305 13.384 11.1705 13.1794 11.0808 12.9419C10.991 12.7044 10.9757 12.4452 11.0369 12.1988C11.0981 11.9524 11.2328 11.7304 11.4233 11.5625L11.754 11.9375C11.6397 12.0383 11.5588 12.1714 11.5221 12.3193C11.4854 12.4671 11.4946 12.6227 11.5484 12.7652C11.6023 12.9077 11.6983 13.0304 11.8236 13.1171C11.9489 13.2037 12.0977 13.2501 12.25 13.2501C12.4023 13.2501 12.5511 13.2037 12.6764 13.1171C12.8017 13.0304 12.8977 12.9077 12.9516 12.7652C13.0054 12.6227 13.0146 12.4671 12.9779 12.3193C12.9412 12.1714 12.8603 12.0383 12.746 11.9375L13.0767 11.5625C13.2672 11.7304 13.4019 11.9524 13.4631 12.1988C13.5243 12.4452 13.509 12.7044 13.4192 12.9419C13.3295 13.1794 13.1695 13.384 12.9606 13.5283C12.7518 13.6727 12.5039 13.75 12.25 13.75Z" fill="#F2727F"/>
<path d="M10 13.5V10.25C10 9.98478 10.1054 9.73043 10.2929 9.54289C10.4804 9.35536 10.7348 9.25 11 9.25H11.25V7.75H1.75V14.75C1.75 14.8826 1.80268 15.0098 1.89645 15.1036C1.99021 15.1973 2.11739 15.25 2.25 15.25H10.139C10.049 15.0987 10.001 14.9261 10 14.75V14.5H9.5V13.5H10ZM6.5 14C5.9561 14 5.42442 13.8387 4.97218 13.5365C4.51995 13.2344 4.16747 12.8049 3.95933 12.3024C3.75119 11.7999 3.69673 11.2469 3.80284 10.7135C3.90895 10.1801 4.17086 9.69005 4.55546 9.30546C4.94005 8.92086 5.43005 8.65895 5.9635 8.55284C6.49695 8.44673 7.04988 8.50119 7.55238 8.70933C8.05488 8.91747 8.48437 9.26995 8.78654 9.72218C9.08872 10.1744 9.25 10.7061 9.25 11.25C9.25 11.9793 8.96027 12.6788 8.44454 13.1945C7.92882 13.7103 7.22935 14 6.5 14Z" fill="#315D80"/>
</svg>
