<svg width="16" height="16" viewBox="0 0 16 16" fill="none" xmlns="http://www.w3.org/2000/svg">
<g clip-path="url(#clip0_1647_6429)">
<path d="M0 3.75H16V4.6875H0V3.75Z" fill="#6B5E7A"/>
<path d="M0 1.875H16V2.8125H0V1.875Z" fill="#6B5E7A"/>
<path d="M0 5.625H16V6.5625H0V5.625Z" fill="#6B5E7A"/>
<path d="M0 0H16V0.9375H0V0Z" fill="#6B5E7A"/>
<path d="M13.6562 7.5H11.2792C11.2413 7.76638 11.1717 8.02263 11.0741 8.26481L11.9421 8.76591L11.4733 9.57778L10.6043 9.07606C10.4407 9.28397 10.2528 9.47191 10.0449 9.6355L10.5466 10.5045L9.73472 10.9733L9.23363 10.1053C8.99144 10.2028 8.73519 10.2725 8.46881 10.3104V11.3125H7.53131V10.3104C7.26494 10.2725 7.00866 10.2029 6.76647 10.1054L6.26538 10.9733L5.4535 10.5046L5.95522 9.63556C5.74731 9.47194 5.55937 9.28403 5.39578 9.07613L4.52678 9.57784L4.05803 8.76597L4.92597 8.26488C4.82844 8.02269 4.75881 7.76644 4.72091 7.50003H2.34375V13.6563H13.6562V7.5Z" fill="#F1D15B"/>
<path d="M8.00019 9.40625C9.14931 9.40625 10.1102 8.58584 10.3285 7.5H5.67188C5.89012 8.58584 6.85103 9.40625 8.00019 9.40625Z" fill="#F1D15B"/>
<path d="M14.5938 14.5938H1.40625V7.5H0V16H16V7.5H14.5938V14.5938Z" fill="#6B5E7A"/>
</g>
<defs>
<clipPath id="clip0_1647_6429">
<rect width="16" height="16" fill="white"/>
</clipPath>
</defs>
</svg>
