<svg width="16" height="16" viewBox="0 0 16 16" fill="none" xmlns="http://www.w3.org/2000/svg">
<path fill-rule="evenodd" clip-rule="evenodd" d="M0.00178623 12.3933C0.000944138 12.3789 0.000102043 12.3646 0.000102043 12.3503V2.34526C0.000102043 1.72295 0.247681 1.12674 0.68726 0.687158C1.12768 0.246737 1.72389 0 2.34621 0H2.70747C4.00263 0 5.05273 1.05011 5.05273 2.34526V11.5082C5.05273 11.5309 5.05189 11.5528 5.04937 11.5747C5.05189 11.6177 5.05273 11.6615 5.05273 11.7053C5.05273 12.4488 4.44979 13.0526 3.70537 13.0526C3.39547 13.0526 3.14452 12.8008 3.14452 12.4909C3.14452 12.1811 3.39547 11.9293 3.70537 11.9293C3.83 11.9293 3.93021 11.8291 3.93021 11.7053C3.93021 11.1469 3.478 10.6947 2.91968 10.6947C1.92768 10.6947 1.12347 11.4989 1.12347 12.4909C1.12347 13.8088 2.19126 14.8766 3.50916 14.8766C3.81905 14.8766 4.07084 15.1284 4.07084 15.4383C4.07084 15.7482 3.81905 16 3.50916 16C1.57147 16 0.000102043 14.4286 0.000102043 12.4909C0.000102043 12.4581 0.000944138 12.4261 0.00178623 12.3933Z" fill="#F1D15B"/>
<path fill-rule="evenodd" clip-rule="evenodd" d="M6.17946 3.06445H14.3228C15.253 3.06445 16.0079 3.81812 16.0079 4.74822V14.2902C16.0079 15.2203 15.253 15.9739 14.3228 15.9739H5.10043C5.16279 15.7981 5.19692 15.6094 5.19692 15.4127C5.19692 14.8397 4.9098 14.3338 4.47266 14.0295C5.46344 13.708 6.17946 12.7779 6.17946 11.68C6.17946 11.6419 6.17887 11.6038 6.1777 11.5657C6.17887 11.5386 6.17946 11.5109 6.17946 11.4839V3.06445Z" fill="#F2727F"/>
</svg>
