<svg width="16" height="16" viewBox="0 0 16 16" fill="none" xmlns="http://www.w3.org/2000/svg">
<g clip-path="url(#clip0_1647_6444)">
<path d="M3.76494 7.0594C3.76494 6.02147 4.60936 5.17705 5.64729 5.17705V4.23587C4.60936 4.23587 3.76494 3.39145 3.76494 2.35352H2.82376C2.82376 3.39145 1.97934 4.23587 0.941406 4.23587V5.17705C1.97934 5.17705 2.82376 6.02147 2.82376 7.0594H3.76494Z" fill="#6B5E7A"/>
<path d="M15.0594 1.88235C14.0215 1.88235 13.177 1.03793 13.177 0H12.2359C12.2359 1.03793 11.3914 1.88235 10.3535 1.88235V2.82353C11.3914 2.82353 12.2359 3.66795 12.2359 4.70588H13.177C13.177 3.66795 14.0215 2.82353 15.0594 2.82353V1.88235Z" fill="#6B5E7A"/>
<path d="M7.05859 0H8.94095V7.05882H7.05859V0Z" fill="#9BB997"/>
<path d="M12.7051 6.11719H13.6463V7.05836H12.7051V6.11719Z" fill="#6B5E7A"/>
<path d="M14.5879 8H15.5291V8.94118H14.5879V8Z" fill="#6B5E7A"/>
<path d="M4.23633 0.470703H5.1775V1.41188H4.23633V0.470703Z" fill="#6B5E7A"/>
<path d="M0.470703 7.5293H1.41188V8.47047H0.470703V7.5293Z" fill="#6B5E7A"/>
<path d="M5.17578 8H10.8228V9.88235H5.17578V8Z" fill="#9BB997"/>
<path d="M4.91544 10.8242L2.5625 16.0007H6.11685V13.6477H7.05803V16.0007H8.94038V13.6477H9.88156V16.0007H13.4359L11.083 10.8242H4.91544Z" fill="#6B5E7A"/>
</g>
<defs>
<clipPath id="clip0_1647_6444">
<rect width="16" height="16" fill="white"/>
</clipPath>
</defs>
</svg>
