<svg width="16" height="17" viewBox="0 0 16 17" fill="none" xmlns="http://www.w3.org/2000/svg">
<g clip-path="url(#clip0_1721_1782)">
<path d="M12.5343 3.02148C12.5343 2.84889 12.3944 2.70898 12.2218 2.70898H8.46875V7.71477H12.5343V3.02148Z" fill="#4D7EA5"/>
<path d="M7.53038 2.70898H3.77734C3.60475 2.70898 3.46484 2.84889 3.46484 3.02148V5.62445L4.96888 4.11998C5.15191 3.93689 5.44872 3.93686 5.63178 4.11989C5.81488 4.30292 5.81491 4.59973 5.63188 4.7828L3.46484 6.95045V7.71477H7.53038V2.70898ZM6.58288 6.39198L6.18203 6.79298C6.0905 6.88455 5.9705 6.93033 5.85053 6.93033C5.73059 6.93033 5.61066 6.88458 5.51913 6.79308C5.33603 6.61008 5.33597 6.31327 5.519 6.13017L5.91984 5.72917C6.10281 5.54608 6.39966 5.54602 6.58275 5.72905C6.76584 5.91211 6.76591 6.20892 6.58288 6.39198Z" fill="#4D7EA5"/>
<path d="M7.53038 8.65234H3.46484V12.2519H7.53038V8.65234Z" fill="#4D7EA5"/>
<path d="M12.5343 8.65234H8.46875V12.2519H12.5343V8.65234Z" fill="#4D7EA5"/>
<path d="M2.52859 2.70906C2.52859 2.19128 2.94834 1.77156 3.46609 1.77156H12.5346C13.0524 1.77156 13.4721 2.19128 13.4721 2.70906V12.2519H14.8796V0.957031C14.8796 0.611844 14.5998 0.332031 14.2546 0.332031H1.74609C1.40091 0.332031 1.12109 0.611844 1.12109 0.957031V12.2519H2.52859V2.70906Z" fill="#4D7EA5"/>
<path d="M15.5312 13.1895H0.46875C0.209875 13.1895 0 13.3993 0 13.6582V13.6759C0 15.1405 1.19159 16.3321 2.65625 16.3321H13.3438C14.8084 16.3321 16 15.1405 16 13.6759V13.6582C16 13.3993 15.7901 13.1895 15.5312 13.1895Z" fill="#FFB6A3"/>
</g>
<defs>
<clipPath id="clip0_1721_1782">
<rect width="16" height="16" fill="white" transform="translate(0 0.332031)"/>
</clipPath>
</defs>
</svg>
