<svg width="14" height="12" viewBox="0 0 14 12" fill="none" xmlns="http://www.w3.org/2000/svg">
<path d="M9.75 8.75V8.57162L10.7323 7H12.75V8.75H9.75ZM10.75 10.2563C10.5347 10.0913 10.2713 10.0013 10 10C9.93372 9.99991 9.87019 9.97354 9.82332 9.92668C9.77646 9.87981 9.75009 9.81628 9.75 9.75V9.25H10.75V10.2563ZM5.75 7C5.8163 7 5.87989 6.97366 5.92678 6.92678C5.97366 6.87989 6 6.8163 6 6.75C6 6.6837 5.97366 6.62011 5.92678 6.57322C5.87989 6.52634 5.8163 6.5 5.75 6.5H5.04591H4.5C4.36739 6.5 4.24021 6.44732 4.14645 6.35355C4.05268 6.25979 4 6.13261 4 6C4 5.86739 4.05268 5.74021 4.14645 5.64645C4.24021 5.55268 4.36739 5.5 4.5 5.5H5.75C5.8163 5.5 5.87989 5.47366 5.92678 5.42678C5.97366 5.37989 6 5.3163 6 5.25C6 5.1837 5.97366 5.12011 5.92678 5.07322C5.87989 5.02634 5.8163 5 5.75 5C5.61739 5 5.49021 4.94732 5.39645 4.85355C5.30268 4.75979 5.25 4.63261 5.25 4.5C5.25 4.36739 5.30268 4.24021 5.39645 4.14645C5.49021 4.05268 5.61739 4 5.75 4H8.54453L7.74978 5.24888C7.74948 5.1828 7.72304 5.11954 7.67624 5.0729C7.62943 5.02627 7.56607 5.00006 7.5 5H6.75C6.6837 5 6.62011 5.02634 6.57322 5.07322C6.52634 5.12011 6.5 5.1837 6.5 5.25C6.5 5.3163 6.52634 5.37989 6.57322 5.42678C6.62011 5.47366 6.6837 5.5 6.75 5.5H7.5C7.5369 5.49951 7.57322 5.49069 7.60625 5.47422L7.03906 6.36563C7.01352 6.40579 6.99996 6.4524 7 6.5H6.75C6.6837 6.5 6.62011 6.52634 6.57322 6.57322C6.52634 6.62011 6.5 6.6837 6.5 6.75C6.5 6.8163 6.52634 6.87989 6.57322 6.92678C6.62011 6.97366 6.6837 7 6.75 7H7.26766L7.58016 7.5H5.75C5.61743 7.49987 5.49033 7.44715 5.39659 7.35341C5.30285 7.25967 5.25013 7.13257 5.25 7H5.75ZM0 4.25V2.5H0.75V4.25H0ZM1.25 2.5H4.75V4.25H1.25V2.5ZM8.75 2.5V3.5H5.75C5.57392 3.501 5.4013 3.54903 5.25 3.63912V2.5H8.75ZM12.75 2.5V4.25H9.61456L9.25 3.67709V2.5H12.75ZM14 2.5V4.25H13.25V2.5H14ZM14 6.5H11.25V4.75H14V6.5ZM8.37759 7.83216L7.54591 6.50072L8.75 4.60847V7.54597C8.59848 7.59913 8.46796 7.69942 8.37759 7.83216ZM10.75 6.03438L9.93272 4.75H10.75V6.03438ZM9.62259 7.83253C9.53222 7.69966 9.40164 7.59925 9.25 7.54606V4.60856L10.4548 6.50184L9.62259 7.83253ZM8.75 8.25C8.75 8.1837 8.77634 8.12011 8.82322 8.07322C8.87011 8.02634 8.9337 8 9 8C9.0663 8 9.12989 8.02634 9.17678 8.07322C9.22366 8.12011 9.25 8.1837 9.25 8.25V9.5H8.75V8.25ZM13.25 7H14V8.75H13.25V7ZM14 2H11.25V0.25H14V2ZM10.75 2H7.25V0.25H10.75V2ZM6.75 2H3.25V0.25H6.75V2ZM0 0.25H2.75V2H0V0.25ZM0 4.75H4.78244C4.80482 4.83757 4.83904 4.92168 4.88416 5H4.5C4.23478 5 3.98043 5.10536 3.79289 5.29289C3.60536 5.48043 3.5 5.73478 3.5 6C3.5 6.26522 3.60536 6.51957 3.79289 6.70711C3.98043 6.89464 4.23478 7 4.5 7H4.75C4.7503 7.26513 4.85575 7.51931 5.04322 7.70678C5.23069 7.89425 5.48487 7.9997 5.75 8H7.89269L8.25 8.57166V11H0V4.75ZM9 11.5C8.93372 11.4999 8.87019 11.4735 8.82332 11.4267C8.77646 11.3798 8.75009 11.3163 8.75 11.25V10H9.25V11.25C9.24991 11.3163 9.22354 11.3798 9.17668 11.4267C9.12981 11.4735 9.06628 11.4999 9 11.5ZM9.75 11V10.4539C9.83006 10.4836 9.91463 10.4992 10 10.5C10.1983 10.5001 10.3886 10.5784 10.5295 10.718C10.6087 10.7979 10.6693 10.8941 10.707 11H9.75ZM14 11H11.25V9.25H14V11Z" fill="#6B5E7A"/>
</svg>
