<svg width="16" height="16" viewBox="0 0 16 16" fill="none" xmlns="http://www.w3.org/2000/svg">
<g clip-path="url(#clip0_1721_1938)">
<path d="M5.95119 0.5H3.86719C3.45297 0.5 3.11719 0.835786 3.11719 1.25V7.23025C3.11719 7.64446 3.45297 7.98025 3.86719 7.98025H5.95119C6.3654 7.98025 6.70119 7.64446 6.70119 7.23025V1.25C6.70119 0.835786 6.3654 0.5 5.95119 0.5Z" fill="#F1D15B"/>
<path d="M14.2789 9.67188H9.08594C8.67172 9.67188 8.33594 10.0077 8.33594 10.4219V11.3464C8.33594 11.7606 8.67172 12.0964 9.08594 12.0964H14.2789C14.6932 12.0964 15.0289 11.7606 15.0289 11.3464V10.4219C15.0289 10.0077 14.6932 9.67188 14.2789 9.67188Z" fill="#F1D15B"/>
<path d="M0.970703 1.73828V6.73828C0.970703 6.87634 1.08252 6.98828 1.2207 6.98828H2.61694V1.48828H1.2207C1.08252 1.48828 0.970703 1.60022 0.970703 1.73828Z" fill="#315D80"/>
<path d="M8.9314 9.18692C8.9823 9.18059 9.03238 9.17139 9.08496 9.17139H14.2781C14.3306 9.17139 14.3806 9.18057 14.4314 9.18689V5.73828C14.4314 3.39478 12.5249 1.48828 10.1814 1.48828H7.20117V6.98828H8.9314V9.18692Z" fill="#315D80"/>
<path d="M14.5685 12.5625C14.4753 12.5848 14.3793 12.5997 14.2793 12.5997H9.08618C8.98618 12.5997 8.89015 12.5848 8.79688 12.5625C8.8271 12.85 8.91474 13.1876 9.12329 13.5264C9.51343 14.1607 8.97339 15.1176 8.96802 15.1271C8.92359 15.2045 8.92359 15.2999 8.96826 15.377C9.01319 15.4542 9.09546 15.5019 9.18457 15.5019H10.7162C10.9251 15.0694 10.7138 14.7649 10.6868 14.7297C10.603 14.6214 10.6211 14.4647 10.7283 14.3797C10.8359 14.2949 10.9905 14.3106 11.0767 14.4168C11.0944 14.4386 11.4422 14.882 11.2554 15.5019H14.1809C14.2703 15.5019 14.3528 15.4542 14.3975 15.3768C14.4421 15.2994 14.4421 15.204 14.3972 15.1268C14.3918 15.1171 13.856 14.1542 14.2422 13.5264C14.4506 13.1876 14.5383 12.85 14.5685 12.5625ZM12.728 14.2266C12.7998 14.3445 12.7625 14.4984 12.6445 14.5701C12.5282 14.6412 12.3731 14.6057 12.3008 14.4866C11.8137 13.6865 12.2993 13.0721 12.3203 13.0463C12.4072 12.9395 12.5649 12.9225 12.6719 13.0098C12.7786 13.0964 12.7954 13.2524 12.7102 13.3594C12.6799 13.3986 12.4341 13.744 12.728 14.2266Z" fill="#315D80"/>
</g>
<defs>
<clipPath id="clip0_1721_1938">
<rect width="16" height="16" fill="white"/>
</clipPath>
</defs>
</svg>
