<svg width="16" height="16" viewBox="0 0 16 16" fill="none" xmlns="http://www.w3.org/2000/svg">
<g clip-path="url(#clip0_1721_1803)">
<path d="M8 0C3.60596 0 0 3.60596 0 8C0 12.2358 3.35571 15.7552 7.53125 16V13.1089C5.94531 12.879 4.71875 11.5236 4.71875 9.875V5.65625H4.25C3.99097 5.65625 3.78125 5.44653 3.78125 5.1875C3.78125 4.92847 3.99097 4.71875 4.25 4.71875H5.65625V2.375C5.65625 2.11597 5.86597 1.90625 6.125 1.90625C6.38403 1.90625 6.59375 2.11597 6.59375 2.375V4.71875H9.40625V2.375C9.40625 2.11597 9.61597 1.90625 9.875 1.90625C10.134 1.90625 10.3438 2.11597 10.3438 2.375V4.71875H11.75C12.009 4.71875 12.2188 4.92847 12.2188 5.1875C12.2188 5.44653 12.009 5.65625 11.75 5.65625H11.2812V9.875C11.2812 11.5236 10.0547 12.879 8.46875 13.1089V16C12.6443 15.7552 16 12.2358 16 8C16 3.60596 12.394 0 8 0Z" fill="#315D80"/>
<path d="M10.3438 9.875V5.65625H5.65625V9.875C5.65625 11.1672 6.70776 12.2188 8 12.2188C9.29224 12.2188 10.3438 11.1672 10.3438 9.875ZM9.35681 9.14722L8.41931 11.0222C8.30408 11.2518 8.02429 11.348 7.79028 11.2318C7.55872 11.116 7.46484 10.8345 7.58069 10.6028L8.17896 9.40625H7.0625C6.90002 9.40625 6.74939 9.32202 6.66382 9.18384C6.57825 9.04553 6.57043 8.87292 6.64319 8.72778L7.58069 6.85278C7.69702 6.62122 7.97754 6.52881 8.20972 6.64319C8.44128 6.75903 8.53516 7.04053 8.41931 7.27222L7.82104 8.46875H8.9375C9.09998 8.46875 9.25061 8.55298 9.33618 8.69116C9.42175 8.82947 9.42957 9.00208 9.35681 9.14722Z" fill="#F2727F"/>
</g>
<defs>
<clipPath id="clip0_1721_1803">
<rect width="16" height="16" fill="white"/>
</clipPath>
</defs>
</svg>
