<svg width="16" height="16" viewBox="0 0 16 16" fill="none" xmlns="http://www.w3.org/2000/svg">
<g clip-path="url(#clip0_1721_1945)">
<path d="M10.753 11.5667L7.84296 9.86914L5.63086 11.0988L7.99288 12.4767C8.01272 12.4887 8.03107 12.5031 8.04756 12.5195L8.0524 12.5232C8.07521 12.547 8.09369 12.5744 8.1072 12.6044C8.11092 12.6122 8.11377 12.6199 8.11675 12.6282C8.12816 12.658 8.13448 12.6895 8.1356 12.7213C8.1356 12.7235 8.13684 12.7253 8.13684 12.7275V13.0928L10.753 11.5667Z" fill="#315D80"/>
<path d="M11.6191 8.73981L14.5213 7.047V5.6875L11.6191 7.38043V8.73981Z" fill="#F8B195"/>
<path d="M4.90616 11.3486C4.90058 11.3456 4.89525 11.3424 4.88991 11.339L4.35883 11.0293L1.76172 12.4458L4.65866 14.1357L7.25577 12.7191L4.90616 11.3486Z" fill="#315D80"/>
<path d="M1.46094 14.3027L4.36309 15.9957V14.6362L1.46094 12.9434V14.3027Z" fill="#315D80"/>
<path d="M4.66012 0L1.76367 1.68971L11.3248 6.88009L14.2213 5.19039L4.66012 0Z" fill="#F8B195"/>
<path d="M11.6204 10.5726V11.5672C11.6202 11.5907 11.6171 11.6142 11.6111 11.637L11.6105 11.6419C11.6015 11.6734 11.5871 11.7032 11.568 11.7298C11.563 11.7372 11.5578 11.7437 11.5521 11.7506C11.5319 11.7758 11.5076 11.7975 11.4801 11.8147L11.4765 11.818L7.99378 13.8496C7.94926 13.8752 7.89879 13.8889 7.84746 13.8889C7.68726 13.8889 7.55731 13.7589 7.55731 13.5987V13.2169L4.94531 14.6417V16.0008L14.5213 10.5287L14.5085 8.87891L11.6204 10.5726Z" fill="#315D80"/>
<path d="M11.039 10.5718L8.13672 8.87891V9.36795L11.039 11.0609V10.5718Z" fill="#315D80"/>
<path d="M14.1872 8.39225L13.746 8.16992L11.4749 9.49471C11.4598 9.50264 11.444 9.50921 11.4278 9.5143C11.4197 9.51715 11.4124 9.52186 11.4042 9.52397C11.3797 9.53066 11.3544 9.53401 11.3291 9.53414H11.3287C11.3044 9.53401 11.2802 9.53091 11.2567 9.52471C11.2493 9.52285 11.2429 9.51913 11.2358 9.51678C11.2205 9.51231 11.2056 9.50648 11.1911 9.49954L8.80711 8.2158L8.45508 8.39237L11.3282 10.0687L14.1872 8.39225Z" fill="#315D80"/>
<path d="M11.0383 8.75788V7.38474L1.46094 2.18555V3.55708L4.07293 4.9818V4.60001C4.07293 4.49759 4.12687 4.40274 4.21503 4.35041C4.30307 4.29808 4.41219 4.29622 4.50221 4.3452L7.69463 6.08661C7.78788 6.13745 7.84591 6.23516 7.84579 6.34143V7.03854L11.0383 8.75788Z" fill="#F8B195"/>
<path d="M5.31934 9.44916C5.40205 9.53211 5.52654 9.55704 5.63466 9.51227L5.63566 9.51203C5.66728 9.49839 5.69617 9.47904 5.72084 9.45511C5.72357 9.45251 5.72704 9.45176 5.72952 9.44928L6.60023 8.57858C6.71021 8.46475 6.7086 8.28371 6.59676 8.17174C6.48479 8.05977 6.30375 8.05816 6.1898 8.16815L5.81471 8.54336V6.63195C5.81471 6.47162 5.68476 6.3418 5.52456 6.3418C5.36423 6.3418 5.23428 6.47162 5.23428 6.63195V8.54336L4.85906 8.16815C4.74511 8.05816 4.5642 8.05965 4.45223 8.17162C4.34026 8.28359 4.33865 8.46462 4.44863 8.57845L5.31934 9.44916Z" fill="#F8B195"/>
</g>
<defs>
<clipPath id="clip0_1721_1945">
<rect width="16" height="16" fill="white"/>
</clipPath>
</defs>
</svg>
