<svg width="16" height="16" viewBox="0 0 16 16" fill="none" xmlns="http://www.w3.org/2000/svg">
<g clip-path="url(#clip0_1721_1877)">
<path d="M8.16139 10.5568L5.51773 7.91317C5.22226 7.6187 4.71757 7.82745 4.71757 8.24457C4.71757 8.7147 4.33076 9.09738 3.85514 9.09738C3.73482 9.09738 3.57776 9.18067 3.52373 9.23473L0.411574 12.2724C-0.13727 12.8222 -0.137269 13.7167 0.412043 14.2665L1.73407 15.5889C2.28479 16.1378 3.17786 16.1378 3.72811 15.5885L6.83982 12.5508C6.89186 12.4987 6.97717 12.3406 6.97717 12.2194C6.97717 11.7437 7.35986 11.3569 7.82998 11.3569C8.24751 11.3569 8.45542 10.8508 8.16139 10.5568Z" fill="#6B5E7A"/>
<path d="M9.49248 9.2334L6.83973 6.58068C6.65664 6.39759 6.35889 6.39728 6.17552 6.58159L5.8457 6.91365L9.15917 10.2277L9.49158 9.89762C9.67864 9.71153 9.67264 9.41262 9.49248 9.2334Z" fill="#6B5E7A"/>
<path d="M15.8618 0.80054L15.199 0.137697C15.0754 0.0141029 14.8955 -0.0307721 14.7289 0.0214154L11.6151 0.985478C11.471 1.02988 11.357 1.14157 11.3094 1.28485L10.6003 3.4107L7.83398 6.2507L9.82252 8.23923L12.5888 5.39923L14.7147 4.69017C14.858 4.64257 14.9696 4.52857 15.014 4.38438L15.9781 1.27067C16.0298 1.10451 15.985 0.923665 15.8618 0.80054Z" fill="#F1D15B"/>
<path d="M16.0002 13.1475C15.976 11.4541 14.4701 10.2333 12.995 10.3849L11.0294 8.35547L10.4283 8.95662C10.6963 9.51575 10.5638 10.1549 10.1531 10.5634L9.04883 11.6601L10.3812 13.0738C10.325 13.761 10.6059 14.5981 11.228 15.2033C11.7572 15.7183 12.4516 16.0003 13.1868 16.0003C13.2005 16.0003 13.2143 15.9998 13.228 15.9998C14.7785 15.9778 16.0222 14.6984 16.0002 13.1475ZM13.1159 14.1981C12.599 14.1981 12.1784 13.7774 12.1784 13.2606C12.1784 12.7438 12.599 12.3231 13.1159 12.3231C13.6327 12.3231 14.0534 12.7438 14.0534 13.2606C14.0534 13.7774 13.6327 14.1981 13.1159 14.1981Z" fill="#6B5E7A"/>
<path d="M7.3804 4.66382C7.42618 4.48116 7.45868 4.29485 7.47652 4.10672C7.5864 2.96507 7.17943 1.8536 6.36049 1.05757C5.32824 0.0537229 3.78787 -0.268558 2.43884 0.233598C2.11374 0.355129 2.03134 0.772723 2.27543 1.00904L4.22002 2.89913L4.01493 4.00691L2.91309 4.24404L0.968961 2.3535C0.72668 2.117 0.310899 2.20832 0.198555 2.53844C-0.26607 3.90257 0.100586 5.43197 1.1324 6.43494C1.88559 7.16763 2.90984 7.5306 3.93218 7.48172C3.99843 7.34754 4.07877 7.21919 4.18706 7.10966L5.51046 5.77757C5.9244 5.36185 6.56977 5.23669 7.11859 5.50107L7.67218 4.94747L7.3804 4.66382Z" fill="#F1D15B"/>
</g>
<defs>
<clipPath id="clip0_1721_1877">
<rect width="16" height="16" fill="white"/>
</clipPath>
</defs>
</svg>
