<svg width="16" height="16" viewBox="0 0 16 16" fill="none" xmlns="http://www.w3.org/2000/svg">
<g clip-path="url(#clip0_1721_1427)">
<path d="M0.8125 0V3.41725H15.1875V0H0.8125ZM7.13181 2.17744H2.67797V1.23981H7.13178V2.17744H7.13181ZM13.3193 2.17744H8.86547V1.23981H13.3193L13.3193 2.17744Z" fill="#6B5E7A"/>
<path d="M4.5625 10.3906H11.4375V11.328H4.5625V10.3906Z" fill="#6B5E7A"/>
<path d="M4.5625 6.67188H11.4375V7.578H4.5625V6.67188Z" fill="#6B5E7A"/>
<path d="M4.5625 8.51562H11.4375V9.45303H4.5625V8.51562Z" fill="#6B5E7A"/>
<path d="M4.5625 12.2656H11.4375V13.203H4.5625V12.2656Z" fill="#6B5E7A"/>
<path d="M14.3281 4.35547H1.67188V15.063H0.8125V16.0006H3.625V5.73428H12.375V16.0006H15.1875V15.063H14.3281V4.35547Z" fill="#F1D15B"/>
<path d="M4.5625 14.1406H11.4375V16.0007H4.5625V14.1406Z" fill="#6B5E7A"/>
</g>
<defs>
<clipPath id="clip0_1721_1427">
<rect width="16" height="16" fill="white"/>
</clipPath>
</defs>
</svg>
