<svg width="16" height="16" viewBox="0 0 16 16" fill="none" xmlns="http://www.w3.org/2000/svg">
<g clip-path="url(#clip0_1721_1437)">
<path d="M0.966553 5.38846C1.40149 5.80448 1.94373 6.07657 2.51831 6.1901L3.46924 5.23917C3.88232 4.82609 4.4314 4.59867 5.0155 4.59867C5.14587 4.59867 5.27527 4.61027 5.40247 4.63309L6.16211 3.87345C6.41943 2.82157 6.11438 1.69474 5.33716 0.917518C4.43628 0.0166389 3.09448 -0.247643 1.91882 0.2443L1.91638 0.245399C1.7998 0.294593 1.77014 0.446082 1.85962 0.535438L3.71082 2.38663C3.83276 2.5087 3.83276 2.70646 3.71082 2.82853L2.82715 3.71207C2.7052 3.83414 2.50732 3.83414 2.38538 3.71207L0.536255 1.86307C0.445801 1.77262 0.29248 1.80253 0.242676 1.92045C0.081543 2.30546 0 2.71427 0 3.12638C0 3.33109 0.0201416 3.53678 0.0606689 3.74064C0.186157 4.37174 0.49939 4.94156 0.966553 5.38846Z" fill="#F2727F"/>
<path d="M15.9369 12.2598C15.8115 11.6287 15.4983 11.0589 15.031 10.612C14.4402 10.0469 13.6517 9.74685 12.8527 9.75002C12.8309 10.1991 12.649 10.6417 12.3068 10.984L9.80664 13.4842C9.92529 14.0785 10.2156 14.6381 10.6604 15.0829C11.5613 15.9838 12.9031 16.2481 14.0787 15.7561C14.1965 15.7064 14.2264 15.5534 14.1361 15.463L12.2869 13.6137C12.1648 13.4917 12.1648 13.2938 12.2869 13.1719L13.1704 12.2882C13.2925 12.1663 13.4902 12.1663 13.6123 12.2882L15.4613 14.1374C15.5518 14.2278 15.7051 14.1979 15.7549 14.08C15.9961 13.5037 16.059 12.8743 15.9369 12.2598Z" fill="#F2727F"/>
<path d="M10.3193 11.6465L11.6448 10.3211C12.0107 9.95511 12.0107 9.3616 11.6448 8.99564C11.2788 8.62955 10.6854 8.62955 10.3193 8.99551L10.9821 8.33292C11.348 7.96683 11.348 7.37344 10.9821 7.00748C10.616 6.64139 10.0226 6.64139 9.65661 7.00748C10.0226 6.64139 10.0226 6.048 9.65661 5.68192C9.29065 5.31595 8.69714 5.31595 8.33117 5.68192C8.69714 5.31595 8.69714 4.72256 8.33117 4.3566C7.96509 3.99051 7.3717 3.99051 7.00574 4.3566L6.31885 5.04337L8.96985 7.69424C9.05774 7.78213 9.10705 7.90127 9.10705 8.02554C9.10705 8.14981 9.05774 8.26907 8.96985 8.35696L8.44165 8.88516C7.96484 9.36197 7.30798 9.55167 6.68799 9.45425C6.74573 10.1203 6.52026 10.8065 6.0116 11.3151C5.92004 11.4066 5.80017 11.4524 5.68017 11.4524C5.5603 11.4524 5.44031 11.4066 5.34888 11.3151C5.16589 11.1321 5.16589 10.8355 5.34888 10.6524C5.89612 10.1051 5.89697 9.21512 5.35144 8.66678L5.14905 8.46451C4.96606 8.2814 4.96606 7.98477 5.14905 7.80179C5.33215 7.6188 5.62878 7.6188 5.81177 7.80179L6.0116 8.00149C6.01282 8.00272 6.01392 8.00381 6.01514 8.00503L6.23254 8.22244C6.65881 8.64871 7.35254 8.64871 7.77893 8.22244L7.97571 8.02554L5.65613 5.70596L5.65259 5.70963C5.17322 5.42581 4.54504 5.4899 4.13293 5.90201L2.58203 7.45291C1.82788 8.20718 1.59167 9.28323 1.87366 10.239L0.00195312 12.1107V15.998H3.88196L5.755 14.1249C6.7124 14.4097 7.79162 14.1743 8.54748 13.4184L10.3191 11.6469C10.3191 11.6468 10.3192 11.6466 10.3193 11.6465Z" fill="#FFB6A3"/>
</g>
<defs>
<clipPath id="clip0_1721_1437">
<rect width="16" height="16" fill="white"/>
</clipPath>
</defs>
</svg>
