<svg width="16" height="16" viewBox="0 0 16 16" fill="none" xmlns="http://www.w3.org/2000/svg">
<path fill-rule="evenodd" clip-rule="evenodd" d="M1.59688 2.12775C3.34828 1.92497 4.87525 1.14631 6.04353 0.3125H9.95762C11.1259 1.14631 12.6529 1.92497 14.4043 2.12775C14.5627 2.14609 14.6809 2.27866 14.6809 2.43813V7.99137C14.6809 11.7574 10.8576 14.922 8.00059 15.6875C5.14362 14.922 1.32031 11.7574 1.32031 7.99141V2.43813C1.32031 2.27866 1.43844 2.14609 1.59688 2.12775ZM2.25778 2.97706V7.99141C2.25778 8.41706 2.31694 8.83897 2.42662 9.25C3.07219 11.6692 5.62116 13.9697 8.00025 14.7115C9.48975 14.2448 10.996 13.1627 12.008 12.0218C12.9943 10.9097 13.7434 9.50947 13.7434 7.99141V2.97706C12.2772 2.71253 10.8972 2.08769 9.66353 1.25H6.33766C5.10397 2.08769 3.724 2.71253 2.25778 2.97706ZM2.88278 3.48497V7.99141C2.88278 8.36228 2.93494 8.73075 3.0305 9.08887C3.60684 11.2488 5.89334 13.32 7.99969 14.0533C9.31009 13.5942 10.6361 12.6266 11.5404 11.607C12.4219 10.6132 13.1184 9.35072 13.1184 7.99141V3.48497C11.8178 3.17731 10.59 2.60947 9.47387 1.875H6.52731C5.41122 2.60947 4.18331 3.17731 2.88278 3.48497ZM9.00169 4.44791H6.99953C6.91347 4.44791 6.84328 4.51809 6.84328 4.60416V6.1885H5.25894C5.17287 6.1885 5.10269 6.25869 5.10269 6.34475V8.34688C5.10269 8.43294 5.17287 8.50313 5.25894 8.50313H6.84328V10.0875C6.84328 10.1735 6.91347 10.2437 6.99953 10.2437H9.00169C9.08775 10.2437 9.15794 10.1735 9.15794 10.0875V8.50313H10.7422C10.8283 8.50313 10.8985 8.43294 10.8985 8.34688V6.34475C10.8985 6.25869 10.8283 6.1885 10.7422 6.1885H9.15794V4.60416C9.15791 4.51809 9.08775 4.44791 9.00169 4.44791Z" fill="#C06A87"/>
</svg>
