<svg width="16" height="16" viewBox="0 0 16 16" fill="none" xmlns="http://www.w3.org/2000/svg">
<g clip-path="url(#clip0_1721_1445)">
<path d="M5.64453 5.64816H10.3553V2.82031H5.64453V5.64816ZM7.05863 3.76553H8.94125C9.20038 3.76553 9.41013 3.97559 9.41013 4.23441C9.41013 4.49322 9.20038 4.70328 8.94125 4.70328H7.05863C6.7995 4.70328 6.58975 4.49325 6.58975 4.23441C6.58975 3.97559 6.7995 3.76553 7.05863 3.76553Z" fill="#EA4B62"/>
<path d="M7.52734 8.94103C7.52734 9.20425 7.74169 9.41397 7.99997 9.41397C8.25959 9.41397 8.47228 9.20263 8.47228 8.94103C8.47197 8.68034 8.26034 8.46875 7.99997 8.46875C7.73928 8.46872 7.52766 8.68034 7.52734 8.94103Z" fill="#C06A87"/>
<path d="M8.00012 7.53113C8.61309 7.53113 9.13634 7.92466 9.32981 8.47228H13.1757V2.34431C13.1757 1.0515 12.1242 0 10.8314 0H5.16853C3.87572 0 2.82422 1.0515 2.82422 2.34431V8.47231H6.67013C6.86359 7.92466 7.38684 7.53113 8.00012 7.53113ZM4.70684 6.11703V2.3515C4.70684 2.09269 4.91691 1.88262 5.17572 1.88262H10.8242C11.083 1.88262 11.2931 2.09266 11.2931 2.3515V6.11706C11.2931 6.37619 11.083 6.58594 10.8242 6.58594H5.17572C4.91691 6.58591 4.70684 6.37616 4.70684 6.11703Z" fill="#EA4B62"/>
<path d="M15.5311 15.0624H10.3518V14.1174H10.824C11.083 14.1174 11.2929 13.9075 11.2929 13.6485V12.1887C12.3653 11.9737 13.1756 11.0251 13.1756 9.89025V9.41016H9.33C9.13653 9.95809 8.61328 10.3519 8 10.3519C7.38641 10.3519 6.86316 9.95809 6.66969 9.41016H2.82409V9.89025C2.82409 11.0251 3.63437 11.9737 4.70681 12.1887V13.6485C4.70681 13.9075 4.91672 14.1174 5.17569 14.1174H5.64822V15.0624H0.468875C0.209906 15.0624 0 15.2723 0 15.5313C0 15.7903 0.209906 16.0002 0.468875 16.0002H6.11706C6.376 16.0002 6.58594 15.7903 6.58594 15.5313V14.1174H7.05847C7.31741 14.1174 7.52734 13.9075 7.52734 13.6485V12.2345H8.47241V13.6485C8.47241 13.9074 8.68231 14.1174 8.94128 14.1174H9.41413V15.5313C9.41413 15.7902 9.62403 16.0002 9.883 16.0002H15.5312C15.7901 16.0002 16.0001 15.7903 16.0001 15.5313C16 15.2723 15.7901 15.0624 15.5311 15.0624Z" fill="#C06A87"/>
</g>
<defs>
<clipPath id="clip0_1721_1445">
<rect width="16" height="16" fill="white"/>
</clipPath>
</defs>
</svg>
