<svg width="17" height="17" viewBox="0 0 17 17" fill="none" xmlns="http://www.w3.org/2000/svg">
<path d="M16.0211 8.35095C16.0211 8.51423 15.9562 8.67081 15.8408 8.78627C15.7253 8.90172 15.5687 8.96658 15.4055 8.96658H14.4308L15.0221 9.55704C15.0792 9.61415 15.1245 9.68196 15.1554 9.75659C15.1863 9.83121 15.2023 9.91119 15.2023 9.99196C15.2023 10.0727 15.1863 10.1527 15.1554 10.2273C15.1245 10.302 15.0792 10.3698 15.0221 10.4269C14.965 10.484 14.8972 10.5293 14.8226 10.5602C14.7479 10.5911 14.668 10.607 14.5872 10.607C14.5064 10.607 14.4264 10.5911 14.3518 10.5602C14.2772 10.5293 14.2094 10.484 14.1523 10.4269L12.6903 8.96496H9.0956L12.0195 11.8888H14.071C14.2343 11.8888 14.3909 11.9537 14.5064 12.0691C14.6218 12.1846 14.6867 12.3412 14.6867 12.5045C14.6867 12.6677 14.6218 12.8243 14.5064 12.9398C14.3909 13.0552 14.2343 13.1201 14.071 13.1201H13.2475L13.937 13.8088C13.9948 13.8656 14.0409 13.9332 14.0727 14.0078C14.1201 14.1203 14.1325 14.2445 14.1083 14.3642C14.0841 14.4838 14.0244 14.5934 13.937 14.6787C13.8806 14.7367 13.8129 14.7826 13.738 14.8135C13.6255 14.8601 13.5016 14.8722 13.3821 14.8482C13.2626 14.8242 13.153 14.7652 13.0672 14.6787L12.3784 13.9899V14.8102C12.3784 14.9735 12.3136 15.1301 12.1981 15.2456C12.0827 15.361 11.9261 15.4259 11.7628 15.4259C11.5995 15.4259 11.4429 15.361 11.3275 15.2456C11.212 15.1301 11.1472 14.9735 11.1472 14.8102V12.7408L8.63672 10.2303V6.2011L11.1472 3.69065V1.63907C11.1472 1.47579 11.212 1.31921 11.3275 1.20375C11.4429 1.0883 11.5995 1.02344 11.7628 1.02344C11.9261 1.02344 12.0827 1.0883 12.1981 1.20375C12.3136 1.31921 12.3784 1.47579 12.3784 1.63907V2.46019L13.0672 1.77064C13.1242 1.71212 13.1924 1.66571 13.2678 1.6342C13.4193 1.56986 13.5901 1.56811 13.7429 1.62933C13.8183 1.66033 13.8869 1.70555 13.9451 1.76252C14.0035 1.81937 14.0499 1.8873 14.0816 1.96232C14.1299 2.07534 14.1434 2.20017 14.1206 2.32092C14.0977 2.44168 14.0395 2.55292 13.9533 2.64049L13.2645 3.32922H14.0848C14.2481 3.32922 14.4047 3.39408 14.5202 3.50954C14.6356 3.62499 14.7005 3.78158 14.7005 3.94486C14.7005 4.10814 14.6356 4.26472 14.5202 4.38018C14.4047 4.49563 14.2481 4.56049 14.0848 4.56049H12.017L8.84139 7.71907H12.6895L14.1514 6.25714C14.2385 6.1762 14.3471 6.12219 14.4642 6.10164C14.5813 6.08109 14.7018 6.09489 14.8113 6.14135C14.9207 6.18782 15.0143 6.26497 15.0808 6.36348C15.1474 6.462 15.1839 6.57768 15.1862 6.69653C15.1891 6.85552 15.131 7.00958 15.0237 7.12699L14.4325 7.71745H15.4071V7.7345C15.4879 7.73429 15.568 7.75004 15.6427 7.78085C15.7175 7.81166 15.7854 7.85693 15.8426 7.91405C15.8998 7.97118 15.9451 8.03903 15.976 8.11373C16.007 8.18842 16.0228 8.26849 16.0227 8.34932L16.0211 8.35095Z" fill="#F0D15C"/>
<path d="M5.47933 15.4455L5.88542 14.7406V14.7649C5.92647 14.6953 5.95341 14.6183 5.96468 14.5383C5.97596 14.4584 5.97136 14.3769 5.95114 14.2987C5.93093 14.2205 5.8955 14.147 5.84687 14.0825C5.79825 14.018 5.73738 13.9637 5.66776 13.9227C5.59766 13.8825 5.52043 13.8563 5.44035 13.8455C5.31928 13.829 5.19602 13.8487 5.08616 13.9022C4.97629 13.9557 4.88475 14.0405 4.82309 14.146L4.417 14.8518C4.34175 14.9917 4.32366 15.1554 4.36652 15.3083C4.40938 15.4613 4.50986 15.5917 4.64684 15.6721C4.7395 15.724 4.84363 15.7519 4.94979 15.7533C5.05818 15.7523 5.16442 15.7229 5.258 15.6683C5.35158 15.6136 5.42927 15.5354 5.48339 15.4415L5.47933 15.4455Z" fill="#F0D15C"/>
<path d="M1.45779 12.0533L2.09779 11.6187C2.16255 11.5657 2.23744 11.5265 2.31789 11.5034C2.39706 11.481 2.47995 11.4749 2.56154 11.4855C2.64446 11.4965 2.7243 11.5241 2.79626 11.5668C2.86789 11.6099 2.93027 11.6667 2.97982 11.7341C3.06462 11.8638 3.09656 12.0211 3.06907 12.1736C3.04159 12.3262 2.95676 12.4624 2.832 12.5544L2.15951 13.0222C2.05799 13.0991 1.93357 13.1397 1.80621 13.1375C1.70754 13.1386 1.61014 13.1151 1.52276 13.0693C1.43528 13.0235 1.36071 12.9565 1.30591 12.8744C1.2211 12.7446 1.18916 12.5874 1.21665 12.4348C1.24414 12.2823 1.32897 12.146 1.45373 12.0541L1.45779 12.0533Z" fill="#F0D15C"/>
<path d="M5.19615 2.72488C5.1181 2.70399 5.04492 2.66792 4.98082 2.61872C4.91671 2.56953 4.86293 2.50818 4.82255 2.43818L4.41646 1.72427C4.33482 1.58286 4.3127 1.41481 4.35497 1.25709C4.39724 1.09937 4.50043 0.964896 4.64184 0.883258C4.78325 0.801619 4.95131 0.779499 5.10903 0.821766C5.26675 0.864034 5.40122 0.967225 5.48285 1.10864L5.88895 1.82255C5.94982 1.92802 5.97805 2.04917 5.97006 2.17068C5.96207 2.2922 5.91822 2.40862 5.84406 2.50521C5.7699 2.6018 5.66876 2.67423 5.55343 2.71333C5.4381 2.75243 5.31377 2.75645 5.19615 2.72488Z" fill="#F0D15C"/>
<path d="M2.45027 5.05653C2.32736 5.06457 2.20478 5.03633 2.09778 4.97531L1.45778 4.46607C1.33449 4.37488 1.25156 4.23925 1.22661 4.08794C1.20166 3.93663 1.23663 3.78155 1.32412 3.6556C1.41161 3.52965 1.54473 3.44274 1.69523 3.41331C1.84573 3.38388 2.00178 3.41424 2.13027 3.49795L2.80357 3.97389C2.92658 4.06718 3.01004 4.20328 3.03742 4.35522C3.0648 4.50715 3.03409 4.66383 2.95139 4.79419C2.89637 4.8763 2.82171 4.94337 2.73421 4.98933C2.6467 5.03528 2.5491 5.05865 2.45027 5.05734V5.05653Z" fill="#F0D15C"/>
<path d="M2.04713 8.09895C2.08034 8.17592 2.09774 8.25878 2.0983 8.3426H2.07393C2.07162 8.50508 2.00599 8.66025 1.89101 8.77508C1.77603 8.8899 1.62078 8.95533 1.4583 8.95742H0.637991C0.555318 8.96043 0.472887 8.94674 0.395622 8.91718C0.318357 8.88761 0.247842 8.84277 0.188292 8.78535C0.128741 8.72792 0.0813767 8.65909 0.0490252 8.58295C0.0166737 8.50681 0 8.42493 0 8.3422C0 8.25947 0.0166737 8.17759 0.0490252 8.10145C0.0813767 8.02531 0.128741 7.95647 0.188292 7.89904C0.247842 7.84162 0.318357 7.79678 0.395622 7.76722C0.472887 7.73765 0.555318 7.72396 0.637991 7.72697H1.4583C1.54145 7.72456 1.62426 7.73864 1.70195 7.76839C1.85711 7.82947 1.98179 7.94948 2.04875 8.1022L2.04713 8.09895Z" fill="#F0D15C"/>
<path d="M8.63735 0.951571V15.7203C8.63735 15.8836 8.57249 16.0402 8.45703 16.1556C8.34158 16.2711 8.18499 16.3359 8.02171 16.3359C7.85844 16.3359 7.70185 16.2711 7.58639 16.1556C7.47094 16.0402 7.40608 15.8836 7.40608 15.7203V13.8417C6.04896 13.6941 4.79418 13.0504 3.88258 12.0343C2.97098 11.0181 2.4668 9.70107 2.4668 8.33594C2.4668 6.97081 2.97098 5.65377 3.88258 4.63762C4.79418 3.62147 6.04896 2.9778 7.40608 2.83015V0.951571C7.40608 0.788294 7.47094 0.631706 7.58639 0.516252C7.70185 0.400798 7.85844 0.335938 8.02171 0.335938C8.18499 0.335938 8.34158 0.400798 8.45703 0.516252C8.57249 0.631706 8.63735 0.788294 8.63735 0.951571Z" fill="#EA4B62"/>
</svg>
