<svg width="16" height="16" viewBox="0 0 16 16" fill="none" xmlns="http://www.w3.org/2000/svg">
<g clip-path="url(#clip0_1721_1452)">
<path d="M3.97281 0.9375H12.0272L12.7091 3.1875H13.6875L12.8237 0.332813C12.7946 0.236524 12.7352 0.152179 12.6544 0.0922452C12.5736 0.0323112 12.4756 -3.08329e-05 12.375 2.20567e-08H3.625C3.52439 -3.08329e-05 3.42644 0.0323112 3.34562 0.0922452C3.26481 0.152179 3.20543 0.236524 3.17625 0.332813L2.3125 3.1875H3.29219L3.97281 0.9375Z" fill="#F2727F"/>
<path d="M15.5312 4.125H0.46875C0.34443 4.125 0.225201 4.17439 0.137294 4.26229C0.049386 4.3502 0 4.46943 0 4.59375L0 6.625H16V4.59375C16 4.46943 15.9506 4.3502 15.8627 4.26229C15.7748 4.17439 15.6556 4.125 15.5312 4.125Z" fill="#9BB997"/>
<path d="M8 13.9688C8.46355 13.9688 8.91669 13.8313 9.30212 13.5738C9.68754 13.3162 9.98795 12.9502 10.1653 12.5219C10.3427 12.0937 10.3891 11.6224 10.2987 11.1678C10.2083 10.7131 9.98506 10.2955 9.65728 9.96772C9.3295 9.63994 8.91189 9.41672 8.45724 9.32629C8.0026 9.23585 7.53135 9.28227 7.10309 9.45966C6.67482 9.63705 6.30878 9.93746 6.05124 10.3229C5.79371 10.7083 5.65625 11.1615 5.65625 11.625C5.65691 12.2464 5.90405 12.8422 6.34345 13.2816C6.78284 13.7209 7.3786 13.9681 8 13.9688ZM7.0625 11.1563H8.9375C9.06182 11.1563 9.18105 11.2056 9.26896 11.2935C9.35686 11.3815 9.40625 11.5007 9.40625 11.625C9.40625 11.7493 9.35686 11.8685 9.26896 11.9565C9.18105 12.0444 9.06182 12.0938 8.9375 12.0938H7.0625C6.93818 12.0938 6.81895 12.0444 6.73104 11.9565C6.64314 11.8685 6.59375 11.7493 6.59375 11.625C6.59375 11.5007 6.64314 11.3815 6.73104 11.2935C6.81895 11.2056 6.93818 11.1563 7.0625 11.1563Z" fill="#9BB997"/>
<path d="M2.50844 15.6166C2.52837 15.7243 2.58539 15.8216 2.66958 15.8916C2.75378 15.9617 2.85985 16 2.96938 16H13.0319C13.1414 16 13.2475 15.9617 13.3317 15.8916C13.4159 15.8216 13.4729 15.7243 13.4928 15.6166L14.9844 7.5625H1.01562L2.50844 15.6166ZM8.00063 8.34375C8.6496 8.34375 9.28399 8.53619 9.82359 8.89674C10.3632 9.25729 10.7838 9.76975 11.0321 10.3693C11.2805 10.9689 11.3454 11.6286 11.2188 12.2651C11.0922 12.9016 10.7797 13.4863 10.3208 13.9452C9.86193 14.4041 9.27727 14.7166 8.64077 14.8432C8.00427 14.9698 7.34451 14.9048 6.74495 14.6565C6.14538 14.4081 5.63291 13.9876 5.27237 13.448C4.91182 12.9084 4.71938 12.274 4.71938 11.625C4.72037 10.7551 5.06639 9.92104 5.68153 9.3059C6.29667 8.69076 7.13069 8.34474 8.00063 8.34375Z" fill="#F2727F"/>
</g>
<defs>
<clipPath id="clip0_1721_1452">
<rect width="16" height="16" fill="white"/>
</clipPath>
</defs>
</svg>
