<svg width="16" height="16" viewBox="0 0 16 16" fill="none" xmlns="http://www.w3.org/2000/svg">
<g clip-path="url(#clip0_1721_1915)">
<path d="M7.72461 9.12512L9.87695 7.10228L11.158 8.46338L11.841 7.82069L11.1986 7.13816L15.2939 3.28288L13.3663 1.23438L9.27077 5.08994L8.62845 4.40759L7.94548 5.05028L9.23167 6.41675L6.55273 8.93762H7.03086C7.28402 8.93762 7.52777 9.00325 7.72461 9.12512Z" fill="#6B5E7A"/>
<path d="M16 10.8125H10.3125V9.875H9.375V11.75H8.4375V12.6875H9.375V14.5625H10.3125V13.625H16V10.8125Z" fill="#6B5E7A"/>
<path d="M4.21875 12.6875C4.47763 12.6875 4.6875 12.4776 4.6875 12.2188C4.6875 11.9599 4.47763 11.75 4.21875 11.75C3.95987 11.75 3.75 11.9599 3.75 12.2188C3.75 12.4776 3.95987 12.6875 4.21875 12.6875Z" fill="#315D80"/>
<path d="M4.21875 13.625C3.44331 13.625 2.8125 12.9942 2.8125 12.2188C2.8125 11.4433 3.44331 10.8125 4.21875 10.8125C4.32363 10.8125 4.42503 10.8259 4.52341 10.8478L6.55312 8.9375H2.34375V3.3125C2.34375 2.27841 3.18466 1.4375 4.21875 1.4375C5.25284 1.4375 6.09375 2.27841 6.09375 3.3125V6.125H7.03125V3.3125C7.03125 1.76159 5.76966 0.5 4.21875 0.5C2.66784 0.5 1.40625 1.76159 1.40625 3.3125V8.9375C0.628094 8.9375 0 9.56559 0 10.3438V14.0938C0 14.8718 0.628094 15.5 1.40625 15.5H7.03125C7.80941 15.5 8.4375 14.8718 8.4375 14.0938V12.6875H5.53866C5.3445 13.2319 4.82906 13.625 4.21875 13.625Z" fill="#315D80"/>
<path d="M5.53945 11.75H8.4383V10.3438C8.4383 9.81875 8.15705 9.36872 7.7258 9.125L5.33398 11.3708C5.42117 11.4852 5.49023 11.6121 5.53945 11.75Z" fill="#315D80"/>
</g>
<defs>
<clipPath id="clip0_1721_1915">
<rect width="16" height="16" fill="white"/>
</clipPath>
</defs>
</svg>
