<svg width="16" height="16" viewBox="0 0 16 16" fill="none" xmlns="http://www.w3.org/2000/svg">
<g clip-path="url(#clip0_1721_1458)">
<path d="M15.0633 7.53125H14.4205C14.3617 6.76184 14.1591 6.03209 13.84 5.3685L14.5329 4.96844C14.7571 4.839 14.8339 4.55231 14.7045 4.32812C14.575 4.10387 14.2884 4.02706 14.0642 4.15656L13.3699 4.55737C13.1453 4.23041 12.8897 3.92625 12.6072 3.64941L13.1229 3.03475C13.2893 2.83644 13.2634 2.54075 13.0651 2.37434C12.8668 2.208 12.5711 2.23378 12.4047 2.43216L11.8893 3.04638C11.5688 2.81641 11.2255 2.61653 10.863 2.45134L11.1365 1.69991C11.225 1.45666 11.0996 1.18766 10.8563 1.09909C10.613 1.01056 10.344 1.136 10.2555 1.37928L9.98219 2.13009C9.60585 2.02497 9.215 1.955 8.81331 1.92431V1.125C8.81331 0.866125 8.60344 0.65625 8.34456 0.65625C8.08569 0.65625 7.87581 0.866125 7.87581 1.125V1.92409C7.4741 1.95478 7.08325 2.02491 6.70691 2.13003L6.43366 1.37928C6.34513 1.13603 6.07613 1.01059 5.83285 1.09913C5.58956 1.18769 5.46416 1.45666 5.55269 1.69997L5.82619 2.45144C5.46372 2.61662 5.12022 2.81634 4.79978 3.04628L4.2845 2.43219C4.1181 2.23384 3.82241 2.208 3.62413 2.37441C3.42581 2.54078 3.39994 2.83647 3.56635 3.03478L4.08222 3.64959C3.79972 3.92644 3.54397 4.23041 3.31925 4.55741L2.62506 4.15656C2.40088 4.02703 2.11419 4.10387 1.98475 4.32812C1.85531 4.55231 1.93213 4.83903 2.15631 4.96844L2.84897 5.36834C2.46575 6.16541 2.25085 7.05806 2.25085 8C2.25085 8.43072 2.30481 8.884 2.41685 9.40625H15.0633C15.5811 9.40625 16.0008 8.98653 16.0008 8.46875C16.0008 7.95097 15.5811 7.53125 15.0633 7.53125ZM4.9071 6.59375C4.64822 6.59375 4.43835 6.38387 4.43835 6.125C4.43835 5.86613 4.64822 5.65625 4.9071 5.65625C5.16597 5.65625 5.37585 5.86613 5.37585 6.125C5.37585 6.38387 5.16597 6.59375 4.9071 6.59375ZM6.7821 7.53125C6.52322 7.53125 6.31335 7.32137 6.31335 7.0625C6.31335 6.80363 6.52322 6.59375 6.7821 6.59375C7.04097 6.59375 7.25085 6.80363 7.25085 7.0625C7.25085 7.32137 7.04097 7.53125 6.7821 7.53125ZM6.7821 5.65625C6.52322 5.65625 6.31335 5.44637 6.31335 5.1875C6.31335 4.92863 6.52322 4.71875 6.7821 4.71875C7.04097 4.71875 7.25085 4.92863 7.25085 5.1875C7.25085 5.44637 7.04097 5.65625 6.7821 5.65625ZM8.6571 6.59375C8.39822 6.59375 8.18835 6.38387 8.18835 6.125C8.18835 5.86613 8.39822 5.65625 8.6571 5.65625C8.91597 5.65625 9.12585 5.86613 9.12585 6.125C9.12585 6.38387 8.91597 6.59375 8.6571 6.59375ZM8.6571 4.71875C8.39822 4.71875 8.18835 4.50887 8.18835 4.25C8.18835 3.99113 8.39822 3.78125 8.6571 3.78125C8.91597 3.78125 9.12585 3.99113 9.12585 4.25C9.12585 4.50887 8.91597 4.71875 8.6571 4.71875ZM11.7821 7.53125C11.5232 7.53125 11.3133 7.32137 11.3133 7.0625C11.3133 6.80363 11.5232 6.59375 11.7821 6.59375C12.041 6.59375 12.2508 6.80363 12.2508 7.0625C12.2508 7.32137 12.041 7.53125 11.7821 7.53125Z" fill="#EA4B62"/>
<path d="M1.73187 5.60758L1.30338 5.39333C1.08694 5.28502 0.823625 5.35946 0.69575 5.56496C0.378344 6.07508 0 6.91168 0 8.00008C0 8.6009 0.120719 9.51105 0.69575 10.4352C0.784 10.5771 0.936687 10.6564 1.09406 10.6564C1.16472 10.6564 1.23631 10.6404 1.30341 10.6068L1.73191 10.3926C1.46069 9.64543 1.3125 8.83977 1.3125 8.00008C1.3125 7.1604 1.46069 6.35474 1.73187 5.60758Z" fill="#F1D15B"/>
<path d="M14.5329 11.0316L13.8397 10.6313C13.8851 10.5368 13.9283 10.4409 13.969 10.3438H9.95738C9.64744 11.467 8.68613 12.336 7.48213 12.4865L7.15272 12.5276C7.13335 12.5301 7.11391 12.5312 7.0946 12.5312C6.981 12.5312 6.87053 12.49 6.78438 12.4139C6.6836 12.3249 6.62585 12.197 6.62585 12.0625V10.3438H2.72019C2.76085 10.4409 2.80403 10.5367 2.8495 10.6313L2.15631 11.0316C1.93213 11.161 1.85531 11.4477 1.98475 11.6719C2.07156 11.8223 2.22913 11.9063 2.39113 11.9063C2.47063 11.9063 2.55125 11.8861 2.62506 11.8434L3.3196 11.4424C3.54425 11.7694 3.79981 12.0736 4.08225 12.3504L3.56635 12.9652C3.39994 13.1635 3.42581 13.4592 3.62413 13.6256C3.71194 13.6993 3.81885 13.7353 3.92519 13.7353C4.05897 13.7353 4.19181 13.6783 4.28453 13.5678L4.8 12.9535C5.12041 13.1835 5.46388 13.3832 5.82631 13.5484L5.55275 14.3C5.46422 14.5433 5.58963 14.8123 5.83291 14.9009C5.88585 14.9201 5.93994 14.9292 5.99319 14.9292C6.18463 14.9292 6.36441 14.811 6.43369 14.6207L6.70694 13.87C7.08328 13.9751 7.47413 14.0452 7.87585 14.0759V14.875C7.87585 15.1339 8.08572 15.3438 8.3446 15.3438C8.60347 15.3438 8.81335 15.1339 8.81335 14.875V14.0759C9.21506 14.0452 9.60591 13.9751 9.98225 13.87L10.2555 14.6207C10.3248 14.8111 10.5045 14.9292 10.696 14.9292C10.7493 14.9292 10.8034 14.9201 10.8563 14.9009C11.0996 14.8123 11.225 14.5433 11.1365 14.3001L10.8629 13.5484C11.2254 13.3832 11.5688 13.1835 11.8893 12.9535L12.4047 13.5678C12.4974 13.6783 12.6303 13.7353 12.764 13.7353C12.8703 13.7353 12.9773 13.6993 13.0651 13.6256C13.2634 13.4592 13.2893 13.1635 13.1229 12.9652L12.607 12.3504C12.8894 12.0735 13.145 11.7694 13.3697 11.4424L14.0642 11.8434C14.138 11.886 14.2186 11.9063 14.2981 11.9063C14.4601 11.9063 14.6177 11.8222 14.7045 11.6718C14.8339 11.4477 14.7571 11.161 14.5329 11.0316Z" fill="#F1D15B"/>
<path d="M7.5625 10.3438V11.5215C8.20191 11.3758 8.71847 10.9277 8.96606 10.3438H7.5625Z" fill="#F1D15B"/>
</g>
<defs>
<clipPath id="clip0_1721_1458">
<rect width="16" height="16" fill="white"/>
</clipPath>
</defs>
</svg>
