<svg width="16" height="16" viewBox="0 0 16 16" fill="none" xmlns="http://www.w3.org/2000/svg">
<g clip-path="url(#clip0_1647_6382)">
<path fill-rule="evenodd" clip-rule="evenodd" d="M15.2803 12.9049L11.9459 10.5742L10.5801 11.9449L12.9115 15.2729C13.1669 15.6216 13.5454 15.86 13.9702 15.9399C14.395 16.0197 14.8343 15.935 15.199 15.7029C15.5636 15.4708 15.8261 15.1086 15.9334 14.69C16.0407 14.2714 15.9846 13.8277 15.7765 13.4489C15.6524 13.2368 15.483 13.0547 15.2803 12.9156V12.9049Z" fill="#315D80"/>
<path fill-rule="evenodd" clip-rule="evenodd" d="M14.0573 7.94259L7.9433 14.0546C7.73431 14.2627 7.45135 14.3796 7.15636 14.3796C6.86138 14.3796 6.57843 14.2627 6.36945 14.0546L5.83594 13.5213L13.5185 5.83594L14.052 6.36927C14.2582 6.57844 14.3749 6.8596 14.3774 7.15327C14.3765 7.29964 14.3475 7.44446 14.2921 7.57993C14.2352 7.71339 14.1558 7.83607 14.0573 7.94259Z" fill="#315D80"/>
<path fill-rule="evenodd" clip-rule="evenodd" d="M3.47225 4.21333L2.67732 5.01867L6.20916 7.63734L3.47225 4.21333ZM14.9747 14.9707C14.842 15.0995 14.6756 15.1883 14.4946 15.2267C14.3121 15.2632 14.1229 15.2446 13.9509 15.1734C13.779 15.1022 13.6321 14.9815 13.5289 14.8267C13.4244 14.6687 13.3705 14.4827 13.3742 14.2933C13.3718 14.1042 13.4256 13.9185 13.5289 13.76C13.6328 13.6072 13.7794 13.4885 13.9504 13.4187C14.1222 13.348 14.311 13.3295 14.4932 13.3656C14.6754 13.4016 14.8429 13.4906 14.9747 13.6213C15.0619 13.7081 15.1309 13.8115 15.1775 13.9253C15.27 14.1546 15.27 14.4108 15.1775 14.64C15.1326 14.7626 15.0637 14.875 14.9747 14.9707ZM2.88006 1.984C2.87782 1.90226 2.8577 1.82201 2.82112 1.74888C2.78454 1.67574 2.73239 1.61149 2.66832 1.56066C2.60425 1.50983 2.52983 1.47364 2.45028 1.45464C2.37072 1.43563 2.28796 1.43428 2.20783 1.45067C2.10036 1.47731 2.0013 1.53049 1.91973 1.60534C1.84431 1.68572 1.79261 1.78539 1.77035 1.89333C1.74885 2.00177 1.75964 2.11413 1.80136 2.2165C1.84308 2.31888 1.91391 2.40679 2.00509 2.46934C2.09727 2.53369 2.20744 2.56729 2.31986 2.56533C2.468 2.56394 2.60969 2.50449 2.71444 2.39977C2.8192 2.29505 2.87867 2.15343 2.88006 2.00534V1.984ZM7.68166 0L13.2462 5.56266L5.55828 13.248L0.00976562 7.68534L0.479258 7.21066L3.7977 9.344C3.82767 9.36425 3.86289 9.37537 3.89907 9.37599C3.93239 9.38393 3.96711 9.38393 4.00043 9.37599C4.03003 9.35802 4.05403 9.33217 4.06978 9.30134C4.07771 9.26802 4.07771 9.23331 4.06978 9.2C4.06443 9.16568 4.0517 9.13293 4.03244 9.104L1.77569 5.904L2.3839 5.296L7.10546 8.79466C7.13827 8.81795 7.17728 8.83095 7.21751 8.832C7.24215 8.83703 7.26755 8.83703 7.29219 8.832C7.31496 8.82281 7.33513 8.80817 7.35088 8.78934C7.3813 8.7573 7.40008 8.71598 7.40422 8.67201C7.40646 8.62551 7.39124 8.57985 7.36155 8.54399L3.74434 3.94133L7.68166 0ZM15.4336 1.41867C15.4332 1.27037 15.3886 1.12555 15.3055 1.00267C15.222 0.881159 15.1048 0.786657 14.9684 0.730762C14.8319 0.674866 14.6821 0.660009 14.5373 0.688005C14.3918 0.715465 14.258 0.78613 14.1533 0.890788C14.0486 0.995445 13.9779 1.12922 13.9504 1.27466C13.9188 1.41956 13.9337 1.57076 13.9931 1.70667C14.0501 1.84375 14.1467 1.96072 14.2705 2.04266C14.3929 2.12691 14.5381 2.1716 14.6867 2.17067C14.7856 2.17109 14.8837 2.15199 14.9752 2.11447C15.0667 2.07695 15.15 2.02173 15.2202 1.952C15.3601 1.80967 15.4386 1.61821 15.4389 1.41867H15.4336ZM1.51959 6.14933L3.17882 8.48534L0.740673 6.92267L1.51959 6.14933ZM3.44558 13.7707C3.43314 13.5239 3.35182 13.2856 3.21083 13.0827C3.06768 12.8676 2.86324 12.7003 2.62397 12.6027C2.38493 12.5012 2.12063 12.4752 1.86639 12.528C1.61169 12.5775 1.37758 12.7019 1.19411 12.8853C1.01064 13.0687 0.886173 13.3027 0.836701 13.5573C0.783532 13.8115 0.809608 14.0758 0.911401 14.3147C1.00911 14.5539 1.17637 14.7582 1.39156 14.9013C1.58748 15.0327 1.81521 15.1089 2.05078 15.1218C2.28635 15.1347 2.52104 15.0839 2.73017 14.9747C2.9393 14.8656 3.11513 14.7021 3.23915 14.5014C3.36316 14.3008 3.43079 14.0705 3.43491 13.8347L3.44558 13.7707Z" fill="#C06A87"/>
<path d="M14.4956 15.2163C14.644 15.1892 14.7837 15.1266 14.9027 15.0337C15.0216 14.9408 15.1162 14.8205 15.1785 14.683C15.271 14.4538 15.271 14.1976 15.1785 13.9683C15.1318 13.8545 15.0629 13.7511 14.9757 13.6643C14.8438 13.5336 14.6763 13.4446 14.4941 13.4086C14.3119 13.3725 14.1231 13.391 13.9514 13.4617C13.7804 13.5315 13.6337 13.6503 13.5299 13.803C13.4266 13.9615 13.3728 14.1472 13.3752 14.3363C13.3714 14.5257 13.4254 14.7117 13.5299 14.8697C13.6331 15.0245 13.78 15.1452 13.9519 15.2164C14.1238 15.2876 14.3131 15.3062 14.4956 15.2697V15.2163Z" fill="#C06A87"/>
<path d="M15.3122 1.00423C15.3953 1.12711 15.4399 1.27193 15.4403 1.42023C15.4399 1.61976 15.3614 1.81123 15.2215 1.95356C15.1513 2.02329 15.0681 2.07851 14.9765 2.11603C14.885 2.15355 14.787 2.17265 14.688 2.17223C14.5395 2.17315 14.3942 2.12846 14.2719 2.04422C14.148 1.96228 14.0514 1.84531 13.9944 1.70823C13.935 1.57232 13.9201 1.42112 13.9518 1.27622C13.9792 1.13078 14.0499 0.997003 14.1546 0.892346C14.2593 0.787688 14.3931 0.717023 14.5386 0.689562C14.6834 0.661566 14.8332 0.676424 14.9697 0.73232C15.1062 0.788215 15.2234 0.882717 15.3069 1.00423H15.3122Z" fill="#C06A87"/>
<path d="M15.3122 1.00423C15.3953 1.12711 15.4399 1.27193 15.4403 1.42023C15.4399 1.61976 15.3614 1.81123 15.2215 1.95356C15.1513 2.02329 15.0681 2.07851 14.9765 2.11603C14.885 2.15355 14.787 2.17265 14.688 2.17223C14.5395 2.17315 14.3942 2.12846 14.2719 2.04422C14.148 1.96228 14.0514 1.84531 13.9944 1.70823C13.935 1.57232 13.9201 1.42112 13.9518 1.27622C13.9792 1.13078 14.0499 0.997003 14.1546 0.892346C14.2593 0.787688 14.3931 0.717023 14.5386 0.689562C14.6834 0.661566 14.8332 0.676424 14.9697 0.73232C15.1062 0.788215 15.2234 0.882717 15.3069 1.00423H15.3122Z" fill="#315D80"/>
<path d="M3.21157 13.0813C3.37909 13.3336 3.45414 13.6361 3.42398 13.9375C3.39382 14.2388 3.26031 14.5204 3.0461 14.7346C2.83189 14.9487 2.55017 15.0822 2.24873 15.1123C1.94729 15.1425 1.6447 15.0675 1.39229 14.9C1.17711 14.7569 1.00984 14.5525 0.912136 14.3133C0.810344 14.0745 0.784267 13.8101 0.837437 13.556C0.886909 13.3014 1.01138 13.0673 1.19485 12.8839C1.37832 12.7005 1.61242 12.5761 1.86713 12.5267C2.12137 12.4738 2.38567 12.4999 2.6247 12.6013C2.86397 12.699 3.06842 12.8662 3.21157 13.0813Z" fill="#315D80"/>
<path d="M2.78423 1.66812C2.84861 1.76028 2.88222 1.87041 2.88026 1.98279C2.87887 2.13088 2.8194 2.2725 2.71465 2.37722C2.60989 2.48194 2.4682 2.54139 2.32006 2.54278C2.20764 2.54474 2.09748 2.51115 2.00529 2.44679C1.91412 2.38424 1.84329 2.29633 1.80156 2.19395C1.75984 2.09158 1.74906 1.97923 1.77055 1.87079C1.79281 1.76286 1.84451 1.66318 1.91993 1.58279C2.0015 1.50795 2.10057 1.45476 2.20803 1.42812C2.31712 1.40257 2.43148 1.41201 2.5349 1.45509C2.63832 1.49817 2.72556 1.57271 2.78423 1.66812Z" fill="#315D80"/>
</g>
<defs>
<clipPath id="clip0_1647_6382">
<rect width="16" height="16" fill="white"/>
</clipPath>
</defs>
</svg>
