<svg width="16" height="16" viewBox="0 0 16 16" fill="none" xmlns="http://www.w3.org/2000/svg">
<g clip-path="url(#clip0_1721_1465)">
<path d="M10.6963 6.4H9.12781C8.96951 6.40015 8.81501 6.35145 8.68541 6.26053L6.28781 4.58053C6.2423 4.54998 6.18877 4.53356 6.13395 4.53333H5.02861C4.86466 4.53372 4.70489 4.48161 4.57269 4.38464C4.44049 4.28766 4.34281 4.15091 4.29395 3.9944L3.34861 1.0032C3.31194 0.887707 3.30304 0.76519 3.32263 0.645608C3.34223 0.526027 3.38976 0.412757 3.46137 0.315005C3.53299 0.217254 3.62665 0.13778 3.73476 0.0830446C3.84287 0.0283092 3.96237 -0.000143122 4.08355 6.21123e-07H7.85955C8.05342 -0.000245762 8.24022 0.0728164 8.38248 0.204534L11.219 2.82213C11.2972 2.89441 11.3596 2.98205 11.4023 3.07956C11.445 3.17707 11.4671 3.28235 11.4673 3.3888V5.6288C11.4671 5.83325 11.3859 6.02928 11.2413 6.17387C11.0968 6.31846 10.9008 6.39979 10.6963 6.4Z" fill="#F1D15B"/>
<path d="M12.0056 2.54213C11.8114 2.54217 11.6242 2.46927 11.4811 2.33787L10.3976 1.33707C10.2839 1.23176 10.2045 1.09464 10.1699 0.943573C10.1353 0.792506 10.1469 0.634506 10.2034 0.490175C10.2599 0.345843 10.3585 0.221877 10.4865 0.134441C10.6145 0.0470045 10.7658 0.000154624 10.9208 0L15.2291 0C15.4335 0.000211776 15.6295 0.0815029 15.774 0.226035C15.9185 0.370567 15.9998 0.566534 16 0.770933V0.822667C15.9993 0.988998 15.9451 1.15069 15.8455 1.28388C15.7458 1.41707 15.606 1.51471 15.4467 1.5624C11.9558 2.58933 12.1638 2.54213 12.0056 2.54213Z" fill="#F2727F"/>
<path d="M12.7709 6.40095C12.5665 6.40074 12.3706 6.31945 12.226 6.17491C12.0815 6.03038 12.0002 5.83441 12 5.63001V3.71001C12.0007 3.54374 12.0548 3.3821 12.1544 3.24895C12.254 3.11579 12.3938 3.01819 12.5531 2.97055L15.0115 2.24628C15.1266 2.21236 15.248 2.20578 15.3661 2.22708C15.4842 2.24838 15.5957 2.29696 15.6917 2.36896C15.7877 2.44096 15.8656 2.53438 15.9191 2.64178C15.9726 2.74919 16.0003 2.86761 16 2.98761V5.47055C15.999 5.66371 15.9258 5.84954 15.795 5.99164C15.6641 6.13373 15.485 6.22188 15.2925 6.23881C12.9285 6.43348 13.4859 6.40095 12.7709 6.40095Z" fill="#F2727F"/>
<path d="M14.6837 12.4431L12.8874 10.645C12.7905 10.5476 12.7213 10.4263 12.6868 10.2933C12.6524 10.1603 12.654 10.0206 12.6914 9.88845L13.392 7.43164C13.4355 7.28131 13.5234 7.14766 13.6443 7.04828C13.7652 6.9489 13.9134 6.88844 14.0693 6.87484L15.165 6.78391C15.2713 6.77506 15.3782 6.78834 15.479 6.82292C15.5799 6.85749 15.6725 6.91261 15.7509 6.98478C15.8294 7.05696 15.892 7.14462 15.9349 7.24224C15.9778 7.33985 15.9999 7.4453 16 7.55191V11.8986C16 12.0511 15.9548 12.2002 15.87 12.327C15.7853 12.4538 15.6648 12.5527 15.5239 12.611C15.383 12.6693 15.2279 12.6844 15.0783 12.6546C14.9287 12.6247 14.7914 12.5511 14.6837 12.4431Z" fill="#F1D15B"/>
<path d="M2.8504 4.53334H0.7704C0.566093 4.53298 0.370263 4.45163 0.225846 4.30711C0.0814293 4.1626 0.000211486 3.96671 0 3.7624L0 0.770936C0.000211776 0.566536 0.0815029 0.370569 0.226035 0.226037C0.370567 0.081505 0.566534 0.000213932 0.770933 2.1557e-06H1.90533C2.06929 -0.000386259 2.22906 0.0517231 2.36126 0.148701C2.49346 0.245679 2.59114 0.382431 2.64 0.538935L3.58507 3.53014C3.62173 3.64561 3.63064 3.7681 3.61106 3.88766C3.59148 4.00722 3.54397 4.12048 3.47239 4.21822C3.4008 4.31597 3.30717 4.39545 3.1991 4.4502C3.09102 4.50495 2.97155 4.53344 2.8504 4.53334Z" fill="#F2727F"/>
<path d="M0 10.9912V5.83729C1.22206e-05 5.64773 0.0698658 5.46481 0.196214 5.3235C0.322563 5.18218 0.496549 5.09237 0.684929 5.07122C0.87331 5.05007 1.06288 5.09907 1.21742 5.20886C1.37195 5.31864 1.48062 5.48152 1.52267 5.66636L2.52373 10.0696C2.55647 10.2148 2.5466 10.3663 2.49533 10.506C2.44405 10.6458 2.35355 10.7677 2.23467 10.8573L1.23333 11.608C1.11877 11.6937 0.982596 11.7459 0.84006 11.7587C0.697523 11.7715 0.554243 11.7443 0.426249 11.6803C0.298255 11.6163 0.190596 11.5179 0.115318 11.3962C0.0400396 11.2745 0.000111226 11.1343 0 10.9912Z" fill="#F1D15B"/>
<path d="M3.3568 16.0019H0.770133C0.565873 16.0015 0.370111 15.9201 0.225752 15.7756C0.0813925 15.6311 0.000211304 15.4353 0 15.231L0 13.5873C0.000338609 13.4677 0.0283156 13.3499 0.0817451 13.2429C0.135175 13.136 0.21261 13.0428 0.308 12.9707L2.6984 11.1782C2.79 11.109 2.89599 11.0613 3.00853 11.0386C3.12106 11.0159 3.23726 11.0187 3.34853 11.047L4.47493 11.3297C4.59577 11.3601 4.70743 11.4193 4.80032 11.5024C4.89322 11.5854 4.96457 11.6898 5.00827 11.8065L5.43013 12.9305C5.47303 13.0449 5.48814 13.1678 5.47424 13.2892C5.46033 13.4105 5.41779 13.5269 5.35013 13.6286L3.9976 15.6585C3.92743 15.7642 3.8322 15.8508 3.72038 15.9108C3.60857 15.9707 3.48366 16.002 3.3568 16.0019Z" fill="#F1D15B"/>
<path d="M8.29521 16.0016H5.84881C5.70931 16.0014 5.57247 15.9635 5.45283 15.8917C5.3332 15.82 5.23526 15.7171 5.16943 15.5942C5.1036 15.4712 5.07235 15.3326 5.079 15.1933C5.08565 15.054 5.12996 14.9191 5.20721 14.8029L5.78001 13.9445C5.85033 13.8389 5.94565 13.7524 6.05749 13.6926C6.16933 13.6327 6.29423 13.6015 6.42107 13.6016H8.29521C8.4996 13.6018 8.69557 13.6831 8.8401 13.8276C8.98464 13.9721 9.06593 14.1681 9.06614 14.3725V15.2306C9.06593 15.435 8.98464 15.631 8.8401 15.7755C8.69557 15.9201 8.4996 16.0014 8.29521 16.0016Z" fill="#F2727F"/>
<path d="M15.2287 16.0011H10.3705C10.1661 16.0009 9.97018 15.9196 9.82565 15.775C9.68111 15.6305 9.59982 15.4345 9.59961 15.2301V13.7635C9.59935 13.6622 9.61918 13.5619 9.65795 13.4683C9.69672 13.3748 9.75366 13.2898 9.82548 13.2184L11.7212 11.3224C11.8661 11.1785 12.062 11.0977 12.2663 11.0977C12.4705 11.0977 12.6665 11.1785 12.8113 11.3224L15.7735 14.2824C15.9178 14.4273 15.9991 14.6233 15.9996 14.8277V15.2291C15.9997 15.4337 15.9185 15.6299 15.774 15.7747C15.6294 15.9194 15.4333 16.0009 15.2287 16.0011Z" fill="#F2727F"/>
<path d="M4.68172 10.8043C4.54599 10.8043 4.52492 10.7885 3.61879 10.5627C3.48012 10.5287 3.35369 10.4567 3.25376 10.3547C3.15383 10.2528 3.08436 10.1249 3.05319 9.98561L2.14999 6.00801C2.12437 5.89514 2.12449 5.77796 2.15034 5.66515C2.17619 5.55234 2.2271 5.44679 2.29931 5.35635C2.37152 5.2659 2.46317 5.19287 2.56745 5.14268C2.67174 5.09249 2.78599 5.06642 2.90172 5.06641H5.80839C5.96669 5.06626 6.12119 5.11496 6.25079 5.20587L7.72999 6.24187C7.81703 6.30288 7.89052 6.38123 7.94584 6.47199C8.00116 6.56275 8.03713 6.66396 8.05148 6.76928C8.06582 6.8746 8.05825 6.98175 8.02922 7.084C8.00019 7.18626 7.95034 7.2814 7.88279 7.36347L5.27825 10.5237C5.20563 10.6116 5.1145 10.6823 5.01138 10.7308C4.90825 10.7792 4.79568 10.8044 4.68172 10.8043Z" fill="#F2727F"/>
<path d="M8.90335 13.0669H6.58682C6.43006 13.0666 6.27712 13.0186 6.14825 12.9294C6.01938 12.8401 5.92067 12.7138 5.86522 12.5672L5.52762 11.668C5.48015 11.5412 5.46679 11.4042 5.48888 11.2706C5.51097 11.1371 5.56773 11.0117 5.65348 10.9069L8.69348 7.2144C8.76571 7.12638 8.85661 7.05552 8.9596 7.00695C9.06259 6.95839 9.17509 6.93333 9.28895 6.9336H11.9583C12.0776 6.93353 12.1954 6.96119 12.3022 7.01438C12.409 7.06758 12.502 7.14486 12.5739 7.24013C12.6458 7.3354 12.6946 7.44606 12.7164 7.5634C12.7382 7.68073 12.7324 7.80152 12.6996 7.91626L12.0844 10.068C12.0484 10.1935 11.981 10.3079 11.8887 10.4003L9.44842 12.8403C9.37708 12.9122 9.29216 12.9693 9.1986 13.0082C9.10504 13.0471 9.00468 13.0671 8.90335 13.0669Z" fill="#F1D15B"/>
</g>
<defs>
<clipPath id="clip0_1721_1465">
<rect width="16" height="16" fill="white"/>
</clipPath>
</defs>
</svg>
