<svg width="16" height="16" viewBox="0 0 16 16" fill="none" xmlns="http://www.w3.org/2000/svg">
<path d="M10.2852 5.71484H8.28516V7.07227L11.1423 9.92713V6.57199C11.1423 6.0986 10.7585 5.71484 10.2852 5.71484Z" fill="#9BB997"/>
<path d="M8.57156 3.42704C8.71995 3.42736 8.86782 3.44433 9.01242 3.47761C8.82451 3.09121 8.42976 2.84865 8.00014 2.85561C7.56905 2.85484 7.17474 3.09837 6.98242 3.48419C7.1285 3.44809 7.27825 3.42892 7.42871 3.42704H8.57156Z" fill="#9BB997"/>
<path d="M8.57166 4H7.4288C6.84731 4.0021 6.32529 4.35693 6.10938 4.89686L6.35538 5.14286H9.97166C9.83497 4.47817 9.25026 4.00086 8.57166 4Z" fill="#9BB997"/>
<path d="M7.71488 6.50142V5.71484H6.92773L7.71488 6.50142Z" fill="#9BB997"/>
<path d="M4.30384 6.38983C4.3313 6.16009 4.41415 5.94046 4.54527 5.74983L2.58698 3.79297C2.4947 3.91125 2.41184 4.03525 2.32812 4.15868C2.68346 4.51877 2.99504 4.91954 3.25641 5.35268C3.51566 5.77871 3.87527 6.13479 4.30384 6.38983Z" fill="#9BB997"/>
<path d="M11.7142 7.03492V8.29663C12.1021 8.32326 12.4811 8.42495 12.8302 8.59606C13.1924 8.77882 13.5944 8.86857 13.9999 8.85721C14.1577 8.85721 14.2857 8.98512 14.2857 9.14292C14.2857 9.30072 14.1577 9.42863 13.9999 9.42863C13.5146 9.43913 13.0338 9.33271 12.5982 9.11835C12.3219 8.98035 12.022 8.896 11.7142 8.86978V10.2858C11.7142 10.3538 11.7088 10.4209 11.7051 10.4883L13.4154 12.1972C14.4739 10.8398 14.9803 9.13251 14.8331 7.41749C14.7508 6.4487 14.4593 5.50929 13.9788 4.66406C13.695 4.96576 13.444 5.29665 13.2299 5.65121C12.8672 6.24772 12.3412 6.72789 11.7142 7.03492Z" fill="#9BB997"/>
<path d="M6.64485 13.1165C7.32021 12.5602 7.71238 11.7318 7.71456 10.8568V8.91654L4.96371 6.16797C4.89557 6.29153 4.85906 6.43002 4.85742 6.57111V10.2854C4.85912 11.4943 5.55411 12.5952 6.64485 13.1165Z" fill="#9BB997"/>
<path d="M8.0003 13.9973C6.1282 13.9943 4.55038 12.5997 4.31745 10.7422C3.88468 10.9977 3.52158 11.356 3.2603 11.7853C3.11942 12.0137 2.96465 12.2331 2.79688 12.4425C5.1684 15.2379 9.32362 15.6629 12.212 13.4056L11.1143 12.3088C10.4305 13.364 9.25774 14 8.0003 13.9973Z" fill="#9BB997"/>
<path d="M4.2849 10.1106V8.87235C3.97717 8.89857 3.6772 8.98292 3.4009 9.12092C2.96531 9.33528 2.48455 9.44171 1.99918 9.43121C1.84139 9.43121 1.71347 9.30329 1.71347 9.14549C1.71347 8.9877 1.84139 8.85978 1.99918 8.85978C2.40472 8.87114 2.8067 8.78139 3.1689 8.59863C3.51801 8.42752 3.89702 8.32583 4.2849 8.29921V7.03749C3.65771 6.73035 3.13162 6.24997 2.7689 5.65321C2.55419 5.29809 2.30271 4.96655 2.01861 4.66406C1.35227 5.85305 1.05507 7.21352 1.1649 8.57206C1.26708 9.80471 1.70513 10.9858 2.43147 11.9869C2.55004 11.8289 2.66461 11.6661 2.76947 11.4943C3.13201 10.8978 3.65791 10.4176 4.2849 10.1106Z" fill="#9BB997"/>
<path d="M9.35601 13.1174C9.91273 12.8507 10.3781 12.4252 10.6934 11.8946L8.28516 9.48828V10.8574C8.2871 11.7328 8.6798 12.5616 9.35601 13.1174Z" fill="#9BB997"/>
<path d="M8.00086 13.4253C8.25387 13.4237 8.50577 13.3916 8.75114 13.3299C8.43602 13.0168 8.18164 12.648 8.00086 12.2422C7.81988 12.6483 7.56531 13.0173 7.25 13.3308C7.49554 13.3925 7.74767 13.4243 8.00086 13.4253Z" fill="#9BB997"/>
<path d="M8.58173 1.16883C8.38916 1.15254 8.19659 1.14454 8.00516 1.14454C6.48025 1.14177 4.99848 1.65052 3.79688 2.5894L5.68087 4.47169C5.83091 4.19784 6.04307 3.96298 6.3003 3.78597C6.36935 3.21804 6.71906 2.72277 7.23116 2.46769C7.17229 2.38241 7.0969 2.30984 7.00945 2.25426C6.87183 2.17973 6.81902 2.00887 6.89059 1.86969C6.96168 1.73114 7.13124 1.67589 7.2703 1.74597C7.49605 1.87617 7.67954 2.06859 7.79887 2.30026C7.93242 2.28311 8.06761 2.28311 8.20116 2.30026C8.31997 2.06911 8.50263 1.87693 8.72745 1.74654C8.81871 1.69974 8.92805 1.70543 9.01395 1.76147C9.09985 1.81751 9.14912 1.91529 9.14305 2.01767C9.13699 2.12005 9.07651 2.21133 8.98459 2.25683C8.89831 2.31232 8.824 2.38449 8.76602 2.46911C8.93027 2.55093 9.08051 2.65826 9.21116 2.78711C9.47397 3.05468 9.64178 3.40104 9.68888 3.77311C10.1633 4.09427 10.4774 4.60331 10.5517 5.1714C11.1565 5.28886 11.6174 5.78137 11.6946 6.39254C12.1229 6.13782 12.4824 5.78214 12.7417 5.35654C13.0024 4.92447 13.3133 4.52482 13.668 4.16597C12.5094 2.45307 10.6415 1.35241 8.58173 1.16883Z" fill="#9BB997"/>
<path d="M8 0C3.58172 0 0 3.58172 0 8C0 12.4183 3.58172 16 8 16C12.4183 16 16 12.4183 16 8C15.995 3.58381 12.4162 0.00503844 8 0ZM12.5617 13.86C11.2566 14.8785 9.64806 15.4307 7.99257 15.4286C7.79048 15.4286 7.58781 15.4205 7.38457 15.4043C4.6663 15.1795 2.29003 13.4827 1.1952 10.9845C0.100367 8.48633 0.463211 5.58903 2.14029 3.438C2.23985 3.31109 2.38899 3.23288 2.55 3.22314C2.71416 3.21357 2.87465 3.27424 2.99143 3.39L12.6094 13.0083C12.726 13.1247 12.7869 13.2856 12.7769 13.45C12.7672 13.6112 12.6889 13.7605 12.5617 13.86ZM15.4026 7.37143C15.5612 9.23162 15.0112 11.0831 13.8626 12.5549C13.763 12.6817 13.6138 12.7597 13.4529 12.7691C13.4411 12.7691 13.4294 12.7691 13.418 12.7691C13.2654 12.7689 13.1192 12.7081 13.0114 12.6L3.4 2.98857C3.28355 2.8721 3.22269 2.71125 3.23286 2.54686C3.24238 2.38593 3.32052 2.23684 3.44743 2.13743C4.91962 0.98937 6.77093 0.439374 8.63114 0.597429C12.2246 0.931067 15.0703 3.77783 15.4026 7.37143Z" fill="#EA4B62"/>
</svg>
