<svg width="16" height="16" viewBox="0 0 16 16" fill="none" xmlns="http://www.w3.org/2000/svg">
<g clip-path="url(#clip0_1721_1494)">
<mask id="mask0_1721_1494" style="mask-type:luminance" maskUnits="userSpaceOnUse" x="0" y="0" width="16" height="16">
<path d="M15.4016 0H0V15.9526H15.4016V0Z" fill="white"/>
</mask>
<g mask="url(#mask0_1721_1494)">
<path fill-rule="evenodd" clip-rule="evenodd" d="M0.701172 5.54945H4.00648V4.79583C4.00518 4.68152 4.02894 4.56828 4.07612 4.46381C4.11721 4.35558 4.18323 4.25817 4.26898 4.17922C4.35029 4.0961 4.449 4.03136 4.55827 3.98949C4.66636 3.94311 4.7832 3.91978 4.90111 3.92099H10.7618V0.664062H4.90648C3.79302 0.665457 2.72556 1.10122 1.93823 1.87578C1.15089 2.65033 0.707952 3.70045 0.706534 4.79583L0.701172 5.54945ZM11.4475 7.5837C11.0772 7.22081 10.6147 6.96238 10.1082 6.83535C9.60428 6.71943 9.07998 6.71943 8.57607 6.83535L10.1832 8.41638C10.2355 8.46783 10.2742 8.53117 10.2957 8.60082C10.3119 8.67197 10.3119 8.74575 10.2957 8.8169L9.88319 10.3979C9.86145 10.4663 9.82491 10.5292 9.77605 10.5824C9.7217 10.6339 9.65556 10.6719 9.58319 10.693L8.00286 11.1199C7.93237 11.1384 7.85819 11.1384 7.7877 11.1199C7.71721 11.1014 7.65287 11.0651 7.60108 11.0145L5.99396 9.4335C5.88569 9.93005 5.89855 10.4448 6.03147 10.9355C6.17535 11.458 6.46304 11.9313 6.86287 12.3033C7.2627 12.6752 7.75914 12.9314 8.2975 13.0435C8.87601 13.1609 9.47612 13.1209 10.0332 12.9276C10.1085 12.9066 10.1882 12.9066 10.2635 12.9276C10.3397 12.9443 10.41 12.9807 10.4671 13.033L13.5367 16.0106L15.3795 14.2504L12.2778 11.1832C12.2196 11.1291 12.1786 11.0595 12.1599 10.9829C12.1386 10.9088 12.1386 10.8304 12.1599 10.7563C12.3471 10.2041 12.3804 9.61267 12.2564 9.04352C12.1327 8.49558 11.8542 7.99318 11.4528 7.59425L11.4475 7.5837Z" fill="#6D5F7A"/>
<path d="M2.60834 9.59118L2.30835 9.25391L2.00835 9.59118C1.34943 10.3237 0.535156 11.2355 0.535156 12.0629C0.535241 12.4084 0.639663 12.7462 0.835184 13.0333C1.0307 13.3205 1.30851 13.544 1.63335 13.6755C1.95734 13.8057 2.31283 13.8405 2.65655 13.7756C3.0007 13.7053 3.31692 13.5388 3.56726 13.2961C3.73272 13.1352 3.86386 12.9435 3.95297 12.7322C4.04051 12.5195 4.08597 12.2923 4.0869 12.0629C4.0869 11.2355 3.26726 10.3237 2.60834 9.59118ZM3.39583 12.6584C3.29193 12.8368 3.14469 12.9871 2.96727 13.0958C2.91344 13.1139 2.85502 13.1139 2.80119 13.0958C2.74401 13.08 2.69456 13.0445 2.66191 12.9957C2.63501 12.9456 2.62559 12.8882 2.63512 12.8323C2.64631 12.7753 2.67881 12.7246 2.7262 12.69C2.83844 12.6234 2.93084 12.5289 2.99405 12.416C3.05826 12.3052 3.09152 12.1798 3.09047 12.0523C3.09005 12.0231 3.09551 11.9941 3.10654 11.9669C3.11758 11.9398 3.13396 11.9151 3.15476 11.8942C3.19871 11.8507 3.25843 11.826 3.32082 11.8257C3.38149 11.8271 3.43929 11.8514 3.4822 11.8936C3.52511 11.9358 3.54983 11.9926 3.55119 12.0523C3.55983 12.2629 3.51178 12.472 3.4119 12.6584H3.39583Z" fill="#4D7EA5"/>
<path d="M4.61779 6.00391H0V7.58493H4.61779V6.00391Z" fill="#4D7EA5"/>
<path d="M12.8415 0H11.2344V4.54282H12.8415V0Z" fill="#4D7EA5"/>
</g>
</g>
<defs>
<clipPath id="clip0_1721_1494">
<rect width="15.3962" height="16" fill="white"/>
</clipPath>
</defs>
</svg>
