<svg width="16" height="16" viewBox="0 0 16 16" fill="none" xmlns="http://www.w3.org/2000/svg">
<g clip-path="url(#clip0_1721_1927)">
<path d="M15.8231 11.17L11.9838 7.54938L8.14406 11.17C8.11688 11.1956 8.10125 11.2319 8.10125 11.2694V11.9847L11.7778 8.51781C11.8353 8.46344 11.9094 8.43594 11.9838 8.43594C12.0578 8.43594 12.1319 8.46344 12.1897 8.51781L15.8659 11.9847V11.2694C15.8659 11.2319 15.8506 11.1959 15.8231 11.17ZM11.9838 8.9875L8.79156 11.9978V16H10.4416V12.5266C10.4416 12.2544 10.6631 12.0334 10.935 12.0334H13.0328C13.3047 12.0334 13.5259 12.2547 13.5259 12.5266V16H15.1759V11.9978L11.9838 8.9875ZM13.0325 12.5162H10.9347C10.9288 12.5162 10.9241 12.5206 10.9241 12.5266V16H13.0428V12.5266C13.0428 12.5209 13.0384 12.5162 13.0325 12.5162ZM11.5475 0H4.20531C3.77094 0 3.41781 0.353438 3.41781 0.7875V2.03938C3.41781 2.74 2.84781 3.30969 2.1475 3.30969H0.920312C0.48625 3.30969 0.132812 3.66313 0.132812 4.09719V15.8056C0.132812 15.9128 0.220312 16 0.3275 16H8.30844V12.4419C8.18438 12.5209 8.02781 12.5359 7.88937 12.4759C7.725 12.405 7.61844 12.2431 7.61844 12.0641V11.2691C7.61844 11.0991 7.68937 10.935 7.81281 10.8184L11.6759 7.17531C11.6966 7.15562 11.7188 7.13875 11.7419 7.12375V0.194688C11.7419 0.0875 11.6547 0 11.5475 0ZM4.30562 10.1978H1.99625C1.86313 10.1978 1.75469 10.0897 1.75469 9.95625C1.75469 9.8225 1.86281 9.71469 1.99625 9.71469H4.30562C4.43875 9.71469 4.54719 9.8225 4.54719 9.95625C4.54719 10.0897 4.43906 10.1978 4.30562 10.1978ZM6.91937 8.24156H1.99656C1.86344 8.24156 1.755 8.13375 1.755 8C1.755 7.86688 1.86312 7.75844 1.99656 7.75844H6.91969C7.05344 7.75844 7.16125 7.86656 7.16125 8C7.16094 8.13375 7.05312 8.24156 6.91937 8.24156ZM9.87875 6.28531H1.99656C1.86344 6.28531 1.755 6.17719 1.755 6.04375C1.755 5.91062 1.86312 5.80219 1.99656 5.80219H9.87875C10.0122 5.80219 10.1203 5.91031 10.1203 6.04375C10.12 6.17719 10.0119 6.28531 9.87875 6.28531ZM2.65375 0.6225L0.755 2.52125C0.633125 2.64313 0.528125 2.7775 0.440625 2.92094C0.58875 2.86031 0.750625 2.82656 0.920312 2.82656H2.1475C2.58156 2.82656 2.935 2.47344 2.935 2.03906V0.7875C2.935 0.625938 2.96563 0.47125 3.02094 0.329062C2.88938 0.412187 2.76656 0.51 2.65375 0.6225Z" fill="#F2727F"/>
</g>
<defs>
<clipPath id="clip0_1721_1927">
<rect width="16" height="16" fill="white"/>
</clipPath>
</defs>
</svg>
