<svg width="16" height="16" viewBox="0 0 16 16" fill="none" xmlns="http://www.w3.org/2000/svg">
<path d="M9.5 15H2.5C2.22386 15 2 14.7761 2 14.5V11.5H9.5V15Z" fill="#F1D15B"/>
<path d="M9.99948 3L8.90857 3.36365L8.54492 4.81818L9.49948 4.5L10.9995 5L11.3841 3.46155L9.99948 3Z" fill="#6B5E7A"/>
<path d="M2.49948 8.5L3.99948 9L4.38409 7.46155L2.99948 7L1.90857 7.36365L1.54492 8.81818L2.49948 8.5Z" fill="#6B5E7A"/>
<path d="M9.49948 5L8.40857 5.36365L8.04492 6.81818L8.99948 6.5L10.4995 7L10.8841 5.46155L9.49948 5Z" fill="#6B5E7A"/>
<path d="M9.99948 9L10.3841 7.46155L8.99948 7L7.90857 7.36365L7.54492 8.81818L8.49948 8.5L9.99948 9Z" fill="#6B5E7A"/>
<path d="M6.99948 9L7.38409 7.46155L5.99948 7L4.90857 7.36365L4.54492 8.81818L5.49948 8.5L6.99948 9Z" fill="#6B5E7A"/>
<path d="M9.99948 2.5L11.4995 3L11.9995 1H9.49948L9.04492 2.81818L9.99948 2.5Z" fill="#6B5E7A"/>
<path d="M5.90857 3.36365L5.54492 4.81818L6.49948 4.5L7.99948 5L8.38409 3.46155L6.99948 3L5.90857 3.36365Z" fill="#6B5E7A"/>
<path d="M2.90857 3.36365L2.54492 4.81818L3.49948 4.5L4.99948 5L5.38409 3.46155L3.99948 3L2.90857 3.36365Z" fill="#6B5E7A"/>
<path d="M7.49948 7L7.88409 5.46155L6.49948 5L5.40857 5.36365L5.04492 6.81818L5.99948 6.5L7.49948 7Z" fill="#6B5E7A"/>
<path d="M2.99948 6.5L4.49948 7L4.88409 5.46155L3.49948 5L2.40857 5.36365L2.04492 6.81818L2.99948 6.5Z" fill="#6B5E7A"/>
<path d="M6.99948 2.5L8.49948 3L8.99948 1H6.49948L6.04492 2.81818L6.99948 2.5Z" fill="#6B5E7A"/>
<path d="M2.5 9L1.40909 9.36365L1.00759 10.6894C0.968141 10.8472 1.08748 11 1.25012 11H3.5L3.88461 9.46155L2.5 9Z" fill="#6B5E7A"/>
<path d="M3.99948 2.5L5.49948 3L5.99948 1H3.88987C3.66043 1 3.46044 1.15615 3.4048 1.37873L3.04492 2.81818L3.99948 2.5Z" fill="#6B5E7A"/>
<path d="M5.5 9L4.40909 9.36365L4 11H6.5L6.88461 9.46155L5.5 9Z" fill="#6B5E7A"/>
<path d="M8.5 9L7.40909 9.36365L7 11H9.5L9.88461 9.46155L8.5 9Z" fill="#6B5E7A"/>
<path d="M10 11L12.5 1L14.9924 10.6894C15.0319 10.8472 14.9125 11 14.7499 11H10Z" fill="#F1D15B"/>
<path d="M10 11.5V15H13.5C13.7761 15 14 14.7761 14 14.5V11.5H10Z" fill="#6B5E7A"/>
</svg>
