<svg width="16" height="16" viewBox="0 0 16 16" fill="none" xmlns="http://www.w3.org/2000/svg">
<g clip-path="url(#clip0_1721_1525)">
<path d="M13.5591 7.90094H15.5312C15.79 7.90094 16 7.69125 16 7.43219C16 7.17344 15.79 6.96344 15.5312 6.96344H13.7453C13.97 5.54719 13.8656 4.58938 13.8597 4.53781C13.8384 4.3525 13.7094 4.1975 13.5312 4.14312C12.8191 3.925 12.1984 3.70375 11.6584 3.48687V2.32812H13.2681C13.4616 2.87375 13.9828 3.26562 14.5938 3.26562C15.3691 3.26562 16 2.63469 16 1.85938C16 1.08375 15.3691 0.453125 14.5938 0.453125C13.9828 0.453125 13.4616 0.845 13.2681 1.39062H11.1897C10.9306 1.39062 10.7209 1.60031 10.7209 1.85938V3.07906C8.98344 2.25875 8.4075 1.58594 8.37281 1.54406C8.18553 1.28641 7.81463 1.28619 7.62719 1.54406C7.5925 1.58594 7.01656 2.25875 5.27906 3.07906V1.85938C5.27906 1.60031 5.06937 1.39062 4.81031 1.39062H2.73187C2.53844 0.845 2.01719 0.453125 1.40625 0.453125C0.630938 0.453125 0 1.08375 0 1.85938C0 2.63469 0.630938 3.26562 1.40625 3.26562C2.01719 3.26562 2.53844 2.87375 2.73187 2.32812H4.34156V3.48687C3.80156 3.70375 3.18094 3.925 2.46875 4.14312C2.29063 4.1975 2.16156 4.3525 2.14031 4.53781C2.13437 4.58938 2.03 5.54719 2.25469 6.96344H0.46875C0.21 6.96344 0 7.17344 0 7.43219C0 7.69125 0.21 7.90094 0.46875 7.90094H2.44094C2.54334 8.32741 2.66303 8.73731 2.8225 9.18375H1.53469C1.27594 9.18375 1.06594 9.39344 1.06594 9.6525C1.06594 9.91125 1.27594 10.1213 1.53469 10.1213H3.20062C3.60741 11.0207 4.10244 11.8337 4.68844 12.5922H2.73187C2.53844 12.0466 2.01719 11.6547 1.40625 11.6547C0.630938 11.6547 0 12.2856 0 13.0609C0 13.8362 0.630938 14.4672 1.40625 14.4672C2.01719 14.4672 2.53844 14.0753 2.73187 13.5297H5.48781C6.14813 14.2337 6.89781 14.8803 7.73187 15.4619C7.89316 15.5744 8.10687 15.5744 8.26812 15.4619C9.10219 14.8803 9.85188 14.2337 10.5122 13.5297H13.2681C13.4616 14.0753 13.9828 14.4672 14.5938 14.4672C15.3691 14.4672 16 13.8362 16 13.0609C16 12.2856 15.3691 11.6547 14.5938 11.6547C13.9828 11.6547 13.4616 12.0466 13.2681 12.5922H11.3116C11.8962 11.8355 12.3917 11.0227 12.7994 10.1213H14.4653C14.7241 10.1213 14.9341 9.91125 14.9341 9.6525C14.9341 9.39344 14.7241 9.18375 14.4653 9.18375H13.1775C13.3368 8.73784 13.4565 8.32794 13.5591 7.90094ZM10.5794 10.3022C10.5794 10.7734 10.1962 11.1566 9.725 11.1566H6.275C5.80375 11.1566 5.42063 10.7734 5.42063 10.3022V7.61781C5.42063 7.24531 5.66 6.92813 5.99312 6.81125V6.50625C5.99312 5.39969 6.89344 4.49938 8 4.49938C9.10656 4.49938 10.0069 5.39969 10.0069 6.50625V6.81125C10.34 6.92813 10.5794 7.24531 10.5794 7.61781V10.3022Z" fill="#9BB997"/>
<path d="M6.35742 7.69922V10.2173H9.64117V7.69922H6.35742ZM8.46805 9.12359C8.46805 9.38266 8.25805 9.59234 7.9993 9.59234C7.74055 9.59234 7.53055 9.38266 7.53055 9.12359V8.79297C7.53055 8.53391 7.74055 8.32422 7.9993 8.32422C8.25805 8.32422 8.46805 8.53391 8.46805 8.79297V9.12359Z" fill="#EA4B62"/>
<path d="M9.06844 6.50688V6.76406H6.92969V6.50688C6.92969 5.91719 7.40938 5.4375 7.99906 5.4375C8.58875 5.4375 9.06844 5.91719 9.06844 6.50688Z" fill="#EA4B62"/>
</g>
<defs>
<clipPath id="clip0_1721_1525">
<rect width="16" height="16" fill="white"/>
</clipPath>
</defs>
</svg>
