<svg width="16" height="16" viewBox="0 0 16 16" fill="none" xmlns="http://www.w3.org/2000/svg">
<g clip-path="url(#clip0_1721_1531)">
<path d="M15.5 12V15.25C15.5 15.3163 15.4737 15.3799 15.4268 15.4268C15.3799 15.4737 15.3163 15.5 15.25 15.5H0.75C0.683696 15.5 0.620107 15.4737 0.573223 15.4268C0.526339 15.3799 0.5 15.3163 0.5 15.25V11.25C0.5 11.1837 0.526339 11.1201 0.573223 11.0733C0.620107 11.0264 0.683696 11 0.75 11C2.12232 11 3.32555 11.6534 3.79332 12.62C5.2188 11.9424 7.14653 12.2092 8.14832 13.2985C9.08665 11.984 11.3404 11.5818 12.9374 12.4914C13.6062 11.9976 14.4187 11.7371 15.25 11.75C15.3163 11.75 15.3799 11.7764 15.4268 11.8233C15.4737 11.8701 15.5 11.9337 15.5 12ZM8.8225 9.97004L6.03 7.17754C5.88764 7.04041 5.69767 6.9638 5.5 6.9638C5.30234 6.9638 5.11236 7.04041 4.97 7.17754L2.72 9.42754C2.64984 9.49675 2.59423 9.57929 2.55645 9.67031C2.51867 9.76133 2.49947 9.85899 2.5 9.95754V10.8425C3.0982 11.0796 3.6185 11.4787 4.0025 11.995C4.58879 11.7959 5.20909 11.7165 5.82663 11.7616C6.44417 11.8067 7.04636 11.9753 7.5975 12.2575L8.8225 11.03C8.96295 10.8894 9.04184 10.6988 9.04184 10.5C9.04184 10.3013 8.96295 10.1107 8.8225 9.97004ZM2.75 4.60061H2.43298L2.59155 4.32596C2.60797 4.29753 2.61862 4.26613 2.6229 4.23358C2.62718 4.20102 2.62501 4.16794 2.61651 4.13623C2.60801 4.10451 2.59335 4.07478 2.57336 4.04873C2.55336 4.02268 2.52844 4.00083 2.5 3.98441C2.44257 3.95126 2.37432 3.94228 2.31026 3.95945C2.24621 3.97662 2.1916 4.01853 2.15845 4.07596L2 4.35041L1.84155 4.07596C1.8084 4.01853 1.75379 3.97662 1.68974 3.95945C1.62568 3.94228 1.55743 3.95126 1.5 3.98441C1.44257 4.01757 1.40066 4.07218 1.38349 4.13623C1.36632 4.20028 1.3753 4.26853 1.40845 4.32596L1.56702 4.60061H1.25C1.1837 4.60061 1.12011 4.62695 1.07322 4.67384C1.02634 4.72072 1 4.78431 1 4.85061C1 4.91692 1.02634 4.98051 1.07322 5.02739C1.12011 5.07427 1.1837 5.10061 1.25 5.10061H1.56687L1.40845 5.37504C1.39203 5.40348 1.38138 5.43487 1.3771 5.46742C1.37282 5.49998 1.37499 5.53306 1.38349 5.56477C1.39199 5.59649 1.40665 5.62622 1.42664 5.65227C1.44664 5.67832 1.47156 5.70017 1.5 5.71659C1.52844 5.733 1.55983 5.74366 1.59239 5.74794C1.62494 5.75222 1.65802 5.75005 1.68974 5.74155C1.72145 5.73305 1.75118 5.71839 1.77723 5.69839C1.80328 5.6784 1.82513 5.65348 1.84155 5.62504L2 5.35059L2.15845 5.62504C2.17487 5.65348 2.19672 5.6784 2.22277 5.69839C2.24882 5.71839 2.27855 5.73305 2.31026 5.74155C2.34198 5.75005 2.37506 5.75222 2.40762 5.74794C2.44017 5.74366 2.47156 5.733 2.5 5.71659C2.52844 5.70017 2.55336 5.67832 2.57336 5.65227C2.59335 5.62622 2.60801 5.59649 2.61651 5.56477C2.62501 5.53306 2.62718 5.49998 2.6229 5.46742C2.61862 5.43487 2.60797 5.40348 2.59155 5.37504L2.43313 5.10061H2.75C2.8163 5.10061 2.87989 5.07427 2.92678 5.02739C2.97366 4.98051 3 4.91692 3 4.85061C3 4.78431 2.97366 4.72072 2.92678 4.67384C2.87989 4.62695 2.8163 4.60061 2.75 4.60061ZM8.5 1.14946H8.18312L8.34155 0.875038C8.3747 0.817606 8.38368 0.749356 8.36651 0.685303C8.34934 0.62125 8.30743 0.56664 8.25 0.533488C8.19257 0.500336 8.12432 0.491357 8.06026 0.508526C7.99621 0.525695 7.9416 0.567606 7.90845 0.625038L7.75 0.899488L7.59155 0.625038C7.5584 0.567606 7.50379 0.525695 7.43974 0.508526C7.37568 0.491357 7.30743 0.500336 7.25 0.533488C7.19257 0.56664 7.15066 0.62125 7.13349 0.685303C7.11632 0.749356 7.1253 0.817606 7.15845 0.875038L7.31687 1.14946H7C6.9337 1.14946 6.87011 1.1758 6.82322 1.22269C6.77634 1.26957 6.75 1.33316 6.75 1.39946C6.75 1.46577 6.77634 1.52936 6.82322 1.57624C6.87011 1.62312 6.9337 1.64946 7 1.64946H7.31703L7.15845 1.92411C7.14204 1.95255 7.13138 1.98394 7.1271 2.0165C7.12282 2.04905 7.12499 2.08213 7.13349 2.11385C7.14199 2.14556 7.15665 2.1753 7.17664 2.20134C7.19664 2.22739 7.22156 2.24925 7.25 2.26566C7.27844 2.28208 7.30983 2.29273 7.34239 2.29702C7.37494 2.3013 7.40802 2.29913 7.43974 2.29063C7.50379 2.27346 7.5584 2.23155 7.59155 2.17411L7.75 1.89966L7.90845 2.17411C7.92487 2.20255 7.94672 2.22748 7.97277 2.24747C7.99882 2.26746 8.02855 2.28212 8.06026 2.29063C8.09198 2.29913 8.12506 2.3013 8.15761 2.29702C8.19017 2.29273 8.22156 2.28208 8.25 2.26566C8.27844 2.24925 8.30336 2.22739 8.32335 2.20134C8.34335 2.1753 8.35801 2.14556 8.36651 2.11385C8.37501 2.08213 8.37719 2.04905 8.3729 2.0165C8.36862 1.98394 8.35797 1.95255 8.34155 1.92411L8.18297 1.64946H8.5C8.5663 1.64946 8.62989 1.62312 8.67678 1.57624C8.72366 1.52936 8.75 1.46577 8.75 1.39946C8.75 1.33316 8.72366 1.26957 8.67678 1.22269C8.62989 1.1758 8.5663 1.14946 8.5 1.14946ZM14.75 7.89946H14.4331L14.5916 7.62504C14.608 7.5966 14.6186 7.56521 14.6229 7.53265C14.6272 7.5001 14.625 7.46702 14.6165 7.4353C14.608 7.40359 14.5933 7.37386 14.5734 7.34781C14.5534 7.32176 14.5284 7.2999 14.5 7.28349C14.4716 7.26707 14.4402 7.25642 14.4076 7.25214C14.3751 7.24785 14.342 7.25003 14.3103 7.25853C14.2785 7.26703 14.2488 7.28169 14.2228 7.30168C14.1967 7.32167 14.1749 7.3466 14.1585 7.37504L14 7.64949L13.8416 7.37504C13.8251 7.3466 13.8033 7.32167 13.7772 7.30168C13.7512 7.28169 13.7215 7.26703 13.6897 7.25853C13.658 7.25003 13.6249 7.24785 13.5924 7.25214C13.5598 7.25642 13.5284 7.26707 13.5 7.28349C13.4716 7.2999 13.4466 7.32176 13.4266 7.34781C13.4067 7.37386 13.392 7.40359 13.3835 7.4353C13.375 7.46702 13.3728 7.5001 13.3771 7.53265C13.3814 7.56521 13.392 7.5966 13.4085 7.62504L13.5669 7.89946H13.25C13.1837 7.89946 13.1201 7.9258 13.0732 7.97269C13.0263 8.01957 13 8.08316 13 8.14946C13 8.21577 13.0263 8.27936 13.0732 8.32624C13.1201 8.37312 13.1837 8.39946 13.25 8.39946H13.567L13.4085 8.67411C13.3753 8.73155 13.3663 8.7998 13.3835 8.86385C13.4007 8.9279 13.4426 8.98251 13.5 9.01566C13.5574 9.04882 13.6257 9.0578 13.6897 9.04063C13.7538 9.02346 13.8084 8.98155 13.8416 8.92411L14 8.64966L14.1585 8.92411C14.1916 8.98155 14.2462 9.02346 14.3103 9.04063C14.3743 9.0578 14.4426 9.04882 14.5 9.01566C14.5574 8.98251 14.5993 8.9279 14.6165 8.86385C14.6337 8.7998 14.6247 8.73155 14.5916 8.67411L14.433 8.39946H14.75C14.8163 8.39946 14.8799 8.37312 14.9268 8.32624C14.9737 8.27936 15 8.21577 15 8.14946C15 8.08316 14.9737 8.01957 14.9268 7.97269C14.8799 7.9258 14.8163 7.89946 14.75 7.89946ZM15.0734 4.28031L14.0734 5.28031C14.0039 5.35019 13.9212 5.40559 13.8301 5.44331C13.7391 5.48103 13.6414 5.50031 13.5428 5.50004H11.855L8.4575 8.89754L7.1025 7.54254L10.5 4.14504V2.45706C10.4997 2.35854 10.519 2.26094 10.5567 2.16992C10.5945 2.07889 10.6499 1.99626 10.7197 1.92679L11.7197 0.926788C11.8626 0.79045 12.0525 0.714383 12.25 0.714383C12.4475 0.714383 12.6374 0.79045 12.7803 0.926788L15.0732 3.21976C15.2136 3.36055 15.2924 3.55122 15.2924 3.75001C15.2925 3.9488 15.2137 4.1395 15.0734 4.28031ZM13.7197 4.92679L13.8965 4.75004L11.25 2.10356L11.0732 2.28031C11.0265 2.32732 11.0002 2.39081 11 2.45706V4.14504L11.855 5.00004H13.5428C13.5757 5.0001 13.6082 4.99366 13.6386 4.98109C13.669 4.96852 13.6965 4.95006 13.7197 4.92679Z" fill="#6B5E7A"/>
<path d="M13.8965 4.7492L13.7198 4.92595C13.6966 4.94922 13.669 4.96768 13.6386 4.98025C13.6083 4.99282 13.5757 4.99926 13.5429 4.9992H11.855L11 4.1442V2.45622C11.0003 2.38997 11.0266 2.32648 11.0733 2.27947L11.25 2.10272L13.8965 4.7492Z" fill="#F1D15B"/>
<path d="M8.18312 1.14946H8.5C8.5663 1.14946 8.62989 1.1758 8.67678 1.22269C8.72366 1.26957 8.75 1.33316 8.75 1.39946C8.75 1.46577 8.72366 1.52936 8.67678 1.57624C8.62989 1.62312 8.5663 1.64946 8.5 1.64946H8.18297L8.34155 1.92411C8.35797 1.95255 8.36862 1.98394 8.3729 2.0165C8.37719 2.04905 8.37501 2.08213 8.36651 2.11385C8.35801 2.14556 8.34335 2.1753 8.32335 2.20134C8.30336 2.22739 8.27844 2.24925 8.25 2.26566C8.22156 2.28208 8.19017 2.29273 8.15761 2.29702C8.12506 2.3013 8.09198 2.29913 8.06026 2.29063C8.02855 2.28212 7.99882 2.26746 7.97277 2.24747C7.94672 2.22748 7.92487 2.20255 7.90845 2.17411L7.75 1.89966L7.59155 2.17411C7.5584 2.23155 7.50379 2.27346 7.43974 2.29063C7.40802 2.29913 7.37494 2.3013 7.34239 2.29702C7.30983 2.29273 7.27844 2.28208 7.25 2.26566C7.22156 2.24925 7.19664 2.22739 7.17664 2.20134C7.15665 2.1753 7.14199 2.14556 7.13349 2.11385C7.12499 2.08213 7.12282 2.04905 7.1271 2.0165C7.13138 1.98394 7.14204 1.95255 7.15845 1.92411L7.31703 1.64946H7C6.9337 1.64946 6.87011 1.62312 6.82322 1.57624C6.77634 1.52936 6.75 1.46577 6.75 1.39946C6.75 1.33316 6.77634 1.26957 6.82322 1.22269C6.87011 1.1758 6.9337 1.14946 7 1.14946H7.31687L7.15845 0.875038C7.1253 0.817606 7.11632 0.749356 7.13349 0.685303C7.15066 0.62125 7.19257 0.56664 7.25 0.533488C7.30743 0.500336 7.37568 0.491357 7.43974 0.508526C7.50379 0.525695 7.5584 0.567606 7.59155 0.625038L7.75 0.899488L7.90845 0.625038C7.9416 0.567606 7.99621 0.525695 8.06026 0.508526C8.12432 0.491357 8.19257 0.500336 8.25 0.533488C8.30743 0.56664 8.34934 0.62125 8.36651 0.685303C8.38368 0.749356 8.3747 0.817606 8.34155 0.875038L8.18312 1.14946Z" fill="#F1D15B"/>
<path d="M2.43298 4.60061H2.75C2.8163 4.60061 2.87989 4.62695 2.92678 4.67384C2.97366 4.72072 3 4.78431 3 4.85061C3 4.91692 2.97366 4.98051 2.92678 5.02739C2.87989 5.07427 2.8163 5.10061 2.75 5.10061H2.43313L2.59155 5.37504C2.60797 5.40348 2.61862 5.43487 2.6229 5.46742C2.62718 5.49998 2.62501 5.53306 2.61651 5.56477C2.60801 5.59649 2.59335 5.62622 2.57336 5.65227C2.55336 5.67832 2.52844 5.70017 2.5 5.71659C2.47156 5.733 2.44017 5.74366 2.40762 5.74794C2.37506 5.75222 2.34198 5.75005 2.31026 5.74155C2.27855 5.73305 2.24882 5.71839 2.22277 5.69839C2.19672 5.6784 2.17487 5.65348 2.15845 5.62504L2 5.35059L1.84155 5.62504C1.82513 5.65348 1.80328 5.6784 1.77723 5.69839C1.75118 5.71839 1.72145 5.73305 1.68974 5.74155C1.65802 5.75005 1.62494 5.75222 1.59239 5.74794C1.55983 5.74366 1.52844 5.733 1.5 5.71659C1.47156 5.70017 1.44664 5.67832 1.42664 5.65227C1.40665 5.62622 1.39199 5.59649 1.38349 5.56477C1.37499 5.53306 1.37282 5.49998 1.3771 5.46742C1.38138 5.43487 1.39203 5.40348 1.40845 5.37504L1.56687 5.10061H1.25C1.1837 5.10061 1.12011 5.07427 1.07322 5.02739C1.02634 4.98051 1 4.91692 1 4.85061C1 4.78431 1.02634 4.72072 1.07322 4.67384C1.12011 4.62695 1.1837 4.60061 1.25 4.60061H1.56702L1.40845 4.32596C1.3753 4.26853 1.36632 4.20028 1.38349 4.13623C1.40066 4.07218 1.44257 4.01757 1.5 3.98441C1.55743 3.95126 1.62568 3.94228 1.68974 3.95945C1.75379 3.97662 1.8084 4.01853 1.84155 4.07596L2 4.35041L2.15845 4.07596C2.1916 4.01853 2.24621 3.97662 2.31026 3.95945C2.37432 3.94228 2.44257 3.95126 2.5 3.98441C2.52844 4.00083 2.55336 4.02268 2.57336 4.04873C2.59335 4.07478 2.60801 4.10451 2.61651 4.13623C2.62501 4.16794 2.62718 4.20102 2.6229 4.23358C2.61862 4.26613 2.60797 4.29753 2.59155 4.32596L2.43298 4.60061Z" fill="#F1D15B"/>
<path d="M14.4331 7.89946H14.75C14.8163 7.89946 14.8799 7.9258 14.9268 7.97269C14.9737 8.01957 15 8.08316 15 8.14946C15 8.21577 14.9737 8.27936 14.9268 8.32624C14.8799 8.37312 14.8163 8.39946 14.75 8.39946H14.433L14.5916 8.67411C14.6247 8.73155 14.6337 8.7998 14.6165 8.86385C14.5993 8.9279 14.5574 8.98251 14.5 9.01566C14.4426 9.04882 14.3743 9.0578 14.3103 9.04063C14.2462 9.02346 14.1916 8.98155 14.1585 8.92411L14 8.64966L13.8416 8.92411C13.8084 8.98155 13.7538 9.02346 13.6897 9.04063C13.6257 9.0578 13.5574 9.04882 13.5 9.01566C13.4426 8.98251 13.4007 8.9279 13.3835 8.86385C13.3663 8.7998 13.3753 8.73155 13.4085 8.67411L13.567 8.39946H13.25C13.1837 8.39946 13.1201 8.37312 13.0732 8.32624C13.0263 8.27936 13 8.21577 13 8.14946C13 8.08316 13.0263 8.01957 13.0732 7.97269C13.1201 7.9258 13.1837 7.89946 13.25 7.89946H13.5669L13.4085 7.62504C13.392 7.5966 13.3814 7.56521 13.3771 7.53265C13.3728 7.5001 13.375 7.46702 13.3835 7.4353C13.392 7.40359 13.4067 7.37386 13.4266 7.34781C13.4466 7.32176 13.4716 7.2999 13.5 7.28349C13.5284 7.26707 13.5598 7.25642 13.5924 7.25214C13.6249 7.24785 13.658 7.25003 13.6897 7.25853C13.7215 7.26703 13.7512 7.28169 13.7772 7.30168C13.8033 7.32167 13.8251 7.3466 13.8416 7.37504L14 7.64949L14.1585 7.37504C14.1749 7.3466 14.1967 7.32167 14.2228 7.30168C14.2488 7.28169 14.2785 7.26703 14.3103 7.25853C14.342 7.25003 14.3751 7.24785 14.4076 7.25214C14.4402 7.25642 14.4716 7.26707 14.5 7.28349C14.5284 7.2999 14.5534 7.32176 14.5734 7.34781C14.5933 7.37386 14.608 7.40359 14.6165 7.4353C14.625 7.46702 14.6272 7.5001 14.6229 7.53265C14.6186 7.56521 14.608 7.5966 14.5916 7.62504L14.4331 7.89946Z" fill="#F1D15B"/>
</g>
<defs>
<clipPath id="clip0_1721_1531">
<rect width="16" height="16" fill="white"/>
</clipPath>
</defs>
</svg>
