<svg width="16" height="16" viewBox="0 0 16 16" fill="none" xmlns="http://www.w3.org/2000/svg">
<g clip-path="url(#clip0_1721_1535)">
<path d="M13.55 8.50294H10.1625V10.6113H6.775V12.7198H3.3875V14.8282H0V15.9991H16V6.39453H13.55V8.50294ZM14.8291 14.1062H13.8916V13.1294L12.3301 14.6909L11.6672 14.028L13.2287 12.4665H12.2519V11.529H14.8291V14.1062Z" fill="#C06A87"/>
<path d="M3.38672 10.6133H5.83669V11.7842H3.38672V10.6133Z" fill="#3E6B8E"/>
<path d="M0 12.7188H2.45V13.8897H0V12.7188Z" fill="#3E6B8E"/>
<path d="M13.5508 4.28516H16.0008V5.45606H13.5508V4.28516Z" fill="#3E6B8E"/>
<path d="M6.77539 8.50391H9.22539V9.67481H6.77539V8.50391Z" fill="#3E6B8E"/>
<path d="M10.1621 6.39453H12.6121V7.56544H10.1621V6.39453Z" fill="#3E6B8E"/>
<path d="M12.3848 0L0 7.70837V11.7812H0.9375V8.22913L3.0125 6.93762V9.67478H3.95V6.35413L6.025 5.06262V7.56637H6.9625V4.47913L9.0375 3.18762V5.45797H9.975V2.60413L12.05 1.31263V3.34959H12.9875V0.9375H15.0625V3.34959H16V0L12.3848 0Z" fill="#C06A87"/>
</g>
<defs>
<clipPath id="clip0_1721_1535">
<rect width="16" height="16" fill="white"/>
</clipPath>
</defs>
</svg>
