<svg width="20" height="20" viewBox="0 0 20 20" fill="none" xmlns="http://www.w3.org/2000/svg">
<g clip-path="url(#clip0_6888_4518)">
<mask id="mask0_6888_4518" style="mask-type:luminance" maskUnits="userSpaceOnUse" x="0" y="0" width="20" height="20">
<path d="M19.9993 0H0V19.9993H19.9993V0Z" fill="white"/>
</mask>
<g mask="url(#mask0_6888_4518)">
<path d="M0.494181 6.64452C0.665034 6.69081 0.848139 6.66698 1.00129 6.57917L9.99932 1.43248L18.9967 6.57849C19.0729 6.62206 19.1566 6.65064 19.2444 6.66222C19.3316 6.67311 19.4194 6.66698 19.5045 6.64452C19.5895 6.62206 19.6692 6.58258 19.7386 6.52812C19.8788 6.41989 19.9707 6.25993 19.9939 6.08431C20.0054 5.99718 19.9993 5.90869 19.9762 5.82361C19.953 5.7392 19.9135 5.66024 19.8605 5.59013C19.8067 5.52002 19.74 5.46148 19.6637 5.41792L18.6305 4.83116C18.6488 4.77671 18.6597 4.72157 18.6631 4.66439V1.33174C18.7523 1.33446 18.8415 1.31949 18.9245 1.2875C19.0082 1.2555 19.0838 1.2065 19.1485 1.14455C19.2124 1.08261 19.2635 1.00841 19.2982 0.926051C19.3329 0.843688 19.3506 0.755198 19.3506 0.666028C19.3506 0.576858 19.3329 0.488368 19.2982 0.406005C19.2635 0.323642 19.2124 0.249447 19.1485 0.187504C19.0838 0.125561 19.0082 0.0765516 18.9245 0.0445593C18.8408 0.0125669 18.7523 -0.00240828 18.6631 0.000314475H14.6641C14.4905 0.00575999 14.3265 0.0785937 14.2067 0.20316C14.0862 0.327726 14.0188 0.493814 14.0188 0.66739C14.0188 0.840965 14.0862 1.00705 14.2067 1.13162C14.3271 1.25619 14.4912 1.32902 14.6641 1.33446V2.57128L10.3329 0.0860813C10.2308 0.0302648 10.1164 0.000995163 10 0.000995163C9.8836 0.000995163 9.76857 0.0302648 9.66646 0.0860813L0.33558 5.4186C0.181744 5.50709 0.0694308 5.65275 0.023144 5.82429C-0.0231429 5.99514 0.000681256 6.17757 0.0884901 6.3314C0.17698 6.48524 0.322647 6.59755 0.4935 6.64384L0.494181 6.64452Z" fill="#315D80"/>
<path d="M19.9749 8.4939C19.9293 8.32168 19.8177 8.17533 19.6645 8.08548L10.3337 2.75501C10.2309 2.69919 10.1165 2.66992 10.0001 2.66992C9.88372 2.66992 9.76936 2.69919 9.66658 2.75501L0.336377 8.08752C0.183222 8.17669 0.0715891 8.32304 0.0253023 8.4939C-0.0209846 8.66475 0.00215887 8.84717 0.089287 9.00169C0.145784 9.09426 0.223383 9.17118 0.316637 9.227C0.409211 9.28281 0.514037 9.31481 0.622947 9.32093V19.3339C0.622947 19.5102 0.693739 19.679 0.818986 19.8042C0.943552 19.9295 1.11304 19.9996 1.28934 20.0003H16.9813V19.9982H18.7163C18.8933 19.9982 19.0628 19.9267 19.1874 19.8022C19.3126 19.6776 19.3821 19.5081 19.3827 19.3311V9.32774C19.4916 9.32229 19.5978 9.28894 19.6911 9.23244C19.7843 9.17527 19.8613 9.09562 19.9164 9.00169C20.0015 8.84649 20.0226 8.66407 19.9749 8.4939ZM14.7425 9.80967L15.7465 8.80565C15.9425 8.61029 16.2604 8.61029 16.4565 8.80565C16.6525 9.00169 16.6525 9.31957 16.4565 9.51561L15.4524 10.5196C15.2564 10.7157 14.9385 10.7157 14.7425 10.5196C14.5464 10.3236 14.5464 10.0057 14.7425 9.80967ZM8.57067 17.2598C8.57067 17.5382 8.34604 17.7622 8.06832 17.7622H6.05961C5.78257 17.7622 5.55794 17.5382 5.55794 17.2598V15.6867H8.57067V17.2598ZM8.57067 14.6834H6.05961C5.22985 14.6834 4.55393 14.0082 4.55393 13.177V11.1683C4.55393 10.3386 5.22985 9.66264 6.05961 9.66264H8.57067V14.6834ZM13.5914 15.1851C13.5914 15.3879 13.4689 15.5717 13.2817 15.6493C13.0966 15.7262 12.8788 15.6847 12.7338 15.5404C12.1892 14.9952 11.4371 14.6834 10.6692 14.6834H9.57469V9.66264H10.6692C11.4371 9.66264 12.1892 9.3502 12.7338 8.80565C12.8774 8.66271 13.0938 8.61846 13.2817 8.69742C13.4689 8.77434 13.5914 8.95744 13.5914 9.16097V15.1851ZM16.4565 15.5404C16.2604 15.7364 15.9425 15.7364 15.7465 15.5404L14.7425 14.5364C14.5464 14.3397 14.5464 14.0225 14.7425 13.8264C14.9385 13.6297 15.2564 13.6297 15.4524 13.8264L16.4565 14.8304C16.6525 15.0265 16.6525 15.3443 16.4565 15.5404ZM16.7968 12.623H15.3769C15.0992 12.6223 14.8745 12.3976 14.8745 12.1206C14.8745 11.8436 15.0992 11.6183 15.3769 11.6183H16.7968C17.0738 11.6183 17.2985 11.8436 17.2985 12.1206C17.2985 12.3976 17.0738 12.6223 16.7968 12.623Z" fill="#315D80"/>
</g>
</g>
<defs>
<clipPath id="clip0_6888_4518">
<rect width="20" height="20" fill="white"/>
</clipPath>
</defs>
</svg>
