<svg width="32" height="28" viewBox="0 0 32 28" fill="none" xmlns="http://www.w3.org/2000/svg">
<path d="M0 3.10256C0 2.27971 0.326876 1.49056 0.90872 0.90872C1.49056 0.326876 2.27971 0 3.10256 0H27.9231C28.7459 0 29.5351 0.326876 30.1169 0.90872C30.6988 1.49056 31.0256 2.27971 31.0256 3.10256V20.1667C31.0256 20.9895 30.6988 21.7787 30.1169 22.3605C29.5351 22.9424 28.7459 23.2692 27.9231 23.2692H20.8089L16.6096 27.4686C16.3187 27.7594 15.9242 27.9227 15.5128 27.9227C15.1015 27.9227 14.707 27.7594 14.4161 27.4686L10.2167 23.2692H3.10256C2.27971 23.2692 1.49056 22.9424 0.90872 22.3605C0.326876 21.7787 0 20.9895 0 20.1667V3.10256ZM27.9231 3.10256H3.10256V20.1667H10.859C11.2704 20.1668 11.6649 20.3302 11.9557 20.6212L15.5128 24.1783L19.0699 20.6212C19.3608 20.3302 19.7553 20.1668 20.1667 20.1667H27.9231V3.10256Z" fill="#F8FAFF"/>
<path d="M17.8394 11.6336C17.8394 12.2507 17.5943 12.8426 17.1579 13.2789C16.7215 13.7153 16.1297 13.9605 15.5125 13.9605C14.8954 13.9605 14.3035 13.7153 13.8671 13.2789C13.4308 12.8426 13.1856 12.2507 13.1856 11.6336C13.1856 11.0164 13.4308 10.4246 13.8671 9.98818C14.3035 9.5518 14.8954 9.30664 15.5125 9.30664C16.1297 9.30664 16.7215 9.5518 17.1579 9.98818C17.5943 10.4246 17.8394 11.0164 17.8394 11.6336ZM24.0446 11.6336C24.0446 12.2507 23.7994 12.8426 23.363 13.2789C22.9266 13.7153 22.3348 13.9605 21.7176 13.9605C21.1005 13.9605 20.5086 13.7153 20.0723 13.2789C19.6359 12.8426 19.3907 12.2507 19.3907 11.6336C19.3907 11.0164 19.6359 10.4246 20.0723 9.98818C20.5086 9.5518 21.1005 9.30664 21.7176 9.30664C22.3348 9.30664 22.9266 9.5518 23.363 9.98818C23.7994 10.4246 24.0446 11.0164 24.0446 11.6336ZM11.6343 11.6336C11.6343 12.2507 11.3892 12.8426 10.9528 13.2789C10.5164 13.7153 9.92453 13.9605 9.30739 13.9605C8.69025 13.9605 8.09839 13.7153 7.66201 13.2789C7.22563 12.8426 6.98047 12.2507 6.98047 11.6336C6.98047 11.0164 7.22563 10.4246 7.66201 9.98818C8.09839 9.5518 8.69025 9.30664 9.30739 9.30664C9.92453 9.30664 10.5164 9.5518 10.9528 9.98818C11.3892 10.4246 11.6343 11.0164 11.6343 11.6336Z" fill="#F8FAFF"/>
</svg>
