<svg width="27" height="27" viewBox="0 0 27 27" fill="none" xmlns="http://www.w3.org/2000/svg">
<path d="M3.02881e-05 0H10.7748L12.6422 8.40129L10.3064 10.7371C11.6791 12.875 13.4965 14.6919 15.6347 16.0642L17.9705 13.7296L26.3718 15.597V26.3718H25.116C20.2817 26.3793 15.5489 24.9852 11.4906 22.3582C8.49832 20.4217 5.95008 17.8735 4.01356 14.8812C1.38662 10.8229 -0.00749285 6.0901 3.02881e-05 1.2558V0ZM2.54553 2.5116C2.75674 6.42966 3.99024 10.2241 6.1233 13.5174C7.86682 16.211 10.1608 18.505 12.8544 20.2485C16.1477 22.3816 19.9421 23.6151 23.8602 23.8263V17.6113L18.7704 16.4811L16.0403 19.2125L15.2077 18.739C12.0466 16.9424 9.42939 14.3252 7.63277 11.164L7.15934 10.3315L9.8907 7.60135L8.76048 2.5116H2.54553Z" fill="#92A3B4"/>
</svg>
