<svg width="28" height="27" viewBox="0 0 28 27" fill="none" xmlns="http://www.w3.org/2000/svg">
<path fill-rule="evenodd" clip-rule="evenodd" d="M12.7917 26.8713C11.7035 26.639 10.6914 26.0956 9.8748 25.2927C9.83522 25.2537 9.79609 25.2142 9.75744 25.1741C9.21817 24.6141 8.79215 23.9585 8.4947 23.2456C8.17155 22.4712 8.00013 21.6291 8.00008 20.7688V15.5763L8.00008 15.5734C8.0003 15.3391 8.02593 15.1075 8.07539 14.8826C8.17065 14.4496 8.35432 14.0414 8.61505 13.6866C8.69569 13.5768 8.78371 13.4722 8.87876 13.3735C8.90459 13.3467 8.93083 13.3204 8.95749 13.2947C9.04551 13.2097 9.13796 13.1307 9.23426 13.0579C9.32244 12.9912 9.41385 12.9297 9.50803 12.8737C9.79164 12.7048 10.1004 12.585 10.4221 12.5194C10.6111 12.4809 10.8046 12.4611 11.0001 12.4611H17C17.1955 12.4611 17.389 12.4809 17.578 12.5194C17.9001 12.5851 18.2093 12.7051 18.4932 12.8743C18.587 12.9302 18.678 12.9915 18.7659 13.0579C18.8622 13.1307 18.9546 13.2097 19.0426 13.2947C19.0693 13.3204 19.0955 13.3467 19.1214 13.3735C19.2164 13.4722 19.3044 13.5768 19.3851 13.6866C19.6456 14.0412 19.8292 14.4491 19.9245 14.8818C19.9743 15.1079 20 15.3407 20 15.5763V20.7683C20 21.6288 19.8286 22.471 19.5054 23.2456C19.208 23.9585 18.782 24.6141 18.2427 25.1741C18.2039 25.2144 18.1646 25.2541 18.1248 25.2932C17.3072 26.0969 16.2936 26.6405 15.2039 26.8723C14.8107 26.9559 14.4075 26.9989 14.0001 26.9989C13.5911 26.9989 13.1864 26.9556 12.7917 26.8713ZM6.62892 23.9984C6.21372 22.9762 5.99989 21.8779 6.00009 20.7684V15.5763C5.99989 15.4367 6.00511 15.2972 6.01571 15.1583C6.03322 14.9289 6.06539 14.7008 6.11209 14.4756L2.22411 15.5555C1.84353 15.6614 1.48675 15.844 1.17415 16.093C0.861536 16.342 0.599219 16.6525 0.402172 17.0067C0.205125 17.361 0.0772077 17.7521 0.0257243 18.1577C-0.0257591 18.5633 0.000199534 18.9755 0.102118 19.3707L0.880115 22.3821C1.29214 23.9776 2.2974 25.3378 3.67492 26.1638C3.96552 26.3381 4.26766 26.4856 4.57798 26.6058C5.45433 26.9453 6.39584 27.0675 7.32641 26.962C7.56189 26.9353 7.79667 26.8941 8.02952 26.838C8.0952 26.8222 8.16073 26.8053 8.22608 26.7871L8.42608 26.729C8.37996 26.6824 8.33441 26.6354 8.28943 26.5878C8.23166 26.5266 8.17485 26.4646 8.119 26.4017C8.11653 26.3989 8.11406 26.3961 8.11159 26.3933C7.49043 25.692 6.98933 24.8839 6.63122 24.0041C6.63045 24.0022 6.62969 24.0003 6.62892 23.9984ZM2.82045 12.2763C3.19916 12.3977 3.59649 12.4611 4.0001 12.4611C4.50882 12.4611 5.00755 12.3604 5.47161 12.1698C5.81966 12.0268 6.14822 11.8331 6.44685 11.5934C6.5518 11.5091 6.65305 11.4191 6.75015 11.3236C6.77658 11.2977 6.80271 11.2713 6.82852 11.2445C6.86319 11.2085 6.89715 11.1719 6.93041 11.1347C6.99237 11.0655 7.05186 10.9942 7.10883 10.9212C7.30399 10.6709 7.46947 10.3991 7.60289 10.1119C7.86188 9.55426 8.00008 8.93822 8.00008 8.30737C8.00008 7.20574 7.57866 6.14924 6.82852 5.37027C6.76926 5.30873 6.70833 5.24933 6.64585 5.1921C6.44932 5.01211 6.23739 4.85366 6.01348 4.71822C5.40739 4.35163 4.71357 4.15368 4.0001 4.15368C2.93924 4.15368 1.92183 4.5913 1.17169 5.37027C0.421544 6.14924 0.000118491 7.20574 0.000118491 8.30737C0.000118491 9.40899 0.421544 10.4655 1.17169 11.2445C1.63643 11.7271 2.20376 12.0786 2.82045 12.2763ZM9.24909 3.57399C9.08561 4.09153 9.00008 4.63724 9.00008 5.1921C9.00008 6.32199 9.35474 7.41391 10.0001 8.30737C10.1412 8.50279 10.2963 8.68872 10.4645 8.86348C10.6128 9.01745 10.7695 9.16076 10.9333 9.29292C11.0055 9.35114 11.0791 9.4072 11.154 9.46105C11.9844 10.058 12.9761 10.3842 14.0001 10.3842C15.0241 10.3842 16.0157 10.058 16.8461 9.46105C16.921 9.4072 16.9946 9.35114 17.0668 9.29292C17.2307 9.16076 17.3873 9.01745 17.5356 8.86348C17.7039 8.68872 17.8589 8.50279 18.0001 8.30737C18.6454 7.41391 19 6.32199 19 5.1921C19 4.63724 18.9145 4.09153 18.751 3.57399C18.5088 2.80712 18.0954 2.10209 17.5356 1.52073C16.5979 0.547024 15.3261 0 14.0001 0C12.674 0 11.4022 0.547024 10.4645 1.52073C9.90469 2.10209 9.49132 2.80712 9.24909 3.57399ZM21.9866 4.71822C21.7627 4.85366 21.5508 5.01211 21.3543 5.1921C21.2918 5.24933 21.2309 5.30873 21.1716 5.37027C20.4215 6.14924 20 7.20574 20 8.30737C20 8.93822 20.1382 9.55427 20.3972 10.1119C20.5306 10.3991 20.6961 10.6709 20.8913 10.9212C20.9482 10.9941 21.0076 11.0652 21.0694 11.1344C21.1028 11.1717 21.1368 11.2084 21.1716 11.2445C21.1974 11.2713 21.2235 11.2977 21.25 11.3236C21.3471 11.4191 21.4483 11.5091 21.5533 11.5933C21.852 11.8332 22.1806 12.0269 22.5288 12.1699C22.9928 12.3605 23.4914 12.4611 24 12.4611C24.4034 12.4611 24.8005 12.3978 25.1791 12.2765C25.796 12.0789 26.3635 11.7272 26.8284 11.2445C27.5786 10.4655 28 9.40899 28 8.30737C28 7.20574 27.5786 6.14924 26.8284 5.37027C26.0783 4.5913 25.0609 4.15368 24 4.15368C23.2865 4.15368 22.5927 4.35163 21.9866 4.71822ZM21.888 14.4756C21.9341 14.6981 21.9659 14.9256 21.9836 15.158C21.994 15.2957 21.9995 15.4352 22 15.5763V20.7684C22 21.8784 21.7857 22.9771 21.3699 23.9996L21.368 24.0043C20.9761 24.9662 20.4134 25.8422 19.7097 26.5868C19.6644 26.6347 19.6185 26.6821 19.572 26.729C19.7045 26.7709 19.8383 26.8081 19.973 26.8403C20.2038 26.8956 20.4375 26.9366 20.6726 26.9632C21.0978 27.0113 21.5277 27.0124 21.9546 26.9655C22.4567 26.9105 22.9489 26.79 23.4198 26.6077C23.6999 26.4993 23.9724 26.3691 24.235 26.2178C24.9392 25.8122 25.5575 25.2636 26.0531 24.6046C26.5488 23.9456 26.9116 23.1898 27.12 22.3821L27.896 19.3728C27.9982 18.9774 28.0244 18.5651 27.9731 18.1592C27.9217 17.7534 27.7939 17.362 27.5968 17.0075C27.3997 16.653 27.1373 16.3423 26.8245 16.0932C26.5118 15.844 26.1548 15.6613 25.774 15.5555L21.888 14.4756ZM12.6255 3.60169C12.2372 4.00486 12.0001 4.57499 12.0001 5.1921C12.0001 5.80922 12.2372 6.37935 12.6255 6.78251C13.01 7.18183 13.5069 7.38421 14.0001 7.38421C14.4932 7.38421 14.9901 7.18183 15.3747 6.78251C15.7629 6.37935 16 5.80922 16 5.1921C16 4.57499 15.7629 4.00486 15.3747 3.60169C14.9901 3.20238 14.4932 3 14.0001 3C13.5069 3 13.01 3.20238 12.6255 3.60169ZM11.0341 15.4611C11.0202 15.4792 11.0001 15.5185 11.0001 15.5763V20.7684C11.0001 21.6609 11.3426 22.4952 11.9184 23.0931C12.4904 23.6872 13.2417 23.9989 14.0001 23.9989C14.7584 23.9989 15.5097 23.6872 16.0818 23.0931C16.6575 22.4952 17 21.6609 17 20.7684V15.5763C17 15.5185 16.9799 15.4792 16.966 15.4611H11.0341ZM3.33261 7.45123C3.1319 7.65965 3.00012 7.96566 3.00012 8.30737C3.00012 8.64908 3.1319 8.95508 3.33261 9.1635C3.52962 9.36808 3.77217 9.46105 4.0001 9.46105C4.22803 9.46105 4.47059 9.36808 4.66759 9.1635C4.8683 8.95508 5.00008 8.64908 5.00008 8.30737C5.00008 7.96566 4.8683 7.65965 4.66759 7.45123C4.47059 7.24666 4.22803 7.15368 4.0001 7.15368C3.77217 7.15368 3.52962 7.24665 3.33261 7.45123ZM23.3325 7.45123C23.1318 7.65966 23 7.96566 23 8.30737C23 8.64907 23.1318 8.95508 23.3325 9.1635C23.5295 9.36808 23.7721 9.46105 24 9.46105C24.2279 9.46105 24.4705 9.36808 24.6675 9.1635C24.8682 8.95508 25 8.64907 25 8.30737C25 7.96566 24.8682 7.65966 24.6675 7.45123C24.4705 7.24665 24.2279 7.15368 24 7.15368C23.7721 7.15368 23.5295 7.24665 23.3325 7.45123Z" fill="#92A3B4"/>
</svg>
