<svg width="20" height="20" viewBox="0 0 20 20" fill="none" xmlns="http://www.w3.org/2000/svg">
<path d="M15.5993 12.3009C15.891 11.5926 16.0493 10.8342 16.0493 10.0009C16.0493 9.40089 15.9577 8.82589 15.7993 8.29256C15.2577 8.41756 14.691 8.48422 14.0993 8.48422C12.8877 8.48552 11.6934 8.19549 10.6173 7.63858C9.54117 7.08166 8.61471 6.27419 7.91601 5.28422C7.16931 7.09317 5.75911 8.5481 3.97435 9.35089C3.94102 9.55922 3.94102 9.78422 3.94102 10.0009C3.94102 10.7965 4.09772 11.5843 4.40218 12.3193C4.70664 13.0543 5.15289 13.7222 5.71546 14.2848C6.85162 15.4209 8.39258 16.0592 9.99935 16.0592C10.8743 16.0592 11.716 15.8676 12.4743 15.5259C12.9493 16.4342 13.166 16.8842 13.1493 16.8842C11.7827 17.3426 10.7243 17.5676 9.99935 17.5676C7.98268 17.5676 6.05768 16.7759 4.64102 15.3509C3.77856 14.4925 3.13791 13.4371 2.77435 12.2759H1.66602V8.48422H2.57435C2.84955 7.14465 3.48226 5.90457 4.40534 4.89555C5.32842 3.88654 6.50744 3.14623 7.81729 2.75319C9.12714 2.36015 10.519 2.32903 11.8451 2.66315C13.1712 2.99726 14.3821 3.68414 15.3493 4.65089C16.3992 5.69721 17.1154 7.03113 17.4077 8.48422H18.3327V12.2759H18.2827L15.316 15.0009L10.8993 14.5009V13.1092H14.9243L15.5993 12.3009ZM7.72435 9.80922C7.97435 9.80922 8.21601 9.90922 8.39101 10.0926C8.56689 10.2699 8.66557 10.5095 8.66557 10.7592C8.66557 11.009 8.56689 11.2486 8.39101 11.4259C8.21601 11.6009 7.97435 11.7009 7.72435 11.7009C7.19935 11.7009 6.77435 11.2842 6.77435 10.7592C6.77435 10.2342 7.19935 9.80922 7.72435 9.80922ZM12.266 9.80922C12.791 9.80922 13.2077 10.2342 13.2077 10.7592C13.2077 11.2842 12.791 11.7009 12.266 11.7009C11.741 11.7009 11.316 11.2842 11.316 10.7592C11.316 10.5073 11.4161 10.2656 11.5943 10.0875C11.7724 9.90931 12.0141 9.80922 12.266 9.80922Z" fill="#315D80"/>
</svg>
