<svg width="22" height="22" viewBox="0 0 22 22" fill="none" xmlns="http://www.w3.org/2000/svg">
<path d="M21.076 9.15245H19.4381C19.2205 8.15311 18.826 7.20069 18.2735 6.34004L19.4318 5.18167C19.7926 4.82114 19.7928 4.23635 19.4323 3.87559C19.4321 3.87546 19.432 3.87532 19.4318 3.87514L18.1253 2.56861C17.7648 2.20781 17.18 2.20763 16.8192 2.56816C16.8191 2.5683 16.819 2.56843 16.8188 2.56861L15.66 3.72653C14.7994 3.17379 13.8469 2.77923 12.8476 2.56143V0.924C12.8478 0.413959 12.4345 0.000269388 11.9244 0C11.9243 0 11.9241 0 11.924 0H10.076C9.56591 0 9.15245 0.41351 9.15245 0.923551V0.924V2.56188C8.15293 2.7804 7.20051 3.17572 6.34004 3.72922L5.18167 2.57086C4.82114 2.21006 4.23635 2.20988 3.87559 2.57041C3.87546 2.57054 3.87532 2.57068 3.87514 2.57086L2.56861 3.87739C2.20781 4.23792 2.20763 4.82271 2.56816 5.18347L2.56861 5.18392L3.72653 6.34004C3.17379 7.20064 2.77923 8.15307 2.56143 9.15245H0.924C0.413959 9.15218 0.000269388 9.56546 0 10.0756V10.076V11.924C0 12.4341 0.413465 12.8476 0.923551 12.8476H0.924H2.56188C2.7804 13.8471 3.17572 14.7995 3.72922 15.66L2.57086 16.8183C2.21006 17.1789 2.20988 17.7637 2.57041 18.1244C2.57054 18.1245 2.57068 18.1247 2.57086 18.1249L3.87739 19.4314C4.23792 19.7922 4.82271 19.7924 5.18347 19.4318C5.1836 19.4317 5.18374 19.4316 5.18392 19.4314L6.34229 18.273C7.20289 18.8258 8.15531 19.2203 9.15469 19.4381V21.076C9.15442 21.5854 9.56663 21.9987 10.076 22H11.924C12.4341 22 12.8476 21.5865 12.8476 21.0764C12.8476 21.0763 12.8476 21.0761 12.8476 21.076V19.4381C13.8469 19.2205 14.7993 18.826 15.66 18.2735L16.8183 19.4318C17.1789 19.7926 17.7637 19.7928 18.1244 19.4323C18.1245 19.4321 18.1247 19.432 18.1249 19.4318L19.4314 18.1253C19.7922 17.7648 19.7924 17.18 19.4318 16.8192C19.4317 16.8191 19.4316 16.819 19.4314 16.8188L18.2735 15.66C18.8262 14.7994 19.2208 13.8469 19.4386 12.8476H21.0764C21.5865 12.8476 22 12.434 22 11.924V10.076C22 9.56591 21.5865 9.15245 21.0764 9.15245C21.0763 9.15245 21.0761 9.15245 21.076 9.15245ZM11 17.4132C7.45809 17.4155 4.58498 14.546 4.58273 11.004C4.58049 7.46213 7.45001 4.58902 10.9919 4.58678C14.5338 4.58453 17.4069 7.45405 17.4092 10.996V11C17.4104 14.5407 14.5411 17.412 11.0004 17.4132C11.0003 17.4132 11.0001 17.4132 11 17.4132Z" fill="#63829E"/>
<path d="M14.1535 12.1613C13.1186 13.1939 11.3142 13.0696 10.1235 11.8789C8.93277 10.6882 8.80616 8.88372 9.84106 7.84882C10.4737 7.21666 11.3932 7.01776 12.2849 7.23057C12.4842 7.27749 12.6078 7.47715 12.5609 7.6765C12.5451 7.74362 12.511 7.805 12.4622 7.85376L11.3222 8.99372C11.0973 9.21879 11.0973 9.58354 11.3222 9.80861L12.1937 10.6801C12.4188 10.905 12.7835 10.905 13.0086 10.6801L14.1486 9.54012C14.2928 9.3947 14.5276 9.3938 14.673 9.53806C14.7226 9.58727 14.7573 9.64945 14.7731 9.71747C14.9846 10.6091 14.7857 11.5287 14.1535 12.1613Z" fill="#63829E"/>
<path d="M10.7344 12.3656L8.428 14.672C8.18918 14.9112 7.80171 14.9115 7.56254 14.6727C7.56232 14.6724 7.56209 14.6722 7.56191 14.672L7.328 14.4381C7.08882 14.1993 7.08855 13.8118 7.32737 13.5727C7.32759 13.5724 7.32782 13.5722 7.328 13.572L9.6344 11.2656C9.91448 11.7097 10.2903 12.0856 10.7344 12.3656Z" fill="#63829E"/>
</svg>
