<svg width="14" height="19" viewBox="0 0 14 19" fill="none" xmlns="http://www.w3.org/2000/svg">
<path d="M6.9991 12C6.16577 12 5.45743 11.7083 4.8741 11.125C4.29077 10.5417 3.9991 9.83333 3.9991 9V3C3.9991 2.16667 4.29077 1.45833 4.8741 0.875C5.45743 0.291667 6.16577 0 6.9991 0C7.83243 0 8.54077 0.291667 9.1241 0.875C9.70743 1.45833 9.9991 2.16667 9.9991 3V9C9.9991 9.83333 9.70743 10.5417 9.1241 11.125C8.54077 11.7083 7.83243 12 6.9991 12ZM5.9991 18V15.925C4.46577 15.7083 3.15343 15.0583 2.0621 13.975C0.970766 12.8917 0.308099 11.575 0.0740985 10.025C0.0407652 9.74167 0.115766 9.5 0.299099 9.3C0.482432 9.1 0.715765 9 0.999099 9C1.28243 9 1.5201 9.096 1.7121 9.288C1.9041 9.48 2.0331 9.71733 2.0991 10C2.33243 11.1667 2.91177 12.125 3.8371 12.875C4.76243 13.625 5.81643 14 6.9991 14C8.1991 14 9.25743 13.621 10.1741 12.863C11.0908 12.105 11.6658 11.1507 11.8991 10C11.9658 9.71667 12.0951 9.47933 12.2871 9.288C12.4791 9.09667 12.7164 9.00067 12.9991 9C13.2818 8.99933 13.5151 9.09933 13.6991 9.3C13.8831 9.50067 13.9581 9.74233 13.9241 10.025C13.6908 11.5417 13.0324 12.85 11.9491 13.95C10.8658 15.05 9.5491 15.7083 7.9991 15.925V18C7.9991 18.2833 7.9031 18.521 7.7111 18.713C7.5191 18.905 7.28177 19.0007 6.9991 19C6.71643 18.9993 6.4791 18.9033 6.2871 18.712C6.0951 18.5207 5.9991 18.2833 5.9991 18ZM6.9991 10C7.28243 10 7.5201 9.904 7.7121 9.712C7.9041 9.52 7.99977 9.28267 7.9991 9V3C7.9991 2.71667 7.9031 2.47933 7.7111 2.288C7.5191 2.09667 7.28177 2.00067 6.9991 2C6.71643 1.99933 6.4791 2.09533 6.2871 2.288C6.0951 2.48067 5.9991 2.718 5.9991 3V9C5.9991 9.28333 6.0951 9.521 6.2871 9.713C6.4791 9.905 6.71643 10.0007 6.9991 10Z" fill="#97B1C8"/>
</svg>
