<svg width="20" height="20" viewBox="0 0 20 20" fill="none" xmlns="http://www.w3.org/2000/svg">
<g clip-path="url(#clip0_6888_4250)">
<mask id="mask0_6888_4250" style="mask-type:luminance" maskUnits="userSpaceOnUse" x="0" y="0" width="20" height="20">
<path d="M19.9993 0H0V19.9993H19.9993V0Z" fill="white"/>
</mask>
<g mask="url(#mask0_6888_4250)">
<path d="M0.493766 6.64577C0.664896 6.69231 0.847483 6.66868 1.00143 6.57989L9.99899 1.43454L18.9966 6.58061C19.0732 6.62429 19.1569 6.65293 19.2443 6.66438C19.3317 6.67513 19.419 6.6694 19.5042 6.64648C19.5894 6.62357 19.6689 6.58419 19.7384 6.52977C19.8787 6.42165 19.9704 6.26198 19.9933 6.08655C20.0047 5.9992 19.999 5.91113 19.9754 5.82592C19.9517 5.74143 19.9131 5.66267 19.8594 5.5925C19.8057 5.52233 19.7391 5.46433 19.6625 5.42065L18.6292 4.83423C18.6479 4.77981 18.6586 4.72396 18.6622 4.66739V1.33358C18.7517 1.33645 18.8405 1.32141 18.9235 1.28919C19.0066 1.25697 19.0825 1.20828 19.1469 1.14598C19.2107 1.08369 19.2622 1.00922 19.2966 0.92688C19.3309 0.844537 19.3488 0.756466 19.3488 0.666963C19.3488 0.57746 19.3309 0.489389 19.2966 0.407046C19.2622 0.324703 19.2107 0.250237 19.1469 0.187942C19.0825 0.125648 19.0066 0.0769587 18.9235 0.0447376C18.8405 0.0125165 18.7517 -0.00252004 18.6622 0.000344059H14.6625C14.4892 0.00607226 14.3252 0.0783907 14.2049 0.202979C14.0846 0.327567 14.0173 0.493685 14.0173 0.666963C14.0173 0.840241 14.0846 1.00636 14.2049 1.13095C14.3259 1.25554 14.4892 1.32785 14.6625 1.33358V2.57016L10.3327 0.0876991C10.2303 0.0318491 10.1164 0.00249213 9.99971 0.00249213C9.883 0.00249213 9.76843 0.0318491 9.66604 0.0876991L0.335525 5.42065C0.18158 5.50872 0.0691638 5.65479 0.0233382 5.82592C-0.0232034 5.99705 0.000425418 6.17964 0.0892125 6.33358C0.177284 6.48753 0.323352 6.59994 0.494482 6.64577H0.493766Z" fill="#315D80"/>
<path d="M19.9751 8.49478C19.9293 8.32222 19.8183 8.17615 19.6651 8.08665L10.3338 2.75513C10.2314 2.69928 10.1169 2.66992 10.0009 2.66992C9.88488 2.66992 9.7696 2.69928 9.6672 2.75513L0.335972 8.08808C0.183459 8.17758 0.0710433 8.32365 0.0252177 8.49478C-0.0206078 8.6652 0.00158893 8.84778 0.0889439 9.00244C0.14551 9.09481 0.223557 9.17214 0.31664 9.22799C0.409007 9.28384 0.514262 9.31606 0.622382 9.32179V19.3347C0.622382 19.5108 0.693269 19.6805 0.818573 19.8051C0.943161 19.9304 1.11286 20.0006 1.289 20.0013H16.9807V19.9991H18.7163C18.8932 19.9991 19.0622 19.9283 19.1868 19.803C19.3121 19.6784 19.3815 19.5087 19.3822 19.3325V9.32895C19.4911 9.32322 19.597 9.29029 19.6901 9.233C19.7832 9.17644 19.8605 9.09624 19.9157 9.00244C20.0009 8.84778 20.0216 8.6652 19.9744 8.49478H19.9751Z" fill="#315D80"/>
</g>
<path d="M3.30931 10.7617H4.24873L5.95144 13.7533V10.7617H6.78704V15.0514H5.89058L4.14419 12.0076V15.0514H3.30859V10.7617H3.30931Z" fill="white"/>
<path d="M10.7998 11.5227H8.53V12.4334H10.6136V13.1788H8.53V14.2822H10.905V15.0534H7.6543V10.7637H10.8005V11.5234L10.7998 11.5227Z" fill="white"/>
<path d="M12.1867 10.7624L12.7531 13.2191L12.8762 13.9029L13.0001 13.2334L13.4848 10.7624H14.4307L14.9405 13.2184L15.0708 13.9022L15.2033 13.2449L15.7754 10.7617H16.6883L15.4811 15.0514H14.6226L14.1042 12.5425L13.9531 11.7133L13.802 12.5425L13.2836 15.0514H12.4509L11.2344 10.7617H12.186L12.1867 10.7624Z" fill="white"/>
</g>
<defs>
<clipPath id="clip0_6888_4250">
<rect width="20" height="20" fill="white"/>
</clipPath>
</defs>
</svg>
