<svg width="22" height="22" viewBox="0 0 22 22" fill="none" xmlns="http://www.w3.org/2000/svg">
<path d="M2.25977 8.09961V9.29844H19.7395V8.09961C19.7395 7.46152 20.2615 6.93945 20.8996 6.93945H1.09961C1.7377 6.93945 2.25977 7.46152 2.25977 8.09961Z" fill="#63829E"/>
<path d="M2.83984 17.4199H6.32031C6.00026 17.4199 5.74023 17.1599 5.74023 16.8398V11.0391C5.74023 10.719 6.00026 10.459 6.32031 10.459H2.83984C3.15989 10.459 3.41992 10.719 3.41992 11.0391V16.8398C3.41992 17.1599 3.15989 17.4199 2.83984 17.4199Z" fill="#63829E"/>
<path d="M19.7395 18.5801H2.25977V19.7402H1.09961V20.9004H20.8996V19.7402H19.7395V18.5801Z" fill="#63829E"/>
<path d="M15.6797 17.4199H19.1602C18.8401 17.4199 18.5801 17.1599 18.5801 16.8398V11.0391C18.5801 10.719 18.8401 10.459 19.1602 10.459H15.6797C15.9997 10.459 16.2598 10.719 16.2598 11.0391V16.8398C16.2598 17.1599 15.9997 17.4199 15.6797 17.4199Z" fill="#63829E"/>
<path d="M11 15.6797C10.68 15.6797 10.4199 15.4197 10.4199 15.0996H9.25977C9.25977 15.8549 9.74618 16.4927 10.4199 16.733V17.4199H11.5801V16.733C12.2538 16.4928 12.7402 15.8549 12.7402 15.0996C12.7402 14.14 11.9596 13.3594 11 13.3594C10.68 13.3594 10.4199 13.0993 10.4199 12.7793C10.4199 12.4592 10.68 12.1992 11 12.1992C11.32 12.1992 11.5801 12.4592 11.5801 12.7793H12.7402C12.7402 12.024 12.2538 11.3862 11.5801 11.1459V10.459H10.4199V11.1459C9.74618 11.3861 9.25977 12.024 9.25977 12.7793C9.25977 13.7389 10.0404 14.5195 11 14.5195C11.32 14.5195 11.5801 14.7796 11.5801 15.0996C11.5801 15.4197 11.32 15.6797 11 15.6797Z" fill="#63829E"/>
<path d="M1.09961 3.58493V5.77891H20.8996V3.58493L10.9996 1.09961L1.09961 3.58493ZM11.5797 4.03867H10.4195V2.87852H11.5797V4.03867Z" fill="#63829E"/>
</svg>
