<svg width="20" height="20" viewBox="0 0 20 20" fill="none" xmlns="http://www.w3.org/2000/svg">
<g clip-path="url(#clip0_6888_4223)">
<path fill-rule="evenodd" clip-rule="evenodd" d="M18.125 10C18.125 12.1549 17.269 14.2215 15.7452 15.7452C14.2215 17.269 12.1549 18.125 10 18.125C7.84512 18.125 5.77849 17.269 4.25476 15.7452C2.73102 14.2215 1.875 12.1549 1.875 10C1.875 7.84512 2.73102 5.77849 4.25476 4.25476C5.77849 2.73102 7.84512 1.875 10 1.875C12.1549 1.875 14.2215 2.73102 15.7452 4.25476C17.269 5.77849 18.125 7.84512 18.125 10ZM20 10C20 12.6522 18.9464 15.1957 17.0711 17.0711C15.1957 18.9464 12.6522 20 10 20C7.34784 20 4.8043 18.9464 2.92893 17.0711C1.05357 15.1957 0 12.6522 0 10C0 7.34784 1.05357 4.8043 2.92893 2.92893C4.8043 1.05357 7.34784 0 10 0C12.6522 0 15.1957 1.05357 17.0711 2.92893C18.9464 4.8043 20 7.34784 20 10ZM6.565 5.875C6.99557 5.62727 7.50686 5.56052 7.9866 5.68942C8.46634 5.81832 8.87532 6.13233 9.12375 6.5625C9.20532 6.70597 9.22684 6.87589 9.18359 7.03517C9.14035 7.19444 9.03586 7.33015 8.89293 7.41267C8.75 7.49519 8.58024 7.51783 8.42068 7.47565C8.26112 7.43346 8.12472 7.32988 8.04125 7.1875C7.98642 7.09272 7.90765 7.01402 7.81283 6.95926C7.71802 6.9045 7.61048 6.87561 7.50099 6.87548C7.39149 6.87536 7.28389 6.904 7.18894 6.95854C7.094 7.01308 7.01505 7.0916 6.96 7.18625C6.87679 7.32963 6.74003 7.43409 6.5798 7.47663C6.41957 7.51918 6.24901 7.49634 6.10563 7.41313C5.96224 7.32991 5.85779 7.19315 5.81524 7.03292C5.77269 6.8727 5.79554 6.70213 5.87875 6.55875C6.044 6.2745 6.27985 6.03869 6.565 5.875ZM10 15C11.3261 15 12.5979 14.4732 13.5355 13.5355C14.4732 12.5979 15 11.3261 15 10H5C5 11.3261 5.52678 12.5979 6.46447 13.5355C7.40215 14.4732 8.67392 15 10 15ZM11.565 5.875C11.9956 5.62727 12.5069 5.56052 12.9866 5.68942C13.4663 5.81832 13.8753 6.13233 14.1237 6.5625C14.1654 6.63361 14.1926 6.71226 14.2038 6.79392C14.215 6.87559 14.2099 6.95865 14.1888 7.03834C14.1677 7.11803 14.1311 7.19276 14.0811 7.25824C14.031 7.32371 13.9685 7.37864 13.8971 7.41985C13.8257 7.46107 13.7469 7.48775 13.6651 7.49838C13.5834 7.509 13.5004 7.50335 13.4208 7.48176C13.3413 7.46016 13.2668 7.42304 13.2016 7.37254C13.1365 7.32204 13.082 7.25915 13.0412 7.1875C12.9864 7.09272 12.9077 7.01402 12.8128 6.95926C12.718 6.9045 12.6105 6.87561 12.501 6.87548C12.3915 6.87536 12.2839 6.904 12.1889 6.95854C12.094 7.01308 12.015 7.0916 11.96 7.18625C11.8768 7.32963 11.74 7.43409 11.5798 7.47663C11.4196 7.51918 11.249 7.49634 11.1056 7.41313C10.9622 7.32991 10.8578 7.19315 10.8152 7.03292C10.7727 6.8727 10.7955 6.70213 10.8787 6.55875C11.044 6.2745 11.2811 6.03869 11.5662 5.875H11.565Z" fill="#63829E"/>
</g>
<defs>
<clipPath id="clip0_6888_4223">
<rect width="20" height="20" fill="white"/>
</clipPath>
</defs>
</svg>
