<svg width="20" height="18" viewBox="0 0 20 18" fill="none" xmlns="http://www.w3.org/2000/svg">
<path d="M0 2C0 1.46957 0.210714 0.960859 0.585786 0.585786C0.960859 0.210714 1.46957 0 2 0H18C18.5304 0 19.0391 0.210714 19.4142 0.585786C19.7893 0.960859 20 1.46957 20 2V13C20 13.5304 19.7893 14.0391 19.4142 14.4142C19.0391 14.7893 18.5304 15 18 15H13.414L10.707 17.707C10.5195 17.8945 10.2652 17.9998 10 17.9998C9.73484 17.9998 9.48053 17.8945 9.293 17.707L6.586 15H2C1.46957 15 0.960859 14.7893 0.585786 14.4142C0.210714 14.0391 0 13.5304 0 13V2ZM18 2H2V13H7C7.26519 13.0001 7.51951 13.1054 7.707 13.293L10 15.586L12.293 13.293C12.4805 13.1054 12.7348 13.0001 13 13H18V2Z" fill="white"/>
<path d="M11.5 7.5C11.5 7.89782 11.342 8.27936 11.0607 8.56066C10.7794 8.84196 10.3978 9 10 9C9.60218 9 9.22064 8.84196 8.93934 8.56066C8.65804 8.27936 8.5 7.89782 8.5 7.5C8.5 7.10218 8.65804 6.72064 8.93934 6.43934C9.22064 6.15804 9.60218 6 10 6C10.3978 6 10.7794 6.15804 11.0607 6.43934C11.342 6.72064 11.5 7.10218 11.5 7.5ZM15.5 7.5C15.5 7.89782 15.342 8.27936 15.0607 8.56066C14.7794 8.84196 14.3978 9 14 9C13.6022 9 13.2206 8.84196 12.9393 8.56066C12.658 8.27936 12.5 7.89782 12.5 7.5C12.5 7.10218 12.658 6.72064 12.9393 6.43934C13.2206 6.15804 13.6022 6 14 6C14.3978 6 14.7794 6.15804 15.0607 6.43934C15.342 6.72064 15.5 7.10218 15.5 7.5ZM7.5 7.5C7.5 7.89782 7.34196 8.27936 7.06066 8.56066C6.77936 8.84196 6.39782 9 6 9C5.60218 9 5.22064 8.84196 4.93934 8.56066C4.65804 8.27936 4.5 7.89782 4.5 7.5C4.5 7.10218 4.65804 6.72064 4.93934 6.43934C5.22064 6.15804 5.60218 6 6 6C6.39782 6 6.77936 6.15804 7.06066 6.43934C7.34196 6.72064 7.5 7.10218 7.5 7.5Z" fill="white"/>
</svg>
