<svg width="30" height="27" viewBox="0 0 30 27" fill="none" xmlns="http://www.w3.org/2000/svg">
<path d="M0 2.97627C0 2.18691 0.31357 1.42989 0.871729 0.871729C1.42989 0.31357 2.18691 0 2.97627 0H26.7864C27.5758 0 28.3328 0.31357 28.891 0.871729C29.4491 1.42989 29.7627 2.18691 29.7627 2.97627V19.3458C29.7627 20.1351 29.4491 20.8921 28.891 21.4503C28.3328 22.0085 27.5758 22.322 26.7864 22.322H19.9618L15.9335 26.3504C15.6544 26.6294 15.276 26.7861 14.8814 26.7861C14.4868 26.7861 14.1083 26.6294 13.8292 26.3504L9.80086 22.322H2.97627C2.18691 22.322 1.42989 22.0085 0.871729 21.4503C0.31357 20.8921 0 20.1351 0 19.3458V2.97627ZM26.7864 2.97627H2.97627V19.3458H10.4169C10.8116 19.3458 11.19 19.5027 11.4691 19.7818L14.8814 23.1941L18.2937 19.7818C18.5727 19.5027 18.9511 19.3458 19.3458 19.3458H26.7864V2.97627Z" fill="white"/>
<path d="M17.1123 11.1609C17.1123 11.7529 16.8771 12.3207 16.4585 12.7393C16.0398 13.1579 15.4721 13.3931 14.8801 13.3931C14.288 13.3931 13.7203 13.1579 13.3017 12.7393C12.883 12.3207 12.6479 11.7529 12.6479 11.1609C12.6479 10.5689 12.883 10.0011 13.3017 9.58251C13.7203 9.16389 14.288 8.92871 14.8801 8.92871C15.4721 8.92871 16.0398 9.16389 16.4585 9.58251C16.8771 10.0011 17.1123 10.5689 17.1123 11.1609ZM23.0648 11.1609C23.0648 11.7529 22.8296 12.3207 22.411 12.7393C21.9924 13.1579 21.4246 13.3931 20.8326 13.3931C20.2406 13.3931 19.6728 13.1579 19.2542 12.7393C18.8356 12.3207 18.6004 11.7529 18.6004 11.1609C18.6004 10.5689 18.8356 10.0011 19.2542 9.58251C19.6728 9.16389 20.2406 8.92871 20.8326 8.92871C21.4246 8.92871 21.9924 9.16389 22.411 9.58251C22.8296 10.0011 23.0648 10.5689 23.0648 11.1609ZM11.1597 11.1609C11.1597 11.7529 10.9245 12.3207 10.5059 12.7393C10.0873 13.1579 9.51953 13.3931 8.92752 13.3931C8.3355 13.3931 7.76773 13.1579 7.34911 12.7393C6.93049 12.3207 6.69531 11.7529 6.69531 11.1609C6.69531 10.5689 6.93049 10.0011 7.34911 9.58251C7.76773 9.16389 8.3355 8.92871 8.92752 8.92871C9.51953 8.92871 10.0873 9.16389 10.5059 9.58251C10.9245 10.0011 11.1597 10.5689 11.1597 11.1609Z" fill="white"/>
</svg>
