<svg width="22" height="16" viewBox="0 0 22 16" fill="none" xmlns="http://www.w3.org/2000/svg">
<path d="M0.164062 15.1667V8.66667C0.164062 8.17917 0.263368 7.73681 0.461979 7.33958C0.66059 6.94236 0.922396 6.59028 1.2474 6.28333V3.25C1.2474 2.34722 1.56337 1.57986 2.19531 0.947917C2.82726 0.315972 3.59462 0 4.4974 0H8.83073C9.24601 0 9.6342 0.0769165 9.99531 0.23075C10.3564 0.384583 10.6905 0.596556 10.9974 0.866667C11.3043 0.595834 11.6384 0.383861 11.9995 0.23075C12.3606 0.0776387 12.7488 0.000722222 13.1641 0H17.4974C18.4002 0 19.1675 0.315972 19.7995 0.947917C20.4314 1.57986 20.7474 2.34722 20.7474 3.25V6.28333C21.0724 6.59028 21.3342 6.94236 21.5328 7.33958C21.7314 7.73681 21.8307 8.17917 21.8307 8.66667V15.1667H19.6641V13H2.33073V15.1667H0.164062ZM12.0807 5.41667H18.5807V3.25C18.5807 2.94306 18.4767 2.68558 18.2687 2.47758C18.0607 2.26958 17.8036 2.16594 17.4974 2.16667H13.1641C12.8571 2.16667 12.5996 2.27067 12.3916 2.47867C12.1836 2.68667 12.08 2.94378 12.0807 3.25V5.41667ZM3.41406 5.41667H9.91406V3.25C9.91406 2.94306 9.81006 2.68558 9.60206 2.47758C9.39406 2.26958 9.13695 2.16594 8.83073 2.16667H4.4974C4.19045 2.16667 3.93298 2.27067 3.72498 2.47867C3.51698 2.68667 3.41334 2.94378 3.41406 3.25V5.41667ZM2.33073 10.8333H19.6641V8.66667C19.6641 8.35972 19.5601 8.10225 19.3521 7.89425C19.1441 7.68625 18.8869 7.58261 18.5807 7.58333H3.41406C3.10712 7.58333 2.84965 7.68733 2.64165 7.89533C2.43365 8.10333 2.33001 8.36045 2.33073 8.66667V10.8333Z" fill="#92A3B4"/>
</svg>
