<svg width="21" height="18" viewBox="0 0 21 18" fill="none" xmlns="http://www.w3.org/2000/svg">
<path d="M18.2625 1.08333C18.0375 0.433333 17.3625 0 16.6875 0H4.3125C3.525 0 2.9625 0.433333 2.7375 1.08333L0.375 7.58333V16.25C0.375 16.7917 0.9375 17.3333 1.5 17.3333H2.625C3.3 17.3333 3.75 16.7917 3.75 16.25V15.1667H17.25V16.25C17.25 16.7917 17.8125 17.3333 18.375 17.3333H19.5C20.0625 17.3333 20.625 16.7917 20.625 16.25V7.58333L18.2625 1.08333ZM4.65 2.16667H16.2375L17.475 5.41667H3.525L4.65 2.16667ZM18.375 13H2.625V7.58333H18.375V13ZM5.4375 8.66667C6.3375 8.66667 7.125 9.425 7.125 10.2917C7.125 11.1583 6.3375 11.9167 5.4375 11.9167C4.5375 11.9167 3.75 11.1583 3.75 10.2917C3.75 9.425 4.5375 8.66667 5.4375 8.66667ZM15.5625 8.66667C16.4625 8.66667 17.25 9.425 17.25 10.2917C17.25 11.1583 16.4625 11.9167 15.5625 11.9167C14.6625 11.9167 13.875 11.1583 13.875 10.2917C13.875 9.425 14.6625 8.66667 15.5625 8.66667Z" fill="#92A3B4"/>
</svg>
