<svg width="21" height="18" viewBox="0 0 21 18" fill="none" xmlns="http://www.w3.org/2000/svg">
<path d="M17.914 1.08333C17.6887 0.433333 17.0127 0 16.3367 0H3.94333C3.15467 0 2.59133 0.433333 2.366 1.08333L0 7.58333V16.25C0 16.7917 0.563333 17.3333 1.12667 17.3333H2.25333C2.92933 17.3333 3.38 16.7917 3.38 16.25V15.1667H16.9V16.25C16.9 16.7917 17.4633 17.3333 18.0267 17.3333H19.1533C19.7167 17.3333 20.28 16.7917 20.28 16.25V7.58333L17.914 1.08333ZM4.28133 2.16667H15.886L17.1253 5.41667H3.15467L4.28133 2.16667ZM18.0267 13H2.25333V7.58333H18.0267V13ZM5.07 8.66667C5.97133 8.66667 6.76 9.425 6.76 10.2917C6.76 11.1583 5.97133 11.9167 5.07 11.9167C4.16867 11.9167 3.38 11.1583 3.38 10.2917C3.38 9.425 4.16867 8.66667 5.07 8.66667ZM15.21 8.66667C16.1113 8.66667 16.9 9.425 16.9 10.2917C16.9 11.1583 16.1113 11.9167 15.21 11.9167C14.3087 11.9167 13.52 11.1583 13.52 10.2917C13.52 9.425 14.3087 8.66667 15.21 8.66667Z" fill="#92A3B4"/>
</svg>
