<svg width="10" height="11" viewBox="0 0 10 11" fill="none" xmlns="http://www.w3.org/2000/svg">
<path d="M6.26667 3.19104e-08C6.49987 5.98729e-05 6.72713 0.0727571 6.91628 0.207794C7.10543 0.342831 7.24686 0.533363 7.32056 0.7524L7.62222 1.65H9.44444C9.59179 1.65 9.73309 1.70795 9.83728 1.81109C9.94147 1.91424 10 2.05413 10 2.2C10 2.34587 9.94147 2.48576 9.83728 2.58891C9.73309 2.69205 9.59179 2.75 9.44444 2.75L9.44278 2.78905L8.96111 9.4677C8.93105 9.88384 8.74287 10.2732 8.43446 10.5576C8.12605 10.8419 7.7203 10.9999 7.29889 11H2.70111C2.2797 10.9999 1.87395 10.8419 1.56554 10.5576C1.25713 10.2732 1.06895 9.88384 1.03889 9.4677L0.557222 2.7885L0.555556 2.75C0.408213 2.75 0.266905 2.69205 0.162718 2.58891C0.0585315 2.48576 0 2.34587 0 2.2C0 2.05413 0.0585315 1.91424 0.162718 1.81109C0.266905 1.70795 0.408213 1.65 0.555556 1.65H2.37778L2.67944 0.7524C2.75317 0.533274 2.89469 0.342679 3.08394 0.207633C3.2732 0.072588 3.50059 -5.55837e-05 3.73389 3.19104e-08H6.26667ZM8.33167 2.75H1.66833L2.14722 9.38905C2.1572 9.52776 2.21987 9.65759 2.32264 9.75239C2.42541 9.84719 2.56064 9.89993 2.70111 9.9H7.29889C7.43936 9.89993 7.57459 9.84719 7.67736 9.75239C7.78012 9.65759 7.8428 9.52776 7.85278 9.38905L8.33167 2.75ZM3.88889 4.4C4.02496 4.40002 4.1563 4.44948 4.25798 4.53899C4.35967 4.62851 4.42463 4.75186 4.44056 4.88565L4.44444 4.95V7.7C4.44429 7.84018 4.39007 7.97502 4.29286 8.07695C4.19566 8.17889 4.0628 8.24023 3.92145 8.24844C3.78009 8.25666 3.6409 8.21113 3.53232 8.12115C3.42373 8.03118 3.35395 7.90355 3.33722 7.76435L3.33333 7.7V4.95C3.33333 4.80413 3.39186 4.66424 3.49605 4.56109C3.60024 4.45795 3.74155 4.4 3.88889 4.4ZM6.11111 4.4C6.25845 4.4 6.39976 4.45795 6.50395 4.56109C6.60813 4.66424 6.66667 4.80413 6.66667 4.95V7.7C6.66667 7.84587 6.60813 7.98576 6.50395 8.08891C6.39976 8.19205 6.25845 8.25 6.11111 8.25C5.96377 8.25 5.82246 8.19205 5.71827 8.08891C5.61409 7.98576 5.55556 7.84587 5.55556 7.7V4.95C5.55556 4.80413 5.61409 4.66424 5.71827 4.56109C5.82246 4.45795 5.96377 4.4 6.11111 4.4ZM6.26667 1.1H3.73333L3.54833 1.65H6.45167L6.26667 1.1Z" fill="white"/>
</svg>
