<svg width="12" height="18" viewBox="0 0 12 18" fill="none" xmlns="http://www.w3.org/2000/svg">
<path d="M7.80361 0.285719C7.23217 0.107145 6.62502 0 6.00001 0C4.16069 0 2.51781 0.8393 1.41064 2.14289L4.24998 4.51793L7.80361 0.285719Z" fill="#1A73E8"/>
<path d="M1.41074 2.14453C0.535723 3.18026 0 4.53743 0 6.00174C0 7.12676 0.232147 8.03749 0.589295 8.85893L4.23221 4.53743L1.41074 2.14453Z" fill="#EA4335"/>
<path d="M6.00003 3.69816C7.26791 3.69816 8.28578 4.71603 8.28578 5.98391C8.28578 6.55535 8.08935 7.07321 7.75006 7.46608C7.75006 7.46608 9.55366 5.30533 11.3215 3.21601C10.5894 1.82313 9.33937 0.751682 7.82149 0.269531L4.25 4.5196C4.66072 4.01959 5.28573 3.69816 6.00003 3.69816Z" fill="#4285F4"/>
<path d="M6.00012 8.28522C4.73225 8.28522 3.71437 7.26734 3.71437 5.99947C3.71437 5.44589 3.9108 4.92802 4.25009 4.53516L0.607178 8.85666C1.21433 10.2317 2.25006 11.3388 3.32151 12.7317L7.75015 7.46378C7.33943 7.96378 6.69656 8.28522 6.00012 8.28522Z" fill="#FBBC04"/>
<path d="M7.66089 14.1771C9.66092 11.052 12.0002 9.62343 12.0002 5.99837C12.0002 4.99836 11.7502 4.06977 11.3217 3.23047L3.32153 12.7306C3.66082 13.1771 4.00012 13.6414 4.33941 14.1771C5.55371 16.0521 5.21442 17.1771 6.00015 17.1771C6.78588 17.1771 6.44659 16.0521 7.66089 14.1771Z" fill="#34A853"/>
</svg>
