<svg width="23" height="23" viewBox="0 0 23 23" fill="none" xmlns="http://www.w3.org/2000/svg">
<path d="M11.4999 10.0859C10.509 10.0859 9.70312 10.8918 9.70312 11.8827V12.6015C9.70312 13.5949 10.5113 14.3983 11.4999 14.3983C12.4909 14.3983 13.2967 13.5924 13.2967 12.6015V11.8827C13.2967 10.8918 12.4909 10.0859 11.4999 10.0859Z" fill="#695F7E"/>
<path d="M22.731 9.52358L11.9502 0.853993C11.6869 0.642419 11.3123 0.642419 11.0491 0.853993L0.268253 9.52358C-0.0407972 9.77243 -0.0902093 10.2248 0.158648 10.5343C0.407506 10.8433 0.859851 10.8927 1.16935 10.6439C8.02834 5.12832 -8.59157 18.493 11.4996 2.33636C13.1117 3.63271 21.1575 10.1031 21.8299 10.6439C21.9629 10.7508 22.1219 10.8025 22.28 10.8025C22.9546 10.8025 23.2605 9.95 22.731 9.52358Z" fill="#695F7E"/>
<path d="M11.3592 4.29158C10.278 5.16101 3.43698 10.6626 2.59927 11.3363C2.54626 11.3789 2.51562 11.4431 2.51562 11.5112V21.5812C2.51562 21.9781 2.83739 22.2999 3.23435 22.2999H19.765C20.1619 22.2999 20.4837 21.9781 20.4837 21.5812V11.5111C20.4837 11.4431 20.4525 11.3785 20.3995 11.3359C18.9071 10.1354 19.825 10.8737 11.6406 4.29198C11.5584 4.22586 11.4414 4.22546 11.3592 4.29158ZM14.8437 20.8624C14.7299 20.8624 14.634 20.7772 14.6207 20.6642L14.3503 18.3756C14.1796 16.9287 12.9551 15.8372 11.4997 15.8313C9.99487 15.8313 8.784 16.952 8.62386 18.3949L8.37204 20.6626C8.35942 20.7763 8.26324 20.8624 8.14883 20.8624H7.15435C7.02048 20.8624 6.91636 20.746 6.93114 20.613L7.195 18.2364C7.34054 16.9279 8.05747 15.8118 9.08137 15.125C9.19664 15.0477 9.21366 14.8868 9.11974 14.7847C8.58972 14.2085 8.26549 13.4399 8.26549 12.5971V11.9196C8.26549 10.1391 9.68726 8.66163 11.4677 8.64429C13.2656 8.62677 14.734 10.0844 14.734 11.8784V12.5971C14.734 13.4449 14.4061 14.2176 13.8706 14.7951C13.7762 14.8969 13.7928 15.0577 13.9077 15.1355C14.9162 15.818 15.6259 16.9188 15.7779 18.2072L16.0618 20.6116C16.0776 20.7451 15.9732 20.8625 15.8388 20.8625H14.8437V20.8624Z" fill="#695F7E"/>
</svg>
