<svg width="19" height="19" viewBox="0 0 19 19" fill="none" xmlns="http://www.w3.org/2000/svg">
<path d="M9.35918 0.291578C8.27805 1.16101 1.43698 6.6626 0.599266 7.33631C0.546261 7.37894 0.515625 7.44313 0.515625 7.51119V17.5812C0.515625 17.9781 0.837388 18.2999 1.23435 18.2999H17.765C18.1619 18.2999 18.4837 17.9781 18.4837 17.5812V7.51114C18.4837 7.44313 18.4525 7.37854 18.3995 7.33591C16.9071 6.13542 17.825 6.87368 9.64061 0.291982C9.5584 0.22586 9.44139 0.225455 9.35918 0.291578ZM12.8437 16.8624C12.7299 16.8624 12.634 16.7772 12.6207 16.6642L12.3503 14.3756C12.1796 12.9287 10.9551 11.8372 9.49965 11.8313C7.99487 11.8313 6.784 12.952 6.62386 14.3949L6.37204 16.6626C6.35942 16.7763 6.26324 16.8624 6.14883 16.8624H5.15435C5.02048 16.8624 4.91636 16.746 4.93114 16.613L5.195 14.2364C5.34054 12.9279 6.05747 11.8118 7.08137 11.125C7.19664 11.0477 7.21366 10.8868 7.11974 10.7847C6.58972 10.2085 6.26549 9.43987 6.26549 8.59708V7.91964C6.26549 6.1391 7.68726 4.66163 9.46771 4.64429C11.2656 4.62677 12.734 6.08439 12.734 7.87841V8.59713C12.734 9.44486 12.4061 10.2176 11.8706 10.7951C11.7762 10.8969 11.7928 11.0577 11.9077 11.1355C12.9162 11.818 13.6259 12.9188 13.7779 14.2072L14.0618 16.6116C14.0776 16.7451 13.9732 16.8625 13.8388 16.8625H12.8437V16.8624Z" fill="#695F7E"/>
</svg>
