<svg width="12" height="12" viewBox="0 0 12 12" fill="none" xmlns="http://www.w3.org/2000/svg">
<path d="M8.5625 1.41767C8.69492 1.28525 8.85212 1.18021 9.02513 1.10855C9.19814 1.03688 9.38357 1 9.57084 1C9.7581 1 9.94353 1.03688 10.1165 1.10855C10.2896 1.18021 10.4468 1.28525 10.5792 1.41767C10.7116 1.55008 10.8166 1.70728 10.8883 1.88029C10.96 2.0533 10.9968 2.23873 10.9968 2.426C10.9968 2.61326 10.96 2.7987 10.8883 2.97171C10.8166 3.14472 10.7116 3.30192 10.5792 3.43433L3.77292 10.2406L1 10.9968L1.75625 8.22392L8.5625 1.41767Z" stroke="white" stroke-width="1.5" stroke-linecap="round" stroke-linejoin="round"/>
</svg>
