<svg width="20" height="20" viewBox="0 0 20 20" fill="none" xmlns="http://www.w3.org/2000/svg">
<path d="M20 2.82344V5.07617H7.58789e-06V2.82344C-0.00103413 2.49878 0.105212 2.18287 0.302229 1.92481C0.499247 1.66676 0.775998 1.48103 1.08946 1.39649C1.21073 1.36391 1.33577 1.34749 1.46134 1.34766H4.10743V2.78828C4.10446 2.95793 4.13531 3.12647 4.19818 3.28407C4.26106 3.44167 4.35469 3.58516 4.47361 3.70618C4.59253 3.82721 4.73437 3.92333 4.89085 3.98895C5.04732 4.05456 5.21529 4.08836 5.38497 4.08836C5.55464 4.08836 5.72262 4.05456 5.87909 3.98895C6.03556 3.92333 6.1774 3.82721 6.29633 3.70618C6.41525 3.58516 6.50888 3.44167 6.57175 3.28407C6.63462 3.12647 6.66547 2.95793 6.66251 2.78828V1.34766H13.3375V2.78828C13.3375 3.12716 13.4721 3.45216 13.7117 3.69178C13.9514 3.9314 14.2764 4.06602 14.6152 4.06602C14.9541 4.06602 15.2791 3.9314 15.5187 3.69178C15.7584 3.45216 15.893 3.12716 15.893 2.78828V1.34766H18.5387C18.9281 1.34962 19.3009 1.5062 19.5749 1.78295C19.849 2.0597 20.0019 2.43397 20 2.82344Z" fill="white"/>
<path d="M7.88194e-06 5.97656V18.5242C-0.00105385 18.8489 0.105178 19.1649 0.302192 19.423C0.499206 19.6811 0.775967 19.8669 1.08946 19.9516C1.21075 19.984 1.33579 20.0003 1.46134 20H18.5387C18.9282 19.998 19.3009 19.8415 19.5749 19.5647C19.849 19.288 20.0019 18.9137 20 18.5242V5.97656H7.88194e-06ZM8.86134 10.1406C8.83577 10.1152 8.81547 10.085 8.80163 10.0517C8.78778 10.0184 8.78065 9.98273 8.78065 9.94668C8.78065 9.91063 8.78778 9.87493 8.80163 9.84165C8.81547 9.80837 8.83577 9.77815 8.86134 9.75273L9.2004 9.41367C9.22581 9.3881 9.25603 9.36781 9.28931 9.35396C9.3226 9.34011 9.35829 9.33299 9.39434 9.33299C9.43039 9.33299 9.46609 9.34011 9.49937 9.35396C9.53266 9.36781 9.56288 9.3881 9.58829 9.41367L10 9.82578L10.4117 9.41406C10.4371 9.38849 10.4674 9.3682 10.5006 9.35435C10.5339 9.34051 10.5696 9.33338 10.6057 9.33338C10.6417 9.33338 10.6774 9.34051 10.7107 9.35435C10.744 9.3682 10.7742 9.38849 10.7996 9.41406L11.1391 9.75352C11.1646 9.77893 11.1849 9.80915 11.1988 9.84243C11.2126 9.87572 11.2198 9.91141 11.2198 9.94746C11.2198 9.98351 11.2126 10.0192 11.1988 10.0525C11.1849 10.0858 11.1646 10.116 11.1391 10.1414L10.727 10.5531L11.1391 10.9648C11.1646 10.9903 11.1849 11.0205 11.1988 11.0538C11.2126 11.087 11.2198 11.1227 11.2198 11.1588C11.2198 11.1948 11.2126 11.2305 11.1988 11.2638C11.1849 11.2971 11.1646 11.3273 11.1391 11.3527L10.8 11.6918C10.7746 11.7174 10.7444 11.7377 10.7111 11.7515C10.6778 11.7654 10.6421 11.7725 10.6061 11.7725C10.57 11.7725 10.5343 11.7654 10.501 11.7515C10.4677 11.7377 10.4375 11.7174 10.4121 11.6918L10 11.2797L9.58829 11.6918C9.56288 11.7174 9.53266 11.7377 9.49937 11.7515C9.46609 11.7654 9.43039 11.7725 9.39434 11.7725C9.35829 11.7725 9.3226 11.7654 9.28931 11.7515C9.25603 11.7377 9.22581 11.7174 9.2004 11.6918L8.86094 11.3523C8.83537 11.3269 8.81508 11.2967 8.80124 11.2634C8.78739 11.2301 8.78026 11.1944 8.78026 11.1584C8.78026 11.1223 8.78739 11.0867 8.80124 11.0534C8.81508 11.0201 8.83537 10.9899 8.86094 10.9645L9.27305 10.5527L8.86134 10.1406ZM4.3043 10.1406C4.27873 10.1152 4.25844 10.085 4.2446 10.0517C4.23075 10.0184 4.22362 9.98273 4.22362 9.94668C4.22362 9.91063 4.23075 9.87493 4.2446 9.84165C4.25844 9.80837 4.27873 9.77815 4.3043 9.75273L4.64337 9.41367C4.66878 9.3881 4.699 9.36781 4.73228 9.35396C4.76557 9.34011 4.80126 9.33299 4.83731 9.33299C4.87336 9.33299 4.90906 9.34011 4.94234 9.35396C4.97563 9.36781 5.00585 9.3881 5.03126 9.41367L5.44298 9.82578L5.8547 9.41406C5.88011 9.38849 5.91033 9.3682 5.94361 9.35435C5.9769 9.34051 6.01259 9.33338 6.04864 9.33338C6.08469 9.33338 6.12039 9.34051 6.15367 9.35435C6.18696 9.3682 6.21717 9.38849 6.24259 9.41406L6.58204 9.75352C6.60761 9.77893 6.6279 9.80915 6.64175 9.84243C6.6556 9.87572 6.66272 9.91141 6.66272 9.94746C6.66272 9.98351 6.6556 10.0192 6.64175 10.0525C6.6279 10.0858 6.60761 10.116 6.58204 10.1414L6.17188 10.5527L6.58399 10.9645C6.60956 10.9899 6.62985 11.0201 6.6437 11.0534C6.65755 11.0867 6.66468 11.1223 6.66468 11.1584C6.66468 11.1944 6.65755 11.2301 6.6437 11.2634C6.62985 11.2967 6.60956 11.3269 6.58399 11.3523L6.24493 11.6914C6.21952 11.717 6.1893 11.7373 6.15601 11.7511C6.12273 11.765 6.08703 11.7721 6.05098 11.7721C6.01493 11.7721 5.97924 11.765 5.94595 11.7511C5.91267 11.7373 5.88245 11.717 5.85704 11.6914L5.44493 11.2797L5.03126 11.6918C5.00585 11.7174 4.97563 11.7377 4.94234 11.7515C4.90906 11.7654 4.87336 11.7725 4.83731 11.7725C4.80126 11.7725 4.76557 11.7654 4.73228 11.7515C4.699 11.7377 4.66878 11.7174 4.64337 11.6918L4.30391 11.3523C4.27834 11.3269 4.25805 11.2967 4.2442 11.2634C4.23036 11.2301 4.22323 11.1944 4.22323 11.1584C4.22323 11.1223 4.23036 11.0867 4.2442 11.0534C4.25805 11.0201 4.27834 10.9899 4.30391 10.9645L4.71602 10.5527L4.3043 10.1406ZM7.19493 15.7594C7.19493 15.8655 7.17404 15.9705 7.13344 16.0685C7.09284 16.1665 7.03334 16.2556 6.95833 16.3306C6.88331 16.4056 6.79426 16.4651 6.69625 16.5057C6.59825 16.5463 6.4932 16.5672 6.38712 16.5672H4.5004C4.28615 16.5672 4.08068 16.4821 3.92919 16.3306C3.77769 16.1791 3.69259 15.9736 3.69259 15.7594V14.3832C3.69259 14.2771 3.71348 14.1721 3.75408 14.0741C3.79467 13.9761 3.85418 13.887 3.92919 13.812C4.0042 13.737 4.09325 13.6775 4.19126 13.6369C4.28927 13.5963 4.39431 13.5754 4.5004 13.5754H6.38555C6.49164 13.5754 6.59668 13.5963 6.69469 13.6369C6.7927 13.6775 6.88175 13.737 6.95676 13.812C7.03178 13.887 7.09128 13.9761 7.13188 14.0741C7.17247 14.1721 7.19337 14.2771 7.19337 14.3832L7.19493 15.7594ZM11.752 15.7594C11.752 15.8655 11.7311 15.9705 11.6905 16.0685C11.6499 16.1665 11.5904 16.2556 11.5154 16.3306C11.4403 16.4056 11.3513 16.4651 11.2533 16.5057C11.1553 16.5463 11.0502 16.5672 10.9441 16.5672H9.05743C8.84318 16.5672 8.63771 16.4821 8.48622 16.3306C8.33473 16.1791 8.24962 15.9736 8.24962 15.7594V14.3832C8.24962 14.169 8.33473 13.9635 8.48622 13.812C8.63771 13.6605 8.84318 13.5754 9.05743 13.5754H10.9426C11.1568 13.5754 11.3623 13.6605 11.5138 13.812C11.6653 13.9635 11.7504 14.169 11.7504 14.3832L11.752 15.7594ZM16.309 15.7594C16.309 15.8655 16.2881 15.9705 16.2475 16.0685C16.2069 16.1665 16.1474 16.2556 16.0724 16.3306C15.9974 16.4056 15.9083 16.4651 15.8103 16.5057C15.7123 16.5463 15.6073 16.5672 15.5012 16.5672H13.6145C13.4002 16.5672 13.1947 16.4821 13.0433 16.3306C12.8918 16.1791 12.8066 15.9736 12.8066 15.7594V14.3832C12.8066 14.169 12.8918 13.9635 13.0433 13.812C13.1947 13.6605 13.4002 13.5754 13.6145 13.5754H15.4996C15.6057 13.5754 15.7107 13.5963 15.8088 13.6369C15.9068 13.6775 15.9958 13.737 16.0708 13.812C16.1458 13.887 16.2053 13.9761 16.2459 14.0741C16.2865 14.1721 16.3074 14.2771 16.3074 14.3832L16.309 15.7594ZM16.309 11.241C16.309 11.3471 16.2881 11.4521 16.2475 11.5502C16.2069 11.6482 16.1474 11.7372 16.0724 11.8122C15.9974 11.8872 15.9083 11.9467 15.8103 11.9873C15.7123 12.0279 15.6073 12.0488 15.5012 12.0488H13.6145C13.4002 12.0488 13.1947 11.9637 13.0433 11.8122C12.8918 11.6607 12.8066 11.4553 12.8066 11.241V9.86445C12.8066 9.65021 12.8918 9.44474 13.0433 9.29324C13.1947 9.14175 13.4002 9.05664 13.6145 9.05664H15.4996C15.6057 9.05664 15.7107 9.07753 15.8088 9.11813C15.9068 9.15873 15.9958 9.21823 16.0708 9.29324C16.1458 9.36826 16.2053 9.45731 16.2459 9.55532C16.2865 9.65332 16.3074 9.75837 16.3074 9.86445L16.309 11.241Z" fill="white"/>
<path d="M14.6137 3.56797C14.4085 3.56694 14.2122 3.48447 14.0678 3.3387C13.9234 3.19293 13.8428 2.99579 13.8438 2.79062V0.777734C13.8438 0.573538 13.9249 0.377706 14.0693 0.233317C14.2137 0.088929 14.4095 0.0078125 14.6137 0.0078125C14.8179 0.0078125 15.0137 0.088929 15.1581 0.233317C15.3025 0.377706 15.3836 0.573538 15.3836 0.777734V2.79062C15.3845 2.99579 15.304 3.19293 15.1596 3.3387C15.0152 3.48447 14.8188 3.56694 14.6137 3.56797Z" fill="white"/>
<path d="M5.3834 3.56578C5.2818 3.56532 5.18128 3.54484 5.08759 3.50552C4.99391 3.4662 4.90888 3.40881 4.83738 3.33662C4.76588 3.26443 4.70931 3.17887 4.67089 3.08481C4.63247 2.99075 4.61296 2.89004 4.61348 2.78843V0.775544C4.61117 0.673003 4.62937 0.571034 4.66701 0.475625C4.70466 0.380216 4.76098 0.29329 4.83269 0.219952C4.90439 0.146614 4.99003 0.0883422 5.08457 0.0485585C5.1791 0.00877482 5.28064 -0.0117187 5.3832 -0.0117188C5.48577 -0.0117187 5.5873 0.00877482 5.68184 0.0485585C5.77638 0.0883422 5.86201 0.146614 5.93372 0.219952C6.00542 0.29329 6.06175 0.380216 6.09939 0.475625C6.13704 0.571034 6.15524 0.673003 6.15293 0.775544V2.78843C6.15344 2.89 6.13395 2.99068 6.09555 3.08472C6.05716 3.17875 6.00062 3.2643 5.92916 3.33648C5.8577 3.40867 5.77273 3.46607 5.67908 3.50541C5.58544 3.54475 5.48497 3.56527 5.3834 3.56578Z" fill="white"/>
</svg>
