<svg width="22" height="22" viewBox="0 0 22 22" fill="none" xmlns="http://www.w3.org/2000/svg">
<path d="M20.7474 13V14.0833C20.7474 16.1525 19.5882 17.9508 17.8766 18.8608L18.5807 21.6667H16.4141L15.8724 19.5H6.1224L5.58073 21.6667H3.41406L4.11823 18.8608C3.25068 18.4006 2.52498 17.7126 2.01915 16.8709C1.51333 16.0291 1.24651 15.0654 1.2474 14.0833V13H0.164062V10.8333H19.6641V3.25C19.6641 2.96268 19.5499 2.68713 19.3468 2.48397C19.1436 2.2808 18.868 2.16667 18.5807 2.16667C18.0391 2.16667 17.6274 2.535 17.4974 3.0225C18.1799 3.6075 18.5807 4.47417 18.5807 5.41667H12.0807C12.0807 4.55471 12.4231 3.72806 13.0326 3.11857C13.6421 2.50908 14.4688 2.16667 15.3307 2.16667H15.5149C15.9591 0.91 17.1616 0 18.5807 0C19.4427 0 20.2693 0.34241 20.8788 0.951903C21.4883 1.5614 21.8307 2.38805 21.8307 3.25V13H20.7474ZM18.5807 13H3.41406V14.0833C3.41406 14.9453 3.75647 15.7719 4.36597 16.3814C4.97546 16.9909 5.80211 17.3333 6.66406 17.3333H15.3307C16.1927 17.3333 17.0193 16.9909 17.6288 16.3814C18.2383 15.7719 18.5807 14.9453 18.5807 14.0833V13Z" fill="#92A3B4"/>
</svg>
