<svg width="30" height="30" viewBox="0 0 30 30" fill="none" xmlns="http://www.w3.org/2000/svg">
<path d="M15.543 25.0489C15.543 27.7794 17.7536 30.0008 20.4708 30.0008C23.188 30.0008 25.3986 27.7794 25.3986 25.0489C25.3986 22.3317 23.188 20.1211 20.4708 20.1211C17.7536 20.1211 15.543 22.3317 15.543 25.0489ZM18.6513 24.4601L19.7571 25.566L22.4746 22.8485L23.7176 24.0914L19.7571 28.0519L17.4083 25.7031L18.6513 24.4601Z" fill="#315D80"/>
<path d="M0 0V30H15.9654C14.6272 28.7722 13.7863 27.0069 13.7863 25.0481C13.7863 22.2526 15.5112 19.8527 17.9524 18.8558V0H0ZM11.6954 27.6324H6.52137V25.8746H11.6954V27.6324ZM12.561 9.00785H10.8032V8.94111C10.8032 8.28639 10.2705 7.75365 9.6157 7.75365H8.4242C7.76941 7.75365 7.23674 8.28633 7.23674 8.94111V8.97035C7.23674 9.62514 7.76941 10.1578 8.4242 10.1578H9.6157C11.2397 10.1578 12.561 11.479 12.561 13.1031C12.561 14.6316 11.3905 15.8914 9.89883 16.0345V17.9943H8.14102V16.0345C6.64939 15.8914 5.47893 14.6316 5.47893 13.1031V13.0156H7.23674V13.1031C7.23674 13.7579 7.76941 14.2906 8.4242 14.2906H9.6157C10.2705 14.2906 10.8032 13.7579 10.8032 13.1031C10.8032 12.4484 10.2705 11.9157 9.6157 11.9157H8.4242C6.80016 11.9157 5.47893 10.5945 5.47893 8.97041V8.94117C5.47893 7.41269 6.64934 6.15281 8.14102 6.00984V4.04994H9.89883V6.00979C11.3905 6.15275 12.561 7.41269 12.561 8.94117V9.00785Z" fill="#315D80"/>
<path d="M25.5934 10.1616L26.8362 11.4045L30.0014 8.23939L26.8362 5.07422L25.5934 6.31717L26.6366 7.36049H20.9727V9.1183H26.6366L25.5934 10.1616Z" fill="#315D80"/>
<path d="M25.5682 12.4929L24.3253 11.25L21.1602 14.4152L24.3253 17.5804L25.5682 16.3374L24.525 15.2941H30V13.5363H24.525L25.5682 12.4929Z" fill="#315D80"/>
</svg>
